<?xml version="1.0" encoding="UTF-8" standalone="no"?>
<!-- Created with Inkscape (http://www.inkscape.org/) -->

<svg
   xmlns:dc="http://purl.org/dc/elements/1.1/"
   xmlns:cc="http://creativecommons.org/ns#"
   xmlns:rdf="http://www.w3.org/1999/02/22-rdf-syntax-ns#"
   xmlns:svg="http://www.w3.org/2000/svg"
   xmlns="http://www.w3.org/2000/svg"
   xmlns:sodipodi="http://sodipodi.sourceforge.net/DTD/sodipodi-0.dtd"
   xmlns:inkscape="http://www.inkscape.org/namespaces/inkscape"
   id="svg2"
   height="60"
   width="60"
   version="1.1"
   inkscape:version="0.48.2 r9819"
   sodipodi:docname="berthing_marked_pushing_3.svg">
  <title
     id="title2993">Berthing Marked Pushing 3</title>
  <defs
     id="defs4072" />
  <sodipodi:namedview
     pagecolor="#ffffff"
     bordercolor="#666666"
     borderopacity="1"
     objecttolerance="10"
     gridtolerance="10"
     guidetolerance="10"
     inkscape:pageopacity="0"
     inkscape:pageshadow="2"
     inkscape:window-width="1440"
     inkscape:window-height="808"
     id="namedview4070"
     showgrid="false"
     inkscape:zoom="9.1666667"
     inkscape:cx="10.8"
     inkscape:cy="30"
     inkscape:window-x="0"
     inkscape:window-y="0"
     inkscape:window-maximized="1"
     inkscape:current-layer="svg2" />
  <metadata
     id="metadata7">
    <rdf:RDF>
      <cc:Work
         rdf:about="">
        <dc:format>image/svg+xml</dc:format>
        <dc:type
           rdf:resource="http://purl.org/dc/dcmitype/StillImage" />
        <dc:title>Berthing Marked Pushing 3</dc:title>
        <cc:license
           rdf:resource="http://creativecommons.org/licenses/publicdomain/" />
        <dc:identifier>E5.7</dc:identifier>
      </cc:Work>
      <cc:License
         rdf:about="http://creativecommons.org/licenses/publicdomain/">
        <cc:permits
           rdf:resource="http://creativecommons.org/ns#Reproduction" />
        <cc:permits
           rdf:resource="http://creativecommons.org/ns#Distribution" />
        <cc:permits
           rdf:resource="http://creativecommons.org/ns#DerivativeWorks" />
      </cc:License>
    </rdf:RDF>
  </metadata>
  <g
     id="layer13"
     transform="translate(0,-60)">
    <g
       id="layer1-11"
       transform="matrix(.97221 0 0 .97221 -310.27 -427.57)">
      <g
         id="g2993"
         transform="matrix(.84345 0 0 .84345 54.793 83.341)">
        <path
           id="path18031-7"
           stroke-linejoin="bevel"
           d="m318.82 567.8h-0.0337c-0.18375-0.001-0.36625-0.0137-0.54875-0.0387-0.1825-0.0238-0.3625-0.0625-0.53875-0.11125-0.17875-0.0462-0.35375-0.10625-0.5225-0.1775-0.17-0.0712-0.33375-0.15375-0.49125-0.2475-0.16-0.0913-0.3125-0.19375-0.45875-0.30625-0.14625-0.11125-0.28375-0.23375-0.4125-0.36375-0.13125-0.13-0.25375-0.2675-0.365-0.4125-0.1125-0.14625-0.21375-0.29875-0.30625-0.45875-0.0925-0.15875-0.175-0.3225-0.245-0.4925-0.0713-0.17-0.13125-0.34375-0.17875-0.52125-0.05-0.1775-0.0888-0.3575-0.11375-0.54-0.0263-0.18125-0.0375-0.365-0.0375-0.54875v-62.429c0.001-0.18375 0.015-0.3675 0.0388-0.54875 0.025-0.1825 0.0625-0.3625 0.1125-0.54 0.0463-0.1775 0.105-0.3525 0.17625-0.5225 0.0712-0.16875 0.15375-0.3325 0.2475-0.49125 0.0925-0.15875 0.195-0.3125 0.30625-0.4575 0.1125-0.14625 0.23375-0.28375 0.365-0.41375 0.12875-0.13 0.26625-0.2525 0.4125-0.36375 0.145-0.1125 0.29875-0.215 0.45875-0.30625 0.1575-0.0925 0.3225-0.175 0.49125-0.24625 0.17-0.0712 0.34375-0.13 0.5225-0.1775 0.17625-0.0512 0.35625-0.0888 0.53875-0.115 0.1825-0.025 0.36625-0.0375 0.54875-0.0363h62.429c0.18375 0.001 0.3675 0.0138 0.55 0.0388 0.18125 0.025 0.3625 0.0625 0.53875 0.1125 0.17875 0.045 0.3525 0.105 0.5225 0.17625 0.16875 0.0712 0.33375 0.15375 0.49125 0.2475 0.16 0.0913 0.3125 0.19375 0.45875 0.30625 0.145 0.11125 0.28375 0.23375 0.4125 0.36375 0.13125 0.13 0.2525 0.2675 0.365 0.41375 0.1125 0.145 0.21375 0.29875 0.305 0.4575 0.0937 0.15875 0.17625 0.3225 0.24625 0.4925 0.0712 0.17 0.13125 0.34375 0.17875 0.52125 0.05 0.1775 0.0875 0.3575 0.11375 0.54 0.0263 0.18125 0.0375 0.365 0.0363 0.54875v62.429c-0.001 0.18375-0.0138 0.3675-0.0388 0.54875-0.0237 0.1825-0.0613 0.3625-0.11125 0.54-0.0463 0.1775-0.105 0.3525-0.1775 0.52125-0.0712 0.17-0.15375 0.33375-0.2475 0.4925-0.0913 0.15875-0.19375 0.3125-0.305 0.45875-0.1125 0.145-0.23375 0.2825-0.365 0.4125-0.12875 0.13125-0.2675 0.2525-0.4125 0.365-0.14625 0.11125-0.29875 0.21375-0.45875 0.305-0.15875 0.0937-0.3225 0.175-0.4925 0.24625-0.16875 0.0712-0.34375 0.13-0.52125 0.17875-0.17625 0.0488-0.3575 0.0875-0.53875 0.11375-0.1825 0.025-0.36625 0.0375-0.55 0.0362h-62.395z"
           stroke="#000"
           stroke-miterlimit="22.926"
           stroke-width=".27772"
           fill="#fff" />
        <path
           id="path18023-9"
           stroke-linejoin="bevel"
           d="m318.82 564.76h-0.01c-0.0525 0-0.105-0.004-0.15625-0.0113-0.0525-0.006-0.10375-0.0175-0.155-0.0325-0.05-0.0125-0.1-0.03-0.14875-0.05-0.0475-0.02-0.095-0.0438-0.14-0.0713-0.0463-0.0263-0.09-0.055-0.13125-0.0875-0.0412-0.0312-0.0813-0.0662-0.1175-0.10375-0.0375-0.0362-0.0725-0.0762-0.105-0.1175-0.0312-0.0413-0.06-0.085-0.0863-0.13125-0.0275-0.045-0.05-0.0925-0.0713-0.14-0.02-0.0488-0.0375-0.0987-0.05-0.14875-0.015-0.0512-0.025-0.1025-0.0325-0.155-0.007-0.0512-0.0113-0.10375-0.0113-0.15625v-0.01-62.362-0.009c0-0.0525 0.004-0.105 0.0113-0.1575 0.007-0.0513 0.0175-0.10375 0.0325-0.15375 0.0125-0.0512 0.03-0.10125 0.05-0.14875 0.02-0.0487 0.0437-0.0962 0.0713-0.14125 0.0263-0.045 0.055-0.0888 0.0875-0.13125 0.0312-0.0413 0.0663-0.08 0.10375-0.1175 0.0362-0.0375 0.0763-0.0725 0.1175-0.10375 0.0412-0.0325 0.085-0.0613 0.13125-0.0875 0.045-0.0263 0.0925-0.05 0.14-0.0712 0.0487-0.02 0.0987-0.0363 0.14875-0.05 0.0512-0.015 0.1025-0.025 0.155-0.0325 0.0513-0.007 0.10375-0.0112 0.15625-0.01h62.381c0.0525 0 0.105 0.002 0.1575 0.01 0.0512 0.007 0.10375 0.0175 0.15375 0.0325 0.0512 0.0125 0.10125 0.03 0.14875 0.05 0.0488 0.0212 0.0963 0.0437 0.14125 0.0712 0.045 0.0263 0.0888 0.055 0.13 0.0875 0.0425 0.0312 0.0813 0.0662 0.11875 0.10375 0.0375 0.0375 0.0725 0.0762 0.10375 0.1175 0.0325 0.0425 0.0613 0.0862 0.0875 0.13125 0.0263 0.045 0.05 0.0925 0.0712 0.14125 0.02 0.0487 0.0363 0.0975 0.05 0.14875 0.015 0.05 0.025 0.1025 0.0325 0.15375 0.007 0.0525 0.0112 0.105 0.0112 0.1575v62.381c0 0.0525-0.004 0.105-0.0112 0.15625-0.007 0.0525-0.0175 0.10375-0.0325 0.155-0.0125 0.05-0.03 0.1-0.05 0.14875-0.02 0.0475-0.0437 0.095-0.0712 0.14-0.0263 0.0462-0.055 0.09-0.0875 0.13125-0.0312 0.0412-0.0662 0.0812-0.10375 0.1175-0.0375 0.0375-0.0762 0.0725-0.11875 0.105-0.0412 0.0312-0.085 0.06-0.13 0.0862-0.045 0.0275-0.0925 0.05-0.14125 0.0713-0.0475 0.02-0.0975 0.0375-0.14875 0.05-0.05 0.015-0.1025 0.0263-0.15375 0.0325-0.0525 0.007-0.105 0.0113-0.1575 0.0113h-0.009-62.362z"
           fill-rule="evenodd"
           stroke="#231f20"
           stroke-miterlimit="22.926"
           stroke-width=".27772"
           fill="#039" />
        <path
           id="path18027-7"
           stroke-linejoin="bevel"
           d="m318.82 567.73h62.362 0.0163 0.0163c0.18125-0.001 0.36125-0.0137 0.54-0.0387 0.18-0.0238 0.3575-0.06 0.53125-0.11 0.175-0.045 0.3475-0.10375 0.51375-0.17375s0.32875-0.15125 0.48375-0.24375c0.1575-0.09 0.3075-0.19 0.45125-0.30125 0.1425-0.11 0.27875-0.23 0.40625-0.3575 0.12875-0.1275 0.24875-0.26375 0.35875-0.40625 0.11-0.14375 0.21-0.295 0.3-0.45125 0.0925-0.15625 0.1725-0.3175 0.2425-0.485 0.07-0.16625 0.12875-0.33875 0.175-0.5125 0.05-0.175 0.0875-0.3525 0.1125-0.53125s0.0375-0.36 0.0362-0.54v-62.429c-0.001-0.18-0.0137-0.36125-0.0375-0.54-0.0238-0.18-0.0613-0.35625-0.11125-0.53125-0.045-0.175-0.1025-0.34625-0.1725-0.5125-0.0712-0.1675-0.1525-0.32875-0.245-0.485-0.09-0.15625-0.19-0.3075-0.3-0.45125-0.11-0.1425-0.23-0.27875-0.35875-0.405-0.1275-0.13-0.26375-0.24875-0.40625-0.36-0.14375-0.11-0.29375-0.21-0.45125-0.3-0.15625-0.0913-0.3175-0.1725-0.48375-0.2425-0.1675-0.07-0.33875-0.12875-0.51375-0.175-0.17375-0.05-0.35125-0.0875-0.53125-0.1125-0.17875-0.025-0.36-0.0375-0.54-0.0362h-62.428c-0.18125 0.001-0.36125 0.0137-0.54125 0.0375-0.17875 0.025-0.35625 0.0613-0.53 0.11125-0.175 0.045-0.3475 0.1025-0.51375 0.1725-0.16625 0.0713-0.32875 0.1525-0.485 0.245-0.15625 0.09-0.3075 0.19-0.45 0.3-0.14375 0.11125-0.27875 0.23-0.40625 0.36-0.12875 0.12625-0.24875 0.2625-0.35875 0.405-0.11 0.14375-0.21125 0.295-0.30125 0.45125-0.0913 0.15625-0.1725 0.31875-0.2425 0.485-0.0687 0.16625-0.1275 0.33875-0.175 0.5125-0.0488 0.175-0.0863 0.3525-0.1125 0.53125-0.025 0.17875-0.0375 0.36-0.035 0.54v0.0175l-0.001 0.0162v62.361l0.001 0.0163v0.0175c0.001 0.18 0.0125 0.36125 0.0375 0.54 0.0238 0.17875 0.0612 0.35625 0.11 0.53125 0.045 0.175 0.10375 0.34625 0.17375 0.5125 0.07 0.1675 0.15125 0.32875 0.24375 0.485 0.09 0.15625 0.19125 0.3075 0.30125 0.45 0.11 0.14375 0.23 0.28 0.35875 0.4075 0.1275 0.1275 0.2625 0.24875 0.40625 0.35875 0.1425 0.11 0.29375 0.21 0.45 0.3 0.15625 0.0913 0.31875 0.1725 0.485 0.2425 0.1675 0.07 0.33875 0.12875 0.51375 0.175 0.17375 0.05 0.35125 0.0875 0.53125 0.1125 0.17875 0.025 0.35875 0.0375 0.54 0.0362h0.0163 0.0163z"
           stroke="#231f20"
           stroke-miterlimit="22.926"
           stroke-width="2.439"
           fill="none" />
        <path
           id="path18035-9"
           d="m375.73 550.59c0.006-0.01 0.0125-0.02 0.0188-0.03l-25.8-44.514-25.71 44.489 0.0175 0.0275 0.0163 0.0275h51.458"
           fill-rule="evenodd"
           fill="#fff" />
        <g
           id="g3913"
           fill="#039"
           transform="matrix(0 1.25 1.25 0 350.41 547.27)">
          <path
             id="path3915"
             d="m0 0-6.418 4.238-0.008 0.005c-0.013 0.009-0.027 0.016-0.04 0.022-0.014 0.006-0.028 0.011-0.043 0.014-0.014 0.005-0.028 0.008-0.043 0.01-0.015 0.001-0.029 0.002-0.044 0.001-0.015 0-0.03-0.001-0.044-0.004-0.015-0.003-0.029-0.007-0.043-0.011-0.014-0.005-0.028-0.011-0.042-0.018-0.013-0.006-0.026-0.014-0.039-0.023-0.012-0.009-0.025-0.019-0.036-0.029-0.012-0.011-0.022-0.022-0.033-0.034-0.01-0.013-0.019-0.025-0.028-0.039s-0.016-0.028-0.023-0.043c-0.008-0.015-0.014-0.03-0.019-0.045-0.005-0.016-0.01-0.032-0.013-0.049-0.003-0.013-0.005-0.026-0.007-0.04-0.001-0.013-0.002-0.027-0.003-0.041v-8.496c0.001-0.017 0.002-0.034 0.004-0.05 0.003-0.017 0.006-0.033 0.01-0.049 0.004-0.017 0.009-0.032 0.015-0.048 0.006-0.015 0.013-0.03 0.021-0.044 0.008-0.015 0.016-0.029 0.026-0.042 0.009-0.013 0.019-0.025 0.03-0.036 0.01-0.012 0.022-0.023 0.034-0.033s0.024-0.019 0.037-0.027 0.026-0.015 0.04-0.021 0.028-0.011 0.042-0.015c0.015-0.004 0.029-0.007 0.044-0.009 0.015-0.001 0.029-0.002 0.044-0.001 0.015 0 0.03 0.002 0.044 0.004 0.015 0.003 0.029 0.006 0.043 0.012 0.012 0.003 0.023 0.008 0.034 0.013s0.022 0.011 0.032 0.018l0.008 0.005 6.418 4.238 0.008 0.005c0.012 0.009 0.024 0.019 0.036 0.029 0.011 0.011 0.022 0.022 0.032 0.035 0.01 0.012 0.02 0.025 0.029 0.038 0.008 0.014 0.016 0.028 0.023 0.043s0.013 0.03 0.019 0.046c0.005 0.015 0.009 0.032 0.012 0.048 0.004 0.016 0.006 0.033 0.008 0.05 0.001 0.016 0.002 0.033 0.001 0.05 0 0.017-0.001 0.034-0.004 0.05-0.002 0.017-0.005 0.033-0.01 0.049-0.003 0.016-0.009 0.032-0.015 0.048-0.005 0.015-0.013 0.03-0.021 0.044-0.007 0.015-0.016 0.029-0.025 0.042s-0.019 0.025-0.03 0.036c-0.009 0.01-0.017 0.019-0.027 0.027-0.009 0.008-0.019 0.015-0.029 0.022l-0.007 0.005"
             fill-rule="evenodd"
             fill="#039" />
        </g>
        <g
           id="g3917"
           fill="#039"
           transform="matrix(0 1.25 1.25 0 350.41 537.67)">
          <path
             id="path3919"
             d="m0 0-6.426 4.243c-0.013 0.009-0.027 0.016-0.04 0.022-0.014 0.006-0.028 0.011-0.043 0.014-0.014 0.005-0.028 0.008-0.043 0.01-0.015 0.001-0.029 0.002-0.044 0.001-0.015 0-0.03-0.001-0.044-0.004-0.015-0.003-0.029-0.007-0.043-0.011-0.014-0.005-0.028-0.011-0.042-0.018-0.013-0.006-0.026-0.014-0.039-0.023-0.012-0.009-0.025-0.019-0.036-0.029-0.012-0.011-0.022-0.022-0.033-0.034-0.01-0.013-0.019-0.025-0.028-0.039s-0.016-0.028-0.024-0.043c-0.007-0.015-0.013-0.03-0.018-0.045-0.005-0.016-0.01-0.032-0.013-0.049-0.003-0.013-0.005-0.026-0.007-0.04-0.001-0.013-0.002-0.027-0.003-0.041v-8.496c0.001-0.017 0.002-0.034 0.004-0.05 0.003-0.017 0.006-0.033 0.01-0.049 0.004-0.017 0.009-0.032 0.015-0.048 0.006-0.015 0.013-0.03 0.021-0.044 0.008-0.015 0.016-0.029 0.025-0.042 0.01-0.013 0.02-0.025 0.031-0.036 0.01-0.012 0.022-0.023 0.034-0.033 0.011-0.01 0.024-0.019 0.037-0.027s0.026-0.015 0.04-0.021 0.028-0.011 0.042-0.015c0.015-0.004 0.029-0.007 0.044-0.009 0.015-0.001 0.029-0.002 0.044-0.001 0.015 0 0.03 0.002 0.044 0.004 0.015 0.003 0.029 0.006 0.043 0.012 0.012 0.003 0.023 0.008 0.034 0.013s0.022 0.011 0.032 0.018l0.007 0.005 6.419 4.238 0.008 0.005c0.012 0.009 0.024 0.019 0.036 0.029 0.011 0.011 0.022 0.022 0.032 0.035 0.01 0.012 0.02 0.025 0.029 0.038 0.008 0.014 0.016 0.028 0.023 0.043s0.013 0.03 0.019 0.046c0.005 0.015 0.009 0.032 0.012 0.048 0.004 0.016 0.007 0.033 0.008 0.05 0.001 0.016 0.002 0.033 0.001 0.05 0 0.017-0.001 0.034-0.004 0.05-0.002 0.017-0.005 0.033-0.01 0.049-0.003 0.016-0.009 0.032-0.015 0.048-0.006 0.015-0.013 0.03-0.021 0.044-0.007 0.015-0.015 0.029-0.025 0.042-0.009 0.013-0.019 0.025-0.03 0.036-0.009 0.01-0.017 0.019-0.027 0.027-0.009 0.008-0.019 0.015-0.029 0.022l-0.007 0.005"
             fill-rule="evenodd"
             fill="#039" />
        </g>
        <path
           id="path3923"
           d="m350.41 528.06 5.2975-8.0225 0.006-0.01c0.0113-0.0163 0.02-0.0325 0.0275-0.05 0.007-0.0175 0.0138-0.035 0.0175-0.0537 0.006-0.0175 0.01-0.035 0.0125-0.0538 0.001-0.0187 0.002-0.0362 0.001-0.055 0-0.0188-0.001-0.0375-0.005-0.055-0.004-0.0188-0.009-0.0362-0.0138-0.0538-0.006-0.0175-0.0138-0.035-0.0225-0.0525-0.007-0.0162-0.0175-0.0325-0.0288-0.0487-0.0112-0.015-0.0237-0.0312-0.0362-0.045-0.0137-0.015-0.0275-0.0275-0.0425-0.0412-0.0163-0.0125-0.0312-0.0238-0.0488-0.035-0.0175-0.0113-0.035-0.02-0.0537-0.0288-0.0188-0.01-0.0375-0.0175-0.0562-0.0238-0.02-0.006-0.04-0.0125-0.0613-0.0163-0.0163-0.004-0.0325-0.006-0.05-0.009-0.0161-0.001-0.0336-0.003-0.0511-0.004h-10.62c-0.0213 0.001-0.0425 0.002-0.0625 0.005-0.0213 0.004-0.0413 0.007-0.0613 0.0125-0.0213 0.005-0.04 0.0113-0.06 0.0188-0.0188 0.007-0.0375 0.0163-0.055 0.0263-0.0188 0.01-0.0362 0.02-0.0525 0.0325-0.0162 0.0113-0.0312 0.0238-0.045 0.0375-0.015 0.0125-0.0288 0.0275-0.0412 0.0425-0.0125 0.0137-0.0238 0.03-0.0337 0.0462-0.01 0.0163-0.0188 0.0325-0.0263 0.05-0.008 0.0175-0.0138 0.035-0.0188 0.0525-0.005 0.0187-0.009 0.0362-0.0113 0.055-0.001 0.0187-0.002 0.0362-0.001 0.055 0 0.0188 0.002 0.0375 0.005 0.055 0.004 0.0188 0.007 0.0362 0.015 0.0538 0.004 0.015 0.01 0.0288 0.0163 0.0425 0.006 0.0138 0.0137 0.0275 0.0225 0.04l0.006 0.01 5.2975 8.0225 0.006 0.01c0.0113 0.015 0.0238 0.03 0.0362 0.045 0.0138 0.0138 0.0275 0.0275 0.0437 0.04 0.015 0.0125 0.0312 0.025 0.0475 0.0362 0.0175 0.01 0.035 0.02 0.0537 0.0288 0.0188 0.009 0.0375 0.0163 0.0575 0.0238 0.0188 0.006 0.04 0.0113 0.06 0.015 0.02 0.005 0.0412 0.009 0.0625 0.01 0.02 0.001 0.0412 0.002 0.0625 0.001 0.0213 0 0.0425-0.001 0.0625-0.005 0.0213-0.002 0.0412-0.006 0.0613-0.0125 0.02-0.004 0.04-0.0113 0.06-0.0188 0.0188-0.006 0.0375-0.0163 0.055-0.025 0.0187-0.01 0.0362-0.02 0.0525-0.0325 0.0163-0.0113 0.0312-0.0238 0.045-0.0375 0.0125-0.0112 0.0238-0.0213 0.0337-0.0337 0.01-0.0112 0.0188-0.0238 0.0275-0.0362l0.006-0.009"
           fill-rule="evenodd"
           fill="#039" />
      </g>
    </g>
  </g>
</svg>
