<?xml version="1.0" encoding="UTF-8" standalone="no"?>
<!-- Created with Inkscape (http://www.inkscape.org/) -->

<svg
   xmlns:dc="http://purl.org/dc/elements/1.1/"
   xmlns:cc="http://creativecommons.org/ns#"
   xmlns:rdf="http://www.w3.org/1999/02/22-rdf-syntax-ns#"
   xmlns:svg="http://www.w3.org/2000/svg"
   xmlns="http://www.w3.org/2000/svg"
   xmlns:sodipodi="http://sodipodi.sourceforge.net/DTD/sodipodi-0.dtd"
   xmlns:inkscape="http://www.inkscape.org/namespaces/inkscape"
   id="svg2"
   height="60"
   width="60"
   version="1.1"
   inkscape:version="0.48.2 r9819"
   sodipodi:docname="berthing_marked_2.svg">
  <title
     id="title2996">Berthing Marked 2</title>
  <defs
     id="defs4210" />
  <sodipodi:namedview
     pagecolor="#ffffff"
     bordercolor="#666666"
     borderopacity="1"
     objecttolerance="10"
     gridtolerance="10"
     guidetolerance="10"
     inkscape:pageopacity="0"
     inkscape:pageshadow="2"
     inkscape:window-width="1440"
     inkscape:window-height="808"
     id="namedview4208"
     showgrid="false"
     inkscape:zoom="9.1666667"
     inkscape:cx="10.8"
     inkscape:cy="30"
     inkscape:window-x="0"
     inkscape:window-y="0"
     inkscape:window-maximized="1"
     inkscape:current-layer="svg2" />
  <metadata
     id="metadata7">
    <rdf:RDF>
      <cc:Work
         rdf:about="">
        <dc:format>image/svg+xml</dc:format>
        <dc:type
           rdf:resource="http://purl.org/dc/dcmitype/StillImage" />
        <dc:title>Berthing Marked 2</dc:title>
        <cc:license
           rdf:resource="http://creativecommons.org/licenses/publicdomain/" />
        <dc:identifier>E5.14</dc:identifier>
      </cc:Work>
      <cc:License
         rdf:about="http://creativecommons.org/licenses/publicdomain/">
        <cc:permits
           rdf:resource="http://creativecommons.org/ns#Reproduction" />
        <cc:permits
           rdf:resource="http://creativecommons.org/ns#Distribution" />
        <cc:permits
           rdf:resource="http://creativecommons.org/ns#DerivativeWorks" />
      </cc:License>
    </rdf:RDF>
  </metadata>
  <g
     id="layer20"
     transform="translate(0,-60)">
    <g
       id="layer1-51"
       transform="matrix(.97035 0 0 .97035 -309.62 -426.58)">
      <g
         id="g3151"
         transform="matrix(.84345 0 0 .84345 54.792 83.341)">
        <g
           id="g3685"
           transform="matrix(0 1.25 1.25 0 318.82 567.73)"
           stroke="#000"
           fill="#fff">
          <path
             id="path3687"
             stroke-linejoin="bevel"
             d="m0 0v49.89 0.013 0.013c-0.001 0.145-0.011 0.289-0.031 0.432-0.019 0.144-0.048 0.286-0.088 0.425-0.036 0.14-0.083 0.278-0.139 0.411s-0.121 0.263-0.195 0.387c-0.072 0.126-0.152 0.246-0.241 0.361-0.088 0.114-0.184 0.223-0.286 0.325-0.102 0.103-0.211 0.199-0.325 0.287-0.115 0.088-0.236 0.169-0.361 0.24-0.125 0.074-0.254 0.138-0.388 0.194s-0.271 0.103-0.41 0.14c-0.14 0.04-0.282 0.07-0.425 0.09s-0.288 0.03-0.432 0.029h-49.943c-0.144-0.001-0.289-0.011-0.432-0.03-0.144-0.019-0.285-0.049-0.425-0.089-0.14-0.036-0.277-0.082-0.41-0.138-0.134-0.057-0.263-0.122-0.388-0.196-0.125-0.071-0.246-0.152-0.361-0.24-0.114-0.088-0.223-0.184-0.324-0.287-0.104-0.102-0.199-0.211-0.288-0.325-0.088-0.115-0.168-0.235-0.24-0.361-0.073-0.125-0.138-0.254-0.194-0.387-0.056-0.134-0.103-0.271-0.14-0.411-0.04-0.139-0.07-0.281-0.09-0.425-0.02-0.143-0.03-0.288-0.029-0.432v-49.942c0.001-0.145 0.011-0.289 0.03-0.433 0.02-0.143 0.049-0.285 0.089-0.424 0.036-0.14 0.082-0.278 0.138-0.411 0.057-0.134 0.122-0.263 0.196-0.387 0.072-0.126 0.152-0.247 0.24-0.361 0.089-0.115 0.184-0.223 0.288-0.325 0.101-0.103 0.21-0.199 0.324-0.287 0.115-0.088 0.236-0.169 0.361-0.241 0.125-0.073 0.255-0.138 0.388-0.194 0.133-0.055 0.271-0.102 0.41-0.14 0.14-0.039 0.282-0.069 0.425-0.09 0.143-0.02 0.288-0.03 0.432-0.028h0.013l0.013-0.001h49.89l0.013 0.001h0.014c0.144 0 0.289 0.01 0.432 0.03 0.143 0.019 0.285 0.049 0.425 0.088 0.14 0.036 0.277 0.083 0.41 0.139 0.134 0.056 0.263 0.121 0.388 0.195 0.125 0.072 0.246 0.153 0.36 0.241 0.115 0.088 0.224 0.184 0.326 0.287 0.102 0.102 0.198 0.21 0.287 0.325 0.088 0.114 0.168 0.235 0.24 0.361 0.073 0.124 0.138 0.254 0.194 0.387 0.056 0.134 0.103 0.271 0.14 0.411 0.04 0.139 0.07 0.281 0.09 0.425 0.02 0.143 0.03 0.287 0.029 0.432v0.013 0.013z"
             stroke-miterlimit="22.926"
             stroke-width=".22260" />
          <g
             id="g3689"
             transform="translate(.054)"
             stroke-width="1.0306">
            <path
               id="path3691"
               stroke-linejoin="bevel"
               d="m0 0v-0.027c-0.001-0.147-0.011-0.293-0.031-0.439-0.019-0.146-0.05-0.29-0.09-0.431-0.036-0.143-0.084-0.282-0.141-0.418-0.057-0.135-0.123-0.267-0.198-0.393-0.073-0.128-0.155-0.25-0.245-0.367-0.089-0.117-0.187-0.227-0.291-0.33-0.104-0.105-0.214-0.203-0.33-0.292-0.117-0.09-0.239-0.171-0.367-0.244-0.127-0.075-0.258-0.141-0.394-0.198-0.136-0.056-0.275-0.104-0.417-0.142-0.142-0.04-0.286-0.071-0.432-0.091-0.145-0.021-0.292-0.03-0.439-0.03h-49.943c-0.147 0.001-0.294 0.012-0.439 0.031-0.146 0.02-0.29 0.05-0.431 0.09-0.143 0.037-0.283 0.084-0.419 0.141-0.135 0.057-0.266 0.123-0.392 0.199-0.128 0.073-0.251 0.155-0.367 0.244-0.117 0.09-0.227 0.187-0.331 0.292-0.104 0.103-0.202 0.213-0.291 0.33-0.09 0.116-0.172 0.239-0.245 0.367-0.074 0.126-0.14 0.258-0.197 0.393-0.057 0.136-0.104 0.275-0.142 0.418-0.041 0.141-0.071 0.285-0.092 0.431-0.02 0.146-0.03 0.293-0.029 0.439v49.943c0.001 0.147 0.011 0.294 0.031 0.44 0.02 0.145 0.05 0.289 0.09 0.431 0.036 0.143 0.084 0.282 0.141 0.418 0.057 0.135 0.123 0.267 0.198 0.393 0.073 0.128 0.155 0.25 0.245 0.367 0.089 0.116 0.187 0.227 0.291 0.33 0.104 0.105 0.214 0.202 0.331 0.292 0.116 0.09 0.239 0.171 0.367 0.244 0.126 0.075 0.257 0.141 0.393 0.197 0.136 0.057 0.275 0.105 0.418 0.143 0.141 0.04 0.285 0.07 0.431 0.091 0.145 0.021 0.292 0.03 0.439 0.029h49.943c0.147-0.001 0.294-0.011 0.439-0.031 0.146-0.019 0.29-0.049 0.432-0.089 0.142-0.037 0.282-0.084 0.417-0.142 0.136-0.057 0.267-0.123 0.394-0.198 0.127-0.073 0.25-0.155 0.367-0.244 0.116-0.09 0.226-0.187 0.33-0.292 0.105-0.103 0.202-0.214 0.292-0.33 0.089-0.117 0.171-0.239 0.244-0.367 0.075-0.127 0.14-0.258 0.197-0.394 0.057-0.135 0.104-0.275 0.142-0.417 0.04-0.142 0.071-0.286 0.092-0.432 0.02-0.145 0.03-0.292 0.029-0.439v-49.916z"
               stroke="#000"
               stroke-miterlimit="22.926"
               stroke-width="1.9549"
               fill="#fff" />
          </g>
        </g>
        <g
           id="g3681"
           fill="#039"
           transform="matrix(0 1.25 1.25 0 318.82 564.76)">
          <path
             id="path3683"
             d="m0 0v-0.008c0-0.042-0.003-0.084-0.009-0.125-0.005-0.042-0.014-0.083-0.026-0.124-0.01-0.04-0.024-0.08-0.04-0.119-0.016-0.038-0.035-0.076-0.057-0.112-0.021-0.037-0.044-0.072-0.07-0.105-0.025-0.033-0.053-0.065-0.083-0.094-0.029-0.03-0.061-0.058-0.094-0.084-0.034-0.025-0.068-0.048-0.105-0.069-0.036-0.022-0.074-0.04-0.112-0.057-0.039-0.016-0.079-0.03-0.12-0.04-0.04-0.012-0.081-0.021-0.123-0.026-0.041-0.006-0.083-0.009-0.125-0.009h-0.008-49.89-0.007c-0.042 0-0.084 0.003-0.126 0.009-0.041 0.005-0.083 0.014-0.123 0.026-0.041 0.01-0.081 0.024-0.119 0.04-0.039 0.016-0.077 0.035-0.113 0.057-0.036 0.021-0.071 0.044-0.105 0.07-0.033 0.025-0.064 0.053-0.094 0.083-0.03 0.029-0.058 0.061-0.083 0.094-0.026 0.033-0.049 0.068-0.07 0.105-0.021 0.036-0.04 0.074-0.057 0.112-0.016 0.039-0.029 0.079-0.04 0.119-0.012 0.041-0.02 0.082-0.026 0.124-0.006 0.041-0.009 0.083-0.008 0.125v49.905c0 0.042 0.002 0.084 0.008 0.126 0.006 0.041 0.014 0.083 0.026 0.123 0.01 0.041 0.024 0.081 0.04 0.119 0.017 0.039 0.035 0.077 0.057 0.113 0.021 0.036 0.044 0.071 0.07 0.104 0.025 0.034 0.053 0.065 0.083 0.095s0.061 0.058 0.094 0.083c0.034 0.026 0.069 0.049 0.105 0.07s0.074 0.04 0.113 0.057c0.038 0.015 0.078 0.029 0.119 0.04 0.04 0.012 0.082 0.02 0.123 0.026 0.042 0.006 0.084 0.009 0.126 0.008h49.905c0.042 0 0.084-0.003 0.125-0.008 0.042-0.006 0.083-0.014 0.123-0.026 0.041-0.01 0.081-0.024 0.12-0.04 0.038-0.016 0.076-0.035 0.112-0.057 0.037-0.021 0.071-0.044 0.105-0.07 0.033-0.025 0.065-0.053 0.094-0.083 0.03-0.03 0.058-0.061 0.084-0.095 0.025-0.033 0.048-0.068 0.069-0.104 0.022-0.036 0.04-0.074 0.057-0.113 0.016-0.038 0.03-0.078 0.04-0.119 0.012-0.04 0.021-0.082 0.026-0.123 0.006-0.042 0.009-0.084 0.009-0.126v-0.007-49.89"
             fill-rule="evenodd"
             fill="#039" />
        </g>
        <g
           id="g3693"
           transform="matrix(0 1.25 1.25 0 351.43 558.09)">
          <path
             id="path3695"
             d="m0 0-19.437 19.437c-0.006 0.005-0.011 0.01-0.016 0.015l-0.015 0.015c-0.051 0.049-0.105 0.094-0.162 0.136s-0.118 0.079-0.18 0.113-0.126 0.064-0.192 0.089c-0.066 0.026-0.134 0.046-0.203 0.062-0.068 0.017-0.138 0.029-0.208 0.036-0.071 0.008-0.142 0.011-0.212 0.008-0.071-0.001-0.142-0.007-0.211-0.018-0.07-0.011-0.139-0.027-0.207-0.048-0.068-0.019-0.134-0.044-0.199-0.073-0.065-0.028-0.127-0.062-0.187-0.099-0.049-0.03-0.097-0.062-0.142-0.097-0.045-0.034-0.089-0.072-0.13-0.112l-0.014-0.013-0.013-0.014-19.438-19.437-0.015-0.015-0.014-0.016c-0.049-0.051-0.095-0.105-0.136-0.162-0.042-0.057-0.08-0.117-0.113-0.18-0.035-0.062-0.064-0.126-0.09-0.192-0.025-0.066-0.045-0.133-0.061-0.202-0.017-0.069-0.03-0.139-0.037-0.209-0.007-0.071-0.01-0.141-0.008-0.212s0.008-0.141 0.019-0.211 0.027-0.139 0.048-0.207c0.019-0.068 0.043-0.134 0.072-0.199 0.029-0.064 0.062-0.127 0.1-0.187 0.029-0.049 0.061-0.096 0.096-0.142 0.035-0.045 0.072-0.088 0.112-0.129 0.005-0.005 0.009-0.01 0.014-0.014 0.004-0.005 0.009-0.009 0.013-0.014l19.438-19.437 0.015-0.015 0.015-0.015c0.051-0.049 0.105-0.094 0.163-0.136 0.057-0.042 0.117-0.079 0.179-0.113s0.126-0.064 0.192-0.089c0.066-0.026 0.134-0.046 0.203-0.062 0.069-0.017 0.139-0.029 0.209-0.037 0.07-0.007 0.141-0.01 0.212-0.007 0.07 0.001 0.141 0.007 0.211 0.018 0.069 0.011 0.139 0.027 0.206 0.048 0.068 0.02 0.134 0.044 0.199 0.073 0.065 0.028 0.127 0.062 0.187 0.099 0.05 0.029 0.097 0.062 0.143 0.096 0.045 0.035 0.088 0.073 0.129 0.113l0.014 0.013 0.014 0.014 19.437 19.437 0.015 0.015 0.014 0.016c0.049 0.051 0.095 0.105 0.137 0.162 0.041 0.057 0.079 0.117 0.112 0.18 0.035 0.061 0.065 0.126 0.09 0.192s0.046 0.133 0.062 0.202 0.029 0.139 0.036 0.209c0.008 0.071 0.01 0.141 0.008 0.212-0.001 0.071-0.008 0.141-0.019 0.211s-0.027 0.139-0.047 0.207-0.044 0.134-0.073 0.199c-0.029 0.064-0.062 0.127-0.099 0.187-0.03 0.049-0.062 0.096-0.097 0.142-0.035 0.045-0.072 0.088-0.112 0.129-0.005 0.005-0.009 0.01-0.014 0.014-0.004 0.005-0.008 0.009-0.013 0.014"
             fill-rule="evenodd"
             fill="#fff" />
        </g>
        <g
           id="g3697"
           fill="#039"
           transform="matrix(0 1.25 1.25 0 350.77 534.36)">
          <path
             id="path3699"
             d="m0 0-10.258 5.939-0.013 0.007c-0.02 0.011-0.042 0.021-0.064 0.03-0.022 0.008-0.044 0.015-0.067 0.02-0.023 0.006-0.046 0.011-0.07 0.013-0.023 0.002-0.047 0.003-0.07 0.002-0.024 0-0.047-0.002-0.071-0.005-0.023-0.004-0.046-0.01-0.069-0.016-0.022-0.007-0.045-0.015-0.066-0.024-0.022-0.01-0.042-0.021-0.062-0.034-0.021-0.012-0.04-0.025-0.058-0.04-0.019-0.015-0.036-0.031-0.052-0.048-0.017-0.017-0.032-0.035-0.046-0.054-0.013-0.019-0.026-0.039-0.037-0.06-0.012-0.021-0.022-0.042-0.03-0.064s-0.015-0.045-0.021-0.068c-0.005-0.018-0.008-0.037-0.011-0.056-0.002-0.019-0.004-0.038-0.004-0.058v-0.012-11.879-0.014c0.001-0.023 0.003-0.047 0.007-0.07 0.003-0.024 0.009-0.047 0.015-0.069 0.007-0.023 0.015-0.045 0.025-0.066 0.009-0.022 0.02-0.043 0.033-0.063 0.012-0.02 0.025-0.039 0.04-0.058 0.015-0.018 0.031-0.035 0.048-0.051 0.017-0.017 0.036-0.032 0.055-0.046s0.039-0.026 0.059-0.037c0.021-0.011 0.043-0.021 0.064-0.03 0.022-0.008 0.045-0.015 0.068-0.021 0.023-0.005 0.046-0.009 0.07-0.012 0.023-0.002 0.047-0.003 0.07-0.002 0.024 0 0.047 0.002 0.07 0.006 0.024 0.004 0.047 0.009 0.069 0.016 0.019 0.005 0.037 0.011 0.055 0.019 0.018 0.007 0.035 0.015 0.051 0.025l0.012 0.006 10.258 5.939 0.012 0.008c0.02 0.012 0.04 0.025 0.058 0.04s0.036 0.031 0.052 0.049c0.016 0.016 0.031 0.034 0.045 0.054 0.014 0.019 0.026 0.039 0.037 0.06 0.012 0.02 0.022 0.042 0.03 0.064 0.009 0.022 0.015 0.044 0.021 0.067s0.009 0.046 0.012 0.07c0.002 0.023 0.003 0.047 0.002 0.07 0 0.024-0.002 0.047-0.006 0.071-0.004 0.023-0.009 0.046-0.016 0.069-0.006 0.022-0.015 0.044-0.024 0.066-0.01 0.021-0.021 0.042-0.033 0.062-0.013 0.02-0.026 0.04-0.041 0.058s-0.031 0.035-0.048 0.052c-0.014 0.013-0.028 0.025-0.043 0.037-0.015 0.011-0.031 0.022-0.047 0.031l-0.011 0.007"
             fill-rule="evenodd"
             fill="#039" />
        </g>
        <g
           id="g3701"
           fill="#039"
           transform="matrix(0 1.25 1.25 0 350.77 549.2)">
          <path
             id="path3703"
             d="m0 0-10.259 5.939-0.012 0.007c-0.02 0.011-0.042 0.021-0.064 0.03-0.022 0.008-0.044 0.015-0.067 0.02-0.023 0.006-0.047 0.011-0.07 0.013s-0.047 0.003-0.071 0.002c-0.023 0-0.047-0.002-0.07-0.005-0.023-0.004-0.046-0.01-0.069-0.016-0.022-0.007-0.045-0.015-0.066-0.024-0.022-0.01-0.043-0.021-0.062-0.034-0.021-0.012-0.04-0.025-0.059-0.04-0.018-0.015-0.035-0.031-0.051-0.048-0.017-0.017-0.032-0.035-0.046-0.054s-0.026-0.039-0.037-0.06c-0.012-0.021-0.021-0.042-0.03-0.064-0.008-0.022-0.015-0.045-0.021-0.068-0.004-0.018-0.008-0.037-0.011-0.056-0.002-0.019-0.004-0.038-0.004-0.058v-0.012-11.879-0.014c0.001-0.023 0.003-0.047 0.007-0.07 0.003-0.024 0.008-0.047 0.015-0.069 0.007-0.023 0.015-0.045 0.024-0.066 0.01-0.022 0.021-0.043 0.034-0.063 0.012-0.02 0.025-0.039 0.04-0.058 0.015-0.018 0.031-0.035 0.048-0.051 0.017-0.017 0.036-0.032 0.055-0.046s0.039-0.026 0.059-0.037c0.021-0.011 0.042-0.021 0.064-0.03 0.022-0.008 0.045-0.015 0.068-0.021 0.023-0.005 0.046-0.009 0.07-0.012 0.023-0.002 0.047-0.003 0.07-0.002 0.024 0 0.047 0.002 0.071 0.006 0.023 0.004 0.046 0.009 0.068 0.016 0.019 0.005 0.037 0.011 0.055 0.019 0.017 0.007 0.035 0.015 0.051 0.025l0.011 0.006 10.259 5.939 0.012 0.008c0.02 0.012 0.04 0.025 0.058 0.04s0.035 0.031 0.052 0.049c0.016 0.016 0.031 0.034 0.045 0.054 0.014 0.019 0.026 0.039 0.037 0.06 0.012 0.02 0.022 0.042 0.03 0.064s0.015 0.044 0.021 0.067c0.005 0.023 0.009 0.046 0.012 0.07 0.002 0.023 0.003 0.047 0.002 0.07 0 0.024-0.002 0.047-0.006 0.071-0.004 0.023-0.009 0.046-0.016 0.069-0.007 0.022-0.014 0.044-0.024 0.066-0.01 0.021-0.021 0.042-0.033 0.062-0.013 0.02-0.026 0.04-0.041 0.058s-0.031 0.035-0.048 0.052c-0.014 0.013-0.028 0.025-0.043 0.037-0.015 0.011-0.031 0.022-0.047 0.031l-0.011 0.007"
             fill-rule="evenodd"
             fill="#039" />
        </g>
      </g>
    </g>
  </g>
</svg>
