<?xml version="1.0" encoding="UTF-8" standalone="no"?>
<!-- Created with Inkscape (http://www.inkscape.org/) -->

<svg
   xmlns:dc="http://purl.org/dc/elements/1.1/"
   xmlns:cc="http://creativecommons.org/ns#"
   xmlns:rdf="http://www.w3.org/1999/02/22-rdf-syntax-ns#"
   xmlns:svg="http://www.w3.org/2000/svg"
   xmlns="http://www.w3.org/2000/svg"
   xmlns:sodipodi="http://sodipodi.sourceforge.net/DTD/sodipodi-0.dtd"
   xmlns:inkscape="http://www.inkscape.org/namespaces/inkscape"
   id="svg2"
   height="60"
   width="60"
   version="1.1"
   inkscape:version="0.48.2 r9819"
   sodipodi:docname="drinking_water.svg">
  <title
     id="title2992">Drinking Water</title>
  <defs
     id="defs4644" />
  <sodipodi:namedview
     pagecolor="#ffffff"
     bordercolor="#666666"
     borderopacity="1"
     objecttolerance="10"
     gridtolerance="10"
     guidetolerance="10"
     inkscape:pageopacity="0"
     inkscape:pageshadow="2"
     inkscape:window-width="1440"
     inkscape:window-height="808"
     id="namedview4642"
     showgrid="false"
     inkscape:zoom="9.1666667"
     inkscape:cx="10.8"
     inkscape:cy="30"
     inkscape:window-x="0"
     inkscape:window-y="0"
     inkscape:window-maximized="1"
     inkscape:current-layer="svg2" />
  <metadata
     id="metadata7">
    <rdf:RDF>
      <cc:Work
         rdf:about="">
        <dc:format>image/svg+xml</dc:format>
        <dc:type
           rdf:resource="http://purl.org/dc/dcmitype/StillImage" />
        <dc:title>Drinking Water</dc:title>
        <cc:license
           rdf:resource="http://creativecommons.org/licenses/publicdomain/" />
        <dc:identifier>E13</dc:identifier>
      </cc:Work>
      <cc:License
         rdf:about="http://creativecommons.org/licenses/publicdomain/">
        <cc:permits
           rdf:resource="http://creativecommons.org/ns#Reproduction" />
        <cc:permits
           rdf:resource="http://creativecommons.org/ns#Distribution" />
        <cc:permits
           rdf:resource="http://creativecommons.org/ns#DerivativeWorks" />
      </cc:License>
    </rdf:RDF>
  </metadata>
  <g
     id="layer43"
     transform="translate(0,-60)">
    <g
       id="layer1-998"
       transform="matrix(.97035 0 0 .97033 -416.36 -373.89)">
      <g
         id="g2985"
         transform="matrix(.84346 0 0 .84346 72.006 74.836)">
        <g
           id="g3769"
           fill="#039"
           transform="matrix(0 1.25 1.25 0 428.82 510.47)">
          <path
             id="path3771"
             d="m0 0v-0.008c0-0.042-0.003-0.084-0.009-0.125-0.005-0.042-0.014-0.083-0.026-0.123-0.01-0.041-0.024-0.081-0.04-0.12-0.016-0.038-0.035-0.076-0.056-0.112-0.022-0.037-0.045-0.072-0.071-0.105-0.025-0.033-0.053-0.065-0.083-0.094-0.029-0.03-0.061-0.058-0.094-0.084-0.033-0.025-0.068-0.048-0.105-0.069-0.036-0.022-0.074-0.04-0.112-0.056-0.039-0.017-0.079-0.031-0.119-0.041-0.041-0.012-0.082-0.021-0.124-0.027-0.041-0.005-0.083-0.008-0.125-0.008h-0.008-49.89-0.007c-0.042 0-0.084 0.003-0.126 0.009-0.041 0.005-0.083 0.014-0.123 0.026-0.041 0.01-0.081 0.024-0.119 0.04-0.039 0.016-0.077 0.035-0.113 0.057-0.036 0.021-0.071 0.044-0.104 0.07-0.034 0.025-0.065 0.053-0.095 0.083-0.03 0.029-0.058 0.061-0.083 0.094-0.026 0.033-0.049 0.068-0.07 0.105-0.021 0.036-0.04 0.074-0.057 0.112-0.016 0.039-0.029 0.079-0.04 0.12-0.012 0.04-0.02 0.081-0.026 0.123-0.006 0.041-0.009 0.083-0.008 0.125v49.905c0 0.042 0.002 0.084 0.008 0.126 0.006 0.041 0.014 0.083 0.026 0.123 0.01 0.041 0.024 0.081 0.04 0.119 0.017 0.039 0.036 0.077 0.057 0.113s0.044 0.071 0.07 0.104c0.025 0.034 0.053 0.065 0.083 0.095s0.061 0.058 0.095 0.083c0.033 0.026 0.068 0.049 0.104 0.07s0.074 0.04 0.113 0.057c0.038 0.016 0.078 0.029 0.119 0.04 0.04 0.012 0.082 0.02 0.123 0.026 0.042 0.006 0.084 0.009 0.126 0.009h49.905c0.042 0 0.084-0.003 0.125-0.009 0.042-0.006 0.083-0.014 0.124-0.026 0.04-0.01 0.08-0.024 0.119-0.04 0.038-0.016 0.076-0.035 0.112-0.057 0.037-0.021 0.072-0.044 0.105-0.07 0.033-0.025 0.065-0.053 0.094-0.083 0.03-0.03 0.058-0.061 0.084-0.095 0.025-0.033 0.048-0.068 0.07-0.104 0.021-0.036 0.039-0.074 0.056-0.113 0.016-0.038 0.03-0.078 0.04-0.119 0.012-0.04 0.021-0.082 0.027-0.123 0.005-0.042 0.008-0.084 0.008-0.126v-0.007-49.89"
             fill-rule="evenodd"
             fill="#039" />
        </g>
        <g
           id="g3773"
           transform="matrix(0 1.25 1.25 0 428.82 513.44)">
          <path
             id="path3775"
             stroke-linejoin="bevel"
             d="m0 0v49.89 0.013 0.013c-0.001 0.145-0.011 0.289-0.031 0.432-0.019 0.144-0.048 0.286-0.088 0.425-0.036 0.14-0.083 0.278-0.139 0.411s-0.121 0.263-0.195 0.387c-0.072 0.126-0.152 0.246-0.241 0.361-0.088 0.114-0.184 0.223-0.286 0.325-0.102 0.103-0.211 0.199-0.325 0.287-0.115 0.088-0.236 0.169-0.361 0.24-0.125 0.074-0.254 0.138-0.388 0.194-0.133 0.056-0.271 0.103-0.41 0.14-0.14 0.04-0.282 0.07-0.425 0.09-0.144 0.02-0.288 0.03-0.432 0.029h-49.943c-0.144-0.001-0.289-0.011-0.432-0.03-0.144-0.019-0.285-0.049-0.425-0.089-0.14-0.036-0.277-0.082-0.41-0.138-0.134-0.057-0.263-0.122-0.388-0.196-0.125-0.071-0.246-0.152-0.361-0.24-0.114-0.088-0.223-0.184-0.324-0.287-0.104-0.102-0.199-0.211-0.288-0.325-0.088-0.115-0.168-0.235-0.24-0.361-0.073-0.125-0.138-0.254-0.194-0.387-0.056-0.134-0.103-0.271-0.14-0.411-0.04-0.139-0.07-0.281-0.09-0.425-0.02-0.143-0.03-0.288-0.029-0.432v-49.942c0.001-0.145 0.011-0.289 0.03-0.433 0.02-0.143 0.049-0.285 0.089-0.424 0.036-0.141 0.082-0.278 0.138-0.411 0.057-0.133 0.122-0.263 0.196-0.388 0.072-0.125 0.152-0.246 0.24-0.36 0.089-0.115 0.184-0.223 0.288-0.325 0.101-0.103 0.21-0.199 0.324-0.287 0.115-0.089 0.236-0.169 0.361-0.241 0.125-0.073 0.255-0.138 0.388-0.194 0.133-0.055 0.271-0.102 0.41-0.14 0.14-0.039 0.282-0.069 0.425-0.089 0.143-0.021 0.288-0.031 0.432-0.029h0.013l0.014-0.001h49.889l0.013 0.001h0.014c0.144 0 0.288 0.01 0.432 0.03 0.143 0.019 0.285 0.049 0.425 0.088 0.14 0.036 0.277 0.083 0.41 0.139 0.134 0.056 0.263 0.121 0.388 0.195 0.125 0.072 0.246 0.153 0.36 0.241 0.115 0.088 0.224 0.184 0.326 0.287 0.102 0.102 0.198 0.21 0.287 0.325 0.088 0.114 0.168 0.235 0.24 0.36 0.073 0.125 0.138 0.255 0.194 0.388 0.056 0.134 0.103 0.271 0.14 0.411 0.04 0.139 0.07 0.281 0.09 0.425 0.02 0.143 0.03 0.287 0.029 0.432v0.013 0.013z"
             stroke="#231f20"
             stroke-miterlimit="22.926"
             stroke-width=".22260"
             fill="none" />
          <g
             id="g3777"
             transform="translate(.054)">
            <path
               id="path3779"
               stroke-linejoin="bevel"
               d="m0 0v-0.027c-0.001-0.147-0.011-0.293-0.031-0.439-0.019-0.146-0.05-0.29-0.089-0.431-0.037-0.143-0.085-0.283-0.142-0.418s-0.123-0.267-0.198-0.393c-0.073-0.128-0.155-0.25-0.245-0.367-0.089-0.117-0.187-0.227-0.291-0.33-0.104-0.105-0.214-0.203-0.33-0.292-0.117-0.09-0.239-0.171-0.367-0.244-0.127-0.075-0.258-0.141-0.394-0.197-0.136-0.057-0.275-0.105-0.417-0.143-0.142-0.04-0.286-0.071-0.432-0.091-0.145-0.021-0.292-0.03-0.439-0.029h-49.943c-0.147 0-0.294 0.011-0.439 0.03-0.146 0.02-0.29 0.05-0.431 0.09-0.143 0.037-0.283 0.084-0.419 0.141-0.135 0.057-0.266 0.123-0.392 0.199-0.128 0.073-0.251 0.155-0.367 0.244-0.117 0.09-0.227 0.187-0.331 0.292-0.104 0.103-0.202 0.213-0.291 0.33-0.09 0.116-0.172 0.239-0.245 0.367-0.074 0.126-0.14 0.258-0.197 0.393-0.057 0.136-0.104 0.275-0.142 0.418-0.041 0.141-0.071 0.285-0.092 0.431-0.02 0.146-0.03 0.293-0.029 0.439v49.943c0.001 0.147 0.011 0.294 0.031 0.44 0.02 0.145 0.05 0.29 0.09 0.431 0.036 0.143 0.084 0.282 0.141 0.418 0.057 0.135 0.123 0.267 0.198 0.393 0.073 0.128 0.155 0.25 0.245 0.367 0.089 0.116 0.187 0.227 0.291 0.33 0.104 0.105 0.214 0.202 0.331 0.292 0.116 0.09 0.239 0.171 0.367 0.244 0.126 0.075 0.257 0.141 0.393 0.197 0.136 0.057 0.275 0.105 0.418 0.143 0.141 0.04 0.285 0.07 0.431 0.091 0.145 0.021 0.292 0.03 0.439 0.029h49.943c0.147 0 0.294-0.011 0.439-0.031 0.146-0.019 0.29-0.049 0.432-0.089 0.143-0.037 0.282-0.084 0.417-0.142 0.136-0.057 0.267-0.123 0.394-0.198 0.127-0.073 0.25-0.155 0.367-0.244 0.116-0.09 0.226-0.187 0.33-0.292 0.105-0.103 0.202-0.214 0.292-0.33 0.089-0.117 0.171-0.239 0.244-0.367 0.075-0.127 0.14-0.258 0.197-0.394 0.057-0.135 0.104-0.275 0.143-0.417 0.039-0.141 0.07-0.286 0.091-0.431 0.02-0.146 0.03-0.293 0.029-0.44v-49.916z"
               stroke="#231f20"
               stroke-miterlimit="22.926"
               stroke-width="1.9549"
               fill="none" />
          </g>
        </g>
        <g
           id="g3781"
           transform="matrix(0 1.25 1.25 0 461.62 460.19)">
          <path
             id="path3783"
             d="m0 0v-4.542c0-0.035-0.003-0.07-0.007-0.104-0.005-0.035-0.012-0.069-0.022-0.103-0.008-0.034-0.02-0.067-0.033-0.099-0.014-0.033-0.03-0.064-0.047-0.094-0.018-0.031-0.037-0.06-0.059-0.087-0.021-0.028-0.044-0.054-0.069-0.079s-0.051-0.048-0.079-0.069c-0.028-0.022-0.057-0.041-0.087-0.059-0.03-0.017-0.062-0.033-0.094-0.047-0.032-0.013-0.065-0.025-0.099-0.034s-0.068-0.017-0.103-0.022c-0.035-0.004-0.069-0.007-0.105-0.006h-0.012c-0.035 0-0.07 0.002-0.105 0.007s-0.069 0.012-0.103 0.021-0.067 0.02-0.099 0.034-0.064 0.03-0.094 0.047c-0.03 0.018-0.059 0.037-0.087 0.059-0.028 0.021-0.054 0.044-0.078 0.069-0.025 0.024-0.049 0.051-0.07 0.079-0.021 0.027-0.041 0.056-0.058 0.087-0.018 0.03-0.034 0.061-0.047 0.094-0.014 0.032-0.025 0.065-0.034 0.099-0.01 0.034-0.017 0.068-0.022 0.103-0.004 0.034-0.007 0.069-0.007 0.104v11.351c0.001 0.036 0.003 0.07 0.008 0.105 0.004 0.035 0.012 0.069 0.021 0.103s0.02 0.067 0.034 0.099c0.013 0.033 0.029 0.064 0.047 0.094 0.017 0.03 0.037 0.059 0.058 0.087s0.045 0.054 0.07 0.079c0.024 0.025 0.05 0.048 0.078 0.069 0.028 0.022 0.057 0.041 0.087 0.059 0.03 0.017 0.062 0.033 0.094 0.047 0.033 0.013 0.066 0.024 0.099 0.033 0.034 0.01 0.068 0.017 0.103 0.022 0.035 0.004 0.07 0.007 0.105 0.007h0.012c0.036-0.001 0.07-0.003 0.105-0.008 0.035-0.004 0.069-0.011 0.103-0.021 0.034-0.008 0.067-0.019 0.099-0.033s0.064-0.03 0.094-0.047c0.03-0.018 0.059-0.038 0.087-0.059s0.054-0.044 0.079-0.069 0.048-0.051 0.069-0.079c0.022-0.028 0.041-0.056 0.059-0.087 0.017-0.03 0.033-0.062 0.046-0.094 0.014-0.032 0.025-0.065 0.034-0.099 0.01-0.034 0.017-0.068 0.022-0.103s0.007-0.069 0.007-0.105v-4.541h7.559v1.566h8.099v2.699h0.81v-1.08h2.97l-0.001 10.529h-1.079v0.81h-2.7v1.08h14.038v-1.08h-2.699v-0.81h-2.16v-9.864c0.033-0.019 0.067-0.037 0.1-0.055l0.099-0.057c0.214-0.125 0.419-0.264 0.613-0.417s0.378-0.32 0.549-0.499c0.175-0.176 0.337-0.364 0.484-0.562 0.149-0.199 0.283-0.407 0.402-0.624 0.122-0.215 0.229-0.439 0.321-0.669 0.092-0.229 0.168-0.466 0.227-0.706 0.063-0.239 0.109-0.483 0.138-0.729 0.029-0.245 0.041-0.493 0.036-0.741-0.002-0.247-0.02-0.494-0.056-0.739-0.035-0.245-0.088-0.487-0.156-0.725-0.066-0.239-0.148-0.473-0.245-0.701-0.098-0.227-0.211-0.448-0.34-0.659-0.125-0.213-0.265-0.417-0.419-0.61-0.154-0.194-0.32-0.379-0.497-0.552-0.174-0.177-0.361-0.342-0.558-0.494-0.196-0.15-0.406-0.281-0.627-0.392l-0.036-0.018-0.035-0.018v-5.816c0-0.077 0.002-0.153 0.003-0.23 0.002-0.076 0.005-0.152 0.01-0.229 0.012-0.17 0.035-0.34 0.067-0.508 0.033-0.168 0.074-0.334 0.123-0.498 0.064-0.228 0.143-0.45 0.235-0.667s0.199-0.427 0.321-0.629c0.119-0.203 0.251-0.398 0.397-0.583 0.147-0.185 0.306-0.36 0.476-0.524 0.168-0.165 0.346-0.32 0.535-0.461 0.189-0.142 0.387-0.269 0.594-0.382 0.205-0.115 0.418-0.215 0.638-0.301 0.219-0.086 0.444-0.16 0.671-0.221 0.125-0.036 0.251-0.067 0.379-0.094 0.126-0.026 0.254-0.045 0.383-0.056 0.094-0.009 0.189-0.014 0.283-0.015 0.095-0.002 0.189-0.002 0.284-0.001v-5.398l-0.071-0.001-0.07 0.001c-0.471 0.002-0.942 0.036-1.408 0.103-0.467 0.067-0.929 0.168-1.382 0.301-0.456 0.123-0.901 0.278-1.335 0.465-0.433 0.186-0.852 0.403-1.255 0.648-0.407 0.238-0.797 0.505-1.167 0.796-0.37 0.292-0.72 0.609-1.047 0.949-0.331 0.335-0.638 0.693-0.92 1.071s-0.538 0.775-0.767 1.188c-0.234 0.409-0.439 0.835-0.615 1.273-0.176 0.437-0.319 0.887-0.429 1.345-0.095 0.375-0.169 0.755-0.22 1.139-0.052 0.383-0.085 0.768-0.099 1.155-0.003 0.06-0.005 0.121-0.007 0.182s-0.005 0.122-0.006 0.183v6.478h-2.97v-1.079h-0.81v2.699h-8.099v1.566h-7.559"
             fill-rule="evenodd"
             fill="#fff" />
        </g>
      </g>
    </g>
  </g>
</svg>
