<?xml version="1.0" encoding="UTF-8" standalone="no"?>
<!-- Created with Inkscape (http://www.inkscape.org/) -->

<svg
   xmlns:dc="http://purl.org/dc/elements/1.1/"
   xmlns:cc="http://creativecommons.org/ns#"
   xmlns:rdf="http://www.w3.org/1999/02/22-rdf-syntax-ns#"
   xmlns:svg="http://www.w3.org/2000/svg"
   xmlns="http://www.w3.org/2000/svg"
   xmlns:sodipodi="http://sodipodi.sourceforge.net/DTD/sodipodi-0.dtd"
   xmlns:inkscape="http://www.inkscape.org/namespaces/inkscape"
   id="svg2"
   height="60"
   width="60"
   version="1.1"
   inkscape:version="0.48.2 r9819"
   sodipodi:docname="keep_lookout.svg">
  <title
     id="title2991">Keep Lookout</title>
  <defs
     id="defs3661" />
  <sodipodi:namedview
     pagecolor="#ffffff"
     bordercolor="#666666"
     borderopacity="1"
     objecttolerance="10"
     gridtolerance="10"
     guidetolerance="10"
     inkscape:pageopacity="0"
     inkscape:pageshadow="2"
     inkscape:window-width="1440"
     inkscape:window-height="808"
     id="namedview3659"
     showgrid="false"
     inkscape:zoom="9.1666667"
     inkscape:cx="10.8"
     inkscape:cy="30"
     inkscape:window-x="0"
     inkscape:window-y="0"
     inkscape:window-maximized="1"
     inkscape:current-layer="svg2" />
  <metadata
     id="metadata7">
    <rdf:RDF>
      <cc:Work
         rdf:about="">
        <dc:format>image/svg+xml</dc:format>
        <dc:type
           rdf:resource="http://purl.org/dc/dcmitype/StillImage" />
        <dc:title>Keep Lookout</dc:title>
        <cc:license
           rdf:resource="http://creativecommons.org/licenses/publicdomain/" />
        <dc:identifier>B8</dc:identifier>
      </cc:Work>
      <cc:License
         rdf:about="http://creativecommons.org/licenses/publicdomain/">
        <cc:permits
           rdf:resource="http://creativecommons.org/ns#Reproduction" />
        <cc:permits
           rdf:resource="http://creativecommons.org/ns#Distribution" />
        <cc:permits
           rdf:resource="http://creativecommons.org/ns#DerivativeWorks" />
      </cc:License>
    </rdf:RDF>
  </metadata>
  <g
     id="layer35"
     transform="translate(0,-60)">
    <g
       id="layer1-7"
       transform="matrix(.97035 0 0 .97035 -956.98 -753.72)">
      <g
         id="g3082"
         transform="matrix(.84290 0 0 .84292 159.79 136.58)">
        <path
           id="path7862-3"
           d="m992.34 844.7v49.606h49.606v-49.606h-49.606z"
           fill="#fff" />
        <path
           id="path7846-5"
           stroke-linejoin="bevel"
           d="m985.94 904.89h62.435c0.1813-0.001 0.3625-0.0137 0.5413-0.0375 0.1787-0.025 0.3562-0.0613 0.5312-0.11125 0.175-0.045 0.3475-0.10375 0.5138-0.17375 0.1662-0.07 0.3287-0.15125 0.4837-0.24375 0.1575-0.09 0.3088-0.19125 0.4513-0.30125 0.1437-0.11 0.28-0.23 0.4075-0.35875 0.1287-0.1275 0.2487-0.2625 0.3587-0.40625s0.2113-0.295 0.3-0.45125c0.092-0.15625 0.1738-0.31875 0.2425-0.485 0.071-0.1675 0.1288-0.33875 0.1763-0.51375 0.049-0.17375 0.086-0.3525 0.1125-0.53125 0.025-0.17875 0.037-0.36 0.036-0.54v-62.469c-0.001-0.18125-0.014-0.36125-0.039-0.54-0.024-0.18-0.061-0.3575-0.11-0.5325-0.045-0.175-0.1038-0.34625-0.1738-0.51375-0.07-0.16625-0.1525-0.32875-0.245-0.48375-0.09-0.1575-0.19-0.3075-0.3-0.45125s-0.23-0.27875-0.3587-0.40625c-0.1275-0.12875-0.2638-0.24875-0.4075-0.36-0.1425-0.11-0.2938-0.21-0.4513-0.3-0.155-0.0913-0.3175-0.1725-0.4837-0.2425-0.1675-0.07-0.3388-0.12875-0.5138-0.175-0.175-0.05-0.3525-0.0875-0.5312-0.1125-0.1788-0.025-0.36-0.0375-0.5413-0.0362h-62.467c-0.18125 0-0.3625 0.0137-0.54125 0.0375-0.18 0.0238-0.3575 0.0613-0.53125 0.11125-0.175 0.045-0.3475 0.1025-0.51375 0.1725-0.1675 0.0712-0.32875 0.1525-0.485 0.245-0.15625 0.09-0.3075 0.19-0.45125 0.3-0.1425 0.11125-0.27875 0.23125-0.40625 0.36-0.12875 0.1275-0.24875 0.2625-0.35875 0.40625-0.11125 0.14375-0.21125 0.29375-0.30125 0.45125-0.0913 0.15625-0.1725 0.3175-0.2425 0.485-0.07 0.16625-0.12875 0.33875-0.175 0.5125-0.05 0.175-0.0875 0.3525-0.1125 0.5325-0.025 0.17875-0.0375 0.35875-0.0362 0.54v62.469c0.001 0.18 0.0138 0.36125 0.0387 0.54 0.0238 0.18 0.06 0.3575 0.11 0.53125 0.045 0.175 0.10375 0.3475 0.17375 0.51375 0.07 0.1675 0.15125 0.32875 0.24375 0.485 0.09 0.15625 0.19125 0.3075 0.30125 0.45125s0.23 0.27875 0.35875 0.40625c0.1275 0.12875 0.26375 0.24875 0.40625 0.35875 0.14375 0.11 0.295 0.21125 0.45125 0.30125 0.15625 0.0913 0.31875 0.1725 0.485 0.2425 0.1675 0.07 0.33875 0.1275 0.51375 0.175 0.175 0.05 0.3525 0.0875 0.53125 0.1125s0.36 0.0375 0.54125 0.0362h0.0325z"
           stroke="#000"
           stroke-miterlimit="22.926"
           stroke-width=".27825"
           fill="#fff" />
        <path
           id="path7850-3"
           stroke-linejoin="bevel"
           d="m985.94 904.96h-0.0337c-0.18375-0.001-0.3675-0.0137-0.54875-0.0387-0.1825-0.0238-0.36375-0.0625-0.54-0.11125-0.17875-0.0462-0.3525-0.10625-0.5225-0.1775-0.17-0.0712-0.33375-0.15375-0.4925-0.2475-0.15875-0.0925-0.3125-0.19375-0.4575-0.30625-0.14625-0.1125-0.28375-0.23375-0.41375-0.365-0.13125-0.12875-0.2525-0.26625-0.365-0.4125s-0.21375-0.29875-0.305-0.45875c-0.0937-0.15875-0.17625-0.32375-0.2475-0.4925-0.0713-0.17-0.13-0.34375-0.1775-0.5225-0.05-0.17625-0.0888-0.3575-0.11375-0.54-0.0263-0.18125-0.0388-0.365-0.0375-0.54875v-62.469c0.001-0.18375 0.0138-0.3675 0.0387-0.55 0.025-0.1825 0.0625-0.3625 0.1125-0.53875 0.0462-0.17875 0.105-0.35375 0.17625-0.52375 0.0713-0.16875 0.15375-0.33375 0.24875-0.49125 0.0913-0.16 0.1925-0.3125 0.305-0.45875s0.23375-0.28375 0.365-0.41375c0.12875-0.13 0.2675-0.2525 0.4125-0.36375 0.14625-0.1125 0.3-0.215 0.45875-0.30625 0.15875-0.0937 0.32375-0.175 0.4925-0.24625 0.17-0.0712 0.345-0.13 0.5225-0.17875 0.17625-0.05 0.3575-0.0887 0.54-0.11375 0.18125-0.0263 0.365-0.0375 0.54875-0.0362h62.47c0.1837 0.001 0.3675 0.0137 0.5487 0.0375 0.1825 0.025 0.3625 0.0625 0.54 0.1125 0.1788 0.0463 0.3525 0.105 0.5225 0.1775 0.17 0.0712 0.3338 0.15375 0.4925 0.2475 0.1588 0.0913 0.3125 0.19375 0.4575 0.30625 0.1463 0.11125 0.285 0.23375 0.4138 0.36375 0.1312 0.13 0.2525 0.2675 0.365 0.41375 0.1112 0.14625 0.2137 0.29875 0.3062 0.45875 0.092 0.15875 0.175 0.3225 0.2463 0.4925 0.071 0.17 0.13 0.34375 0.1775 0.5225 0.051 0.17625 0.089 0.3575 0.115 0.53875 0.025 0.1825 0.038 0.36625 0.036 0.55v62.469c-0.001 0.18375-0.014 0.3675-0.039 0.55-0.025 0.18125-0.062 0.3625-0.1125 0.53875-0.046 0.17875-0.105 0.3525-0.1763 0.5225-0.071 0.17-0.1537 0.33375-0.2475 0.4925-0.093 0.16-0.195 0.3125-0.3062 0.45875-0.1125 0.145-0.2338 0.28375-0.365 0.4125-0.1288 0.13125-0.2675 0.25375-0.4138 0.365-0.145 0.1125-0.2987 0.215-0.4575 0.30625-0.1587 0.0925-0.3237 0.175-0.4925 0.24625-0.17 0.0712-0.345 0.13-0.5225 0.17875-0.1775 0.05-0.3575 0.0875-0.54 0.11375-0.1812 0.025-0.365 0.0375-0.5487 0.0362h-62.436z"
           stroke="#000"
           stroke-miterlimit="22.926"
           stroke-width="2.4452"
           fill="#fff" />
        <path
           id="path7842-6"
           d="m986.45 902.72h-0.0197c-0.10944-0.00098-0.21765-0.009-0.32586-0.0234-0.10821-0.0148-0.21519-0.0369-0.32094-0.0664-0.10575-0.0271-0.20904-0.0628-0.30987-0.10452-0.10083-0.0418-0.19798-0.091-0.29143-0.14756-0.0946-0.0541-0.18568-0.11436-0.27298-0.18076-0.0861-0.0677-0.16847-0.13895-0.24471-0.21765-0.0775-0.0762-0.15002-0.1574-0.21642-0.2447-0.0664-0.0861-0.12665-0.17707-0.18076-0.27176-0.0553-0.0934-0.10452-0.19182-0.14633-0.29265-0.043-0.10083-0.0775-0.20413-0.10575-0.30865-0.0307-0.10575-0.0528-0.21273-0.0676-0.32094-0.016-0.10821-0.0234-0.21764-0.0221-0.32585v-61.426c0-0.10944 0.009-0.21888 0.0234-0.32586 0.0136-0.10821 0.0356-0.21519 0.0664-0.32094 0.027-0.10575 0.0615-0.20904 0.10452-0.30987 0.0418-0.10083 0.091-0.19797 0.14756-0.29266 0.0541-0.0935 0.11436-0.18444 0.18076-0.27175 0.0664-0.0861 0.13895-0.16723 0.21642-0.2447 0.0762-0.0775 0.15863-0.15002 0.2447-0.21642 0.0874-0.0664 0.1783-0.12665 0.27299-0.18199 0.0935-0.0541 0.19182-0.10329 0.29143-0.1451 0.10083-0.043 0.20412-0.0775 0.30987-0.10575 0.10575-0.0307 0.21273-0.0529 0.32094-0.0677 0.10821-0.0159 0.21642-0.0233 0.32586-0.0221h61.426c0.1095 0 0.2177 0.007 0.3259 0.0221 0.1082 0.0148 0.2152 0.0369 0.3209 0.0677 0.1058 0.0271 0.2091 0.0615 0.3099 0.10452 0.1008 0.0418 0.198 0.091 0.2927 0.14633 0.093 0.0553 0.1844 0.11559 0.2705 0.18199 0.087 0.0664 0.1685 0.13895 0.2459 0.21642 0.078 0.0774 0.15 0.15862 0.2164 0.2447 0.066 0.0873 0.1267 0.1783 0.1808 0.27175 0.055 0.0947 0.1045 0.19183 0.1463 0.29266 0.042 0.10083 0.078 0.20412 0.1058 0.30987 0.03 0.10575 0.053 0.21273 0.068 0.32094 0.016 0.10698 0.024 0.21642 0.023 0.32586v61.426c0 0.10821-0.01 0.21764-0.023 0.32585-0.015 0.10821-0.038 0.21519-0.068 0.32094-0.027 0.10452-0.061 0.20904-0.1045 0.30988-0.042 0.0996-0.091 0.19797-0.1476 0.29142-0.054 0.0946-0.1144 0.18568-0.1808 0.27176-0.067 0.0861-0.1389 0.16846-0.2164 0.2447-0.078 0.0787-0.1586 0.15125-0.2459 0.21765-0.087 0.0664-0.1771 0.12665-0.2705 0.18076-0.094 0.0554-0.1919 0.10452-0.2927 0.14633-0.1008 0.0418-0.2041 0.0775-0.3099 0.10575-0.1057 0.0295-0.2127 0.0528-0.3209 0.0677-0.1082 0.0159-0.2164 0.0221-0.3259 0.0221h-0.02-61.387z"
           fill-rule="evenodd"
           fill="#e72512" />
        <path
           id="path7852-8"
           d="m993.51 845.87v47.275h47.275v-47.275h-47.275z"
           fill="#fff" />
        <g
           id="g7874"
           transform="matrix(0 1.25 1.25 0 1022.5 881.2)"
           stroke="#000"
           stroke-width="1.0306">
          <path
             id="path7876"
             stroke-linejoin="bevel"
             d="m0 0h0.033c0.184-0.001 0.368-0.014 0.55-0.039 0.182-0.024 0.362-0.062 0.539-0.111 0.178-0.047 0.352-0.106 0.522-0.177 0.169-0.071 0.334-0.154 0.492-0.248 0.159-0.092 0.312-0.194 0.458-0.306s0.283-0.234 0.413-0.364c0.131-0.13 0.253-0.267 0.365-0.413s0.214-0.299 0.305-0.458c0.093-0.159 0.175-0.323 0.246-0.492 0.071-0.17 0.131-0.344 0.178-0.522 0.051-0.177 0.089-0.357 0.114-0.54 0.026-0.181 0.038-0.365 0.037-0.549v-0.066c-0.001-0.184-0.014-0.367-0.039-0.55-0.024-0.182-0.062-0.362-0.112-0.539-0.046-0.178-0.105-0.352-0.176-0.522-0.071-0.169-0.154-0.333-0.248-0.492-0.092-0.159-0.194-0.312-0.306-0.458s-0.234-0.283-0.364-0.413c-0.129-0.13-0.267-0.253-0.413-0.365-0.146-0.111-0.299-0.214-0.458-0.305-0.159-0.093-0.323-0.175-0.493-0.246-0.169-0.071-0.343-0.131-0.521-0.178-0.177-0.051-0.358-0.089-0.54-0.114-0.181-0.026-0.365-0.038-0.549-0.037h-18.775c-0.184 0.001-0.367 0.014-0.549 0.039-0.183 0.024-0.363 0.062-0.54 0.112-0.178 0.046-0.352 0.105-0.521 0.176-0.17 0.072-0.334 0.154-0.492 0.248-0.16 0.092-0.313 0.194-0.459 0.306-0.145 0.112-0.283 0.234-0.412 0.364-0.131 0.13-0.253 0.267-0.365 0.413s-0.214 0.299-0.305 0.458c-0.094 0.159-0.176 0.323-0.247 0.493-0.071 0.169-0.13 0.344-0.178 0.521-0.05 0.177-0.088 0.358-0.114 0.54s-0.038 0.365-0.037 0.549v0.066c0.001 0.184 0.014 0.368 0.039 0.55s0.062 0.362 0.112 0.539c0.046 0.178 0.105 0.352 0.176 0.522 0.072 0.169 0.155 0.333 0.249 0.492 0.091 0.159 0.193 0.312 0.305 0.458s0.234 0.283 0.365 0.413c0.129 0.131 0.267 0.253 0.412 0.365 0.146 0.112 0.299 0.214 0.459 0.305 0.158 0.093 0.323 0.175 0.492 0.246 0.17 0.071 0.344 0.131 0.521 0.179 0.177 0.05 0.358 0.088 0.54 0.113 0.182 0.026 0.365 0.038 0.549 0.037h18.742z"
             fill-rule="evenodd"
             stroke="#000"
             stroke-miterlimit="22.926"
             stroke-width=".22260" />
        </g>
      </g>
    </g>
  </g>
</svg>
