<?xml version="1.0" encoding="UTF-8" standalone="no"?>
<!-- Created with Inkscape (http://www.inkscape.org/) -->

<svg
   xmlns:dc="http://purl.org/dc/elements/1.1/"
   xmlns:cc="http://creativecommons.org/ns#"
   xmlns:rdf="http://www.w3.org/1999/02/22-rdf-syntax-ns#"
   xmlns:svg="http://www.w3.org/2000/svg"
   xmlns="http://www.w3.org/2000/svg"
   xmlns:sodipodi="http://sodipodi.sourceforge.net/DTD/sodipodi-0.dtd"
   xmlns:inkscape="http://www.inkscape.org/namespaces/inkscape"
   id="svg2"
   height="60"
   width="60"
   version="1.1"
   inkscape:version="0.48.2 r9819"
   sodipodi:docname="limited_depth.svg">
  <title
     id="title2991">Limited Depth</title>
  <defs
     id="defs3729" />
  <sodipodi:namedview
     pagecolor="#ffffff"
     bordercolor="#666666"
     borderopacity="1"
     objecttolerance="10"
     gridtolerance="10"
     guidetolerance="10"
     inkscape:pageopacity="0"
     inkscape:pageshadow="2"
     inkscape:window-width="1440"
     inkscape:window-height="808"
     id="namedview3727"
     showgrid="false"
     inkscape:zoom="9.1666667"
     inkscape:cx="10.8"
     inkscape:cy="30"
     inkscape:window-x="0"
     inkscape:window-y="0"
     inkscape:window-maximized="1"
     inkscape:current-layer="svg2" />
  <metadata
     id="metadata7">
    <rdf:RDF>
      <cc:Work
         rdf:about="">
        <dc:format>image/svg+xml</dc:format>
        <dc:type
           rdf:resource="http://purl.org/dc/dcmitype/StillImage" />
        <dc:title>Limited Depth</dc:title>
        <cc:license
           rdf:resource="http://creativecommons.org/licenses/publicdomain/" />
        <dc:identifier>C1</dc:identifier>
      </cc:Work>
      <cc:License
         rdf:about="http://creativecommons.org/licenses/publicdomain/">
        <cc:permits
           rdf:resource="http://creativecommons.org/ns#Reproduction" />
        <cc:permits
           rdf:resource="http://creativecommons.org/ns#Distribution" />
        <cc:permits
           rdf:resource="http://creativecommons.org/ns#DerivativeWorks" />
      </cc:License>
    </rdf:RDF>
  </metadata>
  <g
     id="layer39"
     transform="translate(0,-60)">
    <g
       id="layer1-41"
       transform="matrix(.97035 0 0 .97035 207.44 66.915)">
      <g
         id="g3105"
         transform="matrix(.84290 0 0 .84292 -28.726 3.7371)">
        <path
           id="path7862-2"
           d="m-207.66-1.0123v49.606h49.606v-49.606h-49.606z"
           fill="#fff" />
        <path
           id="path7846-58"
           stroke-linejoin="bevel"
           d="m-214.06 59.179h62.435c0.18125-0.001 0.3625-0.0137 0.54125-0.0375 0.17875-0.025 0.35625-0.0613 0.53125-0.11125 0.175-0.045 0.3475-0.10375 0.51375-0.17375s0.32875-0.15125 0.48375-0.24375c0.1575-0.09 0.30875-0.19125 0.45125-0.30125 0.14375-0.11 0.28-0.23 0.4075-0.35875 0.12875-0.1275 0.24875-0.2625 0.35875-0.40625s0.21125-0.295 0.3-0.45125c0.0925-0.15625 0.17375-0.31875 0.2425-0.485 0.0713-0.1675 0.12875-0.33875 0.17625-0.51375 0.0488-0.17375 0.0863-0.3525 0.1125-0.53125 0.025-0.17875 0.0375-0.36 0.0362-0.54v-62.469c-0.001-0.18125-0.0138-0.36125-0.0387-0.54-0.0238-0.18-0.0613-0.3575-0.11-0.5325-0.045-0.175-0.10375-0.34625-0.17375-0.51375-0.07-0.16625-0.1525-0.32875-0.245-0.48375-0.09-0.1575-0.19-0.3075-0.3-0.45125s-0.23-0.27875-0.35875-0.40625c-0.1275-0.12875-0.26375-0.24875-0.4075-0.36-0.1425-0.11-0.29375-0.21-0.45125-0.3-0.155-0.0913-0.3175-0.1725-0.48375-0.2425-0.1675-0.07-0.33875-0.12875-0.51375-0.175-0.175-0.05-0.3525-0.0875-0.53125-0.1125s-0.36-0.0375-0.54125-0.0362h-62.468c-0.18125 0-0.3625 0.0137-0.54125 0.0375-0.18 0.0238-0.3575 0.0613-0.53125 0.11125-0.175 0.045-0.3475 0.1025-0.51375 0.1725-0.1675 0.0712-0.32875 0.1525-0.485 0.245-0.15625 0.09-0.3075 0.19-0.45125 0.3-0.1425 0.11125-0.27875 0.23125-0.40625 0.36-0.12875 0.1275-0.24875 0.2625-0.35875 0.40625-0.11125 0.14375-0.21125 0.29375-0.30125 0.45125-0.0913 0.15625-0.1725 0.3175-0.2425 0.485-0.07 0.16625-0.12875 0.33875-0.175 0.5125-0.05 0.175-0.0875 0.3525-0.1125 0.5325-0.025 0.17875-0.0375 0.35875-0.0362 0.54v62.469c0.001 0.18 0.0138 0.36125 0.0387 0.54 0.0238 0.18 0.06 0.3575 0.11 0.53125 0.045 0.175 0.10375 0.3475 0.17375 0.51375 0.07 0.1675 0.15125 0.32875 0.24375 0.485 0.09 0.15625 0.19125 0.3075 0.30125 0.45125s0.23 0.27875 0.35875 0.40625c0.1275 0.12875 0.26375 0.24875 0.40625 0.35875 0.14375 0.11 0.295 0.21125 0.45125 0.30125 0.15625 0.0913 0.31875 0.1725 0.485 0.2425 0.1675 0.07 0.33875 0.1275 0.51375 0.175 0.175 0.05 0.3525 0.0875 0.53125 0.1125s0.36 0.0375 0.54125 0.0362h0.0325z"
           stroke="#000"
           stroke-miterlimit="22.926"
           stroke-width=".27825"
           fill="#fff" />
        <path
           id="path7850-99"
           stroke-linejoin="bevel"
           d="m-214.06 59.246h-0.0337c-0.18375-0.001-0.3675-0.0137-0.54875-0.0387-0.1825-0.0238-0.36375-0.0625-0.54-0.11125-0.17875-0.0462-0.3525-0.10625-0.5225-0.1775-0.17-0.0712-0.33375-0.15375-0.4925-0.2475-0.15875-0.0925-0.3125-0.19375-0.4575-0.30625-0.14625-0.1125-0.28375-0.23375-0.41375-0.365-0.13125-0.12875-0.2525-0.26625-0.365-0.4125s-0.21375-0.29875-0.305-0.45875c-0.0937-0.15875-0.17625-0.32375-0.2475-0.4925-0.0713-0.17-0.13-0.34375-0.1775-0.5225-0.05-0.17625-0.0888-0.3575-0.11375-0.54-0.0263-0.18125-0.0388-0.365-0.0375-0.54875v-62.469c0.001-0.18375 0.0138-0.3675 0.0387-0.55 0.025-0.1825 0.0625-0.3625 0.1125-0.53875 0.0462-0.17875 0.105-0.35375 0.17625-0.52375 0.0713-0.16875 0.15375-0.33375 0.24875-0.49125 0.0913-0.16 0.1925-0.3125 0.305-0.45875s0.23375-0.28375 0.365-0.41375c0.12875-0.13 0.2675-0.2525 0.4125-0.36375 0.14625-0.1125 0.3-0.215 0.45875-0.30625 0.15875-0.0937 0.32375-0.175 0.4925-0.24625 0.17-0.0712 0.345-0.13 0.5225-0.17875 0.17625-0.05 0.3575-0.0887 0.54-0.11375 0.18125-0.0263 0.365-0.0375 0.54875-0.0362h62.47c0.18375 0.001 0.3675 0.0137 0.54875 0.0375 0.1825 0.025 0.3625 0.0625 0.54 0.1125 0.17875 0.0463 0.3525 0.105 0.5225 0.1775 0.17 0.0712 0.33375 0.15375 0.4925 0.2475 0.15875 0.0913 0.3125 0.19375 0.4575 0.30625 0.14625 0.11125 0.285 0.23375 0.41375 0.36375 0.13125 0.13 0.2525 0.2675 0.365 0.41375 0.11125 0.14625 0.21375 0.29875 0.30625 0.45875 0.0925 0.15875 0.175 0.3225 0.24625 0.4925 0.0712 0.17 0.13 0.34375 0.1775 0.5225 0.0513 0.17625 0.0888 0.3575 0.115 0.53875 0.025 0.1825 0.0375 0.36625 0.0362 0.55v62.469c-0.001 0.18375-0.0137 0.3675-0.0387 0.55-0.025 0.18125-0.0625 0.3625-0.1125 0.53875-0.0462 0.17875-0.105 0.3525-0.17625 0.5225-0.0713 0.17-0.15375 0.33375-0.2475 0.4925-0.0925 0.16-0.195 0.3125-0.30625 0.45875-0.1125 0.145-0.23375 0.28375-0.365 0.4125-0.12875 0.13125-0.2675 0.25375-0.41375 0.365-0.145 0.1125-0.29875 0.215-0.4575 0.30625-0.15875 0.0925-0.32375 0.175-0.4925 0.24625-0.17 0.0712-0.345 0.13-0.5225 0.17875-0.1775 0.05-0.3575 0.0875-0.54 0.11375-0.18125 0.025-0.365 0.0375-0.54875 0.0362h-62.436z"
           stroke="#000"
           stroke-miterlimit="22.926"
           stroke-width="2.4452"
           fill="#fff" />
        <path
           id="path7842-2"
           d="m-213.55 57.009h-0.0197c-0.10944-0.000984-0.21765-0.0089-0.32586-0.02341-0.10821-0.01476-0.21519-0.03689-0.32094-0.0664-0.10576-0.02705-0.20905-0.06276-0.30988-0.10452-0.10084-0.04181-0.19798-0.09099-0.29144-0.14756-0.0946-0.0541-0.18568-0.11436-0.27298-0.18076-0.0861-0.06768-0.16847-0.13895-0.24471-0.21765-0.0775-0.07624-0.15002-0.1574-0.21642-0.2447-0.0664-0.08608-0.12666-0.17707-0.18076-0.27175-0.0553-0.09345-0.10452-0.19183-0.14633-0.29266-0.043-0.10083-0.0775-0.20412-0.10576-0.30864-0.0307-0.10575-0.0528-0.21273-0.0676-0.32094-0.016-0.10821-0.0234-0.21765-0.0221-0.32586v-61.426c0-0.10944 0.009-0.21888 0.0234-0.32586 0.0136-0.10821 0.0356-0.21519 0.0664-0.32094 0.0271-0.10575 0.0615-0.20904 0.10453-0.30987 0.0418-0.10083 0.091-0.19797 0.14756-0.29266 0.0541-0.093454 0.11436-0.18445 0.18076-0.27175 0.0664-0.086076 0.13895-0.16723 0.21642-0.2447 0.0762-0.077517 0.15863-0.15002 0.24471-0.21642 0.0873-0.066401 0.1783-0.12665 0.27298-0.18199 0.0935-0.054105 0.19183-0.10329 0.29144-0.1451 0.10083-0.042989 0.20412-0.077517 0.30987-0.10575 0.10576-0.030692 0.21274-0.052924 0.32095-0.06768 0.10821-0.015936 0.21642-0.023314 0.32586-0.022134h61.427c0.10944 0 0.21765 0.00689 0.32586 0.022134 0.10821 0.014756 0.2152 0.03689 0.32095 0.06768 0.10575 0.027052 0.20904 0.061483 0.30988 0.10452 0.10083 0.041808 0.19797 0.090994 0.29266 0.14633 0.0935 0.055285 0.18445 0.11559 0.27053 0.18199 0.0874 0.066401 0.16846 0.13895 0.24593 0.21642 0.0774 0.077419 0.15002 0.15863 0.21642 0.2447 0.0664 0.087256 0.12666 0.1783 0.18076 0.27175 0.0554 0.094732 0.10453 0.19183 0.14634 0.29266 0.0418 0.10083 0.0774 0.20412 0.10575 0.30987 0.0295 0.10575 0.0529 0.21273 0.0676 0.32094 0.016 0.10698 0.0234 0.21642 0.0221 0.32586v61.426c0 0.10821-0.007 0.21765-0.0221 0.32586-0.0148 0.10821-0.0381 0.21519-0.0676 0.32094-0.027 0.10452-0.0615 0.20904-0.10452 0.30987-0.0418 0.0996-0.091 0.19798-0.14757 0.29143-0.0541 0.09463-0.11435 0.18568-0.18076 0.27175-0.0664 0.08608-0.13895 0.16846-0.21642 0.2447-0.0775 0.0787-0.15863 0.15125-0.24593 0.21765-0.0861 0.0664-0.17708 0.12665-0.27053 0.18076-0.0946 0.05538-0.19183 0.10452-0.29266 0.14633-0.10084 0.04181-0.20413 0.07752-0.30988 0.10575-0.10575 0.02951-0.21274 0.05283-0.32095 0.06768-0.10821 0.01594-0.21642 0.02213-0.32586 0.02213h-0.0197-61.388z"
           fill-rule="evenodd"
           fill="#e72512" />
        <path
           id="path7852-7"
           d="m-206.49 0.15381v47.275h47.275v-47.275h-47.275z"
           fill="#fff" />
        <g
           id="g7884"
           transform="matrix(0 1.25 1.25 0 -165.14 48.4)"
           stroke="#000"
           stroke-width="1.0306">
          <path
             id="path7886"
             stroke-linejoin="bevel"
             d="m35.562 42.469-16.75 16.75h33.5l-16.75-16.75z"
             fill-rule="evenodd"
             transform="matrix(0 .8 .8 0 -48.142 -42.628)"
             stroke="#000"
             stroke-miterlimit="22.926"
             stroke-width=".27825" />
        </g>
      </g>
    </g>
  </g>
</svg>
