<?xml version="1.0" encoding="UTF-8" standalone="no"?>
<!-- Created with Inkscape (http://www.inkscape.org/) -->

<svg
   xmlns:dc="http://purl.org/dc/elements/1.1/"
   xmlns:cc="http://creativecommons.org/ns#"
   xmlns:rdf="http://www.w3.org/1999/02/22-rdf-syntax-ns#"
   xmlns:svg="http://www.w3.org/2000/svg"
   xmlns="http://www.w3.org/2000/svg"
   xmlns:sodipodi="http://sodipodi.sourceforge.net/DTD/sodipodi-0.dtd"
   xmlns:inkscape="http://www.inkscape.org/namespaces/inkscape"
   id="svg2"
   height="80"
   width="60"
   version="1.1"
   inkscape:version="0.48.2 r9819"
   sodipodi:docname="move_to_port.svg">
  <title
     id="title2995">Move To Port</title>
  <defs
     id="defs3473" />
  <sodipodi:namedview
     pagecolor="#ffffff"
     bordercolor="#666666"
     borderopacity="1"
     objecttolerance="10"
     gridtolerance="10"
     guidetolerance="10"
     inkscape:pageopacity="0"
     inkscape:pageshadow="2"
     inkscape:window-width="1440"
     inkscape:window-height="808"
     id="namedview3471"
     showgrid="false"
     inkscape:zoom="6.875"
     inkscape:cx="4.4"
     inkscape:cy="40"
     inkscape:window-x="0"
     inkscape:window-y="0"
     inkscape:window-maximized="1"
     inkscape:current-layer="svg2" />
  <metadata
     id="metadata7">
    <rdf:RDF>
      <cc:Work
         rdf:about="">
        <dc:format>image/svg+xml</dc:format>
        <dc:type
           rdf:resource="http://purl.org/dc/dcmitype/StillImage" />
        <dc:title>Move To Port</dc:title>
        <cc:license
           rdf:resource="http://creativecommons.org/licenses/publicdomain/" />
        <dc:identifier>B2a</dc:identifier>
      </cc:Work>
      <cc:License
         rdf:about="http://creativecommons.org/licenses/publicdomain/">
        <cc:permits
           rdf:resource="http://creativecommons.org/ns#Reproduction" />
        <cc:permits
           rdf:resource="http://creativecommons.org/ns#Distribution" />
        <cc:permits
           rdf:resource="http://creativecommons.org/ns#DerivativeWorks" />
      </cc:License>
    </rdf:RDF>
  </metadata>
  <g
     id="layer26"
     transform="translate(0,-40)">
    <g
       id="layer1-6"
       transform="matrix(.97184 0 0 .97891 -310.14 -441.13)">
      <g
         id="g3188"
         transform="matrix(1.2432 0 0 1.1244 -85.114 -66.215)">
        <g
           id="g7650"
           transform="matrix(0 1.25 1.25 0 370.58 566.65)"
           stroke="#000"
           stroke-width="1.0253"
           fill="#e72512">
          <path
             id="path7652"
             d="m-0.39535-0.24419v0.013794c-0.0009856 0.077834-0.005914 0.15567-0.016755 0.2335-0.009856 0.076849-0.025626 0.15271-0.047309 0.22759-0.019712 0.075864-0.044352 0.14976-0.074906 0.22168-0.030554 0.071923-0.06505 0.14089-0.10447 0.20789-0.039424 0.067982-0.082791 0.13301-0.1301 0.19508-0.047309 0.061085-0.099546 0.1202-0.15474 0.17439-0.054208 0.055174-0.11334 0.10739-0.17445 0.15468-0.062093 0.047292-0.12714 0.090643-0.19416 0.12907-0.068007 0.03941-0.137 0.074879-0.20895 0.10444-0.071949 0.030543-0.14587 0.055174-0.22078 0.075864-0.074906 0.021676-0.15178 0.037439-0.22965 0.048277-0.076877 0.010838-0.15474 0.015764-0.23162 0.015764h-50.498c-0.07786-0.0009852-0.15572-0.00591-0.2326-0.016749-0.07688-0.00985-0.15375-0.025616-0.22866-0.047292-0.07589-0.019705-0.14981-0.044336-0.22176-0.074879-0.07096-0.030543-0.14094-0.065026-0.20796-0.10542-0.06801-0.038425-0.13207-0.081775-0.19416-0.12907-0.06209-0.047292-0.12024-0.09951-0.17544-0.15468-0.05519-0.054189-0.10743-0.1133-0.15474-0.17439-0.04731-0.062071-0.09068-0.1271-0.12911-0.19508-0.03943-0.066997-0.07392-0.13596-0.10447-0.20789-0.02957-0.071923-0.05519-0.14582-0.07589-0.22168-0.0207-0.074879-0.03745-0.15074-0.04829-0.22858-0.01084-0.076849-0.01577-0.15468-0.01478-0.23252v-32.461c0-0.07783 0.0059-0.15567 0.01577-0.23252 0.01084-0.07685 0.02661-0.1537 0.04731-0.22858 0.01971-0.07586 0.04534-0.14976 0.07491-0.2207 0.03055-0.07192 0.06603-0.14188 0.10546-0.20887 0.03844-0.067 0.08181-0.13202 0.12911-0.19409 0.04829-0.06207 0.09954-0.1202 0.15474-0.17537 0.05519-0.05518 0.11334-0.10641 0.17544-0.15468 0.06209-0.04729 0.12616-0.09064 0.19416-0.12907 0.06702-0.03941 0.137-0.07389 0.20796-0.10444 0.07293-0.02956 0.14685-0.05517 0.22176-0.07488 0.07491-0.02168 0.15178-0.03744 0.22866-0.04828 0.07688-0.01182 0.15474-0.01675 0.2326-0.01576h50.498c0.076877 0 0.15474 0.0059 0.2326 0.01576 0.076877 0.01083 0.15375 0.0266 0.22866 0.04828 0.074906 0.01872 0.14883 0.04433 0.22078 0.07389 0.071949 0.03055 0.14094 0.06601 0.20895 0.10542 0.067021 0.03843 0.13207 0.08178 0.19416 0.13005 0.061107 0.0473 0.12024 0.09852 0.17445 0.1537 0.056179 0.05517 0.10743 0.1133 0.15474 0.17537 0.047309 0.06207 0.090676 0.1271 0.1301 0.19409 0.039424 0.067 0.07392 0.13695 0.10447 0.20887 0.029568 0.07193 0.054208 0.14582 0.074906 0.2207 0.021683 0.07488 0.037453 0.15173 0.048294 0.22858 0.010842 0.07685 0.01577 0.15468 0.01577 0.23252v0.01477 32.432z"
             fill-rule="evenodd"
             fill="#e72512" />
        </g>
        <g
           id="g7654"
           stroke="#000"
           transform="matrix(0 1.25 1.25 0 371.12 567.75)">
          <path
             id="path7656"
             stroke-linejoin="bevel"
             d="m0 0v-33.814c-0.001-0.098-0.007-0.196-0.02-0.293-0.014-0.097-0.033-0.193-0.06-0.288-0.025-0.094-0.056-0.188-0.094-0.278s-0.083-0.178-0.133-0.262c-0.048-0.085-0.103-0.167-0.163-0.245-0.059-0.077-0.124-0.151-0.194-0.22-0.069-0.07-0.142-0.135-0.22-0.194-0.078-0.06-0.159-0.114-0.245-0.163-0.084-0.05-0.172-0.094-0.262-0.131-0.091-0.038-0.184-0.07-0.278-0.096-0.095-0.026-0.191-0.047-0.288-0.06-0.097-0.014-0.195-0.021-0.293-0.02h-52.12c-0.098 0.001-0.195 0.007-0.293 0.021-0.097 0.013-0.193 0.033-0.287 0.059-0.095 0.025-0.188 0.057-0.279 0.095-0.09 0.038-0.178 0.082-0.262 0.132-0.085 0.049-0.167 0.103-0.244 0.163-0.078 0.059-0.152 0.124-0.221 0.194-0.069 0.069-0.135 0.143-0.194 0.22-0.06 0.078-0.114 0.16-0.163 0.245-0.05 0.084-0.094 0.172-0.131 0.263-0.038 0.09-0.07 0.183-0.095 0.277-0.027 0.095-0.047 0.191-0.061 0.288s-0.02 0.195-0.02 0.293v33.832c0.001 0.098 0.008 0.196 0.021 0.293s0.033 0.193 0.06 0.287c0.024 0.095 0.056 0.188 0.094 0.279 0.038 0.09 0.082 0.178 0.132 0.262 0.049 0.085 0.103 0.167 0.163 0.245 0.06 0.077 0.125 0.151 0.194 0.22s0.143 0.134 0.221 0.194c0.077 0.06 0.159 0.114 0.244 0.163 0.085 0.05 0.172 0.094 0.263 0.131 0.09 0.038 0.183 0.07 0.278 0.096 0.094 0.026 0.19 0.047 0.287 0.06 0.097 0.014 0.195 0.02 0.293 0.02h52.12c0.098-0.001 0.196-0.008 0.293-0.021s0.193-0.033 0.288-0.059c0.095-0.025 0.188-0.057 0.278-0.095 0.091-0.038 0.178-0.082 0.262-0.132 0.085-0.049 0.167-0.103 0.245-0.163s0.151-0.125 0.22-0.194c0.07-0.069 0.135-0.143 0.195-0.22 0.059-0.078 0.114-0.16 0.162-0.245 0.05-0.084 0.094-0.172 0.132-0.263 0.038-0.09 0.069-0.183 0.095-0.278 0.027-0.094 0.047-0.19 0.06-0.287 0.014-0.097 0.021-0.195 0.02-0.293v-0.018z"
             stroke-miterlimit="22.926"
             stroke-width=".22146"
             fill="none" />
          <g
             id="g7658"
             stroke-width="1.0253"
             transform="translate(.037)">
            <path
               id="path7660"
               stroke-linejoin="bevel"
               d="m0 0v0.018c-0.001 0.1-0.007 0.199-0.021 0.298-0.013 0.098-0.033 0.196-0.061 0.292-0.025 0.096-0.057 0.191-0.095 0.283-0.039 0.092-0.084 0.181-0.135 0.266-0.049 0.087-0.104 0.17-0.165 0.249s-0.127 0.153-0.198 0.223c-0.07 0.072-0.144 0.138-0.223 0.198-0.079 0.061-0.162 0.116-0.249 0.165-0.086 0.051-0.175 0.096-0.267 0.134-0.091 0.039-0.186 0.071-0.282 0.097-0.096 0.027-0.194 0.048-0.293 0.061-0.098 0.014-0.198 0.021-0.297 0.02h-52.12c-0.1 0-0.2-0.007-0.298-0.021-0.099-0.013-0.197-0.033-0.293-0.06-0.096-0.025-0.191-0.057-0.283-0.096-0.091-0.039-0.18-0.083-0.266-0.135-0.086-0.049-0.169-0.104-0.248-0.165s-0.154-0.127-0.224-0.198c-0.071-0.069-0.137-0.144-0.198-0.223s-0.116-0.162-0.165-0.249c-0.051-0.085-0.095-0.174-0.134-0.266-0.038-0.092-0.071-0.187-0.096-0.283-0.028-0.096-0.048-0.194-0.062-0.292-0.014-0.099-0.021-0.198-0.02-0.298v-33.832c0.001-0.1 0.007-0.199 0.021-0.298 0.013-0.099 0.034-0.196 0.061-0.292 0.025-0.097 0.057-0.191 0.096-0.283 0.038-0.092 0.083-0.181 0.134-0.266 0.049-0.087 0.104-0.17 0.165-0.249s0.127-0.154 0.198-0.224c0.07-0.071 0.145-0.137 0.224-0.197 0.079-0.061 0.162-0.117 0.248-0.166 0.086-0.05 0.175-0.095 0.267-0.133 0.092-0.039 0.186-0.071 0.282-0.097 0.096-0.027 0.194-0.048 0.293-0.062 0.098-0.014 0.198-0.02 0.298-0.02h52.12c0.099 0.001 0.199 0.008 0.298 0.021 0.098 0.014 0.196 0.034 0.292 0.061 0.096 0.025 0.191 0.057 0.283 0.096 0.091 0.038 0.18 0.083 0.266 0.134 0.087 0.05 0.17 0.105 0.248 0.166 0.08 0.06 0.154 0.126 0.224 0.197 0.071 0.07 0.137 0.145 0.198 0.224s0.116 0.162 0.165 0.249c0.051 0.085 0.095 0.174 0.134 0.266 0.038 0.092 0.071 0.187 0.096 0.283 0.028 0.096 0.048 0.193 0.062 0.292s0.021 0.198 0.02 0.298v33.814z"
               stroke="#000"
               stroke-miterlimit="22.926"
               stroke-width="1.3875"
               fill="none" />
          </g>
        </g>
        <path
           id="path7662"
           d="m334 504.9v54.894h32.754v-54.894h-32.754z"
           fill="#fff" />
        <g
           id="g7664"
           stroke-width="1.0253"
           stroke="#000"
           transform="matrix(0 1.25 1.25 0 359.44 556)">
          <path
             id="path7666"
             d="m0 0-10.643-0.058-15.341-12.565-7.96-0.162"
             stroke="#000"
             stroke-miterlimit="22.926"
             stroke-width="2.0505"
             fill="none" />
        </g>
        <g
           id="g7668"
           transform="matrix(0 1.25 1.25 0 343.33 507.2)">
          <path
             id="path7670"
             d="m0 0 5.216-2.477-0.105 5.163-5.111-2.686"
             fill-rule="evenodd" />
        </g>
      </g>
    </g>
  </g>
</svg>
