<?xml version="1.0" encoding="UTF-8" standalone="no"?>
<!-- Created with Inkscape (http://www.inkscape.org/) -->

<svg
   xmlns:dc="http://purl.org/dc/elements/1.1/"
   xmlns:cc="http://creativecommons.org/ns#"
   xmlns:rdf="http://www.w3.org/1999/02/22-rdf-syntax-ns#"
   xmlns:svg="http://www.w3.org/2000/svg"
   xmlns="http://www.w3.org/2000/svg"
   xmlns:sodipodi="http://sodipodi.sourceforge.net/DTD/sodipodi-0.dtd"
   xmlns:inkscape="http://www.inkscape.org/namespaces/inkscape"
   version="1.1"
   width="80"
   height="60"
   id="svg2"
   inkscape:version="0.48.2 r9819"
   sodipodi:docname="no_entry.svg">
  <title
     id="title2986">No Entry</title>
  <sodipodi:namedview
     pagecolor="#ffffff"
     bordercolor="#666666"
     borderopacity="1"
     objecttolerance="10"
     gridtolerance="10"
     guidetolerance="10"
     inkscape:pageopacity="0"
     inkscape:pageshadow="2"
     inkscape:window-width="1440"
     inkscape:window-height="808"
     id="namedview10"
     showgrid="false"
     inkscape:zoom="9.1666667"
     inkscape:cx="20.8"
     inkscape:cy="30"
     inkscape:window-x="0"
     inkscape:window-y="0"
     inkscape:window-maximized="1"
     inkscape:current-layer="svg2" />
  <defs
     id="defs12" />
  <metadata
     id="metadata7">
    <rdf:RDF>
      <cc:Work
         rdf:about="">
        <dc:format>image/svg+xml</dc:format>
        <dc:type
           rdf:resource="http://purl.org/dc/dcmitype/StillImage" />
        <dc:title>No Entry</dc:title>
        <cc:license
           rdf:resource="http://creativecommons.org/licenses/publicdomain/" />
        <dc:identifier>A1</dc:identifier>
      </cc:Work>
      <cc:License
         rdf:about="http://creativecommons.org/licenses/publicdomain/">
        <cc:permits
           rdf:resource="http://creativecommons.org/ns#Reproduction" />
        <cc:permits
           rdf:resource="http://creativecommons.org/ns#Distribution" />
        <cc:permits
           rdf:resource="http://creativecommons.org/ns#DerivativeWorks" />
      </cc:License>
    </rdf:RDF>
  </metadata>
  <g
     transform="matrix(0.97891,0,0,0.97184,-18.734,-28.311)"
     id="g2987">
    <g
       transform="matrix(1.1244,0,0,1.2432,-293.38,-765.23)"
       id="g2815">
      <path
         d="m 281.73,687.79 h -0.0225 c -0.125,-10e-4 -0.24875,-0.009 -0.37125,-0.0263 -0.12375,-0.0163 -0.24625,-0.0412 -0.36625,-0.0763 -0.12,-0.0312 -0.23875,-0.07 -0.35375,-0.11875 -0.115,-0.0487 -0.22625,-0.105 -0.3325,-0.16875 -0.10875,-0.0613 -0.2125,-0.13 -0.31125,-0.20625 -0.0987,-0.0762 -0.19125,-0.15875 -0.27875,-0.2475 -0.0888,-0.0875 -0.17125,-0.18125 -0.2475,-0.27875 -0.0762,-0.0987 -0.145,-0.2025 -0.20625,-0.31125 -0.0638,-0.1075 -0.12,-0.21875 -0.1675,-0.33375 -0.0475,-0.115 -0.0888,-0.2325 -0.12125,-0.3525 -0.0337,-0.12 -0.06,-0.2425 -0.0762,-0.36625 -0.0175,-0.1225 -0.0263,-0.2475 -0.025,-0.37125 v -42.29 c 0,-0.125 0.009,-0.24875 0.0263,-0.3725 0.0163,-0.12375 0.0412,-0.245 0.075,-0.365 0.0312,-0.12 0.0713,-0.23875 0.12,-0.35375 0.0488,-0.115 0.105,-0.22625 0.16875,-0.3325 0.0612,-0.10875 0.13,-0.2125 0.20625,-0.31125 0.0763,-0.0987 0.15875,-0.1925 0.2475,-0.28 0.0875,-0.0888 0.18,-0.17 0.27875,-0.24625 0.0987,-0.0762 0.2025,-0.145 0.31125,-0.2075 0.1075,-0.0625 0.21875,-0.11875 0.3325,-0.16625 0.115,-0.0488 0.23375,-0.0888 0.35375,-0.12125 0.12,-0.0337 0.2425,-0.06 0.36625,-0.0775 0.1225,-0.0175 0.24625,-0.025 0.37125,-0.0237 h 65.15 c 0.125,0 0.24875,0.009 0.3725,0.025 0.12375,0.0175 0.245,0.0425 0.365,0.0762 0.12125,0.0312 0.23875,0.0713 0.35375,0.12 0.115,0.0488 0.22625,0.10375 0.3325,0.1675 0.10875,0.0625 0.2125,0.13125 0.31125,0.2075 0.0987,0.0763 0.1925,0.1575 0.28,0.24625 0.0888,0.0875 0.17125,0.18125 0.24625,0.28 0.0763,0.0987 0.145,0.2025 0.2075,0.31125 0.0638,0.10625 0.11875,0.2175 0.16625,0.3325 0.0487,0.115 0.0888,0.23375 0.12125,0.35375 0.0337,0.12 0.06,0.24125 0.0775,0.365 0.0175,0.12375 0.025,0.2475 0.025,0.3725 v 42.29 c -10e-4,0.12375 -0.01,0.24875 -0.0263,0.37125 -0.0175,0.12375 -0.0425,0.24625 -0.0763,0.36625 -0.0312,0.12 -0.0713,0.23875 -0.12,0.35375 -0.0475,0.11375 -0.10375,0.225 -0.1675,0.3325 -0.0625,0.10875 -0.13125,0.2125 -0.2075,0.31125 -0.075,0.0975 -0.1575,0.19125 -0.24625,0.27875 -0.0875,0.0888 -0.18125,0.17125 -0.28,0.2475 -0.0987,0.0763 -0.2025,0.145 -0.31125,0.20625 -0.10625,0.0637 -0.2175,0.11875 -0.3325,0.1675 -0.115,0.0475 -0.2325,0.0875 -0.35375,0.12 -0.12,0.035 -0.24125,0.06 -0.365,0.0775 -0.12375,0.0175 -0.2475,0.0262 -0.3725,0.025 h -65.128 z"
         id="path19986"
         style="fill:#ffffff;fill-opacity:1;stroke:#231f20;stroke-width:1.73430002;stroke-linejoin:bevel;stroke-miterlimit:22.9260006" />
      <path
         d="m 281.73,687.75 h 65.128 c 0.1225,-10e-4 0.245,-0.009 0.36625,-0.025 0.12125,-0.0162 0.24125,-0.0425 0.36,-0.075 0.11875,-0.0312 0.235,-0.07 0.3475,-0.1175 0.1125,-0.0475 0.2225,-0.10375 0.3275,-0.16625 0.10625,-0.06 0.20875,-0.12875 0.30625,-0.20375 0.0962,-0.0737 0.18875,-0.155 0.275,-0.2425 0.0875,-0.0862 0.16875,-0.1775 0.2425,-0.275 0.075,-0.0975 0.14375,-0.19875 0.20375,-0.305 0.0625,-0.10625 0.1175,-0.21625 0.16375,-0.32875 0.0475,-0.11375 0.0875,-0.22875 0.12,-0.3475 0.0325,-0.11875 0.0587,-0.23875 0.075,-0.36 0.0175,-0.12125 0.0263,-0.24375 0.025,-0.36625 v -42.289 c 0,-0.1225 -0.009,-0.245 -0.025,-0.36625 -0.0175,-0.12125 -0.0425,-0.24125 -0.075,-0.36 -0.0312,-0.11875 -0.0713,-0.235 -0.11875,-0.3475 -0.0475,-0.11375 -0.1025,-0.2225 -0.165,-0.3275 -0.0613,-0.10625 -0.12875,-0.20875 -0.20375,-0.30625 -0.0738,-0.0975 -0.155,-0.18875 -0.2425,-0.275 -0.0863,-0.0875 -0.17875,-0.16875 -0.275,-0.24375 -0.0975,-0.0737 -0.2,-0.1425 -0.30625,-0.2025 -0.105,-0.0625 -0.215,-0.1175 -0.3275,-0.165 -0.11375,-0.0462 -0.23,-0.0862 -0.3475,-0.11875 -0.11875,-0.0338 -0.23875,-0.0588 -0.36,-0.0763 -0.12125,-0.0162 -0.24375,-0.025 -0.36625,-0.0237 h -65.15 c -0.1225,0 -0.24375,0.009 -0.36625,0.025 -0.12125,0.0163 -0.24125,0.0412 -0.35875,0.075 -0.11875,0.0312 -0.235,0.07 -0.34875,0.1175 -0.1125,0.0475 -0.2225,0.10375 -0.3275,0.16625 -0.10625,0.06 -0.20875,0.12875 -0.305,0.2025 -0.0975,0.075 -0.19,0.15625 -0.27625,0.24375 -0.0863,0.0862 -0.1675,0.1775 -0.2425,0.275 -0.075,0.0975 -0.1425,0.2 -0.20375,0.30625 -0.0625,0.105 -0.1175,0.215 -0.16375,0.3275 -0.0475,0.11375 -0.0875,0.22875 -0.11875,0.3475 -0.0337,0.11875 -0.06,0.23875 -0.0763,0.36 -0.0175,0.12125 -0.025,0.24375 -0.025,0.36625 v 42.289 c 0.001,0.1225 0.01,0.245 0.0263,0.36625 0.0163,0.12125 0.0412,0.2425 0.075,0.36 0.03,0.11875 0.07,0.235 0.1175,0.3475 0.0475,0.11375 0.1025,0.2225 0.165,0.32875 0.0612,0.10625 0.12875,0.2075 0.20375,0.305 0.075,0.0975 0.15625,0.18875 0.2425,0.275 0.0863,0.0875 0.17875,0.16875 0.27625,0.24375 0.0962,0.0738 0.19875,0.1425 0.305,0.2025 0.10625,0.0625 0.215,0.1175 0.32875,0.165 0.1125,0.0475 0.22875,0.0862 0.3475,0.11875 0.1175,0.0325 0.2375,0.0588 0.36,0.075 0.12125,0.0175 0.2425,0.0263 0.365,0.025 h 0.0225 z"
         id="path19982"
         style="fill:none;stroke:#231f20;stroke-width:0.27682;stroke-linejoin:bevel;stroke-miterlimit:22.9260006" />
      <path
         d="m 348.80635,670.74805 v 13.92255 c -9.9e-4,0.10012 -0.007,0.20021 -0.0213,0.29905 -0.0126,0.0989 -0.0327,0.19769 -0.0604,0.29399 -0.0252,0.0976 -0.0566,0.19263 -0.0957,0.28514 -0.0378,0.0912 -0.0831,0.18121 -0.13465,0.26738 -0.0491,0.0875 -0.10447,0.17108 -0.16486,0.24964 -0.0605,0.0798 -0.12713,0.15461 -0.19759,0.22558 -0.0693,0.0709 -0.14473,0.13812 -0.22274,0.19895 -0.0794,0.0608 -0.16237,0.11659 -0.24794,0.16601 -0.0856,0.0506 -0.17494,0.0964 -0.26679,0.13434 -0.0919,0.0381 -0.18628,0.0709 -0.28192,0.0977 -0.0957,0.0267 -0.19382,0.048 -0.29198,0.062 -0.0994,0.0138 -0.19759,0.0203 -0.29701,0.0203 h -64.48036 c -0.10072,-10e-4 -0.19884,-0.007 -0.29826,-0.0216 -0.0982,-0.0138 -0.19632,-0.0342 -0.29197,-0.0608 -0.0957,-0.0253 -0.19003,-0.0571 -0.28191,-0.0964 -0.0919,-0.0393 -0.18122,-0.0849 -0.2668,-0.13562 -0.0856,-0.0495 -0.16864,-0.10517 -0.24793,-0.166 -0.078,-0.062 -0.15354,-0.12799 -0.22401,-0.19895 -0.0705,-0.0709 -0.13593,-0.14574 -0.19633,-0.22558 -0.0605,-0.0786 -0.11579,-0.16218 -0.16613,-0.24962 -0.0504,-0.0861 -0.0943,-0.17616 -0.13341,-0.26738 -0.0378,-0.0925 -0.0704,-0.18755 -0.0956,-0.28515 -0.0277,-0.0964 -0.0478,-0.19514 -0.0617,-0.29398 -0.0138,-0.0989 -0.0215,-0.19895 -0.0202,-0.29906 v -13.92255 h 69.04662 m -69.04662,-13.90507 v -13.92255 c 0,-0.10012 0.007,-0.2002 0.0215,-0.29905 0.0126,-0.0989 0.0327,-0.1977 0.0604,-0.29398 0.024,-0.0975 0.0565,-0.19263 0.0956,-0.28514 0.0378,-0.0912 0.0831,-0.18121 0.13341,-0.26739 0.0504,-0.0875 0.10572,-0.1698 0.16613,-0.24964 0.0604,-0.0798 0.12584,-0.1546 0.19633,-0.22556 0.0704,-0.0709 0.14472,-0.13812 0.22401,-0.19897 0.0793,-0.0609 0.16233,-0.11658 0.24793,-0.166 0.0856,-0.0507 0.17493,-0.095 0.2668,-0.13433 0.0919,-0.0381 0.18626,-0.0709 0.2819,-0.0976 0.0957,-0.0267 0.19381,-0.048 0.29197,-0.062 0.0994,-0.0138 0.19759,-0.0203 0.29702,-0.0203 h 64.48042 c 0.10073,10e-4 0.19885,0.007 0.29827,0.0215 0.0982,0.0139 0.19633,0.0343 0.29198,0.0609 0.0956,0.0253 0.19003,0.0583 0.28191,0.0964 0.0919,0.0392 0.18123,0.085 0.26554,0.13559 0.0869,0.0495 0.16989,0.10518 0.24919,0.16602 0.078,0.062 0.15352,0.12799 0.22275,0.19895 0.0716,0.0709 0.13717,0.14573 0.19883,0.22556 0.0604,0.0798 0.11453,0.16221 0.16488,0.24966 0.0504,0.0861 0.0943,0.17612 0.13339,0.26739 0.0378,0.0937 0.0705,0.18754 0.0957,0.2851 0.0277,0.0964 0.0478,0.19517 0.0616,0.29401 0.0139,0.0989 0.0215,0.19896 0.0202,0.29906 V 656.8431 H 279.7599"
         id="path19978"
         style="fill:#e72512;fill-rule:evenodd" />
    </g>
  </g>
</svg>
