<?xml version="1.0" encoding="UTF-8" standalone="no"?>
<!-- Created with Inkscape (http://www.inkscape.org/) -->

<svg
   xmlns:dc="http://purl.org/dc/elements/1.1/"
   xmlns:cc="http://creativecommons.org/ns#"
   xmlns:rdf="http://www.w3.org/1999/02/22-rdf-syntax-ns#"
   xmlns:svg="http://www.w3.org/2000/svg"
   xmlns="http://www.w3.org/2000/svg"
   xmlns:sodipodi="http://sodipodi.sourceforge.net/DTD/sodipodi-0.dtd"
   xmlns:inkscape="http://www.inkscape.org/namespaces/inkscape"
   id="svg2"
   height="80"
   width="60"
   version="1.1"
   inkscape:version="0.48.2 r9819"
   sodipodi:docname="no_overtaking.svg">
  <title
     id="title2994">No Overtaking</title>
  <defs
     id="defs3017" />
  <sodipodi:namedview
     pagecolor="#ffffff"
     bordercolor="#666666"
     borderopacity="1"
     objecttolerance="10"
     gridtolerance="10"
     guidetolerance="10"
     inkscape:pageopacity="0"
     inkscape:pageshadow="2"
     inkscape:window-width="1440"
     inkscape:window-height="808"
     id="namedview3015"
     showgrid="false"
     inkscape:zoom="6.875"
     inkscape:cx="4.4"
     inkscape:cy="40"
     inkscape:window-x="0"
     inkscape:window-y="0"
     inkscape:window-maximized="1"
     inkscape:current-layer="svg2" />
  <metadata
     id="metadata7">
    <rdf:RDF>
      <cc:Work
         rdf:about="">
        <dc:format>image/svg+xml</dc:format>
        <dc:type
           rdf:resource="http://purl.org/dc/dcmitype/StillImage" />
        <dc:title>No Overtaking</dc:title>
        <cc:license
           rdf:resource="http://creativecommons.org/licenses/publicdomain/" />
        <dc:identifier>A2</dc:identifier>
      </cc:Work>
      <cc:License
         rdf:about="http://creativecommons.org/licenses/publicdomain/">
        <cc:permits
           rdf:resource="http://creativecommons.org/ns#Reproduction" />
        <cc:permits
           rdf:resource="http://creativecommons.org/ns#Distribution" />
        <cc:permits
           rdf:resource="http://creativecommons.org/ns#DerivativeWorks" />
      </cc:License>
    </rdf:RDF>
  </metadata>
  <g
     id="layer1"
     transform="translate(0,-40)">
    <g
       id="g3085"
       transform="matrix(.97184 0 0 .97891 -28.31 21.266)">
      <g
         id="layer1-7"
         transform="translate(-437.14 -418.08)">
        <g
           id="g2891"
           transform="matrix(1.2432 0 0 1.1244 -120.9 -59.463)">
          <path
             id="path20700"
             d="m476.87 511.87h-0.0172c-0.0972-0.00099-0.19458-0.008-0.29188-0.021-0.0961-0.0123-0.19089-0.032-0.28449-0.0591-0.0948-0.0246-0.1872-0.0554-0.2771-0.0936-0.0899-0.037-0.17611-0.0813-0.25986-0.13059-0.0849-0.0493-0.16626-0.10349-0.24385-0.16263-0.0764-0.0591-0.15025-0.12443-0.21798-0.19342-0.069-0.0677-0.13424-0.14168-0.19336-0.21807-0.0591-0.0776-0.1133-0.15893-0.16133-0.2427-0.0493-0.0851-0.0936-0.17125-0.13055-0.26119-0.0382-0.09-0.069-0.18233-0.0949-0.27597-0.0271-0.0936-0.0468-0.18973-0.0603-0.28705-0.0136-0.0961-0.0197-0.19343-0.0197-0.28952v-63.123c0.00099-0.0973 0.007-0.19466 0.021-0.29076 0.0123-0.0961 0.032-0.19219 0.0591-0.28582 0.0246-0.0948 0.0555-0.18727 0.0936-0.2772 0.0381-0.0887 0.0813-0.17618 0.13178-0.25996 0.048-0.085 0.10222-0.16508 0.16133-0.2427 0.0591-0.0777 0.12439-0.15031 0.19336-0.2193 0.0678-0.069 0.14162-0.13429 0.21798-0.19342 0.0776-0.0591 0.15887-0.11335 0.24385-0.1614 0.0838-0.0493 0.16996-0.0936 0.25986-0.13059 0.0899-0.037 0.18227-0.069 0.2771-0.0948 0.0936-0.0259 0.18843-0.0468 0.28572-0.0603 0.0961-0.0136 0.19336-0.0197 0.29065-0.0185h40.576c0.0972 0 0.19458 0.007 0.29064 0.0197 0.0973 0.0136 0.19213 0.0332 0.28573 0.0591 0.0949 0.0246 0.18719 0.0567 0.27587 0.0936 0.09 0.0381 0.17734 0.0826 0.26109 0.13182 0.0837 0.0481 0.16626 0.10226 0.24261 0.1614 0.0776 0.0604 0.15025 0.12443 0.21922 0.19342 0.069 0.069 0.13301 0.14168 0.19336 0.2193 0.0591 0.0776 0.1133 0.15769 0.16133 0.2427 0.0493 0.0838 0.0923 0.17125 0.13055 0.25996 0.0369 0.09 0.069 0.18356 0.0936 0.2772 0.0271 0.0936 0.0468 0.18973 0.0616 0.28582 0.0135 0.0961 0.0197 0.19343 0.0184 0.29075v63.123c0 0.0961-0.007 0.19343-0.0197 0.29076-0.0135 0.0961-0.0333 0.19219-0.0603 0.28582-0.0235 0.0936-0.0555 0.18603-0.0923 0.27597-0.0382 0.09-0.0826 0.17618-0.13178 0.26119-0.048 0.0838-0.10222 0.16508-0.16257 0.2427-0.0591 0.0764-0.12315 0.15031-0.19212 0.21807-0.069 0.0703-0.14163 0.13428-0.21922 0.19342-0.0764 0.0591-0.15887 0.11334-0.24261 0.16262-0.0838 0.0493-0.17119 0.0924-0.26109 0.1306-0.0899 0.037-0.18228 0.0678-0.27587 0.0936-0.0936 0.0271-0.18966 0.0468-0.28573 0.0603-0.0961 0.0136-0.19335 0.0197-0.29064 0.0197h-0.0184-40.54z"
             fill-rule="evenodd"
             fill="#e72512" />
          <path
             id="path20704"
             d="m509.02 505.51-27.88-48.291v48.291h27.88"
             fill-rule="evenodd"
             fill="#fff" />
          <path
             id="path20708"
             d="m513.14 498.93v-48.29h-27.88l27.88 48.29"
             fill-rule="evenodd"
             fill="#fff" />
          <path
             id="path20712"
             stroke-linejoin="bevel"
             d="m476.02 513.46h42.268c0.1225-0.001 0.245-0.009 0.36625-0.025 0.12125-0.0175 0.24125-0.0425 0.36-0.075 0.1175-0.0312 0.235-0.07 0.3475-0.1175s0.2225-0.10375 0.3275-0.16625c0.10625-0.06 0.20875-0.12875 0.30625-0.20375 0.0963-0.075 0.18875-0.155 0.275-0.2425 0.0875-0.0862 0.16875-0.1775 0.2425-0.275 0.075-0.0975 0.1425-0.19875 0.20375-0.30625 0.0625-0.105 0.1175-0.215 0.16375-0.3275 0.0475-0.11375 0.0875-0.23 0.12-0.3475 0.0325-0.11875 0.0588-0.23875 0.075-0.36 0.0175-0.12125 0.0263-0.24375 0.025-0.36625v-65.15c-0.001-0.1225-0.009-0.24375-0.0263-0.36625-0.0163-0.12125-0.0412-0.24125-0.0738-0.35875-0.0312-0.11875-0.0712-0.235-0.11875-0.34875-0.0475-0.1125-0.1025-0.2225-0.165-0.3275-0.0612-0.10625-0.12875-0.20875-0.20375-0.305-0.0738-0.0975-0.155-0.19-0.2425-0.27625-0.0862-0.0863-0.17875-0.16875-0.275-0.2425-0.0975-0.075-0.2-0.1425-0.30625-0.20375-0.105-0.0625-0.215-0.1175-0.3275-0.16375-0.11375-0.0475-0.23-0.0875-0.3475-0.11875-0.11875-0.0337-0.23875-0.0587-0.36-0.0762s-0.24375-0.025-0.36625-0.025h-42.29c-0.1225 0.001-0.245 0.01-0.36625 0.0263s-0.24125 0.0412-0.35875 0.075c-0.11875 0.03-0.235 0.07-0.34875 0.1175-0.1125 0.0475-0.2225 0.1025-0.3275 0.165-0.10625 0.0612-0.20875 0.12875-0.30625 0.20375-0.0962 0.075-0.18875 0.15625-0.275 0.2425-0.0863 0.0862-0.16875 0.17875-0.2425 0.27625-0.075 0.0962-0.1425 0.19875-0.20375 0.305-0.0625 0.10625-0.1175 0.215-0.16375 0.32875-0.0475 0.1125-0.0875 0.22875-0.11875 0.3475-0.0337 0.1175-0.06 0.2375-0.0763 0.35875-0.0175 0.12125-0.025 0.24375-0.025 0.36625v65.15c0.001 0.1225 0.01 0.245 0.0263 0.36625 0.0162 0.12125 0.0412 0.24125 0.075 0.36 0.03 0.11875 0.07 0.235 0.1175 0.3475s0.1025 0.2225 0.165 0.3275c0.0613 0.10625 0.12875 0.20875 0.20375 0.30625s0.15625 0.18875 0.2425 0.275c0.0863 0.0875 0.17875 0.16875 0.275 0.24375 0.0975 0.0738 0.2 0.1425 0.30625 0.2025 0.105 0.0625 0.215 0.1175 0.32875 0.165 0.1125 0.0475 0.22875 0.0862 0.3475 0.11875 0.1175 0.0325 0.2375 0.0588 0.35875 0.075 0.12125 0.0175 0.24375 0.0263 0.36625 0.025h0.0225z"
             stroke="#231f20"
             stroke-miterlimit="22.926"
             stroke-width=".27682"
             fill="none" />
          <path
             id="path20716"
             stroke-linejoin="bevel"
             d="m476.02 513.51h-0.0225c-0.125-0.001-0.24875-0.009-0.3725-0.0263-0.1225-0.0163-0.245-0.0412-0.365-0.0762-0.12-0.0312-0.23875-0.0713-0.35375-0.11875-0.115-0.0487-0.22625-0.105-0.3325-0.1675-0.10875-0.0625-0.2125-0.13125-0.31125-0.2075-0.0987-0.0762-0.19125-0.15875-0.27875-0.2475-0.09-0.0875-0.1725-0.18125-0.2475-0.27875-0.0763-0.0987-0.145-0.2025-0.20625-0.31125-0.0637-0.1075-0.12-0.21875-0.1675-0.33375-0.0487-0.11375-0.0887-0.2325-0.12125-0.3525-0.0337-0.12-0.06-0.2425-0.0763-0.36625-0.0175-0.1225-0.0263-0.2475-0.025-0.37125v-65.15c0-0.125 0.009-0.25 0.0263-0.3725 0.0163-0.12375 0.0412-0.24625 0.075-0.36625 0.0312-0.12 0.0713-0.23875 0.12-0.35375 0.0487-0.11375 0.10375-0.225 0.16875-0.3325 0.0613-0.1075 0.13-0.21125 0.20625-0.31 0.0763-0.0987 0.15875-0.1925 0.2475-0.28 0.0863-0.0888 0.18-0.17125 0.27875-0.2475 0.0987-0.075 0.2025-0.145 0.31125-0.20625 0.10625-0.0638 0.2175-0.11875 0.3325-0.1675 0.115-0.0475 0.23375-0.0875 0.35375-0.12 0.12-0.035 0.2425-0.06 0.36625-0.0775 0.1225-0.0175 0.24625-0.0263 0.37125-0.025h42.29c0.125 0.001 0.24875 0.009 0.3725 0.0263 0.1225 0.0162 0.245 0.0425 0.365 0.0762 0.12125 0.0312 0.23875 0.0713 0.35375 0.12 0.115 0.0475 0.22625 0.10375 0.3325 0.1675 0.10875 0.0612 0.2125 0.13125 0.31125 0.20625 0.0987 0.0762 0.1925 0.15875 0.28 0.2475 0.0888 0.0875 0.17125 0.18125 0.24625 0.28 0.0762 0.0987 0.145 0.2025 0.2075 0.31s0.11875 0.21875 0.16625 0.33375c0.0488 0.115 0.0888 0.2325 0.12125 0.3525 0.0337 0.12 0.06 0.2425 0.0775 0.36625 0.0175 0.1225 0.025 0.2475 0.025 0.3725v65.15c-0.001 0.12375-0.01 0.24875-0.0263 0.37125-0.0175 0.12375-0.0425 0.24625-0.0762 0.36625-0.0312 0.12-0.0712 0.23875-0.12 0.35375-0.0475 0.11375-0.10375 0.225-0.1675 0.3325-0.0625 0.10875-0.13125 0.2125-0.2075 0.31-0.075 0.0987-0.1575 0.1925-0.24625 0.28-0.0875 0.0888-0.18125 0.17125-0.28 0.2475-0.0987 0.0763-0.2025 0.145-0.31125 0.2075-0.10625 0.0625-0.2175 0.1175-0.3325 0.16625-0.115 0.0475-0.23375 0.0888-0.35375 0.12-0.12 0.035-0.2425 0.06-0.365 0.0775-0.12375 0.0175-0.2475 0.0263-0.3725 0.025h-42.268z"
             stroke="#000"
             stroke-miterlimit="22.926"
             stroke-width="1.7344"
             fill="none" />
          <path
             id="path20720"
             stroke-linejoin="bevel"
             d="m489.8 499.06h-0.0175l0.009-0.002 0.009 0.002z"
             fill-rule="evenodd"
             stroke="#231f20"
             stroke-miterlimit="22.926"
             stroke-width=".27682"
             fill="#a7a9ac" />
          <path
             id="path20724"
             stroke-linejoin="bevel"
             d="m504.44 466.42h-0.0175l0.009-0.002 0.009 0.002z"
             fill-rule="evenodd"
             stroke="#231f20"
             stroke-miterlimit="22.926"
             stroke-width=".27682"
             fill="#a7a9ac" />
          <path
             id="path20728"
             stroke-linejoin="bevel"
             d="m506.57 459.18 2.37 0.37625 0.0138 0.001c0.02 0.002 0.04 0.005 0.0612 0.007 0.02 0.001 0.0413 0.002 0.0613 0.002 0.0263 0 0.0525 0 0.0775-0.001s0.0512-0.005 0.0763-0.009c0.025-0.002 0.0487-0.007 0.0738-0.0125 0.0237-0.006 0.0462-0.0125 0.0687-0.02 0.0238-0.006 0.045-0.015 0.0663-0.0237 0.02-0.009 0.04-0.0188 0.0587-0.0288 0.0188-0.01 0.0362-0.0213 0.0525-0.0337 0.0163-0.0113 0.0312-0.0238 0.0437-0.0375 0.0138-0.0125 0.0263-0.025 0.0362-0.04 0.01-0.0137 0.02-0.0275 0.0263-0.0425 0.007-0.0138 0.0138-0.0288 0.0175-0.0438 0.004-0.015 0.006-0.03 0.006-0.045 0.001-0.015 0-0.03-0.002-0.0462-0.002-0.0138-0.006-0.03-0.0125-0.0438-0.006-0.015-0.0138-0.03-0.0225-0.0437-0.009-0.0138-0.02-0.0288-0.0325-0.0412l-0.004-0.004-0.004-0.004-4.21-4.3062-4.1712 4.3062-0.006 0.006c-0.01 0.0113-0.0188 0.0225-0.0275 0.0337-0.008 0.0113-0.0138 0.0225-0.02 0.0337-0.007 0.015-0.0125 0.03-0.0162 0.045-0.005 0.015-0.006 0.03-0.008 0.045 0 0.015 0.001 0.03 0.004 0.045 0.002 0.015 0.006 0.03 0.0138 0.045 0.005 0.015 0.0125 0.03 0.0225 0.0437 0.009 0.0138 0.02 0.0275 0.0325 0.0413 0.0125 0.0125 0.0263 0.0262 0.0412 0.0375 0.015 0.0125 0.0312 0.0238 0.0487 0.035 0.0188 0.0112 0.0375 0.0213 0.0563 0.0312 0.0212 0.009 0.0412 0.0188 0.0637 0.0263 0.0213 0.007 0.045 0.015 0.0688 0.0212 0.0225 0.006 0.0475 0.0113 0.0712 0.015 0.025 0.004 0.05 0.007 0.075 0.01 0.0262 0.002 0.0512 0.004 0.0775 0.004 0.025 0.001 0.0512 0 0.0775-0.001 0.025-0.001 0.05-0.005 0.075-0.009h0.007l0.007-0.002 2.33-0.3725v13.091 0.009 0.01c0.001 0.03 0.006 0.06 0.0137 0.09 0.008 0.03 0.02 0.0587 0.035 0.0888 0.0138 0.0288 0.0312 0.0575 0.0525 0.085 0.02 0.0275 0.045 0.055 0.0725 0.08 0.0263 0.0263 0.0562 0.0513 0.0875 0.075 0.0325 0.0238 0.0675 0.045 0.105 0.0662 0.0375 0.0213 0.0775 0.04 0.11875 0.0588 0.0412 0.0175 0.085 0.0337 0.13 0.0475 0.045 0.015 0.0913 0.0275 0.14 0.0388 0.0475 0.01 0.0975 0.0187 0.1475 0.0262 0.0375 0.006 0.0775 0.01 0.11625 0.0138 0.04 0.002 0.0787 0.005 0.11875 0.005h0.0138 0.045c0.0513 0 0.1025-0.002 0.15375-0.006 0.05-0.005 0.10125-0.0112 0.15-0.02 0.05-0.007 0.0987-0.0175 0.145-0.03 0.0475-0.0125 0.0937-0.0263 0.13625-0.0425 0.045-0.015 0.0875-0.0325 0.1275-0.0512 0.04-0.0188 0.0788-0.0387 0.11375-0.0613 0.0362-0.0213 0.0688-0.045 0.1-0.0687 0.0312-0.025 0.0587-0.05 0.0825-0.0763 0.0263-0.0263 0.0475-0.0538 0.0663-0.0825 0.0187-0.0288 0.035-0.0575 0.0475-0.0863 0.01-0.025 0.0188-0.05 0.025-0.0763 0.006-0.025 0.009-0.05 0.01-0.0763v-0.0163-13.092z"
             fill-rule="evenodd"
             stroke="#000"
             stroke-miterlimit="22.926"
             stroke-width=".27682" />
          <path
             id="path20732"
             stroke-linejoin="bevel"
             d="m488.41 486.91 2.37 0.375 0.0137 0.002c0.02 0.002 0.04 0.005 0.0613 0.007 0.02 0.001 0.0412 0.002 0.0625 0.002 0.025 0 0.0512 0 0.0763-0.001 0.025-0.001 0.0512-0.005 0.0762-0.009 0.025-0.002 0.0488-0.007 0.0738-0.0125 0.0238-0.006 0.0462-0.0125 0.0688-0.02 0.0238-0.006 0.045-0.015 0.0662-0.0237 0.02-0.009 0.04-0.0188 0.0588-0.0288 0.0187-0.01 0.0362-0.0213 0.0525-0.0337 0.0163-0.0113 0.0312-0.0238 0.0438-0.0375 0.0137-0.0125 0.0263-0.0263 0.0362-0.04 0.01-0.0137 0.02-0.0275 0.0263-0.0425 0.007-0.0138 0.0137-0.0288 0.0175-0.0438 0.004-0.015 0.006-0.03 0.007-0.045 0-0.015 0-0.03-0.004-0.0463-0.002-0.015-0.006-0.03-0.0125-0.0437-0.006-0.015-0.0138-0.03-0.0225-0.0437-0.009-0.015-0.02-0.0288-0.0325-0.0412l-0.004-0.004-0.004-0.004-4.21-4.3062-4.1712 4.3062-0.006 0.006c-0.01 0.0112-0.0188 0.0225-0.0275 0.0337-0.007 0.0112-0.0137 0.0225-0.02 0.0337-0.007 0.015-0.0125 0.03-0.0163 0.045-0.005 0.015-0.006 0.03-0.007 0.045 0 0.015 0.001 0.03 0.004 0.045 0.002 0.015 0.006 0.03 0.0137 0.045 0.005 0.015 0.0125 0.0287 0.0225 0.0437 0.009 0.0137 0.02 0.0275 0.0325 0.0412 0.0125 0.0125 0.025 0.0263 0.0412 0.0375 0.015 0.0125 0.0312 0.0238 0.0488 0.035 0.0187 0.0113 0.0375 0.0213 0.0562 0.0312 0.0213 0.009 0.0412 0.0175 0.0638 0.0263 0.0225 0.007 0.045 0.015 0.0687 0.0213 0.0225 0.006 0.0475 0.01 0.0713 0.015 0.025 0.004 0.05 0.007 0.0763 0.01 0.025 0.002 0.05 0.004 0.0762 0.004 0.025 0.001 0.0513 0 0.0775-0.001 0.025-0.001 0.05-0.005 0.075-0.009l0.007-0.001 0.007-0.001 2.33-0.3725v13.091 0.009 0.009c0.001 0.0312 0.006 0.0613 0.0138 0.0913 0.007 0.03 0.02 0.0587 0.035 0.0888 0.0138 0.0288 0.0312 0.0575 0.0525 0.085 0.02 0.0275 0.045 0.055 0.0725 0.08 0.0263 0.0263 0.0563 0.0512 0.0875 0.075 0.0325 0.0225 0.0675 0.045 0.105 0.0662 0.0375 0.0213 0.0775 0.04 0.11875 0.0588 0.0412 0.0175 0.085 0.0337 0.13 0.0475 0.045 0.015 0.0913 0.0275 0.14 0.0387 0.0475 0.01 0.0975 0.0187 0.1475 0.0263 0.0387 0.006 0.0775 0.01 0.11625 0.0137 0.04 0.002 0.0788 0.005 0.11875 0.005h0.0138 0.045c0.0512 0 0.1025-0.002 0.15375-0.006 0.05-0.005 0.10125-0.0113 0.15-0.02 0.05-0.007 0.0987-0.0175 0.145-0.03 0.0475-0.0125 0.0937-0.0263 0.13625-0.0425 0.045-0.015 0.0875-0.0325 0.1275-0.0512 0.04-0.0188 0.0788-0.0387 0.11375-0.0613 0.0362-0.0213 0.07-0.045 0.1-0.0687 0.0312-0.025 0.0588-0.05 0.0838-0.0763s0.0462-0.0537 0.0663-0.0825c0.0187-0.0288 0.0337-0.0575 0.0462-0.0863 0.01-0.025 0.0188-0.05 0.025-0.0763 0.006-0.025 0.009-0.05 0.01-0.0763v-0.0162-13.092z"
             fill-rule="evenodd"
             stroke="#000"
             stroke-miterlimit="22.926"
             stroke-width=".27682" />
        </g>
      </g>
    </g>
  </g>
</svg>
