<?xml version="1.0" encoding="UTF-8" standalone="no"?>
<svg
   xmlns:dc="http://purl.org/dc/elements/1.1/"
   xmlns:cc="http://creativecommons.org/ns#"
   xmlns:rdf="http://www.w3.org/1999/02/22-rdf-syntax-ns#"
   xmlns:svg="http://www.w3.org/2000/svg"
   xmlns="http://www.w3.org/2000/svg"
   xmlns:sodipodi="http://sodipodi.sourceforge.net/DTD/sodipodi-0.dtd"
   xmlns:inkscape="http://www.inkscape.org/namespaces/inkscape"
   version="1.0"
   width="84.6875"
   height="58.440804"
   id="svg2"
   inkscape:version="0.48.2 r9819"
   sodipodi:docname="general.svg"
   sodipodi:version="0.32"
   inkscape:output_extension="org.inkscape.output.svg.inkscape"
   sodipodi:modified="true">
  <title
     id="title2982">Q100: Cairn</title>
  <metadata
     id="metadata3032">
    <rdf:RDF>
      <cc:Work
         rdf:about="">
        <dc:format>image/svg+xml</dc:format>
        <dc:type
           rdf:resource="http://purl.org/dc/dcmitype/StillImage" />
        <cc:license
           rdf:resource="http://creativecommons.org/licenses/publicdomain/" />
        <dc:title>Q100: Cairn</dc:title>
      </cc:Work>
      <cc:Work
         rdf:about="">
        <dc:format>image/svg+xml</dc:format>
        <dc:type
           rdf:resource="http://purl.org/dc/dcmitype/StillImage" />
      </cc:Work>
      <cc:License
         rdf:about="http://creativecommons.org/licenses/publicdomain/">
        <cc:permits
           rdf:resource="http://creativecommons.org/ns#Reproduction" />
        <cc:permits
           rdf:resource="http://creativecommons.org/ns#Distribution" />
        <cc:permits
           rdf:resource="http://creativecommons.org/ns#DerivativeWorks" />
      </cc:License>
    </rdf:RDF>
  </metadata>
  <sodipodi:namedview
     pagecolor="#ffffff"
     bordercolor="#666666"
     borderopacity="1"
     objecttolerance="10"
     gridtolerance="10"
     guidetolerance="10"
     inkscape:pageopacity="0"
     inkscape:pageshadow="2"
     inkscape:window-width="1440"
     inkscape:window-height="808"
     id="namedview3030"
     showgrid="false"
     inkscape:zoom="9.4112327"
     inkscape:cx="23.642693"
     inkscape:cy="29.220402"
     inkscape:window-x="0"
     inkscape:window-y="0"
     inkscape:window-maximized="1"
     inkscape:current-layer="svg2" />
  <defs
     id="defs4" />
  <path
     style="fill:#000407;fill-opacity:1;fill-rule:evenodd;stroke:none"
     d="M 43,0 C 31.83961,0 22.78125,8.30377 22.78125,18.5625 C 22.78125,20.0918 23.02683,21.57809 23.40625,23 C 21.58497,22.45716 19.63211,22.15625 17.59375,22.15625 C 7.87259,22.15625 0,28.84578 0,37.125 C 0,39.25716 0.52595,41.28851 1.46875,43.125 L 0.84375,43.125 L 0.84375,48.78125 L 6.5,48.78125 L 29.875,48.78125 L 30.53125,48.78125 C 31.81857,54.3142 36.76452,58.43749 42.6875,58.4375 C 48.6422,58.57052 53.12625,54.67752 54.62468,48.54322 L 84.6875,48.78125 L 84.6875,48.71875 L 84.6875,43.125 L 84.03125,43.125 C 84.06355,42.66036 84.09375,42.17924 84.09375,41.6875 C 84.09375,33.40828 76.18991,26.71875 66.46875,26.71875 C 64.74729,26.71875 63.10407,26.92007 61.53125,27.3125 C 62.60937,24.90529 63.21875,21.99455 63.21875,18.5625 C 63.21875,8.30377 54.16039,0 43,0 z M 42.15625,3.96875 C 49.29042,3.96875 57.31243,8.62213 57.6875,18.5625 C 58.11292,29.83731 53.54877,32.64224 42.59375,33.15625 C 38.84204,33.33228 35.96381,32.63623 33.78125,31.28125 C 32.19876,29.83607 29.98617,28.72165 29.375,26 C 28.49084,23.9364 28.03919,21.55593 27.90625,19 C 27.45847,10.39134 34.59664,3.96875 42.15625,3.96875 z M 16.875,25.34375 C 19.94469,25.34375 23.17145,26.26268 25.71875,28.15625 C 27.47473,29.561 28.10723,30.24377 29.03125,31.96875 C 29.8089,33.43533 30.29445,35.14694 30.375,37.125 C 30.47591,39.60282 30.22407,41.55878 29.65625,43.125 L 5.71875,43.125 C 4.95655,41.46558 4.55269,39.52067 4.4375,37.46875 C 4.04747,30.52121 10.29027,25.34375 16.875,25.34375 z M 65.75,29.90625 C 71.96417,29.90625 78.9233,33.66521 79.25,41.6875 C 79.2705,42.19061 79.2875,42.66277 79.2812,43.125 L 54.8437,43.125 C 54.55606,41.88615 54.09296,40.72303 53.4687,39.65625 C 54.4312,33.94483 59.94679,29.90625 65.74995,29.90625 L 65.75,29.90625 z M 42.6875,38.4375 C 45.25084,38.4375 47.52211,39.72369 48.875,41.6875 C 48.88,41.6945 48.87,41.712 48.875,41.7187 C 50.64164,43.39868 50.95674,45.47126 50.09375,47.1562 C 49.51047,50.71663 46.41208,53.4375 42.6875,53.4375 C 38.5475,53.4375 35.1875,50.0775 35.1875,45.9375 C 35.1875,41.7975 38.5475,38.4375 42.6875,38.4375 z "
     id="path90440"
     inkscape:connector-curvature="0"
     sodipodi:nodetypes="sscssccccccccccccsscsssssccsssccsccsscscccscscsssss" />
</svg>
