<?xml version="1.0" encoding="UTF-8" standalone="no"?>
<svg
   xmlns:dc="http://purl.org/dc/elements/1.1/"
   xmlns:cc="http://creativecommons.org/ns#"
   xmlns:rdf="http://www.w3.org/1999/02/22-rdf-syntax-ns#"
   xmlns:svg="http://www.w3.org/2000/svg"
   xmlns="http://www.w3.org/2000/svg"
   xmlns:sodipodi="http://sodipodi.sourceforge.net/DTD/sodipodi-0.dtd"
   xmlns:inkscape="http://www.inkscape.org/namespaces/inkscape"
   version="1.0"
   width="78.3125"
   height="61.970169"
   id="svg2"
   inkscape:version="0.48.2 r9819"
   sodipodi:docname="V_yellow_blue.svg"
   sodipodi:version="0.32"
   inkscape:output_extension="org.inkscape.output.svg.inkscape"
   sodipodi:modified="true">
  <title
     id="title2984">Q22: Blue and yellow spherical buoy</title>
  <metadata
     id="metadata3492">
    <rdf:RDF>
      <cc:Work
         rdf:about="">
        <dc:format>image/svg+xml</dc:format>
        <dc:type
           rdf:resource="http://purl.org/dc/dcmitype/StillImage" />
        <cc:license
           rdf:resource="http://creativecommons.org/licenses/publicdomain/" />
        <dc:title>Q22: Blue and yellow spherical buoy</dc:title>
      </cc:Work>
      <cc:Work
         rdf:about="">
        <dc:format>image/svg+xml</dc:format>
        <dc:type
           rdf:resource="http://purl.org/dc/dcmitype/StillImage" />
      </cc:Work>
      <cc:License
         rdf:about="http://creativecommons.org/licenses/publicdomain/">
        <cc:permits
           rdf:resource="http://creativecommons.org/ns#Reproduction" />
        <cc:permits
           rdf:resource="http://creativecommons.org/ns#Distribution" />
        <cc:permits
           rdf:resource="http://creativecommons.org/ns#DerivativeWorks" />
      </cc:License>
    </rdf:RDF>
  </metadata>
  <sodipodi:namedview
     pagecolor="#ffffff"
     bordercolor="#666666"
     borderopacity="1"
     objecttolerance="10"
     gridtolerance="10"
     guidetolerance="10"
     inkscape:pageopacity="0"
     inkscape:pageshadow="2"
     inkscape:window-width="1440"
     inkscape:window-height="808"
     id="namedview3490"
     showgrid="false"
     inkscape:zoom="8.875238"
     inkscape:cx="19.325796"
     inkscape:cy="30.985085"
     inkscape:window-x="0"
     inkscape:window-y="0"
     inkscape:window-maximized="1"
     inkscape:current-layer="svg2" />
  <defs
     id="defs4" />
  <path
     style="fill:#0000ff;fill-opacity:1;stroke:none;stroke-width:1px;stroke-linecap:butt;stroke-linejoin:miter;stroke-opacity:1"
     d="M 30.09266,40.691659 L 42.00757,2.9611289 L 51.93665,6.2708189 L 61.2038,12.890219 L 67.16126,22.819299 L 68.48514,31.424519 L 68.48514,39.367789 L 63.85156,49.958809 L 43.33144,48.634939 L 42.00757,43.339419 L 36.71205,40.029729 L 30.09266,40.691659 z "
     id="path3756"
     inkscape:connector-curvature="0" />
  <path
     style="fill:#ffd400;fill-opacity:1;stroke:none;stroke-width:1px;stroke-linecap:butt;stroke-linejoin:miter;stroke-opacity:1"
     d="M 36.05011,40.029729 L 48.62696,5.6088789 L 35.38817,2.2991889 L 25.45909,6.2708189 L 16.85388,13.552159 L 10.89642,20.833489 L 9.57254,32.748389 L 10.89642,42.677479 L 14.86806,49.958809 L 21.48745,49.958809 L 24.13521,44.663299 L 31.41654,39.367789 L 36.05011,40.029729 z "
     id="path3752"
     inkscape:connector-curvature="0" />
  <path
     d="M 40.9375,0.063918868 C 40.13199,0.013018868 39.3103,-0.0055811316 38.5,0.0014188684 C 32.82787,0.050418868 27.09412,1.5250989 21.875,4.5951689 C 7.21353,13.219569 1.53256,31.407399 8.0625,46.657669 L 0,46.657669 L 0,52.313919 L 21.71875,52.313919 C 23.00607,57.846869 27.95202,61.970159 33.875,61.970169 C 39.79995,61.970169 44.74595,57.849649 46.03125,52.313919 L 78.3125,52.345119 L 78.3125,46.688869 L 69.71875,46.657669 C 73.95774,36.885799 73.29481,25.896349 67.75,16.470169 C 61.40201,7.7488289 55.55517,1.6915189 40.9375,0.063918868 L 40.9375,0.063918868 z M 39.25,6.9389189 C 48.19702,7.0614089 56.83881,11.736769 61.71875,20.032669 C 66.76387,28.609369 66.7912,38.096549 61.84375,46.657669 L 46.03125,46.626469 C 44.74595,41.090689 39.79995,36.970169 33.875,36.970169 C 27.95202,36.970179 23.00607,41.093469 21.71875,46.626419 L 15.875,46.626419 C 8.66503,34.026989 12.88981,18.007409 25.4375,10.626419 C 29.78297,8.0702589 34.56347,6.8747589 39.25,6.9389189 L 39.25,6.9389189 z M 33.875,41.970169 C 38.015,41.970169 41.375,45.330169 41.375,49.470169 C 41.375,53.610169 38.015,56.970169 33.875,56.970169 C 29.735,56.970169 26.375,53.610169 26.375,49.470169 C 26.375,45.330169 29.735,41.970169 33.875,41.970169 z "
     id="path4420"
     style="fill:#000407;fill-opacity:1;fill-rule:evenodd;stroke:none"
     inkscape:connector-curvature="0"
     sodipodi:nodetypes="cssccccsccccccssccsccsssssss" />
</svg>
