<?xml version="1.0" encoding="UTF-8" standalone="no"?>
<!-- Created with Inkscape (http://www.inkscape.org/) -->

<svg
   xmlns:dc="http://purl.org/dc/elements/1.1/"
   xmlns:cc="http://creativecommons.org/ns#"
   xmlns:rdf="http://www.w3.org/1999/02/22-rdf-syntax-ns#"
   xmlns:svg="http://www.w3.org/2000/svg"
   xmlns="http://www.w3.org/2000/svg"
   xmlns:sodipodi="http://sodipodi.sourceforge.net/DTD/sodipodi-0.dtd"
   xmlns:inkscape="http://www.inkscape.org/namespaces/inkscape"
   version="1.0"
   width="264.61508"
   height="141.29999"
   viewBox="0 0 264.61509 141.29999"
   id="svg8829"
   xml:space="preserve"
   sodipodi:version="0.32"
   inkscape:version="0.48.2 r9819"
   sodipodi:docname="M40.2.svg"
   inkscape:output_extension="org.inkscape.output.svg.inkscape"
   inkscape:export-filename="C:\Dokumente und Einstellungen\rolf\Eigene Dateien\Eigene Karten\Harbour.png"
   inkscape:export-xdpi="89.361702"
   inkscape:export-ydpi="89.361702"><title
   id="title2991">M40: Radio Reporting Point (Norwegian Coloration)</title><metadata
   id="metadata13"><rdf:RDF><cc:Work
       rdf:about=""><dc:format>image/svg+xml</dc:format><dc:type
         rdf:resource="http://purl.org/dc/dcmitype/StillImage" /><dc:title>M40: Radio Reporting Point (Norwegian Coloration)</dc:title><cc:license
         rdf:resource="http://creativecommons.org/licenses/publicdomain/" /></cc:Work><cc:License
       rdf:about="http://creativecommons.org/licenses/publicdomain/"><cc:permits
         rdf:resource="http://creativecommons.org/ns#Reproduction" /><cc:permits
         rdf:resource="http://creativecommons.org/ns#Distribution" /><cc:permits
         rdf:resource="http://creativecommons.org/ns#DerivativeWorks" /></cc:License></rdf:RDF></metadata><sodipodi:namedview
   inkscape:window-height="808"
   inkscape:window-width="1440"
   inkscape:pageshadow="2"
   inkscape:pageopacity="0.0"
   guidetolerance="10.0"
   gridtolerance="10.0"
   objecttolerance="10.0"
   borderopacity="1.0"
   bordercolor="#666666"
   pagecolor="#ffffff"
   id="base"
   showgrid="false"
   inkscape:zoom="3.473403"
   inkscape:cx="30.966012"
   inkscape:cy="70.599995"
   inkscape:window-x="0"
   inkscape:window-y="0"
   inkscape:current-layer="g2415"
   fit-margin-top="0.2"
   fit-margin-left="1.6"
   fit-margin-right="1.6"
   fit-margin-bottom="0.1"
   inkscape:window-maximized="1" />
<defs
   id="defs2404"><inkscape:perspective
   sodipodi:type="inkscape:persp3d"
   inkscape:vp_x="0 : 90 : 1"
   inkscape:vp_y="0 : 1000 : 0"
   inkscape:vp_z="180 : 90 : 1"
   inkscape:persp3d-origin="90 : 60 : 1"
   id="perspective15" />
	
	
		

	
	
</defs>

<g
   style="fill:#000000;fill-opacity:0"
   id="g2415"
   transform="translate(40.099998,-18.3)">
		
		<ellipse
   sodipodi:ry="4.4200001"
   sodipodi:rx="4.9099998"
   sodipodi:cy="50.189999"
   sodipodi:cx="92.010002"
   style="fill:none;stroke:#ffffff;stroke-width:5;stroke-opacity:1"
   id="ellipse2419"
   ry="4.4200001"
   rx="4.9099998"
   cy="50.189999"
   cx="92.010002"
   inkscape:transform-center-x="5.4339623"
   d="m 96.920002,50.189999 c 0,2.441098 -2.198282,4.42 -4.91,4.42 -2.711718,0 -4.91,-1.978902 -4.91,-4.42 0,-2.441099 2.198282,-4.42 4.91,-4.42 2.711718,0 4.91,1.978901 4.91,4.42 z" />
		
	<g
   id="g3782"><path
     d="m 160,89 c 0,37.54 -30.46,68 -68,68 -37.54,0 -68,-30.46 -68,-68 0,-37.54 30.46,-68 68,-68 37.54,0 68,30.46 68,68 z"
     id="path2421"
     style="fill:none;stroke:#d40000;stroke-width:5;stroke-opacity:1"
     inkscape:connector-curvature="0" /><path
     sodipodi:nodetypes="ccc"
     inkscape:connector-curvature="0"
     id="path2993"
     d="M 128.48888,31.539282 220.4151,92 128.27091,146.98057"
     style="fill:none;stroke:#d40000;stroke-width:5;stroke-linecap:butt;stroke-linejoin:miter;stroke-miterlimit:4;stroke-opacity:1;stroke-dasharray:none" /><path
     sodipodi:nodetypes="ccc"
     inkscape:connector-curvature="0"
     id="path2993-1"
     d="M 58.445509,29.820893 -36.000003,92 58.303579,148.14136"
     style="fill:none;stroke:#d40000;stroke-width:5;stroke-linecap:butt;stroke-linejoin:miter;stroke-miterlimit:4;stroke-opacity:1;stroke-dasharray:none" /></g></g><g
   style="fill:#000000;fill-opacity:0"
   id="g2409"
   transform="translate(40.099998,-18.3)">
		<path
   style="fill:#000000;fill-opacity:0"
   id="path2411"
   d="m 134.13,100.27 -3.83,21.63 -5.25,-4.86 c -2.619,2.91 -5.6,5.38 -9.18,7.63 -6.05,3.8 -12.67,5.95 -19.33,6.57 l -0.68,6.33 -7,0 -0.7,-6.33 C 77.38,130.2 67.1,125.21 59.56,116.82 l -5.83,5.08 -3.13,-21.93 15.31,11.3 -3.9,3.4 c 6.65,5.73 15.86,9.561 26.181,10.38 l 1.38,-57.98 -14.611,0 0,-4.39 14.58,0.16 0,-3.65 c -4.51,-0.99 -7.859,-4.64 -7.859,-9 0,-5.13 4.619,-9.28 10.319,-9.28 5.69,0 10.311,4.15 10.311,9.28 0,4.26 -3.199,7.86 -7.551,8.95 l 0,3.59 15.011,-0.05 0,4.39 -14.611,0 1.41,57.98 c 10.25,-0.819 19.39,-4.62 26.02,-10.3 l -3.77,-3.48 15.31,-11 z M 96.92,50.19 c 0,-2.44 -2.199,-4.42 -4.91,-4.42 -2.71,0 -4.909,1.98 -4.909,4.42 0,2.44 2.199,4.42 4.909,4.42 2.71,0 4.91,-1.98 4.91,-4.42 z"
   inkscape:connector-curvature="0" />
		<ellipse
   sodipodi:ry="4.4200001"
   sodipodi:rx="4.9099998"
   sodipodi:cy="50.189999"
   sodipodi:cx="92.010002"
   style="fill:#000000;fill-opacity:0"
   id="ellipse2413"
   ry="4.4200001"
   rx="4.9099998"
   cy="50.189999"
   cx="92.010002"
   d="m 96.920002,50.189999 c 0,2.441098 -2.198282,4.42 -4.91,4.42 -2.711718,0 -4.91,-1.978902 -4.91,-4.42 0,-2.441099 2.198282,-4.42 4.91,-4.42 2.711718,0 4.91,1.978901 4.91,4.42 z" />
	</g>
</svg>