<?xml version="1.0" encoding="UTF-8" standalone="no"?>
<svg
   xmlns:dc="http://purl.org/dc/elements/1.1/"
   xmlns:cc="http://creativecommons.org/ns#"
   xmlns:rdf="http://www.w3.org/1999/02/22-rdf-syntax-ns#"
   xmlns:svg="http://www.w3.org/2000/svg"
   xmlns="http://www.w3.org/2000/svg"
   xmlns:sodipodi="http://sodipodi.sourceforge.net/DTD/sodipodi-0.dtd"
   xmlns:inkscape="http://www.inkscape.org/namespaces/inkscape"
   version="1.0"
   width="85.875"
   height="115.96874"
   id="svg2"
   inkscape:version="0.48.2 r9819"
   sodipodi:docname="H_white_orange.svg"
   sodipodi:version="0.32"
   inkscape:output_extension="org.inkscape.output.svg.inkscape"
   sodipodi:modified="true">
  <title
     id="title2984">Q23: White and orange pillar buoy</title>
  <metadata
     id="metadata3263">
    <rdf:RDF>
      <cc:Work
         rdf:about="">
        <dc:format>image/svg+xml</dc:format>
        <dc:type
           rdf:resource="http://purl.org/dc/dcmitype/StillImage" />
        <cc:license
           rdf:resource="http://creativecommons.org/licenses/publicdomain/" />
        <dc:title>Q23: White and orange pillar buoy</dc:title>
      </cc:Work>
      <cc:Work
         rdf:about="">
        <dc:format>image/svg+xml</dc:format>
        <dc:type
           rdf:resource="http://purl.org/dc/dcmitype/StillImage" />
      </cc:Work>
      <cc:License
         rdf:about="http://creativecommons.org/licenses/publicdomain/">
        <cc:permits
           rdf:resource="http://creativecommons.org/ns#Reproduction" />
        <cc:permits
           rdf:resource="http://creativecommons.org/ns#Distribution" />
        <cc:permits
           rdf:resource="http://creativecommons.org/ns#DerivativeWorks" />
      </cc:License>
    </rdf:RDF>
  </metadata>
  <sodipodi:namedview
     pagecolor="#ffffff"
     bordercolor="#666666"
     borderopacity="1"
     objecttolerance="10"
     gridtolerance="10"
     guidetolerance="10"
     inkscape:pageopacity="0"
     inkscape:pageshadow="2"
     inkscape:window-width="1440"
     inkscape:window-height="808"
     id="namedview3261"
     showgrid="false"
     inkscape:zoom="4.7426573"
     inkscape:cx="5.8275026"
     inkscape:cy="57.984371"
     inkscape:window-x="0"
     inkscape:window-y="0"
     inkscape:window-maximized="1"
     inkscape:current-layer="svg2" />
  <defs
     id="defs4" />
  <path
     style="fill:#ffa500;fill-opacity:1;stroke:#000000;stroke-width:1px;stroke-linecap:butt;stroke-linejoin:miter;stroke-opacity:1"
     d="M 69.28874,4.787444 L 40.25672,69.603125 L 11.89986,103.02371 L 33.16751,103.02371 L 35.53058,96.947235 L 41.60705,93.233835 L 47.34594,93.909005 L 52.40966,98.972725 L 53.75999,103.36129 L 68.276,103.02371 L 66.25051,75.679595 L 81.44168,7.825679 L 69.28874,4.787444 z "
     id="path3750"
     inkscape:connector-curvature="0" />
  <path
     style="fill:#ffffff;stroke:none;stroke-width:1px;stroke-linecap:butt;stroke-linejoin:miter;stroke-opacity:1"
     d="M 48.52525,53.210295 L 69.83967,59.856725 L 81.52822,8.518781 L 69.61048,3.476661 L 48.52525,53.210295 z "
     id="path2983"
     inkscape:connector-curvature="0" />
  <path
     inkscape:connector-curvature="0"
     d="M 68.15625,1.4210855e-014 L 37.6875,68.062495 L 7.90625,100.65625 L 0.125,100.65625 L 0,106.3125 L 31.0625,106.3125 C 32.34982,111.84545 37.29577,115.96874 43.21875,115.96875 C 49.1437,115.96875 54.0897,111.84823 55.375,106.3125 L 79.5,106.3125 L 79.5,100.65625 L 71.71875,100.65625 L 69.25,78.312495 L 85.875,5.6875 L 68.15625,1.4210855e-014 z M 72.40625,8.5 L 77.375,10.28125 L 62.15625,78.312495 L 64.625,100.65625 L 55.375,100.65625 C 54.09249,95.116685 49.14642,90.968745 43.21875,90.968745 C 37.29299,90.968745 32.34697,95.119375 31.0625,100.65625 L 17.46875,100.65625 L 43.71875,72.281245 L 72.40625,8.5 z M 50.70625,103.48125 C 50.70625,107.62125 47.34625,110.98125 43.20625,110.98125 C 39.06625,110.98125 35.70625,107.62125 35.70625,103.48125 C 35.70625,99.341245 39.06625,95.981245 43.20625,95.981245 C 47.34625,95.981245 50.70625,99.341245 50.70625,103.48125 z "
     id="path27763"
     style="fill:#000407;fill-opacity:1;fill-rule:evenodd;stroke:none"
     sodipodi:nodetypes="ccccccsccccccccccccsccccsssss" />
</svg>
