<?xml version="1.0" encoding="UTF-8" standalone="no"?>
<!-- Created with Inkscape (http://www.inkscape.org/) -->

<svg
   xmlns:dc="http://purl.org/dc/elements/1.1/"
   xmlns:cc="http://creativecommons.org/ns#"
   xmlns:rdf="http://www.w3.org/1999/02/22-rdf-syntax-ns#"
   xmlns:svg="http://www.w3.org/2000/svg"
   xmlns="http://www.w3.org/2000/svg"
   xmlns:sodipodi="http://sodipodi.sourceforge.net/DTD/sodipodi-0.dtd"
   xmlns:inkscape="http://www.inkscape.org/namespaces/inkscape"
   version="1.0"
   width="120"
   height="120"
   id="svg2"
   inkscape:version="0.48.2 r9819"
   sodipodi:docname="U1.1.svg">
  <title
     id="title2982">U1.1: Marina</title>
  <metadata
     id="metadata3004">
    <rdf:RDF>
      <cc:Work
         rdf:about="">
        <dc:format>image/svg+xml</dc:format>
        <dc:type
           rdf:resource="http://purl.org/dc/dcmitype/StillImage" />
        <dc:title>U1.1: Marina</dc:title>
        <cc:license
           rdf:resource="http://creativecommons.org/licenses/publicdomain/" />
      </cc:Work>
      <cc:License
         rdf:about="http://creativecommons.org/licenses/publicdomain/">
        <cc:permits
           rdf:resource="http://creativecommons.org/ns#Reproduction" />
        <cc:permits
           rdf:resource="http://creativecommons.org/ns#Distribution" />
        <cc:permits
           rdf:resource="http://creativecommons.org/ns#DerivativeWorks" />
      </cc:License>
    </rdf:RDF>
  </metadata>
  <sodipodi:namedview
     pagecolor="#ffffff"
     bordercolor="#666666"
     borderopacity="1"
     objecttolerance="10"
     gridtolerance="10"
     guidetolerance="10"
     inkscape:pageopacity="0"
     inkscape:pageshadow="2"
     inkscape:window-width="719"
     inkscape:window-height="494"
     id="namedview3002"
     showgrid="false"
     inkscape:zoom="2.1916667"
     inkscape:cx="-100.60836"
     inkscape:cy="60"
     inkscape:window-x="0"
     inkscape:window-y="0"
     inkscape:window-maximized="0"
     inkscape:current-layer="svg2" />
  <defs
     id="defs4" />
  <path
     d="M 13.5063,92.03125 L 57.4563,92.03125 L 58.8688,12.28125 L 60.9938,12.28125 L 61.3437,28.60625 L 78.7187,20.43125 L 78.6187,27.53125 L 78.8688,34.61875 L 79.7187,41.65625 L 81.4188,48.53125 L 83.9312,55.18125 L 87.0438,61.56875 L 90.6187,67.73125 L 94.9063,73.35625 L 99.2813,77.84375 L 62.4063,84.93125 L 62.4063,92.03125 L 106.7062,92.03125 L 101.9062,97.30625 L 96.8562,102.29375 L 91.3937,106.73125 L 85.2937,110.36875 L 78.7063,113.14375 L 71.7562,115.06875 L 64.6438,116.11875 L 57.4812,116.29375 L 50.3938,115.60625 L 43.4687,114.03125 L 36.7437,111.55625 L 30.3688,108.24375 L 24.5312,104.13125 L 19.3687,99.24375 L 14.8812,93.79375 L 13.5063,92.03125 z M 24.4938,88.11875 L 24.0437,80.99375 L 23.9688,73.91875 L 24.6562,66.90625 L 26.3437,60.03125 L 28.8937,53.36875 L 32.1562,46.98125 L 36.0312,40.98125 L 40.5687,35.53125 L 45.8187,30.83125 L 51.6188,26.73125 L 55.3188,24.33125 L 51.4937,30.31875 L 48.1938,36.56875 L 45.7438,43.23125 L 44.1562,50.18125 L 43.3562,57.26875 L 43.3938,64.35625 L 44.3437,71.36875 L 45.7563,77.84375 L 24.4938,88.11875 M 11.3813,88.49375 L 8.2687,82.10625 L 5.6437,75.56875 L 3.9562,68.70625 L 3.2438,61.59375 L 3.5188,54.41875 L 4.7312,47.34375 L 6.8187,40.46875 L 9.7563,33.91875 L 13.4812,27.80625 L 17.9562,22.20625 L 23.0813,17.21875 L 28.8188,12.93125 L 35.0688,9.35625 L 41.7313,6.63125 L 48.7437,4.74375 L 55.9438,3.78125 L 63.2313,3.70625 L 70.4688,4.53125 L 77.5187,6.24375 L 84.2562,8.84375 L 90.5313,12.34375 L 96.2687,16.64375 L 101.4062,21.68125 L 105.8938,27.34375 L 109.7187,33.53125 L 112.7688,40.14375 L 114.9937,47.08125 L 116.3688,54.19375 L 116.7562,61.34375 L 116.1063,68.35625 L 114.3937,75.16875 L 111.8562,81.78125 L 108.9188,88.29375 L 108.8313,88.49375 L 103.1687,88.49375 L 106.3563,82.09375 L 109.1062,75.56875 L 110.9312,68.76875 L 111.6938,61.68125 L 111.3437,54.50625 L 110.0187,47.39375 L 107.7312,40.54375 L 104.5562,34.05625 L 100.5437,28.10625 L 95.7687,22.74375 L 90.2812,18.14375 L 84.1813,14.34375 L 77.5688,11.44375 L 70.6437,9.46875 L 63.4687,8.49375 L 56.2312,8.54375 L 49.0812,9.63125 L 42.1312,11.70625 L 35.5437,14.68125 L 29.4687,18.54375 L 24.0062,23.20625 L 19.2937,28.59375 L 15.3813,34.58125 L 12.2563,41.08125 L 9.9687,47.93125 L 8.6187,55.04375 L 8.2438,62.21875 L 8.9562,69.28125 L 10.8438,76.06875 L 13.6687,82.56875 L 16.6938,88.49375 L 11.3813,88.49375 z"
     id="path12043"
     style="fill:#a30075;fill-opacity:1;fill-rule:evenodd;stroke:none" />
</svg>
