<?xml version="1.0" encoding="UTF-8" standalone="no"?>
<!-- Created with Inkscape (http://www.inkscape.org/) -->

<svg
   xmlns:dc="http://purl.org/dc/elements/1.1/"
   xmlns:cc="http://creativecommons.org/ns#"
   xmlns:rdf="http://www.w3.org/1999/02/22-rdf-syntax-ns#"
   xmlns:svg="http://www.w3.org/2000/svg"
   xmlns="http://www.w3.org/2000/svg"
   xmlns:sodipodi="http://sodipodi.sourceforge.net/DTD/sodipodi-0.dtd"
   xmlns:inkscape="http://www.inkscape.org/namespaces/inkscape"
   version="1.0"
   width="120"
   height="120"
   id="svg2"
   inkscape:version="0.48.2 r9819"
   sodipodi:docname="U1.2.svg">
  <title
     id="title2982">U1.2: Yacht Berth</title>
  <metadata
     id="metadata3004">
    <rdf:RDF>
      <cc:Work
         rdf:about="">
        <dc:format>image/svg+xml</dc:format>
        <dc:type
           rdf:resource="http://purl.org/dc/dcmitype/StillImage" />
        <dc:title>U1.2: Yacht Berth</dc:title>
        <cc:license
           rdf:resource="http://creativecommons.org/licenses/publicdomain/" />
      </cc:Work>
      <cc:License
         rdf:about="http://creativecommons.org/licenses/publicdomain/">
        <cc:permits
           rdf:resource="http://creativecommons.org/ns#Reproduction" />
        <cc:permits
           rdf:resource="http://creativecommons.org/ns#Distribution" />
        <cc:permits
           rdf:resource="http://creativecommons.org/ns#DerivativeWorks" />
      </cc:License>
    </rdf:RDF>
  </metadata>
  <sodipodi:namedview
     pagecolor="#ffffff"
     bordercolor="#666666"
     borderopacity="1"
     objecttolerance="10"
     gridtolerance="10"
     guidetolerance="10"
     inkscape:pageopacity="0"
     inkscape:pageshadow="2"
     inkscape:window-width="1440"
     inkscape:window-height="808"
     id="namedview3002"
     showgrid="false"
     inkscape:zoom="5.5690019"
     inkscape:cx="-3.2070177"
     inkscape:cy="58.430556"
     inkscape:window-x="0"
     inkscape:window-y="0"
     inkscape:window-maximized="1"
     inkscape:current-layer="svg2"
     showguides="true"
     inkscape:guide-bbox="true" />
  <defs
     id="defs4" />
  <path
     d="m 13.5063,92.03125 43.95,0 1.4125,-79.75 2.125,0 0.3499,16.325 17.375,-8.175 -0.1,7.1 0.2501,7.0875 0.8499,7.0375 1.7001,6.875 2.5124,6.65 3.1126,6.3875 3.5749,6.1625 4.2876,5.625 4.375,4.4875 -36.875,7.0875 0,7.1 44.2999,0 -4.8,5.275 -5.05,4.9875 -5.4625,4.4375 -6.1,3.6375 -6.5874,2.775 -6.9501,1.925 -7.1124,1.05 -7.1626,0.175 -7.0874,-0.6875 -6.9251,-1.575 -6.725,-2.475 -6.3749,-3.3125 -5.8376,-4.1125 -5.1625,-4.8875 -4.4875,-5.45 z m 10.9875,-3.9125 -0.4501,-7.125 -0.0749,-7.075 0.6874,-7.0125 1.6875,-6.875 2.55,-6.6625 3.2625,-6.3875 3.875,-6 4.5375,-5.45 5.25,-4.7 5.8001,-4.1 3.7,-2.4 -3.8251,5.9875 -3.2999,6.25 -2.45,6.6625 -1.5876,6.95 -0.8,7.0875 0.0376,7.0875 0.9499,7.0125 1.4126,6.475 -21.2625,10.275"
     id="path12043"
     style="fill:#a30075;fill-opacity:1;fill-rule:evenodd;stroke:none"
     inkscape:connector-curvature="0"
     sodipodi:nodetypes="ccccccccccccccccccccccccccccccccccccccccccccccccccccccc" />
</svg>
