<?xml version="1.0" encoding="UTF-8" standalone="no"?>
<!-- Created with Inkscape (http://www.inkscape.org/) -->

<svg
   xmlns:dc="http://purl.org/dc/elements/1.1/"
   xmlns:cc="http://creativecommons.org/ns#"
   xmlns:rdf="http://www.w3.org/1999/02/22-rdf-syntax-ns#"
   xmlns:svg="http://www.w3.org/2000/svg"
   xmlns="http://www.w3.org/2000/svg"
   xmlns:sodipodi="http://sodipodi.sourceforge.net/DTD/sodipodi-0.dtd"
   xmlns:inkscape="http://www.inkscape.org/namespaces/inkscape"
   width="323.5"
   height="308.22409"
   id="svg2"
   version="1.0"
   inkscape:version="0.48.2 r9819"
   sodipodi:docname="U10.svg"
   sodipodi:version="0.32"
   inkscape:output_extension="org.inkscape.output.svg.inkscape"
   sodipodi:modified="true">
  <title
     id="title2983">U10: Public House, Inn</title>
  <defs
     id="defs4" />
  <sodipodi:namedview
     id="base"
     pagecolor="#ffffff"
     bordercolor="#666666"
     borderopacity="1.0"
     inkscape:pageopacity="0.0"
     inkscape:pageshadow="2"
     inkscape:zoom="0.46656941"
     inkscape:cx="-382.39571"
     inkscape:cy="526.18109"
     inkscape:document-units="px"
     inkscape:current-layer="layer1"
     showgrid="false"
     inkscape:window-width="1440"
     inkscape:window-height="808"
     inkscape:window-x="0"
     inkscape:window-y="0"
     inkscape:window-maximized="1" />
  <metadata
     id="metadata7">
    <rdf:RDF>
      <cc:Work
         rdf:about="">
        <dc:format>image/svg+xml</dc:format>
        <dc:type
           rdf:resource="http://purl.org/dc/dcmitype/StillImage" />
        <dc:title>U10: Public House, Inn</dc:title>
        <cc:license
           rdf:resource="http://creativecommons.org/licenses/publicdomain/" />
      </cc:Work>
      <cc:Work
         rdf:about="">
        <dc:format>image/svg+xml</dc:format>
        <dc:type
           rdf:resource="http://purl.org/dc/dcmitype/StillImage" />
      </cc:Work>
      <cc:License
         rdf:about="http://creativecommons.org/licenses/publicdomain/">
        <cc:permits
           rdf:resource="http://creativecommons.org/ns#Reproduction" />
        <cc:permits
           rdf:resource="http://creativecommons.org/ns#Distribution" />
        <cc:permits
           rdf:resource="http://creativecommons.org/ns#DerivativeWorks" />
      </cc:License>
    </rdf:RDF>
  </metadata>
  <g
     inkscape:label="Layer 1"
     inkscape:groupmode="layer"
     id="layer1"
     transform="translate(-208.96875,-354.80717)">
    <path
       style="fill:#a30075;fill-opacity:1;stroke:none"
       d="M 252.54198,354.85784 L 208.96875,600.0625 L 208.96875,602.90625 L 208.96875,608.625 L 208.96875,658.75 L 209.15625,658.75 L 209.15625,663.03125 L 416.6875,663.03125 L 416.6875,655.21875 L 416.53125,655.21875 L 416.53125,626.46875 L 532.46875,425.4375 C 532.10759,415.12632 529.97521,404.81514 525.3125,396.78125 C 519.76555,385.92063 509.15796,376.83123 499.5625,371.03125 C 486.25171,365.63634 471.1697,362.2657 456.59375,362.4375 C 440.70926,362.71796 430.64451,366.79391 416.53125,373.90625 C 407.12025,378.79167 400.23958,382.41192 392.09375,388.5625 L 386.42024,354.80717 L 252.54198,354.85784 z M 264.375,364.125 L 376.53125,364.125 L 403.5,600.0625 L 222.34375,600.0625 L 264.375,364.125 z M 455.1875,373.90625 C 468.31553,373.28218 482.20266,374.68236 493.8125,379.625 C 503.95134,383.2657 511.30683,388.67762 518.15625,399.65625 C 522.36669,405.71968 523.79377,416.08465 522.4375,425.4375 L 416.53125,607.96875 L 416.53125,600.21875 L 413.78125,600.21875 L 393.5,402.40625 C 401.61894,392.19107 408.72574,388.30169 419.375,383.90625 C 431.3125,377.78956 441.47877,374.2032 455.1875,373.90625 z M 217.5625,608.625 L 408.875,608.625 L 408.875,655.21875 L 217.5625,655.21875 L 217.5625,608.625 z "
       id="path2987"
       inkscape:connector-curvature="0"
       sodipodi:nodetypes="ccccccccccccccccccccccccccccccccccccccc" />
  </g>
</svg>
