<?xml version="1.0" encoding="UTF-8" standalone="no"?>
<svg
   xmlns:osb="http://www.openswatchbook.org/uri/2009/osb"
   xmlns:dc="http://purl.org/dc/elements/1.1/"
   xmlns:cc="http://creativecommons.org/ns#"
   xmlns:rdf="http://www.w3.org/1999/02/22-rdf-syntax-ns#"
   xmlns:svg="http://www.w3.org/2000/svg"
   xmlns="http://www.w3.org/2000/svg"
   xmlns:sodipodi="http://sodipodi.sourceforge.net/DTD/sodipodi-0.dtd"
   xmlns:inkscape="http://www.inkscape.org/namespaces/inkscape"
   version="1.1"
   width="60"
   height="60"
   id="svg3461"
   inkscape:version="0.48.2 r9819"
   sodipodi:docname="U12.svg">
  <title
     id="title2987">U12: Chandler (NOT OFFICIAL)</title>
  <sodipodi:namedview
     pagecolor="#ffffff"
     bordercolor="#666666"
     borderopacity="1"
     objecttolerance="10"
     gridtolerance="10"
     guidetolerance="10"
     inkscape:pageopacity="0"
     inkscape:pageshadow="2"
     inkscape:window-width="1440"
     inkscape:window-height="808"
     id="namedview3472"
     showgrid="false"
     inkscape:zoom="7.9967626"
     inkscape:cx="-34.580123"
     inkscape:cy="30"
     inkscape:window-x="0"
     inkscape:window-y="0"
     inkscape:window-maximized="1"
     inkscape:current-layer="svg3461"
     inkscape:showpageshadow="true"
     showborder="true" />
  <metadata
     id="metadata3476">
    <rdf:RDF>
      <cc:Work
         rdf:about="">
        <dc:format>image/svg+xml</dc:format>
        <dc:type
           rdf:resource="http://purl.org/dc/dcmitype/StillImage" />
        <dc:title>U12: Chandler (NOT OFFICIAL)</dc:title>
        <cc:license
           rdf:resource="http://creativecommons.org/licenses/publicdomain/" />
      </cc:Work>
      <cc:License
         rdf:about="http://creativecommons.org/licenses/publicdomain/">
        <cc:permits
           rdf:resource="http://creativecommons.org/ns#Reproduction" />
        <cc:permits
           rdf:resource="http://creativecommons.org/ns#Distribution" />
        <cc:permits
           rdf:resource="http://creativecommons.org/ns#DerivativeWorks" />
      </cc:License>
    </rdf:RDF>
  </metadata>
  <defs
     id="defs3474">
    <linearGradient
       id="linearGradient5197"
       osb:paint="solid">
      <stop
         style="stop-color:#a50075;stop-opacity:1;"
         offset="0"
         id="stop5199" />
    </linearGradient>
  </defs>
  <symbol
     id="chandler"
     width="60"
     height="60">
    <path
       d="m 25.970339,7.9290256 c -7.973695,0.268701 -14.2687,6.9949624 -14,14.9687504 l 0,17.375 -2.4062495,0 -2.5,0 0,2.53125 0,0.03125 0,2.46875 2.5,0 2.4062495,0 0,5.5 5,0 0,-5.5 18.96875,0 0,5.5 2.53125,0 2.5,0 0,-5.5 0.6875,0 c 0.241922,0.426125 0.544681,0.825929 0.90625,1.1875 1.053714,1.053722 2.732894,1.84375 4.718754,1.84375 1.985861,0 3.665031,-0.790028 4.718751,-1.84375 1.05371,-1.053721 1.625,-2.411348 1.625,-3.875 l 0,-0.15625 -0.0312,-0.15625 c -6e-5,-0.0011 -0.0312,0.0011 -0.0312,0 -0.0751,-1.343389 -0.58353,-2.583512 -1.5625,-3.5625 -1.05372,-1.053722 -2.73289,-1.84375 -4.718751,-1.84375 -1.98592,0 -3.66511,0.789952 -4.718754,1.84375 -0.45568,0.455749 -0.797801,0.981707 -1.0625,1.53125 l -0.53125,0 c 0,-6.15625 0,-12.3125 0,-18.46875 l -0.03125,0 C 40.600771,13.893056 33.900137,7.6618126 25.970439,7.9290256 z m 0.1875,5.0000004 c 5.254318,-0.177058 9.574165,3.879181 9.78125,9.125 0,6.072917 0,12.145833 0,18.21875 l -18.96875,0 0,-17.53125 c -0.177695,-5.273187 3.914382,-9.634803 9.1875,-9.8125 z m 21.125004,26.40625 c 0.49937,0 1.08134,0.206325 1.65625,0.78125 0.574921,0.574925 1.031251,1.478412 1.031251,2.5 0,1.021588 -0.45633,1.925075 -1.031251,2.5 -0.57491,0.574926 -1.15688,0.75 -1.65625,0.75 -0.49937,0 -1.05008,-0.175074 -1.625,-0.75 -0.57491,-0.574925 -1.03125,-1.478412 -1.03125,-2.5 0,-1.021883 0.45643,-1.925093 1.03125,-2.5 0.57482,-0.574907 1.12523,-0.78125 1.625,-0.78125 z"
       style="fill:#a30075;fill-opacity:1;stroke:none"
       id="path3468" />
  </symbol>
  <g
     id="use3470"
     style="fill:#a50075;fill-opacity:1;stroke:none">
    <path
       id="path5337"
       style="fill:#a30075;fill-opacity:1;stroke:none"
       d="m 25.970339,7.9290256 c -7.973695,0.268701 -14.2687,6.9949624 -14,14.9687504 l 0,17.375 -2.4062495,0 -2.5,0 0,2.53125 0,0.03125 0,2.46875 2.5,0 2.4062495,0 0,5.5 5,0 0,-5.5 18.96875,0 0,5.5 2.53125,0 2.5,0 0,-5.5 0.6875,0 c 0.241922,0.426125 0.544681,0.825929 0.90625,1.1875 1.053714,1.053722 2.732894,1.84375 4.718754,1.84375 1.985861,0 3.665031,-0.790028 4.718751,-1.84375 1.05371,-1.053721 1.625,-2.411348 1.625,-3.875 l 0,-0.15625 -0.0312,-0.15625 c -6e-5,-0.0011 -0.0312,0.0011 -0.0312,0 -0.0751,-1.343389 -0.58353,-2.583512 -1.5625,-3.5625 -1.05372,-1.053722 -2.73289,-1.84375 -4.718751,-1.84375 -1.98592,0 -3.66511,0.789952 -4.718754,1.84375 -0.45568,0.455749 -0.797801,0.981707 -1.0625,1.53125 l -0.53125,0 c 0,-6.15625 0,-12.3125 0,-18.46875 l -0.03125,0 C 40.600771,13.893056 33.900137,7.6618126 25.970439,7.9290256 z m 0.1875,5.0000004 c 5.254318,-0.177058 9.574165,3.879181 9.78125,9.125 0,6.072917 0,12.145833 0,18.21875 l -18.96875,0 0,-17.53125 c -0.177695,-5.273187 3.914382,-9.634803 9.1875,-9.8125 z m 21.125004,26.40625 c 0.49937,0 1.08134,0.206325 1.65625,0.78125 0.574921,0.574925 1.031251,1.478412 1.031251,2.5 0,1.021588 -0.45633,1.925075 -1.031251,2.5 -0.57491,0.574926 -1.15688,0.75 -1.65625,0.75 -0.49937,0 -1.05008,-0.175074 -1.625,-0.75 -0.57491,-0.574925 -1.03125,-1.478412 -1.03125,-2.5 0,-1.021883 0.45643,-1.925093 1.03125,-2.5 0.57482,-0.574907 1.12523,-0.78125 1.625,-0.78125 z"
       inkscape:connector-curvature="0" />
  </g>
</svg>
