<?xml version="1.0" encoding="UTF-8" standalone="no"?>
<!-- Created with Inkscape (http://www.inkscape.org/) -->

<svg
   xmlns:dc="http://purl.org/dc/elements/1.1/"
   xmlns:cc="http://creativecommons.org/ns#"
   xmlns:rdf="http://www.w3.org/1999/02/22-rdf-syntax-ns#"
   xmlns:svg="http://www.w3.org/2000/svg"
   xmlns="http://www.w3.org/2000/svg"
   xmlns:sodipodi="http://sodipodi.sourceforge.net/DTD/sodipodi-0.dtd"
   xmlns:inkscape="http://www.inkscape.org/namespaces/inkscape"
   version="1.0"
   width="580"
   height="580"
   id="svg2"
   sodipodi:version="0.32"
   inkscape:version="0.48.2 r9819"
   sodipodi:docname="U14b.svg"
   inkscape:output_extension="org.inkscape.output.svg.inkscape"
   sodipodi:modified="true">
  <title
     id="title2999">U14: Bank (NOT OFFICIAL)</title>
  <metadata
     id="metadata2975">
    <rdf:RDF>
      <cc:Work
         rdf:about="">
        <dc:format>image/svg+xml</dc:format>
        <dc:type
           rdf:resource="http://purl.org/dc/dcmitype/StillImage" />
        <cc:license
           rdf:resource="http://creativecommons.org/licenses/publicdomain/" />
        <dc:language />
        <dc:title>U14: Bank (NOT OFFICIAL)</dc:title>
      </cc:Work>
      <cc:Work
         rdf:about="">
        <dc:format>image/svg+xml</dc:format>
        <dc:type
           rdf:resource="http://purl.org/dc/dcmitype/StillImage" />
      </cc:Work>
      <cc:License
         rdf:about="http://creativecommons.org/licenses/publicdomain/">
        <cc:permits
           rdf:resource="http://creativecommons.org/ns#Reproduction" />
        <cc:permits
           rdf:resource="http://creativecommons.org/ns#Distribution" />
        <cc:permits
           rdf:resource="http://creativecommons.org/ns#DerivativeWorks" />
      </cc:License>
    </rdf:RDF>
  </metadata>
  <sodipodi:namedview
     inkscape:window-height="808"
     inkscape:window-width="1440"
     inkscape:pageshadow="2"
     inkscape:pageopacity="0.0"
     guidetolerance="10.0"
     gridtolerance="10.0"
     objecttolerance="10.0"
     borderopacity="1.0"
     bordercolor="#666666"
     pagecolor="#ffffff"
     id="base"
     inkscape:zoom="1.3221785"
     inkscape:cx="23.699205"
     inkscape:cy="289.56978"
     inkscape:window-x="0"
     inkscape:window-y="0"
     inkscape:current-layer="svg2"
     showgrid="false"
     inkscape:window-maximized="1" />
  <defs
     id="defs4">
    <inkscape:perspective
       sodipodi:type="inkscape:persp3d"
       inkscape:vp_x="0 : 290 : 1"
       inkscape:vp_y="0 : 1000 : 0"
       inkscape:vp_z="580 : 290 : 1"
       inkscape:persp3d-origin="290 : 193.33333 : 1"
       id="perspective2441" />
    <inkscape:perspective
       id="perspective3452"
       inkscape:persp3d-origin="30 : 20 : 1"
       inkscape:vp_z="60 : 30 : 1"
       inkscape:vp_y="0 : 1000 : 0"
       inkscape:vp_x="0 : 30 : 1"
       sodipodi:type="inkscape:persp3d" />
    <symbol
       viewBox="244.5 110 489 219.9"
       id="symbol-university">
      <path
         id="path4460"
         d="M79,43l57,119c0,0,21-96,104-96s124,106,124,106l43-133l82-17L0,17L79,43z" />
      <path
         id="path4462"
         d="M94,176l-21,39"
         stroke-width="20"
         stroke="#000000"
         fill="none" />
      <path
         id="path4464"
         d="M300,19c0,10.5-22.6,19-50.5,19S199,29.5,199,19s22.6-19,50.5-19S300,8.5,300,19z" />
      <path
         id="path4466"
         d="M112,216l-16-38L64,88c0,0-9-8-4-35s16-24,16-24"
         stroke-width="20"
         stroke="#000000"
         ill="none" />
    </symbol>
    <inkscape:perspective
       id="perspective4471"
       inkscape:persp3d-origin="372.04724 : 350.78739 : 1"
       inkscape:vp_z="744.09448 : 526.18109 : 1"
       inkscape:vp_y="0 : 1000 : 0"
       inkscape:vp_x="0 : 526.18109 : 1"
       sodipodi:type="inkscape:persp3d" />
    <inkscape:perspective
       id="perspective4668"
       inkscape:persp3d-origin="6 : 4 : 1"
       inkscape:vp_z="12 : 6 : 1"
       inkscape:vp_y="0 : 1000 : 0"
       inkscape:vp_x="0 : 6 : 1"
       sodipodi:type="inkscape:persp3d" />
    <inkscape:perspective
       id="perspective4904"
       inkscape:persp3d-origin="16 : 10.666667 : 1"
       inkscape:vp_z="32 : 16 : 1"
       inkscape:vp_y="0 : 1000 : 0"
       inkscape:vp_x="0 : 16 : 1"
       sodipodi:type="inkscape:persp3d" />
  </defs>
  <g
     id="layer3"
     inkscape:label="Layout"
     style="display:none;stroke:#757575;stroke-opacity:1"
     transform="matrix(48.14969,0,0,48.14969,-536.27327,-33.306752)">
    <rect
       style="fill:none;stroke:#757575;stroke-width:0.10000000000000001;stroke-miterlimit:4;stroke-dasharray:none;stroke-opacity:1;display:inline"
       id="rect4134"
       width="10"
       height="10"
       x="1"
       y="1" />
    <rect
       style="fill:none;stroke:#757575;stroke-width:0.10000000000000001;stroke-miterlimit:4;stroke-dasharray:none;stroke-opacity:1;display:inline"
       id="rect4136"
       width="8"
       height="8"
       x="2"
       y="2" />
  </g>
  <g
     id="g4372"
     transform="translate(-166.49217,52.019299)" />
  <path
     style="font-size:12px;opacity:0.20000000000000001;fill:#a30075;fill-opacity:1;fill-rule:evenodd;stroke:#a30075;stroke-width:1.24141978999999990;stroke-opacity:1"
     d="M 286.94406,44.001595 L 34.884618,235.90902 L 85.296174,235.90902 L 85.296174,543.77001 L 236.53218,543.77001 L 340.81297,543.77001 L 488.59196,543.77001 L 488.59196,235.90902 L 539.00386,235.90902 L 286.94406,44.001595 L 286.94406,44.001595 L 286.94406,44.001595 z"
     id="path645"
     sodipodi:nodetypes="cccccccccccc" />
  <path
     inkscape:connector-curvature="0"
     sodipodi:nodetypes="ccccsccccsccsccssscccccccsccccssscccssscc"
     style="font-size:323.14517211999998000px;font-style:normal;font-variant:normal;font-weight:normal;font-stretch:normal;text-align:start;line-height:125%;writing-mode:lr-tb;text-anchor:start;fill:#a30075;fill-opacity:1;stroke:#a30075;stroke-width:5;stroke-linecap:round;stroke-linejoin:round;stroke-miterlimit:4;stroke-opacity:1;stroke-dasharray:none;font-family:Arial Unicode MS;-inkscape-font-specification:Arial Unicode MS"
     d="m 295.20903,288.27688 c 0.33272,0.14111 1.58099,0.42298 3.74482,0.84562 34.11916,5.63763 65.75027,15.92598 82.89339,30.86508 17.14265,14.9394 25.7141,34.52954 25.71435,58.7705 -2.5e-4,24.80488 -9.40388,46.29767 -28.21089,64.47843 -18.80747,18.1808 -50.85467,28.04635 -84.14167,29.59665 l -13.99999,18.47566 -6.71296,0 0,-18.05285 c -33.95303,-3.24153 -60.00023,-12.57858 -78.14168,-28.01112 -18.14154,-15.4325 -28.37734,-37.03099 -30.70742,-64.79553 l 44.9377,-6.76495 c 3.49509,20.85867 10.56861,36.9254 21.22058,48.20027 10.65181,11.27494 24.88207,17.68755 42.69082,19.23782 l 0,-121.13488 c -33.78659,-6.20105 -59.08483,-16.55987 -75.89478,-31.07648 -16.81008,-14.51627 -25.21508,-33.19034 -25.21504,-56.02224 -4e-5,-22.69052 8.32175,-42.17497 24.96538,-58.4534 16.64353,-16.27785 42.02498,-25.68535 76.14444,-28.22253 l 0,-18.1808 20.71295,0 0,18.1808 c 28.29393,2.39624 56.59633,10.0068 72.90726,22.83171 16.31047,12.8255 26.54627,30.79488 30.70742,53.90819 l -46.68528,5.70792 c -2.66318,-14.37526 -8.23877,-25.75586 -16.7268,-34.14185 -8.48842,-8.38544 -25.88927,-13.77625 -40.2026,-16.17245 l 0,109.93043 z m -20.71295,-4.65091 0,-105.70233 c -18.14164,2.67807 -32.03901,8.84404 -41.69221,18.4979 -9.65336,9.65441 -14.48,20.82362 -14.47992,33.50765 -8e-5,14.51667 4.99299,25.96775 14.97923,34.35326 9.98606,8.38591 23.71702,14.83375 41.1929,19.34352 l 0,0 z m 20.71295,157.49649 c 17.4756,-2.25496 37.8723,-8.70279 49.19013,-19.34352 11.31743,-10.64065 16.97624,-24.06484 16.97646,-40.2726 -2.2e-4,-14.23448 -4.28594,-25.68556 -12.85716,-34.35326 -8.57166,-8.66747 -30.34145,-16.03138 -53.30943,-22.09178 l 0,116.06116 z"
     id="text2413" />
  <path
     style="fill:none;fill-rule:evenodd;stroke:#a30075;stroke-width:46.16495132000000000;stroke-linecap:round;stroke-linejoin:round;stroke-miterlimit:4;stroke-dasharray:none;stroke-opacity:1;fill-opacity:1"
     d="M 287.42618,131.3132 L 287.42618,493.62063"
     id="path4370"
     sodipodi:nodetypes="cc" />
  <path
     sodipodi:nodetypes="cccccccccccc"
     id="path3198"
     d="M 286.94406,34.001595 L 34.884618,225.90902 L 85.296174,225.90902 L 85.296174,543.77001 L 236.53218,543.77001 L 340.81297,543.77001 L 488.59196,543.77001 L 488.59196,225.90902 L 539.00386,225.90902 L 286.94406,34.001595 L 286.94406,34.001595 L 286.94406,34.001595 z"
     style="font-size:12px;opacity:1;fill:none;fill-opacity:1;fill-rule:evenodd;stroke:#a30075;stroke-width:20;stroke-linejoin:round;stroke-miterlimit:4;stroke-dasharray:none;stroke-opacity:1" />
</svg>
