<?xml version="1.0" encoding="UTF-8" standalone="no"?>
<!-- Created with Inkscape (http://www.inkscape.org/) -->

<svg
   xmlns:dc="http://purl.org/dc/elements/1.1/"
   xmlns:cc="http://creativecommons.org/ns#"
   xmlns:rdf="http://www.w3.org/1999/02/22-rdf-syntax-ns#"
   xmlns:svg="http://www.w3.org/2000/svg"
   xmlns="http://www.w3.org/2000/svg"
   xmlns:sodipodi="http://sodipodi.sourceforge.net/DTD/sodipodi-0.dtd"
   xmlns:inkscape="http://www.inkscape.org/namespaces/inkscape"
   version="1.0"
   width="120"
   height="120"
   id="svg2"
   inkscape:version="0.48.2 r9819"
   sodipodi:docname="U16.svg">
  <title
     id="title3306">U16: Chemist, Farmacy</title>
  <metadata
     id="metadata4377">
    <rdf:RDF>
      <cc:Work
         rdf:about="">
        <dc:format>image/svg+xml</dc:format>
        <dc:type
           rdf:resource="http://purl.org/dc/dcmitype/StillImage" />
        <cc:license
           rdf:resource="http://creativecommons.org/licenses/publicdomain/" />
        <dc:title>U16: Chemist, Farmacy</dc:title>
      </cc:Work>
      <cc:License
         rdf:about="http://creativecommons.org/licenses/publicdomain/">
        <cc:permits
           rdf:resource="http://creativecommons.org/ns#Reproduction" />
        <cc:permits
           rdf:resource="http://creativecommons.org/ns#Distribution" />
        <cc:permits
           rdf:resource="http://creativecommons.org/ns#DerivativeWorks" />
      </cc:License>
    </rdf:RDF>
  </metadata>
  <sodipodi:namedview
     pagecolor="#ffffff"
     bordercolor="#666666"
     borderopacity="1"
     objecttolerance="10"
     gridtolerance="10"
     guidetolerance="10"
     inkscape:pageopacity="0"
     inkscape:pageshadow="2"
     inkscape:window-width="1440"
     inkscape:window-height="808"
     id="namedview4375"
     showgrid="false"
     inkscape:zoom="4.5833333"
     inkscape:cx="21.6"
     inkscape:cy="60"
     inkscape:window-x="0"
     inkscape:window-y="0"
     inkscape:window-maximized="1"
     inkscape:current-layer="svg2" />
  <defs
     id="defs4">
    <clipPath
       id="clipPath5162">
      <path
         d="M 0.12,842.04 L 595.08,842.04 L 595.08,0.12 L 0.12,0.12 L 0.12,842.04 z"
         id="path5164" />
    </clipPath>
    <clipPath
       id="clipPath5156">
      <path
         d="M 12,830 L 583,830 L 583,12 L 12,12 L 12,830 z"
         id="path5158" />
    </clipPath>
    <clipPath
       id="clipPath5150">
      <path
         d="M 10.61,842 L 596.19,842 L 596.19,42.63 L 10.61,42.63 L 10.61,842 z"
         id="path5152" />
    </clipPath>
    <clipPath
       id="clipPath5132">
      <path
         d="M 186.894,628.321 L 186.894,622.651 L 163.364,622.961 L 163.364,622.679 L 163.364,628.349 L 186.894,628.321"
         id="path5134" />
    </clipPath>
    <clipPath
       id="clipPath5126">
      <path
         d="M 184.993,627.789 L 187.375,627.789 L 187.375,630.48 L 184.993,630.48 L 184.993,627.789 z"
         id="path5128" />
    </clipPath>
    <clipPath
       id="clipPath5106">
      <path
         d="M 186.894,628.321 L 186.894,622.651 L 163.364,622.961 L 163.364,622.679 L 163.364,628.349 L 186.894,628.321"
         id="path5108" />
    </clipPath>
    <clipPath
       id="clipPath5100">
      <path
         d="M 182.851,627.789 L 185.233,627.789 L 185.233,630.48 L 182.851,630.48 L 182.851,627.789 z"
         id="path5102" />
    </clipPath>
    <clipPath
       id="clipPath5080">
      <path
         d="M 186.894,628.321 L 186.894,622.651 L 163.364,622.961 L 163.364,622.679 L 163.364,628.349 L 186.894,628.321"
         id="path5082" />
    </clipPath>
    <clipPath
       id="clipPath5074">
      <path
         d="M 180.708,627.789 L 183.09,627.789 L 183.09,630.48 L 180.708,630.48 L 180.708,627.789 z"
         id="path5076" />
    </clipPath>
    <clipPath
       id="clipPath5054">
      <path
         d="M 186.894,628.321 L 186.894,622.651 L 163.364,622.961 L 163.364,622.679 L 163.364,628.349 L 186.894,628.321"
         id="path5056" />
    </clipPath>
    <clipPath
       id="clipPath5048">
      <path
         d="M 178.566,627.789 L 180.948,627.789 L 180.948,630.48 L 178.566,630.48 L 178.566,627.789 z"
         id="path5050" />
    </clipPath>
    <clipPath
       id="clipPath5028">
      <path
         d="M 186.894,628.321 L 186.894,622.651 L 163.364,622.961 L 163.364,622.679 L 163.364,628.349 L 186.894,628.321"
         id="path5030" />
    </clipPath>
    <clipPath
       id="clipPath5022">
      <path
         d="M 176.424,627.789 L 178.806,627.789 L 178.806,630.48 L 176.424,630.48 L 176.424,627.789 z"
         id="path5024" />
    </clipPath>
    <clipPath
       id="clipPath5002">
      <path
         d="M 186.894,628.321 L 186.894,622.651 L 163.364,622.961 L 163.364,622.679 L 163.364,628.349 L 186.894,628.321"
         id="path5004" />
    </clipPath>
    <clipPath
       id="clipPath4996">
      <path
         d="M 174.282,627.789 L 176.664,627.789 L 176.664,630.48 L 174.282,630.48 L 174.282,627.789 z"
         id="path4998" />
    </clipPath>
    <clipPath
       id="clipPath4976">
      <path
         d="M 186.894,628.321 L 186.894,622.651 L 163.364,622.961 L 163.364,622.679 L 163.364,628.349 L 186.894,628.321"
         id="path4978" />
    </clipPath>
    <clipPath
       id="clipPath4970">
      <path
         d="M 172.14,627.789 L 174.522,627.789 L 174.522,630.48 L 172.14,630.48 L 172.14,627.789 z"
         id="path4972" />
    </clipPath>
    <clipPath
       id="clipPath4950">
      <path
         d="M 186.894,628.321 L 186.894,622.651 L 163.364,622.961 L 163.364,622.679 L 163.364,628.349 L 186.894,628.321"
         id="path4952" />
    </clipPath>
    <clipPath
       id="clipPath4944">
      <path
         d="M 169.998,627.789 L 172.38,627.789 L 172.38,630.48 L 169.998,630.48 L 169.998,627.789 z"
         id="path4946" />
    </clipPath>
    <clipPath
       id="clipPath4924">
      <path
         d="M 186.894,628.321 L 186.894,622.651 L 163.364,622.961 L 163.364,622.679 L 163.364,628.349 L 186.894,628.321"
         id="path4926" />
    </clipPath>
    <clipPath
       id="clipPath4918">
      <path
         d="M 167.856,627.789 L 170.238,627.789 L 170.238,630.48 L 167.856,630.48 L 167.856,627.789 z"
         id="path4920" />
    </clipPath>
    <clipPath
       id="clipPath4898">
      <path
         d="M 186.894,628.321 L 186.894,622.651 L 163.364,622.961 L 163.364,622.679 L 163.364,628.349 L 186.894,628.321"
         id="path4900" />
    </clipPath>
    <clipPath
       id="clipPath4892">
      <path
         d="M 165.714,627.789 L 168.096,627.789 L 168.096,630.48 L 165.714,630.48 L 165.714,627.789 z"
         id="path4894" />
    </clipPath>
    <clipPath
       id="clipPath4872">
      <path
         d="M 186.894,628.321 L 186.894,622.651 L 163.364,622.961 L 163.364,622.679 L 163.364,628.349 L 186.894,628.321"
         id="path4874" />
    </clipPath>
    <clipPath
       id="clipPath4866">
      <path
         d="M 163.572,627.789 L 165.954,627.789 L 165.954,630.48 L 163.572,630.48 L 163.572,627.789 z"
         id="path4868" />
    </clipPath>
    <clipPath
       id="clipPath4852">
      <path
         d="M 186.894,628.321 L 186.894,622.651 L 163.364,622.961 L 163.364,622.679 L 163.364,628.349 L 186.894,628.321"
         id="path4854" />
    </clipPath>
    <clipPath
       id="clipPath4846">
      <path
         d="M 161.43,627.789 L 163.812,627.789 L 163.812,630.48 L 161.43,630.48 L 161.43,627.789 z"
         id="path4848" />
    </clipPath>
    <clipPath
       id="clipPath4816">
      <path
         d="M 186.894,628.321 L 186.894,622.651 L 163.364,622.961 L 163.364,622.679 L 163.364,628.349 L 186.894,628.321"
         id="path4818" />
    </clipPath>
    <clipPath
       id="clipPath4810">
      <path
         d="M 184.993,625.338 L 187.375,625.338 L 187.375,628.029 L 184.993,628.029 L 184.993,625.338 z"
         id="path4812" />
    </clipPath>
    <clipPath
       id="clipPath4774">
      <path
         d="M 186.894,628.321 L 186.894,622.651 L 163.364,622.961 L 163.364,622.679 L 163.364,628.349 L 186.894,628.321"
         id="path4776" />
    </clipPath>
    <clipPath
       id="clipPath4768">
      <path
         d="M 182.851,625.338 L 185.233,625.338 L 185.233,628.029 L 182.851,628.029 L 182.851,625.338 z"
         id="path4770" />
    </clipPath>
    <clipPath
       id="clipPath4732">
      <path
         d="M 186.894,628.321 L 186.894,622.651 L 163.364,622.961 L 163.364,622.679 L 163.364,628.349 L 186.894,628.321"
         id="path4734" />
    </clipPath>
    <clipPath
       id="clipPath4726">
      <path
         d="M 180.708,625.338 L 183.09,625.338 L 183.09,628.029 L 180.708,628.029 L 180.708,625.338 z"
         id="path4728" />
    </clipPath>
    <clipPath
       id="clipPath4690">
      <path
         d="M 186.894,628.321 L 186.894,622.651 L 163.364,622.961 L 163.364,622.679 L 163.364,628.349 L 186.894,628.321"
         id="path4692" />
    </clipPath>
    <clipPath
       id="clipPath4684">
      <path
         d="M 178.566,625.338 L 180.948,625.338 L 180.948,628.029 L 178.566,628.029 L 178.566,625.338 z"
         id="path4686" />
    </clipPath>
    <clipPath
       id="clipPath4648">
      <path
         d="M 186.894,628.321 L 186.894,622.651 L 163.364,622.961 L 163.364,622.679 L 163.364,628.349 L 186.894,628.321"
         id="path4650" />
    </clipPath>
    <clipPath
       id="clipPath4642">
      <path
         d="M 176.424,625.338 L 178.806,625.338 L 178.806,628.029 L 176.424,628.029 L 176.424,625.338 z"
         id="path4644" />
    </clipPath>
    <clipPath
       id="clipPath4606">
      <path
         d="M 186.894,628.321 L 186.894,622.651 L 163.364,622.961 L 163.364,622.679 L 163.364,628.349 L 186.894,628.321"
         id="path4608" />
    </clipPath>
    <clipPath
       id="clipPath4600">
      <path
         d="M 174.282,625.338 L 176.664,625.338 L 176.664,628.029 L 174.282,628.029 L 174.282,625.338 z"
         id="path4602" />
    </clipPath>
    <clipPath
       id="clipPath4564">
      <path
         d="M 186.894,628.321 L 186.894,622.651 L 163.364,622.961 L 163.364,622.679 L 163.364,628.349 L 186.894,628.321"
         id="path4566" />
    </clipPath>
    <clipPath
       id="clipPath4558">
      <path
         d="M 172.14,625.338 L 174.522,625.338 L 174.522,628.029 L 172.14,628.029 L 172.14,625.338 z"
         id="path4560" />
    </clipPath>
    <clipPath
       id="clipPath4522">
      <path
         d="M 186.894,628.321 L 186.894,622.651 L 163.364,622.961 L 163.364,622.679 L 163.364,628.349 L 186.894,628.321"
         id="path4524" />
    </clipPath>
    <clipPath
       id="clipPath4516">
      <path
         d="M 169.998,625.338 L 172.38,625.338 L 172.38,628.029 L 169.998,628.029 L 169.998,625.338 z"
         id="path4518" />
    </clipPath>
    <clipPath
       id="clipPath4480">
      <path
         d="M 186.894,628.321 L 186.894,622.651 L 163.364,622.961 L 163.364,622.679 L 163.364,628.349 L 186.894,628.321"
         id="path4482" />
    </clipPath>
    <clipPath
       id="clipPath4474">
      <path
         d="M 167.856,625.338 L 170.238,625.338 L 170.238,628.029 L 167.856,628.029 L 167.856,625.338 z"
         id="path4476" />
    </clipPath>
    <clipPath
       id="clipPath4438">
      <path
         d="M 186.894,628.321 L 186.894,622.651 L 163.364,622.961 L 163.364,622.679 L 163.364,628.349 L 186.894,628.321"
         id="path4440" />
    </clipPath>
    <clipPath
       id="clipPath4432">
      <path
         d="M 165.714,625.338 L 168.096,625.338 L 168.096,628.029 L 165.714,628.029 L 165.714,625.338 z"
         id="path4434" />
    </clipPath>
    <clipPath
       id="clipPath4400">
      <path
         d="M 186.894,628.321 L 186.894,622.651 L 163.364,622.961 L 163.364,622.679 L 163.364,628.349 L 186.894,628.321"
         id="path4402" />
    </clipPath>
    <clipPath
       id="clipPath4394">
      <path
         d="M 163.572,625.338 L 165.954,625.338 L 165.954,628.029 L 163.572,628.029 L 163.572,625.338 z"
         id="path4396" />
    </clipPath>
    <clipPath
       id="clipPath4372">
      <path
         d="M 186.894,628.321 L 186.894,622.651 L 163.364,622.961 L 163.364,622.679 L 163.364,628.349 L 186.894,628.321"
         id="path4374" />
    </clipPath>
    <clipPath
       id="clipPath4366">
      <path
         d="M 161.43,625.338 L 163.812,625.338 L 163.812,628.029 L 161.43,628.029 L 161.43,625.338 z"
         id="path4368" />
    </clipPath>
    <clipPath
       id="clipPath4336">
      <path
         d="M 186.894,628.321 L 186.894,622.651 L 163.364,622.961 L 163.364,622.679 L 163.364,628.349 L 186.894,628.321"
         id="path4338" />
    </clipPath>
    <clipPath
       id="clipPath4330">
      <path
         d="M 184.993,622.888 L 187.375,622.888 L 187.375,625.579 L 184.993,625.579 L 184.993,622.888 z"
         id="path4332" />
    </clipPath>
    <clipPath
       id="clipPath4294">
      <path
         d="M 186.894,628.321 L 186.894,622.651 L 163.364,622.961 L 163.364,622.679 L 163.364,628.349 L 186.894,628.321"
         id="path4296" />
    </clipPath>
    <clipPath
       id="clipPath4288">
      <path
         d="M 182.851,622.888 L 185.233,622.888 L 185.233,625.579 L 182.851,625.579 L 182.851,622.888 z"
         id="path4290" />
    </clipPath>
    <clipPath
       id="clipPath4252">
      <path
         d="M 186.894,628.321 L 186.894,622.651 L 163.364,622.961 L 163.364,622.679 L 163.364,628.349 L 186.894,628.321"
         id="path4254" />
    </clipPath>
    <clipPath
       id="clipPath4246">
      <path
         d="M 180.708,622.888 L 183.09,622.888 L 183.09,625.579 L 180.708,625.579 L 180.708,622.888 z"
         id="path4248" />
    </clipPath>
    <clipPath
       id="clipPath4210">
      <path
         d="M 186.894,628.321 L 186.894,622.651 L 163.364,622.961 L 163.364,622.679 L 163.364,628.349 L 186.894,628.321"
         id="path4212" />
    </clipPath>
    <clipPath
       id="clipPath4204">
      <path
         d="M 178.566,622.888 L 180.948,622.888 L 180.948,625.579 L 178.566,625.579 L 178.566,622.888 z"
         id="path4206" />
    </clipPath>
    <clipPath
       id="clipPath4168">
      <path
         d="M 186.894,628.321 L 186.894,622.651 L 163.364,622.961 L 163.364,622.679 L 163.364,628.349 L 186.894,628.321"
         id="path4170" />
    </clipPath>
    <clipPath
       id="clipPath4162">
      <path
         d="M 176.424,622.888 L 178.806,622.888 L 178.806,625.579 L 176.424,625.579 L 176.424,622.888 z"
         id="path4164" />
    </clipPath>
    <clipPath
       id="clipPath4126">
      <path
         d="M 186.894,628.321 L 186.894,622.651 L 163.364,622.961 L 163.364,622.679 L 163.364,628.349 L 186.894,628.321"
         id="path4128" />
    </clipPath>
    <clipPath
       id="clipPath4120">
      <path
         d="M 174.282,622.888 L 176.664,622.888 L 176.664,625.579 L 174.282,625.579 L 174.282,622.888 z"
         id="path4122" />
    </clipPath>
    <clipPath
       id="clipPath4084">
      <path
         d="M 186.894,628.321 L 186.894,622.651 L 163.364,622.961 L 163.364,622.679 L 163.364,628.349 L 186.894,628.321"
         id="path4086" />
    </clipPath>
    <clipPath
       id="clipPath4078">
      <path
         d="M 172.14,622.888 L 174.522,622.888 L 174.522,625.579 L 172.14,625.579 L 172.14,622.888 z"
         id="path4080" />
    </clipPath>
    <clipPath
       id="clipPath4042">
      <path
         d="M 186.894,628.321 L 186.894,622.651 L 163.364,622.961 L 163.364,622.679 L 163.364,628.349 L 186.894,628.321"
         id="path4044" />
    </clipPath>
    <clipPath
       id="clipPath4036">
      <path
         d="M 169.998,622.888 L 172.38,622.888 L 172.38,625.579 L 169.998,625.579 L 169.998,622.888 z"
         id="path4038" />
    </clipPath>
    <clipPath
       id="clipPath4000">
      <path
         d="M 186.894,628.321 L 186.894,622.651 L 163.364,622.961 L 163.364,622.679 L 163.364,628.349 L 186.894,628.321"
         id="path4002" />
    </clipPath>
    <clipPath
       id="clipPath3994">
      <path
         d="M 167.856,622.888 L 170.238,622.888 L 170.238,625.579 L 167.856,625.579 L 167.856,622.888 z"
         id="path3996" />
    </clipPath>
    <clipPath
       id="clipPath3958">
      <path
         d="M 186.894,628.321 L 186.894,622.651 L 163.364,622.961 L 163.364,622.679 L 163.364,628.349 L 186.894,628.321"
         id="path3960" />
    </clipPath>
    <clipPath
       id="clipPath3952">
      <path
         d="M 165.714,622.888 L 168.096,622.888 L 168.096,625.579 L 165.714,625.579 L 165.714,622.888 z"
         id="path3954" />
    </clipPath>
    <clipPath
       id="clipPath3922">
      <path
         d="M 186.894,628.321 L 186.894,622.651 L 163.364,622.961 L 163.364,622.679 L 163.364,628.349 L 186.894,628.321"
         id="path3924" />
    </clipPath>
    <clipPath
       id="clipPath3916">
      <path
         d="M 163.572,622.888 L 165.954,622.888 L 165.954,625.579 L 163.572,625.579 L 163.572,622.888 z"
         id="path3918" />
    </clipPath>
    <clipPath
       id="clipPath3894">
      <path
         d="M 186.894,628.321 L 186.894,622.651 L 163.364,622.961 L 163.364,622.679 L 163.364,628.349 L 186.894,628.321"
         id="path3896" />
    </clipPath>
    <clipPath
       id="clipPath3888">
      <path
         d="M 161.43,622.888 L 163.812,622.888 L 163.812,625.579 L 161.43,625.579 L 161.43,622.888 z"
         id="path3890" />
    </clipPath>
    <clipPath
       id="clipPath3870">
      <path
         d="M 186.894,628.321 L 186.894,622.651 L 163.364,622.961 L 163.364,622.679 L 163.364,628.349 L 186.894,628.321"
         id="path3872" />
    </clipPath>
    <clipPath
       id="clipPath3864">
      <path
         d="M 184.993,620.437 L 187.375,620.437 L 187.375,623.128 L 184.993,623.128 L 184.993,620.437 z"
         id="path3866" />
    </clipPath>
    <clipPath
       id="clipPath3842">
      <path
         d="M 186.894,628.321 L 186.894,622.651 L 163.364,622.961 L 163.364,622.679 L 163.364,628.349 L 186.894,628.321"
         id="path3844" />
    </clipPath>
    <clipPath
       id="clipPath3836">
      <path
         d="M 182.851,620.437 L 185.233,620.437 L 185.233,623.128 L 182.851,623.128 L 182.851,620.437 z"
         id="path3838" />
    </clipPath>
    <clipPath
       id="clipPath3818">
      <path
         d="M 186.894,628.321 L 186.894,622.651 L 163.364,622.961 L 163.364,622.679 L 163.364,628.349 L 186.894,628.321"
         id="path3820" />
    </clipPath>
    <clipPath
       id="clipPath3812">
      <path
         d="M 180.708,620.437 L 183.09,620.437 L 183.09,623.128 L 180.708,623.128 L 180.708,620.437 z"
         id="path3814" />
    </clipPath>
    <clipPath
       id="clipPath3794">
      <path
         d="M 186.894,628.321 L 186.894,622.651 L 163.364,622.961 L 163.364,622.679 L 163.364,628.349 L 186.894,628.321"
         id="path3796" />
    </clipPath>
    <clipPath
       id="clipPath3788">
      <path
         d="M 178.566,620.437 L 180.948,620.437 L 180.948,623.128 L 178.566,623.128 L 178.566,620.437 z"
         id="path3790" />
    </clipPath>
    <clipPath
       id="clipPath3770">
      <path
         d="M 186.894,628.321 L 186.894,622.651 L 163.364,622.961 L 163.364,622.679 L 163.364,628.349 L 186.894,628.321"
         id="path3772" />
    </clipPath>
    <clipPath
       id="clipPath3764">
      <path
         d="M 176.424,620.437 L 178.806,620.437 L 178.806,623.128 L 176.424,623.128 L 176.424,620.437 z"
         id="path3766" />
    </clipPath>
    <clipPath
       id="clipPath3746">
      <path
         d="M 186.894,628.321 L 186.894,622.651 L 163.364,622.961 L 163.364,622.679 L 163.364,628.349 L 186.894,628.321"
         id="path3748" />
    </clipPath>
    <clipPath
       id="clipPath3740">
      <path
         d="M 174.282,620.437 L 176.664,620.437 L 176.664,623.128 L 174.282,623.128 L 174.282,620.437 z"
         id="path3742" />
    </clipPath>
    <clipPath
       id="clipPath3722">
      <path
         d="M 186.894,628.321 L 186.894,622.651 L 163.364,622.961 L 163.364,622.679 L 163.364,628.349 L 186.894,628.321"
         id="path3724" />
    </clipPath>
    <clipPath
       id="clipPath3716">
      <path
         d="M 172.14,620.437 L 174.522,620.437 L 174.522,623.128 L 172.14,623.128 L 172.14,620.437 z"
         id="path3718" />
    </clipPath>
    <clipPath
       id="clipPath3698">
      <path
         d="M 186.894,628.321 L 186.894,622.651 L 163.364,622.961 L 163.364,622.679 L 163.364,628.349 L 186.894,628.321"
         id="path3700" />
    </clipPath>
    <clipPath
       id="clipPath3692">
      <path
         d="M 169.998,620.437 L 172.38,620.437 L 172.38,623.128 L 169.998,623.128 L 169.998,620.437 z"
         id="path3694" />
    </clipPath>
    <clipPath
       id="clipPath3674">
      <path
         d="M 186.894,628.321 L 186.894,622.651 L 163.364,622.961 L 163.364,622.679 L 163.364,628.349 L 186.894,628.321"
         id="path3676" />
    </clipPath>
    <clipPath
       id="clipPath3668">
      <path
         d="M 167.856,620.437 L 170.238,620.437 L 170.238,623.128 L 167.856,623.128 L 167.856,620.437 z"
         id="path3670" />
    </clipPath>
    <clipPath
       id="clipPath3650">
      <path
         d="M 186.894,628.321 L 186.894,622.651 L 163.364,622.961 L 163.364,622.679 L 163.364,628.349 L 186.894,628.321"
         id="path3652" />
    </clipPath>
    <clipPath
       id="clipPath3644">
      <path
         d="M 165.714,620.437 L 168.096,620.437 L 168.096,623.128 L 165.714,623.128 L 165.714,620.437 z"
         id="path3646" />
    </clipPath>
    <clipPath
       id="clipPath3628">
      <path
         d="M 186.894,628.321 L 186.894,622.651 L 163.364,622.961 L 163.364,622.679 L 163.364,628.349 L 186.894,628.321"
         id="path3630" />
    </clipPath>
    <clipPath
       id="clipPath3622">
      <path
         d="M 163.572,620.437 L 165.954,620.437 L 165.954,623.128 L 163.572,623.128 L 163.572,620.437 z"
         id="path3624" />
    </clipPath>
    <clipPath
       id="clipPath3606">
      <path
         d="M 186.894,628.321 L 186.894,622.651 L 163.364,622.961 L 163.364,622.679 L 163.364,628.349 L 186.894,628.321"
         id="path3608" />
    </clipPath>
    <clipPath
       id="clipPath3600">
      <path
         d="M 161.43,620.437 L 163.812,620.437 L 163.812,623.128 L 161.43,623.128 L 161.43,620.437 z"
         id="path3602" />
    </clipPath>
    <clipPath
       id="clipPath3586">
      <path
         d="M 191.997,618.937 L 192.281,628.292 L 197.951,628.292 L 197.667,623.755 L 205.889,623.473 L 206.171,623.755 L 205.889,618.653 L 192.281,618.937"
         id="path3588" />
    </clipPath>
    <clipPath
       id="clipPath3580">
      <path
         d="M 197.845,627.789 L 200.227,627.789 L 200.227,630.48 L 197.845,630.48 L 197.845,627.789 z"
         id="path3582" />
    </clipPath>
    <clipPath
       id="clipPath3560">
      <path
         d="M 191.997,618.937 L 192.281,628.292 L 197.951,628.292 L 197.667,623.755 L 205.889,623.473 L 206.171,623.755 L 205.889,618.653 L 192.281,618.937"
         id="path3562" />
    </clipPath>
    <clipPath
       id="clipPath3554">
      <path
         d="M 195.703,627.789 L 198.085,627.789 L 198.085,630.48 L 195.703,630.48 L 195.703,627.789 z"
         id="path3556" />
    </clipPath>
    <clipPath
       id="clipPath3534">
      <path
         d="M 191.997,618.937 L 192.281,628.292 L 197.951,628.292 L 197.667,623.755 L 205.889,623.473 L 206.171,623.755 L 205.889,618.653 L 192.281,618.937"
         id="path3536" />
    </clipPath>
    <clipPath
       id="clipPath3528">
      <path
         d="M 193.561,627.789 L 195.943,627.789 L 195.943,630.48 L 193.561,630.48 L 193.561,627.789 z"
         id="path3530" />
    </clipPath>
    <clipPath
       id="clipPath3508">
      <path
         d="M 191.997,618.937 L 192.281,628.292 L 197.951,628.292 L 197.667,623.755 L 205.889,623.473 L 206.171,623.755 L 205.889,618.653 L 192.281,618.937"
         id="path3510" />
    </clipPath>
    <clipPath
       id="clipPath3502">
      <path
         d="M 191.419,627.789 L 193.801,627.789 L 193.801,630.48 L 191.419,630.48 L 191.419,627.789 z"
         id="path3504" />
    </clipPath>
    <clipPath
       id="clipPath3484">
      <path
         d="M 191.997,618.937 L 192.281,628.292 L 197.951,628.292 L 197.667,623.755 L 205.889,623.473 L 206.171,623.755 L 205.889,618.653 L 192.281,618.937"
         id="path3486" />
    </clipPath>
    <clipPath
       id="clipPath3478">
      <path
         d="M 197.845,625.338 L 200.227,625.338 L 200.227,628.029 L 197.845,628.029 L 197.845,625.338 z"
         id="path3480" />
    </clipPath>
    <clipPath
       id="clipPath3442">
      <path
         d="M 191.997,618.937 L 192.281,628.292 L 197.951,628.292 L 197.667,623.755 L 205.889,623.473 L 206.171,623.755 L 205.889,618.653 L 192.281,618.937"
         id="path3444" />
    </clipPath>
    <clipPath
       id="clipPath3436">
      <path
         d="M 195.703,625.338 L 198.085,625.338 L 198.085,628.029 L 195.703,628.029 L 195.703,625.338 z"
         id="path3438" />
    </clipPath>
    <clipPath
       id="clipPath3404">
      <path
         d="M 191.997,618.937 L 192.281,628.292 L 197.951,628.292 L 197.667,623.755 L 205.889,623.473 L 206.171,623.755 L 205.889,618.653 L 192.281,618.937"
         id="path3406" />
    </clipPath>
    <clipPath
       id="clipPath3398">
      <path
         d="M 193.561,625.338 L 195.943,625.338 L 195.943,628.029 L 193.561,628.029 L 193.561,625.338 z"
         id="path3400" />
    </clipPath>
    <clipPath
       id="clipPath3366">
      <path
         d="M 191.997,618.937 L 192.281,628.292 L 197.951,628.292 L 197.667,623.755 L 205.889,623.473 L 206.171,623.755 L 205.889,618.653 L 192.281,618.937"
         id="path3368" />
    </clipPath>
    <clipPath
       id="clipPath3360">
      <path
         d="M 191.419,625.338 L 193.801,625.338 L 193.801,628.029 L 191.419,628.029 L 191.419,625.338 z"
         id="path3362" />
    </clipPath>
    <clipPath
       id="clipPath3338">
      <path
         d="M 191.997,618.937 L 192.281,628.292 L 197.951,628.292 L 197.667,623.755 L 205.889,623.473 L 206.171,623.755 L 205.889,618.653 L 192.281,618.937"
         id="path3340" />
    </clipPath>
    <clipPath
       id="clipPath3332">
      <path
         d="M 204.272,622.888 L 206.654,622.888 L 206.654,625.579 L 204.272,625.579 L 204.272,622.888 z"
         id="path3334" />
    </clipPath>
    <clipPath
       id="clipPath3310">
      <path
         d="M 191.997,618.937 L 192.281,628.292 L 197.951,628.292 L 197.667,623.755 L 205.889,623.473 L 206.171,623.755 L 205.889,618.653 L 192.281,618.937"
         id="path3312" />
    </clipPath>
    <clipPath
       id="clipPath3304">
      <path
         d="M 202.129,622.888 L 204.511,622.888 L 204.511,625.579 L 202.129,625.579 L 202.129,622.888 z"
         id="path3306" />
    </clipPath>
    <clipPath
       id="clipPath3278">
      <path
         d="M 191.997,618.937 L 192.281,628.292 L 197.951,628.292 L 197.667,623.755 L 205.889,623.473 L 206.171,623.755 L 205.889,618.653 L 192.281,618.937"
         id="path3280" />
    </clipPath>
    <clipPath
       id="clipPath3272">
      <path
         d="M 199.987,622.888 L 202.369,622.888 L 202.369,625.579 L 199.987,625.579 L 199.987,622.888 z"
         id="path3274" />
    </clipPath>
    <clipPath
       id="clipPath3236">
      <path
         d="M 191.997,618.937 L 192.281,628.292 L 197.951,628.292 L 197.667,623.755 L 205.889,623.473 L 206.171,623.755 L 205.889,618.653 L 192.281,618.937"
         id="path3238" />
    </clipPath>
    <clipPath
       id="clipPath3230">
      <path
         d="M 197.845,622.888 L 200.227,622.888 L 200.227,625.579 L 197.845,625.579 L 197.845,622.888 z"
         id="path3232" />
    </clipPath>
    <clipPath
       id="clipPath3194">
      <path
         d="M 191.997,618.937 L 192.281,628.292 L 197.951,628.292 L 197.667,623.755 L 205.889,623.473 L 206.171,623.755 L 205.889,618.653 L 192.281,618.937"
         id="path3196" />
    </clipPath>
    <clipPath
       id="clipPath3188">
      <path
         d="M 195.703,622.888 L 198.085,622.888 L 198.085,625.579 L 195.703,625.579 L 195.703,622.888 z"
         id="path3190" />
    </clipPath>
    <clipPath
       id="clipPath3156">
      <path
         d="M 191.997,618.937 L 192.281,628.292 L 197.951,628.292 L 197.667,623.755 L 205.889,623.473 L 206.171,623.755 L 205.889,618.653 L 192.281,618.937"
         id="path3158" />
    </clipPath>
    <clipPath
       id="clipPath3150">
      <path
         d="M 193.561,622.888 L 195.943,622.888 L 195.943,625.579 L 193.561,625.579 L 193.561,622.888 z"
         id="path3152" />
    </clipPath>
    <clipPath
       id="clipPath3118">
      <path
         d="M 191.997,618.937 L 192.281,628.292 L 197.951,628.292 L 197.667,623.755 L 205.889,623.473 L 206.171,623.755 L 205.889,618.653 L 192.281,618.937"
         id="path3120" />
    </clipPath>
    <clipPath
       id="clipPath3112">
      <path
         d="M 191.419,622.888 L 193.801,622.888 L 193.801,625.579 L 191.419,625.579 L 191.419,622.888 z"
         id="path3114" />
    </clipPath>
    <clipPath
       id="clipPath3082">
      <path
         d="M 191.997,618.937 L 192.281,628.292 L 197.951,628.292 L 197.667,623.755 L 205.889,623.473 L 206.171,623.755 L 205.889,618.653 L 192.281,618.937"
         id="path3084" />
    </clipPath>
    <clipPath
       id="clipPath3076">
      <path
         d="M 204.272,620.437 L 206.654,620.437 L 206.654,623.128 L 204.272,623.128 L 204.272,620.437 z"
         id="path3078" />
    </clipPath>
    <clipPath
       id="clipPath3040">
      <path
         d="M 191.997,618.937 L 192.281,628.292 L 197.951,628.292 L 197.667,623.755 L 205.889,623.473 L 206.171,623.755 L 205.889,618.653 L 192.281,618.937"
         id="path3042" />
    </clipPath>
    <clipPath
       id="clipPath3034">
      <path
         d="M 202.129,620.437 L 204.511,620.437 L 204.511,623.128 L 202.129,623.128 L 202.129,620.437 z"
         id="path3036" />
    </clipPath>
    <clipPath
       id="clipPath2998">
      <path
         d="M 191.997,618.937 L 192.281,628.292 L 197.951,628.292 L 197.667,623.755 L 205.889,623.473 L 206.171,623.755 L 205.889,618.653 L 192.281,618.937"
         id="path3000" />
    </clipPath>
    <clipPath
       id="clipPath2992">
      <path
         d="M 199.987,620.437 L 202.369,620.437 L 202.369,623.128 L 199.987,623.128 L 199.987,620.437 z"
         id="path2994" />
    </clipPath>
    <clipPath
       id="clipPath2956">
      <path
         d="M 191.997,618.937 L 192.281,628.292 L 197.951,628.292 L 197.667,623.755 L 205.889,623.473 L 206.171,623.755 L 205.889,618.653 L 192.281,618.937"
         id="path2958" />
    </clipPath>
    <clipPath
       id="clipPath2950">
      <path
         d="M 197.845,620.437 L 200.227,620.437 L 200.227,623.128 L 197.845,623.128 L 197.845,620.437 z"
         id="path2952" />
    </clipPath>
    <clipPath
       id="clipPath2914">
      <path
         d="M 191.997,618.937 L 192.281,628.292 L 197.951,628.292 L 197.667,623.755 L 205.889,623.473 L 206.171,623.755 L 205.889,618.653 L 192.281,618.937"
         id="path2916" />
    </clipPath>
    <clipPath
       id="clipPath2908">
      <path
         d="M 195.703,620.437 L 198.085,620.437 L 198.085,623.128 L 195.703,623.128 L 195.703,620.437 z"
         id="path2910" />
    </clipPath>
    <clipPath
       id="clipPath2876">
      <path
         d="M 191.997,618.937 L 192.281,628.292 L 197.951,628.292 L 197.667,623.755 L 205.889,623.473 L 206.171,623.755 L 205.889,618.653 L 192.281,618.937"
         id="path2878" />
    </clipPath>
    <clipPath
       id="clipPath2870">
      <path
         d="M 193.561,620.437 L 195.943,620.437 L 195.943,623.128 L 193.561,623.128 L 193.561,620.437 z"
         id="path2872" />
    </clipPath>
    <clipPath
       id="clipPath2838">
      <path
         d="M 191.997,618.937 L 192.281,628.292 L 197.951,628.292 L 197.667,623.755 L 205.889,623.473 L 206.171,623.755 L 205.889,618.653 L 192.281,618.937"
         id="path2840" />
    </clipPath>
    <clipPath
       id="clipPath2832">
      <path
         d="M 191.419,620.437 L 193.801,620.437 L 193.801,623.128 L 191.419,623.128 L 191.419,620.437 z"
         id="path2834" />
    </clipPath>
    <clipPath
       id="clipPath2804">
      <path
         d="M 191.997,618.937 L 192.281,628.292 L 197.951,628.292 L 197.667,623.755 L 205.889,623.473 L 206.171,623.755 L 205.889,618.653 L 192.281,618.937"
         id="path2806" />
    </clipPath>
    <clipPath
       id="clipPath2798">
      <path
         d="M 204.272,617.986 L 206.654,617.986 L 206.654,620.677 L 204.272,620.677 L 204.272,617.986 z"
         id="path2800" />
    </clipPath>
    <clipPath
       id="clipPath2764">
      <path
         d="M 191.997,618.937 L 192.281,628.292 L 197.951,628.292 L 197.667,623.755 L 205.889,623.473 L 206.171,623.755 L 205.889,618.653 L 192.281,618.937"
         id="path2766" />
    </clipPath>
    <clipPath
       id="clipPath2758">
      <path
         d="M 202.129,617.986 L 204.511,617.986 L 204.511,620.677 L 202.129,620.677 L 202.129,617.986 z"
         id="path2760" />
    </clipPath>
    <clipPath
       id="clipPath2724">
      <path
         d="M 191.997,618.937 L 192.281,628.292 L 197.951,628.292 L 197.667,623.755 L 205.889,623.473 L 206.171,623.755 L 205.889,618.653 L 192.281,618.937"
         id="path2726" />
    </clipPath>
    <clipPath
       id="clipPath2718">
      <path
         d="M 199.987,617.986 L 202.369,617.986 L 202.369,620.677 L 199.987,620.677 L 199.987,617.986 z"
         id="path2720" />
    </clipPath>
    <clipPath
       id="clipPath2684">
      <path
         d="M 191.997,618.937 L 192.281,628.292 L 197.951,628.292 L 197.667,623.755 L 205.889,623.473 L 206.171,623.755 L 205.889,618.653 L 192.281,618.937"
         id="path2686" />
    </clipPath>
    <clipPath
       id="clipPath2678">
      <path
         d="M 197.845,617.986 L 200.227,617.986 L 200.227,620.677 L 197.845,620.677 L 197.845,617.986 z"
         id="path2680" />
    </clipPath>
    <clipPath
       id="clipPath2644">
      <path
         d="M 191.997,618.937 L 192.281,628.292 L 197.951,628.292 L 197.667,623.755 L 205.889,623.473 L 206.171,623.755 L 205.889,618.653 L 192.281,618.937"
         id="path2646" />
    </clipPath>
    <clipPath
       id="clipPath2638">
      <path
         d="M 195.703,617.986 L 198.085,617.986 L 198.085,620.677 L 195.703,620.677 L 195.703,617.986 z"
         id="path2640" />
    </clipPath>
    <clipPath
       id="clipPath2612">
      <path
         d="M 191.997,618.937 L 192.281,628.292 L 197.951,628.292 L 197.667,623.755 L 205.889,623.473 L 206.171,623.755 L 205.889,618.653 L 192.281,618.937"
         id="path2614" />
    </clipPath>
    <clipPath
       id="clipPath2606">
      <path
         d="M 193.561,617.986 L 195.943,617.986 L 195.943,620.677 L 193.561,620.677 L 193.561,617.986 z"
         id="path2608" />
    </clipPath>
    <clipPath
       id="clipPath2580">
      <path
         d="M 191.997,618.937 L 192.281,628.292 L 197.951,628.292 L 197.667,623.755 L 205.889,623.473 L 206.171,623.755 L 205.889,618.653 L 192.281,618.937"
         id="path2582" />
    </clipPath>
    <clipPath
       id="clipPath2574">
      <path
         d="M 191.419,617.986 L 193.801,617.986 L 193.801,620.677 L 191.419,620.677 L 191.419,617.986 z"
         id="path2576" />
    </clipPath>
    <clipPath
       id="clipPath2490">
      <path
         d="M 0.12,842.04 L 595.08,842.04 L 595.08,0.12 L 0.12,0.12 L 0.12,842.04 z"
         id="path2492" />
    </clipPath>
    <clipPath
       id="clipPath2484">
      <path
         d="M 12,830 L 583,830 L 583,12 L 12,12 L 12,830 z"
         id="path2486" />
    </clipPath>
    <clipPath
       id="clipPath2478">
      <path
         d="M 10.61,842 L 596.19,842 L 596.19,42.63 L 10.61,42.63 L 10.61,842 z"
         id="path2480" />
    </clipPath>
    <clipPath
       id="clipPath2466">
      <path
         d="M 0.12,842.04 L 595.08,842.04 L 595.08,0.12 L 0.12,0.12 L 0.12,842.04 z"
         id="path2468" />
    </clipPath>
    <clipPath
       id="clipPath2460">
      <path
         d="M 12,830 L 583,830 L 583,12 L 12,12 L 12,830 z"
         id="path2462" />
    </clipPath>
  </defs>
  <path
     d="m 59.3125,22.78125 c -20.402126,0 -37,16.597874 -37,37 0,16.193502 10.453097,29.965692 24.96875,34.96875 0.343518,0.118399 0.68327,0.235286 1.03125,0.34375 C 51.987346,96.320055 55.918144,97 60,97 80.402126,97 97,80.402126 97,60 97,43.807959 86.54486,30.035444 72.03125,25.03125 71.587947,24.868624 71.138515,24.70843 70.6875,24.5625 67.104569,23.403207 63.276484,22.78125 59.3125,22.78125 z M 60,27 c 1.811334,0 3.580511,0.157157 5.3125,0.4375 l 0,26.5625 26.5,0 c 0.329457,1.872256 0.5,3.814306 0.5,5.78125 0,2.129012 -0.209134,4.202044 -0.59375,6.21875 l -26.40625,0 0,26.25 c -1.945159,0.356621 -3.951104,0.53125 -6,0.53125 -2.048896,0 -4.054841,-0.174629 -6,-0.53125 l 0,-26.25 -25.78125,0 C 27.174629,64.054841 27,62.048896 27,60 c 0,-2.048896 0.174629,-4.054841 0.53125,-6 l 25.78125,0 0,-26.3125 C 55.474411,27.242617 57.706093,27 60,27 z m 9.3125,1.3125 c 0.411336,0.120711 0.814259,0.270134 1.21875,0.40625 0.0093,0.0033 0.02199,-0.0034 0.03125,0 0.105034,0.03545 0.207943,0.08853 0.3125,0.125 C 80.39741,32.402108 87.823851,40.224441 90.84375,50 L 69.3125,50 z m -20,0.46875 0,21.21875 -20.78125,0 C 31.689705,40.048477 39.454997,32.154194 49.3125,28.78125 z M 28.53125,70 l 20.78125,0 0,21.21875 C 39.454997,87.845806 31.689705,79.951523 28.53125,70 z m 40.78125,0 21.375,0 C 87.406815,80.078987 79.420389,88.041917 69.3125,91.25 z"
     id="path8782"
     inkscape:connector-curvature="0"
     sodipodi:nodetypes="ssscsscssscccscccscccscccsccccccccccccccccccc"
     style="fill:#a3007f;fill-opacity:0.94117647" />
</svg>
