<?xml version="1.0" encoding="UTF-8" standalone="no"?>
<!-- Created with Inkscape (http://www.inkscape.org/) -->

<svg
   xmlns:dc="http://purl.org/dc/elements/1.1/"
   xmlns:cc="http://creativecommons.org/ns#"
   xmlns:rdf="http://www.w3.org/1999/02/22-rdf-syntax-ns#"
   xmlns:svg="http://www.w3.org/2000/svg"
   xmlns="http://www.w3.org/2000/svg"
   xmlns:sodipodi="http://sodipodi.sourceforge.net/DTD/sodipodi-0.dtd"
   xmlns:inkscape="http://www.inkscape.org/namespaces/inkscape"
   width="16"
   height="16"
   id="svg5050"
   sodipodi:version="0.32"
   inkscape:version="0.48.2 r9819"
   sodipodi:modified="true"
   version="1.0"
   sodipodi:docname="U17.svg">
  <title
     id="title2990">U17: Water Tap</title>
  <defs
     id="defs5052">
    <inkscape:perspective
       sodipodi:type="inkscape:persp3d"
       inkscape:vp_x="0 : 377.8407 : 1"
       inkscape:vp_y="0 : 1000 : 0"
       inkscape:vp_z="574 : 377.8407 : 1"
       inkscape:persp3d-origin="287 : 251.8938 : 1"
       id="perspective3421" />
  </defs>
  <sodipodi:namedview
     id="base"
     pagecolor="#ffffff"
     bordercolor="#666666"
     borderopacity="1.0"
     gridtolerance="10000"
     guidetolerance="10"
     objecttolerance="10"
     inkscape:pageopacity="0.0"
     inkscape:pageshadow="2"
     inkscape:zoom="34.375"
     inkscape:cx="2.88"
     inkscape:cy="8"
     inkscape:document-units="px"
     inkscape:current-layer="g3434"
     inkscape:window-width="1440"
     inkscape:window-height="808"
     inkscape:window-x="0"
     inkscape:window-y="0"
     showgrid="false"
     inkscape:window-maximized="1" />
  <metadata
     id="metadata5055">
    <rdf:RDF>
      <cc:Work
         rdf:about="">
        <dc:format>image/svg+xml</dc:format>
        <dc:type
           rdf:resource="http://purl.org/dc/dcmitype/StillImage" />
        <dc:title>U17: Water Tap</dc:title>
        <cc:license
           rdf:resource="http://creativecommons.org/licenses/publicdomain/" />
      </cc:Work>
      <cc:License
         rdf:about="http://creativecommons.org/licenses/publicdomain/">
        <cc:permits
           rdf:resource="http://creativecommons.org/ns#Reproduction" />
        <cc:permits
           rdf:resource="http://creativecommons.org/ns#Distribution" />
        <cc:permits
           rdf:resource="http://creativecommons.org/ns#DerivativeWorks" />
      </cc:License>
    </rdf:RDF>
  </metadata>
  <g
     inkscape:label="Layer 1"
     inkscape:groupmode="layer"
     id="layer1"
     transform="translate(-36.2854,-778.2512)">
    <g
       transform="matrix(2.10715,0,0,2.10715,-499.435,-681.173)"
       id="g2558">
      <g
         id="g3500"
         transform="matrix(1.0173499,0,0,1.0173499,-3.4000898,-12.282719)">
        <g
           id="g3514"
           transform="translate(-0.0475079,0.06246159)">
          <g
             id="g3434"
             transform="matrix(-0.02042932,0,0,0.02042932,265.44292,687.56144)">
            <path
               style="fill:#a30075;fill-opacity:1;stroke:none"
               d="M 5.1875 3.71875 C 4.5958011 3.693273 4.4886789 4.687376 5.0625 4.78125 C 5.6723082 4.7931206 6.2957797 4.7826262 6.90625 4.78125 L 6.90625 6.5625 C 6.8648275 6.5668638 6.8224533 6.5559281 6.78125 6.5625 C 6.4928975 6.6404675 6.3467574 6.8800453 6.3125 7.15625 L 3.8125 7.15625 C 3.8119527 6.8033338 3.8110411 6.446566 3.8125 6.09375 C 3.8444223 5.7984821 3.7868909 5.3994789 3.40625 5.40625 C 3.3948841 5.4060311 3.3862322 5.4053792 3.375 5.40625 L 2.96875 5.40625 L 2.96875 9.96875 C 2.9531358 10.034468 2.9566671 10.101351 2.96875 10.15625 L 2.96875 10.40625 C 2.9671554 10.565426 3.255141 10.462278 3.375 10.5 L 3.375 10.46875 C 3.5710307 10.488509 3.7690904 10.401413 3.8125 10.15625 C 3.8192996 9.6895309 3.8119896 9.2170333 3.8125 8.75 L 6.3125 8.75 C 6.3140243 8.7809357 6.3105394 8.8128419 6.3125 8.84375 C 6.3786262 9.2343047 6.7902803 9.4246551 7.15625 9.375 C 7.515291 9.3556866 7.9017631 9.4131345 8.25 9.3125 C 8.5095491 9.215952 8.623003 9.002317 8.65625 8.75 L 10.46875 8.75 C 10.649733 9.0641156 11.008464 9.0763162 11.28125 8.9375 L 11.28125 11.4375 L 13 11.4375 L 13 8.90625 C 12.541326 8.1115385 11.844032 7.3020498 10.875 7.1875 C 10.664959 7.1302713 10.508115 7.1391184 10.46875 7.28125 L 10.46875 7.15625 L 8.65625 7.15625 C 8.6546808 7.125056 8.6582923 7.0936642 8.65625 7.0625 C 8.603589 6.7816947 8.3428632 6.5655995 8.0625 6.53125 L 8.0625 4.78125 C 8.2487244 4.7812457 8.4388268 4.7802298 8.625 4.78125 C 9.05151 4.7753798 9.4805524 4.8033789 9.90625 4.78125 C 10.480133 4.6780986 10.378 3.7026354 9.78125 3.71875 L 5.1875 3.71875 z "
               transform="matrix(-22.83391,0,0,22.83391,594.72272,256.65986)"
               id="rect2562" />
          </g>
        </g>
      </g>
    </g>
  </g>
</svg>
