<?xml version="1.0" encoding="UTF-8" standalone="no"?>
<svg
   xmlns:dc="http://purl.org/dc/elements/1.1/"
   xmlns:cc="http://creativecommons.org/ns#"
   xmlns:rdf="http://www.w3.org/1999/02/22-rdf-syntax-ns#"
   xmlns:svg="http://www.w3.org/2000/svg"
   xmlns="http://www.w3.org/2000/svg"
   xmlns:xlink="http://www.w3.org/1999/xlink"
   xmlns:sodipodi="http://sodipodi.sourceforge.net/DTD/sodipodi-0.dtd"
   xmlns:inkscape="http://www.inkscape.org/namespaces/inkscape"
   version="1.1"
   width="60"
   height="60"
   id="svg2"
   inkscape:version="0.48.2 r9819"
   sodipodi:docname="U18.svg">
  <title
     id="title2985">U18: Fuel Station</title>
  <metadata
     id="metadata15">
    <rdf:RDF>
      <cc:Work
         rdf:about="">
        <dc:format>image/svg+xml</dc:format>
        <dc:type
           rdf:resource="http://purl.org/dc/dcmitype/StillImage" />
        <dc:title>U18: Fuel Station</dc:title>
        <cc:license
           rdf:resource="http://creativecommons.org/licenses/publicdomain/" />
      </cc:Work>
      <cc:License
         rdf:about="http://creativecommons.org/licenses/publicdomain/">
        <cc:permits
           rdf:resource="http://creativecommons.org/ns#Reproduction" />
        <cc:permits
           rdf:resource="http://creativecommons.org/ns#Distribution" />
        <cc:permits
           rdf:resource="http://creativecommons.org/ns#DerivativeWorks" />
      </cc:License>
    </rdf:RDF>
  </metadata>
  <defs
     id="defs13" />
  <sodipodi:namedview
     pagecolor="#ffffff"
     bordercolor="#666666"
     borderopacity="1"
     objecttolerance="10"
     gridtolerance="10"
     guidetolerance="10"
     inkscape:pageopacity="0"
     inkscape:pageshadow="2"
     inkscape:window-width="719"
     inkscape:window-height="494"
     id="namedview11"
     showgrid="false"
     inkscape:zoom="3.9333333"
     inkscape:cx="-14.745763"
     inkscape:cy="30"
     inkscape:window-x="0"
     inkscape:window-y="0"
     inkscape:window-maximized="0"
     inkscape:current-layer="svg2" />
  <symbol
     id="fuel"
     width="60"
     height="60">
    <rect
       width="58"
       height="58"
       rx="16"
       ry="16"
       x="1"
       y="1"
       style="fill:#ffffff;fill-opacity:0.5;stroke:#a30075;stroke-width:2"
       id="rect5" />
    <path
       d="m 30.563178,20.485978 c 0,0.5975 -0.4725,1.0625 -1.074,1.0625 h -11.2385 c -0.6055,0 -1.074,-0.465 -1.074,-1.0625 v -9.477001 c 0,-0.5975 0.469,-1.0625004 1.074,-1.0625004 h 11.2385 c 0.6015,0 1.074,0.4650004 1.074,1.0625004 v 9.477001 z m 13.1015,1.2105 c -1.422,-0.3125 -1.9375,-1.043 -1.9375,-1.715 v -2.449 c 0,0 0.9455,0.211 1.172,0.2695 0.461,0.121 0.754,0.828 0.7655,1.4455 0.0155,0.617 0,2.449 0,2.449 z m 2.863,14.879 c 0,-0.0235 -0.3945,-3.008 -0.3945,-3.008 v -13.781 c 0,-1.4765 -0.4845,-2.676 -1.4845,-3.6835 l -6.3825,-6.3515014 c -0.4415,0 -1.66,1.2150004 -1.66,1.2150004 0,0.4415 3.168,3.586001 3.168,3.586001 l -0.094,5.3475 c 0,1.8985 1.543,3.4375 3.449,3.4375 l 0.8555,0.0115 -0.3045,10.219 0.426,3.504 1.918,10.34 c 0.0705,1.6795 -1.465,2.6795 -2.676,2.6795 -1.121,0 -2.422,-0.926 -2.422,-2.121 l 0.0235,-18.121 c 0,-2.203 -1.789,-3.992 -3.992,-3.992 h -3.8515 c 0.2695,-0.0155 0.281,-11.867 0.281,-14.383001 v -0.465 c 0,-2.1445004 -1.75,-3.8905004 -3.8985,-3.8905004 h -11.238 c -2.14849,0 -3.89849,1.746 -3.89849,3.8905004 v 41.074001 l 19.03499,0.3165 0.0195,-23.996 h 3.594 c 0.824,0 1.496,0.672 1.496,1.496 v 18.0705 c 0,2.426 2.2655,4.551 4.8515,4.551 2.4415,0 5.176,-1.9415 5.176,-4.551 -0.043,-0.602 -1.9965,-11.395 -1.9965,-11.395 z"
       style="fill:#a30075"
       id="path7" />
  </symbol>
  <use
     xlink:href="#fuel"
     x="0"
     y="0"
     id="use9" />
</svg>
