<?xml version="1.0" encoding="UTF-8" standalone="no"?>
<!-- Generator: Adobe Illustrator 10, SVG Export Plug-In . SVG Version: 3.0.0 Build 76)  -->

<svg
   xmlns:i="http://ns.adobe.com/AdobeIllustrator/10.0/"
   xmlns:dc="http://purl.org/dc/elements/1.1/"
   xmlns:cc="http://creativecommons.org/ns#"
   xmlns:rdf="http://www.w3.org/1999/02/22-rdf-syntax-ns#"
   xmlns:svg="http://www.w3.org/2000/svg"
   xmlns="http://www.w3.org/2000/svg"
   xmlns:sodipodi="http://sodipodi.sourceforge.net/DTD/sodipodi-0.dtd"
   xmlns:inkscape="http://www.inkscape.org/namespaces/inkscape"
   enable-background="new 0 0 395.833 349"
   height="369"
   i:pageBounds="0 792 612 0"
   i:rulerOrigin="0 0"
   i:viewOrigin="82.6665 567.5"
   overflow="visible"
   space="preserve"
   viewBox="0 0 395.833 349"
   width="368"
   id="svg2"
   sodipodi:version="0.32"
   inkscape:version="0.48.2 r9819"
   sodipodi:docname="U18_no.svg"
   version="1.0">
  <title
     id="title2985">U18: Fuel Station (Norwegian Version)</title>
  <defs
     id="defs40" />
  <sodipodi:namedview
     inkscape:window-height="808"
     inkscape:window-width="1440"
     inkscape:pageshadow="2"
     inkscape:pageopacity="0.0"
     guidetolerance="10.0"
     gridtolerance="10.0"
     objecttolerance="10.0"
     borderopacity="1.0"
     bordercolor="#666666"
     pagecolor="#ffffff"
     id="base"
     width="368px"
     inkscape:zoom="1.4905149"
     inkscape:cx="65.92"
     inkscape:cy="184.5"
     inkscape:window-x="0"
     inkscape:window-y="0"
     inkscape:current-layer="Layer_1"
     height="369px"
     showgrid="false"
     inkscape:window-maximized="1" />
  <metadata
     id="metadata4">
    <rdf:RDF>
      <cc:Work
         rdf:about="">
        <dc:title>U18: Fuel Station (Norwegian Version)</dc:title>
        <dc:description />
        <dc:subject>
          <rdf:Bag />
        </dc:subject>
        <dc:publisher>
          <cc:Agent
             rdf:about="http://www.openclipart.org">
            <dc:title />
          </cc:Agent>
        </dc:publisher>
        <dc:creator>
          <cc:Agent>
            <dc:title />
          </cc:Agent>
        </dc:creator>
        <dc:rights>
          <cc:Agent>
            <dc:title />
          </cc:Agent>
        </dc:rights>
        <dc:date />
        <dc:format>image/svg+xml</dc:format>
        <dc:type
           rdf:resource="http://purl.org/dc/dcmitype/StillImage" />
        <cc:license
           rdf:resource="http://creativecommons.org/licenses/publicdomain/" />
        <dc:language />
      </cc:Work>
      <cc:License
         rdf:about="http://creativecommons.org/licenses/publicdomain/">
        <cc:permits
           rdf:resource="http://creativecommons.org/ns#Reproduction" />
        <cc:permits
           rdf:resource="http://creativecommons.org/ns#Distribution" />
        <cc:permits
           rdf:resource="http://creativecommons.org/ns#DerivativeWorks" />
      </cc:License>
    </rdf:RDF>
  </metadata>
  <g
     i:dimmedPercent="50"
     i:knockout="Off"
     i:layer="yes"
     i:rgbTrio="#4F008000FFFF"
     id="Layer_1"
     transform="matrix(1.075633,0,0,1.075633,-40.69442,-13.19793)">
    <path
       d="M 395.333,174.5 C 395.333,270.598 317.654,348.5 221.833,348.5 C 126.012,348.5 48.333,270.598 48.333,174.5 C 48.333,78.402 126.012,0.5 221.833,0.5 C 317.655,0.5 395.333,78.402 395.333,174.5 z "
       i:knockout="Off"
       id="path7"
       style="fill:none;stroke:#a3007f;stroke-opacity:0.94117647000000004;stroke-width:9.30000131999999980;stroke-miterlimit:4;stroke-dasharray:none;fill-opacity:1" />
    <path
       i:knockout="Off"
       id="path21"
       style="fill:#1789e5"
       d="" />
    <path
       style="fill:#a3007f;fill-opacity:0.94117647"
       d="m 127.1875,66.25 c -1.53719,17.929525 -90.615191,231.424 -13.90625,230.78125 56.92234,-0.46931 36.92426,-20.47457 43.96875,-138.46875 -1.88407,-3.79724 18.18106,-5.29059 18.1875,0.90625 l 0.375,144.9375 103.59375,-0.90625 0,-199.40625 C 275.96771,98.896561 271.12328,101.32929 263.75,94.875 257.53707,88.244926 267.4296,66.25 252.03125,66.25 z m 39.375,19.8125 c 14.94888,0.08249 29.49268,1.672385 29.1875,3.21875 -2.03886,13.40999 -11.36731,7.490791 -17.78125,15.53125 l -0.59375,22.125 c -6.97931,8.91415 -25.60713,-5.20476 -30.40625,13.5 -14.92135,110.53295 15.56513,146.65941 -34.125,145.03125 -41.058944,-1.20344 2.10528,-143.96295 22.09375,-193.5625 1.31281,-4.487541 16.67612,-5.926237 31.625,-5.84375 z m 58.23581,26.59408 c 22.11804,0 20.2647,3.64023 20.09656,16.97207 -0.11779,9.33972 0.45073,11.58437 -19.58237,10.9749 -21.12845,-0.64281 -21.31583,0.36067 -21.55843,-11.97855 -0.28383,-14.43614 -0.0702,-15.96842 21.04424,-15.96842 z"
       transform="translate(37.832997,-10.000053)"
       id="path3"
       inkscape:connector-curvature="0"
       sodipodi:nodetypes="ccccccccscsccccccssssss" />
  </g>
</svg>
