<?xml version="1.0" encoding="UTF-8" standalone="no"?>
<!-- Created with Inkscape (http://www.inkscape.org/) -->

<svg
   xmlns:dc="http://purl.org/dc/elements/1.1/"
   xmlns:cc="http://creativecommons.org/ns#"
   xmlns:rdf="http://www.w3.org/1999/02/22-rdf-syntax-ns#"
   xmlns:svg="http://www.w3.org/2000/svg"
   xmlns="http://www.w3.org/2000/svg"
   xmlns:sodipodi="http://sodipodi.sourceforge.net/DTD/sodipodi-0.dtd"
   xmlns:inkscape="http://www.inkscape.org/namespaces/inkscape"
   width="332.43527"
   height="496.09375"
   id="svg3759"
   version="1.1"
   inkscape:version="0.48.2 r9819"
   sodipodi:docname="U18_.svg">
  <title
     id="title2983">U18: Fiel Station</title>
  <defs
     id="defs3761" />
  <sodipodi:namedview
     id="base"
     pagecolor="#ffffff"
     bordercolor="#666666"
     borderopacity="1.0"
     inkscape:pageopacity="0.0"
     inkscape:pageshadow="2"
     inkscape:zoom="0.52263376"
     inkscape:cx="-253.3649"
     inkscape:cy="228.50641"
     inkscape:document-units="px"
     inkscape:current-layer="layer1"
     showgrid="false"
     inkscape:window-width="1440"
     inkscape:window-height="808"
     inkscape:window-x="0"
     inkscape:window-y="0"
     inkscape:window-maximized="1"
     fit-margin-top="0"
     fit-margin-left="0"
     fit-margin-right="0"
     fit-margin-bottom="0" />
  <metadata
     id="metadata3764">
    <rdf:RDF>
      <cc:Work
         rdf:about="">
        <dc:format>image/svg+xml</dc:format>
        <dc:type
           rdf:resource="http://purl.org/dc/dcmitype/StillImage" />
        <dc:title>U18: Fiel Station</dc:title>
        <cc:license
           rdf:resource="http://creativecommons.org/licenses/publicdomain/" />
      </cc:Work>
      <cc:License
         rdf:about="http://creativecommons.org/licenses/publicdomain/">
        <cc:permits
           rdf:resource="http://creativecommons.org/ns#Reproduction" />
        <cc:permits
           rdf:resource="http://creativecommons.org/ns#Distribution" />
        <cc:permits
           rdf:resource="http://creativecommons.org/ns#DerivativeWorks" />
      </cc:License>
    </rdf:RDF>
  </metadata>
  <g
     inkscape:label="Layer 1"
     inkscape:groupmode="layer"
     id="layer1"
     transform="translate(-288.65625,-258.59375)">
    <path
       style="fill:#a30075;fill-opacity:1;stroke:none"
       d="m 378.84375,258.59375 c -33.21163,0 -60.125,28.9225 -60.125,64.625 0,19.94205 8.39005,37.76671 21.59375,49.625 l -51.65625,0 0,381.84375 174.375,0 -1.51554,-125.60104 55.64054,59.44479 c 14.27348,8.55705 30.0625,10.29415 45.09375,12.03125 15.79944,-0.46379 36.90328,-6.98974 45.125,-15.03125 9.87658,-13.4497 9.90212,-22.35278 13.71652,-40.34911 -1.42887,-33.20685 -0.71444,-42.83735 -10.71652,-73.90089 -19.76547,-75.30997 -39.53095,-129.1869 -72.15625,-219.5 l -42.09375,-27.0625 -56.125,48.125 -22.625,0 C 430.5787,360.98546 439,343.1608 439,323.21875 c 0,-35.7025 -26.94462,-64.625 -60.15625,-64.625 z m 120.28125,90.1875 27.0625,18.03125 c 35.9119,100.61012 48.61521,126.29001 75.21843,217.82917 2.1433,16.17455 7.44771,34.77474 5.30441,59.52251 1.29398,9.02083 0.31466,26.37717 -12.78903,33.12468 -10.24239,4.54664 -27.30472,9.09327 -41.33597,9.09327 -9.02083,-5.01042 -19.55722,-9.26306 -30.85137,-21.8512 L 463.03125,602.25 l 0,-226.875 z"
       id="rect3000"
       inkscape:connector-curvature="0"
       sodipodi:nodetypes="ssccccccccccccccsscccccccccc" />
  </g>
</svg>
