<?xml version="1.0" encoding="UTF-8" standalone="no"?>
<!-- Created with Inkscape (http://www.inkscape.org/) -->

<svg
   xmlns:dc="http://purl.org/dc/elements/1.1/"
   xmlns:cc="http://creativecommons.org/ns#"
   xmlns:rdf="http://www.w3.org/1999/02/22-rdf-syntax-ns#"
   xmlns:svg="http://www.w3.org/2000/svg"
   xmlns="http://www.w3.org/2000/svg"
   xmlns:sodipodi="http://sodipodi.sourceforge.net/DTD/sodipodi-0.dtd"
   xmlns:inkscape="http://www.inkscape.org/namespaces/inkscape"
   width="427.50427"
   height="923.60004"
   id="svg2"
   sodipodi:version="0.32"
   inkscape:version="0.48.2 r9819"
   sodipodi:modified="true"
   version="1.0"
   sodipodi:docname="U20.svg">
  <title
     id="title2985">U20: Bottled Gas (NOT OFFICIAL)</title>
  <defs
     id="defs4" />
  <sodipodi:namedview
     id="base"
     pagecolor="#ffffff"
     bordercolor="#666666"
     borderopacity="1.0"
     inkscape:pageopacity="0.0"
     inkscape:pageshadow="2"
     inkscape:zoom="0.42875702"
     inkscape:cx="213.75213"
     inkscape:cy="461.80002"
     inkscape:document-units="px"
     inkscape:current-layer="layer1"
     inkscape:window-width="719"
     inkscape:window-height="592"
     inkscape:window-x="663"
     inkscape:window-y="252"
     showgrid="false"
     inkscape:window-maximized="0"
     fit-margin-top="0"
     fit-margin-left="0"
     fit-margin-right="0"
     fit-margin-bottom="0" />
  <metadata
     id="metadata7">
    <rdf:RDF>
      <cc:Work
         rdf:about="">
        <dc:format>image/svg+xml</dc:format>
        <dc:type
           rdf:resource="http://purl.org/dc/dcmitype/StillImage" />
        <cc:license
           rdf:resource="http://creativecommons.org/licenses/publicdomain/" />
        <dc:title>U20: Bottled Gas (NOT OFFICIAL)</dc:title>
      </cc:Work>
      <cc:License
         rdf:about="http://creativecommons.org/licenses/publicdomain/">
        <cc:permits
           rdf:resource="http://creativecommons.org/ns#Reproduction" />
        <cc:permits
           rdf:resource="http://creativecommons.org/ns#Distribution" />
        <cc:permits
           rdf:resource="http://creativecommons.org/ns#DerivativeWorks" />
      </cc:License>
    </rdf:RDF>
  </metadata>
  <g
     inkscape:label="Camada 1"
     inkscape:groupmode="layer"
     id="layer1"
     transform="translate(-28.571428,-0.93360286)">
    <path
       style="fill:#8b008b;fill-opacity:1;stroke:none"
       d="m 28.571428,555.21932 c 0,0 48.571426,102.85715 99.999992,102.85715 72.92993,23.6387 72.30067,30.60404 111.42857,80 27.14286,55.71429 108.57143,171.42858 108.57143,171.42858 0,0 -114.28571,-74.28572 -165.71428,-74.28572 C 132.78436,823.0092 101.98504,804.61528 65.714286,752.36218 38.571429,696.64789 28.571428,555.21932 28.571428,555.21932 z"
       id="rect2160"
       sodipodi:nodetypes="ccccccc"
       inkscape:connector-curvature="0" />
    <path
       style="fill:#8b008b;fill-opacity:1;stroke:none"
       d="M 305.71429,0.93360286 C 233.2143,181.64789 292.85716,246.64789 292.85716,246.64789 371.05508,334.62681 391.13682,347.00343 445.71431,469.50504 470.16241,600.12555 488.59058,794.21139 340,900.93362 482.87146,778.98666 285.74475,532.34478 285.71429,532.36218 c 0,0 -125.71429,-101.42857 -162.85714,-191.42857 C 97.30971,238.85987 152.35397,127.3951 305.71429,0.93360286 z"
       id="rect4103"
       sodipodi:nodetypes="ccccccc"
       inkscape:connector-curvature="0" />
    <path
       sodipodi:type="arc"
       style="fill:#8b008b;fill-opacity:1;stroke:#a30075;stroke-width:7.19999981;stroke-miterlimit:4;stroke-opacity:1;stroke-dasharray:none"
       id="path2984"
       sodipodi:cx="332.85715"
       sodipodi:cy="902.85718"
       sodipodi:rx="18.571428"
       sodipodi:ry="17.142857"
       d="m 351.42858,902.85718 c 0,9.46774 -8.31472,17.14285 -18.57143,17.14285 -10.25672,0 -18.57143,-7.67511 -18.57143,-17.14285 0,-9.46774 8.31471,-17.14286 18.57143,-17.14286 10.25671,0 18.57143,7.67512 18.57143,17.14286 z"
       transform="translate(5.7142853,0.9336029)" />
  </g>
</svg>
