<?xml version="1.0" encoding="UTF-8" standalone="no"?>
<!-- Created with Inkscape (http://www.inkscape.org/) -->

<svg
   xmlns:dc="http://purl.org/dc/elements/1.1/"
   xmlns:cc="http://creativecommons.org/ns#"
   xmlns:rdf="http://www.w3.org/1999/02/22-rdf-syntax-ns#"
   xmlns:svg="http://www.w3.org/2000/svg"
   xmlns="http://www.w3.org/2000/svg"
   xmlns:sodipodi="http://sodipodi.sourceforge.net/DTD/sodipodi-0.dtd"
   xmlns:inkscape="http://www.inkscape.org/namespaces/inkscape"
   height="10.59375"
   id="svg7531"
   inkscape:version="0.48.2 r9819"
   sodipodi:docname="U23.svg"
   sodipodi:version="0.32"
   width="21.25"
   version="1.1">
  <title
     id="title2986">U23: Public Toilet</title>
  <metadata
     id="metadata3">
    <rdf:RDF>
      <cc:Work
         rdf:about="">
        <dc:title>U23: Public Toilet</dc:title>
        <dc:description />
        <dc:subject>
          <rdf:Bag />
        </dc:subject>
        <dc:publisher>
          <cc:Agent
             rdf:about="http://www.openclipart.org/">
            <dc:title />
          </cc:Agent>
        </dc:publisher>
        <dc:creator>
          <cc:Agent>
            <dc:title />
          </cc:Agent>
        </dc:creator>
        <dc:rights>
          <cc:Agent>
            <dc:title />
          </cc:Agent>
        </dc:rights>
        <dc:date />
        <dc:format>image/svg+xml</dc:format>
        <dc:type
           rdf:resource="http://purl.org/dc/dcmitype/StillImage" />
        <cc:license
           rdf:resource="http://creativecommons.org/licenses/publicdomain/" />
        <dc:language />
      </cc:Work>
      <cc:License
         rdf:about="http://creativecommons.org/licenses/publicdomain/">
        <cc:permits
           rdf:resource="http://creativecommons.org/ns#Reproduction" />
        <cc:permits
           rdf:resource="http://creativecommons.org/ns#Distribution" />
        <cc:permits
           rdf:resource="http://creativecommons.org/ns#DerivativeWorks" />
      </cc:License>
    </rdf:RDF>
  </metadata>
  <defs
     id="defs7533" />
  <sodipodi:namedview
     bordercolor="#666666"
     borderopacity="1.0"
     id="base"
     inkscape:current-layer="layer1"
     inkscape:cx="-2.0970021"
     inkscape:cy="5"
     inkscape:document-units="px"
     inkscape:grid-bbox="true"
     inkscape:guide-bbox="true"
     inkscape:pageopacity="0.0"
     inkscape:pageshadow="2"
     inkscape:window-height="808"
     inkscape:window-width="1440"
     inkscape:window-x="0"
     inkscape:window-y="0"
     inkscape:zoom="17.68"
     pagecolor="#ffffff"
     showgrid="true"
     showguides="true"
     inkscape:window-maximized="1"
     fit-margin-top="0"
     fit-margin-left="0"
     fit-margin-right="0"
     fit-margin-bottom="0" />
  <g
     id="layer1"
     inkscape:groupmode="layer"
     inkscape:label="Layer 1"
     transform="translate(-7.1874999,-4.40625)">
    <g
       id="g7508"
       style="display:inline"
       transform="matrix(0.80782595,0,0,1,1.4697425,-0.588389)">
      <path
         style="color:#000000;fill:#a30075;fill-opacity:1;fill-rule:nonzero;stroke:none;stroke-width:1.37499964;marker:none;visibility:visible;display:inline;overflow:visible"
         d="m 7.1875,4.40625 0,10.59375 21.25,0 0,-10.59375 -21.25,0 z m 15.6875,1.5 0.5625,0 L 23.875,6 l 0.5,0.1875 0.40625,0.21875 0.40625,0.40625 0.21875,0.34375 0.1875,0.375 0.21875,0.5625 -1.75,0.46875 -0.09375,-0.40625 -0.25,-0.3125 -0.28125,-0.21875 -0.375,-0.0625 -0.375,0 -0.28125,0.09375 -0.3125,0.25 -0.15625,0.28125 -0.1875,0.46875 -0.0625,0.625 c -0.0061,0.2335133 0.0062,0.4539867 0,0.6875 l 0.09375,0.625 0.125,0.46875 0.25,0.34375 0.375,0.21875 0.375,0.03125 0.34375,-0.03125 0.375,-0.1875 0.3125,-0.375 0.15625,-0.46875 0.0625,-0.375 1.71875,0.625 -0.3125,1.03125 -0.5,0.71875 L 24.5,13 l -0.59375,0.21875 -0.4375,0.0625 -0.625,0.03125 -0.5625,-0.0625 -0.625,-0.125 -0.5625,-0.28125 -0.5,-0.5 -0.3125,-0.4375 -0.3125,-0.6875 -0.125,-0.65625 -0.09375,-0.59375 0,-0.625 0.03125,-0.59375 0.15625,-0.65625 0.15625,-0.5 0.34375,-0.53125 0.34375,-0.46875 0.5,-0.3125 0.5625,-0.25 L 22.3125,5.9375 22.875,5.90625 z M 9.5625,6 11.4375,6.03125 12.09375,10 13.0625,6.03125 l 1.84375,0 L 15.875,10 l 0.6875,-3.96875 1.84375,0 -1.375,7.15625 -1.9375,0 -1.125,-4.5 -1.09375,4.5 -1.875,0 L 9.5625,6 z"
         transform="matrix(1.2378904,0,0,1,-1.8193802,0.588389)"
         id="rect1331"
         inkscape:connector-curvature="0" />
    </g>
  </g>
  <g
     id="layer4"
     inkscape:groupmode="layer"
     inkscape:label="text"
     transform="translate(-7.1874999,-4.40625)">
    <g
       id="g7525"
       style="display:inline"
       transform="matrix(0.88057009,0,0,1,2.5496936,-1)" />
  </g>
</svg>
