<?xml version="1.0" encoding="UTF-8" standalone="no"?>
<!-- Created with Inkscape (http://www.inkscape.org/) -->

<svg
   xmlns:dc="http://purl.org/dc/elements/1.1/"
   xmlns:cc="http://creativecommons.org/ns#"
   xmlns:rdf="http://www.w3.org/1999/02/22-rdf-syntax-ns#"
   xmlns:svg="http://www.w3.org/2000/svg"
   xmlns="http://www.w3.org/2000/svg"
   xmlns:sodipodi="http://sodipodi.sourceforge.net/DTD/sodipodi-0.dtd"
   xmlns:inkscape="http://www.inkscape.org/namespaces/inkscape"
   id="svg2985"
   version="1.1"
   inkscape:version="0.48.2 r9819"
   width="26.076504"
   height="36.678379"
   sodipodi:docname="U24.svg">
  <title
     id="title2982">U24: Post Box</title>
  <metadata
     id="metadata2991">
    <rdf:RDF>
      <cc:Work
         rdf:about="">
        <dc:format>image/svg+xml</dc:format>
        <dc:type
           rdf:resource="http://purl.org/dc/dcmitype/StillImage" />
        <dc:title>U24: Post Box</dc:title>
        <cc:license
           rdf:resource="http://creativecommons.org/licenses/publicdomain/" />
      </cc:Work>
      <cc:License
         rdf:about="http://creativecommons.org/licenses/publicdomain/">
        <cc:permits
           rdf:resource="http://creativecommons.org/ns#Reproduction" />
        <cc:permits
           rdf:resource="http://creativecommons.org/ns#Distribution" />
        <cc:permits
           rdf:resource="http://creativecommons.org/ns#DerivativeWorks" />
      </cc:License>
    </rdf:RDF>
  </metadata>
  <defs
     id="defs2989" />
  <sodipodi:namedview
     pagecolor="#ffffff"
     bordercolor="#666666"
     borderopacity="1"
     objecttolerance="10"
     gridtolerance="10"
     guidetolerance="10"
     inkscape:pageopacity="0"
     inkscape:pageshadow="2"
     inkscape:window-width="1440"
     inkscape:window-height="808"
     id="namedview2987"
     showgrid="false"
     inkscape:zoom="7.8571429"
     inkscape:cx="-6.1814099"
     inkscape:cy="14.43059"
     inkscape:window-x="0"
     inkscape:window-y="0"
     inkscape:window-maximized="1"
     inkscape:current-layer="svg2985"
     fit-margin-top="0"
     fit-margin-left="0"
     fit-margin-right="0"
     fit-margin-bottom="0" />
  <path
     style="fill:#a30075;fill-opacity:1"
     d="m 1.0765046,8.6783778 c -0.89743802,0 -1.18948302,-0.391238 -1.03881202,-1.006679 0.150671,-0.615441 0.744058,-1.064303 1.71517602,-1.668029 1.063154,-0.660943 2.447497,-1.625385 3.395399,-2.597212 2.271116,-2.328442 2.485806,-3.33238397 7.7142814,-3.40344597 3.985691,-0.05417 5.932169,0.601523 8.706141,3.66673097 0.999785,1.104749 2.423046,2.008635 3.162803,2.008635 0.739756,0 1.345012,0.675 1.345012,1.5 0,0.825 -0.675,1.5 -1.5,1.5 l -1.5,28.0000002 -21.0000004,0 z M 20.076505,11.678378 c 0,-1.8222222 -0.666667,-2.0000002 -7.5,-2.0000002 -6.8333334,0 -7.5000004,0.177778 -7.5000004,2.0000002 0,1.822222 0.666667,2 7.5000004,2 6.833333,0 7.5,-0.177778 7.5,-2 z"
     id="path2995"
     inkscape:connector-curvature="0"
     sodipodi:nodetypes="csssssssccccsssss" />
</svg>
