<?xml version="1.0" encoding="UTF-8" standalone="no"?>
<!-- Generator: Adobe Illustrator 10, SVG Export Plug-In . SVG Version: 3.0.0 Build 76)  -->

<svg
   xmlns:i="http://ns.adobe.com/AdobeIllustrator/10.0/"
   xmlns:dc="http://purl.org/dc/elements/1.1/"
   xmlns:cc="http://creativecommons.org/ns#"
   xmlns:rdf="http://www.w3.org/1999/02/22-rdf-syntax-ns#"
   xmlns:svg="http://www.w3.org/2000/svg"
   xmlns="http://www.w3.org/2000/svg"
   xmlns:sodipodi="http://sodipodi.sourceforge.net/DTD/sodipodi-0.dtd"
   xmlns:inkscape="http://www.inkscape.org/namespaces/inkscape"
   enable-background="new 0 0 395.833 349"
   height="369"
   i:pageBounds="0 792 612 0"
   i:rulerOrigin="0 0"
   i:viewOrigin="82.6665 567.5"
   overflow="visible"
   space="preserve"
   viewBox="0 0 395.833 349"
   width="368"
   id="svg2"
   sodipodi:version="0.32"
   inkscape:version="0.48.2 r9819"
   sodipodi:docname="U26_no.svg"
   version="1.0">
  <title
     id="title2998">U26: Refuse Bin (Norwegian Version)</title>
  <defs
     id="defs40" />
  <sodipodi:namedview
     inkscape:window-height="808"
     inkscape:window-width="1440"
     inkscape:pageshadow="2"
     inkscape:pageopacity="0.0"
     guidetolerance="10.0"
     gridtolerance="10.0"
     objecttolerance="10.0"
     borderopacity="1.0"
     bordercolor="#666666"
     pagecolor="#ffffff"
     id="base"
     width="368px"
     inkscape:zoom="0.99636174"
     inkscape:cx="-324.34953"
     inkscape:cy="184.49997"
     inkscape:window-x="0"
     inkscape:window-y="0"
     inkscape:current-layer="Layer_1"
     height="369px"
     showgrid="false"
     inkscape:window-maximized="1" />
  <metadata
     id="metadata4">
    <rdf:RDF>
      <cc:Work
         rdf:about="">
        <dc:title>U26: Refuse Bin (Norwegian Version)</dc:title>
        <dc:description />
        <dc:subject>
          <rdf:Bag />
        </dc:subject>
        <dc:publisher>
          <cc:Agent
             rdf:about="http://www.openclipart.org">
            <dc:title />
          </cc:Agent>
        </dc:publisher>
        <dc:creator>
          <cc:Agent>
            <dc:title />
          </cc:Agent>
        </dc:creator>
        <dc:rights>
          <cc:Agent>
            <dc:title />
          </cc:Agent>
        </dc:rights>
        <dc:date />
        <dc:format>image/svg+xml</dc:format>
        <dc:type
           rdf:resource="http://purl.org/dc/dcmitype/StillImage" />
        <cc:license
           rdf:resource="http://creativecommons.org/licenses/publicdomain/" />
        <dc:language />
      </cc:Work>
      <cc:License
         rdf:about="http://creativecommons.org/licenses/publicdomain/">
        <cc:permits
           rdf:resource="http://creativecommons.org/ns#Reproduction" />
        <cc:permits
           rdf:resource="http://creativecommons.org/ns#Distribution" />
        <cc:permits
           rdf:resource="http://creativecommons.org/ns#DerivativeWorks" />
      </cc:License>
    </rdf:RDF>
  </metadata>
  <g
     i:dimmedPercent="50"
     i:knockout="Off"
     i:layer="yes"
     i:rgbTrio="#4F008000FFFF"
     id="Layer_1"
     transform="matrix(1.075633,0,0,1.075633,-40.69442,-13.19793)">
    <path
       d="M 395.333,174.5 C 395.333,270.598 317.654,348.5 221.833,348.5 C 126.012,348.5 48.333,270.598 48.333,174.5 C 48.333,78.402 126.012,0.5 221.833,0.5 C 317.655,0.5 395.333,78.402 395.333,174.5 z "
       i:knockout="Off"
       id="path7"
       style="fill:none;stroke:#a3007f;stroke-opacity:0.94117647000000004;stroke-width:9.30000132;stroke-miterlimit:4;stroke-dasharray:none" />
    <path
       d="M 286.333,53.5 C 286.333,67.307 274.469,78.5 259.833,78.5 C 245.197,78.5 233.333,67.307 233.333,53.5 C 233.333,39.693 245.197,28.5 259.833,28.5 C 274.469,28.5 286.333,39.693 286.333,53.5 z "
       i:knockout="Off"
       id="path9"
       style="fill:#a3007f;fill-opacity:0.94117647" />
    <path
       d="M 113.833,173 C 114.888,179.355 133.666,301.917 133.666,301.917 L 202,301.917 C 202,301.917 215.605,176.893 215.833,173 C 222.057,172.378 223.5,167 214.833,167 C 202.669,167 125.628,166.941 116.833,167 C 108.038,167.059 109,172.487 113.833,173 z "
       i:knockout="Off"
       id="path11"
       style="fill:#a3007f;fill-opacity:0.94117647000000004;stroke:#a3007f;stroke-opacity:0.94117647" />
    <path
       d="M 126.333,141.5 C 143.625,136.175 150.512,117.968 153.333,110.5 C 167.846,117.096 193.666,122.765 212.333,118.5 C 216.016,137.919 184.29,137.81 189.333,155.5 C 180.911,146.205 137.737,167.792 126.333,141.5 z "
       i:knockout="Off"
       id="path13"
       style="fill:#a3007f;fill-opacity:0.94117647" />
    <path
       d="M 151.333,82.5 L 290.333,81.5 C 289.733,84.921 323.966,138.997 319.333,148.5 C 315.244,148.918 252.333,153.5 252.333,153.5 C 258.442,144.121 239.333,110.5 239.333,110.5 L 151.333,82.5 z "
       i:knockout="Off"
       id="path15"
       style="fill:#a3007f;fill-opacity:0.94117647" />
    <path
       d="M 318.333,156.5 L 252.333,153.5 C 252.333,153.5 228.768,296.855 228.333,298.5 C 227.898,300.145 230.188,301.036 231.333,299.5 C 232.478,297.964 282.333,217.5 282.333,217.5 C 282.333,217.5 302.087,298.201 302.333,299.5 C 302.579,300.799 306.054,300.709 306.333,299.5 C 306.612,298.291 318.333,156.5 318.333,156.5 z "
       i:knockout="Off"
       id="path17"
       style="fill:#a3007f;fill-opacity:0.94117647" />
    <path
       d="M 136.857,297.945 L 198.356,297.945 C 198.356,297.945 217.256,172.47 209.457,172.47 C 207.632,172.47 123.015,172.458 121.257,172.47 C 113.342,172.523 136.857,297.945 136.857,297.945 z "
       i:knockout="Off"
       id="path19"
       style="fill:#a3007f;stroke:#a3007f;stroke-opacity:0.94117647000000004;fill-opacity:0.94117647" />
    <path
       i:knockout="Off"
       id="path21"
       style="fill:#1789e5"
       d="" />
    <path
       d="M 169.491,298.499 L 164.176,298.499 L 164.176,171.166 L 169.491,171.166 L 169.491,298.499 z "
       i:knockout="Off"
       id="path23"
       style="fill:#a3007f;fill-opacity:0.94117647" />
    <path
       d="M 189.59,298.87 L 184.541,298.461 L 192.913,171.116 L 197.962,171.525 L 189.59,298.87 z "
       i:knockout="Off"
       id="path25"
       style="fill:#a3007f;fill-opacity:0.94117647" />
    <path
       d="M 144.912,299.203 L 149.961,298.794 L 141.589,171.449 L 136.541,171.858 L 144.912,299.203 z "
       i:knockout="Off"
       id="path27"
       style="fill:#a3007f;fill-opacity:0.94117647" />
    <g
       id="g29">
      <path
         d="M 213.168,191.686 L 213.168,197.311 L 118.834,197.311 L 118.834,191.686 L 213.168,191.686 z "
         i:knockout="Off"
         id="path31"
         style="fill:#a3007f;fill-opacity:0.94117647" />
      <path
         d="M 209.834,219.02 L 209.834,224.645 L 123.167,224.645 L 123.167,219.02 L 209.834,219.02 z "
         i:knockout="Off"
         id="path33"
         style="fill:#a3007f;fill-opacity:0.94117647" />
      <path
         d="M 206.833,245.02 L 206.833,250.645 L 126.5,250.645 L 126.5,245.02 L 206.833,245.02 z "
         i:knockout="Off"
         id="path35"
         style="fill:#a3007f;fill-opacity:0.94117647" />
      <path
         d="M 203.5,271.02 L 203.5,276.645 L 130.5,276.645 L 130.5,271.02 L 203.5,271.02 z "
         i:knockout="Off"
         id="path37"
         style="fill:#a3007f;fill-opacity:0.94117647" />
    </g>
  </g>
</svg>
