<?xml version="1.0" encoding="UTF-8" standalone="no"?>
<!-- Created with Inkscape (http://www.inkscape.org/) -->

<svg
   xmlns:dc="http://purl.org/dc/elements/1.1/"
   xmlns:cc="http://creativecommons.org/ns#"
   xmlns:rdf="http://www.w3.org/1999/02/22-rdf-syntax-ns#"
   xmlns:svg="http://www.w3.org/2000/svg"
   xmlns="http://www.w3.org/2000/svg"
   xmlns:sodipodi="http://sodipodi.sourceforge.net/DTD/sodipodi-0.dtd"
   xmlns:inkscape="http://www.inkscape.org/namespaces/inkscape"
   version="1.0"
   width="120"
   height="120"
   id="svg2"
   inkscape:version="0.48.2 r9819"
   sodipodi:docname="U28.svg">
  <title
     id="title2982">U28: Parking for Boat Trailers</title>
  <metadata
     id="metadata3004">
    <rdf:RDF>
      <cc:Work
         rdf:about="">
        <dc:format>image/svg+xml</dc:format>
        <dc:type
           rdf:resource="http://purl.org/dc/dcmitype/StillImage" />
        <dc:title>U28: Parking for Boat Trailers</dc:title>
        <cc:license
           rdf:resource="http://creativecommons.org/licenses/publicdomain/" />
      </cc:Work>
      <cc:License
         rdf:about="http://creativecommons.org/licenses/publicdomain/">
        <cc:permits
           rdf:resource="http://creativecommons.org/ns#Reproduction" />
        <cc:permits
           rdf:resource="http://creativecommons.org/ns#Distribution" />
        <cc:permits
           rdf:resource="http://creativecommons.org/ns#DerivativeWorks" />
      </cc:License>
    </rdf:RDF>
  </metadata>
  <sodipodi:namedview
     pagecolor="#ffffff"
     bordercolor="#666666"
     borderopacity="1"
     objecttolerance="10"
     gridtolerance="10"
     guidetolerance="10"
     inkscape:pageopacity="0"
     inkscape:pageshadow="2"
     inkscape:window-width="1440"
     inkscape:window-height="808"
     id="namedview3002"
     showgrid="false"
     inkscape:zoom="6.4"
     inkscape:cx="5"
     inkscape:cy="60"
     inkscape:window-x="0"
     inkscape:window-y="0"
     inkscape:window-maximized="1"
     inkscape:current-layer="svg2"
     showguides="true"
     inkscape:guide-bbox="true" />
  <defs
     id="defs4" />
  <path
     style="fill:#a30075;fill-opacity:1;fill-rule:evenodd;stroke:none"
     d="m 58.875,12.28125 -1.40625,67.75 -43.96875,0 1.375,1.75 4.5,5.46875 5.15625,4.875 5.84375,4.125 6.375,3.3125 6.71875,2.46875 6.9375,1.5625 7.0625,0.6875 7.1875,-0.15625 7.09375,-1.0625 6.96875,-1.90625 6.5625,-2.78125 6.125,-3.65625 5.4375,-4.4375 5.0625,-4.96875 4.8125,-5.28125 -44.3125,0 L 61,12.28125 z m 11.8125,91 c -2.97716,0 -5.375,2.16862 -5.375,4.84375 0,2.67513 2.959293,4.84027 5.375,4.84375 2.415707,0.003 5.40625,-2.16862 5.40625,-4.84375 0,-2.67513 -2.42909,-4.84375 -5.40625,-4.84375 z m -47.87525,9.69325 c -0.08656,0 -0.15625,0.26305 -0.15625,0.3496 0,0.0866 0.06969,0.36341 0.15625,0.36341 l 87.1875,0 c 0.0866,0 0.15625,-0.27686 0.15625,-0.36341 0,-0.0866 -0.0697,-0.3496 -0.15625,-0.3496 z"
     id="path12043"
     inkscape:connector-curvature="0"
     sodipodi:nodetypes="ccccccccccccccccccccccssssssssssss" />
</svg>
