<?xml version="1.0" encoding="UTF-8" standalone="no"?>
<!-- Created with Inkscape (http://www.inkscape.org/) -->

<svg
   xmlns:dc="http://purl.org/dc/elements/1.1/"
   xmlns:cc="http://creativecommons.org/ns#"
   xmlns:rdf="http://www.w3.org/1999/02/22-rdf-syntax-ns#"
   xmlns:svg="http://www.w3.org/2000/svg"
   xmlns="http://www.w3.org/2000/svg"
   xmlns:sodipodi="http://sodipodi.sourceforge.net/DTD/sodipodi-0.dtd"
   xmlns:inkscape="http://www.inkscape.org/namespaces/inkscape"
   version="1.0"
   width="744.1875"
   height="387.47501"
   id="svg2"
   xml:space="preserve"
   inkscape:version="0.48.2 r9819"
   sodipodi:docname="U29.svg"><title
     id="title2994">U29: Caravan Site</title><metadata
     id="metadata24"><rdf:RDF><cc:Work
         rdf:about=""><dc:format>image/svg+xml</dc:format><dc:type
           rdf:resource="http://purl.org/dc/dcmitype/StillImage" /><dc:title>U29: Caravan Site</dc:title><cc:license
           rdf:resource="http://creativecommons.org/licenses/publicdomain/" /></cc:Work><cc:License
         rdf:about="http://creativecommons.org/licenses/publicdomain/"><cc:permits
           rdf:resource="http://creativecommons.org/ns#Reproduction" /><cc:permits
           rdf:resource="http://creativecommons.org/ns#Distribution" /><cc:permits
           rdf:resource="http://creativecommons.org/ns#DerivativeWorks" /></cc:License></rdf:RDF></metadata><sodipodi:namedview
     pagecolor="#ffffff"
     bordercolor="#666666"
     borderopacity="1"
     objecttolerance="10"
     gridtolerance="10"
     guidetolerance="10"
     inkscape:pageopacity="0"
     inkscape:pageshadow="2"
     inkscape:window-width="1440"
     inkscape:window-height="808"
     id="namedview22"
     showgrid="false"
     inkscape:zoom="2.1009175"
     inkscape:cx="204.54867"
     inkscape:cy="193.73876"
     inkscape:window-x="0"
     inkscape:window-y="0"
     inkscape:window-maximized="1"
     inkscape:current-layer="g17" /><defs
     id="defs5"><clipPath
       id="clipPath19"><path
         d="M 0.496094,0.496094 L 5953.25,0.496094 L 5953.25,3099.32 L 0.496094,3099.32 L 0.496094,0.496094 z"
         id="path21" /></clipPath></defs><g
     transform="matrix(1.25,0,0,-1.25,0,387.475)"
     id="g11"><g
       transform="scale(0.1,0.1)"
       id="g13"><g
         id="g15"><g
           clip-path="url(#clipPath19)"
           id="g17"
           transform="matrix(0.96859854,0,0,1,0.01557808,0)"><path
             d="m 1136.1171,122.945 3602.4289,0 0,2685.8917 -3602.4289,0 0,-2685.8917 z"
             id="path27"
             style="fill:#ffffff;fill-opacity:0;fill-rule:nonzero;stroke:none"
             inkscape:connector-curvature="0" /><path
             style="fill:#a30075;fill-opacity:1;fill-rule:nonzero;stroke:none"
             d="M 335.8125 74.90625 C 323.05033 75.003973 310.31054 75.475 297.5625 76.3125 C 281.15686 77.15625 264.78387 79.01 248.59375 81.875 C 236.41604 84.17375 224.60763 88.16875 213.46875 93.75 C 207.13775 96.88 201.39407 101.11625 196.46875 106.28125 C 195.19262 107.73875 194.03398 109.29 193 110.9375 C 190.87756 114.12625 189.5129 117.81625 189.0625 121.65625 C 186.79961 161.7075 184.39624 201.75 181.8125 241.78125 C 181.44564 251.0125 184.56226 260.02312 190.53125 266.90625 L 157.25 266.90625 L 157.25 278.71875 L 327.28125 278.71875 C 329.49087 266.16012 337.14882 255.3375 348.0625 249.34375 C 356.13819 244.8525 365.52011 243.52125 374.46875 245.59375 C 390.32108 249.26625 402.55893 262.2595 405.6875 278.71875 L 503.84375 278.71875 C 512.42553 278.79337 520.73202 275.59475 527.15625 269.71875 C 534.16769 263.3335 538.53497 254.4 539.34375 244.78125 L 533.0625 133.53125 C 532.92811 129.84125 532.15401 126.20375 530.8125 122.78125 C 527.23353 115.9375 522.00806 110.16125 515.625 106.03125 C 506.75264 100.33375 497.20984 95.875 487.21875 92.71875 C 465.14197 86.56 442.61043 82.1725 419.875 79.625 C 391.96165 76.266563 363.88926 74.691259 335.8125 74.90625 z M 258.9375 132.625 L 307.625 132.625 C 309.51619 132.625 311.32079 133.4025 312.65625 134.78125 C 313.99292 136.16125 314.75 138.04875 314.75 140 L 314.75 176.46875 C 314.75 178.42 313.99292 180.31 312.65625 181.6875 C 311.32079 183.06875 309.51619 183.84375 307.625 183.84375 L 258.9375 183.84375 C 257.04631 183.84375 255.21167 183.06875 253.875 181.6875 C 252.53833 180.31 251.78125 178.42 251.78125 176.46875 L 251.78125 140 C 251.78125 138.04875 252.53833 136.16125 253.875 134.78125 C 255.21167 133.4025 257.04631 132.625 258.9375 132.625 z M 413.875 132.625 L 484.5 132.625 C 486.38998 132.625 488.19579 133.4025 489.53125 134.78125 C 490.87034 136.16125 491.625 138.04875 491.625 140 L 491.625 176.46875 C 491.625 178.42 490.87034 180.31 489.53125 181.6875 C 488.19579 183.06875 486.38998 183.84375 484.5 183.84375 L 413.875 183.84375 C 411.9826 183.84375 410.18042 183.06875 408.84375 181.6875 C 407.50829 180.31 406.75 178.42 406.75 176.46875 L 406.75 140 C 406.75 138.04875 407.50829 136.16125 408.84375 134.78125 C 410.18042 133.4025 411.9826 132.625 413.875 132.625 z "
             transform="matrix(8.2593558,0,0,-8,-0.01608311,3099.8)"
             id="path31" /><path
             d="m 3350.8,869.996 c -25.84,131.674 -127.03,235.644 -257.96,265.024 -73.91,16.58 -151.32,5.91 -218.02,-30.02 -90.14,-47.95 -153.37,-134.535 -171.62,-235.004 l -1404.32,0 0,94.559 274.81,0 c -49.3,55.065 -75.18,127.195 -72.15,201.045 21.34,320.25 41.35,640.59 60.04,961 3.72,30.72 14.81,60.07 32.34,85.58 8.54,13.18 18.13,25.64 28.67,37.3 40.68,41.32 88.24,75.28 140.53,100.32 92,44.65 189.63,76.59 290.21,94.98 133.72,22.92 268.72,37.79 404.22,44.54 336.93,21.44 675.09,12.56 1010.43,-26.52 187.78,-20.38 373.71,-55.37 556.05,-104.64 82.52,-25.25 161.42,-61.12 234.7,-106.7 52.72,-33.04 95.98,-79.19 125.54,-133.94 11.08,-27.38 17.31,-56.45 18.42,-85.97 l 51.85,-890.05 c -6.68,-76.95 -42.72,-148.344 -100.63,-199.426 -53.06,-47.008 -121.68,-72.687 -192.56,-72.09 l -811.6,0 1.05,0 0,0.012 z"
             id="path33"
             style="fill:none;stroke:#a30075;stroke-width:7.07818985;stroke-linecap:round;stroke-linejoin:round;stroke-miterlimit:500;stroke-opacity:1;stroke-dasharray:none"
             inkscape:connector-curvature="0" /><path
             d="m 3314.3,811.785 c 0,158.883 -128.78,287.665 -287.66,287.665 -158.86,0 -287.64,-128.782 -287.64,-287.665 0,-158.867 128.78,-287.648 287.64,-287.648 158.88,0 287.66,128.781 287.66,287.648"
             id="path35"
             style="fill:#a30075;fill-opacity:1;fill-rule:nonzero;stroke:none"
             inkscape:connector-curvature="0" /><path
             d="m 3314.3,811.785 c 0,158.883 -128.78,287.665 -287.66,287.665 -158.86,0 -287.64,-128.782 -287.64,-287.665 0,-158.867 128.78,-287.648 287.64,-287.648 158.88,0 287.66,128.781 287.66,287.648 z"
             id="path37"
             style="fill:none;stroke:#a30075;stroke-width:7.07818985;stroke-linecap:round;stroke-linejoin:round;stroke-miterlimit:500;stroke-opacity:1;stroke-dasharray:none"
             inkscape:connector-curvature="0" /><path
             d="m 4001.71,1629.12 c 15.61,0 30.58,6.2 41.61,17.25 11.06,11.02 17.25,26 17.25,41.61 l 0,291.94 c 0,15.61 -6.19,30.58 -17.25,41.62 -11.03,11.03 -26,17.24 -41.61,17.24 l -583.28,0 c -15.63,0 -30.59,-6.21 -41.63,-17.24 -11.03,-11.04 -17.25,-26.01 -17.25,-41.62 l 0,-291.94 c 0,-15.61 6.22,-30.59 17.25,-41.61 11.04,-11.05 26,-17.25 41.63,-17.25 l 583.28,0 z"
             id="path41"
             style="fill:none;stroke:#a30075;stroke-width:7.07818985;stroke-linecap:round;stroke-linejoin:round;stroke-miterlimit:500;stroke-opacity:1;stroke-dasharray:none"
             inkscape:connector-curvature="0" /><path
             d="m 2540.66,1629.12 c 15.62,0 30.59,6.2 41.62,17.25 11.04,11.02 17.24,26 17.24,41.61 l 0,291.94 c 0,15.61 -6.2,30.58 -17.24,41.62 -11.03,11.03 -26,17.24 -41.62,17.24 l -402.13,0 c -15.62,0 -30.58,-6.21 -41.62,-17.24 -11.04,-11.04 -17.25,-26.01 -17.25,-41.62 l 0,-291.94 c 0,-15.61 6.21,-30.59 17.25,-41.61 11.04,-11.05 26,-17.25 41.62,-17.25 l 402.13,0 z"
             id="path45"
             style="fill:none;stroke:#a30075;stroke-width:7.07818985;stroke-linecap:round;stroke-linejoin:round;stroke-miterlimit:500;stroke-opacity:1;stroke-dasharray:none"
             inkscape:connector-curvature="0" /></g></g></g></g></svg>