<?xml version="1.0" encoding="UTF-8" standalone="no"?>
<!-- Created with Inkscape (http://www.inkscape.org/) -->

<svg
   xmlns:dc="http://purl.org/dc/elements/1.1/"
   xmlns:cc="http://creativecommons.org/ns#"
   xmlns:rdf="http://www.w3.org/1999/02/22-rdf-syntax-ns#"
   xmlns:svg="http://www.w3.org/2000/svg"
   xmlns="http://www.w3.org/2000/svg"
   xmlns:sodipodi="http://sodipodi.sourceforge.net/DTD/sodipodi-0.dtd"
   xmlns:inkscape="http://www.inkscape.org/namespaces/inkscape"
   width="677"
   height="529"
   id="svg3759"
   version="1.1"
   inkscape:version="0.48.2 r9819"
   sodipodi:docname="U3.svg">
  <title
     id="title2985">U3: Visitor's Mooring</title>
  <defs
     id="defs3761" />
  <sodipodi:namedview
     id="base"
     pagecolor="#ffffff"
     bordercolor="#666666"
     borderopacity="1.0"
     inkscape:pageopacity="0.0"
     inkscape:pageshadow="2"
     inkscape:zoom="0.4520661"
     inkscape:cx="-406.59995"
     inkscape:cy="526.18109"
     inkscape:document-units="px"
     inkscape:current-layer="layer1"
     showgrid="false"
     inkscape:window-width="1440"
     inkscape:window-height="808"
     inkscape:window-x="0"
     inkscape:window-y="0"
     inkscape:window-maximized="1" />
  <metadata
     id="metadata3764">
    <rdf:RDF>
      <cc:Work
         rdf:about="">
        <dc:format>image/svg+xml</dc:format>
        <dc:type
           rdf:resource="http://purl.org/dc/dcmitype/StillImage" />
        <dc:title>U3: Visitor's Mooring</dc:title>
        <cc:license
           rdf:resource="http://creativecommons.org/licenses/publicdomain/" />
      </cc:Work>
      <cc:License
         rdf:about="http://creativecommons.org/licenses/publicdomain/">
        <cc:permits
           rdf:resource="http://creativecommons.org/ns#Reproduction" />
        <cc:permits
           rdf:resource="http://creativecommons.org/ns#Distribution" />
        <cc:permits
           rdf:resource="http://creativecommons.org/ns#DerivativeWorks" />
      </cc:License>
    </rdf:RDF>
  </metadata>
  <g
     inkscape:label="Layer 1"
     inkscape:groupmode="layer"
     id="layer1"
     transform="translate(0,-523.36218)">
    <g
       id="g26234"
       transform="translate(-1.9375,278.92468)">
      <path
         sodipodi:nodetypes="sscscccccscccccscsssssssccssssc"
         inkscape:connector-curvature="0"
         id="path3767"
         d="m 364.75,244.875 c -15.08106,0 -27.3125,12.20019 -27.3125,27.28125 0,9.92218 5.30326,18.62464 13.21875,23.40625 -142.89805,6.54234 -256.375,105.59568 -256.375,226.8125 0,83.42887 53.77206,156.32636 133.875,195.8125 l -226.21875,0.65625 0,13.625 258.34375,-0.71875 c 19.46276,6.8705 40.0934,11.86853 61.5625,14.78125 0.21788,14.89315 12.33628,26.90625 27.28125,26.90625 14.00648,0 25.55109,-10.54063 27.125,-24.125 34.19576,-1.09111 66.7767,-7.46066 96.59375,-18.1875 l 205.9375,-0.59375 0,-13.65625 -173.84375,0.5 c 79.19092,-39.67013 132.21875,-112.14482 132.21875,-195 0,-121.72076 -114.41984,-221.1102 -258.15625,-226.90625 7.82831,-4.80123 13.03125,-13.45613 13.03125,-23.3125 0,-15.08106 -12.20019,-27.28125 -27.28125,-27.28125 z m 0.91767,8.48558 c 5.63453,0 14.51442,9.24539 14.51442,16.65925 0,7.41386 -9.95381,17.70193 -15.58834,17.70193 -5.63453,0 -16.63101,-9.21415 -16.63101,-16.62801 0,-7.41386 6.70081,-17.73317 17.70493,-17.73317 z M 347.8125,726.59375 c 0.40262,-0.002 0.83076,0.0152 1.25,0.0312 11.33695,0.4336 17.14483,4.87773 18.21875,17.78125 1.07022,12.85906 -12.29405,20.5625 -18.21875,20.5625 -11.29429,0 -18.28125,-8.74431 -18.28125,-19.5 0,-10.41957 4.54995,-18.8257 17.03125,-18.875 z"
         style="fill:#a30075;fill-opacity:1;stroke:none" />
      <path
         inkscape:connector-curvature="0"
         id="path4277"
         d="m 240,400.93361 80,242.85714 40,-2.85714 L 491.42857,375.21933 440,386.6479 l -100,220 -62.85714,-214.28572 z"
         style="fill:#ffffff;fill-opacity:1;stroke:#000000;stroke-width:1px;stroke-linecap:butt;stroke-linejoin:miter;stroke-opacity:0" />
    </g>
  </g>
</svg>
