<?xml version="1.0" encoding="UTF-8" standalone="no"?>
<svg
   xmlns:dc="http://purl.org/dc/elements/1.1/"
   xmlns:cc="http://creativecommons.org/ns#"
   xmlns:rdf="http://www.w3.org/1999/02/22-rdf-syntax-ns#"
   xmlns:svg="http://www.w3.org/2000/svg"
   xmlns="http://www.w3.org/2000/svg"
   xmlns:sodipodi="http://sodipodi.sourceforge.net/DTD/sodipodi-0.dtd"
   xmlns:inkscape="http://www.inkscape.org/namespaces/inkscape"
   version="1.1"
   width="60"
   height="60"
   id="svg7527"
   inkscape:version="0.48.2 r9819"
   sodipodi:docname="U9.svg">
  <title
     id="title2985">U9: Boatyard (NOT OFFICIAL)</title>
  <metadata
     id="metadata7540">
    <rdf:RDF>
      <cc:Work
         rdf:about="">
        <dc:format>image/svg+xml</dc:format>
        <dc:type
           rdf:resource="http://purl.org/dc/dcmitype/StillImage" />
        <dc:title>U9: Boatyard (NOT OFFICIAL)</dc:title>
        <cc:license
           rdf:resource="http://creativecommons.org/licenses/publicdomain/" />
      </cc:Work>
      <cc:License
         rdf:about="http://creativecommons.org/licenses/publicdomain/">
        <cc:permits
           rdf:resource="http://creativecommons.org/ns#Reproduction" />
        <cc:permits
           rdf:resource="http://creativecommons.org/ns#Distribution" />
        <cc:permits
           rdf:resource="http://creativecommons.org/ns#DerivativeWorks" />
      </cc:License>
    </rdf:RDF>
  </metadata>
  <defs
     id="defs7538" />
  <sodipodi:namedview
     pagecolor="#ffffff"
     bordercolor="#666666"
     borderopacity="1"
     objecttolerance="10"
     gridtolerance="10"
     guidetolerance="10"
     inkscape:pageopacity="0"
     inkscape:pageshadow="2"
     inkscape:window-width="719"
     inkscape:window-height="494"
     id="namedview7536"
     showgrid="false"
     inkscape:zoom="4.3"
     inkscape:cx="-10.930233"
     inkscape:cy="30"
     inkscape:window-x="0"
     inkscape:window-y="0"
     inkscape:window-maximized="0"
     inkscape:current-layer="svg7527" />
  <symbol
     id="boatyard"
     width="60"
     height="60">
    <path
       d="m 18.430085,4.9258399 -3.53125,3.5625 3.53125,3.5000001 c 0.26609,0.24013 0.48436,0.50473 0.6875,0.78125 l -0.78125,6.15625 -6.125,0.84375 c -0.15744,-0.11254 -0.32113,-0.21052 -0.46875,-0.34375 -0.12328,-0.11125 -0.26313,-0.22062 -0.375,-0.34375 l 0,-0.0312 -0.0312,0 -3.5000001,-3.5 -3.53125,3.53125 3.34375,3.3125 c 0.23176,0.25757 0.4932,0.51825 0.7499997,0.75 2.9965504,2.70442 7.2244704,3.23868 10.7187504,1.71875 0.0957,0.12309 0.16803,0.26178 0.28125,0.375 l 26.46875,26.46875 c 1.46216,1.46216 3.81909,1.46216 5.28125,0 1.46217,-1.46217 1.46216,-3.81908 0,-5.28125 l -26.4688,-26.4688 c -0.12185,-0.12185 -0.2418,-0.21096 -0.375,-0.3125 1.57723,-3.73691 0.75838,-8.23208 -2.3125,-11.1562501 l -3.5625,-3.5625 z"
       style="fill:#a30075"
       id="path7532" />
  </symbol>
  <g
     id="use7534">
    <path
       id="path2986"
       style="fill:#a30075"
       d="m 18.430085,4.9258399 -3.53125,3.5625 3.53125,3.5000001 c 0.26609,0.24013 0.48436,0.50473 0.6875,0.78125 l -0.78125,6.15625 -6.125,0.84375 c -0.15744,-0.11254 -0.32113,-0.21052 -0.46875,-0.34375 -0.12328,-0.11125 -0.26313,-0.22062 -0.375,-0.34375 l 0,-0.0312 -0.0312,0 -3.5000001,-3.5 -3.53125,3.53125 3.34375,3.3125 c 0.23176,0.25757 0.4932,0.51825 0.7499997,0.75 2.9965504,2.70442 7.2244704,3.23868 10.7187504,1.71875 0.0957,0.12309 0.16803,0.26178 0.28125,0.375 l 26.46875,26.46875 c 1.46216,1.46216 3.81909,1.46216 5.28125,0 1.46217,-1.46217 1.46216,-3.81908 0,-5.28125 l -26.4688,-26.4688 c -0.12185,-0.12185 -0.2418,-0.21096 -0.375,-0.3125 1.57723,-3.73691 0.75838,-8.23208 -2.3125,-11.1562501 l -3.5625,-3.5625 z"
       inkscape:connector-curvature="0" />
  </g>
</svg>
