<?xml version="1.0" encoding="UTF-8" standalone="no"?>
<svg
   xmlns:dc="http://purl.org/dc/elements/1.1/"
   xmlns:cc="http://creativecommons.org/ns#"
   xmlns:rdf="http://www.w3.org/1999/02/22-rdf-syntax-ns#"
   xmlns:svg="http://www.w3.org/2000/svg"
   xmlns="http://www.w3.org/2000/svg"
   xmlns:sodipodi="http://sodipodi.sourceforge.net/DTD/sodipodi-0.dtd"
   xmlns:inkscape="http://www.inkscape.org/namespaces/inkscape"
   version="1.1"
   width="15"
   id="hospital"
   viewBox="0 0 14 14"
   stroke="#a3007f"
   stroke-width="3px"
   fill="none"
   height="15"
   inkscape:version="0.48.2 r9819"
   sodipodi:docname="Ua_no.svg">
  <title
     id="title2985">Ua: Bathing Place (Norwegian Symbol)</title>
  <metadata
     id="metadata11">
    <rdf:RDF>
      <cc:Work
         rdf:about="">
        <dc:format>image/svg+xml</dc:format>
        <dc:type
           rdf:resource="http://purl.org/dc/dcmitype/StillImage" />
        <dc:title>Ua: Bathing Place (Norwegian Symbol)</dc:title>
        <cc:license
           rdf:resource="http://creativecommons.org/licenses/publicdomain/" />
      </cc:Work>
      <cc:License
         rdf:about="http://creativecommons.org/licenses/publicdomain/">
        <cc:permits
           rdf:resource="http://creativecommons.org/ns#Reproduction" />
        <cc:permits
           rdf:resource="http://creativecommons.org/ns#Distribution" />
        <cc:permits
           rdf:resource="http://creativecommons.org/ns#DerivativeWorks" />
      </cc:License>
    </rdf:RDF>
  </metadata>
  <defs
     id="defs9" />
  <sodipodi:namedview
     pagecolor="#ffffff"
     bordercolor="#a3007f"
     borderopacity="1"
     objecttolerance="10"
     gridtolerance="10"
     guidetolerance="10"
     inkscape:pageopacity="0"
     inkscape:pageshadow="2"
     inkscape:window-width="1440"
     inkscape:window-height="808"
     id="namedview7"
     showgrid="false"
     inkscape:zoom="36.666667"
     inkscape:cx="2.7"
     inkscape:cy="7.5"
     inkscape:window-x="0"
     inkscape:window-y="0"
     inkscape:window-maximized="1"
     inkscape:current-layer="hospital" />
  <circle
     d="m 13.5,7 c 0,3.589851 -2.910149,6.5 -6.5,6.5 C 3.4101491,13.5 0.5,10.589851 0.5,7 0.5,3.4101491 3.4101491,0.5 7,0.5 c 3.589851,0 6.5,2.9101491 6.5,6.5 z"
     cx="7"
     cy="7"
     r="6.5"
     id="circle5"
     sodipodi:cx="7"
     sodipodi:cy="7"
     sodipodi:rx="6.5"
     sodipodi:ry="6.5"
     transform="matrix(1.028298,0,0,1.025837,-0.17193573,-0.16415666)"
     style="stroke:#a30075;stroke-width:0.69999999000000002px;stroke-opacity:1;fill:#ffffff;fill-opacity:0" />
  <path
     inkscape:connector-curvature="0"
     id="path16"
     d="M 10.422033,7.0935628 C 10.000901,7.1083559 9.5797678,6.9959281 9.2179495,6.7740312 9.0607662,6.7030242 8.8976514,6.6616034 8.7256394,6.6616034 c -0.1720119,0 -0.3351267,0.041421 -0.4834129,0.1124278 -0.7117736,0.434918 -1.6014907,0.434918 -2.3132643,0 C 5.7747446,6.7030242 5.608664,6.6616034 5.4396178,6.6616034 c -0.172012,0 -0.3351267,0.041421 -0.4834129,0.1124278 C 4.6062495,6.981135 4.2058768,7.0935628 3.7936413,7.0935628 L 4.1139394,6.8095347 C 4.3215401,6.5905964 4.5410036,6.3923685 4.7782615,6.2148509 4.9057876,6.0935473 5.0689024,6.0018299 5.2409143,5.9574505 l 0.397407,-0.142014 0.3974069,-0.142014 C 6.1662201,5.6231258 6.2640889,5.5047808 6.2878147,5.3686838 l 0.026692,-0.2278142 c 0,-0.00592 0,-0.00592 0,-0.00592 0,-0.014793 0,-0.029586 -0.00593,-0.044379 -0.0089,-0.026628 -0.02076,-0.056214 -0.044486,-0.076924 -0.011863,-0.014793 -0.026692,-0.029586 -0.04152,-0.035503 -0.014829,-0.00592 -0.035589,-0.014793 -0.050417,-0.02071 L 5.8933735,4.8509243 C 5.866682,4.8361312 5.8370248,4.8302139 5.8103332,4.8154208 5.7450873,4.7858345 5.69467,4.7237034 5.69467,4.6526964 5.6887386,4.5521031 5.6679785,4.4603857 5.6442527,4.3597924 5.6027326,4.2532819 5.5612125,4.1319782 5.5315552,4.0195504 c -0.014829,-0.1213036 -0.014829,-0.2337314 0,-0.3491178 l 0.014829,-0.1420141 0.02076,-0.142014 c 0.00593,-0.041421 0.00593,-0.0858 0.00593,-0.1213036 0,-0.1124278 -0.026691,-0.2189384 -0.077109,-0.3106558 C 5.3120917,2.5491134 5.3832691,2.0875678 5.6679785,1.7532431 5.69467,1.7236568 5.7243273,1.6970292 5.7599159,1.6763188 5.9942081,1.5106356 6.2640889,1.4130009 6.5458327,1.3627043 c 0.4270642,-0.056214 0.8630255,-0.00592 1.2604325,0.142014 0.065246,0.029586 0.1304918,0.06509 0.192772,0.1005935 0.1631148,0.118345 0.2995381,0.284028 0.385544,0.4674628 0.02076,0.041421 0.035589,0.091717 0.050417,0.1420141 0.097869,0.411249 0.1542177,0.8254566 0.1631148,1.2514987 v 0.1627244 c 0,0.00592 0,0.014793 0,0.026628 -0.02076,0.1716003 -0.086006,0.3343247 -0.1779434,0.4852146 L 8.1147004,4.679324 c -0.035589,0.071048 -0.059315,0.1568072 -0.059315,0.2337314 0,0.00888 0,0.014793 0,0.023669 V 5.185249 c 0,0.076924 0.029657,0.1420141 0.080075,0.1982279 0.026692,0.02071 0.050417,0.035504 0.077109,0.050297 0.014829,0.011834 0.035589,0.02071 0.050417,0.035504 0.1364233,0.076924 0.2698808,0.1538485 0.4122355,0.2278142 L 9.1616008,5.945616 c 0.3766469,0.1893521 0.696945,0.4615456 0.9519972,0.7929117 l 0.314367,0.3550351 h -0.0059 z"
     style="fill:#a30075;fill-opacity:1;stroke:none" />
  <path
     inkscape:connector-curvature="0"
     id="path18"
     d="m 2.2099449,8.4841169 c 0.1512519,-0.02071 0.3084353,0.023669 0.4359614,0.1094692 0.3499554,0.2130211 0.7473623,0.3254488 1.1536664,0.3254488 0.4122356,0 0.8126083,-0.1124277 1.1595979,-0.3254488 0.3084352,-0.1449727 0.6643221,-0.1449727 0.975723,0 0.3499554,0.2130211 0.7443966,0.3254488 1.1507008,0.3254488 0.4122355,0 0.8126082,-0.1124277 1.1625636,-0.3254488 0.3054695,-0.1449727 0.6613563,-0.1449727 0.9727573,0 0.3440239,0.2130211 0.750328,0.3254488 1.1536667,0.3254488 0.406304,0 0.812608,-0.1124277 1.162563,-0.3254488 0.121595,-0.0858 0.275813,-0.1301795 0.427064,-0.1094692 V 7.2207837 c -0.02076,0 -0.04448,0 -0.06525,0 -0.133458,0 -0.255053,0.035503 -0.370716,0.1065105 -0.702876,0.434918 -1.6014906,0.434918 -2.3073327,0 C 9.0666976,7.2562872 8.9006171,7.2207837 8.7315709,7.2207837 c -0.172012,0 -0.3351268,0.035503 -0.4834129,0.1065105 -0.7147394,0.434918 -1.6044564,0.434918 -2.3132644,0 C 5.7777103,7.2562872 5.6145955,7.2207837 5.4455493,7.2207837 c -0.172012,0 -0.3351268,0.035503 -0.4863787,0.1065105 -0.7117736,0.434918 -1.6014907,0.434918 -2.3132643,0 C 2.5391402,7.2562872 2.4116141,7.2207837 2.2751908,7.2207837 c -0.02076,0 -0.04152,0 -0.065246,0 v 1.2633332 z"
     style="fill:#a30075;fill-opacity:1;stroke-width:0.12342385" />
  <path
     inkscape:connector-curvature="0"
     id="path20"
     d="m 11.961244,10.640955 c -0.02373,0 -0.04449,0 -0.06525,0 -0.136423,0 -0.258018,0.0355 -0.370716,0.106511 -0.705842,0.431959 -1.6014903,0.431959 -2.3073325,0.0059 -0.1571833,-0.07692 -0.3202981,-0.112428 -0.4923101,-0.112428 -0.1690462,0 -0.332161,0.0355 -0.4834129,0.106511 -0.7117736,0.431959 -1.6014907,0.431959 -2.3102986,0.0059 -0.1571833,-0.07692 -0.3202981,-0.112428 -0.4923101,-0.112428 -0.1690462,0 -0.3351267,0.0355 -0.4834129,0.106511 -0.7117737,0.431959 -1.6014907,0.431959 -2.3132643,0.0059 -0.1067661,-0.07692 -0.2372579,-0.112428 -0.3707155,-0.112428 -0.02076,0 -0.044486,0 -0.065246,0 V 9.3864978 c 0.1512519,-0.023669 0.3054695,0.02071 0.4359614,0.1065105 0.3469896,0.2130211 0.7473623,0.3254489 1.1536664,0.3254489 0.4122356,0 0.8096425,-0.1124278 1.1595979,-0.3254489 0.3054695,-0.142014 0.6613563,-0.142014 0.975723,0 0.3499554,0.2130211 0.7443966,0.3254489 1.1507007,0.3254489 0.4122356,0 0.8126083,-0.1124278 1.1595979,-0.3254489 0.3054695,-0.142014 0.6613563,-0.142014 0.975723,0 0.3410582,0.2130211 0.7473624,0.3254489 1.1536666,0.3254489 0.406304,0 0.812608,-0.1124278 1.159598,-0.3254489 0.121595,-0.0858 0.278778,-0.1301795 0.43003,-0.1065105 v 1.2544572 z"
     style="fill:#a30075;fill-opacity:1;stroke-width:0.12342385" />
</svg>
