<?xml version="1.0" encoding="UTF-8" standalone="no"?>
<!-- Created with Inkscape (http://www.inkscape.org/) -->

<svg
   xmlns:dc="http://purl.org/dc/elements/1.1/"
   xmlns:cc="http://creativecommons.org/ns#"
   xmlns:rdf="http://www.w3.org/1999/02/22-rdf-syntax-ns#"
   xmlns:svg="http://www.w3.org/2000/svg"
   xmlns="http://www.w3.org/2000/svg"
   xmlns:sodipodi="http://sodipodi.sourceforge.net/DTD/sodipodi-0.dtd"
   xmlns:inkscape="http://www.inkscape.org/namespaces/inkscape"
   width="518"
   height="518"
   id="svg2"
   version="1.1"
   inkscape:version="0.48.2 r9819"
   sodipodi:docname="Ub_no.svg">
  <title
     id="title2992">Ub: Nature Reserve (Norwegian Version)</title>
  <defs
     id="defs4">
    <inkscape:perspective
       id="perspective27"
       inkscape:persp3d-origin="67.851997 : 37.699666 : 1"
       inkscape:vp_z="135.70399 : 56.5495 : 1"
       inkscape:vp_y="0 : 1000 : 0"
       inkscape:vp_x="0 : 56.5495 : 1"
       sodipodi:type="inkscape:persp3d" />
  </defs>
  <sodipodi:namedview
     id="base"
     pagecolor="#ffffff"
     bordercolor="#666666"
     borderopacity="1.0"
     inkscape:pageopacity="0.0"
     inkscape:pageshadow="2"
     inkscape:zoom="0.94015444"
     inkscape:cx="-115.40657"
     inkscape:cy="259"
     inkscape:document-units="px"
     inkscape:current-layer="layer1"
     showgrid="false"
     inkscape:window-width="1440"
     inkscape:window-height="808"
     inkscape:window-x="0"
     inkscape:window-y="0"
     inkscape:window-maximized="1" />
  <metadata
     id="metadata7">
    <rdf:RDF>
      <cc:Work
         rdf:about="">
        <dc:format>image/svg+xml</dc:format>
        <dc:type
           rdf:resource="http://purl.org/dc/dcmitype/StillImage" />
        <dc:title>Ub: Nature Reserve (Norwegian Version)</dc:title>
        <cc:license
           rdf:resource="http://creativecommons.org/licenses/publicdomain/" />
      </cc:Work>
      <cc:License
         rdf:about="http://creativecommons.org/licenses/publicdomain/">
        <cc:permits
           rdf:resource="http://creativecommons.org/ns#Reproduction" />
        <cc:permits
           rdf:resource="http://creativecommons.org/ns#Distribution" />
        <cc:permits
           rdf:resource="http://creativecommons.org/ns#DerivativeWorks" />
      </cc:License>
    </rdf:RDF>
  </metadata>
  <g
     inkscape:label="Layer 1"
     inkscape:groupmode="layer"
     id="layer1"
     transform="translate(0,-534.36218)">
    <flowRoot
       xml:space="preserve"
       id="flowRoot3763"
       style="font-size:40px;font-style:normal;font-weight:normal;line-height:125%;letter-spacing:0px;word-spacing:0px;fill:#000000;fill-opacity:1;stroke:none;font-family:Sans"><flowRegion
         id="flowRegion3765"><rect
           id="rect3767"
           width="16.127478"
           height="76.84269"
           x="234.32277"
           y="406.31439" /></flowRegion><flowPara
         id="flowPara3769" /></flowRoot>    <path
       style="fill-rule:evenodd;overflow:visible"
       d="m 347.90625,753.25 c 0.0136,0.044 0.0489,0.081 0.0625,0.125 0.32312,-0.0988 0.2046,-0.10456 -0.0625,-0.125 z"
       id="path3"
       inkscape:connector-curvature="0" />
    <g
       id="g3780"
       transform="translate(-90.791733,291.75617)">
      <path
         id="path3778"
         d="m 394.875,368.90625 c -9.48099,0.19265 -18.76311,2.24136 -27.25,6.5 -24.06851,12.07799 -37.23273,38.18384 -53.8125,58.15625 -19.1852,23.1138 -41.86719,22.12389 -69.6875,25.21875 -12.20825,1.35855 -30.21875,3.02367 -30.21875,19.5625 0,24.78127 45.36749,21.18146 62.5,22.125 17.68522,-3.06509 34.21242,-8.94231 51.25,-14.40625 C 347.26763,479.77228 361.60578,481.90264 383,484 c -3.52848,36.76434 2.91458,73.35756 -5.125,109.625 -7.80882,35.22528 -31.96128,64.55444 -35.875,101.40625 -2.09024,19.67661 0.1141,39.01266 5.65625,57.375 0.1532,0 0.34679,0.0625 0.5,0.0625 0.2298,0 0.46949,0.0727 0.6875,0 0.48749,-0.1625 0.88751,-0.525 1.375,-0.6875 0.21801,-0.0727 0.4577,0 0.6875,0 l 2.0625,0 5.53125,0 15.15625,0 8.28125,0 2.0625,0 c 0.45961,0 0.93898,0.14534 1.375,0 0.30832,-0.10277 0.37919,-0.58473 0.6875,-0.6875 0.43603,-0.14534 0.91539,0 1.375,0 0.2298,0 0.46949,0.0727 0.6875,0 0.48749,-0.1625 0.91876,-0.52501 1.40625,-0.6875 0.21801,-0.0727 0.52501,0.16249 0.6875,0 0.1625,-0.1625 -0.20554,-0.58472 0,-0.6875 0.41109,-0.20554 0.93898,0.14535 1.375,0 0.30831,-0.10277 0.4577,-0.45769 0.6875,-0.6875 l 0.6875,-0.6875 c 0.22981,-0.22981 0.39682,-0.54216 0.6875,-0.6875 0.41108,-0.20555 0.96392,0.20554 1.375,0 0.29069,-0.14535 0.39681,-0.57341 0.6875,-0.71875 0.20554,-0.10277 0.4577,0 0.6875,0 l 0.6875,0 c 0.22981,0 0.525,0.1625 0.6875,0 0.16249,-0.16249 -0.1625,-0.525 0,-0.6875 0.16249,-0.1625 0.45769,0 0.6875,0 l 0.6875,0 c 0.22981,0 0.51321,0.10277 0.71875,0 0.29069,-0.14534 0.39682,-0.54216 0.6875,-0.6875 0.20554,-0.10278 0.4577,0 0.6875,0 l 0.6875,0 3.4375,0 0.6875,0 c 0.22981,0 0.46949,0.0727 0.6875,0 l 1.375,-0.6875 c 0,-0.2298 -0.1625,-0.525 0,-0.6875 0.1625,-0.1625 0.4577,0 0.6875,0 l 0.6875,0 c 0.2298,0 0.48196,0.10277 0.6875,0 0.29068,-0.14534 0.39682,-0.54216 0.6875,-0.6875 0.20555,-0.10277 0.48894,0 0.71875,0 l 2.0625,0 c 0.22981,0 0.48195,0.10277 0.6875,0 0.29068,-0.14534 0.39682,-0.54215 0.6875,-0.6875 0.20554,-0.10277 0.4577,0 0.6875,0 l 0.6875,0 c 0.2298,0 0.48196,0.10278 0.6875,0 0.29068,-0.14534 0.39682,-0.54216 0.6875,-0.6875 0.20555,-0.10277 0.45769,0 0.6875,0 l 1.375,0 c 0.22981,0 0.48195,0.10277 0.6875,0 2.86917,-1.43458 -0.73892,0.0514 0.6875,-1.375 0.16249,-0.1625 0.4577,0 0.6875,0 l 0.71875,0 c 0.45961,0 0.93898,0.14534 1.375,0 0.30832,-0.10278 0.39682,-0.54216 0.6875,-0.6875 0.20555,-0.10277 0.525,0.1625 0.6875,0 0.16249,-0.16249 -0.1625,-0.525 0,-0.6875 0.16249,-0.1625 0.4577,0 0.6875,0 l 1.375,0 0.6875,0 c 0.2298,0 0.48196,0.10277 0.6875,0 0.29068,-0.14534 0.39682,-0.54216 0.6875,-0.6875 0.20555,-0.10278 0.45769,0 0.6875,0 l 1.375,0 c 0.45961,0 0.96391,0.20554 1.375,0 0.58136,-0.29069 0.86543,-1.01445 1.40625,-1.375 0.1912,-0.12747 0.45769,0 0.6875,0 l 0.6875,0 4.8125,0 1.375,0 c 0.2298,0 0.48196,0.10277 0.6875,0 2.86917,-1.43459 -0.73893,0.0202 0.6875,-1.40625 0.16049,-0.1605 1.08741,0.1438 1.375,0 0.29068,-0.14534 0.42807,-0.54216 0.71875,-0.6875 0.20555,-0.10277 0.45769,0 0.6875,0 l 0.6875,0 c 0.2298,0 0.52501,0.1625 0.6875,0 0.36336,-0.36335 0.32414,-1.01165 0.6875,-1.375 0.1605,-0.1605 1.08741,0.14379 1.375,0 0.29068,-0.14535 0.39681,-0.54216 0.6875,-0.6875 0.41108,-0.20554 0.96391,0.20555 1.375,0 0.29068,-0.14534 0.41709,-0.50723 0.6875,-0.6875 0.34719,-1.51889 1.41252,-0.36251 2.0625,-0.6875 2.86918,-1.43459 -0.73892,0.0514 0.6875,-1.375 0.16249,-0.1625 0.4577,0 0.6875,0 l 1.40625,0 c 0.2298,0 0.48196,0.10277 0.6875,0 0.29068,-0.14534 0.39682,-0.54216 0.6875,-0.6875 0.20554,-0.10277 0.4577,0 0.6875,0 l 0.6875,0 2.75,0 1.375,0 c 0.2298,0 0.48196,0.10277 0.6875,0 0.29068,-0.14534 0.39682,-0.54216 0.6875,-0.6875 0.41109,-0.20554 0.96391,0.20555 1.375,0 0.29068,-0.14534 0.42807,-0.54216 0.71875,-0.6875 0.20554,-0.10277 0.48196,0.10277 0.6875,0 2.86918,-1.43459 -0.73892,0.0514 0.6875,-1.375 0.16249,-0.16249 0.4577,0 0.6875,0 l 0.6875,0 c 0.22981,0 0.525,0.1625 0.6875,0 0.16249,-0.16249 -0.1625,-0.525 0,-0.6875 2.69059,-2.69059 0.3645,0.16149 2.0625,-0.6875 0.29068,-0.14534 0.45769,-0.4577 0.6875,-0.6875 l 0.6875,-0.71875 c 0.22981,-0.2298 0.39682,-0.54216 0.6875,-0.6875 0.41109,-0.20554 0.96391,0.20554 1.375,0 0.29068,-0.14534 0.39682,-0.54216 0.6875,-0.6875 0.20555,-0.10277 0.48195,0.10277 0.6875,0 0.29068,-0.14534 0.45769,-0.45769 0.6875,-0.6875 l 0.71875,-0.6875 c 0.22981,-0.2298 0.39681,-0.54216 0.6875,-0.6875 0.41108,-0.20555 0.96391,0.20554 1.375,0 0.29068,-0.14534 0.39682,-0.54215 0.6875,-0.6875 0.20555,-0.10277 0.525,0.1625 0.6875,0 0.16249,-0.16249 -0.1625,-0.525 0,-0.6875 0.16249,-0.16249 0.525,0.1625 0.6875,0 1.42642,-1.42642 -2.18167,0.0596 0.6875,-1.375 0.95095,-0.47548 0.61283,0.83683 1.375,-0.6875 0.10277,-0.20554 -0.1625,-0.525 0,-0.6875 0.1625,-0.1625 0.48196,0.10277 0.6875,0 0.29068,-0.14534 0.45769,-0.4577 0.6875,-0.6875 0.2298,-0.22981 0.54216,-0.39681 0.6875,-0.6875 0.10277,-0.20554 -0.1625,-0.525 0,-0.6875 0.16249,-0.1625 0.48196,0.10277 0.6875,0 0.58137,-0.29068 0.79363,-1.11556 1.375,-1.40625 0.20554,-0.10277 0.55625,0.1625 0.71875,0 1.42642,-1.42642 -2.18167,0.0596 0.6875,-1.375 0.20555,-0.10277 0.48195,0.10277 0.6875,0 0.29068,-0.14534 0.4577,-0.4577 0.6875,-0.6875 0.45961,-0.45961 0.83418,-1.01445 1.375,-1.375 0.1912,-0.12747 0.525,0.1625 0.6875,0 0.1625,-0.1625 -0.1625,-0.52501 0,-0.6875 0.1605,-0.1605 1.08741,0.14379 1.375,0 1.05589,-0.52795 0.53531,-1.22281 1.375,-2.0625 0.1625,-0.1625 0.4577,0 0.6875,0 0.22981,0 0.46949,0.0727 0.6875,0 1.4825,-0.49417 1.9694,-0.69535 2.03125,-0.75 -0.28496,8.5e-4 -1.94074,0.36099 0.0312,-0.625 0.20554,-0.10277 0.51321,0.10277 0.71875,0 0.58136,-0.29068 0.79363,-1.08432 1.375,-1.375 0.20554,-0.10278 0.48195,0.10277 0.6875,0 2.86917,-1.43459 -0.73892,0.0514 0.6875,-1.375 0.1625,-0.1625 0.48196,0.10277 0.6875,0 0.29069,-0.14534 0.45769,-0.48895 0.6875,-0.71875 l 0.6875,-0.6875 c 0.2298,-0.2298 0.39682,-0.54216 0.6875,-0.6875 0.20555,-0.10277 0.48195,0.10277 0.6875,0 2.86917,-1.43459 -0.73892,0.0514 0.6875,-1.375 0.1625,-0.16249 0.52501,0.1625 0.6875,0 0.1625,-0.16249 -0.16249,-0.525 0,-0.6875 1.42642,-1.42642 -0.0596,2.18167 1.375,-0.6875 0.10277,-0.20555 -0.1625,-0.525 0,-0.6875 0.16249,-0.16249 0.49629,0.12748 0.6875,0 0.54082,-0.36054 0.91539,-0.91539 1.375,-1.375 0.2298,-0.22981 0.44834,-0.50723 0.71875,-0.6875 0.42756,-0.28504 1.01164,-0.32414 1.375,-0.6875 0.16249,-0.16249 -0.1625,-0.525 0,-0.6875 0.16249,-0.1625 0.525,0.1625 0.6875,0 0.91922,-0.91922 -1.46438,-0.6577 0.6875,-1.375 0.43603,-0.14534 0.93898,0.14534 1.375,0 1.50189,0.25769 0.22789,-1.1452 0.6875,-1.375 0.41109,-0.20555 0.93897,0.14534 1.375,0 0.30831,-0.10277 0.37919,-0.61597 0.6875,-0.71875 0.43602,-0.14534 0.96391,0.20555 1.375,0 0.20554,-0.10277 -0.1625,-0.525 0,-0.6875 0.16249,-0.16249 0.4577,0 0.6875,0 0.45961,0 0.99258,0.25495 1.375,0 0.42755,-0.28504 0.3554,-1.01165 0.71875,-1.375 0.1625,-0.1625 0.48196,0.10277 0.6875,0 0.29068,-0.14535 0.45769,-0.45769 0.6875,-0.6875 0.2298,-0.2298 0.54216,-0.39682 0.6875,-0.6875 0.10277,-0.20554 -0.10277,-0.48196 0,-0.6875 0.29068,-0.58137 1.08432,-0.79364 1.375,-1.375 0.10278,-0.20554 0,-0.4577 0,-0.6875 l 0,-1.375 c 0,-0.2298 -0.16249,-0.52501 0,-0.6875 0.36336,-0.36335 0.94744,-0.40247 1.375,-0.6875 0.27041,-0.18028 0.4577,-0.45769 0.6875,-0.6875 l 2.0625,-2.09375 c 0.22981,-0.2298 0.39681,-0.54216 0.6875,-0.6875 0.20554,-0.10277 0.525,0.1625 0.6875,0 0.36335,-0.36335 0.32415,-1.01164 0.6875,-1.375 0.1625,-0.16249 0.48196,0.10278 0.6875,0 0.0636,-0.0318 1.31307,-1.31288 1.40625,-1.375 0.34718,-1.51889 1.41251,-0.3625 2.0625,-0.6875 0.29068,-0.14534 0.4577,-0.45769 0.6875,-0.6875 l 0.6875,-0.6875 c 0.2298,-0.22981 0.41709,-0.50723 0.6875,-0.6875 0.42755,-0.28504 1.01165,-0.32414 1.375,-0.6875 0.1625,-0.16249 -0.16249,-0.525 0,-0.6875 0.1625,-0.1625 0.525,0.1625 0.6875,0 0.1605,-0.1605 -0.1438,-1.08741 0,-1.375 0.14534,-0.29068 0.4577,-0.45769 0.6875,-0.6875 0.2298,0 0.58473,0.20554 0.6875,0 0.20555,-0.41109 0,-0.94664 0,-1.40625 0,-0.2298 -0.16249,-0.525 0,-0.6875 0.8397,-0.83969 1.53456,-0.31911 2.0625,-1.375 0.10277,-0.20555 0,-0.45769 0,-0.6875 0,-0.45961 -0.14534,-0.93898 0,-1.375 0.10277,-0.30832 0.54215,-0.39681 0.6875,-0.6875 0.10277,-0.20554 -0.1625,-0.525 0,-0.6875 0.16249,-0.1625 0.55625,0.1625 0.71875,0 0.32499,-0.32499 -0.32499,-1.05 0,-1.375 0.1625,-0.16249 0.52501,0.1625 0.6875,0 0.1625,-0.16249 -0.10277,-0.48196 0,-0.6875 0.14534,-0.29068 0.54216,-0.39682 0.6875,-0.6875 0.10278,-0.20554 -0.16249,-0.52501 0,-0.6875 0.1625,-0.1625 0.525,0.16249 0.6875,0 0.16249,-0.1625 -0.10277,-0.48195 0,-0.6875 0.14534,-0.29068 0.54216,-0.39682 0.6875,-0.6875 0.10277,-0.20554 -0.1625,-0.55626 0,-0.71875 0.1625,-0.1625 0.52501,0.16249 0.6875,0 0.1605,-0.1605 -0.14379,-1.08741 0,-1.375 0.0318,-0.0635 1.31288,-1.28182 1.375,-1.375 0.28504,-0.42755 0.32415,-1.01165 0.6875,-1.375 0.1625,-0.1625 0.525,0.16249 0.6875,0 0.16249,-0.1625 -0.20555,-0.58473 0,-0.6875 0.41108,-0.20555 0.96392,0.20554 1.375,0 0.20555,-0.10278 0,-0.45769 0,-0.6875 l 0,-0.6875 c 0,-0.22981 -0.16249,-0.52501 0,-0.6875 0.1625,-0.1625 0.48195,0.10277 0.6875,0 2.86917,-1.43459 -0.73892,0.0514 0.6875,-1.375 0.16249,-0.1625 0.525,0.1625 0.6875,0 0.1625,-0.1625 -0.1625,-0.52501 0,-0.6875 0.1625,-0.1625 0.52501,0.16249 0.6875,0 0.1625,-0.1625 0,-0.45769 0,-0.6875 l 0,-0.3125 c -2.65789,0.2464 -5.34201,0.55873 -8.03125,0.96875 -27.81472,4.24124 -57.66737,11.06669 -80.9375,-9.25 C 441.34946,615.09146 444.4687,575.52371 444.4687,543.25 c 0,-33.30845 20.1391,-55.13384 30.25,-85.5 15.80143,-47.46287 -34.16263,-89.77195 -79.84375,-88.84375 z"
         style="fill:#a3007f;fill-opacity:1;fill-rule:evenodd;overflow:visible"
         inkscape:connector-curvature="0" />
      <path
         d="m 600.51141,501.65625 c 0,138.58183 -112.34276,250.92459 -250.92459,250.92459 -138.58182,0 -250.924589,-112.34276 -250.924589,-250.92459 0,-138.58183 112.342769,-250.92459 250.924589,-250.92459 138.58183,0 250.92459,112.34276 250.92459,250.92459 z"
         sodipodi:ry="250.92459"
         sodipodi:rx="250.92459"
         sodipodi:cy="501.65625"
         sodipodi:cx="349.58682"
         id="path2985"
         style="fill:none;stroke:#a3007f;stroke-width:15.89999962;stroke-miterlimit:4;stroke-opacity:1;stroke-dasharray:none;stroke-dashoffset:10"
         sodipodi:type="arc"
         transform="translate(2.5302878e-6,1.6931219e-6)" />
      <path
         sodipodi:type="arc"
         style="fill:#ffffff;fill-opacity:1;stroke:#a30075;stroke-width:9.30000019;stroke-linecap:round;stroke-miterlimit:4;stroke-opacity:1;stroke-dasharray:none;stroke-dashoffset:10"
         id="path2991"
         sodipodi:cx="406.22745"
         sodipodi:cy="408.68268"
         sodipodi:rx="12.606409"
         sodipodi:ry="11.853788"
         d="m 418.83386,408.68268 c 0,6.54666 -5.64409,11.85379 -12.60641,11.85379 -6.96233,0 -12.60641,-5.30713 -12.60641,-11.85379 0,-6.54667 5.64408,-11.85379 12.60641,-11.85379 6.96232,0 12.60641,5.30712 12.60641,11.85379 z"
         transform="translate(-16.143627,-6.9186973)" />
    </g>
  </g>
</svg>
