<?xml version="1.0" encoding="UTF-8" standalone="no"?>
<!-- Created with Inkscape (http://www.inkscape.org/) -->

<svg
   xmlns:dc="http://purl.org/dc/elements/1.1/"
   xmlns:cc="http://creativecommons.org/ns#"
   xmlns:rdf="http://www.w3.org/1999/02/22-rdf-syntax-ns#"
   xmlns:svg="http://www.w3.org/2000/svg"
   xmlns="http://www.w3.org/2000/svg"
   xmlns:sodipodi="http://sodipodi.sourceforge.net/DTD/sodipodi-0.dtd"
   xmlns:inkscape="http://www.inkscape.org/namespaces/inkscape"
   width="518"
   height="518"
   id="svg2"
   version="1.1"
   inkscape:version="0.48.2 r9819"
   sodipodi:docname="Uc_no.svg">
  <title
     id="title2990">Uc: Hotel (Norwegian Symbol)</title>
  <defs
     id="defs4">
    <inkscape:perspective
       id="perspective27"
       inkscape:persp3d-origin="67.851997 : 37.699666 : 1"
       inkscape:vp_z="135.70399 : 56.5495 : 1"
       inkscape:vp_y="0 : 1000 : 0"
       inkscape:vp_x="0 : 56.5495 : 1"
       sodipodi:type="inkscape:persp3d" />
  </defs>
  <sodipodi:namedview
     id="base"
     pagecolor="#ffffff"
     bordercolor="#666666"
     borderopacity="1.0"
     inkscape:pageopacity="0.0"
     inkscape:pageshadow="2"
     inkscape:zoom="0.94015444"
     inkscape:cx="-115.40657"
     inkscape:cy="259"
     inkscape:document-units="px"
     inkscape:current-layer="layer1"
     showgrid="false"
     inkscape:window-width="1440"
     inkscape:window-height="808"
     inkscape:window-x="0"
     inkscape:window-y="0"
     inkscape:window-maximized="1" />
  <metadata
     id="metadata7">
    <rdf:RDF>
      <cc:Work
         rdf:about="">
        <dc:format>image/svg+xml</dc:format>
        <dc:type
           rdf:resource="http://purl.org/dc/dcmitype/StillImage" />
        <dc:title>Uc: Hotel (Norwegian Symbol)</dc:title>
        <cc:license
           rdf:resource="http://creativecommons.org/licenses/publicdomain/" />
      </cc:Work>
      <cc:License
         rdf:about="http://creativecommons.org/licenses/publicdomain/">
        <cc:permits
           rdf:resource="http://creativecommons.org/ns#Reproduction" />
        <cc:permits
           rdf:resource="http://creativecommons.org/ns#Distribution" />
        <cc:permits
           rdf:resource="http://creativecommons.org/ns#DerivativeWorks" />
      </cc:License>
    </rdf:RDF>
  </metadata>
  <g
     inkscape:label="Layer 1"
     inkscape:groupmode="layer"
     id="layer1"
     transform="translate(0,-534.36218)">
    <flowRoot
       xml:space="preserve"
       id="flowRoot3763"
       style="font-size:40px;font-style:normal;font-weight:normal;line-height:125%;letter-spacing:0px;word-spacing:0px;fill:#000000;fill-opacity:1;stroke:none;font-family:Sans"><flowRegion
         id="flowRegion3765"><rect
           id="rect3767"
           width="16.127478"
           height="76.84269"
           x="234.32277"
           y="406.31439" /></flowRegion><flowPara
         id="flowPara3769" /></flowRoot>    <g
       id="g25006"
       transform="translate(-89.347023,291.44148)">
      <path
         d="m 600.51141,501.65625 c 0,138.58183 -112.34276,250.92459 -250.92459,250.92459 -138.58182,0 -250.924589,-112.34276 -250.924589,-250.92459 0,-138.58183 112.342769,-250.92459 250.924589,-250.92459 138.58183,0 250.92459,112.34276 250.92459,250.92459 z"
         sodipodi:ry="250.92459"
         sodipodi:rx="250.92459"
         sodipodi:cy="501.65625"
         sodipodi:cx="349.58682"
         id="path2985"
         style="fill:none;stroke:#a3007f;stroke-width:15.89999962;stroke-miterlimit:4;stroke-opacity:0.94117647;stroke-dasharray:none;stroke-dashoffset:10"
         sodipodi:type="arc" />
      <path
         id="path1998"
         style="fill:#a3007f;fill-opacity:0.94117647"
         d="m 157.08322,550.45063 c 0,19.29578 45.25288,19.29578 45.25288,0 l 0,-38.59193 113.13236,77.18387 0,57.88806 c 0,19.29616 45.25287,19.29616 45.25287,0 l 0,-57.88806 135.759,0 0,57.88806 c 0,19.29616 45.25332,19.29616 45.25332,0 l 0,-96.48 -203.63854,0 -158.38569,-115.77615 c 18.10136,-38.59193 181.01191,-38.59193 203.63855,-19.29617 l 0,-57.88808 c 0,-19.29573 -45.25286,-19.29573 -45.25286,0 l 0,19.29616 -135.75901,0 0,-19.29616 c 0,-19.29573 -45.25288,-19.29573 -45.25288,0 0,0 0,192.9604 0,192.9604 z m 45.25288,-96.47999 c 22.62664,-38.59233 158.38523,-38.59233 203.63854,0 l 135.75901,96.47999 c -45.25332,-38.59193 -203.63854,-38.59193 -203.63854,0 L 202.3361,453.97064 z"
         inkscape:connector-curvature="0" />
    </g>
  </g>
</svg>
