<?xml version="1.0" encoding="UTF-8" standalone="no"?>
<svg
   xmlns:dc="http://purl.org/dc/elements/1.1/"
   xmlns:cc="http://creativecommons.org/ns#"
   xmlns:rdf="http://www.w3.org/1999/02/22-rdf-syntax-ns#"
   xmlns:svg="http://www.w3.org/2000/svg"
   xmlns="http://www.w3.org/2000/svg"
   xmlns:sodipodi="http://sodipodi.sourceforge.net/DTD/sodipodi-0.dtd"
   xmlns:inkscape="http://www.inkscape.org/namespaces/inkscape"
   version="1.0"
   width="47"
   height="59"
   id="svg2"
   inkscape:version="0.48.2 r9819"
   sodipodi:docname="cross_black.svg"
   sodipodi:version="0.32"
   inkscape:output_extension="org.inkscape.output.svg.inkscape"
   sodipodi:modified="true">
  <title
     id="title2983">Q9: Topmark, black cross</title>
  <metadata
     id="metadata10">
    <rdf:RDF>
      <cc:Work
         rdf:about="">
        <dc:format>image/svg+xml</dc:format>
        <dc:type
           rdf:resource="http://purl.org/dc/dcmitype/StillImage" />
        <dc:title>Q9: Topmark, black cross</dc:title>
        <cc:license
           rdf:resource="http://creativecommons.org/licenses/publicdomain/" />
      </cc:Work>
      <cc:Work
         rdf:about="">
        <dc:format>image/svg+xml</dc:format>
        <dc:type
           rdf:resource="http://purl.org/dc/dcmitype/StillImage" />
      </cc:Work>
      <cc:License
         rdf:about="http://creativecommons.org/licenses/publicdomain/">
        <cc:permits
           rdf:resource="http://creativecommons.org/ns#Reproduction" />
        <cc:permits
           rdf:resource="http://creativecommons.org/ns#Distribution" />
        <cc:permits
           rdf:resource="http://creativecommons.org/ns#DerivativeWorks" />
      </cc:License>
    </rdf:RDF>
  </metadata>
  <defs
     id="defs8" />
  <sodipodi:namedview
     pagecolor="#ffffff"
     bordercolor="#666666"
     borderopacity="1"
     objecttolerance="10"
     gridtolerance="10"
     guidetolerance="10"
     inkscape:pageopacity="0"
     inkscape:pageshadow="2"
     inkscape:window-width="1440"
     inkscape:window-height="808"
     id="namedview6"
     showgrid="false"
     inkscape:zoom="12.323136"
     inkscape:cx="-25.741823"
     inkscape:cy="40"
     inkscape:window-x="0"
     inkscape:window-y="0"
     inkscape:window-maximized="1"
     inkscape:current-layer="svg2" />
  <path
     style="fill:#000000;fill-opacity:1;stroke:none;stroke-width:1px;stroke-linecap:butt;stroke-linejoin:miter;stroke-opacity:1"
     d="M 18.676855,46.161471 L 28.514169,46.161471 L 28.680904,28.487652 L 46.187988,28.320918 L 45.85452,18.817072 L 29.014372,18.31687 L 28.347435,0.976519 L 18.343387,0.809785 L 18.343387,17.983402 L 1.1697704,18.483604 L 1.1697704,28.487652 L 18.343387,28.487652 L 18.676855,46.161471 z "
     id="path3755"
     inkscape:connector-curvature="0" />
  <path
     d="M 17.5,0 L 17.5,17.5 L 0,17.5 L 0,29.5 L 17.5,29.5 L 17.5,47 L 21.40625,47 L 21.40625,59 L 25.65625,59 L 25.65625,47 L 29.5,47 L 29.5,29.5 L 47,29.5 L 47,17.5 L 29.5,17.5 L 29.5,0 L 17.5,0 z M 19.5,2 L 27.5,2 L 27.5,19.5 L 45,19.5 L 45,27.5 L 27.5,27.5 L 27.5,45 L 19.5,45 L 19.5,27.5 L 2,27.5 L 2,19.5 L 19.5,19.5 L 19.5,2 z "
     id="path4"
     style="fill:#000000" />
</svg>
