<?xml version="1.0" encoding="UTF-8" standalone="no"?>
<svg
   xmlns:dc="http://purl.org/dc/elements/1.1/"
   xmlns:cc="http://creativecommons.org/ns#"
   xmlns:rdf="http://www.w3.org/1999/02/22-rdf-syntax-ns#"
   xmlns:svg="http://www.w3.org/2000/svg"
   xmlns="http://www.w3.org/2000/svg"
   xmlns:sodipodi="http://sodipodi.sourceforge.net/DTD/sodipodi-0.dtd"
   xmlns:inkscape="http://www.inkscape.org/namespaces/inkscape"
   version="1.0"
   width="20"
   height="24.999998"
   id="svg2"
   sodipodi:version="0.32"
   inkscape:version="0.48.2 r9819"
   sodipodi:docname="mooring.svg"
   inkscape:output_extension="org.inkscape.output.svg.inkscape"
   sodipodi:modified="true">
  <title
     id="title2982">Q9: Topmark, mooring ring</title>
  <metadata
     id="metadata9">
    <rdf:RDF>
      <cc:Work
         rdf:about="">
        <dc:format>image/svg+xml</dc:format>
        <dc:type
           rdf:resource="http://purl.org/dc/dcmitype/StillImage" />
        <dc:title>Q9: Topmark, mooring ring</dc:title>
        <cc:license
           rdf:resource="http://creativecommons.org/licenses/publicdomain/" />
      </cc:Work>
      <cc:License
         rdf:about="http://creativecommons.org/licenses/publicdomain/">
        <cc:permits
           rdf:resource="http://creativecommons.org/ns#Reproduction" />
        <cc:permits
           rdf:resource="http://creativecommons.org/ns#Distribution" />
        <cc:permits
           rdf:resource="http://creativecommons.org/ns#DerivativeWorks" />
      </cc:License>
    </rdf:RDF>
  </metadata>
  <defs
     id="defs7" />
  <sodipodi:namedview
     inkscape:window-height="575"
     inkscape:window-width="802"
     inkscape:pageshadow="2"
     inkscape:pageopacity="0.0"
     guidetolerance="10.0"
     gridtolerance="10.0"
     objecttolerance="10.0"
     borderopacity="1.0"
     bordercolor="#666666"
     pagecolor="#ffffff"
     id="base"
     inkscape:zoom="4.7125"
     inkscape:cx="-54.69496"
     inkscape:cy="40"
     inkscape:window-x="52"
     inkscape:window-y="52"
     inkscape:current-layer="svg2"
     showgrid="false"
     inkscape:window-maximized="0" />
  <path
     d="M 10,0 C 4.496015,0 0,4.496015 0,10 C 0,15.441669 4.393838,19.899785 9.8125,20 C 8.505501,20.098296 7.496308,21.189316 7.5,22.5 C 7.5,23.88071 8.619288,24.999997 10,24.999997 C 11.380712,24.999997 12.5,23.88071 12.5,22.5 C 12.500425,21.143333 11.418745,20.033917 10.0625,20 C 15.538085,19.966241 20,15.483213 20,10 C 20,4.496015 15.503985,0 10,0 z M 10,2.9375 C 13.912561,2.9375 17.0625,6.087439 17.0625,10 C 17.0625,13.912561 13.912561,17.0625 10,17.0625 C 6.087439,17.0625 2.9375,13.912561 2.9375,10 C 2.9375,6.087439 6.087439,2.9375 10,2.9375 z "
     id="path4" />
</svg>
