<?xml version="1.0" encoding="UTF-8" standalone="no"?>
<svg
   xmlns:dc="http://purl.org/dc/elements/1.1/"
   xmlns:cc="http://creativecommons.org/ns#"
   xmlns:rdf="http://www.w3.org/1999/02/22-rdf-syntax-ns#"
   xmlns:svg="http://www.w3.org/2000/svg"
   xmlns="http://www.w3.org/2000/svg"
   xmlns:sodipodi="http://sodipodi.sourceforge.net/DTD/sodipodi-0.dtd"
   xmlns:inkscape="http://www.inkscape.org/namespaces/inkscape"
   version="1.0"
   width="35.28125"
   height="81.454628"
   id="svg2"
   inkscape:version="0.48.2 r9819"
   sodipodi:docname="east_black.svg"
   sodipodi:version="0.32"
   inkscape:output_extension="org.inkscape.output.svg.inkscape"
   sodipodi:modified="true">
  <title
     id="title2983">Q9: Topmark, black east mark</title>
  <metadata
     id="metadata10">
    <rdf:RDF>
      <cc:Work
         rdf:about="">
        <dc:format>image/svg+xml</dc:format>
        <dc:type
           rdf:resource="http://purl.org/dc/dcmitype/StillImage" />
        <dc:title>Q9: Topmark, black east mark</dc:title>
        <cc:license
           rdf:resource="http://creativecommons.org/licenses/publicdomain/" />
      </cc:Work>
      <cc:Work
         rdf:about="">
        <dc:format>image/svg+xml</dc:format>
        <dc:type
           rdf:resource="http://purl.org/dc/dcmitype/StillImage" />
      </cc:Work>
      <cc:License
         rdf:about="http://creativecommons.org/licenses/publicdomain/">
        <cc:permits
           rdf:resource="http://creativecommons.org/ns#Reproduction" />
        <cc:permits
           rdf:resource="http://creativecommons.org/ns#Distribution" />
        <cc:permits
           rdf:resource="http://creativecommons.org/ns#DerivativeWorks" />
      </cc:License>
    </rdf:RDF>
  </metadata>
  <defs
     id="defs8" />
  <sodipodi:namedview
     pagecolor="#ffffff"
     bordercolor="#666666"
     borderopacity="1"
     objecttolerance="10"
     gridtolerance="10"
     guidetolerance="10"
     inkscape:pageopacity="0"
     inkscape:pageshadow="2"
     inkscape:window-width="1440"
     inkscape:window-height="808"
     id="namedview6"
     showgrid="false"
     inkscape:zoom="12.587241"
     inkscape:cx="-7.9682006"
     inkscape:cy="40.727314"
     inkscape:window-x="0"
     inkscape:window-y="0"
     inkscape:window-maximized="1"
     inkscape:current-layer="svg2" />
  <path
     style="fill:#000000;stroke:#000000;stroke-width:1px;stroke-linecap:butt;stroke-linejoin:miter;stroke-opacity:1"
     d="M 17.721994,68.559005 L 1.8881289,38.686867 L 16.252873,38.686867 L 15.926401,33.953031 L 3.3572504,34.442738 L 17.88523,3.101479 L 32.739681,34.279502 L 19.02788,34.605974 L 19.02788,38.686867 L 32.249974,38.686867 L 17.721994,68.559005 z "
     id="path2987"
     inkscape:connector-curvature="0" />
  <path
     d="M 17.625,3.5527137e-015 L -1.7763568e-015,36 C 5.1249433,36.0031 10.427008,35.93525 14.84375,35.90625 L 14.84375,36.9375 C 9.895833,36.9375 4.9479167,36.9375 -1.7763568e-015,36.9375 C -1.7763568e-015,36.9375 11.39469,59.71957 16.25,69.8125 C 15.8125,69.8125 16.0815,69.812627 15.644,69.812627 C 15.644,76.069029 15.644,76.031267 15.644,81.454627 C 17.554964,81.454627 17.929798,81.454627 19.643939,81.454627 C 19.643939,75.28644 19.643939,75.101662 19.643939,69.812627 C 19.300189,69.812627 19.5,69.8125 19.15625,69.8125 L 35.28125,36.9375 C 30.21875,36.9375 25.15625,36.9375 20.09375,36.9375 L 20.09375,35.90625 C 25.425553,35.88035 30.487627,35.84375 35.28125,35.84375 L 17.625,3.5527137e-015 z M 17.644,6.454627 L 30.644,32.954627 L 4.644,32.954627 L 17.644,6.454627 z M 4.644,39.954627 L 30.644,39.954627 L 17.644,66.454627 L 4.644,39.954627 z "
     id="path4" />
</svg>
