<?xml version="1.0" encoding="UTF-8" standalone="no"?>
<svg
   xmlns:dc="http://purl.org/dc/elements/1.1/"
   xmlns:cc="http://creativecommons.org/ns#"
   xmlns:rdf="http://www.w3.org/1999/02/22-rdf-syntax-ns#"
   xmlns:svg="http://www.w3.org/2000/svg"
   xmlns="http://www.w3.org/2000/svg"
   xmlns:sodipodi="http://sodipodi.sourceforge.net/DTD/sodipodi-0.dtd"
   xmlns:inkscape="http://www.inkscape.org/namespaces/inkscape"
   version="1.0"
   width="34.21875"
   height="84"
   id="svg2"
   inkscape:version="0.48.2 r9819"
   sodipodi:docname="north_black.svg"
   sodipodi:version="0.32"
   inkscape:output_extension="org.inkscape.output.svg.inkscape"
   sodipodi:modified="true">
  <title
     id="title2985">Q9: Topmark, black north mark</title>
  <metadata
     id="metadata10">
    <rdf:RDF>
      <cc:Work
         rdf:about="">
        <dc:format>image/svg+xml</dc:format>
        <dc:type
           rdf:resource="http://purl.org/dc/dcmitype/StillImage" />
        <dc:title>Q9: Topmark, black north mark</dc:title>
        <cc:license
           rdf:resource="http://creativecommons.org/licenses/publicdomain/" />
      </cc:Work>
      <cc:Work
         rdf:about="">
        <dc:format>image/svg+xml</dc:format>
        <dc:type
           rdf:resource="http://purl.org/dc/dcmitype/StillImage" />
      </cc:Work>
      <cc:License
         rdf:about="http://creativecommons.org/licenses/publicdomain/">
        <cc:permits
           rdf:resource="http://creativecommons.org/ns#Reproduction" />
        <cc:permits
           rdf:resource="http://creativecommons.org/ns#Distribution" />
        <cc:permits
           rdf:resource="http://creativecommons.org/ns#DerivativeWorks" />
      </cc:License>
    </rdf:RDF>
  </metadata>
  <defs
     id="defs8" />
  <sodipodi:namedview
     pagecolor="#ffffff"
     bordercolor="#666666"
     borderopacity="1"
     objecttolerance="10"
     gridtolerance="10"
     guidetolerance="10"
     inkscape:pageopacity="0"
     inkscape:pageshadow="2"
     inkscape:window-width="1440"
     inkscape:window-height="808"
     id="namedview6"
     showgrid="false"
     inkscape:zoom="12.205822"
     inkscape:cx="-8.8230718"
     inkscape:cy="42"
     inkscape:window-x="0"
     inkscape:window-y="0"
     inkscape:window-maximized="1"
     inkscape:current-layer="svg2" />
  <path
     style="fill:#000000;stroke:none;stroke-width:1px;stroke-linecap:butt;stroke-linejoin:miter;stroke-opacity:1"
     d="M 17.625,2.53125 L 1.8125,33.15625 L 16.5,33.09375 L 16.5625,36.25 L 1.96875,65.3125 L 32.78125,65.46875 L 17.4375,35.125 L 17.40625,33.0625 L 32.4375,33 L 17.625,2.53125 z "
     id="path2987" />
  <path
     d="M 17.09375,0 C 17.09375,0.125 5.9893495,21.516274 0.09375,34.1875 C 5.34375,34.1875 10.8125,34.21875 16.0625,34.21875 C 10.59058,44.865775 5.5373139,55.886815 0,66.5 L 14.9375,66.5 L 14.9375,84 L 19.1875,84 L 19.1875,66.5 L 34.21875,66.5 C 28.839061,55.804819 23.506102,44.929111 18.15625,34.21875 L 34.21875,34.21875 C 28.152771,20.755281 17.09375,0.125 17.09375,0 z M 17.09375,4.2 L 31.09375,32.1875 L 3.09375,32.1875 L 17.09375,4.2 z M 17.09375,36.5 L 31.09375,64.5 L 3.09375,64.5 L 17.09375,36.5 z "
     id="path4" />
</svg>
