<?xml version="1.0" encoding="UTF-8" standalone="no"?>
<svg
   xmlns:dc="http://purl.org/dc/elements/1.1/"
   xmlns:cc="http://creativecommons.org/ns#"
   xmlns:rdf="http://www.w3.org/1999/02/22-rdf-syntax-ns#"
   xmlns:svg="http://www.w3.org/2000/svg"
   xmlns="http://www.w3.org/2000/svg"
   xmlns:sodipodi="http://sodipodi.sourceforge.net/DTD/sodipodi-0.dtd"
   xmlns:inkscape="http://www.inkscape.org/namespaces/inkscape"
   version="1.0"
   width="114.8125"
   height="54.5"
   id="svg2"
   inkscape:version="0.48.2 r9819"
   sodipodi:docname="black.svg"
   sodipodi:version="0.32"
   inkscape:output_extension="org.inkscape.output.svg.inkscape"
   sodipodi:modified="true">
  <title
     id="title2982">Q25: Black barrel</title>
  <metadata
     id="metadata3052">
    <rdf:RDF>
      <cc:Work
         rdf:about="">
        <dc:format>image/svg+xml</dc:format>
        <dc:type
           rdf:resource="http://purl.org/dc/dcmitype/StillImage" />
        <cc:license
           rdf:resource="http://creativecommons.org/licenses/publicdomain/" />
        <dc:title>Q25: Black barrel</dc:title>
      </cc:Work>
      <cc:Work
         rdf:about="">
        <dc:format>image/svg+xml</dc:format>
        <dc:type
           rdf:resource="http://purl.org/dc/dcmitype/StillImage" />
      </cc:Work>
      <cc:License
         rdf:about="http://creativecommons.org/licenses/publicdomain/">
        <cc:permits
           rdf:resource="http://creativecommons.org/ns#Reproduction" />
        <cc:permits
           rdf:resource="http://creativecommons.org/ns#Distribution" />
        <cc:permits
           rdf:resource="http://creativecommons.org/ns#DerivativeWorks" />
      </cc:License>
    </rdf:RDF>
  </metadata>
  <sodipodi:namedview
     pagecolor="#ffffff"
     bordercolor="#666666"
     borderopacity="1"
     objecttolerance="10"
     gridtolerance="10"
     guidetolerance="10"
     inkscape:pageopacity="0"
     inkscape:pageshadow="2"
     inkscape:window-width="802"
     inkscape:window-height="575"
     id="namedview3050"
     showgrid="false"
     inkscape:zoom="2.7784431"
     inkscape:cx="-5.9385779"
     inkscape:cy="27.25"
     inkscape:window-x="4"
     inkscape:window-y="37"
     inkscape:window-maximized="0"
     inkscape:current-layer="svg2" />
  <defs
     id="defs4" />
  <path
     d="M 57.1875,0 C 51.6229,0 46.06494,0.16306 40,0.5 C 30.70251,1.01653 23.06822,2.77268 17.75,9.125 C 12.70475,15.15127 10.02437,24.4064 8.03125,39.1875 L 0,39.1875 L 0,44.84375 L 49.03125,44.84375 C 50.31857,50.3767 55.26452,54.49999 61.1875,54.5 C 67.11245,54.5 72.05845,50.37948 73.34375,44.84375 L 114.8125,44.84375 L 114.8125,39.25 L 107.34375,39.25 C 105.31897,24.38849 102.37012,15.06849 97.0625,9.0625 C 91.4773,2.7424 83.66891,1.01633 74.375,0.5 C 68.31006,0.16306 62.7521,0 57.1875,0 z M 26.8125,10.46875 C 33.09679,19.62236 35.45515,26.97696 36.46875,39.1875 L 15.125,39.1875 C 17.06717,25.5078 19.71078,17.7031 23.125,13.625 C 24.22357,12.31282 25.43265,11.28294 26.8125,10.46875 z M 61.1875,34.5 C 65.3275,34.5 68.6875,37.86 68.6875,42 C 68.6875,46.14 65.3275,49.5 61.1875,49.5 C 57.0475,49.5 53.6875,46.14 53.6875,42 C 53.6875,37.86 57.0475,34.5 61.1875,34.5 z "
     id="path12402"
     style="fill:#000407;fill-opacity:1;fill-rule:evenodd;stroke:none" />
</svg>
