<?xml version="1.0" encoding="UTF-8" standalone="no"?>
<svg
   xmlns:dc="http://purl.org/dc/elements/1.1/"
   xmlns:cc="http://creativecommons.org/ns#"
   xmlns:rdf="http://www.w3.org/1999/02/22-rdf-syntax-ns#"
   xmlns:svg="http://www.w3.org/2000/svg"
   xmlns="http://www.w3.org/2000/svg"
   xmlns:sodipodi="http://sodipodi.sourceforge.net/DTD/sodipodi-0.dtd"
   xmlns:inkscape="http://www.inkscape.org/namespaces/inkscape"
   version="1.0"
   width="114.8125"
   height="54.5"
   id="svg2"
   inkscape:version="0.48.5 r10040"
   sodipodi:docname="yellow.svg"
   sodipodi:version="0.32"
   inkscape:output_extension="org.inkscape.output.svg.inkscape"
   sodipodi:modified="true">
  <title
     id="title2983">Q25: Yellow barrel</title>
  <metadata
     id="metadata3066">
    <rdf:RDF>
      <cc:Work
         rdf:about="">
        <dc:format>image/svg+xml</dc:format>
        <dc:type
           rdf:resource="http://purl.org/dc/dcmitype/StillImage" />
        <cc:license
           rdf:resource="http://creativecommons.org/licenses/publicdomain/" />
        <dc:title>Q25: Yellow barrel</dc:title>
      </cc:Work>
      <cc:License
         rdf:about="http://creativecommons.org/licenses/publicdomain/">
        <cc:permits
           rdf:resource="http://creativecommons.org/ns#Reproduction" />
        <cc:permits
           rdf:resource="http://creativecommons.org/ns#Distribution" />
        <cc:permits
           rdf:resource="http://creativecommons.org/ns#DerivativeWorks" />
      </cc:License>
      <cc:Work
         rdf:about="">
        <dc:format>image/svg+xml</dc:format>
        <dc:type
           rdf:resource="http://purl.org/dc/dcmitype/StillImage" />
      </cc:Work>
    </rdf:RDF>
  </metadata>
  <sodipodi:namedview
     pagecolor="#ffffff"
     bordercolor="#666666"
     borderopacity="1"
     objecttolerance="10"
     gridtolerance="10"
     guidetolerance="10"
     inkscape:pageopacity="0"
     inkscape:pageshadow="2"
     inkscape:window-width="1440"
     inkscape:window-height="824"
     id="namedview3064"
     showgrid="false"
     inkscape:zoom="11.436037"
     inkscape:cx="41.31676"
     inkscape:cy="27.25"
     inkscape:window-x="0"
     inkscape:window-y="0"
     inkscape:window-maximized="1"
     inkscape:current-layer="svg2" />
  <defs
     id="defs4" />
  <path
     style="fill:#ffffff;fill-opacity:1;stroke:none;stroke-width:1px;stroke-linecap:butt;stroke-linejoin:miter;stroke-opacity:1"
     d="M 104.40285,41.8107 L 102.41703,29.23386 L 96.45958,15.33313 L 87.19243,5.40405 L 75.27752,3.41823 L 34.89923,4.08017 L 28.27983,4.74211 L 19.01268,12.02344 L 13.05523,28.57192 L 12.39329,43.13458 L 50.12383,41.8107 L 54.7574,34.52937 L 60.71486,31.88162 L 66.01037,33.20549 L 70.64394,37.83907 L 71.96782,42.47264 L 104.40285,41.8107 z "
     id="path2982"
     inkscape:connector-curvature="0" />
  <path
     d="M 57.1875,0 C 51.6229,0 46.06494,0.16306 40,0.5 C 30.70251,1.01653 23.06822,2.77268 17.75,9.125 C 12.70475,15.15127 10.02437,24.4064 8.03125,39.1875 L 0,39.1875 L 0,44.84375 L 49.03125,44.84375 C 50.31857,50.3767 55.26452,54.49999 61.1875,54.5 C 67.11245,54.5 72.05845,50.37948 73.34375,44.84375 L 114.8125,44.84375 L 114.8125,39.25 L 107.34375,39.25 C 105.31897,24.38849 102.37012,15.06849 97.0625,9.0625 C 91.4773,2.7424 83.66891,1.01633 74.375,0.5 C 68.31006,0.16306 62.7521,0 57.1875,0 z M 57.1875,7 C 62.61469,7 68.04189,7.16899 74,7.5 C 82.70609,7.98367 87.8977,9.2576 91.8125,13.6875 C 95.44431,17.79718 98.31531,25.56407 100.28125,39.21875 L 73.34375,39.1875 C 72.05845,33.65177 67.11245,29.53125 61.1875,29.53125 C 55.26452,29.53126 50.31857,33.65455 49.03125,39.1875 L 43.5,39.1875 C 42.46905,26.61289 39.80399,17.71765 33.6875,8.1875 C 35.64375,7.85571 37.82791,7.6415 40.375,7.5 C 46.33311,7.16899 51.76031,7 57.1875,7 z M 26.8125,10.46875 C 33.09679,19.62236 35.45515,26.97696 36.46875,39.1875 L 15.125,39.1875 C 17.06717,25.5078 19.71078,17.7031 23.125,13.625 C 24.22357,12.31282 25.43265,11.28294 26.8125,10.46875 z M 61.1875,34.5 C 65.3275,34.5 68.6875,37.86 68.6875,42 C 68.6875,46.14 65.3275,49.5 61.1875,49.5 C 57.0475,49.5 53.6875,46.14 53.6875,42 C 53.6875,37.86 57.0475,34.5 61.1875,34.5 z "
     id="path90440"
     style="fill:#000407;fill-opacity:1;fill-rule:evenodd;stroke:none" />
</svg>
