<?xml version="1.0" encoding="UTF-8" standalone="no"?>
<svg
   xmlns:dc="http://purl.org/dc/elements/1.1/"
   xmlns:cc="http://creativecommons.org/ns#"
   xmlns:rdf="http://www.w3.org/1999/02/22-rdf-syntax-ns#"
   xmlns:svg="http://www.w3.org/2000/svg"
   xmlns="http://www.w3.org/2000/svg"
   xmlns:sodipodi="http://sodipodi.sourceforge.net/DTD/sodipodi-0.dtd"
   xmlns:inkscape="http://www.inkscape.org/namespaces/inkscape"
   version="1.0"
   width="34"
   height="47.0625"
   id="svg2"
   inkscape:version="0.48.2 r9819"
   sodipodi:docname="H_red_white_red.svg"
   sodipodi:version="0.32"
   inkscape:output_extension="org.inkscape.output.svg.inkscape"
   sodipodi:modified="true">
  <title
     id="title2984">Q9: Topmark, red sphere with green band</title>
  <metadata
     id="metadata10">
    <rdf:RDF>
      <cc:Work
         rdf:about="">
        <dc:format>image/svg+xml</dc:format>
        <dc:type
           rdf:resource="http://purl.org/dc/dcmitype/StillImage" />
        <dc:title>Q9: Topmark, red sphere with green band</dc:title>
        <cc:license
           rdf:resource="http://creativecommons.org/licenses/publicdomain/" />
      </cc:Work>
      <cc:Work
         rdf:about="">
        <dc:format>image/svg+xml</dc:format>
        <dc:type
           rdf:resource="http://purl.org/dc/dcmitype/StillImage" />
      </cc:Work>
      <cc:License
         rdf:about="http://creativecommons.org/licenses/publicdomain/">
        <cc:permits
           rdf:resource="http://creativecommons.org/ns#Reproduction" />
        <cc:permits
           rdf:resource="http://creativecommons.org/ns#Distribution" />
        <cc:permits
           rdf:resource="http://creativecommons.org/ns#DerivativeWorks" />
      </cc:License>
    </rdf:RDF>
  </metadata>
  <defs
     id="defs8" />
  <sodipodi:namedview
     pagecolor="#ffffff"
     bordercolor="#666666"
     borderopacity="1"
     objecttolerance="10"
     gridtolerance="10"
     guidetolerance="10"
     inkscape:pageopacity="0"
     inkscape:pageshadow="2"
     inkscape:window-width="1440"
     inkscape:window-height="808"
     id="namedview6"
     showgrid="false"
     inkscape:zoom="13.003984"
     inkscape:cx="17"
     inkscape:cy="23.53125"
     inkscape:window-x="0"
     inkscape:window-y="0"
     inkscape:window-maximized="1"
     inkscape:current-layer="svg2" />
  <path
     sodipodi:type="arc"
     style="fill:#00d400;fill-opacity:1;stroke:none"
     id="path2987"
     sodipodi:cx="18.787796"
     sodipodi:cy="48.656002"
     sodipodi:rx="15.439476"
     sodipodi:ry="14.044343"
     d="M 34.227272 48.656002 A 15.439476 14.044343 0 1 1  3.34832,48.656002 A 15.439476 14.044343 0 1 1  34.227272 48.656002 z"
     transform="translate(-1.7908844,-31.356349)" />
  <path
     style="fill:#ffffff;stroke:none;stroke-width:1px;stroke-linecap:butt;stroke-linejoin:miter;stroke-opacity:1"
     d="M 3.138587,12.184165 L 30.390193,12.184165 L 30.57621,21.299037 L 3.3246047,21.392047 L 3.138587,12.184165 z "
     id="path2983"
     inkscape:connector-curvature="0" />
  <path
     d="M 17,0 C 7.6433,0 0,7.6433 0,17 C 0,25.652489 6.5545722,32.842141 14.9375,33.875 L 14.9375,47.0625 L 19.1875,47.0625 L 19.1875,33.875 C 27.511578,32.787617 34,25.610342 34,17 C 34,7.6433 26.3567,0 17,0 z M 17,5 C 23.6513,5 29,10.3487 29,17 C 29,23.6513 23.6513,29 17,29 C 10.3487,29 5,23.6513 5,17 C 5,10.3487 10.3487,5 17,5 z "
     id="path4" />
</svg>
