<?xml version="1.0" encoding="UTF-8" standalone="no"?>
<svg
   xmlns:dc="http://purl.org/dc/elements/1.1/"
   xmlns:cc="http://creativecommons.org/ns#"
   xmlns:rdf="http://www.w3.org/1999/02/22-rdf-syntax-ns#"
   xmlns:svg="http://www.w3.org/2000/svg"
   xmlns="http://www.w3.org/2000/svg"
   xmlns:sodipodi="http://sodipodi.sourceforge.net/DTD/sodipodi-0.dtd"
   xmlns:inkscape="http://www.inkscape.org/namespaces/inkscape"
   version="1.0"
   width="85.15625"
   height="61.0625"
   id="svg2"
   inkscape:version="0.48.2 r9819"
   sodipodi:docname="H_yellow_brown_yellow.svg"
   sodipodi:version="0.32"
   inkscape:output_extension="org.inkscape.output.svg.inkscape"
   sodipodi:modified="true">
  <title
     id="title2984">Q21: Brown and yellow can buoy</title>
  <metadata
     id="metadata3032">
    <rdf:RDF>
      <cc:Work
         rdf:about="">
        <dc:format>image/svg+xml</dc:format>
        <dc:type
           rdf:resource="http://purl.org/dc/dcmitype/StillImage" />
        <cc:license
           rdf:resource="http://creativecommons.org/licenses/publicdomain/" />
        <dc:title>Q21: Brown and yellow can buoy</dc:title>
      </cc:Work>
      <cc:Work
         rdf:about="">
        <dc:format>image/svg+xml</dc:format>
        <dc:type
           rdf:resource="http://purl.org/dc/dcmitype/StillImage" />
      </cc:Work>
      <cc:License
         rdf:about="http://creativecommons.org/licenses/publicdomain/">
        <cc:permits
           rdf:resource="http://creativecommons.org/ns#Reproduction" />
        <cc:permits
           rdf:resource="http://creativecommons.org/ns#Distribution" />
        <cc:permits
           rdf:resource="http://creativecommons.org/ns#DerivativeWorks" />
      </cc:License>
    </rdf:RDF>
  </metadata>
  <sodipodi:namedview
     pagecolor="#ffffff"
     bordercolor="#666666"
     borderopacity="1"
     objecttolerance="10"
     gridtolerance="10"
     guidetolerance="10"
     inkscape:pageopacity="0"
     inkscape:pageshadow="2"
     inkscape:window-width="1440"
     inkscape:window-height="808"
     id="namedview3030"
     showgrid="false"
     inkscape:zoom="8.9580348"
     inkscape:cx="3.2837926"
     inkscape:cy="30.53125"
     inkscape:window-x="0"
     inkscape:window-y="0"
     inkscape:window-maximized="1"
     inkscape:current-layer="svg2" />
  <defs
     id="defs4" />
  <path
     style="fill:#ffd400;fill-opacity:1;stroke:none;stroke-width:1px;stroke-linecap:butt;stroke-linejoin:miter;stroke-opacity:1"
     d="M 11.58384,49.03514 L 24.82263,4.68521 L 79.76358,22.55757 L 71.15837,47.71127 L 52.62407,47.04933 L 48.65244,40.42993 L 44.6808,39.10606 L 38.72335,39.10606 L 33.42784,43.73963 L 31.44202,48.3732 L 11.58384,49.03514 z "
     id="path2982"
     inkscape:connector-curvature="0" />
  <path
     style="fill:#a52a2a;stroke:none"
     d="M 17.00185,28.5126 L 72.39254,44.07991 L 75.77149,34.7878 L 21.34622,17.16897 L 17.00185,28.5126 z "
     id="path2983"
     inkscape:connector-curvature="0"
     sodipodi:nodetypes="ccccc" />
  <path
     d="M 23.1875,0 L 7.96875,45.75 L 0,45.75 L 0,51.40625 L 29.6875,51.40625 C 30.97482,56.9392 35.92077,61.06249 41.84375,61.0625 C 47.7687,61.0625 52.7147,56.94198 54,51.40625 L 83.84375,51.40625 L 83.84375,51.34375 L 83.84375,45.75 L 76.15625,45.75 L 85.15625,19.5625 L 23.1875,0 z M 28.21875,8.625 L 75.375,24.59375 L 68.15625,45.75 L 54,45.75 C 52.7147,40.21427 47.7687,36.09375 41.84375,36.09375 C 35.92077,36.09376 30.97482,40.21705 29.6875,45.75 L 15.96875,45.75 L 28.21875,8.625 z M 41.84375,41.0625 C 45.98375,41.0625 49.34375,44.4225 49.34375,48.5625 C 49.34375,52.7025 45.98375,56.0625 41.84375,56.0625 C 37.70375,56.0625 34.34375,52.7025 34.34375,48.5625 C 34.34375,44.4225 37.70375,41.0625 41.84375,41.0625 z "
     id="path90440"
     style="fill:#000407;fill-opacity:1;fill-rule:evenodd;stroke:none" />
</svg>
