<?xml version="1.0" encoding="UTF-8" standalone="no"?>
<svg
   xmlns:dc="http://purl.org/dc/elements/1.1/"
   xmlns:cc="http://creativecommons.org/ns#"
   xmlns:rdf="http://www.w3.org/1999/02/22-rdf-syntax-ns#"
   xmlns:svg="http://www.w3.org/2000/svg"
   xmlns="http://www.w3.org/2000/svg"
   xmlns:sodipodi="http://sodipodi.sourceforge.net/DTD/sodipodi-0.dtd"
   xmlns:inkscape="http://www.inkscape.org/namespaces/inkscape"
   version="1.0"
   width="41.71875"
   height="55.8125"
   id="svg2"
   inkscape:version="0.48.2 r9819"
   sodipodi:docname="X_green.svg"
   sodipodi:version="0.32"
   inkscape:output_extension="org.inkscape.output.svg.inkscape"
   sodipodi:modified="true">
  <title
     id="title2983">Q9: Topmark, green X</title>
  <metadata
     id="metadata10">
    <rdf:RDF>
      <cc:Work
         rdf:about="">
        <dc:format>image/svg+xml</dc:format>
        <dc:type
           rdf:resource="http://purl.org/dc/dcmitype/StillImage" />
        <dc:title>Q9: Topmark, green X</dc:title>
        <cc:license
           rdf:resource="http://creativecommons.org/licenses/publicdomain/" />
      </cc:Work>
      <cc:Work
         rdf:about="">
        <dc:format>image/svg+xml</dc:format>
        <dc:type
           rdf:resource="http://purl.org/dc/dcmitype/StillImage" />
      </cc:Work>
      <cc:License
         rdf:about="http://creativecommons.org/licenses/publicdomain/">
        <cc:permits
           rdf:resource="http://creativecommons.org/ns#Reproduction" />
        <cc:permits
           rdf:resource="http://creativecommons.org/ns#Distribution" />
        <cc:permits
           rdf:resource="http://creativecommons.org/ns#DerivativeWorks" />
      </cc:License>
    </rdf:RDF>
  </metadata>
  <defs
     id="defs8" />
  <sodipodi:namedview
     pagecolor="#ffffff"
     bordercolor="#666666"
     borderopacity="1"
     objecttolerance="10"
     gridtolerance="10"
     guidetolerance="10"
     inkscape:pageopacity="0"
     inkscape:pageshadow="2"
     inkscape:window-width="1440"
     inkscape:window-height="808"
     id="namedview6"
     showgrid="false"
     inkscape:zoom="24.777539"
     inkscape:cx="-3.078392"
     inkscape:cy="27.90625"
     inkscape:window-x="0"
     inkscape:window-y="0"
     inkscape:window-maximized="1"
     inkscape:current-layer="svg2" />
  <path
     style="fill:#00d400;fill-opacity:1;stroke:none;stroke-width:1px;stroke-linecap:butt;stroke-linejoin:miter;stroke-opacity:1"
     d="M 8.456728,40.285269 L 1.272487,32.985153 L 13.786972,20.818293 L 1.504237,8.535559 L 8.572603,1.467192 L 20.739463,13.634052 L 33.253947,1.351318 L 40.322314,8.535559 L 27.923704,20.934168 L 40.322314,33.332778 L 33.369822,40.285269 L 20.971213,28.002535 L 8.456728,40.285269 z "
     id="path2987"
     inkscape:connector-curvature="0" />
  <path
     d="M 8.46875,0 L 0,8.46875 L 12.375,20.84375 L 0,33.21875 L 8.46875,41.71875 L 18.34375,31.84375 L 18.34375,55.8125 L 23.28125,55.8125 L 23.28125,31.78125 L 33.21875,41.71875 L 41.71875,33.21875 L 29.34375,20.84375 L 41.71875,8.46875 L 33.21875,0 L 20.84375,12.375 L 8.46875,0 z M 8.46875,2.8125 L 20.84375,15.1875 L 33.21875,2.8125 L 38.875,8.46875 L 26.5,20.84375 L 38.875,33.21875 L 33.21875,38.875 L 20.84375,26.5 L 8.46875,38.875 L 2.8125,33.21875 L 15.1875,20.84375 L 2.8125,8.46875 L 8.46875,2.8125 z "
     id="path4" />
</svg>
