<?xml version="1.0" encoding="UTF-8" standalone="no"?>
<!-- Generator: Adobe Illustrator 14.0.0, SVG Export Plug-In . SVG Version: 6.00 Build 43363)  -->

<svg
   xmlns:dc="http://purl.org/dc/elements/1.1/"
   xmlns:cc="http://creativecommons.org/ns#"
   xmlns:rdf="http://www.w3.org/1999/02/22-rdf-syntax-ns#"
   xmlns:svg="http://www.w3.org/2000/svg"
   xmlns="http://www.w3.org/2000/svg"
   xmlns:sodipodi="http://sodipodi.sourceforge.net/DTD/sodipodi-0.dtd"
   xmlns:inkscape="http://www.inkscape.org/namespaces/inkscape"
   version="1.1"
   id="svg8829"
   inkscape:export-filename="C:\Dokumente und Einstellungen\rolf\Eigene Dateien\Eigene Karten\Harbour.png"
   inkscape:output_extension="org.inkscape.output.svg.inkscape"
   sodipodi:version="0.32"
   inkscape:version="0.48.2 r9819"
   inkscape:export-ydpi="89.361702"
   inkscape:export-xdpi="89.361702"
   sodipodi:docname="T1.1.svg"
   x="0px"
   y="0px"
   width="136.37805"
   height="138.1875"
   viewBox="0 0 136.37805 138.1875"
   xml:space="preserve"><title
   id="title2986">T1.1: Pilot Boarding Position</title><metadata
   id="metadata13"><rdf:RDF><cc:Work
       rdf:about=""><dc:format>image/svg+xml</dc:format><dc:type
         rdf:resource="http://purl.org/dc/dcmitype/StillImage" /><dc:title>T1.1: Pilot Boarding Position</dc:title><cc:license
         rdf:resource="http://creativecommons.org/licenses/publicdomain/" /></cc:Work><cc:License
       rdf:about="http://creativecommons.org/licenses/publicdomain/"><cc:permits
         rdf:resource="http://creativecommons.org/ns#Reproduction" /><cc:permits
         rdf:resource="http://creativecommons.org/ns#Distribution" /><cc:permits
         rdf:resource="http://creativecommons.org/ns#DerivativeWorks" /></cc:License></rdf:RDF></metadata><defs
   id="defs11" />
<sodipodi:namedview
   id="base"
   inkscape:current-layer="g2415"
   inkscape:window-y="0"
   inkscape:window-x="0"
   inkscape:window-width="1440"
   inkscape:pageopacity="0.0"
   inkscape:pageshadow="2"
   inkscape:window-height="808"
   inkscape:cy="66.625"
   inkscape:cx="8.4000008"
   borderopacity="1.0"
   objecttolerance="10.0"
   inkscape:zoom="3.0555556"
   gridtolerance="10.0"
   showgrid="false"
   guidetolerance="10.0"
   pagecolor="#ffffff"
   bordercolor="#666666"
   inkscape:window-maximized="1"
   fit-margin-top="0"
   fit-margin-left="0"
   fit-margin-right="0"
   fit-margin-bottom="0">
	</sodipodi:namedview>
<g
   id="g2415"
   transform="translate(-24,-18.4375)">
	<path
   style="fill:#a30075;fill-opacity:1"
   d="M 92.375,18.4375 C 52.271546,18.4375 24,48.164132 24,89 c 0,40.83587 27.177797,67.625 67.28125,67.625 41.20208,0 68.7601,-30.08553 69.09375,-70.1875 0.3428,-41.202277 -28.26276,-68 -68,-68 z m 0.3125,3.375 C 128.48872,22.02544 156,50.15647 156,86.625 c 0,36.10501 -28.03556,65.81613 -63.34375,66.625 L 114.84375,82.4375 92.6875,21.8125 z M 91.5,21.84375 69.34375,83.4375 l 22.1875,69.84375 c -0.115417,6.2e-4 -0.228185,0 -0.34375,0 -36.000655,0 -63,-27.48634 -63,-64.09375 0,-36.340034 27.690595,-66.898839 63.3125,-67.34375 z"
   id="path2421"
   inkscape:connector-curvature="0" />
	
	
		
</g>
<g
   id="g2409"
   transform="translate(-24,-18.4375)">
	<path
   id="path2411"
   d="m 134.13,100.27 -3.83,21.63 -5.25,-4.86 c -2.618,2.91 -5.6,5.38 -9.18,7.63 -6.05,3.8 -12.67,5.95 -19.33,6.57 l -0.68,6.33 h -7 l -0.7,-6.33 C 77.38,130.2 67.1,125.21 59.56,116.82 l -5.83,5.08 -3.13,-21.93 15.31,11.3 -3.9,3.4 c 6.65,5.73 15.86,9.561 26.182,10.38 l 1.38,-57.98 H 74.96 v -4.39 l 14.58,0.16 v -3.65 c -4.51,-0.99 -7.858,-4.64 -7.858,-9 0,-5.13 4.618,-9.28 10.318,-9.28 5.69,0 10.312,4.15 10.312,9.28 0,4.26 -3.199,7.86 -7.552,8.95 v 3.59 l 15.012,-0.05 v 4.39 H 95.16 l 1.41,57.98 c 10.25,-0.819 19.39,-4.62 26.02,-10.3 l -3.77,-3.48 15.31,-11 z M 96.92,50.19 c 0,-2.44 -2.198,-4.42 -4.91,-4.42 -2.71,0 -4.908,1.98 -4.908,4.42 0,2.44 2.198,4.42 4.908,4.42 2.71,0 4.91,-1.98 4.91,-4.42 z"
   inkscape:connector-curvature="0"
   style="fill-opacity:0" />
	
		<ellipse
   id="ellipse2413"
   sodipodi:cx="92.010002"
   sodipodi:cy="50.189999"
   sodipodi:rx="4.9099998"
   sodipodi:ry="4.4200001"
   cx="92.010002"
   cy="50.189999"
   rx="4.9099998"
   ry="4.4200001"
   style="fill-opacity:0"
   d="m 96.920002,50.189999 c 0,2.441098 -2.198282,4.42 -4.91,4.42 -2.711718,0 -4.91,-1.978902 -4.91,-4.42 0,-2.441099 2.198282,-4.42 4.91,-4.42 2.711718,0 4.91,1.978901 4.91,4.42 z">
	</ellipse>
</g>
</svg>