<?xml version="1.0" encoding="UTF-8" standalone="no"?>
<svg
   xmlns:dc="http://purl.org/dc/elements/1.1/"
   xmlns:cc="http://creativecommons.org/ns#"
   xmlns:rdf="http://www.w3.org/1999/02/22-rdf-syntax-ns#"
   xmlns:svg="http://www.w3.org/2000/svg"
   xmlns="http://www.w3.org/2000/svg"
   xmlns:sodipodi="http://sodipodi.sourceforge.net/DTD/sodipodi-0.dtd"
   xmlns:inkscape="http://www.inkscape.org/namespaces/inkscape"
   version="1.0"
   width="83.84375"
   height="110.84375"
   id="svg2"
   inkscape:version="0.48.2 r9819"
   sodipodi:docname="T32.1.svg"
   sodipodi:version="0.32"
   inkscape:output_extension="org.inkscape.output.svg.inkscape"
   sodipodi:modified="true">
  <title
     id="title2982">T32: Tide Scale</title>
  <metadata
     id="metadata3032">
    <rdf:RDF>
      <cc:Work
         rdf:about="">
        <dc:format>image/svg+xml</dc:format>
        <dc:type
           rdf:resource="http://purl.org/dc/dcmitype/StillImage" />
        <cc:license
           rdf:resource="http://creativecommons.org/licenses/publicdomain/" />
        <dc:title>T32: Tide Scale</dc:title>
      </cc:Work>
      <cc:Work
         rdf:about="">
        <dc:format>image/svg+xml</dc:format>
        <dc:type
           rdf:resource="http://purl.org/dc/dcmitype/StillImage" />
      </cc:Work>
      <cc:License
         rdf:about="http://creativecommons.org/licenses/publicdomain/">
        <cc:permits
           rdf:resource="http://creativecommons.org/ns#Reproduction" />
        <cc:permits
           rdf:resource="http://creativecommons.org/ns#Distribution" />
        <cc:permits
           rdf:resource="http://creativecommons.org/ns#DerivativeWorks" />
      </cc:License>
    </rdf:RDF>
  </metadata>
  <sodipodi:namedview
     pagecolor="#ffffff"
     bordercolor="#666666"
     borderopacity="1"
     objecttolerance="10"
     gridtolerance="10"
     guidetolerance="10"
     inkscape:pageopacity="0"
     inkscape:pageshadow="2"
     inkscape:window-width="1440"
     inkscape:window-height="808"
     id="namedview3030"
     showgrid="false"
     inkscape:zoom="4.9619397"
     inkscape:cx="6.4518752"
     inkscape:cy="55.421875"
     inkscape:window-x="0"
     inkscape:window-y="0"
     inkscape:window-maximized="1"
     inkscape:current-layer="svg2" />
  <defs
     id="defs4" />
  <path
     style="fill:#000407;fill-opacity:1;fill-rule:evenodd;stroke:none"
     d="M 39.4377,0 L 39.4689,17.71875 L 24.2499,17.71875 L 24.2499,21.5 L 39.4689,21.5 L 39.5001,37.09375 L 13.7501,37.09375 L 13.7501,41.375 L 39.5001,41.375 L 39.5313,59.4375 L 24.2498,59.4375 L 24.25005,63.5 L 39.5313,63.5 L 39.5625,86.09375 C 34.6891,86.99987 30.80436,90.73096 29.6875,95.53125 L -5.6843419e-014,95.53125 L -5.6843419e-014,101.1875 L 29.6875,101.1875 C 30.97482,106.72045 35.92077,110.84374 41.84375,110.84375 C 47.7687,110.84375 52.7147,106.72323 54,101.1875 L 83.84375,101.1875 L 83.84375,101.125 L 83.84375,95.53125 L 54,95.53125 C 52.8352,90.51449 48.65053,86.67862 43.46875,86 L 43.46875,63.5 L 57.99975,63.5 L 58,59.4375 L 43.46875,59.4375 L 43.46875,41.375 L 68.71875,41.375 L 68.71875,37.09375 L 43.46875,37.09375 L 43.46875,21.5 L 57.99975,21.5 L 57.99975,17.71875 L 43.46875,17.71875 L 43.46875,0 L 39.4377,0 z M 41.84395,90.84375 C 45.98395,90.84375 49.34395,94.20375 49.34395,98.34375 C 49.34395,102.48375 45.98395,105.84375 41.84395,105.84375 C 37.70395,105.84375 34.34395,102.48375 34.34395,98.34375 C 34.34395,94.20375 37.70395,90.84375 41.84395,90.84375 z "
     id="path90440"
     inkscape:connector-curvature="0"
     sodipodi:nodetypes="ccccccccccccccccccsccccccccccccccccccccsssss" />
</svg>
