<?xml version="1.0" encoding="UTF-8" standalone="no"?>
<svg
   xmlns:dc="http://purl.org/dc/elements/1.1/"
   xmlns:cc="http://creativecommons.org/ns#"
   xmlns:rdf="http://www.w3.org/1999/02/22-rdf-syntax-ns#"
   xmlns:svg="http://www.w3.org/2000/svg"
   xmlns="http://www.w3.org/2000/svg"
   xmlns:sodipodi="http://sodipodi.sourceforge.net/DTD/sodipodi-0.dtd"
   xmlns:inkscape="http://www.inkscape.org/namespaces/inkscape"
   version="1.0"
   width="189.125"
   height="147.40625"
   id="svg2"
   inkscape:version="0.48.2 r9819"
   sodipodi:docname="Tb_br.svg"
   sodipodi:version="0.32"
   inkscape:output_extension="org.inkscape.output.svg.inkscape"
   sodipodi:modified="true">
  <title
     id="title2982">Tb: Signal Mast (Brazilian Symbol)</title>
  <metadata
     id="metadata3032">
    <rdf:RDF>
      <cc:Work
         rdf:about="">
        <dc:format>image/svg+xml</dc:format>
        <dc:type
           rdf:resource="http://purl.org/dc/dcmitype/StillImage" />
        <cc:license
           rdf:resource="http://creativecommons.org/licenses/publicdomain/" />
        <dc:title>Tb: Signal Mast (Brazilian Symbol)</dc:title>
      </cc:Work>
      <cc:Work
         rdf:about="">
        <dc:format>image/svg+xml</dc:format>
        <dc:type
           rdf:resource="http://purl.org/dc/dcmitype/StillImage" />
      </cc:Work>
      <cc:License
         rdf:about="http://creativecommons.org/licenses/publicdomain/">
        <cc:permits
           rdf:resource="http://creativecommons.org/ns#Reproduction" />
        <cc:permits
           rdf:resource="http://creativecommons.org/ns#Distribution" />
        <cc:permits
           rdf:resource="http://creativecommons.org/ns#DerivativeWorks" />
      </cc:License>
    </rdf:RDF>
  </metadata>
  <sodipodi:namedview
     pagecolor="#ffffff"
     bordercolor="#666666"
     borderopacity="1"
     objecttolerance="10"
     gridtolerance="10"
     guidetolerance="10"
     inkscape:pageopacity="0"
     inkscape:pageshadow="2"
     inkscape:window-width="1440"
     inkscape:window-height="808"
     id="namedview3030"
     showgrid="false"
     inkscape:zoom="3.7311851"
     inkscape:cx="47.3925"
     inkscape:cy="73.703125"
     inkscape:window-x="0"
     inkscape:window-y="0"
     inkscape:window-maximized="1"
     inkscape:current-layer="svg2" />
  <defs
     id="defs4" />
  <path
     style="fill:#000407;fill-opacity:1;fill-rule:evenodd;stroke:none"
     d="M 116.375,0 C 78.12915,0 60.87449,5.673224 43.90625,11.03125 L 39.09375,11.03125 L 39.09375,122.75 C 34.43841,123.79979 30.7689,127.44584 29.6875,132.09375 L 0,132.09375 L 0,137.75 L 29.6875,137.75 C 30.97482,143.28295 35.92077,147.40624 41.84375,147.40625 C 47.7687,147.40625 52.7147,143.28573 54,137.75 L 83.84375,137.75 L 83.84375,137.6875 L 83.84375,132.09375 L 54,132.09375 C 52.92483,127.46303 49.28484,123.81654 44.65625,122.75 L 44.65625,13.9375 C 60.06369,18.786136 80.29394,23.96875 116.375,23.96875 C 156.54351,23.96875 168.29302,22.083998 189.125,11.96875 C 169.0946,3.603231 156.54351,0 116.375,0 z M 41.84375,127.40625 C 45.98375,127.40625 49.34375,130.76625 49.34375,134.90625 C 49.34375,139.04625 45.98375,142.40625 41.84375,142.40625 C 37.70375,142.40625 34.34375,139.04625 34.34375,134.90625 C 34.34375,130.76625 37.70375,127.40625 41.84375,127.40625 z "
     id="path90440"
     inkscape:connector-curvature="0"
     sodipodi:nodetypes="scccccccscccccccscssssss" />
</svg>
