<?xml version="1.0" encoding="UTF-8" standalone="no"?>
<svg
   xmlns:dc="http://purl.org/dc/elements/1.1/"
   xmlns:cc="http://creativecommons.org/ns#"
   xmlns:rdf="http://www.w3.org/1999/02/22-rdf-syntax-ns#"
   xmlns:svg="http://www.w3.org/2000/svg"
   xmlns="http://www.w3.org/2000/svg"
   xmlns:sodipodi="http://sodipodi.sourceforge.net/DTD/sodipodi-0.dtd"
   xmlns:inkscape="http://www.inkscape.org/namespaces/inkscape"
   version="1.0"
   width="83.84375"
   height="110.84375"
   id="svg2"
   inkscape:version="0.48.2 r9819"
   sodipodi:docname="Tc_br.svg"
   sodipodi:version="0.32"
   inkscape:output_extension="org.inkscape.output.svg.inkscape"
   sodipodi:modified="true">
  <title
     id="title2982">Tc: Naval Station (Brazilian Symbol)</title>
  <metadata
     id="metadata3032">
    <rdf:RDF>
      <cc:Work
         rdf:about="">
        <dc:format>image/svg+xml</dc:format>
        <dc:type
           rdf:resource="http://purl.org/dc/dcmitype/StillImage" />
        <cc:license
           rdf:resource="http://creativecommons.org/licenses/publicdomain/" />
        <dc:title>Tc: Naval Station (Brazilian Symbol)</dc:title>
      </cc:Work>
      <cc:License
         rdf:about="http://creativecommons.org/licenses/publicdomain/">
        <cc:permits
           rdf:resource="http://creativecommons.org/ns#Reproduction" />
        <cc:permits
           rdf:resource="http://creativecommons.org/ns#Distribution" />
        <cc:permits
           rdf:resource="http://creativecommons.org/ns#DerivativeWorks" />
      </cc:License>
      <cc:Work
         rdf:about="">
        <dc:format>image/svg+xml</dc:format>
        <dc:type
           rdf:resource="http://purl.org/dc/dcmitype/StillImage" />
      </cc:Work>
    </rdf:RDF>
  </metadata>
  <sodipodi:namedview
     pagecolor="#ffffff"
     bordercolor="#666666"
     borderopacity="1"
     objecttolerance="10"
     gridtolerance="10"
     guidetolerance="10"
     inkscape:pageopacity="0"
     inkscape:pageshadow="2"
     inkscape:window-width="1440"
     inkscape:window-height="808"
     id="namedview3030"
     showgrid="false"
     inkscape:zoom="5.5212856"
     inkscape:cx="10.045241"
     inkscape:cy="55.421875"
     inkscape:window-x="0"
     inkscape:window-y="0"
     inkscape:window-maximized="1"
     inkscape:current-layer="svg2" />
  <defs
     id="defs4" />
  <path
     style="fill:#000407;fill-opacity:1;fill-rule:evenodd;stroke:none"
     d="M 39.4376,0 L 39.4688,17.71875 L 23.12505,17.71875 L 23.12505,21.5 L 39.4688,21.5 L 39.5625,86.09375 C 34.6891,86.99987 30.80436,90.73096 29.6875,95.53125 L -2.8421709e-014,95.53125 L -2.8421709e-014,101.1875 L 29.6875,101.1875 C 30.97482,106.72045 35.92077,110.84374 41.84375,110.84375 C 47.7687,110.84375 52.7147,106.72323 54,101.1875 L 83.84375,101.1875 L 83.84375,101.125 L 83.84375,95.53125 L 54,95.53125 C 52.8352,90.51449 48.65053,86.67862 43.46875,86 L 43.46875,21.5 L 60.75,21.5 L 60.75,17.71875 L 45.59375,17.71875 L 55.59375,4.625 L 52.59375,2.34375 L 43.46875,14.25 L 43.46875,0 L 39.4376,0 z M 41.84385,90.84375 C 45.98385,90.84375 49.34385,94.20375 49.34385,98.34375 C 49.34385,102.48375 45.98385,105.84375 41.84385,105.84375 C 37.70385,105.84375 34.34385,102.48375 34.34385,98.34375 C 34.34385,94.20375 37.70385,90.84375 41.84385,90.84375 z "
     id="path90440"
     inkscape:connector-curvature="0"
     sodipodi:nodetypes="ccccccccccscccccccccccccccsssss" />
</svg>
