<?xml version="1.0" encoding="UTF-8" standalone="no"?>
<!-- Created with Inkscape (http://www.inkscape.org/) -->

<svg
   xmlns:dc="http://purl.org/dc/elements/1.1/"
   xmlns:cc="http://creativecommons.org/ns#"
   xmlns:rdf="http://www.w3.org/1999/02/22-rdf-syntax-ns#"
   xmlns:svg="http://www.w3.org/2000/svg"
   xmlns="http://www.w3.org/2000/svg"
   xmlns:sodipodi="http://sodipodi.sourceforge.net/DTD/sodipodi-0.dtd"
   xmlns:inkscape="http://www.inkscape.org/namespaces/inkscape"
   id="svg2"
   height="60"
   width="60"
   version="1.1"
   inkscape:version="0.48.2 r9819"
   sodipodi:docname="channel_two_way.svg">
  <title
     id="title2987">Channel Two Way</title>
  <defs
     id="defs3826" />
  <sodipodi:namedview
     pagecolor="#ffffff"
     bordercolor="#666666"
     borderopacity="1"
     objecttolerance="10"
     gridtolerance="10"
     guidetolerance="10"
     inkscape:pageopacity="0"
     inkscape:pageshadow="2"
     inkscape:window-width="1440"
     inkscape:window-height="808"
     id="namedview3824"
     showgrid="false"
     inkscape:zoom="9.1666667"
     inkscape:cx="10.8"
     inkscape:cy="30"
     inkscape:window-x="0"
     inkscape:window-y="0"
     inkscape:window-maximized="1"
     inkscape:current-layer="svg2" />
  <metadata
     id="metadata7">
    <rdf:RDF>
      <cc:Work
         rdf:about="">
        <dc:format>image/svg+xml</dc:format>
        <dc:type
           rdf:resource="http://purl.org/dc/dcmitype/StillImage" />
        <dc:title>Channel Two Way</dc:title>
        <cc:license
           rdf:resource="http://creativecommons.org/licenses/publicdomain/" />
        <dc:identifier>D1a</dc:identifier>
      </cc:Work>
      <cc:License
         rdf:about="http://creativecommons.org/licenses/publicdomain/">
        <cc:permits
           rdf:resource="http://creativecommons.org/ns#Reproduction" />
        <cc:permits
           rdf:resource="http://creativecommons.org/ns#Distribution" />
        <cc:permits
           rdf:resource="http://creativecommons.org/ns#DerivativeWorks" />
      </cc:License>
    </rdf:RDF>
  </metadata>
  <g
     id="layer45"
     transform="translate(0,-60)">
    <g
       id="layer1-24"
       transform="matrix(.97035 0 0 .97035 -275.11 -427.4)">
      <g
         id="g3064"
         transform="matrix(.84347 0 0 .84347 49.219 83.462)">
        <path
           id="path17763"
           stroke-linejoin="bevel"
           d="m312.88 567.96-33.205-33.205-0.006-0.006c-0.0662-0.0675-0.12875-0.14-0.18625-0.215-0.0575-0.0762-0.11-0.155-0.15625-0.23875-0.0487-0.0812-0.0912-0.1675-0.12625-0.255-0.0362-0.0875-0.0662-0.17875-0.09-0.27-0.0238-0.0912-0.0425-0.185-0.055-0.28-0.0125-0.0937-0.0187-0.18875-0.0175-0.28375-0.001-0.095 0.005-0.19 0.0175-0.28375 0.0125-0.095 0.0312-0.1875 0.0562-0.28 0.0238-0.0912 0.0538-0.18125 0.0888-0.27 0.0362-0.0875 0.0788-0.1725 0.12625-0.255 0.0462-0.0838 0.0987-0.16375 0.155-0.23875 0.0575-0.0762 0.12-0.14875 0.1875-0.215l0.006-0.006 0.006-0.006 33.199-33.199 0.006-0.006 0.006-0.006c0.0675-0.0662 0.13875-0.12875 0.215-0.18625 0.075-0.0575 0.155-0.11 0.2375-0.15625 0.0825-0.0487 0.1675-0.09 0.25625-0.12625 0.0875-0.0362 0.1775-0.0662 0.27-0.0887 0.0925-0.025 0.185-0.0438 0.28-0.0563 0.0937-0.0125 0.18875-0.0175 0.28375-0.0175s0.19 0.005 0.28375 0.0175c0.095 0.0125 0.1875 0.0312 0.28 0.0563 0.0913 0.0237 0.18125 0.0537 0.27 0.09 0.0875 0.035 0.1725 0.0775 0.255 0.125 0.0838 0.0462 0.16375 0.0987 0.24 0.15625 0.075 0.0562 0.14625 0.11875 0.21375 0.18625l0.006 0.006 0.006 0.006 33.199 33.199 0.006 0.006 0.006 0.006c0.0662 0.0675 0.12875 0.13875 0.18625 0.215 0.0575 0.075 0.11 0.155 0.15625 0.23875 0.0475 0.0812 0.09 0.16625 0.12625 0.255 0.035 0.0875 0.065 0.17875 0.0888 0.27 0.025 0.0925 0.0438 0.185 0.0562 0.28 0.0125 0.0937 0.0188 0.18875 0.0175 0.28375 0.001 0.095-0.005 0.19-0.0175 0.285-0.0125 0.0937-0.0312 0.1875-0.0562 0.27875-0.0237 0.0913-0.0538 0.1825-0.09 0.27s-0.0775 0.17375-0.125 0.255c-0.0462 0.0837-0.0987 0.16375-0.15625 0.24-0.0562 0.075-0.11875 0.1475-0.18625 0.21375l-0.007 0.006-33.204 33.205-0.006 0.006-0.006 0.006c-0.0675 0.0662-0.14 0.12875-0.215 0.18625-0.0762 0.0575-0.155 0.11-0.23875 0.15625-0.0812 0.0488-0.1675 0.09-0.255 0.12625-0.0875 0.0362-0.17875 0.065-0.27 0.0888-0.0925 0.025-0.185 0.0437-0.28 0.0562-0.0937 0.0125-0.18875 0.0187-0.28375 0.0175-0.095 0.001-0.19-0.005-0.28375-0.0175-0.095-0.0125-0.18875-0.0312-0.28-0.0562-0.0925-0.0238-0.1825-0.0538-0.27-0.09s-0.17375-0.0775-0.25625-0.125c-0.0825-0.0462-0.1625-0.0987-0.23875-0.15625-0.0762-0.0562-0.1475-0.11875-0.21375-0.18625l-0.006-0.006-0.006-0.006z"
           stroke="#231f20"
           stroke-miterlimit="22.926"
           stroke-width=".27825"
           fill="none" />
        <path
           id="path17767"
           stroke-linejoin="bevel"
           d="m312.86 567.99 0.006 0.006 0.006 0.006c0.0688 0.0675 0.14125 0.13125 0.21875 0.19 0.0763 0.0588 0.1575 0.11125 0.24125 0.15875 0.0838 0.0487 0.17 0.0912 0.26 0.1275 0.0888 0.0375 0.18125 0.0675 0.275 0.0913 0.0925 0.025 0.1875 0.0437 0.28375 0.0562 0.095 0.0125 0.1925 0.0187 0.28875 0.0187 0.0963 0 0.1925-0.006 0.28875-0.0187 0.095-0.0125 0.19-0.0312 0.28375-0.0562 0.0937-0.025 0.185-0.055 0.27375-0.0913 0.09-0.0375 0.17625-0.08 0.26-0.1275 0.085-0.0475 0.16625-0.1 0.2425-0.15875 0.0775-0.0575 0.15-0.12125 0.2175-0.19l0.007-0.006 0.005-0.006 33.2-33.199 0.006-0.006 0.005-0.006c0.0687-0.0688 0.13125-0.14125 0.19-0.21875 0.0588-0.0762 0.11125-0.1575 0.15875-0.24125 0.05-0.0837 0.0925-0.17 0.12875-0.26 0.0362-0.09 0.0662-0.18125 0.09-0.275 0.025-0.0925 0.045-0.1875 0.0575-0.28375 0.0125-0.095 0.0187-0.19125 0.0175-0.28875 0.001-0.0962-0.005-0.1925-0.0175-0.28875-0.0125-0.095-0.0312-0.19-0.0563-0.28375-0.025-0.0937-0.055-0.185-0.0925-0.27375-0.0362-0.09-0.0788-0.1775-0.1275-0.26-0.0462-0.085-0.1-0.16625-0.1575-0.24375-0.0588-0.0762-0.1225-0.15-0.19125-0.2175l-0.005-0.006-0.006-0.006-33.2-33.199-0.005-0.006-0.006-0.006c-0.0687-0.0675-0.1425-0.13125-0.21875-0.18875-0.0775-0.0587-0.1575-0.1125-0.2425-0.15875-0.0825-0.05-0.17-0.0925-0.26-0.12875-0.0888-0.0363-0.18-0.0675-0.27375-0.0913-0.0937-0.025-0.18875-0.0438-0.28375-0.0563-0.0963-0.0125-0.1925-0.0188-0.28875-0.0175-0.0975-0.001-0.19375 0.005-0.28875 0.0175-0.0963 0.0125-0.19125 0.0312-0.28375 0.0563-0.0937 0.025-0.18625 0.055-0.275 0.0913-0.09 0.0375-0.17625 0.08-0.26 0.12875-0.085 0.0462-0.165 0.0987-0.2425 0.1575-0.0775 0.0575-0.15 0.12125-0.2175 0.19l-0.006 0.006-0.006 0.006-33.199 33.199-0.006 0.006-0.006 0.006c-0.0688 0.0688-0.13125 0.14125-0.19 0.21875-0.0588 0.0762-0.11125 0.1575-0.15875 0.2425-0.0487 0.0825-0.0912 0.17-0.12875 0.25875-0.0362 0.09-0.0662 0.18125-0.09 0.275-0.025 0.0937-0.0437 0.18875-0.0562 0.28375-0.0137 0.0962-0.0187 0.1925-0.0187 0.28875 0 0.0975 0.005 0.19375 0.0175 0.28875 0.0138 0.0962 0.0325 0.19125 0.0575 0.28375 0.0238 0.0937 0.055 0.185 0.0913 0.275 0.0362 0.0888 0.0788 0.17625 0.1275 0.26 0.0475 0.0838 0.1 0.165 0.15875 0.2425 0.0575 0.0775 0.12125 0.15 0.19 0.2175l0.006 0.006 0.006 0.006 33.199 33.199z"
           stroke="#000"
           stroke-miterlimit="22.926"
           stroke-width="2.4436"
           fill="#fff" />
        <path
           id="path17759"
           d="m315.97 566.7-0.0125 0.0112c-0.0663 0.0663-0.1375 0.12875-0.21125 0.185-0.075 0.0575-0.15375 0.10875-0.23625 0.155-0.0813 0.0475-0.165 0.0888-0.2525 0.12375-0.0862 0.0362-0.17625 0.065-0.2675 0.0888-0.09 0.025-0.1825 0.0425-0.275 0.055-0.0937 0.0125-0.1875 0.0175-0.28125 0.0175-0.0937 0-0.1875-0.005-0.28125-0.0175-0.0925-0.0112-0.185-0.03-0.27625-0.055-0.09-0.0238-0.18-0.0525-0.26625-0.0888-0.0875-0.0362-0.17125-0.0775-0.2525-0.12375-0.0825-0.0463-0.16125-0.0975-0.23625-0.15375-0.075-0.0562-0.14625-0.11875-0.2125-0.18625l-0.0113-0.0112-31.958-31.956-0.0113-0.0125c-0.0662-0.0662-0.1275-0.1375-0.185-0.2125-0.0562-0.075-0.10875-0.15375-0.15375-0.235-0.0475-0.0812-0.09-0.165-0.125-0.2525s-0.065-0.17625-0.0888-0.2675c-0.0237-0.09-0.0425-0.1825-0.055-0.27625-0.0113-0.0925-0.0175-0.18625-0.0175-0.28125 0-0.0937 0.006-0.1875 0.0175-0.28 0.0125-0.0937 0.0312-0.185 0.055-0.27625 0.0238-0.0913 0.0538-0.18 0.09-0.2675 0.035-0.0863 0.0762-0.17 0.12375-0.2525 0.045-0.0813 0.0963-0.16125 0.15375-0.23625 0.0562-0.075 0.1175-0.145 0.185-0.21125l0.0113-0.0125 31.958-31.956 0.0113-0.0112c0.0675-0.0662 0.13875-0.1275 0.2125-0.185 0.075-0.0575 0.15375-0.10875 0.23625-0.155 0.08-0.0475 0.165-0.0888 0.2525-0.12375 0.0863-0.0362 0.175-0.065 0.26625-0.0888 0.0913-0.025 0.18375-0.0425 0.27625-0.055 0.0937-0.0125 0.1875-0.0175 0.28125-0.0175 0.0937 0 0.1875 0.005 0.28125 0.0175 0.0925 0.0113 0.185 0.03 0.275 0.055 0.0912 0.0238 0.18125 0.0538 0.2675 0.0888 0.0863 0.0362 0.17125 0.0775 0.2525 0.12375 0.0825 0.0462 0.16125 0.0975 0.23625 0.15375 0.075 0.0575 0.14625 0.11875 0.21125 0.18625l0.0125 0.0112 31.956 31.956 0.0125 0.0125c0.065 0.0675 0.1275 0.1375 0.18375 0.2125 0.0575 0.075 0.10875 0.15375 0.155 0.235 0.0475 0.0812 0.0888 0.165 0.125 0.2525 0.035 0.0875 0.065 0.17625 0.0875 0.2675 0.025 0.0913 0.0437 0.1825 0.055 0.27625 0.0125 0.0925 0.0187 0.18625 0.0187 0.28 0 0.095-0.006 0.18875-0.0175 0.28125-0.0125 0.0937-0.0312 0.18625-0.0562 0.27625-0.0238 0.0913-0.0525 0.18-0.0888 0.2675-0.035 0.0863-0.0775 0.17-0.12375 0.2525-0.0462 0.0813-0.0975 0.16125-0.15375 0.23625-0.0562 0.075-0.11875 0.145-0.185 0.21125l-0.0125 0.0125-31.956 31.956"
           fill-rule="evenodd"
           fill="#ff0" />
      </g>
    </g>
  </g>
</svg>
