<?xml version="1.0" encoding="UTF-8" standalone="no"?>
<!-- Created with Inkscape (http://www.inkscape.org/) -->

<svg
   xmlns:dc="http://purl.org/dc/elements/1.1/"
   xmlns:cc="http://creativecommons.org/ns#"
   xmlns:rdf="http://www.w3.org/1999/02/22-rdf-syntax-ns#"
   xmlns:svg="http://www.w3.org/2000/svg"
   xmlns="http://www.w3.org/2000/svg"
   xmlns:sodipodi="http://sodipodi.sourceforge.net/DTD/sodipodi-0.dtd"
   xmlns:inkscape="http://www.inkscape.org/namespaces/inkscape"
   id="svg2"
   height="60"
   width="60"
   version="1.1"
   inkscape:version="0.48.2 r9819"
   sodipodi:docname="closed_area.svg">
  <title
     id="title2988">Closed Area</title>
  <defs
     id="defs2998" />
  <sodipodi:namedview
     pagecolor="#ffffff"
     bordercolor="#666666"
     borderopacity="1"
     objecttolerance="10"
     gridtolerance="10"
     guidetolerance="10"
     inkscape:pageopacity="0"
     inkscape:pageshadow="2"
     inkscape:window-width="1440"
     inkscape:window-height="808"
     id="namedview2996"
     showgrid="false"
     inkscape:zoom="10.199945"
     inkscape:cx="12.74347"
     inkscape:cy="30.000526"
     inkscape:window-x="0"
     inkscape:window-y="0"
     inkscape:window-maximized="1"
     inkscape:current-layer="svg2" />
  <metadata
     id="metadata7">
    <rdf:RDF>
      <cc:Work
         rdf:about="">
        <dc:format>image/svg+xml</dc:format>
        <dc:type
           rdf:resource="http://purl.org/dc/dcmitype/StillImage" />
        <dc:title>Closed Area</dc:title>
        <cc:license
           rdf:resource="http://creativecommons.org/licenses/publicdomain/" />
        <dc:identifier>A1a</dc:identifier>
      </cc:Work>
      <cc:License
         rdf:about="http://creativecommons.org/licenses/publicdomain/">
        <cc:permits
           rdf:resource="http://creativecommons.org/ns#Reproduction" />
        <cc:permits
           rdf:resource="http://creativecommons.org/ns#Distribution" />
        <cc:permits
           rdf:resource="http://creativecommons.org/ns#DerivativeWorks" />
      </cc:License>
    </rdf:RDF>
  </metadata>
  <g
     id="layer2"
     transform="translate(0,-60)">
    <g
       id="g3004"
       transform="matrix(.98688 0 0 .96869 -28.718 31.927)">
      <g
         id="layer1-3"
         transform="translate(539.5 -38.127)">
        <g
           id="g2816"
           transform="matrix(.82933 0 0 .84488 -81.924 15.214)">
          <path
             id="path19994"
             stroke-linejoin="bevel"
             d="m-444.64 98.076c0-0.0775 0-0.15375-0.001-0.23125 0-0.0775 0-0.15375-0.001-0.23125-0.0188-1.5425-0.13625-3.0825-0.3525-4.61-0.21625-1.53-0.54125-3.0425-0.9725-4.5262-0.39875-1.4925-0.90625-2.9525-1.5188-4.3712-0.6125-1.4175-1.3225-2.7912-2.125-4.11-0.7825-1.3325-1.655-2.6088-2.61-3.8225-0.955-1.2125-1.9925-2.3575-3.1062-3.4275-1.0975-1.085-2.27-2.0938-3.5075-3.0162-1.2362-0.925-2.5362-1.7625-3.8888-2.5075-1.3425-0.76375-2.735-1.4338-4.17-2.0062-1.4338-0.5725-2.905-1.045-4.4038-1.415-1.495-0.39-3.0138-0.67625-4.5475-0.8575-1.5325-0.1825-3.0775-0.2575-4.6212-0.2275-1.5438 0.01-3.085 0.12625-4.6138 0.34875-1.5275 0.22125-3.0388 0.5475-4.5212 0.97625-1.4888 0.40875-2.9475 0.92125-4.3675 1.53-1.4188 0.61-2.7938 1.3162-4.115 2.1138-1.3325 0.78125-2.6088 1.6525-3.8212 2.6088-1.2125 0.955-2.3588 1.9938-3.4288 3.1062-1.085 1.0988-2.0925 2.2712-3.0162 3.5088-0.92375 1.2375-1.7612 2.5362-2.5075 3.8888-0.7625 1.3425-1.4325 2.735-2.005 4.1688-0.5725 1.435-1.045 2.9062-1.415 4.405-0.39 1.495-0.6775 3.0138-0.85875 4.5475-0.18125 1.5325-0.2575 3.0762-0.22625 4.62 0.01 1.545 0.12625 3.0863 0.3475 4.6138 0.22125 1.5288 0.5475 3.04 0.97625 4.5225 0.41 1.4888 0.92125 2.9475 1.5312 4.3662 0.60875 1.4188 1.315 2.7938 2.1138 4.1162 0.78 1.3312 1.6512 2.6088 2.6075 3.8212 0.95625 1.2125 1.995 2.3588 3.1075 3.4275 1.0988 1.085 2.2712 2.0925 3.5088 3.0162 1.2362 0.925 2.5362 1.7625 3.8888 2.5075 1.3412 0.76375 2.735 1.4338 4.1688 2.0062 1.4338 0.57125 2.9062 1.045 4.405 1.415 1.4938 0.39 3.0125 0.67625 4.5462 0.8575 1.5338 0.18125 3.0775 0.2575 4.6212 0.2275 1.5438-0.01 3.0862-0.12625 4.6138-0.3475 1.5275-0.22125 3.0388-0.54875 4.5225-0.9775 1.4888-0.40875 2.9475-0.92 4.3662-1.53 1.4188-0.60875 2.7938-1.3162 4.115-2.1138 1.3325-0.78 2.6088-1.6525 3.8212-2.6088 1.2138-0.955 2.3588-1.9938 3.4288-3.1062 1.085-1.0988 2.0925-2.2712 3.0175-3.5088 0.92375-1.2375 1.7612-2.5362 2.5062-3.8888 0.7625-1.3412 1.4325-2.7338 2.0038-4.1675 0.57125-1.435 1.045-2.9075 1.4175-4.4062 0.3725-1.4212 0.6525-2.8638 0.83625-4.3212 0.18375-1.4538 0.2675-2.9188 0.25125-4.3838z"
             stroke="#231f20"
             stroke-miterlimit="22.926"
             stroke-width=".27615"
             fill="none" />
          <path
             id="path19998"
             stroke-linejoin="bevel"
             d="m-444.57 98.076c0 0.0775 0 0.155-0.001 0.2325 0 0.07625 0 0.15375-0.001 0.23125-0.0187 1.5463-0.13625 3.0888-0.35375 4.6188-0.21625 1.5325-0.54125 3.0488-0.97375 4.535-0.4 1.495-0.90875 2.9588-1.5225 4.3788-0.61375 1.4212-1.325 2.7975-2.1288 4.1188-0.78375 1.335-1.6575 2.6138-2.615 3.8288s-1.9962 2.3625-3.1112 3.435c-1.1 1.0875-2.275 2.0975-3.5138 3.0225-1.24 0.925-2.5425 1.765-3.8975 2.5112-1.345 0.765-2.74 1.4362-4.1775 2.01-1.4362 0.5725-2.9112 1.0462-4.4125 1.4175-1.4975 0.39125-3.0188 0.67875-4.5562 0.86-1.535 0.1825-3.0825 0.2575-4.63 0.2275-1.5462-0.01-3.09-0.12625-4.6212-0.34875-1.5312-0.22125-3.045-0.54875-4.5312-0.97875-1.4925-0.41-2.9538-0.9225-4.375-1.5325-1.4212-0.61125-2.7988-1.3188-4.1238-2.1188-1.3338-0.78125-2.6138-1.655-3.8288-2.6125s-2.3625-1.9975-3.435-3.1138c-1.0862-1.1-2.0962-2.275-3.0212-3.515-0.92625-1.2388-1.765-2.5412-2.5125-3.895-0.76375-1.345-1.4362-2.7412-2.0088-4.1775-0.57375-1.4375-1.0475-2.9112-1.4188-4.4138-0.39-1.4962-0.6775-3.0188-0.85875-4.555-0.1825-1.5362-0.25875-3.0825-0.2275-4.63 0.01-1.5462 0.12625-3.0912 0.3475-4.6225 0.2225-1.5312 0.55-3.045 0.97875-4.5312 0.41-1.4912 0.9225-2.9525 1.5338-4.3738 0.61-1.4212 1.3175-2.8 2.1175-4.1238 0.7825-1.335 1.655-2.6138 2.6138-3.8288 0.9575-1.215 1.9975-2.3625 3.1125-3.435 1.1012-1.0862 2.275-2.0962 3.515-3.0225 1.24-0.925 2.5412-1.7638 3.8962-2.5112 1.345-0.765 2.74-1.4362 4.1775-2.01 1.4362-0.5725 2.9112-1.0462 4.4138-1.4175 1.4962-0.39125 3.0175-0.67875 4.555-0.86 1.5362-0.1825 3.0825-0.2575 4.63-0.2275 1.5462 0.01 3.0912 0.1275 4.6225 0.34875 1.53 0.2225 3.0438 0.54875 4.53 0.97875 1.4925 0.41 2.9538 0.9225 4.375 1.5338 1.4212 0.61 2.7988 1.3175 4.1238 2.1175 1.3338 0.7825 2.6138 1.655 3.8288 2.6125s2.3625 1.9975 3.435 3.1138c1.0862 1.1012 2.0962 2.275 3.0225 3.515 0.925 1.2388 1.765 2.5412 2.5112 3.8962 0.76375 1.3438 1.435 2.7388 2.0075 4.175 0.57375 1.4375 1.0475 2.9125 1.42 4.415 0.37375 1.4238 0.6525 2.87 0.8375 4.33 0.185 1.4562 0.26875 2.9238 0.2525 4.3912z"
             stroke="#231f20"
             stroke-miterlimit="22.926"
             stroke-width="2.4437"
             fill="#fff" />
          <path
             id="path20006"
             d="m-447.44 104.64-0.0259 0.13386c-0.007 0.0439-0.0172 0.0891-0.0259 0.13262-0.07 0.35161-0.15007 0.70076-0.23864 1.0475-0.0898 0.34675-0.18697 0.69226-0.28908 1.0354-0.39976 1.3784-0.88442 2.7301-1.4503 4.0501-0.56459 1.32-1.2239 2.5999-1.9718 3.8274-0.7233 1.2422-1.5376 2.4308-2.438 3.555-0.90042 1.1254-1.8796 2.1863-2.9288 3.1778-1.0333 1.0061-2.1342 1.9417-3.2954 2.8006-1.1612 0.85894-2.3802 1.6364-3.6496 2.3286-1.2596 0.71051-2.5672 1.3322-3.9141 1.8639-1.3469 0.53161-2.7296 0.96959-4.1368 1.3139-1.4035 0.36137-2.8292 0.62782-4.2696 0.79691-1.4404 0.16788-2.8894 0.23846-4.3385 0.21048-1.4503-0.0101-2.8981-0.1168-4.3323-0.32361-1.4343-0.2044-2.8538-0.50856-4.2462-0.90641-1.3986-0.37957-2.7689-0.85528-4.1011-1.421-1.3322-0.56573-2.6226-1.2215-3.8637-1.9636-1.251-0.72508-2.4491-1.5341-3.5882-2.4223-1.1378-0.88813-2.2141-1.8529-3.2191-2.8846-1.0198-1.0208-1.9681-2.1084-2.8366-3.2569-0.86844-1.1485-1.6545-2.3554-2.3507-3.6134-0.7122-1.2495-1.3371-2.5464-1.8697-3.8798-0.53261-1.3322-0.9816-2.696-1.342-4.083-0.0689-0.25182-0.13532-0.5049-0.19927-0.75792-0.0652-0.25187-0.12916-0.50489-0.1919-0.75797l65.113-0.004m-0.0491-13.133h-65.063c0.0147-0.0438 0.0296-0.08761 0.0443-0.1314 0.0147-0.0438 0.0295-0.08761 0.043-0.13139 0.10701-0.34187 0.20172-0.68739 0.28168-1.0366 0.0813-0.34917 0.16237-0.69834 0.24725-1.0463 0.33827-1.3942 0.80202-2.7544 1.3863-4.0659 0.58552-1.3176 1.2658-2.5914 2.0346-3.8117 0.74051-1.2349 1.5622-2.4211 2.4589-3.5501 0.89304-1.1266 1.8648-2.1899 2.9079-3.1827 1.0296-1.0098 2.1293-1.9454 3.2905-2.8019 1.1624-0.85772 2.3839-1.6364 3.6546-2.3286 1.2608-0.70807 2.5696-1.331 3.9166-1.8614 1.3457-0.53166 2.7283-0.97086 4.1355-1.3152 1.4023-0.36255 2.8292-0.62778 4.2684-0.79688 1.4392-0.16911 2.8894-0.23846 4.3397-0.21048 1.4503 0.0085 2.8981 0.1168 4.3324 0.3224 1.4343 0.20561 2.8538 0.50976 4.2462 0.9076 1.3974 0.37958 2.7665 0.85528 4.0986 1.421 1.3322 0.56695 2.6238 1.2227 3.8662 1.9636 1.2522 0.72388 2.4528 1.5329 3.593 2.4211 1.1391 0.88691 2.2129 1.8505 3.2142 2.887 1.0123 1.0207 1.9534 2.1108 2.8156 3.2593 0.86597 1.1534 1.6569 2.359 2.3704 3.6097 0.73559 1.2422 1.3838 2.533 1.9386 3.864 0.55229 1.3249 0.97914 2.6972 1.2744 4.0988 0.0566 0.25184 0.10947 0.50368 0.15868 0.75673 0.0504 0.25306 0.0984 0.50611 0.14514 0.75917"
             fill-rule="evenodd"
             fill="#e72512" />
        </g>
      </g>
    </g>
  </g>
</svg>
