<?xml version="1.0" encoding="UTF-8" standalone="no"?>
<!-- Created with Inkscape (http://www.inkscape.org/) -->

<svg
   xmlns:dc="http://purl.org/dc/elements/1.1/"
   xmlns:cc="http://creativecommons.org/ns#"
   xmlns:rdf="http://www.w3.org/1999/02/22-rdf-syntax-ns#"
   xmlns:svg="http://www.w3.org/2000/svg"
   xmlns="http://www.w3.org/2000/svg"
   xmlns:sodipodi="http://sodipodi.sourceforge.net/DTD/sodipodi-0.dtd"
   xmlns:inkscape="http://www.inkscape.org/namespaces/inkscape"
   id="svg2"
   height="60"
   width="80"
   version="1.1"
   inkscape:version="0.48.2 r9819"
   sodipodi:docname="entry_permitted.svg">
  <title
     id="title2987">Entry Permitted</title>
  <defs
     id="defs3921" />
  <sodipodi:namedview
     pagecolor="#ffffff"
     bordercolor="#666666"
     borderopacity="1"
     objecttolerance="10"
     gridtolerance="10"
     guidetolerance="10"
     inkscape:pageopacity="0"
     inkscape:pageshadow="2"
     inkscape:window-width="1440"
     inkscape:window-height="808"
     id="namedview3919"
     showgrid="false"
     inkscape:zoom="9.1666667"
     inkscape:cx="20.8"
     inkscape:cy="30"
     inkscape:window-x="0"
     inkscape:window-y="0"
     inkscape:window-maximized="1"
     inkscape:current-layer="svg2" />
  <metadata
     id="metadata7">
    <rdf:RDF>
      <cc:Work
         rdf:about="">
        <dc:format>image/svg+xml</dc:format>
        <dc:type
           rdf:resource="http://purl.org/dc/dcmitype/StillImage" />
        <dc:title>Entry Permitted</dc:title>
        <cc:license
           rdf:resource="http://creativecommons.org/licenses/publicdomain/" />
        <dc:identifier>E1</dc:identifier>
      </cc:Work>
      <cc:License
         rdf:about="http://creativecommons.org/licenses/publicdomain/">
        <cc:permits
           rdf:resource="http://creativecommons.org/ns#Reproduction" />
        <cc:permits
           rdf:resource="http://creativecommons.org/ns#Distribution" />
        <cc:permits
           rdf:resource="http://creativecommons.org/ns#DerivativeWorks" />
      </cc:License>
    </rdf:RDF>
  </metadata>
  <g
     id="layer1"
     transform="translate(0,-60)">
    <g
       id="layer1-9"
       transform="matrix(.97891 0 0 .97184 -2244.2 -1121.7)">
      <g
         id="g3603">
        <path
           id="path3599"
           fill="#25e712"
           d="m2297.8 1275.7h-0.025c-0.137 0-0.2726-0.012-0.4082-0.031-0.1343-0.019-0.2685-0.05-0.4001-0.091-0.1329-0.037-0.2615-0.085-0.3876-0.1427-0.126-0.059-0.248-0.1263-0.3643-0.2029-0.1193-0.073-0.233-0.1577-0.3412-0.248-0.1085-0.091-0.211-0.1908-0.3069-0.2976-0.098-0.1058-0.1876-0.2164-0.2697-0.3366-0.083-0.1178-0.1591-0.2418-0.2275-0.3727-0.068-0.1292-0.1302-0.263-0.1822-0.4011-0.054-0.1383-0.098-0.2796-0.1328-0.4239-0.037-0.1443-0.066-0.2916-0.083-0.4404-0.019-0.1473-0.028-0.2975-0.027-0.4463v-50.844c0-0.1488 0.011-0.2991 0.027-0.4463 0.018-0.1488 0.047-0.2946 0.083-0.4389 0.034-0.1457 0.078-0.2884 0.1314-0.4252 0.053-0.1383 0.1137-0.272 0.1836-0.4014 0.068-0.1291 0.1438-0.2538 0.2275-0.3727 0.083-0.1189 0.1725-0.2314 0.2697-0.3366 0.097-0.1069 0.1988-0.2058 0.3069-0.2959 0.1084-0.092 0.2219-0.1759 0.3412-0.2495 0.1163-0.077 0.2397-0.1429 0.3643-0.2015 0.1261-0.056 0.2561-0.1045 0.3876-0.1441 0.1316-0.04 0.2658-0.072 0.4015-0.094 0.1342-0.02 0.2698-0.03 0.4068-0.03h71.399c0.137 0 0.2727 0.012 0.4083 0.031 0.1357 0.019 0.2698 0.051 0.4 0.092 0.133 0.038 0.2617 0.085 0.389 0.1443 0.1247 0.058 0.2466 0.1246 0.3644 0.2013 0.1179 0.073 0.2316 0.1579 0.3398 0.2495 0.1085 0.09 0.211 0.1894 0.3068 0.2961 0.098 0.1058 0.1878 0.218 0.2712 0.3366 0.082 0.119 0.1577 0.2434 0.2262 0.3727 0.07 0.1292 0.13 0.2631 0.1835 0.4013 0.052 0.1383 0.096 0.2795 0.1315 0.4253 0.037 0.1443 0.066 0.2901 0.085 0.4389 0.019 0.1472 0.027 0.2975 0.027 0.4463v50.844c0 0.1488-0.011 0.299-0.028 0.4464-0.017 0.1488-0.047 0.2961-0.084 0.4404-0.034 0.1443-0.078 0.2869-0.1315 0.4251-0.053 0.1369-0.1137 0.2706-0.1835 0.3998-0.068 0.1308-0.144 0.2556-0.2262 0.3728-0.084 0.1202-0.1739 0.2313-0.2712 0.3366-0.097 0.107-0.1985 0.2059-0.3068 0.2975-0.1084 0.091-0.2219 0.1744-0.3398 0.248-0.1178 0.077-0.2397 0.1427-0.3656 0.2014-0.1261 0.056-0.2548 0.107-0.3878 0.1443-0.1302 0.042-0.2643 0.072-0.4 0.094-0.1356 0.02-0.2713 0.031-0.4083 0.03h-71.374z" />
        <rect
           id="rect3601"
           height="59"
           width="26"
           y="1217.4"
           x="2320.5"
           fill="#fff" />
        <path
           id="path18127"
           stroke-linejoin="bevel"
           d="m2296.8 1276.7h-0.026c-0.1406 0-0.2797-0.012-0.4189-0.032-0.1377-0.02-0.2755-0.051-0.4104-0.094-0.1363-0.038-0.2684-0.088-0.3977-0.1477-0.1293-0.061-0.2544-0.1305-0.3738-0.2097-0.1224-0.076-0.239-0.1632-0.3501-0.2565-0.1113-0.094-0.2164-0.1973-0.3148-0.3077-0.1001-0.1094-0.1925-0.2238-0.2768-0.3481-0.085-0.1218-0.1631-0.2501-0.2333-0.3854-0.07-0.1336-0.1336-0.2719-0.187-0.4148-0.055-0.143-0.1001-0.2891-0.1363-0.4383-0.038-0.1492-0.068-0.3015-0.085-0.4554-0.019-0.1523-0.029-0.3077-0.028-0.4615v-52.576c0-0.1539 0.011-0.3093 0.028-0.4616 0.019-0.1538 0.048-0.3046 0.085-0.4538 0.035-0.1506 0.08-0.2983 0.1349-0.4397 0.054-0.143 0.1166-0.2813 0.1884-0.415 0.07-0.1336 0.1475-0.2625 0.2333-0.3854 0.085-0.123 0.1771-0.2393 0.2768-0.3481 0.099-0.1106 0.2039-0.2128 0.3148-0.306 0.1113-0.095 0.2277-0.1819 0.3501-0.258 0.1194-0.08 0.2459-0.1477 0.3738-0.2083 0.1293-0.058 0.2628-0.1081 0.3977-0.1491 0.1349-0.042 0.2727-0.075 0.4119-0.097 0.1377-0.021 0.2768-0.031 0.4174-0.031h73.254c0.1406 0 0.2798 0.012 0.4189 0.032 0.1392 0.02 0.2769 0.053 0.4104 0.095 0.1364 0.039 0.2685 0.088 0.3991 0.1492 0.128 0.06 0.253 0.1289 0.3739 0.2082 0.1209 0.076 0.2376 0.1632 0.3486 0.258 0.1113 0.093 0.2164 0.1958 0.3148 0.3061 0.1001 0.1094 0.1926 0.2254 0.2783 0.3481 0.084 0.1231 0.1617 0.2517 0.232 0.3854 0.072 0.1336 0.1334 0.272 0.1883 0.415 0.053 0.1429 0.098 0.289 0.1349 0.4397 0.038 0.1492 0.068 0.3 0.087 0.4538 0.019 0.1523 0.028 0.3077 0.028 0.4616v52.576c0 0.1538-0.011 0.3092-0.029 0.4615-0.018 0.1539-0.048 0.3062-0.086 0.4554-0.035 0.1492-0.08 0.2967-0.1349 0.4397-0.054 0.1415-0.1167 0.2797-0.1883 0.4134-0.07 0.1352-0.1477 0.2642-0.232 0.3854-0.086 0.1243-0.1785 0.2393-0.2783 0.3481-0.099 0.1106-0.2037 0.2129-0.3148 0.3077-0.1113 0.094-0.2277 0.1802-0.3486 0.2564-0.1209 0.08-0.2459 0.1476-0.3752 0.2083-0.1293 0.058-0.2614 0.1106-0.3978 0.1492-0.1335 0.043-0.2712 0.075-0.4104 0.097-0.1391 0.021-0.2783 0.032-0.4189 0.031h-73.229z"
           stroke="#000"
           stroke-miterlimit="22.926"
           stroke-width="2.0505"
           fill="none" />
      </g>
    </g>
  </g>
</svg>
