<?xml version="1.0" encoding="UTF-8" standalone="no"?>
<!-- Created with Inkscape (http://www.inkscape.org/) -->

<svg
   xmlns:dc="http://purl.org/dc/elements/1.1/"
   xmlns:cc="http://creativecommons.org/ns#"
   xmlns:rdf="http://www.w3.org/1999/02/22-rdf-syntax-ns#"
   xmlns:svg="http://www.w3.org/2000/svg"
   xmlns="http://www.w3.org/2000/svg"
   xmlns:sodipodi="http://sodipodi.sourceforge.net/DTD/sodipodi-0.dtd"
   xmlns:inkscape="http://www.inkscape.org/namespaces/inkscape"
   id="svg2"
   height="60"
   width="80"
   version="1.1"
   inkscape:version="0.48.2 r9819"
   sodipodi:docname="ferry_non_independent.svg">
  <title
     id="title2990">Ferry Non-Independent</title>
  <defs
     id="defs3963" />
  <sodipodi:namedview
     pagecolor="#ffffff"
     bordercolor="#666666"
     borderopacity="1"
     objecttolerance="10"
     gridtolerance="10"
     guidetolerance="10"
     inkscape:pageopacity="0"
     inkscape:pageshadow="2"
     inkscape:window-width="1440"
     inkscape:window-height="808"
     id="namedview3961"
     showgrid="false"
     inkscape:zoom="9.1666667"
     inkscape:cx="20.8"
     inkscape:cy="30"
     inkscape:window-x="0"
     inkscape:window-y="0"
     inkscape:window-maximized="1"
     inkscape:current-layer="svg2" />
  <metadata
     id="metadata7">
    <rdf:RDF>
      <cc:Work
         rdf:about="">
        <dc:format>image/svg+xml</dc:format>
        <dc:type
           rdf:resource="http://purl.org/dc/dcmitype/StillImage" />
        <dc:title>Ferry Non-Independent</dc:title>
        <cc:license
           rdf:resource="http://creativecommons.org/licenses/publicdomain/" />
        <dc:identifier>E4a</dc:identifier>
      </cc:Work>
      <cc:License
         rdf:about="http://creativecommons.org/licenses/publicdomain/">
        <cc:permits
           rdf:resource="http://creativecommons.org/ns#Reproduction" />
        <cc:permits
           rdf:resource="http://creativecommons.org/ns#Distribution" />
        <cc:permits
           rdf:resource="http://creativecommons.org/ns#DerivativeWorks" />
      </cc:License>
    </rdf:RDF>
  </metadata>
  <g
     id="layer4"
     transform="translate(0,-60)">
    <g
       id="layer1-1"
       transform="matrix(.93211 0 0 .92582 183.81 189.65)">
      <g
         id="g3597">
        <path
           id="path17249"
           stroke-linejoin="bevel"
           d="m-192.19-76.373h75.83c0.16679-0.0013 0.33507-0.01462 0.50186-0.03915 0.16531-0.02454 0.33062-0.06199 0.493-0.11262 0.16236-0.04724 0.32177-0.1061 0.47675-0.17781 0.15498-0.07334 0.30554-0.1566 0.44872-0.25122 0.14612-0.09305 0.28634-0.19575 0.41919-0.30831 0.13431-0.11419 0.25978-0.23654 0.37786-0.36867 0.11956-0.1305 0.23174-0.27079 0.33359-0.4176 0.10174-0.14681 0.19631-0.30178 0.27897-0.46328 0.0856-0.15986 0.16088-0.32625 0.22583-0.4959 0.0649-0.17292 0.11809-0.34746 0.16237-0.5269 0.0457-0.17944 0.0812-0.36214 0.10489-0.54648 0.0236-0.1827 0.0339-0.36867 0.0324-0.55463v-54.005c0-0.18433-0.0119-0.37029-0.034-0.553-0.0236-0.18596-0.0575-0.36703-0.10332-0.54647-0.0414-0.17944-0.096-0.35562-0.1609-0.52691-0.065-0.17127-0.14169-0.33604-0.2273-0.49753-0.0841-0.15986-0.17712-0.31483-0.27897-0.46165-0.10185-0.14681-0.21403-0.2871-0.33359-0.41761-0.11808-0.13213-0.24355-0.25447-0.37786-0.36866-0.13285-0.11249-0.27307-0.21696-0.41919-0.30831-0.14318-0.0946-0.29374-0.17781-0.44872-0.24959-0.15498-0.0717-0.31439-0.13049-0.47675-0.17943-0.16238-0.0505-0.32769-0.0897-0.493-0.11576-0.16679-0.0246-0.33507-0.0376-0.50186-0.0359h-75.861c-0.16679 0-0.33505 0.013-0.50184 0.0392-0.16533 0.0245-0.33064 0.062-0.493 0.1125-0.16236 0.0473-0.32177 0.10609-0.47676 0.1778-0.15498 0.0718-0.30554 0.15661-0.45019 0.25122-0.14465 0.0914-0.28488 0.19575-0.41772 0.30831-0.13432 0.11419-0.25978 0.23653-0.37787 0.36866-0.11955 0.13051-0.23173 0.26917-0.33358 0.41761-0.10175 0.14682-0.19631 0.30179-0.27896 0.46165-0.0856 0.16149-0.1609 0.32626-0.22584 0.49753-0.065 0.17129-0.11808 0.34747-0.16237 0.52691-0.0457 0.17944-0.0812 0.36214-0.10479 0.54647-0.0236 0.18271-0.034 0.36867-0.0324 0.553v54.005c0 0.18597 0.0118 0.37193 0.034 0.55463 0.0236 0.18433 0.0575 0.36704 0.10332 0.54648 0.0428 0.17944 0.096 0.35562 0.16089 0.5269 0.0665 0.17128 0.14169 0.33604 0.22731 0.49591 0.0841 0.1615 0.17712 0.31647 0.27896 0.46328 0.10196 0.14681 0.21404 0.2871 0.33359 0.4176 0.11808 0.13213 0.24355 0.25448 0.37786 0.36867 0.13285 0.11262 0.2716 0.21533 0.41772 0.30831 0.14465 0.09305 0.29521 0.17781 0.45019 0.24795 0.15499 0.07178 0.3144 0.13213 0.47676 0.18107 0.16237 0.05051 0.32769 0.08808 0.493 0.11419 0.16679 0.0261 0.33506 0.03916 0.50185 0.03758h0.0311z"
           stroke="#231f20"
           stroke-miterlimit="22.926"
           stroke-width=".36080"
           fill="none" />
        <g
           id="g3096"
           transform="matrix(1.1808 0 0 1.305 27.899 32.831)">
          <path
             id="path17253"
             stroke-linejoin="bevel"
             d="m-186.38-83.635h-0.0263c-0.14375 0-0.2875-0.0113-0.43125-0.03-0.1425-0.0187-0.28375-0.0487-0.4225-0.0875-0.14-0.0375-0.2775-0.0825-0.41-0.13875-0.1325-0.0562-0.2625-0.12125-0.38625-0.195-0.125-0.0712-0.245-0.1525-0.36-0.24-0.11375-0.0875-0.2225-0.18375-0.32375-0.28625-0.1025-0.10125-0.19875-0.21-0.28625-0.32375s-0.16875-0.235-0.24-0.36c-0.0725-0.12375-0.1375-0.2525-0.1925-0.38625-0.0562-0.1325-0.1025-0.27-0.14-0.40875-0.04-0.14-0.07-0.28125-0.09-0.42375s-0.03-0.2875-0.0288-0.43125v-41.383c0.001-0.145 0.0113-0.28875 0.03-0.43125 0.02-0.14375 0.0488-0.285 0.0888-0.42375 0.0362-0.14 0.0825-0.27625 0.13875-0.40875 0.055-0.13375 0.12-0.2625 0.19375-0.3875 0.0725-0.12375 0.1525-0.245 0.24-0.35875 0.0875-0.115 0.18375-0.2225 0.28625-0.32375 0.10125-0.1025 0.21-0.19875 0.32375-0.28625 0.115-0.0888 0.235-0.16875 0.36-0.24 0.12375-0.0738 0.25375-0.1375 0.38625-0.19375 0.1325-0.055 0.27-0.1025 0.41-0.14 0.13875-0.0387 0.28-0.0688 0.42375-0.0888 0.1425-0.02 0.28625-0.03 0.43-0.0288h64.244c0.14375 0 0.2875 0.01 0.43125 0.03 0.1425 0.0188 0.28375 0.0488 0.4225 0.0875 0.14 0.0362 0.2775 0.0825 0.41 0.13875 0.1325 0.0563 0.2625 0.12125 0.38625 0.195 0.125 0.0712 0.245 0.15125 0.36 0.24 0.11375 0.0875 0.2225 0.18375 0.32375 0.28625 0.1025 0.10125 0.19875 0.20875 0.28625 0.32375 0.0875 0.11375 0.1675 0.23375 0.24 0.35875s0.1375 0.25375 0.1925 0.3875c0.0562 0.1325 0.1025 0.27 0.14 0.40875 0.04 0.13875 0.07 0.28 0.09 0.42375 0.02 0.1425 0.03 0.28625 0.0288 0.43125v41.383c-0.001 0.14375-0.0112 0.28875-0.03 0.43125-0.02 0.1425-0.0488 0.285-0.0888 0.42375-0.0362 0.13875-0.0825 0.27625-0.13875 0.40875-0.055 0.13375-0.12 0.2625-0.19375 0.38625-0.0725 0.125-0.1525 0.24625-0.24 0.36s-0.18375 0.2225-0.28625 0.32375c-0.10125 0.1025-0.21 0.19875-0.32375 0.28625-0.115 0.0888-0.235 0.16875-0.36 0.24-0.12375 0.0738-0.25375 0.1375-0.38625 0.19375-0.1325 0.055-0.27 0.1025-0.41 0.14-0.13875 0.0387-0.28 0.0688-0.42375 0.0888-0.1425 0.02-0.28625 0.03-0.43 0.0288h-64.218z"
             stroke="#000"
             stroke-miterlimit="22.926"
             stroke-width="1.7343"
             fill="#fff" />
          <path
             id="path17257"
             d="m-120.91-86.835v0.015 0.015c-0.001 0.05-0.006 0.1-0.0137 0.14875-0.008 0.0487-0.0188 0.0987-0.0337 0.14625-0.0125 0.0475-0.03 0.095-0.0513 0.14-0.02 0.0462-0.0425 0.09-0.0687 0.1325-0.0263 0.0425-0.055 0.0838-0.0863 0.1225-0.0312 0.0387-0.0662 0.075-0.1025 0.10875-0.0363 0.035-0.0738 0.0675-0.115 0.0963-0.04 0.03-0.0825 0.0562-0.12625 0.08-0.0437 0.0238-0.0888 0.045-0.135 0.0625-0.0475 0.0175-0.095 0.0325-0.14375 0.0437-0.0387 0.01-0.0788 0.0175-0.11875 0.0225-0.04 0.006-0.08 0.009-0.12125 0.009h-0.0125-64.494-0.0162c-0.0488-0.001-0.0988-0.005-0.1475-0.0125-0.05-0.009-0.0987-0.0188-0.14625-0.0337-0.0487-0.0138-0.095-0.0312-0.14125-0.0513-0.045-0.02-0.0888-0.0437-0.13125-0.07-0.0437-0.0263-0.0837-0.055-0.1225-0.0863-0.0388-0.0312-0.0763-0.065-0.11-0.10125-0.035-0.0362-0.0662-0.075-0.0962-0.115-0.0288-0.0412-0.055-0.0825-0.0788-0.12625-0.025-0.045-0.045-0.09-0.0625-0.13625-0.0187-0.0462-0.0325-0.0937-0.045-0.1425-0.009-0.04-0.0175-0.0788-0.0225-0.12-0.005-0.04-0.009-0.08-0.009-0.12v-0.0138-0.0137-41.605-0.015-0.015c0.001-0.05 0.006-0.0988 0.0137-0.14875 0.008-0.0488 0.0188-0.0975 0.0338-0.14625 0.0137-0.0475 0.03-0.095 0.05-0.14 0.0213-0.0463 0.045-0.09 0.0712-0.1325 0.025-0.0425 0.0538-0.0825 0.085-0.1225 0.0325-0.0388 0.0662-0.075 0.1025-0.10875 0.0363-0.035 0.0738-0.0662 0.115-0.0962 0.04-0.0288 0.0825-0.055 0.12625-0.08 0.0438-0.0238 0.0888-0.0437 0.135-0.0625 0.0475-0.0175 0.095-0.0325 0.14375-0.0437 0.0387-0.01 0.0788-0.0175 0.11875-0.0225 0.04-0.005 0.0812-0.007 0.12125-0.009h0.0137 64.494 0.0137c0.05 0.001 0.1 0.006 0.15 0.0137 0.0488 0.008 0.0975 0.0188 0.145 0.0325 0.0487 0.0138 0.095 0.0312 0.14125 0.0512 0.045 0.0213 0.0888 0.0438 0.13125 0.07 0.0425 0.0263 0.0837 0.055 0.1225 0.0863 0.0388 0.0312 0.0763 0.0663 0.11 0.1025 0.035 0.035 0.0662 0.0738 0.0962 0.11375 0.0288 0.0412 0.055 0.0838 0.0788 0.1275 0.0237 0.0438 0.045 0.0888 0.0637 0.135 0.0175 0.0475 0.0325 0.095 0.0437 0.14375 0.01 0.0387 0.0175 0.0788 0.0225 0.11875 0.005 0.04 0.007 0.08 0.009 0.12v0.0137 41.619"
             fill-rule="evenodd"
             fill="#039" />
        </g>
        <path
           id="path17261"
           d="m-179.28-107.45-4.9996-10.36h23.749v-10.362h12.499v10.362h23.749l-4.9996 10.36h-49.998"
           fill-rule="evenodd"
           fill="#fff" />
        <rect
           id="rect2823"
           height="5.6569"
           width="80.787"
           y="-104.69"
           x="-194.82"
           fill="#fff" />
      </g>
    </g>
  </g>
</svg>
