<?xml version="1.0" encoding="UTF-8" standalone="no"?>
<!-- Created with Inkscape (http://www.inkscape.org/) -->

<svg
   xmlns:dc="http://purl.org/dc/elements/1.1/"
   xmlns:cc="http://creativecommons.org/ns#"
   xmlns:rdf="http://www.w3.org/1999/02/22-rdf-syntax-ns#"
   xmlns:svg="http://www.w3.org/2000/svg"
   xmlns="http://www.w3.org/2000/svg"
   xmlns:sodipodi="http://sodipodi.sourceforge.net/DTD/sodipodi-0.dtd"
   xmlns:inkscape="http://www.inkscape.org/namespaces/inkscape"
   version="1.1"
   width="60"
   height="60"
   id="svg2"
   inkscape:version="0.48.2 r9819"
   sodipodi:docname="no_passage_left.svg">
  <title
     id="title2988">No Passage Left</title>
  <sodipodi:namedview
     pagecolor="#ffffff"
     bordercolor="#666666"
     borderopacity="1"
     objecttolerance="10"
     gridtolerance="10"
     guidetolerance="10"
     inkscape:pageopacity="0"
     inkscape:pageshadow="2"
     inkscape:window-width="1440"
     inkscape:window-height="808"
     id="namedview3200"
     showgrid="false"
     inkscape:zoom="9.1666667"
     inkscape:cx="10.8"
     inkscape:cy="30"
     inkscape:window-x="0"
     inkscape:window-y="0"
     inkscape:window-maximized="1"
     inkscape:current-layer="svg2" />
  <defs
     id="defs13" />
  <metadata
     id="metadata7">
    <rdf:RDF>
      <cc:Work
         rdf:about="">
        <dc:format>image/svg+xml</dc:format>
        <dc:type
           rdf:resource="http://purl.org/dc/dcmitype/StillImage" />
        <dc:title>No Passage Left</dc:title>
        <cc:license
           rdf:resource="http://creativecommons.org/licenses/publicdomain/" />
        <dc:identifier>A10a</dc:identifier>
      </cc:Work>
      <cc:License
         rdf:about="http://creativecommons.org/licenses/publicdomain/">
        <cc:permits
           rdf:resource="http://creativecommons.org/ns#Reproduction" />
        <cc:permits
           rdf:resource="http://creativecommons.org/ns#Distribution" />
        <cc:permits
           rdf:resource="http://creativecommons.org/ns#DerivativeWorks" />
      </cc:License>
    </rdf:RDF>
  </metadata>
  <g
     transform="translate(0,-60)"
     id="layer14">
    <g
       transform="matrix(0.97035,0,0,0.97035,-28.221,31.779)"
       id="g6864">
      <g
         transform="translate(-845.71,-515.22)"
         id="layer1-55">
        <g
           transform="matrix(0.84347,0,0,0.84347,141.77,90.037)"
           id="g2894">
          <path
             d="m 907.27,609.97 33.199,-33.199 0.006,-0.006 0.006,-0.006 c 0.0662,-0.0675 0.12875,-0.14 0.18625,-0.215 0.0575,-0.0762 0.11,-0.155 0.15625,-0.23875 0.0488,-0.0813 0.0913,-0.16625 0.12625,-0.255 0.0362,-0.0875 0.0662,-0.17875 0.09,-0.27 0.0237,-0.0913 0.0425,-0.185 0.055,-0.28 0.0125,-0.0937 0.0188,-0.18875 0.0175,-0.28375 10e-4,-0.095 -0.005,-0.19 -0.0175,-0.28375 -0.0125,-0.095 -0.0312,-0.1875 -0.0562,-0.28 -0.0237,-0.0912 -0.0538,-0.18125 -0.0888,-0.27 -0.0362,-0.0875 -0.0788,-0.1725 -0.12625,-0.255 -0.0462,-0.0838 -0.0987,-0.16375 -0.155,-0.24 -0.0575,-0.075 -0.12,-0.1475 -0.1875,-0.21375 l -0.006,-0.006 -0.006,-0.006 -33.199,-33.199 -0.006,-0.006 -0.006,-0.006 c -0.0675,-0.0662 -0.13875,-0.12875 -0.215,-0.18625 -0.075,-0.0575 -0.155,-0.11 -0.2375,-0.15625 -0.0825,-0.0488 -0.1675,-0.09 -0.25625,-0.12625 -0.0875,-0.0362 -0.1775,-0.0662 -0.27,-0.0888 -0.0925,-0.025 -0.185,-0.0438 -0.27875,-0.0562 -0.095,-0.0125 -0.19,-0.0175 -0.285,-0.0175 -0.095,0 -0.19,0.005 -0.28375,0.0175 -0.095,0.0125 -0.1875,0.0312 -0.28,0.0562 -0.0912,0.0237 -0.18125,0.0538 -0.27,0.09 -0.0875,0.035 -0.1725,0.0775 -0.255,0.125 -0.0838,0.0462 -0.16375,0.0987 -0.24,0.15625 -0.075,0.0562 -0.14625,0.11875 -0.21375,0.18625 l -0.006,0.006 -33.205,33.205 -0.006,0.006 -0.006,0.006 c -0.0662,0.0675 -0.12875,0.13875 -0.18625,0.215 -0.0575,0.075 -0.11,0.155 -0.15625,0.23875 -0.0475,0.0812 -0.09,0.16625 -0.12625,0.255 -0.035,0.0875 -0.065,0.17875 -0.0888,0.27 -0.025,0.0925 -0.0437,0.185 -0.0562,0.28 -0.0125,0.0937 -0.0175,0.18875 -0.0175,0.28375 0,0.095 0.005,0.19 0.0175,0.28375 0.0125,0.095 0.0312,0.18875 0.0562,0.28 0.0238,0.0912 0.0538,0.1825 0.09,0.27 0.0362,0.0875 0.0775,0.17375 0.125,0.255 0.0462,0.0838 0.0987,0.16375 0.15625,0.24 0.0562,0.075 0.11875,0.1475 0.18625,0.21375 l 0.008,0.006 0.005,0.006 33.199,33.199 0.006,0.006 0.006,0.006 c 0.0675,0.0662 0.14,0.12875 0.215,0.18625 0.0763,0.0575 0.155,0.11 0.23875,0.15625 0.0813,0.0488 0.1675,0.09 0.255,0.12625 0.0875,0.0362 0.17875,0.065 0.27,0.0888 0.0925,0.025 0.185,0.0437 0.28,0.0562 0.0937,0.0125 0.18875,0.0187 0.28375,0.0175 0.095,10e-4 0.19,-0.005 0.285,-0.0175 0.0937,-0.0125 0.1875,-0.0312 0.27875,-0.0562 0.0925,-0.0238 0.1825,-0.0538 0.27,-0.09 0.0875,-0.0362 0.17375,-0.0775 0.25625,-0.125 0.0825,-0.0462 0.1625,-0.0987 0.23875,-0.15625 0.0763,-0.0562 0.1475,-0.11875 0.21375,-0.18625 l 0.006,-0.006 0.006,-0.006 z"
             id="path20218"
             style="fill:none;stroke:#231f20;stroke-width:0.27825001;stroke-linejoin:bevel;stroke-miterlimit:22.9260006" />
          <path
             d="m 907.29,610 -0.006,0.006 -0.006,0.006 c -0.0688,0.0675 -0.14125,0.13125 -0.21875,0.19 -0.0762,0.0588 -0.1575,0.11125 -0.24125,0.15875 -0.0838,0.0488 -0.17,0.0912 -0.26,0.1275 -0.0888,0.0375 -0.18125,0.0675 -0.275,0.0912 -0.0925,0.025 -0.1875,0.0438 -0.28375,0.0562 -0.095,0.0125 -0.1925,0.0188 -0.28875,0.0188 -0.0963,0 -0.1925,-0.006 -0.28875,-0.0188 -0.0962,-0.0125 -0.19,-0.0312 -0.28375,-0.0562 -0.0937,-0.025 -0.185,-0.055 -0.27375,-0.0912 -0.09,-0.0375 -0.17625,-0.08 -0.26,-0.1275 -0.085,-0.0475 -0.16625,-0.1 -0.2425,-0.15875 -0.0775,-0.0575 -0.15,-0.12125 -0.2175,-0.19 l -0.008,-0.006 -0.005,-0.006 -33.2,-33.199 -0.006,-0.006 -0.006,-0.006 c -0.0675,-0.0688 -0.13,-0.14125 -0.18875,-0.21875 -0.0588,-0.0763 -0.11125,-0.1575 -0.15875,-0.24125 -0.05,-0.0838 -0.0925,-0.17 -0.12875,-0.26 -0.0362,-0.09 -0.0662,-0.18125 -0.09,-0.275 -0.025,-0.0925 -0.045,-0.1875 -0.0575,-0.28375 -0.0125,-0.095 -0.0188,-0.19125 -0.0175,-0.28875 -10e-4,-0.0963 0.005,-0.1925 0.0175,-0.28875 0.0125,-0.095 0.0312,-0.19 0.0562,-0.28375 0.025,-0.0937 0.055,-0.185 0.0925,-0.27375 0.0362,-0.09 0.0788,-0.1775 0.1275,-0.26 0.0462,-0.085 0.0987,-0.16625 0.1575,-0.24375 0.0575,-0.0762 0.1225,-0.15 0.19,-0.2175 l 0.006,-0.006 0.006,-0.006 33.2,-33.199 0.005,-0.006 0.006,-0.006 c 0.0688,-0.0675 0.1425,-0.13125 0.21875,-0.18875 0.0775,-0.0588 0.1575,-0.1125 0.2425,-0.15875 0.0825,-0.05 0.17,-0.0925 0.26,-0.12875 0.0888,-0.0362 0.18,-0.0675 0.27375,-0.0913 0.0937,-0.025 0.1875,-0.0437 0.28375,-0.0562 0.0962,-0.0125 0.1925,-0.0187 0.28875,-0.0175 0.0975,-10e-4 0.19375,0.005 0.28875,0.0175 0.0962,0.0125 0.19125,0.0312 0.28375,0.0562 0.0937,0.025 0.18625,0.055 0.275,0.0913 0.09,0.0375 0.17625,0.08 0.26,0.12875 0.085,0.0462 0.165,0.0987 0.2425,0.1575 0.0775,0.0575 0.15,0.12125 0.2175,0.19 l 0.006,0.006 0.006,0.006 33.199,33.199 0.006,0.006 0.006,0.006 c 0.0688,0.0687 0.13125,0.14125 0.19,0.21875 0.0588,0.0762 0.11125,0.1575 0.15875,0.2425 0.0488,0.0825 0.0913,0.17 0.12875,0.25875 0.0362,0.09 0.0662,0.18125 0.09,0.275 0.025,0.0937 0.0438,0.18875 0.0563,0.28375 0.0137,0.0963 0.0187,0.1925 0.0187,0.28875 0,0.0975 -0.005,0.19375 -0.0175,0.28875 -0.0137,0.0963 -0.0325,0.19125 -0.0575,0.28375 -0.0237,0.0937 -0.055,0.185 -0.0912,0.275 -0.0362,0.0888 -0.0788,0.17625 -0.1275,0.26 -0.0475,0.0838 -0.1,0.165 -0.15875,0.2425 -0.0575,0.0775 -0.12125,0.15 -0.19,0.2175 l -0.006,0.006 -0.006,0.006 -33.199,33.199 z"
             id="path20222"
             style="fill:#ffffff;stroke:#000000;stroke-width:2.44359994;stroke-linejoin:bevel;stroke-miterlimit:22.9260006" />
          <path
             d="m 905.72,540.78 v 68.888 c -0.0688,-0.005 -0.1375,-0.0113 -0.20625,-0.0188 -0.0688,-0.007 -0.13625,-0.0187 -0.2025,-0.0337 -0.0675,-0.0175 -0.1325,-0.0388 -0.19625,-0.065 -0.0638,-0.0263 -0.12625,-0.0575 -0.185,-0.0925 -0.0613,-0.0338 -0.11875,-0.0712 -0.175,-0.1125 -0.055,-0.0412 -0.10625,-0.0863 -0.15375,-0.13625 l -32.858,-32.856 -0.009,-0.009 c -0.0488,-0.0488 -0.0937,-0.10125 -0.13625,-0.15625 -0.0412,-0.055 -0.0788,-0.1125 -0.1125,-0.1725 -0.035,-0.06 -0.0662,-0.1225 -0.0925,-0.18625 -0.025,-0.0638 -0.0475,-0.12875 -0.0638,-0.19625 -0.0188,-0.0663 -0.0312,-0.13375 -0.0412,-0.2025 -0.009,-0.0687 -0.0125,-0.1375 -0.0125,-0.20625 0,-0.0688 0.004,-0.1375 0.0125,-0.20625 0.009,-0.0688 0.0225,-0.13625 0.0412,-0.2025 0.0163,-0.0662 0.0387,-0.1325 0.065,-0.19625 0.0263,-0.0638 0.0563,-0.125 0.0913,-0.185 0.0337,-0.0613 0.0712,-0.11875 0.1125,-0.17375 0.0412,-0.055 0.0875,-0.1075 0.13625,-0.155 l 0.009,-0.01 32.848,-32.848 0.009,-0.009 c 0.05,-0.0488 0.10125,-0.0937 0.15625,-0.135 0.055,-0.0412 0.1125,-0.08 0.17375,-0.11375 0.0587,-0.0362 0.12125,-0.0662 0.185,-0.0937 0.0638,-0.0263 0.12875,-0.0475 0.19625,-0.0625 0.0663,-0.0163 0.13375,-0.0288 0.2025,-0.0362 0.0688,-0.008 0.1375,-0.0125 0.20625,-0.0175"
             id="path20226"
             style="fill:#e72512;fill-rule:evenodd" />
        </g>
      </g>
    </g>
  </g>
</svg>
