<?xml version="1.0" encoding="UTF-8" standalone="no"?>
<!-- Created with Inkscape (http://www.inkscape.org/) -->

<svg
   xmlns:dc="http://purl.org/dc/elements/1.1/"
   xmlns:cc="http://creativecommons.org/ns#"
   xmlns:rdf="http://www.w3.org/1999/02/22-rdf-syntax-ns#"
   xmlns:svg="http://www.w3.org/2000/svg"
   xmlns="http://www.w3.org/2000/svg"
   xmlns:sodipodi="http://sodipodi.sourceforge.net/DTD/sodipodi-0.dtd"
   xmlns:inkscape="http://www.inkscape.org/namespaces/inkscape"
   id="svg2"
   height="60"
   width="60"
   version="1.1"
   inkscape:version="0.48.2 r9819"
   sodipodi:docname="no_wash.svg">
  <title
     id="title2992">No Wash</title>
  <defs
     id="defs3188" />
  <sodipodi:namedview
     pagecolor="#ffffff"
     bordercolor="#666666"
     borderopacity="1"
     objecttolerance="10"
     gridtolerance="10"
     guidetolerance="10"
     inkscape:pageopacity="0"
     inkscape:pageshadow="2"
     inkscape:window-width="1440"
     inkscape:window-height="808"
     id="namedview3186"
     showgrid="false"
     inkscape:zoom="9.1666667"
     inkscape:cx="10.8"
     inkscape:cy="30"
     inkscape:window-x="0"
     inkscape:window-y="0"
     inkscape:window-maximized="1"
     inkscape:current-layer="svg2" />
  <metadata
     id="metadata7">
    <rdf:RDF>
      <cc:Work
         rdf:about="">
        <dc:format>image/svg+xml</dc:format>
        <dc:type
           rdf:resource="http://purl.org/dc/dcmitype/StillImage" />
        <dc:title>No Wash</dc:title>
        <cc:license
           rdf:resource="http://creativecommons.org/licenses/publicdomain/" />
        <dc:identifier>A9</dc:identifier>
      </cc:Work>
      <cc:License
         rdf:about="http://creativecommons.org/licenses/publicdomain/">
        <cc:permits
           rdf:resource="http://creativecommons.org/ns#Reproduction" />
        <cc:permits
           rdf:resource="http://creativecommons.org/ns#Distribution" />
        <cc:permits
           rdf:resource="http://creativecommons.org/ns#DerivativeWorks" />
      </cc:License>
    </rdf:RDF>
  </metadata>
  <g
     id="layer13"
     transform="translate(0,-60)">
    <g
       id="g6842"
       transform="matrix(.97035 0 0 .97035 -28.221 31.779)">
      <g
         id="layer1-12"
         transform="translate(397.14 273.35)">
        <g
           id="g2899"
           transform="matrix(.84345 0 0 .84345 -52.779 -33.4)">
          <path
             id="path20190"
             stroke-linejoin="bevel"
             d="m-368.32-177.99h62.395c0.18125-0.001 0.36125-0.0137 0.54-0.0375 0.18-0.025 0.3575-0.0613 0.53125-0.11125 0.175-0.045 0.3475-0.1025 0.51375-0.17375 0.16625-0.07 0.32875-0.15125 0.48375-0.24375 0.1575-0.09 0.3075-0.19 0.45125-0.3s0.27875-0.23125 0.40625-0.35875c0.12875-0.1275 0.24875-0.26375 0.35875-0.40625 0.11-0.14375 0.21-0.295 0.3-0.45125 0.0925-0.15625 0.17375-0.3175 0.2425-0.485 0.07-0.16625 0.12875-0.3375 0.17625-0.5125 0.0487-0.175 0.0863-0.3525 0.11125-0.53125 0.025-0.17875 0.0375-0.36 0.0362-0.54v-62.429c0-0.18-0.0138-0.36125-0.0375-0.54-0.0238-0.18-0.0613-0.3575-0.11-0.53125-0.0462-0.175-0.10375-0.34625-0.17375-0.51375-0.07-0.16625-0.1525-0.32875-0.245-0.48375-0.09-0.15625-0.19-0.3075-0.3-0.45125-0.11-0.1425-0.23-0.27875-0.35875-0.40625-0.1275-0.12875-0.2625-0.24875-0.40625-0.35875s-0.29375-0.21-0.45125-0.3c-0.155-0.0913-0.3175-0.1725-0.485-0.2425-0.16625-0.07-0.3375-0.12875-0.5125-0.175-0.17375-0.05-0.35125-0.0875-0.53125-0.1125-0.17875-0.025-0.35875-0.0375-0.54-0.0362h-62.428c-0.18125 0.001-0.3625 0.0137-0.54125 0.0375-0.17875 0.025-0.35625 0.0613-0.53125 0.11125-0.175 0.045-0.34625 0.1025-0.5125 0.1725-0.1675 0.0712-0.32875 0.1525-0.485 0.245-0.15625 0.09-0.3075 0.19-0.45 0.3-0.14375 0.11-0.27875 0.23-0.40625 0.35875-0.12875 0.1275-0.24875 0.26375-0.36 0.40625-0.11 0.14375-0.21 0.29375-0.3 0.45125-0.0912 0.15625-0.1725 0.3175-0.2425 0.485-0.07 0.16625-0.12875 0.33875-0.175 0.5125-0.05 0.175-0.0875 0.3525-0.1125 0.53125s-0.0375 0.36-0.0362 0.54v62.429c0.001 0.18 0.0138 0.36125 0.0387 0.54 0.0238 0.17875 0.0613 0.35625 0.11 0.53125 0.045 0.175 0.10375 0.34625 0.17375 0.51375 0.07 0.16625 0.15125 0.3275 0.24375 0.48375 0.09 0.15625 0.19 0.3075 0.30125 0.45125 0.11 0.1425 0.23 0.27875 0.35875 0.40625 0.12625 0.12875 0.2625 0.24875 0.40625 0.35875 0.1425 0.11 0.29375 0.21 0.45 0.3 0.15625 0.0913 0.3175 0.1725 0.485 0.2425 0.16625 0.07 0.33875 0.12875 0.5125 0.175 0.175 0.05 0.3525 0.0875 0.5325 0.1125 0.17875 0.025 0.35875 0.0375 0.54 0.0362h0.0325z"
             stroke="#231f20"
             stroke-miterlimit="22.926"
             stroke-width=".27825"
             fill="none" />
          <path
             id="path20194"
             stroke-linejoin="bevel"
             d="m-368.32-177.92h-0.0337c-0.18375-0.001-0.3675-0.0137-0.54875-0.0387-0.1825-0.0238-0.3625-0.0625-0.54-0.11125-0.1775-0.0462-0.35125-0.105-0.52125-0.1775-0.17-0.0713-0.33375-0.15375-0.4925-0.2475-0.15875-0.0913-0.3125-0.19375-0.4575-0.305-0.14625-0.1125-0.28375-0.235-0.4125-0.365-0.13125-0.13-0.25375-0.2675-0.365-0.4125-0.1125-0.14625-0.215-0.29875-0.305-0.45875-0.0937-0.15875-0.17625-0.3225-0.2475-0.4925-0.07-0.16875-0.13-0.34375-0.1775-0.52125-0.05-0.1775-0.0888-0.3575-0.11375-0.54-0.0262-0.18125-0.0387-0.365-0.0375-0.54875v-62.429c0.001-0.18375 0.0138-0.3675 0.0387-0.54875 0.025-0.1825 0.0625-0.3625 0.1125-0.54 0.0462-0.1775 0.105-0.3525 0.17625-0.5225 0.0713-0.16875 0.15375-0.3325 0.24875-0.49125 0.0913-0.15875 0.1925-0.3125 0.305-0.4575 0.11125-0.14625 0.23375-0.28375 0.365-0.41375 0.12875-0.13 0.26625-0.2525 0.4125-0.36375 0.145-0.1125 0.29875-0.215 0.4575-0.30625 0.15875-0.0925 0.32375-0.175 0.4925-0.24625 0.17-0.0712 0.34375-0.13 0.52125-0.1775 0.1775-0.0512 0.3575-0.0888 0.54-0.115 0.1825-0.025 0.365-0.0375 0.54875-0.0363h62.429c0.185 0.001 0.3675 0.0138 0.55 0.0388 0.18125 0.025 0.3625 0.0613 0.53875 0.1125 0.17875 0.045 0.3525 0.105 0.5225 0.17625 0.17 0.0712 0.33375 0.15375 0.49125 0.2475 0.16 0.0913 0.3125 0.19375 0.45875 0.30625 0.145 0.11125 0.28375 0.23375 0.4125 0.36375 0.13125 0.13 0.2525 0.2675 0.365 0.41375 0.11125 0.145 0.21375 0.29875 0.305 0.4575 0.0937 0.15875 0.17625 0.3225 0.2475 0.4925 0.07 0.17 0.13 0.34375 0.1775 0.52125 0.05 0.1775 0.0888 0.3575 0.11375 0.54 0.0263 0.18125 0.0375 0.365 0.0362 0.54875v62.429c-0.001 0.18375-0.0138 0.3675-0.0375 0.54875-0.025 0.1825-0.0625 0.3625-0.1125 0.54-0.0462 0.1775-0.105 0.3525-0.1775 0.52125-0.0713 0.17-0.15375 0.33375-0.2475 0.4925-0.0913 0.16-0.19375 0.3125-0.305 0.45875-0.1125 0.145-0.23375 0.2825-0.365 0.4125-0.12875 0.13-0.2675 0.2525-0.4125 0.365-0.14625 0.11125-0.29875 0.21375-0.45875 0.305-0.15875 0.0925-0.3225 0.175-0.4925 0.24625-0.16875 0.0712-0.34375 0.13-0.52125 0.17875-0.1775 0.05-0.3575 0.0875-0.54 0.11375-0.18125 0.025-0.36375 0.0375-0.54875 0.0362h-62.395z"
             stroke="#000"
             stroke-miterlimit="22.926"
             stroke-width="2.4437"
             fill="none" />
          <path
             id="path20198"
             d="m-367.82-180.16h61.348 0.0197c0.10944-0.00098 0.21765-0.009 0.32586-0.0234 0.10822-0.0148 0.2152-0.0369 0.31972-0.0664 0.10575-0.0271 0.20904-0.0627 0.30988-0.10452 0.10083-0.0431 0.19797-0.091 0.29143-0.14756 0.0946-0.0541 0.18568-0.11436 0.27176-0.18076 0.0874-0.0664 0.16846-0.13895 0.24593-0.21642 0.0775-0.0762 0.14879-0.15863 0.21642-0.2447 0.0664-0.0874 0.12666-0.1783 0.18077-0.27176 0.0554-0.0946 0.10452-0.19182 0.14633-0.29265 0.0418-0.10084 0.0775-0.20413 0.10575-0.30988 0.0295-0.10452 0.0517-0.2115 0.0676-0.31971 0.0148-0.10821 0.0221-0.21642 0.021-0.32586v-61.387c0-0.10944-0.007-0.21765-0.0221-0.32586-0.0147-0.10821-0.0369-0.21519-0.0664-0.31971-0.027-0.10575-0.0628-0.20904-0.10452-0.30988-0.0418-0.10083-0.0922-0.19797-0.14756-0.29142-0.0541-0.0946-0.11436-0.18568-0.18077-0.27176-0.0677-0.0873-0.13895-0.16846-0.21642-0.24593-0.0775-0.0774-0.15863-0.15002-0.24593-0.21642-0.0861-0.0664-0.17585-0.12665-0.27176-0.18076-0.0935-0.0554-0.1906-0.10452-0.29143-0.14633-0.10084-0.0418-0.20413-0.0775-0.30988-0.10575-0.10452-0.0295-0.2115-0.0516-0.31972-0.0676-0.10821-0.0147-0.21765-0.0221-0.32586-0.0221h-61.388c-0.10944 0.00098-0.21765 0.009-0.32586 0.0234-0.10821 0.0148-0.21519 0.0369-0.31971 0.0664-0.10576 0.0271-0.21028 0.0627-0.30988 0.10452-0.10084 0.0418-0.19798 0.0922-0.29266 0.14756-0.0946 0.0541-0.18446 0.11436-0.27176 0.18076-0.0861 0.0677-0.16847 0.13895-0.24471 0.21642-0.0774 0.0775-0.15002 0.15862-0.21642 0.24593-0.0664 0.0861-0.12666 0.17584-0.18076 0.27175-0.0553 0.0935-0.10452 0.1906-0.14633 0.29143-0.0418 0.10083-0.0775 0.20412-0.10575 0.30988-0.0295 0.10452-0.0529 0.2115-0.0677 0.31971-0.016 0.1082-0.0221 0.21764-0.0221 0.32585v0.0197 61.347 0.0197c0.00098 0.10944 0.009 0.21765 0.0234 0.32586 0.0148 0.10821 0.0369 0.21519 0.0664 0.31971 0.027 0.10575 0.0627 0.20904 0.10452 0.30987 0.0418 0.10084 0.091 0.19798 0.14756 0.29266 0.0541 0.0935 0.11436 0.18445 0.18076 0.27176 0.0664 0.0861 0.13895 0.16846 0.21642 0.2447 0.0762 0.0775 0.15863 0.15001 0.24471 0.21642 0.0874 0.0664 0.17707 0.12665 0.27176 0.18076 0.0946 0.0554 0.19182 0.10452 0.29266 0.14632 0.10083 0.0418 0.20412 0.0774 0.30988 0.10575 0.10452 0.0295 0.2115 0.0529 0.31971 0.0676 0.10821 0.016 0.21642 0.0221 0.32586 0.0221h0.0197z"
             fill-rule="evenodd"
             fill="#e72512" />
          <path
             id="path20202"
             d="m-319.84-190.61-40.085-40.085v40.085h40.085"
             fill-rule="evenodd"
             fill="#fff" />
          <path
             id="path20206"
             d="m-314.88-197.77v-40.085h-40.085l40.085 40.085"
             fill-rule="evenodd"
             fill="#fff" />
          <path
             id="path20210"
             stroke-linejoin="bevel"
             d="m-359.96-206.86v6.8371c0.39622-0.004 0.79246-0.0102 1.1899-0.0191 0.39749-0.009 0.79498-0.0228 1.1912-0.0431 1.6621-0.081 3.3116-0.30888 4.9332-0.67979 1.6166-0.3671 3.185-0.9165 4.6788-1.6355 0.82789-0.38356 1.6457-0.79119 2.4508-1.2241 0.80512-0.43167 1.6343-0.8203 2.4812-1.1634 0.93803-0.3823 1.9128-0.66585 2.909-0.84434 0.995-0.18102 2.0064-0.24685 3.0154-0.19748 1.1925 0.0431 2.3748 0.2266 3.5242 0.54939 1.1596 0.32534 2.2976 0.72536 3.4052 1.1975 1.5558 0.66333 3.109 1.3342 4.6598 2.0128 1.5305 0.66965 3.1268 1.1823 4.7623 1.5279 0.7089 0.16077 1.4279 0.27976 2.1507 0.35698 0.72663 0.0785 1.4558 0.12533 2.1862 0.14179 0.26457 0.007 0.52915 0.0126 0.79498 0.0152 0.26457 0.003 0.52915 0.005 0.79372 0.005v-6.8371c-0.39876-0.006-0.79878-0.014-1.1975-0.0253-0.39876-0.0114-0.79878-0.0304-1.1976-0.0582-0.7418-0.0519-1.4811-0.14431-2.2128-0.27724-0.72916-0.13417-1.4494-0.31646-2.1533-0.5494-1.252-0.42153-2.471-0.93802-3.6445-1.5444-1.1773-0.6089-2.3799-1.1659-3.6053-1.6722-0.43166-0.17975-0.8684-0.34559-1.3127-0.49497-0.44307-0.15063-0.88992-0.28608-1.3418-0.40634-1.0165-0.2747-2.0495-0.4785-3.0926-0.60889-1.0482-0.13039-2.1026-0.18736-3.1584-0.1709-0.82284-0.002-1.6457 0.0442-2.4622 0.14052-0.81144 0.0962-1.614 0.25191-2.4027 0.46711-1.6621 0.47851-3.2736 1.1152-4.8142 1.9001-1.5532 0.79119-3.1533 1.4836-4.7927 2.0773-1.019 0.37849-2.0685 0.66965-3.1369 0.87092-1.0672 0.20129-2.1482 0.31269-3.2331 0.33548-0.22785 0.007-0.45572 0.0126-0.68358 0.0152-0.22913 0.00099-0.45699 0.00099-0.68485 0.00099z"
             fill-rule="evenodd"
             stroke="#000"
             stroke-miterlimit="22.926"
             stroke-width=".28179" />
          <path
             id="path20214"
             stroke-linejoin="bevel"
             d="m-359.96-220.53v6.8384c0.39622-0.005 0.79246-0.0114 1.1899-0.0203 0.39749-0.009 0.79498-0.0228 1.1912-0.0431 1.6621-0.081 3.3116-0.30888 4.9332-0.67852 1.6166-0.36838 3.185-0.91651 4.6788-1.6368 0.82789-0.38356 1.6457-0.79118 2.4508-1.2229 0.80512-0.43293 1.6343-0.82155 2.4812-1.1646 0.93803-0.3823 1.9128-0.6646 2.909-0.84436 0.995-0.17975 2.0064-0.24684 3.0154-0.19748 1.1925 0.0431 2.3748 0.2266 3.5242 0.5494 1.1596 0.32534 2.2976 0.72537 3.4052 1.1975 1.5558 0.66332 3.109 1.3355 4.6598 2.0128 1.5305 0.66966 3.1268 1.1824 4.7623 1.5279 0.7089 0.16077 1.4279 0.27977 2.1507 0.35699 0.72663 0.0785 1.4558 0.12532 2.1862 0.14178 0.26457 0.007 0.52915 0.0126 0.79498 0.0152 0.26457 0.002 0.52915 0.005 0.79372 0.006v-6.8384c-0.39876-0.006-0.79878-0.014-1.1975-0.0253-0.39876-0.0114-0.79878-0.0304-1.1976-0.0582-0.7418-0.0506-1.4798-0.14431-2.2128-0.27723-0.72916-0.13419-1.4494-0.31647-2.1533-0.5494-1.252-0.42154-2.471-0.93802-3.6445-1.5444-1.1773-0.6089-2.3799-1.1659-3.6053-1.6723-0.43166-0.17975-0.8684-0.34558-1.3127-0.49496-0.44307-0.15063-0.88992-0.28482-1.3418-0.40635-1.0152-0.2747-2.0495-0.4785-3.0926-0.60889-1.0482-0.13038-2.1026-0.18735-3.1584-0.1709-0.82284-0.002-1.6457 0.0443-2.4622 0.14178-0.81144 0.0948-1.614 0.25192-2.4027 0.46585-1.6621 0.47977-3.2736 1.1152-4.8142 1.9014-1.5532 0.78992-3.1533 1.4836-4.7927 2.0761-1.019 0.3785-2.0685 0.66966-3.1369 0.87093-1.0672 0.20128-2.1482 0.31395-3.2331 0.33673-0.22785 0.008-0.45572 0.0114-0.68358 0.014-0.22913 0.00098-0.45699 0.002-0.68485 0.00098z"
             fill-rule="evenodd"
             stroke="#000"
             stroke-miterlimit="22.926"
             stroke-width=".28179" />
        </g>
      </g>
    </g>
  </g>
</svg>
