<?xml version="1.0" encoding="UTF-8" standalone="no"?>
<!-- Created with Inkscape (http://www.inkscape.org/) -->

<svg
   xmlns:dc="http://purl.org/dc/elements/1.1/"
   xmlns:cc="http://creativecommons.org/ns#"
   xmlns:rdf="http://www.w3.org/1999/02/22-rdf-syntax-ns#"
   xmlns:svg="http://www.w3.org/2000/svg"
   xmlns="http://www.w3.org/2000/svg"
   xmlns:sodipodi="http://sodipodi.sourceforge.net/DTD/sodipodi-0.dtd"
   xmlns:inkscape="http://www.inkscape.org/namespaces/inkscape"
   id="svg2"
   height="60"
   width="60"
   version="1.1"
   inkscape:version="0.48.2 r9819"
   sodipodi:docname="opening_to_right.svg">
  <title
     id="title2988">Opening To Right</title>
  <defs
     id="defs3857" />
  <sodipodi:namedview
     pagecolor="#ffffff"
     bordercolor="#666666"
     borderopacity="1"
     objecttolerance="10"
     gridtolerance="10"
     guidetolerance="10"
     inkscape:pageopacity="0"
     inkscape:pageshadow="2"
     inkscape:window-width="1440"
     inkscape:window-height="808"
     id="namedview3855"
     showgrid="false"
     inkscape:zoom="9.1666667"
     inkscape:cx="10.8"
     inkscape:cy="30"
     inkscape:window-x="0"
     inkscape:window-y="0"
     inkscape:window-maximized="1"
     inkscape:current-layer="svg2" />
  <metadata
     id="metadata7">
    <rdf:RDF>
      <cc:Work
         rdf:about="">
        <dc:format>image/svg+xml</dc:format>
        <dc:type
           rdf:resource="http://purl.org/dc/dcmitype/StillImage" />
        <dc:title>Opening To Right</dc:title>
        <cc:license
           rdf:resource="http://creativecommons.org/licenses/publicdomain/" />
        <dc:identifier>D2a</dc:identifier>
      </cc:Work>
      <cc:License
         rdf:about="http://creativecommons.org/licenses/publicdomain/">
        <cc:permits
           rdf:resource="http://creativecommons.org/ns#Reproduction" />
        <cc:permits
           rdf:resource="http://creativecommons.org/ns#Distribution" />
        <cc:permits
           rdf:resource="http://creativecommons.org/ns#DerivativeWorks" />
      </cc:License>
    </rdf:RDF>
  </metadata>
  <g
     id="layer47"
     transform="translate(0,-60)">
    <g
       id="g6909"
       transform="matrix(.97035 0 0 .97035 -28.221 31.779)">
      <g
         id="layer1-33"
         transform="translate(522.86 93.352)">
        <g
           id="g3059"
           transform="matrix(.84347 0 0 .84345 -72.452 -5.2214)">
          <path
             id="path17763-9"
             stroke-linejoin="bevel"
             d="m-464.41 1.4012-33.205-33.205-0.006-0.0063c-0.0662-0.0675-0.12875-0.14-0.18625-0.215-0.0575-0.07625-0.11-0.155-0.15625-0.23875-0.0487-0.08125-0.0912-0.1675-0.12625-0.255-0.0362-0.0875-0.0662-0.17875-0.09-0.27s-0.0425-0.185-0.055-0.28c-0.0125-0.09375-0.0187-0.18875-0.0175-0.28375-0.001-0.095 0.005-0.19 0.0175-0.28375 0.0125-0.095 0.0312-0.1875 0.0562-0.28 0.0238-0.09125 0.0538-0.18125 0.0888-0.27 0.0362-0.0875 0.0788-0.1725 0.12625-0.255 0.0462-0.08375 0.0987-0.16375 0.155-0.23875 0.0575-0.07625 0.12-0.14875 0.1875-0.215l0.006-0.0063 0.006-0.0063 33.199-33.199 0.006-0.0063 0.006-0.0063c0.0675-0.06625 0.13875-0.12875 0.215-0.18625 0.075-0.0575 0.155-0.11 0.2375-0.15625 0.0825-0.04875 0.1675-0.09 0.25625-0.12625 0.0875-0.03625 0.1775-0.06625 0.27-0.08875 0.0925-0.025 0.185-0.04375 0.28-0.05625 0.0937-0.0125 0.18875-0.0175 0.28375-0.0175s0.19 0.005 0.28375 0.0175c0.095 0.0125 0.1875 0.03125 0.28 0.05625 0.0913 0.02375 0.18125 0.05375 0.27 0.09 0.0875 0.035 0.1725 0.0775 0.255 0.125 0.0838 0.04625 0.16375 0.09875 0.24 0.15625 0.075 0.05625 0.14625 0.11875 0.21375 0.18625l0.006 0.0063 0.006 0.0063 33.199 33.199 0.006 0.0063 0.006 0.0063c0.0662 0.0675 0.12875 0.13875 0.18625 0.215 0.0575 0.075 0.11 0.155 0.15625 0.23875 0.0475 0.08125 0.09 0.16625 0.12625 0.255 0.035 0.0875 0.065 0.17875 0.0888 0.27 0.025 0.0925 0.0438 0.185 0.0562 0.28 0.0125 0.09375 0.0188 0.18875 0.0175 0.28375 0.001 0.095-0.005 0.19-0.0175 0.285-0.0125 0.09375-0.0312 0.1875-0.0562 0.27875-0.0237 0.09125-0.0538 0.1825-0.09 0.27s-0.0775 0.17375-0.125 0.255c-0.0462 0.08375-0.0987 0.16375-0.15625 0.24-0.0562 0.075-0.11875 0.1475-0.18625 0.21375l-0.007 0.0063-33.204 33.205-0.006 0.0063-0.006 0.0063c-0.0675 0.06625-0.14 0.12875-0.215 0.18625-0.0762 0.0575-0.155 0.11-0.23875 0.15625-0.0812 0.04875-0.1675 0.09-0.255 0.12625s-0.17875 0.065-0.27 0.08875c-0.0925 0.025-0.185 0.04375-0.28 0.05625-0.0937 0.0125-0.18875 0.01875-0.28375 0.0175-0.095 0.0012-0.19-0.005-0.28375-0.0175-0.095-0.0125-0.18875-0.03125-0.28-0.05625-0.0925-0.02375-0.1825-0.05375-0.27-0.09s-0.17375-0.0775-0.25625-0.125c-0.0825-0.04625-0.1625-0.09875-0.23875-0.15625-0.0762-0.05625-0.1475-0.11875-0.21375-0.18625l-0.006-0.0063-0.006-0.0063z"
             stroke="#231f20"
             stroke-miterlimit="22.926"
             stroke-width=".27825"
             fill="none" />
          <path
             id="path17767-6"
             stroke-linejoin="bevel"
             d="m-464.44 1.4262 0.006 0.0063 0.006 0.0063c0.0688 0.0675 0.14125 0.13125 0.21875 0.19 0.0763 0.05875 0.1575 0.11125 0.24125 0.15875 0.0838 0.04875 0.17 0.09125 0.26 0.1275 0.0888 0.0375 0.18125 0.0675 0.275 0.09125 0.0925 0.025 0.1875 0.04375 0.28375 0.05625 0.095 0.0125 0.1925 0.01875 0.28875 0.01875 0.0963 0 0.1925-0.0063 0.28875-0.01875 0.095-0.0125 0.19-0.03125 0.28375-0.05625 0.0937-0.025 0.185-0.055 0.27375-0.09125 0.09-0.0375 0.17625-0.08 0.26-0.1275 0.085-0.0475 0.16625-0.1 0.2425-0.15875 0.0775-0.0575 0.15-0.12125 0.2175-0.19l0.007-0.0063 0.005-0.0063 33.2-33.199 0.006-0.0063 0.005-0.0063c0.0687-0.06875 0.13125-0.14125 0.19-0.21875 0.0588-0.07625 0.11125-0.1575 0.15875-0.24125 0.05-0.08375 0.0925-0.17 0.12875-0.26 0.0362-0.09 0.0662-0.18125 0.09-0.275 0.025-0.0925 0.045-0.1875 0.0575-0.28375 0.0125-0.095 0.0187-0.19125 0.0175-0.28875 0.001-0.09625-0.005-0.1925-0.0175-0.28875-0.0125-0.095-0.0312-0.19-0.0563-0.28375-0.025-0.09375-0.055-0.185-0.0925-0.27375-0.0362-0.09-0.0788-0.1775-0.1275-0.26-0.0462-0.085-0.1-0.16625-0.1575-0.24375-0.0588-0.07625-0.1225-0.15-0.19125-0.2175l-0.005-0.0063-0.006-0.0063-33.2-33.199-0.005-0.0062-0.006-0.0063c-0.0687-0.0675-0.1425-0.13125-0.21875-0.18875-0.0775-0.05875-0.1575-0.1125-0.2425-0.15875-0.0825-0.05-0.17-0.0925-0.26-0.12875-0.0888-0.03625-0.18-0.0675-0.27375-0.09125-0.0937-0.025-0.18875-0.04375-0.28375-0.05625-0.0963-0.0125-0.1925-0.01875-0.28875-0.0175-0.0975-0.0012-0.19375 0.005-0.28875 0.0175-0.0963 0.0125-0.19125 0.03125-0.28375 0.05625-0.0937 0.025-0.18625 0.055-0.275 0.09125-0.09 0.0375-0.17625 0.08-0.26 0.12875-0.085 0.04625-0.165 0.09875-0.2425 0.1575-0.0775 0.0575-0.15 0.12125-0.2175 0.19l-0.006 0.0063-0.006 0.0062-33.199 33.199-0.006 0.0063-0.006 0.0063c-0.0688 0.06875-0.13125 0.14125-0.19 0.21875-0.0588 0.07625-0.11125 0.1575-0.15875 0.2425-0.0487 0.0825-0.0912 0.17-0.12875 0.25875-0.0362 0.09-0.0662 0.18125-0.09 0.275-0.025 0.09375-0.0437 0.18875-0.0562 0.28375-0.0137 0.09625-0.0187 0.1925-0.0187 0.28875 0 0.0975 0.005 0.19375 0.0175 0.28875 0.0138 0.09625 0.0325 0.19125 0.0575 0.28375 0.0238 0.09375 0.055 0.185 0.0913 0.275 0.0362 0.08875 0.0788 0.17625 0.1275 0.26 0.0475 0.08375 0.1 0.165 0.15875 0.2425 0.0575 0.0775 0.12125 0.15 0.19 0.2175l0.006 0.0063 0.006 0.0063 33.199 33.199z"
             stroke="#000"
             stroke-miterlimit="22.926"
             stroke-width="2.4436"
             fill="#fff" />
          <path
             id="path17771"
             d="m-462.86-67.796v68.888c0.0688-0.005 0.1375-0.01125 0.20625-0.01875 0.0688-0.0075 0.13625-0.01875 0.2025-0.03375 0.0675-0.0175 0.1325-0.03875 0.19625-0.065 0.0638-0.02625 0.125-0.0575 0.185-0.0925 0.0612-0.03375 0.11875-0.07125 0.175-0.1125 0.0538-0.04125 0.10625-0.08625 0.15375-0.13625l0.009-0.0087 32.849-32.848 0.009-0.0087c0.0488-0.04875 0.0937-0.10125 0.135-0.15625 0.0425-0.055 0.08-0.1125 0.11375-0.1725 0.035-0.06 0.0663-0.1225 0.0925-0.18625 0.025-0.06375 0.0475-0.12875 0.0637-0.19625 0.0188-0.06625 0.0312-0.13375 0.0413-0.2025 0.009-0.06875 0.0125-0.1375 0.0125-0.20625s-0.004-0.1375-0.0125-0.20625c-0.009-0.06875-0.0225-0.13625-0.0413-0.2025-0.0162-0.06625-0.0387-0.1325-0.065-0.19625s-0.0562-0.125-0.0913-0.185c-0.0337-0.06125-0.0712-0.11875-0.1125-0.17375-0.0412-0.055-0.0875-0.1075-0.13625-0.155l-0.009-0.01-32.856-32.856c-0.05-0.04875-0.10125-0.09375-0.15625-0.135s-0.1125-0.08-0.17375-0.11375c-0.0588-0.03625-0.12125-0.06625-0.185-0.09375-0.0638-0.02625-0.12875-0.0475-0.19625-0.0625-0.0662-0.01625-0.13375-0.02875-0.2025-0.03625-0.0688-0.0062-0.1375-0.0125-0.20625-0.0175"
             fill-rule="evenodd"
             fill="#25e712" />
        </g>
      </g>
    </g>
  </g>
</svg>
