<?xml version="1.0" encoding="UTF-8" standalone="no"?>
<!-- Created with Inkscape (http://www.inkscape.org/) -->

<svg
   xmlns:dc="http://purl.org/dc/elements/1.1/"
   xmlns:cc="http://creativecommons.org/ns#"
   xmlns:rdf="http://www.w3.org/1999/02/22-rdf-syntax-ns#"
   xmlns:svg="http://www.w3.org/2000/svg"
   xmlns="http://www.w3.org/2000/svg"
   xmlns:sodipodi="http://sodipodi.sourceforge.net/DTD/sodipodi-0.dtd"
   xmlns:inkscape="http://www.inkscape.org/namespaces/inkscape"
   id="svg2"
   height="60"
   width="60"
   version="1.1"
   inkscape:version="0.48.2 r9819"
   sodipodi:docname="prohibition_ends.svg">
  <title
     id="title2992">Prohibition Ends</title>
  <defs
     id="defs4627" />
  <sodipodi:namedview
     pagecolor="#ffffff"
     bordercolor="#666666"
     borderopacity="1"
     objecttolerance="10"
     gridtolerance="10"
     guidetolerance="10"
     inkscape:pageopacity="0"
     inkscape:pageshadow="2"
     inkscape:window-width="1440"
     inkscape:window-height="808"
     id="namedview4625"
     showgrid="false"
     inkscape:zoom="9.1666667"
     inkscape:cx="10.8"
     inkscape:cy="30"
     inkscape:window-x="0"
     inkscape:window-y="0"
     inkscape:window-maximized="1"
     inkscape:current-layer="svg2" />
  <metadata
     id="metadata7">
    <rdf:RDF>
      <cc:Work
         rdf:about="">
        <dc:format>image/svg+xml</dc:format>
        <dc:type
           rdf:resource="http://purl.org/dc/dcmitype/StillImage" />
        <dc:title>Prohibition Ends</dc:title>
        <cc:license
           rdf:resource="http://creativecommons.org/licenses/publicdomain/" />
        <dc:identifier>E11</dc:identifier>
      </cc:Work>
      <cc:License
         rdf:about="http://creativecommons.org/licenses/publicdomain/">
        <cc:permits
           rdf:resource="http://creativecommons.org/ns#Reproduction" />
        <cc:permits
           rdf:resource="http://creativecommons.org/ns#Distribution" />
        <cc:permits
           rdf:resource="http://creativecommons.org/ns#DerivativeWorks" />
      </cc:License>
    </rdf:RDF>
  </metadata>
  <g
     id="layer42"
     transform="translate(0,-60)">
    <g
       id="layer1-00"
       transform="matrix(.97211 0 0 .72806 -310.24 -297.59)">
      <g
         id="g2995"
         transform="matrix(1.3083 0 0 1.1833 -107.9 -97.591)">
        <g
           id="g3753"
           transform="matrix(0 1.25 1.25 0 329.93 565.98)"
           stroke="#000"
           fill="#f9f9f9">
          <path
             id="path3755"
             stroke-linejoin="bevel"
             d="m0 0v32.123c0 0.093-0.007 0.186-0.02 0.278-0.012 0.093-0.031 0.184-0.056 0.274-0.023 0.09-0.054 0.178-0.09 0.264s-0.078 0.169-0.125 0.249c-0.047 0.081-0.098 0.158-0.155 0.232s-0.119 0.144-0.185 0.209c-0.065 0.067-0.135 0.129-0.209 0.185-0.074 0.057-0.151 0.109-0.232 0.155-0.08 0.047-0.164 0.089-0.249 0.125-0.086 0.036-0.175 0.066-0.265 0.09-0.09 0.025-0.181 0.045-0.273 0.058s-0.185 0.019-0.278 0.018h-49.514c-0.093 0-0.186-0.007-0.278-0.019-0.093-0.013-0.184-0.032-0.274-0.057-0.09-0.023-0.178-0.053-0.264-0.089s-0.169-0.078-0.249-0.126c-0.081-0.046-0.159-0.098-0.232-0.155-0.074-0.056-0.144-0.118-0.209-0.185-0.067-0.065-0.129-0.135-0.185-0.209-0.057-0.074-0.109-0.151-0.155-0.232-0.047-0.08-0.089-0.164-0.125-0.249-0.036-0.086-0.066-0.174-0.09-0.264-0.025-0.09-0.045-0.181-0.058-0.274-0.013-0.092-0.019-0.185-0.019-0.278v-32.14c0.001-0.093 0.008-0.186 0.02-0.278 0.013-0.092 0.032-0.184 0.057-0.273 0.023-0.09 0.053-0.179 0.089-0.265s0.078-0.169 0.126-0.249c0.046-0.081 0.098-0.158 0.155-0.232 0.056-0.074 0.118-0.144 0.185-0.209 0.065-0.067 0.135-0.128 0.209-0.185 0.073-0.057 0.151-0.108 0.232-0.155 0.08-0.047 0.163-0.089 0.249-0.125 0.086-0.035 0.174-0.066 0.264-0.09 0.09-0.025 0.181-0.045 0.274-0.058 0.092-0.013 0.185-0.019 0.278-0.018h49.514c0.093 0.001 0.186 0.007 0.278 0.02 0.092 0.012 0.183 0.031 0.273 0.056 0.091 0.023 0.179 0.054 0.265 0.09 0.085 0.036 0.169 0.078 0.249 0.125 0.081 0.047 0.158 0.098 0.232 0.155s0.144 0.119 0.209 0.185c0.066 0.065 0.128 0.135 0.185 0.209s0.108 0.151 0.155 0.232c0.047 0.08 0.089 0.164 0.125 0.249 0.035 0.086 0.066 0.175 0.09 0.265 0.025 0.09 0.045 0.181 0.058 0.273 0.012 0.092 0.019 0.185 0.018 0.278v0.017z"
             stroke-miterlimit="22.926"
             stroke-width=".25675" />
          <g
             id="g3757"
             transform="translate(.035)"
             stroke-width="1.1887">
            <path
               id="path3759"
               stroke-linejoin="bevel"
               d="m0 0v-0.017c-0.001-0.095-0.007-0.189-0.02-0.283-0.013-0.093-0.032-0.186-0.058-0.277-0.023-0.092-0.054-0.182-0.09-0.269-0.037-0.087-0.08-0.172-0.128-0.253-0.047-0.082-0.1-0.161-0.158-0.236-0.057-0.075-0.12-0.146-0.187-0.213s-0.138-0.13-0.213-0.188c-0.075-0.057-0.153-0.11-0.236-0.157-0.081-0.048-0.166-0.09-0.253-0.127-0.087-0.036-0.177-0.067-0.269-0.091-0.091-0.026-0.183-0.046-0.277-0.059s-0.189-0.019-0.283-0.019h-49.514c-0.095 0.001-0.189 0.007-0.283 0.02s-0.187 0.032-0.278 0.058c-0.091 0.023-0.181 0.054-0.269 0.09-0.087 0.037-0.171 0.08-0.253 0.128-0.082 0.047-0.16 0.1-0.235 0.158-0.076 0.057-0.147 0.12-0.213 0.187-0.068 0.067-0.13 0.138-0.188 0.213s-0.11 0.154-0.157 0.236c-0.048 0.081-0.09 0.166-0.127 0.253s-0.067 0.177-0.092 0.269c-0.026 0.091-0.045 0.184-0.059 0.277-0.013 0.094-0.019 0.188-0.018 0.283v32.14c0 0.095 0.007 0.189 0.02 0.283 0.012 0.094 0.032 0.186 0.057 0.278 0.024 0.091 0.055 0.181 0.091 0.269 0.037 0.087 0.079 0.171 0.128 0.253 0.047 0.082 0.099 0.16 0.157 0.235 0.058 0.076 0.12 0.146 0.188 0.213 0.066 0.068 0.137 0.13 0.213 0.188 0.074 0.058 0.153 0.11 0.235 0.157 0.082 0.048 0.166 0.09 0.254 0.127 0.087 0.037 0.177 0.067 0.268 0.092 0.091 0.026 0.184 0.045 0.278 0.059 0.094 0.013 0.188 0.019 0.283 0.018h49.514c0.095 0 0.189-0.007 0.283-0.02 0.094-0.012 0.186-0.032 0.277-0.057 0.092-0.024 0.182-0.055 0.269-0.091 0.088-0.037 0.172-0.08 0.253-0.128 0.083-0.047 0.161-0.099 0.236-0.157s0.146-0.12 0.213-0.188c0.067-0.066 0.13-0.137 0.188-0.213 0.057-0.074 0.11-0.153 0.157-0.235 0.048-0.082 0.09-0.167 0.127-0.254 0.036-0.087 0.067-0.177 0.091-0.268 0.026-0.092 0.046-0.184 0.059-0.278s0.02-0.188 0.019-0.283v-32.123z"
               stroke="#000"
               stroke-miterlimit="22.926"
               stroke-width="1.5285"
               fill="#f9f9f9" />
          </g>
        </g>
        <g
           id="g3761"
           fill="#039"
           transform="matrix(0 1.25 1.25 0 329.93 564.07)">
          <path
             id="path3763"
             d="m0 0v-0.005c0-0.027-0.002-0.054-0.006-0.081-0.003-0.026-0.009-0.053-0.016-0.079s-0.016-0.052-0.026-0.077c-0.011-0.025-0.023-0.049-0.037-0.072-0.013-0.024-0.028-0.046-0.045-0.068-0.016-0.021-0.034-0.041-0.053-0.06s-0.04-0.037-0.061-0.054c-0.021-0.016-0.044-0.031-0.067-0.045-0.024-0.013-0.048-0.026-0.073-0.036s-0.05-0.019-0.076-0.026c-0.026-0.008-0.053-0.013-0.08-0.017s-0.054-0.006-0.08-0.005h-45.646l46.266 31.345v-30.72"
             fill-rule="evenodd"
             fill="#039" />
        </g>
        <g
           id="g3765"
           fill="#039"
           transform="matrix(0 1.25 1.25 0 370.85 558.49)">
          <path
             id="path3767"
             d="m0 0-46.27-31.345v30.724c0.001 0.027 0.002 0.054 0.006 0.081s0.009 0.053 0.017 0.079c0.007 0.027 0.015 0.052 0.026 0.077 0.01 0.025 0.023 0.049 0.036 0.072 0.014 0.024 0.029 0.046 0.045 0.068 0.017 0.021 0.034 0.042 0.053 0.061s0.04 0.037 0.061 0.053c0.022 0.017 0.044 0.032 0.068 0.045 0.023 0.014 0.047 0.026 0.072 0.036 0.025 0.011 0.051 0.02 0.077 0.027s0.052 0.012 0.079 0.016 0.054 0.006 0.081 0.006h45.649"
             fill-rule="evenodd"
             fill="#039" />
        </g>
      </g>
    </g>
  </g>
</svg>
