<?xml version="1.0" encoding="UTF-8" standalone="no"?>
<!-- Created with Inkscape (http://www.inkscape.org/) -->

<svg
   xmlns:dc="http://purl.org/dc/elements/1.1/"
   xmlns:cc="http://creativecommons.org/ns#"
   xmlns:rdf="http://www.w3.org/1999/02/22-rdf-syntax-ns#"
   xmlns:svg="http://www.w3.org/2000/svg"
   xmlns="http://www.w3.org/2000/svg"
   xmlns:sodipodi="http://sodipodi.sourceforge.net/DTD/sodipodi-0.dtd"
   xmlns:inkscape="http://www.inkscape.org/namespaces/inkscape"
   id="svg2"
   height="60"
   width="80"
   version="1.1"
   inkscape:version="0.48.2 r9819"
   sodipodi:docname="weir.svg">
  <title
     id="title2988">Weir</title>
  <defs
     id="defs3948" />
  <sodipodi:namedview
     pagecolor="#ffffff"
     bordercolor="#666666"
     borderopacity="1"
     objecttolerance="10"
     gridtolerance="10"
     guidetolerance="10"
     inkscape:pageopacity="0"
     inkscape:pageshadow="2"
     inkscape:window-width="1440"
     inkscape:window-height="808"
     id="namedview3946"
     showgrid="false"
     inkscape:zoom="9.1666667"
     inkscape:cx="20.8"
     inkscape:cy="30"
     inkscape:window-x="0"
     inkscape:window-y="0"
     inkscape:window-maximized="1"
     inkscape:current-layer="svg2" />
  <metadata
     id="metadata7">
    <rdf:RDF>
      <cc:Work
         rdf:about="">
        <dc:format>image/svg+xml</dc:format>
        <dc:type
           rdf:resource="http://purl.org/dc/dcmitype/StillImage" />
        <dc:title>Weir</dc:title>
        <cc:license
           rdf:resource="http://creativecommons.org/licenses/publicdomain/" />
        <dc:identifier>E3</dc:identifier>
      </cc:Work>
      <cc:License
         rdf:about="http://creativecommons.org/licenses/publicdomain/">
        <cc:permits
           rdf:resource="http://creativecommons.org/ns#Reproduction" />
        <cc:permits
           rdf:resource="http://creativecommons.org/ns#Distribution" />
        <cc:permits
           rdf:resource="http://creativecommons.org/ns#DerivativeWorks" />
      </cc:License>
    </rdf:RDF>
  </metadata>
  <g
     id="layer3"
     transform="translate(0,-60)">
    <g
       id="g7161"
       transform="matrix(.97891 0 0 .97184 -18.734 31.69)">
      <g
         id="layer1-84"
         transform="translate(-682.86 -412.36)">
        <g
           id="g3119"
           transform="matrix(1.1244 0 0 1.2432 -92.397 -114.88)">
          <path
             id="path17791"
             fill="none"
             d="m710.3 496.32h65.116 0.0112c0.1225-0.001 0.245-0.01 0.36625-0.0263 0.12125-0.0162 0.24125-0.0412 0.36-0.075 0.11875-0.03 0.235-0.07 0.3475-0.1175s0.2225-0.1025 0.3275-0.165c0.10625-0.0613 0.20875-0.12875 0.30625-0.20375 0.0962-0.075 0.18875-0.155 0.275-0.2425 0.0875-0.0863 0.16875-0.17875 0.2425-0.275 0.075-0.0975 0.14375-0.2 0.20375-0.30625 0.0625-0.105 0.1175-0.215 0.16375-0.3275 0.0475-0.11375 0.0875-0.23 0.12-0.3475 0.0325-0.11875 0.0588-0.23875 0.075-0.36 0.0175-0.12125 0.0262-0.24375 0.025-0.36625v-42.289c0-0.1225-0.009-0.245-0.025-0.36625-0.0175-0.12125-0.0425-0.24125-0.075-0.36-0.0312-0.11875-0.0712-0.235-0.11875-0.3475-0.0475-0.11375-0.1025-0.2225-0.165-0.3275-0.0613-0.10625-0.12875-0.20875-0.20375-0.30625-0.0738-0.0975-0.155-0.18875-0.2425-0.275-0.0863-0.0875-0.17875-0.16875-0.275-0.24375-0.0975-0.0737-0.2-0.1425-0.30625-0.20375-0.105-0.0612-0.215-0.11625-0.3275-0.16375-0.11375-0.0475-0.23-0.0863-0.3475-0.11875-0.11875-0.0337-0.23875-0.0587-0.36-0.0763-0.12125-0.0162-0.24375-0.025-0.36625-0.0237h-65.15c-0.1225 0-0.24375 0.009-0.36625 0.025-0.12125 0.0162-0.24125 0.0412-0.35875 0.075-0.11875 0.0312-0.235 0.07-0.34875 0.1175-0.1125 0.0475-0.2225 0.10375-0.3275 0.165-0.10625 0.0613-0.20875 0.13-0.305 0.20375-0.0975 0.075-0.19 0.15625-0.27625 0.24375-0.0863 0.0863-0.16875 0.1775-0.2425 0.275-0.075 0.0975-0.1425 0.19875-0.20375 0.30625-0.0625 0.105-0.1175 0.215-0.16375 0.3275-0.0475 0.11375-0.0875 0.22875-0.11875 0.3475-0.0337 0.11875-0.06 0.23875-0.0763 0.36-0.0175 0.12125-0.025 0.24375-0.025 0.36625v42.289c0.001 0.1225 0.01 0.245 0.0262 0.36625 0.0163 0.12125 0.0413 0.24125 0.075 0.36 0.03 0.11875 0.07 0.235 0.1175 0.3475s0.1025 0.2225 0.165 0.3275c0.0613 0.10625 0.12875 0.20875 0.20375 0.30625 0.075 0.0962 0.15625 0.18875 0.2425 0.275 0.0863 0.0875 0.17875 0.1675 0.27625 0.2425 0.0962 0.075 0.19875 0.14375 0.305 0.20375 0.105 0.0625 0.215 0.1175 0.32875 0.165 0.1125 0.0463 0.22875 0.0863 0.3475 0.1175 0.1175 0.0337 0.2375 0.06 0.36 0.0762 0.12125 0.0175 0.2425 0.0263 0.365 0.025h0.0112 0.0112z" />
          <path
             id="path17795"
             stroke-linejoin="bevel"
             d="m710.3 496.36h-0.0112-0.0112c-0.125-0.001-0.24875-0.01-0.37125-0.0263-0.12375-0.0163-0.24625-0.0425-0.36625-0.0763-0.12-0.0312-0.23875-0.0712-0.35375-0.11875-0.115-0.0488-0.22625-0.105-0.3325-0.16875-0.10875-0.0613-0.2125-0.13125-0.31125-0.20625-0.0987-0.0763-0.19125-0.15875-0.27875-0.2475-0.0888-0.0875-0.17125-0.18125-0.2475-0.28-0.0762-0.0987-0.145-0.20125-0.20625-0.31-0.0637-0.1075-0.12-0.21875-0.1675-0.33375-0.0487-0.115-0.0888-0.2325-0.12125-0.3525-0.0337-0.12-0.06-0.2425-0.0762-0.36625-0.0175-0.1225-0.0263-0.2475-0.025-0.37125v-42.29c0-0.125 0.009-0.24875 0.0263-0.3725 0.0163-0.1225 0.0412-0.245 0.075-0.365 0.0312-0.12125 0.0713-0.23875 0.12-0.35375 0.0488-0.115 0.10375-0.22625 0.16875-0.3325 0.0613-0.10875 0.13-0.2125 0.20625-0.31125 0.0763-0.0987 0.15875-0.1925 0.2475-0.28 0.0875-0.0888 0.18-0.17125 0.27875-0.24625 0.0987-0.0763 0.2025-0.145 0.31125-0.2075 0.10625-0.0625 0.21875-0.11875 0.3325-0.16625 0.115-0.0487 0.23375-0.0887 0.35375-0.12125 0.12-0.0337 0.2425-0.06 0.36625-0.0775 0.1225-0.0175 0.24625-0.025 0.37125-0.0238h65.15c0.125 0 0.24875 0.009 0.3725 0.025 0.12375 0.0175 0.245 0.0425 0.365 0.0762 0.12125 0.0312 0.23875 0.0713 0.35375 0.12s0.22625 0.10375 0.3325 0.1675c0.10875 0.0625 0.2125 0.13125 0.31125 0.2075 0.0987 0.0763 0.1925 0.1575 0.28 0.24625 0.0888 0.0875 0.17125 0.18125 0.24625 0.28 0.0762 0.0987 0.145 0.2025 0.2075 0.31125 0.0637 0.10625 0.11875 0.2175 0.16625 0.3325 0.0487 0.115 0.0888 0.23375 0.12125 0.35375 0.0337 0.12 0.06 0.2425 0.0775 0.365 0.0175 0.12375 0.025 0.2475 0.025 0.3725v42.29c-0.001 0.12375-0.01 0.24875-0.0263 0.37125-0.0175 0.12375-0.0425 0.24625-0.0762 0.36625-0.0312 0.12-0.0713 0.23875-0.12 0.3525-0.0475 0.115-0.10375 0.22625-0.1675 0.33375-0.0625 0.1075-0.13125 0.21125-0.2075 0.31-0.075 0.0987-0.1575 0.1925-0.24625 0.28-0.0875 0.0887-0.18125 0.17125-0.28 0.2475-0.0987 0.0762-0.2025 0.145-0.31125 0.20625-0.10625 0.0637-0.2175 0.11875-0.3325 0.1675-0.115 0.0475-0.23375 0.0875-0.35375 0.12-0.12 0.035-0.24125 0.06-0.365 0.0775s-0.2475 0.0263-0.3725 0.025h-0.0112-65.116z"
             fill-rule="evenodd"
             stroke="#000"
             stroke-miterlimit="22.926"
             stroke-width="1.7343"
             fill="#fff" />
          <path
             id="path17813"
             d="m709.48 493.16v-4.8012h66.751v4.8162 0.015c-0.001 0.05-0.006 0.0987-0.0137 0.14875-0.008 0.0488-0.0188 0.0975-0.0337 0.14625-0.0125 0.0475-0.03 0.095-0.05 0.14-0.0213 0.045-0.0437 0.09-0.07 0.1325s-0.055 0.0838-0.0863 0.12125c-0.0312 0.04-0.0662 0.0763-0.1025 0.11-0.035 0.035-0.0738 0.0675-0.115 0.0962-0.04 0.0288-0.0825 0.0563-0.12625 0.0787-0.0437 0.025-0.0888 0.0463-0.135 0.0637-0.0475 0.0175-0.095 0.0325-0.14375 0.0438-0.0387 0.01-0.0788 0.0175-0.11875 0.0225-0.04 0.005-0.08 0.009-0.12125 0.009h-0.0125-64.494-0.015c-0.05-0.001-0.1-0.005-0.14875-0.0138-0.05-0.007-0.0987-0.0187-0.14625-0.0325-0.0487-0.0137-0.095-0.0312-0.14125-0.0512-0.045-0.0213-0.0888-0.0438-0.13125-0.07-0.0425-0.0262-0.0837-0.055-0.1225-0.0862s-0.075-0.0662-0.11-0.1025c-0.0337-0.035-0.0662-0.0737-0.0962-0.115-0.0288-0.04-0.055-0.0825-0.0788-0.12625-0.0237-0.0438-0.045-0.0888-0.0625-0.135-0.0187-0.0462-0.0325-0.095-0.045-0.14375-0.009-0.0387-0.0163-0.0788-0.0225-0.11875-0.005-0.04-0.007-0.08-0.009-0.12v-0.0137-0.0138m6.4002-23.089v14.63h5.4865v-14.63h-5.4865zm12.116 0v14.63h5.4865v-14.63h-5.4865zm12.116 0v14.63h5.4865v-14.63h-5.4865zm12.115 0v14.63h5.4862v-14.63h-5.4862zm12.116 0v14.63h5.4865v-14.63h-5.4865zm-53.721-19.659h64.48 0.015c0.05 0.001 0.1 0.006 0.14875 0.0138 0.05 0.007 0.0987 0.0187 0.14625 0.0337 0.0475 0.0125 0.095 0.03 0.14125 0.0512 0.045 0.02 0.0888 0.0438 0.13125 0.07 0.0425 0.025 0.0837 0.0538 0.1225 0.0863 0.0388 0.0312 0.075 0.065 0.10875 0.10125 0.035 0.0363 0.0675 0.0738 0.0962 0.115 0.03 0.04 0.0563 0.0825 0.08 0.12625 0.0237 0.0438 0.045 0.0888 0.0625 0.135 0.0187 0.0475 0.0325 0.095 0.0437 0.14375 0.01 0.0387 0.0175 0.0787 0.0225 0.11875 0.005 0.04 0.009 0.08 0.009 0.12125l0.001 0.0125v7.5575h-6.4012v7.27l-53.95 0.0462v-7.3162h-6.4v-7.5438-0.0138-0.0162c0.001-0.0487 0.005-0.0987 0.0137-0.14875 0.008-0.0487 0.0188-0.0975 0.0325-0.145 0.0138-0.0487 0.0312-0.095 0.0513-0.14125 0.02-0.045 0.0438-0.0888 0.07-0.13125 0.0263-0.0438 0.055-0.0838 0.0863-0.1225 0.0312-0.0388 0.065-0.0763 0.1025-0.11 0.035-0.035 0.0738-0.0662 0.11375-0.095 0.0412-0.03 0.0838-0.0563 0.1275-0.08 0.0438-0.0238 0.0888-0.045 0.135-0.0638 0.0463-0.0175 0.095-0.0325 0.14375-0.0437 0.0387-0.009 0.0788-0.0162 0.11875-0.0225 0.04-0.005 0.08-0.007 0.12-0.009h0.0137 0.0138"
             fill-rule="evenodd"
             fill="#039" />
        </g>
      </g>
    </g>
  </g>
</svg>
