<?xml version="1.0" encoding="UTF-8" standalone="no"?>
<svg
   xmlns:dc="http://purl.org/dc/elements/1.1/"
   xmlns:cc="http://creativecommons.org/ns#"
   xmlns:rdf="http://www.w3.org/1999/02/22-rdf-syntax-ns#"
   xmlns:svg="http://www.w3.org/2000/svg"
   xmlns="http://www.w3.org/2000/svg"
   xmlns:sodipodi="http://sodipodi.sourceforge.net/DTD/sodipodi-0.dtd"
   xmlns:inkscape="http://www.inkscape.org/namespaces/inkscape"
   version="1.0"
   width="83.84375"
   height="68.413879"
   id="svg2"
   inkscape:version="0.48.2 r9819"
   sodipodi:docname="black.svg"
   sodipodi:version="0.32"
   inkscape:output_extension="org.inkscape.output.svg.inkscape"
   sodipodi:modified="true">
  <title
     id="title2982">Q20: Conical black buoy</title>
  <metadata
     id="metadata2997">
    <rdf:RDF>
      <cc:Work
         rdf:about="">
        <dc:format>image/svg+xml</dc:format>
        <dc:type
           rdf:resource="http://purl.org/dc/dcmitype/StillImage" />
        <dc:title>Q20: Conical black buoy</dc:title>
        <cc:license
           rdf:resource="http://creativecommons.org/licenses/publicdomain/" />
      </cc:Work>
      <cc:License
         rdf:about="http://creativecommons.org/licenses/publicdomain/">
        <cc:permits
           rdf:resource="http://creativecommons.org/ns#Reproduction" />
        <cc:permits
           rdf:resource="http://creativecommons.org/ns#Distribution" />
        <cc:permits
           rdf:resource="http://creativecommons.org/ns#DerivativeWorks" />
      </cc:License>
      <cc:Work
         rdf:about="">
        <dc:format>image/svg+xml</dc:format>
        <dc:type
           rdf:resource="http://purl.org/dc/dcmitype/StillImage" />
      </cc:Work>
    </rdf:RDF>
  </metadata>
  <sodipodi:namedview
     pagecolor="#ffffff"
     bordercolor="#666666"
     borderopacity="1"
     objecttolerance="10"
     gridtolerance="10"
     guidetolerance="10"
     inkscape:pageopacity="0"
     inkscape:pageshadow="2"
     inkscape:window-width="802"
     inkscape:window-height="575"
     id="namedview2995"
     showgrid="false"
     inkscape:zoom="0.821875"
     inkscape:cx="-54.144487"
     inkscape:cy="160"
     inkscape:window-x="78"
     inkscape:window-y="78"
     inkscape:window-maximized="0"
     inkscape:current-layer="svg2" />
  <defs
     id="defs4" />
  <path
     d="M 58.25,0.0076315289 C 54.30373,0.073041529 50.71799,2.2282915 46.96875,5.1951315 C 42.96956,8.3597615 38.74036,12.690502 34.3125,17.788882 C 25.53834,27.891732 16.03302,40.955752 7.15625,53.101382 L 0,53.101382 L 0,58.757632 L 29.6875,58.757632 C 30.97482,64.290582 35.92077,68.413872 41.84375,68.413882 C 47.7687,68.413882 52.7147,64.293362 54,58.757632 L 83.84375,58.757632 L 83.84375,58.695132 L 83.84375,53.101382 L 76.125,53.101382 C 74.84896,41.774352 73.93984,29.728542 72.125,20.007632 C 71.17035,14.894232 70.00242,10.432672 68.125,6.8513815 C 66.24758,3.2700915 63.15687,0.23796153 59.03125,0.0076315289 C 58.76468,-0.0071084711 58.51308,0.0032715289 58.25,0.0076315289 z M 41.84375,48.413882 C 45.98375,48.413882 49.34375,51.773882 49.34375,55.913882 C 49.34375,60.053882 45.98375,63.413882 41.84375,63.413882 C 37.70375,63.413882 34.34375,60.053882 34.34375,55.913882 C 34.34375,51.773882 37.70375,48.413882 41.84375,48.413882 z "
     id="path90440"
     style="fill:#000407;fill-opacity:1;fill-rule:evenodd;stroke:none" />
</svg>
