<?xml version="1.0" encoding="UTF-8" standalone="no"?>
<svg
   xmlns:dc="http://purl.org/dc/elements/1.1/"
   xmlns:cc="http://creativecommons.org/ns#"
   xmlns:rdf="http://www.w3.org/1999/02/22-rdf-syntax-ns#"
   xmlns:svg="http://www.w3.org/2000/svg"
   xmlns="http://www.w3.org/2000/svg"
   xmlns:sodipodi="http://sodipodi.sourceforge.net/DTD/sodipodi-0.dtd"
   xmlns:inkscape="http://www.inkscape.org/namespaces/inkscape"
   version="1.0"
   width="27.021038"
   height="26.973963"
   id="svg2"
   inkscape:version="0.48.2 r9819"
   sodipodi:docname="D17_small.svg">
  <title
     id="title2986">D17: Airfield (NOT OFFICIAL)</title>
  <metadata
     id="metadata17">
    <rdf:RDF>
      <cc:Work
         rdf:about="">
        <dc:format>image/svg+xml</dc:format>
        <dc:type
           rdf:resource="http://purl.org/dc/dcmitype/StillImage" />
        <dc:title>D17: Airfield (NOT OFFICIAL)</dc:title>
        <cc:license
           rdf:resource="http://creativecommons.org/licenses/publicdomain/" />
      </cc:Work>
      <cc:License
         rdf:about="http://creativecommons.org/licenses/publicdomain/">
        <cc:permits
           rdf:resource="http://creativecommons.org/ns#Reproduction" />
        <cc:permits
           rdf:resource="http://creativecommons.org/ns#Distribution" />
        <cc:permits
           rdf:resource="http://creativecommons.org/ns#DerivativeWorks" />
      </cc:License>
    </rdf:RDF>
  </metadata>
  <sodipodi:namedview
     pagecolor="#ffffff"
     bordercolor="#666666"
     borderopacity="1"
     objecttolerance="10"
     gridtolerance="10"
     guidetolerance="10"
     inkscape:pageopacity="0"
     inkscape:pageshadow="2"
     inkscape:window-width="996"
     inkscape:window-height="581"
     id="namedview15"
     showgrid="false"
     fit-margin-top="0"
     fit-margin-left="0"
     fit-margin-right="0"
     fit-margin-bottom="0"
     inkscape:zoom="14.259259"
     inkscape:cx="1.1740866"
     inkscape:cy="13.484419"
     inkscape:window-x="0"
     inkscape:window-y="0"
     inkscape:window-maximized="0"
     inkscape:current-layer="svg2" />
  <defs
     id="defs4">
    <filter
       id="filter"
       color-interpolation-filters="sRGB">
      <feGaussianBlur
         stdDeviation="0.4858"
         id="feGaussianBlur7" />
    </filter>
  </defs>
  <g
     transform="matrix(0.970595,0,0,0.970595,4.8456754,4.2347505)"
     id="g9">
    <path
       d="M 14.688294,3.772212 C 14.618884,3.7028 14.53011,3.709486 14.012321,3.949169 c -0.06111,0.02829 -0.284901,0.1858039 -0.284901,0.1858039 10e-7,7e-7 -0.116415,-0.1057979 -0.145104,-0.1344868 -0.05546,-0.055465 -0.17993,-0.081023 -0.277822,-0.058396 -0.303714,0.0702 -1.514972,0.91686 -1.988991,1.3908783 -0.294161,0.2941613 -0.495114,0.4458142 -0.576878,0.4353128 -0.069,-0.00886 -0.365852,-0.120312 -0.658279,-0.247739 C 9.5643695,5.2957031 9.4628688,5.2114829 6.6403088,2.6750816 4.4051045,0.66648791 3.6838134,0.05189152 3.5205658,0.01542473 3.0679259,-0.08568551 2.6474238,0.30598357 2.1226092,1.3178247 L 1.8518658,1.8398474 c 0,0 5.4502607,7.6126691 5.4502607,7.6126691 L 3.8355479,14.016225 3.6497445,13.911821 C 3.5479024,13.854145 2.9531527,13.37724 2.3278792,12.851851 1.7026037,12.326464 1.1318754,11.890663 1.0591003,11.883899 c -0.29256392,-0.02719 -1.21276904,1.144292 -1.0369647,1.320096 0.27747668,0.277477 1.1654392,1.44136 1.1749911,1.539522 0.00682,0.07008 0.7697063,1.070533 1.1095168,1.410343 0.3398104,0.339811 1.34026,1.102698 1.4103436,1.109517 0.098161,0.0096 1.2620446,0.897515 1.5395222,1.174992 0.1758044,0.175804 1.3472873,-0.744401 1.3200952,-1.036966 C 6.5698412,17.328628 6.1340403,16.757901 5.6086534,16.132625 5.0832647,15.507352 4.6063599,14.912602 4.5486828,14.810759 L 4.4442792,14.624956 9.0079874,11.158377 c 0,0 7.6126716,5.450261 7.6126716,5.450262 l 0.522022,-0.270745 c 1.011842,-0.524814 1.403511,-0.945316 1.3024,-1.397956 C 18.408614,14.77669 17.79402,14.0554 15.785425,11.820195 13.249024,8.997635 13.164804,8.8961354 12.939964,8.3801608 12.812537,8.0877335 12.701088,7.7908815 12.692224,7.7218814 c -0.0105,-0.081764 0.141154,-0.2827153 0.435314,-0.5768777 0.474019,-0.4740181 1.320678,-1.6852768 1.390878,-1.9889913 0.02263,-0.097892 -0.0029,-0.2223558 -0.0584,-0.2778216 -0.02869,-0.02869 -0.132718,-0.1433353 -0.132718,-0.1433353 0,0 0.157515,-0.2237852 0.185804,-0.2848999 0.239682,-0.5177901 0.244601,-0.6083297 0.175187,-0.6777436 z"
       id="path13"
       style="fill:#000000"
       inkscape:connector-curvature="0" />
  </g>
  <path
     sodipodi:type="arc"
     style="fill:none;stroke:#000000;stroke-width:1.70608759;stroke-miterlimit:4;stroke-opacity:1;stroke-dasharray:none"
     id="path2994"
     sodipodi:cx="10.974576"
     sodipodi:cy="9.8305082"
     sodipodi:rx="11.398305"
     sodipodi:ry="11.694915"
     d="m 22.372881,9.8305082 a 11.398305,11.694915 0 1 1 -22.79660994,0 11.398305,11.694915 0 1 1 22.79660994,0 z"
     transform="matrix(1.1028995,0,0,1.0749275,1.41309,2.9224591)" />
</svg>
