<?xml version="1.0" encoding="UTF-8" standalone="no"?>
<svg
   xmlns:dc="http://purl.org/dc/elements/1.1/"
   xmlns:cc="http://creativecommons.org/ns#"
   xmlns:rdf="http://www.w3.org/1999/02/22-rdf-syntax-ns#"
   xmlns:svg="http://www.w3.org/2000/svg"
   xmlns="http://www.w3.org/2000/svg"
   xmlns:sodipodi="http://sodipodi.sourceforge.net/DTD/sodipodi-0.dtd"
   xmlns:inkscape="http://www.inkscape.org/namespaces/inkscape"
   version="1.0"
   width="143.84375"
   height="43.205551"
   id="svg2"
   inkscape:version="0.48.2 r9819"
   sodipodi:docname="green.svg"
   sodipodi:version="0.32"
   inkscape:output_extension="org.inkscape.output.svg.inkscape"
   sodipodi:modified="true">
  <title
     id="title2983">Q26: Green superbuoy</title>
  <metadata
     id="metadata3032">
    <rdf:RDF>
      <cc:Work
         rdf:about="">
        <dc:format>image/svg+xml</dc:format>
        <dc:type
           rdf:resource="http://purl.org/dc/dcmitype/StillImage" />
        <cc:license
           rdf:resource="http://creativecommons.org/licenses/publicdomain/" />
        <dc:title>Q26: Green superbuoy</dc:title>
      </cc:Work>
      <cc:Work
         rdf:about="">
        <dc:format>image/svg+xml</dc:format>
        <dc:type
           rdf:resource="http://purl.org/dc/dcmitype/StillImage" />
      </cc:Work>
      <cc:License
         rdf:about="http://creativecommons.org/licenses/publicdomain/">
        <cc:permits
           rdf:resource="http://creativecommons.org/ns#Reproduction" />
        <cc:permits
           rdf:resource="http://creativecommons.org/ns#Distribution" />
        <cc:permits
           rdf:resource="http://creativecommons.org/ns#DerivativeWorks" />
      </cc:License>
    </rdf:RDF>
  </metadata>
  <sodipodi:namedview
     pagecolor="#ffffff"
     bordercolor="#666666"
     borderopacity="1"
     objecttolerance="10"
     gridtolerance="10"
     guidetolerance="10"
     inkscape:pageopacity="0"
     inkscape:pageshadow="2"
     inkscape:window-width="1440"
     inkscape:window-height="808"
     id="namedview3030"
     showgrid="false"
     inkscape:zoom="6.6530524"
     inkscape:cx="45.467852"
     inkscape:cy="21.602776"
     inkscape:window-x="0"
     inkscape:window-y="0"
     inkscape:window-maximized="1"
     inkscape:current-layer="svg2" />
  <defs
     id="defs4" />
  <path
     style="fill:#00d400;fill-opacity:1;stroke:none;stroke-width:1px;stroke-linecap:butt;stroke-linejoin:miter;stroke-opacity:1"
     d="M 24.11998,30.91532 L 35.83576,2.43947 L 111.98833,1.95131 L 124.02955,30.42716 L 82.8616,30.10173 L 79.76994,24.40655 L 75.70196,21.31489 L 69.19319,20.98945 L 65.28793,23.26752 L 60.89451,30.42716 L 24.11998,30.91532 z "
     id="path2983"
     inkscape:connector-curvature="0" />
  <path
     style="fill:#000407;fill-opacity:1;fill-rule:evenodd;stroke:none"
     d="M 113.875,0.01805 L 34.03785,0 L 21.84375,27.89305 L 0,27.89305 L 0,33.5493 L 59.6875,33.5493 C 60.97482,39.08225 65.92077,43.20554 71.84375,43.20555 C 77.7687,43.20555 82.7147,39.08503 84,33.5493 L 143.84375,33.5493 L 143.84375,27.89305 L 124.98592,27.89305 L 113.875,0.01805 z M 36.59551,4.89965 L 111.18486,4.54446 L 120.92738,28.2302 L 84,27.89305 C 82.7147,22.35732 77.7687,18.2368 71.84375,18.2368 C 65.92077,18.23681 60.97482,22.3601 59.6875,27.89305 L 27.125,27.89305 L 36.59551,4.89965 z M 71.84375,23.20555 C 75.98375,23.20555 79.34375,26.56555 79.34375,30.70555 C 79.34375,34.84555 75.98375,38.20555 71.84375,38.20555 C 67.70375,38.20555 64.34375,34.84555 64.34375,30.70555 C 64.34375,26.56555 67.70375,23.20555 71.84375,23.20555 z "
     id="path90440"
     inkscape:connector-curvature="0"
     sodipodi:nodetypes="ccccccscccccccccscccsssss" />
</svg>
