<?xml version="1.0" encoding="UTF-8" standalone="no"?>
<svg
   xmlns:dc="http://purl.org/dc/elements/1.1/"
   xmlns:cc="http://creativecommons.org/ns#"
   xmlns:rdf="http://www.w3.org/1999/02/22-rdf-syntax-ns#"
   xmlns:svg="http://www.w3.org/2000/svg"
   xmlns="http://www.w3.org/2000/svg"
   xmlns:sodipodi="http://sodipodi.sourceforge.net/DTD/sodipodi-0.dtd"
   xmlns:inkscape="http://www.inkscape.org/namespaces/inkscape"
   version="1.0"
   width="72.3125"
   height="86.1875"
   id="svg2"
   inkscape:version="0.48.2 r9819"
   sodipodi:docname="H_yellow_black_yellow.svg"
   sodipodi:version="0.32"
   inkscape:output_extension="org.inkscape.output.svg.inkscape"
   sodipodi:modified="true">
  <metadata
     id="metadata3562">
    <rdf:RDF>
      <cc:Work
         rdf:about="">
        <dc:format>image/svg+xml</dc:format>
        <dc:type
           rdf:resource="http://purl.org/dc/dcmitype/StillImage" />
        <cc:license
           rdf:resource="http://creativecommons.org/licenses/publicdomain/" />
        <dc:title></dc:title>
      </cc:Work>
      <cc:Work
         rdf:about="">
        <dc:format>image/svg+xml</dc:format>
        <dc:type
           rdf:resource="http://purl.org/dc/dcmitype/StillImage" />
      </cc:Work>
      <cc:License
         rdf:about="http://creativecommons.org/licenses/publicdomain/">
        <cc:permits
           rdf:resource="http://creativecommons.org/ns#Reproduction" />
        <cc:permits
           rdf:resource="http://creativecommons.org/ns#Distribution" />
        <cc:permits
           rdf:resource="http://creativecommons.org/ns#DerivativeWorks" />
      </cc:License>
    </rdf:RDF>
  </metadata>
  <sodipodi:namedview
     pagecolor="#ffffff"
     bordercolor="#666666"
     borderopacity="1"
     objecttolerance="10"
     gridtolerance="10"
     guidetolerance="10"
     inkscape:pageopacity="0"
     inkscape:pageshadow="2"
     inkscape:window-width="1440"
     inkscape:window-height="808"
     id="namedview3560"
     showgrid="false"
     inkscape:zoom="6.3814358"
     inkscape:cx="36.15625"
     inkscape:cy="43.09375"
     inkscape:window-x="0"
     inkscape:window-y="0"
     inkscape:window-maximized="1"
     inkscape:current-layer="svg2" />
  <defs
     id="defs4" />
  <path
     style="fill:#ffd400;fill-opacity:1;stroke:#000000;stroke-width:1px;stroke-linecap:butt;stroke-linejoin:miter;stroke-opacity:1"
     d="M 11.58748,73.36325 L 16.16728,4.011988 L 56.07697,3.35773 L 61.31103,72.70899 L 47.14393,72.72669 L 45.23636,67.69764 L 41.42121,64.74958 L 37.25924,63.36226 L 33.4441,63.8825 L 29.80238,65.44324 L 27.54798,67.87106 L 26.16065,72.90011 L 11.58748,73.36325 z "
     id="path7906"
     inkscape:connector-curvature="0" />
  <path
     style="fill:#000000;stroke:none"
     d="M 14.04496,24.46098 L 57.71081,24.46098 L 59.16634,39.59848 L 13.17165,39.59848 L 14.04496,24.46098 z "
     id="path2984"
     inkscape:connector-curvature="0" />
  <path
     d="M 12.78125,0 L 8.15625,70.875 L 0,70.875 L 0,76.53125 L 24,76.53125 C 25.28732,82.0642 30.23327,86.18749 36.15625,86.1875 C 42.0812,86.1875 47.0272,82.06698 48.3125,76.53125 L 72.3125,76.53125 L 72.3125,70.875 L 64.15625,70.875 L 59.1875,0 L 12.78125,0 z M 19.5,7.09375 L 52.8125,7.09375 L 57.40625,70.875 L 48.3125,70.875 C 47.0272,65.33927 42.0812,61.21875 36.15625,61.21875 C 30.23327,61.21876 25.28732,65.34205 24,70.875 L 14.90625,70.875 L 19.5,7.09375 z M 36.15625,66.1875 C 40.29625,66.1875 43.65625,69.5475 43.65625,73.6875 C 43.65625,77.8275 40.29625,81.1875 36.15625,81.1875 C 32.01625,81.1875 28.65625,77.8275 28.65625,73.6875 C 28.65625,69.5475 32.01625,66.1875 36.15625,66.1875 z "
     id="path2558"
     style="fill:#000407;fill-opacity:1;fill-rule:evenodd;stroke:none" />
</svg>
