<?xml version="1.0" encoding="UTF-8" standalone="no"?>
<!-- Generator: Adobe Illustrator 14.0.0, SVG Export Plug-In . SVG Version: 6.00 Build 43363)  -->

<svg
   xmlns:dc="http://purl.org/dc/elements/1.1/"
   xmlns:cc="http://creativecommons.org/ns#"
   xmlns:rdf="http://www.w3.org/1999/02/22-rdf-syntax-ns#"
   xmlns:svg="http://www.w3.org/2000/svg"
   xmlns="http://www.w3.org/2000/svg"
   xmlns:sodipodi="http://sodipodi.sourceforge.net/DTD/sodipodi-0.dtd"
   xmlns:inkscape="http://www.inkscape.org/namespaces/inkscape"
   version="1.1"
   id="svg8829"
   inkscape:export-filename="C:\Dokumente und Einstellungen\rolf\Eigene Dateien\Eigene Karten\Harbour.png"
   inkscape:output_extension="org.inkscape.output.svg.inkscape"
   sodipodi:version="0.32"
   inkscape:version="0.48.2 r9819"
   inkscape:export-ydpi="89.361702"
   inkscape:export-xdpi="89.361702"
   sodipodi:docname="S1.svg"
   x="0px"
   y="0px"
   width="180px"
   height="180px"
   viewBox="0 0 180 180"
   xml:space="preserve"><title
   id="title2986">S1: Coast Radar Station</title><metadata
   id="metadata13"><rdf:RDF><cc:Work
       rdf:about=""><dc:format>image/svg+xml</dc:format><dc:type
         rdf:resource="http://purl.org/dc/dcmitype/StillImage" /><dc:title>S1: Coast Radar Station</dc:title><cc:license
         rdf:resource="http://creativecommons.org/licenses/publicdomain/" /></cc:Work><cc:License
       rdf:about="http://creativecommons.org/licenses/publicdomain/"><cc:permits
         rdf:resource="http://creativecommons.org/ns#Reproduction" /><cc:permits
         rdf:resource="http://creativecommons.org/ns#Distribution" /><cc:permits
         rdf:resource="http://creativecommons.org/ns#DerivativeWorks" /></cc:License></rdf:RDF></metadata><defs
   id="defs11" />
<sodipodi:namedview
   id="base"
   inkscape:current-layer="g2415"
   inkscape:window-y="0"
   inkscape:window-x="0"
   inkscape:window-width="1440"
   inkscape:pageopacity="0.0"
   inkscape:pageshadow="2"
   inkscape:window-height="808"
   inkscape:cy="90"
   inkscape:cx="-38.905072"
   borderopacity="1.0"
   objecttolerance="10.0"
   inkscape:zoom="2.7306916"
   gridtolerance="10.0"
   showgrid="false"
   guidetolerance="10.0"
   pagecolor="#ffffff"
   bordercolor="#666666"
   inkscape:window-maximized="1">
	</sodipodi:namedview>
<g
   id="g2415">
	<path
   d="m 92,21 c -37.54,0 -68,30.46 -68,68 0,37.54 30.46,68 68,68 37.54,0 68,-30.46 68,-68 0,-37.54 -30.46,-68 -68,-68 z m 0.295975,4.082205 c 31.151455,-0.366207 63.098105,35.078051 63.342585,63.377753 0.31405,36.352922 -39.51528,64.811332 -62.976377,64.811332 -31.151459,0 -63.38576,-31.38796 -63.74004,-64.078917 C 28.555935,55.40087 63.343762,25.422559 92.295975,25.082205 z"
   id="path2421"
   style="fill:#a30075;fill-opacity:1"
   inkscape:connector-curvature="0"
   sodipodi:nodetypes="ssssssssss" />
	
	
		
</g>
<g
   id="g2409">
	<path
   id="path2411"
   fill-opacity="0"
   d="M134.13,100.27L130.3,121.9l-5.25-4.86c-2.618,2.91-5.6,5.38-9.18,7.63   c-6.05,3.8-12.67,5.95-19.33,6.57l-0.68,6.33h-7l-0.7-6.33c-10.78-1.04-21.06-6.03-28.6-14.42l-5.83,5.08L50.6,99.97l15.31,11.3   l-3.9,3.4c6.65,5.73,15.86,9.561,26.182,10.38l1.38-57.98H74.96v-4.39l14.58,0.16v-3.65c-4.51-0.99-7.858-4.64-7.858-9   c0-5.13,4.618-9.28,10.318-9.28c5.69,0,10.312,4.15,10.312,9.28c0,4.26-3.199,7.86-7.552,8.95v3.59l15.012-0.05v4.39H95.16   l1.41,57.98c10.25-0.819,19.39-4.62,26.02-10.3l-3.77-3.48L134.13,100.27z M96.92,50.19c0-2.44-2.198-4.42-4.91-4.42   c-2.71,0-4.908,1.98-4.908,4.42s2.198,4.42,4.908,4.42C94.72,54.61,96.92,52.63,96.92,50.19z" />
	
		<ellipse
   id="ellipse2413"
   sodipodi:cx="92.010002"
   sodipodi:cy="50.189999"
   sodipodi:rx="4.9099998"
   sodipodi:ry="4.4200001"
   fill-opacity="0"
   cx="92.01"
   cy="50.19"
   rx="4.91"
   ry="4.42">
	</ellipse>
</g>
</svg>