<?xml version="1.0" encoding="UTF-8" standalone="no"?>
<!-- Created with Inkscape (http://www.inkscape.org/) -->

<svg
   xmlns:dc="http://purl.org/dc/elements/1.1/"
   xmlns:cc="http://creativecommons.org/ns#"
   xmlns:rdf="http://www.w3.org/1999/02/22-rdf-syntax-ns#"
   xmlns:svg="http://www.w3.org/2000/svg"
   xmlns="http://www.w3.org/2000/svg"
   xmlns:sodipodi="http://sodipodi.sourceforge.net/DTD/sodipodi-0.dtd"
   xmlns:inkscape="http://www.inkscape.org/namespaces/inkscape"
   version="1.0"
   width="53.887501"
   height="53.849998"
   id="svg2"
   inkscape:version="0.48.2 r9819"
   sodipodi:docname="K12.svg">
  <title
     id="title2982">K12: Rocks that are awash</title>
  <metadata
     id="metadata7">
    <rdf:RDF>
      <cc:Work
         rdf:about="">
        <dc:format>image/svg+xml</dc:format>
        <dc:type
           rdf:resource="http://purl.org/dc/dcmitype/StillImage" />
        <dc:title>K12: Rocks that are awash</dc:title>
        <cc:license
           rdf:resource="http://creativecommons.org/licenses/publicdomain/" />
      </cc:Work>
      <cc:License
         rdf:about="http://creativecommons.org/licenses/publicdomain/">
        <cc:permits
           rdf:resource="http://creativecommons.org/ns#Reproduction" />
        <cc:permits
           rdf:resource="http://creativecommons.org/ns#Distribution" />
        <cc:permits
           rdf:resource="http://creativecommons.org/ns#DerivativeWorks" />
      </cc:License>
    </rdf:RDF>
  </metadata>
  <sodipodi:namedview
     pagecolor="#ffffff"
     bordercolor="#666666"
     borderopacity="1"
     objecttolerance="10"
     gridtolerance="10"
     guidetolerance="10"
     inkscape:pageopacity="0"
     inkscape:pageshadow="2"
     inkscape:window-width="719"
     inkscape:window-height="494"
     id="namedview5"
     showgrid="false"
     fit-margin-top="0"
     fit-margin-left="0"
     fit-margin-right="0"
     fit-margin-bottom="0"
     inkscape:zoom="2.36"
     inkscape:cx="-47.632521"
     inkscape:cy="26.925"
     inkscape:window-x="0"
     inkscape:window-y="0"
     inkscape:window-maximized="0"
     inkscape:current-layer="svg2" />
  <defs
     id="defs4" />
  <path
     d="m 24.4625,53.85 0,-24.4125 -24.4625,0 0,-5 24.4625,0 0,-24.4375 4.9625,0 0,24.4375 24.4625,0 0,5 -24.4625,0 0,24.4125 -4.9625,0 z M 49.275,9.225 l -0.5375,2.125 -1.4625,1.6875 -2.05,0.775 -2.2,-0.2625 -1.8125,-1.25 -1.025,-1.975 0,-2.2 1.025,-1.975 1.8125,-1.25 2.2,-0.2625 2.05,0.775 1.4625,1.6625 0.5375,2.15 z m -35.45,0 L 13.3125,11.35 11.85,13.0375 9.775,13.8125 7.6,13.55 5.7625,12.3 l -1.025,-1.975 0,-2.2 L 5.7625,6.15 7.6,4.9 9.775,4.6375 l 2.075,0.775 1.4625,1.6625 0.5125,2.15 z m 0,35.425 -0.5125,2.175 L 11.85,48.475 9.775,49.2125 7.6,48.975 5.7625,47.7 l -1.025,-1.925 0,-2.225 1.025,-1.925 1.8375,-1.25 2.175,-0.2625 2.075,0.775 1.4625,1.6125 0.5125,2.15 z m 35.45,0 -0.5375,2.175 -1.4625,1.65 -2.05,0.7375 -2.2,-0.2375 -1.8125,-1.275 -1.025,-1.925 0,-2.225 1.025,-1.925 1.8125,-1.25 2.2,-0.2625 2.05,0.775 1.4625,1.6125 0.5375,2.15 z"
     id="path2828"
     style="fill:#000000;fill-opacity:1;fill-rule:evenodd;stroke:none"
     inkscape:connector-curvature="0" />
</svg>
