<?xml version="1.0" encoding="UTF-8" standalone="no"?>
<!-- Created with Inkscape (http://www.inkscape.org/) -->

<svg
   xmlns:dc="http://purl.org/dc/elements/1.1/"
   xmlns:cc="http://creativecommons.org/ns#"
   xmlns:rdf="http://www.w3.org/1999/02/22-rdf-syntax-ns#"
   xmlns:svg="http://www.w3.org/2000/svg"
   xmlns="http://www.w3.org/2000/svg"
   xmlns:sodipodi="http://sodipodi.sourceforge.net/DTD/sodipodi-0.dtd"
   xmlns:inkscape="http://www.inkscape.org/namespaces/inkscape"
   width="460.37027"
   height="252.56425"
   id="svg2"
   sodipodi:version="0.32"
   inkscape:version="0.48.2 r9819"
   version="1.0"
   sodipodi:docname="K17.svg"
   inkscape:output_extension="org.inkscape.output.svg.inkscape"
   sodipodi:modified="true">
  <title
     id="title3000">K17: Breakers</title>
  <defs
     id="defs4" />
  <sodipodi:namedview
     id="base"
     pagecolor="#ffffff"
     bordercolor="#666666"
     borderopacity="1.0"
     inkscape:pageopacity="0.0"
     inkscape:pageshadow="2"
     inkscape:zoom="1.7312152"
     inkscape:cx="128.52244"
     inkscape:cy="126.28213"
     inkscape:document-units="px"
     inkscape:current-layer="layer1"
     inkscape:window-width="1280"
     inkscape:window-height="715"
     inkscape:window-x="0"
     inkscape:window-y="14"
     showgrid="false"
     fit-margin-top="0"
     fit-margin-left="0"
     fit-margin-right="0"
     fit-margin-bottom="0"
     inkscape:window-maximized="0" />
  <metadata
     id="metadata7">
    <rdf:RDF>
      <cc:Work
         rdf:about="">
        <dc:format>image/svg+xml</dc:format>
        <dc:type
           rdf:resource="http://purl.org/dc/dcmitype/StillImage" />
        <dc:title>K17: Breakers</dc:title>
        <cc:license
           rdf:resource="http://creativecommons.org/licenses/publicdomain/" />
      </cc:Work>
      <cc:License
         rdf:about="http://creativecommons.org/licenses/publicdomain/">
        <cc:permits
           rdf:resource="http://creativecommons.org/ns#Reproduction" />
        <cc:permits
           rdf:resource="http://creativecommons.org/ns#Distribution" />
        <cc:permits
           rdf:resource="http://creativecommons.org/ns#DerivativeWorks" />
      </cc:License>
    </rdf:RDF>
  </metadata>
  <g
     inkscape:label="Camada 1"
     inkscape:groupmode="layer"
     id="layer1"
     transform="translate(-154.68637,-217.20329)">
    <g
       id="g4150"
       transform="matrix(1,0,0,-1,0,686.97084)">
      <path
         transform="translate(-9.3451229,-11.312517)"
         d="m 406.75877,242.53349 c 0,7.74176 -6.49614,14.01769 -14.50953,14.01769 -8.0134,0 -14.50954,-6.27593 -14.50954,-14.01769 0,-7.74175 6.49614,-14.01768 14.50954,-14.01768 8.01339,0 14.50953,6.27593 14.50953,14.01768 z"
         sodipodi:ry="14.017684"
         sodipodi:rx="14.509533"
         sodipodi:cy="242.53349"
         sodipodi:cx="392.24924"
         id="path4116"
         style="fill:#000000;fill-opacity:1;stroke:none"
         sodipodi:type="arc" />
      <path
         transform="translate(-223.05333,212.72452)"
         d="m 406.75877,242.53349 c 0,7.74176 -6.49614,14.01769 -14.50953,14.01769 -8.0134,0 -14.50954,-6.27593 -14.50954,-14.01769 0,-7.74175 6.49614,-14.01768 14.50954,-14.01768 8.01339,0 14.50953,6.27593 14.50953,14.01768 z"
         sodipodi:ry="14.017684"
         sodipodi:rx="14.509533"
         sodipodi:cy="242.53349"
         sodipodi:cx="392.24924"
         id="path4118"
         style="fill:#000000;fill-opacity:1;stroke:none"
         sodipodi:type="arc" />
      <path
         transform="translate(-212.23266,138.45538)"
         d="m 406.75877,242.53349 c 0,7.74176 -6.49614,14.01769 -14.50953,14.01769 -8.0134,0 -14.50954,-6.27593 -14.50954,-14.01769 0,-7.74175 6.49614,-14.01768 14.50954,-14.01768 8.01339,0 14.50953,6.27593 14.50953,14.01768 z"
         sodipodi:ry="14.017684"
         sodipodi:rx="14.509533"
         sodipodi:cy="242.53349"
         sodipodi:cx="392.24924"
         id="path4120"
         style="fill:#000000;fill-opacity:1;stroke:none"
         sodipodi:type="arc" />
      <path
         transform="translate(-166.49074,59.267761)"
         d="m 406.75877,242.53349 c 0,7.74176 -6.49614,14.01769 -14.50953,14.01769 -8.0134,0 -14.50954,-6.27593 -14.50954,-14.01769 0,-7.74175 6.49614,-14.01768 14.50954,-14.01768 8.01339,0 14.50953,6.27593 14.50953,14.01768 z"
         sodipodi:ry="14.017684"
         sodipodi:rx="14.509533"
         sodipodi:cy="242.53349"
         sodipodi:cx="392.24924"
         id="path4122"
         style="fill:#000000;fill-opacity:1;stroke:none"
         sodipodi:type="arc" />
      <path
         transform="translate(-94.680848,6.6399634)"
         d="m 406.75877,242.53349 c 0,7.74176 -6.49614,14.01769 -14.50953,14.01769 -8.0134,0 -14.50954,-6.27593 -14.50954,-14.01769 0,-7.74175 6.49614,-14.01768 14.50954,-14.01768 8.01339,0 14.50953,6.27593 14.50953,14.01768 z"
         sodipodi:ry="14.017684"
         sodipodi:rx="14.509533"
         sodipodi:cy="242.53349"
         sodipodi:cx="392.24924"
         id="path4124"
         style="fill:#000000;fill-opacity:1;stroke:none"
         sodipodi:type="arc" />
      <path
         transform="translate(208.29788,213.21637)"
         d="m 406.75877,242.53349 c 0,7.74176 -6.49614,14.01769 -14.50953,14.01769 -8.0134,0 -14.50954,-6.27593 -14.50954,-14.01769 0,-7.74175 6.49614,-14.01768 14.50954,-14.01768 8.01339,0 14.50953,6.27593 14.50953,14.01768 z"
         sodipodi:ry="14.017684"
         sodipodi:rx="14.509533"
         sodipodi:cy="242.53349"
         sodipodi:cx="392.24924"
         id="path4126"
         style="fill:#000000;fill-opacity:1;stroke:none"
         sodipodi:type="arc" />
      <path
         transform="translate(196.00166,138.45538)"
         d="m 406.75877,242.53349 c 0,7.74176 -6.49614,14.01769 -14.50953,14.01769 -8.0134,0 -14.50954,-6.27593 -14.50954,-14.01769 0,-7.74175 6.49614,-14.01768 14.50954,-14.01768 8.01339,0 14.50953,6.27593 14.50953,14.01768 z"
         sodipodi:ry="14.017684"
         sodipodi:rx="14.509533"
         sodipodi:cy="242.53349"
         sodipodi:cx="392.24924"
         id="path4128"
         style="fill:#000000;fill-opacity:1;stroke:none"
         sodipodi:type="arc" />
      <path
         transform="translate(149.76789,59.267761)"
         d="m 406.75877,242.53349 c 0,7.74176 -6.49614,14.01769 -14.50953,14.01769 -8.0134,0 -14.50954,-6.27593 -14.50954,-14.01769 0,-7.74175 6.49614,-14.01768 14.50954,-14.01768 8.01339,0 14.50953,6.27593 14.50953,14.01768 z"
         sodipodi:ry="14.017684"
         sodipodi:rx="14.509533"
         sodipodi:cy="242.53349"
         sodipodi:cx="392.24924"
         id="path4130"
         style="fill:#000000;fill-opacity:1;stroke:none"
         sodipodi:type="arc" />
      <path
         transform="translate(80.417245,6.1481148)"
         d="m 406.75877,242.53349 c 0,7.74176 -6.49614,14.01769 -14.50953,14.01769 -8.0134,0 -14.50954,-6.27593 -14.50954,-14.01769 0,-7.74175 6.49614,-14.01768 14.50954,-14.01768 8.01339,0 14.50953,6.27593 14.50953,14.01768 z"
         sodipodi:ry="14.017684"
         sodipodi:rx="14.509533"
         sodipodi:cy="242.53349"
         sodipodi:cx="392.24924"
         id="path4132"
         style="fill:#000000;fill-opacity:1;stroke:none"
         sodipodi:type="arc" />
      <path
         transform="translate(44.512299,-6.6399482)"
         d="m 406.75877,242.53349 c 0,7.74176 -6.49614,14.01769 -14.50953,14.01769 -8.0134,0 -14.50954,-6.27593 -14.50954,-14.01769 0,-7.74175 6.49614,-14.01768 14.50954,-14.01768 8.01339,0 14.50953,6.27593 14.50953,14.01768 z"
         sodipodi:ry="14.017684"
         sodipodi:rx="14.509533"
         sodipodi:cy="242.53349"
         sodipodi:cx="392.24924"
         id="path4134"
         style="fill:#000000;fill-opacity:1;stroke:none"
         sodipodi:type="arc" />
      <path
         transform="translate(117.30589,28.281301)"
         d="m 406.75877,242.53349 c 0,7.74176 -6.49614,14.01769 -14.50953,14.01769 -8.0134,0 -14.50954,-6.27593 -14.50954,-14.01769 0,-7.74175 6.49614,-14.01768 14.50954,-14.01768 8.01339,0 14.50953,6.27593 14.50953,14.01768 z"
         sodipodi:ry="14.017684"
         sodipodi:rx="14.509533"
         sodipodi:cy="242.53349"
         sodipodi:cx="392.24924"
         id="path4136"
         style="fill:#000000;fill-opacity:1;stroke:none"
         sodipodi:type="arc" />
      <path
         transform="translate(175.83587,93.205312)"
         d="m 406.75877,242.53349 c 0,7.74176 -6.49614,14.01769 -14.50953,14.01769 -8.0134,0 -14.50954,-6.27593 -14.50954,-14.01769 0,-7.74175 6.49614,-14.01768 14.50954,-14.01768 8.01339,0 14.50953,6.27593 14.50953,14.01768 z"
         sodipodi:ry="14.017684"
         sodipodi:rx="14.509533"
         sodipodi:cy="242.53349"
         sodipodi:cx="392.24924"
         id="path4138"
         style="fill:#000000;fill-opacity:1;stroke:none"
         sodipodi:type="arc" />
      <path
         transform="translate(204.85494,175.83587)"
         d="m 406.75877,242.53349 c 0,7.74176 -6.49614,14.01769 -14.50953,14.01769 -8.0134,0 -14.50954,-6.27593 -14.50954,-14.01769 0,-7.74175 6.49614,-14.01768 14.50954,-14.01768 8.01339,0 14.50953,6.27593 14.50953,14.01768 z"
         sodipodi:ry="14.017684"
         sodipodi:rx="14.509533"
         sodipodi:cy="242.53349"
         sodipodi:cx="392.24924"
         id="path4140"
         style="fill:#000000;fill-opacity:1;stroke:none"
         sodipodi:type="arc" />
      <path
         transform="translate(-52.38187,-8.6073425)"
         d="m 406.75877,242.53349 c 0,7.74176 -6.49614,14.01769 -14.50953,14.01769 -8.0134,0 -14.50954,-6.27593 -14.50954,-14.01769 0,-7.74175 6.49614,-14.01768 14.50954,-14.01768 8.01339,0 14.50953,6.27593 14.50953,14.01768 z"
         sodipodi:ry="14.017684"
         sodipodi:rx="14.509533"
         sodipodi:cy="242.53349"
         sodipodi:cx="392.24924"
         id="path4142"
         style="fill:#000000;fill-opacity:1;stroke:none"
         sodipodi:type="arc" />
      <path
         transform="translate(-130.58579,26.805755)"
         d="m 406.75877,242.53349 c 0,7.74176 -6.49614,14.01769 -14.50953,14.01769 -8.0134,0 -14.50954,-6.27593 -14.50954,-14.01769 0,-7.74175 6.49614,-14.01768 14.50954,-14.01768 8.01339,0 14.50953,6.27593 14.50953,14.01768 z"
         sodipodi:ry="14.017684"
         sodipodi:rx="14.509533"
         sodipodi:cy="242.53349"
         sodipodi:cx="392.24924"
         id="path4144"
         style="fill:#000000;fill-opacity:1;stroke:none"
         sodipodi:type="arc" />
      <path
         transform="translate(-192.06687,94.680859)"
         d="m 406.75877,242.53349 c 0,7.74176 -6.49614,14.01769 -14.50953,14.01769 -8.0134,0 -14.50954,-6.27593 -14.50954,-14.01769 0,-7.74175 6.49614,-14.01768 14.50954,-14.01768 8.01339,0 14.50953,6.27593 14.50953,14.01768 z"
         sodipodi:ry="14.017684"
         sodipodi:rx="14.509533"
         sodipodi:cy="242.53349"
         sodipodi:cx="392.24924"
         id="path4146"
         style="fill:#000000;fill-opacity:1;stroke:none"
         sodipodi:type="arc" />
      <path
         transform="translate(-221.08593,175.83587)"
         d="m 406.75877,242.53349 c 0,7.74176 -6.49614,14.01769 -14.50953,14.01769 -8.0134,0 -14.50954,-6.27593 -14.50954,-14.01769 0,-7.74175 6.49614,-14.01768 14.50954,-14.01768 8.01339,0 14.50953,6.27593 14.50953,14.01768 z"
         sodipodi:ry="14.017684"
         sodipodi:rx="14.509533"
         sodipodi:cy="242.53349"
         sodipodi:cx="392.24924"
         id="path4148"
         style="fill:#000000;fill-opacity:1;stroke:none"
         sodipodi:type="arc" />
    </g>
  </g>
</svg>
