<?xml version="1.0" encoding="UTF-8" standalone="no"?>
<!-- Created with Inkscape (http://www.inkscape.org/) -->

<svg
   xmlns:dc="http://purl.org/dc/elements/1.1/"
   xmlns:cc="http://creativecommons.org/ns#"
   xmlns:rdf="http://www.w3.org/1999/02/22-rdf-syntax-ns#"
   xmlns:svg="http://www.w3.org/2000/svg"
   xmlns="http://www.w3.org/2000/svg"
   xmlns:sodipodi="http://sodipodi.sourceforge.net/DTD/sodipodi-0.dtd"
   xmlns:inkscape="http://www.inkscape.org/namespaces/inkscape"
   version="1.0"
   width="124.00011"
   height="88.000015"
   id="svg3425"
   inkscape:version="0.48.2 r9819"
   sodipodi:docname="K28.svg">
  <title
     id="title2984">K28: Wreck considered to be potentially dangerous</title>
  <metadata
     id="metadata9">
    <rdf:RDF>
      <cc:Work
         rdf:about="">
        <dc:format>image/svg+xml</dc:format>
        <dc:type
           rdf:resource="http://purl.org/dc/dcmitype/StillImage" />
        <dc:title>K28: Wreck considered to be potentially dangerous</dc:title>
        <cc:license
           rdf:resource="http://creativecommons.org/licenses/publicdomain/" />
      </cc:Work>
      <cc:License
         rdf:about="http://creativecommons.org/licenses/publicdomain/">
        <cc:permits
           rdf:resource="http://creativecommons.org/ns#Reproduction" />
        <cc:permits
           rdf:resource="http://creativecommons.org/ns#Distribution" />
        <cc:permits
           rdf:resource="http://creativecommons.org/ns#DerivativeWorks" />
      </cc:License>
    </rdf:RDF>
  </metadata>
  <sodipodi:namedview
     pagecolor="#ffffff"
     bordercolor="#666666"
     borderopacity="1"
     objecttolerance="10"
     gridtolerance="10"
     guidetolerance="10"
     inkscape:pageopacity="0"
     inkscape:pageshadow="2"
     inkscape:window-width="719"
     inkscape:window-height="494"
     id="namedview7"
     showgrid="false"
     fit-margin-top="0"
     fit-margin-left="0"
     fit-margin-right="0"
     fit-margin-bottom="0"
     inkscape:zoom="1.6857143"
     inkscape:cx="-42.406744"
     inkscape:cy="44.000001"
     inkscape:window-x="372"
     inkscape:window-y="33"
     inkscape:window-maximized="0"
     inkscape:current-layer="svg3425" />
  <defs
     id="defs3427" />
  <path
     d="m 121.00004,44.000013 c 0,22.64367 -26.415205,41 -59.000005,41 -32.5848,0 -58.9999996,-18.35633 -58.9999996,-41 0,-22.64367 26.4151996,-40.9999995 58.9999996,-40.9999995 32.5848,0 59.000005,18.3563295 59.000005,40.9999995 z"
     id="path2621"
     style="fill:#81c3e2"
     inkscape:connector-curvature="0" />
  <path
     d="m 59.937535,0.87501346 c -0.489312,0.49182104 -0.881129,1.46069704 -0.875,2.15625004 0.0061,0.695553 0.416959,1.645417 0.90625,2.125 0.489291,0.479583 1.410435,0.846323 2.09375,0.84375 0.683315,-0.0026 1.635688,-0.383179 2.125,-0.875 0.489312,-0.491821 0.881129,-1.460697 0.875,-2.15625 -0.0061,-0.695553 -0.416959,-1.645417 -0.90625,-2.12500004 C 63.666994,0.36418046 62.74585,-0.00255954 62.062535,1.345541e-5 61.37922,0.00261346 60.426847,0.38319246 59.937535,0.87501346 z m -19.625,2.34375004 c -0.485715,0.491829 -0.879323,1.433773 -0.875,2.125 0.0043,0.691227 0.416959,1.645417 0.90625,2.125 0.489291,0.479583 1.410435,0.846323 2.09375,0.84375 0.683315,-0.0026 1.635688,-0.383179 2.125,-0.875 0.489312,-0.491821 0.881129,-1.460697 0.875,-2.15625 -0.0061,-0.695553 -0.416959,-1.645417 -0.90625,-2.125 -0.489291,-0.479583 -1.408653,-0.850614 -2.09375,-0.84375 -0.685097,0.0069 -1.639285,0.414421 -2.125,0.90625 z m 39.21875,0 c -0.489312,0.491821 -0.881129,1.460697 -0.875,2.15625 0.0061,0.695553 0.416959,1.645417 0.90625,2.125 0.489291,0.479583 1.406092,0.844581 2.09375,0.84375 0.687658,-8.31e-4 1.66693,-0.379521 2.15625,-0.875 0.48932,-0.495479 0.849846,-1.464244 0.84375,-2.15625 -0.0061,-0.692006 -0.38568,-1.641825 -0.875,-2.125 -0.48932,-0.483175 -1.437342,-0.848096 -2.125,-0.84375 -0.687658,0.0043 -1.635688,0.383179 -2.125,0.875 z m -57.5625,7.2499995 c -0.4875,0.4875 -0.879323,1.433773 -0.875,2.125 0.0043,0.691227 0.418769,1.641048 0.90625,2.125 0.487481,0.483952 1.406843,0.877495 2.09375,0.875 0.686907,-0.0025 1.639285,-0.414421 2.125,-0.90625 0.485715,-0.491829 0.879323,-1.433773 0.875,-2.125 -0.0043,-0.691227 -0.416959,-1.645417 -0.90625,-2.125 -0.489291,-0.4795825 -1.410435,-0.8463225 -2.09375,-0.8437495 -0.683315,0.0026 -1.6375,0.3875 -2.125,0.8749995 z m 75.90625,0.0625 c -0.4875,0.4875 -0.87932,1.433773 -0.875,2.125 0.004,0.691227 0.41877,1.641048 0.90625,2.125 0.48748,0.483952 1.40684,0.877495 2.093755,0.875 0.68691,-0.0025 1.63929,-0.414421 2.125,-0.90625 0.48571,-0.491829 0.87932,-1.433773 0.875,-2.125 -0.004,-0.691227 -0.41696,-1.645417 -0.90625,-2.125 -0.48929,-0.479583 -1.41044,-0.8463225 -2.09375,-0.8437495 -0.683315,0.0026 -1.637505,0.3874995 -2.125005,0.8749995 z M 7.1875354,23.437513 c -0.485715,0.491829 -0.879323,1.433773 -0.875,2.125 0.0043,0.691227 0.416959,1.645417 0.90625,2.125 0.489291,0.479583 1.410435,0.846323 2.09375,0.84375 0.683315,-0.0026 1.6374996,-0.3875 2.1249996,-0.875 0.4875,-0.4875 0.879323,-1.433773 0.875,-2.125 -0.0043,-0.691227 -0.418769,-1.641048 -0.90625,-2.125 -0.487481,-0.483952 -1.4068426,-0.877495 -2.0937496,-0.875 -0.686907,0.0025 -1.639285,0.414421 -2.125,0.90625 z m 105.4375046,0.09375 c -0.48571,0.491829 -0.87932,1.433773 -0.875,2.125 0.004,0.691227 0.41696,1.645417 0.90625,2.125 0.48929,0.479583 1.41044,0.846323 2.09375,0.84375 0.68331,-0.0026 1.6375,-0.3875 2.125,-0.875 0.4875,-0.4875 0.87932,-1.433773 0.875,-2.125 -0.004,-0.691227 -0.41877,-1.641048 -0.90625,-2.125 -0.48748,-0.483952 -1.40684,-0.877495 -2.09375,-0.875 -0.68691,0.0025 -1.63929,0.414421 -2.125,0.90625 z M 0.87503543,41.843763 c -0.4875,0.4875 -0.8793232,1.433773 -0.874999996276,2.125 C 0.00435543,44.65999 0.41880463,45.609811 0.90628543,46.093763 c 0.48748077,0.483952 1.40684297,0.877495 2.09374997,0.875 0.686907,-0.0025 1.639285,-0.414421 2.125,-0.90625 0.485715,-0.491829 0.879323,-1.433773 0.875,-2.125 -0.0043,-0.691227 -0.416959,-1.645417 -0.90625,-2.125 -0.489291,-0.479583 -1.410435,-0.846323 -2.09375,-0.84375 -0.683315,0.0026 -1.6375,0.3875 -2.12499997,0.875 z M 118.87504,41.875013 c -0.48931,0.491821 -0.88113,1.460697 -0.875,2.15625 0.006,0.695553 0.41696,1.645417 0.90625,2.125 0.48929,0.479583 1.41044,0.846323 2.09375,0.84375 0.68331,-0.0026 1.63569,-0.383179 2.125,-0.875 0.48931,-0.491821 0.88113,-1.460697 0.875,-2.15625 -0.006,-0.695553 -0.41696,-1.645417 -0.90625,-2.125 -0.48929,-0.479583 -1.41044,-0.846323 -2.09375,-0.84375 -0.68331,0.0026 -1.63569,0.383179 -2.125,0.875 z M 7.1562854,60.281263 c -0.4875,0.4875 -0.879323,1.433773 -0.875,2.125 0.0043,0.691227 0.418769,1.641048 0.90625,2.125 0.487481,0.483952 1.406843,0.877495 2.09375,0.875 0.686907,-0.0025 1.6392846,-0.414421 2.1249996,-0.90625 0.485715,-0.491829 0.879323,-1.433773 0.875,-2.125 -0.0043,-0.691227 -0.416959,-1.645417 -0.90625,-2.125 -0.489291,-0.479583 -1.4104346,-0.846323 -2.0937496,-0.84375 -0.683315,0.0026 -1.6375,0.3875 -2.125,0.875 z m 105.4062546,0.03125 c -0.48748,0.491163 -0.8481,1.437342 -0.84375,2.125 0.004,0.687658 0.3875,1.6375 0.875,2.125 0.4875,0.4875 1.43377,0.879323 2.125,0.875 0.69123,-0.0043 1.63929,-0.414421 2.125,-0.90625 0.48571,-0.491829 0.87932,-1.433773 0.875,-2.125 -0.004,-0.691227 -0.41696,-1.645417 -0.90625,-2.125 -0.48929,-0.479583 -1.40609,-0.844581 -2.09375,-0.84375 -0.68766,8.31e-4 -1.66877,0.383837 -2.15625,0.875 z m -90.656255,12.9375 c -0.489312,0.491821 -0.881129,1.4607 -0.875,2.15625 0.0061,0.69555 0.416959,1.64542 0.90625,2.125 0.489291,0.47958 1.410435,0.84632 2.09375,0.84375 0.683315,-0.003 1.635688,-0.38318 2.125,-0.875 0.489312,-0.49182 0.881129,-1.4607 0.875,-2.15625 -0.0061,-0.69555 -0.416959,-1.645417 -0.90625,-2.125 -0.489291,-0.479583 -1.410435,-0.846323 -2.09375,-0.84375 -0.683315,0.0026 -1.635688,0.383179 -2.125,0.875 z m 75.90625,0.03125 c -0.4875,0.4875 -0.87932,1.43377 -0.875,2.125 0.004,0.69123 0.41877,1.64105 0.90625,2.125 0.48748,0.48395 1.40684,0.8775 2.09375,0.875 0.686915,-0.002 1.639295,-0.41442 2.125005,-0.90625 0.48571,-0.49183 0.87932,-1.43377 0.875,-2.125 -0.004,-0.69123 -0.41696,-1.645417 -0.90625,-2.125 -0.48929,-0.479583 -1.41044,-0.846323 -2.093755,-0.84375 -0.68331,0.0026 -1.6375,0.3875 -2.125,0.875 z m -57.5625,7.28125 c -0.485715,0.49183 -0.879323,1.43377 -0.875,2.125 0.0043,0.69123 0.416959,1.64542 0.90625,2.125 0.489291,0.47958 1.410435,0.84632 2.09375,0.84375 0.683315,-0.003 1.6375,-0.3875 2.125,-0.875 0.4875,-0.4875 0.879323,-1.43377 0.875,-2.125 -0.0043,-0.69123 -0.418769,-1.64105 -0.90625,-2.125 -0.487481,-0.48395 -1.406843,-0.8775 -2.09375,-0.875 -0.686907,0.002 -1.639285,0.41442 -2.125,0.90625 z m 39.21875,0 c -0.4875,0.4875 -0.879323,1.43377 -0.875,2.125 0.0043,0.69123 0.418769,1.64105 0.90625,2.125 0.487481,0.48395 1.406843,0.8775 2.09375,0.875 0.686907,-0.002 1.639285,-0.41442 2.125,-0.90625 0.485715,-0.49183 0.879323,-1.43377 0.875,-2.125 -0.0043,-0.69123 -0.416959,-1.64542 -0.90625,-2.125 -0.489291,-0.47958 -1.410435,-0.84632 -2.09375,-0.84375 -0.683315,0.003 -1.6375,0.3875 -2.125,0.875 z m -19.625,2.3125 c -0.489312,0.49182 -0.881129,1.4607 -0.875,2.15625 0.0061,0.69555 0.416959,1.64542 0.90625,2.125 0.489291,0.47958 1.406092,0.84458 2.09375,0.84375 0.687658,-8.3e-4 1.66693,-0.37952 2.15625,-0.875 0.48932,-0.49548 0.854202,-1.46248 0.84375,-2.15625 -0.01045,-0.69377 -0.416959,-1.64542 -0.90625,-2.125 -0.489291,-0.47958 -1.410435,-0.84632 -2.09375,-0.84375 -0.683315,0.003 -1.635688,0.38318 -2.125,0.875 z"
     id="path2604"
     style="fill:#000000;fill-opacity:1;stroke:none"
     inkscape:connector-curvature="0" />
  <path
     d="m 62.000035,14.000013 0,60 m -50,-30 100.000005,0 m -20.000005,-20 0,40 m -60,-40 0,40"
     id="path3393"
     style="fill:none;stroke:#000000;stroke-width:6px;stroke-linecap:round;stroke-linejoin:round"
     inkscape:connector-curvature="0" />
</svg>
