<?xml version="1.0" encoding="UTF-8" standalone="no"?>
<!-- Created with Inkscape (http://www.inkscape.org/) -->

<svg
   xmlns:dc="http://purl.org/dc/elements/1.1/"
   xmlns:cc="http://creativecommons.org/ns#"
   xmlns:rdf="http://www.w3.org/1999/02/22-rdf-syntax-ns#"
   xmlns:svg="http://www.w3.org/2000/svg"
   xmlns="http://www.w3.org/2000/svg"
   xmlns:sodipodi="http://sodipodi.sourceforge.net/DTD/sodipodi-0.dtd"
   xmlns:inkscape="http://www.inkscape.org/namespaces/inkscape"
   version="1.0"
   width="88.000053"
   height="88.000015"
   id="svg3425"
   inkscape:version="0.48.2 r9819"
   sodipodi:docname="K40.svg">
  <title
     id="title2982">K40: Obstruction</title>
  <metadata
     id="metadata11864">
    <rdf:RDF>
      <cc:Work
         rdf:about="">
        <dc:format>image/svg+xml</dc:format>
        <dc:type
           rdf:resource="http://purl.org/dc/dcmitype/StillImage" />
        <dc:title>K40: Obstruction</dc:title>
        <cc:license
           rdf:resource="http://creativecommons.org/licenses/publicdomain/" />
      </cc:Work>
      <cc:License
         rdf:about="http://creativecommons.org/licenses/publicdomain/">
        <cc:permits
           rdf:resource="http://creativecommons.org/ns#Reproduction" />
        <cc:permits
           rdf:resource="http://creativecommons.org/ns#Distribution" />
        <cc:permits
           rdf:resource="http://creativecommons.org/ns#DerivativeWorks" />
      </cc:License>
    </rdf:RDF>
  </metadata>
  <sodipodi:namedview
     pagecolor="#ffffff"
     bordercolor="#666666"
     borderopacity="1"
     objecttolerance="10"
     gridtolerance="10"
     guidetolerance="10"
     inkscape:pageopacity="0"
     inkscape:pageshadow="2"
     inkscape:window-width="719"
     inkscape:window-height="494"
     id="namedview11862"
     showgrid="false"
     inkscape:zoom="1.8428571"
     inkscape:cx="-51.503843"
     inkscape:cy="44.000013"
     inkscape:window-x="0"
     inkscape:window-y="0"
     inkscape:window-maximized="0"
     inkscape:current-layer="svg3425"
     fit-margin-top="0"
     fit-margin-left="0"
     fit-margin-right="0"
     fit-margin-bottom="0" />
  <defs
     id="defs3427" />
  <path
     d="m 41.843785,0.87500142 c -0.48932,0.49547898 -0.849846,1.46424398 -0.84375,2.15624998 0.0061,0.692006 0.38568,1.641825 0.875,2.125 0.48932,0.483175 1.437342,0.848096 2.125,0.84375 0.687658,-0.0043 1.639989,-0.381367 2.125,-0.875 0.485011,-0.493633 0.849846,-1.464244 0.84375,-2.15625 -0.0061,-0.692006 -0.390004,-1.643643 -0.875,-2.12499998 C 45.608789,0.36239442 44.687693,-8.2957699e-4 44.000035,1.4230101e-6 43.312377,8.3242301e-4 42.333105,0.37952242 41.843785,0.87500142 z m -15.6875,3.12499998 c -0.489312,0.491821 -0.881129,1.460697 -0.875,2.15625 0.0061,0.695553 0.416959,1.645417 0.90625,2.125 0.489291,0.479583 1.406092,0.844581 2.09375,0.84375 0.687658,-8.31e-4 1.66693,-0.379521 2.15625,-0.875 0.48932,-0.495479 0.849846,-1.464244 0.84375,-2.15625 -0.0061,-0.692006 -0.38568,-1.641825 -0.875,-2.125 -0.48932,-0.483175 -1.437342,-0.848096 -2.125,-0.84375 -0.687658,0.0043 -1.635688,0.383179 -2.125,0.875 z m 31.375,0 c -0.487481,0.491163 -0.852419,1.435571 -0.84375,2.125 0.0087,0.689429 0.418769,1.641048 0.90625,2.125 0.487481,0.483952 1.406843,0.877495 2.09375,0.875 0.686907,-0.0025 1.639285,-0.414421 2.125,-0.90625 0.485715,-0.491829 0.879323,-1.433773 0.875,-2.125 -0.0043,-0.691227 -0.416959,-1.645417 -0.90625,-2.125 -0.489291,-0.479583 -1.406092,-0.844581 -2.09375,-0.84375 -0.687658,8.31e-4 -1.668769,0.383837 -2.15625,0.875 z m 13.3125,8.8749996 c -0.489312,0.491821 -0.881129,1.460697 -0.875,2.15625 0.0061,0.695553 0.416959,1.645417 0.90625,2.125 0.489291,0.479583 1.408653,0.850614 2.09375,0.84375 0.685097,-0.0069 1.63929,-0.414421 2.125,-0.90625 0.48571,-0.491829 0.87932,-1.433773 0.875,-2.125 -0.004,-0.691227 -0.41696,-1.645417 -0.90625,-2.125 -0.48929,-0.479583 -1.410435,-0.846323 -2.09375,-0.84375 -0.683315,0.0026 -1.635688,0.383179 -2.125,0.875 z m -57.96875,0.03125 c -0.4875,0.4875 -0.879323,1.433773 -0.875,2.125 0.0043,0.691227 0.418769,1.641048 0.90625,2.125 0.487481,0.483952 1.406843,0.877495 2.09375,0.875 0.686907,-0.0025 1.639285,-0.414421 2.125,-0.90625 0.485715,-0.491829 0.879323,-1.433773 0.875,-2.125 -0.0043,-0.691227 -0.416959,-1.645417 -0.90625,-2.125 -0.489291,-0.479583 -1.410435,-0.846323 -2.09375,-0.84375 -0.683315,0.0026 -1.6375,0.3875 -2.125,0.875 z m 66.875,13.28125 c -0.48571,0.491829 -0.87932,1.433773 -0.875,2.125 0.004,0.691227 0.41696,1.645417 0.90625,2.125 0.48929,0.479583 1.41044,0.846323 2.09375,0.84375 0.68331,-0.0026 1.6375,-0.3875 2.125,-0.875 0.4875,-0.4875 0.87932,-1.433773 0.875,-2.125 -0.004,-0.691227 -0.41877,-1.641048 -0.90625,-2.125 -0.48748,-0.483952 -1.40684,-0.877495 -2.09375,-0.875 -0.68691,0.0025 -1.63929,0.414421 -2.125,0.90625 z m -75.7812497,0.03125 c -0.485684,0.495449 -0.848096,1.437342 -0.84375,2.125 0.0043,0.687658 0.38568,1.641825 0.875,2.125 0.48932,0.483175 1.437342,0.848096 2.125,0.84375 0.687658,-0.0043 1.635688,-0.383179 2.125,-0.875 0.489312,-0.491821 0.882948,-1.465023 0.875,-2.15625 -0.0079,-0.691227 -0.420535,-1.614136 -0.90625,-2.09375 -0.485715,-0.479614 -1.402523,-0.875699 -2.09375,-0.875 -0.691227,6.99e-4 -1.670566,0.410801 -2.15625,0.90625 z m 78.9062497,15.65625 c -0.48571,0.491829 -0.80719,1.78224 -0.875,2.125 -0.0678,0.34276 -0.0704,-0.308446 0,0.03125 0.0704,0.339696 0.83589,1.754054 0.90625,2.09375 0.0704,0.339696 -0.19209,-0.253266 0,0.03125 0.19209,0.284516 1.41044,0.846323 2.09375,0.84375 0.68331,-0.0026 1.93058,-0.584686 2.125,-0.875 0.19442,-0.290314 -0.0678,0.31151 0,-0.03125 0.0678,-0.34276 0.87932,-1.433773 0.875,-2.125 -0.004,-0.691227 -0.41877,-1.641048 -0.90625,-2.125 -0.48748,-0.483952 -1.40684,-0.877495 -2.09375,-0.875 -0.68691,0.0025 -1.63929,0.414421 -2.125,0.90625 z m -81.99999973,0.03125 c -0.485715,0.491829 -0.879323,1.433773 -0.874999998026,2.125 0.004299998,0.691227 0.416958998026,1.645417 0.906249998026,2.125 0.48929103,0.479583 1.41043503,0.846323 2.09375003,0.84375 0.683315,-0.0026 1.6375,-0.3875 2.125,-0.875 0.4875,-0.4875 0.879323,-1.433773 0.875,-2.125 -0.00432,-0.691227 -0.418769,-1.641048 -0.90625,-2.125 -0.487481,-0.483952 -1.406843,-0.877495 -2.09375,-0.875 -0.686907,0.0025 -1.639285,0.414421 -2.12500003,0.90625 z m 3.12500003,15.6875 c -0.485715,0.491829 -0.879323,1.433773 -0.875,2.125 0.0043,0.691227 0.416959,1.645417 0.90625,2.125 0.489291,0.479583 1.410435,0.846323 2.09375,0.84375 0.683315,-0.0026 1.6375,-0.3875 2.125,-0.875 0.4875,-0.4875 0.879323,-1.433773 0.875,-2.125 -0.0043,-0.691227 -0.418769,-1.641048 -0.90625,-2.125 -0.487481,-0.483952 -1.406843,-0.877495 -2.09375,-0.875 -0.686907,0.0025 -1.639285,0.414421 -2.125,0.90625 z m 75.7499997,-0.03125 c -0.48931,0.491821 -0.88113,1.460697 -0.875,2.15625 0.006,0.695553 0.41696,1.645417 0.90625,2.125 0.48929,0.479583 1.41044,0.846323 2.09375,0.84375 0.68331,-0.0026 1.63569,-0.383179 2.125,-0.875 0.48931,-0.491821 0.88113,-1.460697 0.875,-2.15625 -0.006,-0.695553 -0.41696,-1.645417 -0.90625,-2.125 -0.48929,-0.479583 -1.41044,-0.846323 -2.09375,-0.84375 -0.68331,0.0026 -1.63569,0.383179 -2.125,0.875 z m -66.875,13.3125 c -0.489312,0.491821 -0.881129,1.460697 -0.875,2.15625 0.0061,0.695553 0.416959,1.64542 0.90625,2.125 0.489291,0.47958 1.406092,0.84458 2.09375,0.84375 0.687658,-8.3e-4 1.66693,-0.37952 2.15625,-0.875 0.48932,-0.49548 0.849846,-1.464244 0.84375,-2.15625 -0.0061,-0.692006 -0.38568,-1.641825 -0.875,-2.125 -0.48932,-0.483175 -1.437342,-0.848096 -2.125,-0.84375 -0.687658,0.0043 -1.635688,0.383179 -2.125,0.875 z m 58,0 c -0.4875,0.4875 -0.879323,1.433773 -0.875,2.125 0.0043,0.691227 0.418769,1.64105 0.90625,2.125 0.487481,0.48395 1.406843,0.8775 2.09375,0.875 0.686907,-0.002 1.63929,-0.41442 2.125,-0.90625 0.48571,-0.49183 0.87932,-1.433773 0.875,-2.125 -0.004,-0.691227 -0.41696,-1.645417 -0.90625,-2.125 -0.48929,-0.479583 -1.410435,-0.846323 -2.09375,-0.84375 -0.683315,0.0026 -1.6375,0.3875 -2.125,0.875 z m -44.6875,8.90625 c -0.485715,0.49183 -0.879323,1.43377 -0.875,2.125 0.0043,0.69123 0.416959,1.64542 0.90625,2.125 0.489291,0.47958 1.410435,0.84632 2.09375,0.84375 0.683315,-0.003 1.6375,-0.3875 2.125,-0.875 0.4875,-0.4875 0.879323,-1.43377 0.875,-2.125 -0.0043,-0.69123 -0.418769,-1.64105 -0.90625,-2.125 -0.487481,-0.48395 -1.406843,-0.8775 -2.09375,-0.875 -0.686907,0.002 -1.639285,0.41442 -2.125,0.90625 z m 31.375,0 c -0.485715,0.49183 -0.879323,1.43377 -0.875,2.125 0.0043,0.69123 0.416959,1.64542 0.90625,2.125 0.489291,0.47958 1.410435,0.84632 2.09375,0.84375 0.683315,-0.003 1.635688,-0.38318 2.125,-0.875 0.489312,-0.49182 0.882948,-1.46502 0.875,-2.15625 -0.0079,-0.69123 -0.420535,-1.61414 -0.90625,-2.09375 -0.485715,-0.47961 -1.406843,-0.8775 -2.09375,-0.875 -0.686907,0.002 -1.639285,0.41442 -2.125,0.90625 z m -15.6875,3.09375 c -0.489312,0.49182 -0.881129,1.4607 -0.875,2.15625 0.0061,0.69555 0.416959,1.64542 0.90625,2.125 0.489291,0.47958 1.410435,0.84632 2.09375,0.84375 0.683315,-0.003 1.635688,-0.38318 2.125,-0.875 0.489312,-0.49182 0.881129,-1.4607 0.875,-2.15625 -0.0061,-0.69555 -0.416959,-1.64542 -0.90625,-2.125 -0.489291,-0.47958 -1.410435,-0.84632 -2.09375,-0.84375 -0.683315,0.003 -1.635688,0.38318 -2.125,0.875 z"
     id="path2381"
     style="fill:#000000;fill-opacity:1;fill-rule:evenodd;stroke:none"
     inkscape:connector-curvature="0" />
</svg>
