<?xml version="1.0" encoding="UTF-8" standalone="no"?>
<!-- Created with Inkscape (http://www.inkscape.org/) -->

<svg
   xmlns:dc="http://purl.org/dc/elements/1.1/"
   xmlns:cc="http://creativecommons.org/ns#"
   xmlns:rdf="http://www.w3.org/1999/02/22-rdf-syntax-ns#"
   xmlns:svg="http://www.w3.org/2000/svg"
   xmlns="http://www.w3.org/2000/svg"
   xmlns:sodipodi="http://sodipodi.sourceforge.net/DTD/sodipodi-0.dtd"
   xmlns:inkscape="http://www.inkscape.org/namespaces/inkscape"
   version="1.0"
   width="140"
   height="140"
   id="svg2"
   inkscape:version="0.48.2 r9819"
   sodipodi:docname="K48.1_no_red.svg">
  <title
     id="title2983">K48.1: Marine Farms (Norwegian Version)</title>
  <metadata
     id="metadata4468">
    <rdf:RDF>
      <cc:Work
         rdf:about="">
        <dc:format>image/svg+xml</dc:format>
        <dc:type
           rdf:resource="http://purl.org/dc/dcmitype/StillImage" />
        <cc:license
           rdf:resource="http://creativecommons.org/licenses/publicdomain/" />
        <dc:title>K48.1: Marine Farms (Norwegian Version)</dc:title>
      </cc:Work>
      <cc:License
         rdf:about="http://creativecommons.org/licenses/publicdomain/">
        <cc:permits
           rdf:resource="http://creativecommons.org/ns#Reproduction" />
        <cc:permits
           rdf:resource="http://creativecommons.org/ns#Distribution" />
        <cc:permits
           rdf:resource="http://creativecommons.org/ns#DerivativeWorks" />
      </cc:License>
    </rdf:RDF>
  </metadata>
  <sodipodi:namedview
     pagecolor="#ffffff"
     bordercolor="#666666"
     borderopacity="1"
     objecttolerance="10"
     gridtolerance="10"
     guidetolerance="10"
     inkscape:pageopacity="0"
     inkscape:pageshadow="2"
     inkscape:window-width="1440"
     inkscape:window-height="808"
     id="namedview4466"
     showgrid="false"
     inkscape:zoom="1.7299075"
     inkscape:cx="-31.395738"
     inkscape:cy="63.299194"
     inkscape:window-x="0"
     inkscape:window-y="0"
     inkscape:window-maximized="1"
     inkscape:current-layer="svg2"
     fit-margin-top="0"
     fit-margin-left="0"
     fit-margin-right="0"
     fit-margin-bottom="0" />
  <defs
     id="defs4" />
  <g
     id="g3757"
     transform="translate(0.34380644,-0.34377828)">
    <path
       style="fill:#d40000;fill-opacity:1;fill-rule:evenodd;stroke:none"
       d="m 70.28125,0.71875 c -1.103628,0.001341 -2.683436,0.5887931 -3.46875,1.375 -0.785313,0.786207 -1.384783,2.3394521 -1.375,3.4375 0.0098,1.0980477 0.620936,2.6083166 1.40625,3.375 0.785313,0.7666834 2.333872,1.350647 3.4375,1.34375 C 71.384878,10.2432 72.909102,9.6270275 73.6875,8.84375 74.465898,8.0604724 75.041034,6.5355481 75.03125,5.4375 75.02145,4.339452 74.403374,2.8262981 73.625,2.0625 72.846626,1.2987009 71.384878,0.71743179 70.28125,0.71875 z m -25.25,4.96875 c -1.103628,0.0068 -2.620949,0.5945976 -3.40625,1.375 -0.7853,0.7804026 -1.416087,2.3025736 -1.40625,3.40625 0.0098,1.103676 0.683483,2.614016 1.46875,3.375 0.785267,0.760984 2.240122,1.345068 3.34375,1.34375 1.103628,-0.0013 2.683436,-0.588793 3.46875,-1.375 0.785314,-0.786207 1.353534,-2.339452 1.34375,-3.4375 C 49.83395,9.2769511 49.222813,7.7666833 48.4375,7 47.652186,6.2333166 46.134878,5.6806048 45.03125,5.6875 z m 50.40625,0 c -1.103627,0.00134 -2.686387,0.5956425 -3.46875,1.375 -0.782362,0.7793584 -1.357663,2.281041 -1.34375,3.375 0.01396,1.093959 0.686388,2.607084 1.46875,3.375 0.782362,0.767916 2.241328,1.378959 3.34375,1.375 1.102423,-0.004 2.626722,-0.657085 3.40625,-1.4375 0.779528,-0.780415 1.41319,-2.278188 1.40625,-3.375 C 100.243,9.2781873 99.597767,7.7609839 98.8125,7 98.027233,6.2390169 96.541128,5.6861818 95.4375,5.6875 z M 116.75,19.75 c -1.09665,0.0042 -2.62095,0.625848 -3.40625,1.40625 -0.78531,0.780403 -1.41609,2.302573 -1.40625,3.40625 0.01,1.103677 0.68348,2.614017 1.46875,3.375 0.78527,0.760984 2.24424,1.354642 3.34375,1.34375 1.09952,-0.01095 2.62673,-0.657085 3.40625,-1.4375 0.77952,-0.780415 1.41318,-2.278188 1.40625,-3.375 -0.006,-1.096812 -0.65223,-2.614017 -1.4375,-3.375 -0.78526,-0.760984 -2.27834,-1.347833 -3.375,-1.34375 z m -93.03125,0.0625 c -1.096657,0.0042 -2.623858,0.601455 -3.40625,1.375 -0.782393,0.773546 -1.413188,2.278188 -1.40625,3.375 0.0069,1.096813 0.686388,2.607085 1.46875,3.375 0.782362,0.767917 2.241328,1.378959 3.34375,1.375 1.102423,-0.004 2.626722,-0.657084 3.40625,-1.4375 0.779528,-0.780414 1.413188,-2.246939 1.40625,-3.34375 -0.0069,-1.096813 -0.652233,-2.614017 -1.4375,-3.375 -0.785267,-0.760984 -2.278342,-1.347833 -3.375,-1.34375 z M 131.0625,40.84375 c -1.10243,0.004 -2.62673,0.657083 -3.40625,1.4375 -0.77952,0.780414 -1.41318,2.246938 -1.40625,3.34375 0.006,1.096812 0.65224,2.614016 1.4375,3.375 0.78527,0.760985 2.27835,1.347833 3.375,1.34375 1.09665,-0.0042 2.62385,-0.601454 3.40625,-1.375 0.78239,-0.773545 1.41318,-2.278188 1.40625,-3.375 -0.006,-1.096813 -0.68639,-2.607086 -1.46875,-3.375 -0.78236,-0.767917 -2.24133,-1.378959 -3.34375,-1.375 z M 9.46875,40.875 c -1.109356,0.0011 -2.658022,0.651342 -3.4375,1.4375 -0.779479,0.78616 -1.381975,2.28385 -1.375,3.375 0.0069,1.091148 0.620936,2.608317 1.40625,3.375 0.785314,0.766684 2.302622,1.350647 3.40625,1.34375 1.103627,-0.0068 2.652199,-0.625848 3.4375,-1.40625 0.785301,-0.780403 1.387756,-2.309438 1.375,-3.40625 -0.01268,-1.096812 -0.657972,-2.551468 -1.4375,-3.3125 -0.779528,-0.761033 -2.265645,-1.407359 -3.375,-1.40625 z m 1,9.71875 -1.25,4.0625 25.125,14.59375 -24.78125,14.3125 1.25,4.0625 27.5625,-15.75 8.375,4.65625 4.71875,2.65625 5.46875,2.71875 5.71875,2.3125 5.9375,1.71875 6.09375,1.15625 6.1875,0.625 6.1875,0.09375 6.1875,-0.46875 6.125,-1.03125 6,-1.5625 5.78125,-2.125 5.53125,-2.65625 5.21875,-3.1875 4.8125,-3.65625 4.59375,-3.9375 -2.1875,-1.96875 -4.59375,-3.90625 -5,-3.46875 -5.40625,-2.875 -5.71875,-2.34375 -5.90625,-1.78125 -6.09375,-1.25 -6.15625,-0.6875 -6.21875,-0.1875 -6.21875,0.34375 -6.125,0.84375 -6.0625,1.375 -5.875,1.9375 -5.53125,2.53125 -5.3125,3.03125 -10.53125,6.125 -27.90625,-16.3125 z m 74.96875,4.25 6.1875,0.0625 -1.6875,5.65625 -1.09375,5.71875 0.15625,5.8125 1.0625,5.78125 1.59375,5.625 -6.03125,0.34375 -6.1875,-0.1875 -6.125,-0.96875 -6,-1.5 -5.8125,-2 -5.59375,-2.5 -5.46875,-2.78125 -7.75,-4.65625 7.15625,-4.09375 0.59375,-0.375 5.375,-2.9375 5.5,-2.625 5.78125,-2.0625 6.0625,-1.4375 6.09375,-0.6875 6.1875,-0.1875 z m 10.875,0.9375 1.5625,0.34375 5.96875,1.46875 5.84375,1.96875 5.53125,2.625 5.09375,3.28125 4.78125,3.71875 -1.1875,1.03125 -4.78125,3.71875 -5.25,3.09375 -5.6875,2.40625 -5.875,1.75 -6,1.4375 -1.28125,-4.03125 -1.34375,-5.6875 -0.3125,-5.8125 0.9375,-5.78125 2,-5.53125 z m 10.65625,6.4375 -1.78125,0.21875 -1.46875,0.96875 -0.8125,1.46875 0,1.65625 0.8125,1.5 1.5,0.9375 1.75,0.21875 1.65625,-0.625 1.1875,-1.25 0.40625,-1.625 -0.40625,-1.625 -1.1875,-1.25 -1.65625,-0.59375 z m 29.09375,3.5 c -1.10242,0.004 -2.62673,0.657085 -3.40625,1.4375 -0.77952,0.780415 -1.29742,2.831122 -1.40625,3.375 -0.0775,-0.245844 -0.0757,0.311701 0,0.0625 0.11299,0.539016 1.35583,2.773482 1.46875,3.3125 0.0113,0.0539 -0.002,0.03532 0,0.0625 0.30828,0.451458 2.2471,1.316583 3.34375,1.3125 1.09665,-0.0042 3.09423,-0.914341 3.40625,-1.375 0.002,-0.02619 -0.009,-0.01718 0,-0.0625 0.10882,-0.543879 1.41318,-2.278187 1.40625,-3.375 -0.006,-1.096811 -0.65514,-2.575834 -1.4375,-3.34375 -0.78236,-0.767917 -2.27257,-1.410209 -3.375,-1.40625 z m 3.40625,8.1875 c -0.0269,0.288115 0.28603,-0.422271 0,0 z m -6.75,0.0625 c -0.27746,-0.406317 0.0169,0.244581 0,0 z m -128.25,-8.1875 c -1.102423,0.004 -2.626722,0.657085 -3.40625,1.4375 -0.77952801,0.780415 -1.413188,2.278188 -1.40625,3.375 0.0069,1.096812 0.65223299,2.614016 1.4375,3.375 0.785267,0.760983 2.278342,1.316583 3.375,1.3125 1.096658,-0.0042 2.623857,-0.601453 3.40625,-1.375 0.782392,-0.773545 1.413188,-2.278187 1.40625,-3.375 -0.0069,-1.096812 -0.686388,-2.607084 -1.46875,-3.375 -0.782362,-0.767916 -2.241328,-1.378959 -3.34375,-1.375 z m 5,24.875 c -1.102423,0.004 -2.626722,0.657084 -3.40625,1.4375 -0.779528,0.780414 -1.413188,2.278189 -1.40625,3.375 0.0069,1.096813 0.683483,2.614015 1.46875,3.375 0.785267,0.760985 2.247092,1.34783 3.34375,1.34375 1.096657,-0.004 2.655107,-0.632703 3.4375,-1.40625 0.782393,-0.773547 1.381938,-2.246938 1.375,-3.34375 -0.0069,-1.096812 -0.655138,-2.607085 -1.4375,-3.375 -0.782362,-0.767917 -2.272578,-1.410208 -3.375,-1.40625 z m 121.59375,0 c -1.09665,0.0042 -2.62096,0.625848 -3.40625,1.40625 -0.7853,0.780403 -1.41609,2.302573 -1.40625,3.40625 0.01,1.103677 0.65224,2.614016 1.4375,3.375 0.78527,0.760985 2.27835,1.34784 3.375,1.34375 1.09665,-0.004 2.62095,-0.625848 3.40625,-1.40625 0.78529,-0.780401 1.41609,-2.302573 1.40625,-3.40625 -0.01,-1.103677 -0.68348,-2.614017 -1.46875,-3.375 -0.78526,-0.760983 -2.2471,-1.347833 -3.34375,-1.34375 z m -107.34375,21.125 c -1.103627,0.006 -2.620949,0.62583 -3.40625,1.40625 -0.785301,0.78039 -1.416086,2.30257 -1.40625,3.40625 0.0098,1.10367 0.683483,2.61402 1.46875,3.375 0.785267,0.76098 2.240123,1.34506 3.34375,1.34375 1.103628,-0.002 2.683437,-0.62004 3.46875,-1.40625 0.785314,-0.78621 1.353533,-2.3082 1.34375,-3.40625 -0.0098,-1.09805 -0.620936,-2.60833 -1.40625,-3.375 -0.785314,-0.76669 -2.302622,-1.35065 -3.40625,-1.34375 z m 93.09375,0 c -1.09666,0.004 -2.62386,0.63269 -3.40625,1.40625 -0.78239,0.77353 -1.41318,2.27819 -1.40625,3.375 0.007,1.09681 0.65514,2.57584 1.4375,3.34375 0.78236,0.76791 2.27258,1.41021 3.375,1.40625 1.10242,-0.004 2.62673,-0.65709 3.40625,-1.4375 0.77952,-0.78042 1.41319,-2.2782 1.40625,-3.375 -0.006,-1.09682 -0.68348,-2.61403 -1.46875,-3.375 -0.78526,-0.76099 -2.24709,-1.34783 -3.34375,-1.34375 z M 45.09375,125.875 c -1.102422,0.004 -2.626722,0.65709 -3.40625,1.4375 -0.779528,0.78042 -1.413188,2.27819 -1.40625,3.375 0.0069,1.09682 0.652233,2.61403 1.4375,3.375 0.785267,0.76097 2.278343,1.34783 3.375,1.34375 1.096658,-0.005 2.623857,-0.6327 3.40625,-1.40625 0.782393,-0.77354 1.413188,-2.27818 1.40625,-3.375 -0.0069,-1.09682 -0.686388,-2.60708 -1.46875,-3.375 -0.782363,-0.7679 -2.241327,-1.37897 -3.34375,-1.375 z m 50.34375,0 c -1.102422,0.004 -2.626722,0.65709 -3.40625,1.4375 -0.779528,0.78042 -1.413188,2.27819 -1.40625,3.375 0.0069,1.09682 0.683483,2.61403 1.46875,3.375 0.785267,0.76097 2.247093,1.34783 3.34375,1.34375 1.096658,-0.005 2.620949,-0.62585 3.40625,-1.40625 0.785301,-0.78039 1.41901,-2.30943 1.40625,-3.40625 -0.0127,-1.09681 -0.657972,-2.58271 -1.4375,-3.34375 -0.779528,-0.76102 -2.272577,-1.37897 -3.375,-1.375 z m -25.15625,4.96875 c -1.096657,0.005 -2.652199,0.59459 -3.4375,1.375 -0.785301,0.7804 -1.416086,2.30258 -1.40625,3.40625 0.0098,1.10367 0.683483,2.61401 1.46875,3.375 0.785267,0.76098 2.278343,1.34784 3.375,1.34375 1.096658,-0.005 2.620949,-0.5946 3.40625,-1.375 0.785301,-0.7804 1.416086,-2.33382 1.40625,-3.4375 -0.0098,-1.10366 -0.683483,-2.61402 -1.46875,-3.375 -0.785267,-0.76099 -2.247092,-1.31657 -3.34375,-1.3125 z"
       id="path22396"
       inkscape:connector-curvature="0" />
  </g>
</svg>
