<?xml version="1.0" encoding="UTF-8" standalone="no"?>
<!-- Created with Inkscape (http://www.inkscape.org/) -->

<svg
   xmlns:dc="http://purl.org/dc/elements/1.1/"
   xmlns:cc="http://creativecommons.org/ns#"
   xmlns:rdf="http://www.w3.org/1999/02/22-rdf-syntax-ns#"
   xmlns:svg="http://www.w3.org/2000/svg"
   xmlns="http://www.w3.org/2000/svg"
   xmlns:sodipodi="http://sodipodi.sourceforge.net/DTD/sodipodi-0.dtd"
   xmlns:inkscape="http://www.inkscape.org/namespaces/inkscape"
   version="1.0"
   width="140"
   height="140"
   id="svg2"
   inkscape:version="0.48.2 r9819"
   sodipodi:docname="K48.1_no.svg">
  <title
     id="title2984">K48.1: Marine Farms (Norwegian Version, Alternate Colours)</title>
  <metadata
     id="metadata4468">
    <rdf:RDF>
      <cc:Work
         rdf:about="">
        <dc:format>image/svg+xml</dc:format>
        <dc:type
           rdf:resource="http://purl.org/dc/dcmitype/StillImage" />
        <cc:license
           rdf:resource="http://creativecommons.org/licenses/publicdomain/" />
        <dc:title>K48.1: Marine Farms (Norwegian Version, Alternate Colours)</dc:title>
      </cc:Work>
      <cc:License
         rdf:about="http://creativecommons.org/licenses/publicdomain/">
        <cc:permits
           rdf:resource="http://creativecommons.org/ns#Reproduction" />
        <cc:permits
           rdf:resource="http://creativecommons.org/ns#Distribution" />
        <cc:permits
           rdf:resource="http://creativecommons.org/ns#DerivativeWorks" />
      </cc:License>
    </rdf:RDF>
  </metadata>
  <sodipodi:namedview
     pagecolor="#ffffff"
     bordercolor="#666666"
     borderopacity="1"
     objecttolerance="10"
     gridtolerance="10"
     guidetolerance="10"
     inkscape:pageopacity="0"
     inkscape:pageshadow="2"
     inkscape:window-width="719"
     inkscape:window-height="480"
     id="namedview4466"
     showgrid="false"
     inkscape:zoom="1.7299075"
     inkscape:cx="70"
     inkscape:cy="62.95543"
     inkscape:window-x="38"
     inkscape:window-y="14"
     inkscape:window-maximized="0"
     inkscape:current-layer="svg2" />
  <defs
     id="defs4" />
  <g
     id="g3757">
    <path
       inkscape:connector-curvature="0"
       style="fill:#a30075;fill-opacity:1;fill-rule:evenodd;stroke:none"
       id="path22396"
       d="M 10.804235,87.630112 9.5585019,83.55431 34.35297,69.237545 9.2306773,54.663468 10.476411,50.587666 38.363358,66.901163 48.897456,60.77717 l 5.310758,-3.015682 5.551164,-2.552522 5.868061,-1.914391 6.064755,-1.389478 6.13032,-0.843979 6.21774,-0.33965 6.206813,0.185264 6.163103,0.699885 6.07569,1.245383 5.92268,1.770298 5.72601,2.33638 5.39818,2.892173 4.98293,3.458255 4.61141,3.90083 2.17457,1.986439 -4.5677,3.942 -4.82995,3.633226 -5.20147,3.200945 -5.54025,2.655446 -5.78063,2.109948 -5.9992,1.585033 -6.119386,1.008658 -6.184958,0.483744 -6.206813,-0.08234 -6.184957,-0.627838 -6.097538,-1.163045 -5.944554,-1.729127 -5.715075,-2.295212 -5.452816,-2.727493 -4.731603,-2.655446 -8.381382,-4.662469 -27.559123,15.757705 z m 31.897336,-18.392567 7.747587,4.662468 5.452817,2.799541 5.594873,2.490767 5.824351,1.986439 5.999191,1.512986 6.13032,0.957197 6.163102,0.205848 6.042901,-0.33965 -1.595413,-5.629958 -1.070894,-5.774052 -0.131129,-5.825513 1.070893,-5.732882 1.704688,-5.629958 0.01093,-0.02058 -6.195886,-0.05147 -6.184958,0.174972 -6.119393,0.699885 -6.042899,1.430647 -5.791569,2.068778 -5.507453,2.634862 -5.376325,2.933341 -0.590083,0.349942 -7.135649,4.096387 m 53.610252,13.390447 5.999185,-1.430647 5.88992,-1.770297 5.66043,-2.408428 5.27798,-3.077437 4.75346,-3.715565 1.21295,-1.029243 -4.78624,-3.715567 -5.09221,-3.303868 -5.55116,-2.62457 -5.83527,-1.95556 -5.977349,-1.461525 -1.562624,-0.349943 -1.977875,5.537326 -0.961619,5.763759 0.338752,5.825514 1.344081,5.691712 1.267589,4.024339 z m 13.921615,-16.931042 -0.42618,1.626203 -1.16923,1.245384 -1.67191,0.607253 -1.75932,-0.195557 -1.47521,-0.946903 -0.81956,-1.492402 0,-1.667373 0.81956,-1.482109 1.46428,-0.967488 1.77025,-0.205848 1.67191,0.607253 1.16923,1.245383 0.42618,1.626204 z" />
    <path
       style="fill:#a30075;fill-opacity:1;fill-rule:evenodd;stroke:none"
       id="path2381"
       d="m 66.805592,2.1032386 c -0.785313,0.786207 -1.363924,2.3234056 -1.354141,3.4214535 0.0098,1.0980477 0.618981,2.6051833 1.404295,3.3718667 0.785313,0.7666834 2.306801,1.3457262 3.410429,1.3388292 1.103628,-0.0068 2.632032,-0.6051379 3.41043,-1.3884154 C 74.455003,8.063695 75.04053,6.5235674 75.030746,5.4255193 75.020946,4.3274713 74.404826,2.8174508 73.626452,2.0536527 72.848078,1.2898536 71.369803,0.71350391 70.266175,0.71482212 69.162547,0.71616359 67.590906,1.3170317 66.805592,2.1032386 z M 41.628597,7.0618662 c -0.7853,0.7804026 -1.414131,2.3177774 -1.404294,3.4214538 0.0098,1.103676 0.669181,2.610883 1.454448,3.371867 0.785267,0.760984 2.256648,1.340148 3.360276,1.33883 1.103628,-0.0013 2.675269,-0.602209 3.460583,-1.388416 0.785314,-0.786207 1.363925,-2.323405 1.354141,-3.421453 -0.0098,-1.0980489 -0.618981,-2.6051846 -1.404294,-3.3718679 -0.785314,-0.7666834 -2.306802,-1.3457252 -3.41043,-1.33883 -1.103628,0.0068 -2.625129,0.6080137 -3.41043,1.3884161 z m 50.35399,0 c -0.782362,0.7793584 -1.368054,2.2779088 -1.354141,3.3718678 0.01396,1.093959 0.672086,2.603951 1.454448,3.371867 0.782362,0.767916 2.257854,1.392375 3.360276,1.388416 1.102423,-0.004 2.630902,-0.657587 3.41043,-1.438002 0.779528,-0.780415 1.41123,-2.275055 1.40429,-3.371867 C 100.25089,9.2873353 99.588714,7.773264 98.803447,7.0122801 98.01818,6.251297 96.546798,5.6721319 95.44317,5.6734501 94.339543,5.6747916 92.76495,6.2825087 91.982587,7.0618662 z M 113.34793,21.14437 c -0.78531,0.780403 -1.41414,2.317777 -1.4043,3.421454 0.01,1.103677 0.66918,2.610883 1.45445,3.371866 0.78527,0.760984 2.26076,1.349722 3.36027,1.33883 1.09952,-0.01095 2.63091,-0.657587 3.41043,-1.438002 0.77952,-0.780415 1.41123,-2.275055 1.4043,-3.371867 -0.006,-1.096812 -0.66918,-2.610884 -1.45445,-3.371867 -0.78526,-0.760984 -2.26362,-1.342912 -3.36028,-1.338829 -1.09665,0.0042 -2.62512,0.608013 -3.41042,1.388415 z m -93.034518,0.04958 c -0.782393,0.773546 -1.411233,2.275055 -1.404295,3.371867 0.0069,1.096813 0.672086,2.603951 1.454448,3.371866 0.782362,0.767917 2.257854,1.392376 3.360276,1.388417 1.102423,-0.004 2.630902,-0.657587 3.41043,-1.438003 0.779528,-0.780414 1.411233,-2.275055 1.404295,-3.371866 -0.0069,-1.096813 -0.669181,-2.610885 -1.454448,-3.371868 -0.785267,-0.760984 -2.263619,-1.342912 -3.360277,-1.338829 -1.096657,0.0042 -2.628037,0.61487 -3.410429,1.388415 z M 127.64164,42.268127 c -0.77952,0.780414 -1.41123,2.275054 -1.4043,3.371866 0.006,1.096812 0.66919,2.610883 1.45445,3.371867 0.78527,0.760985 2.26363,1.342913 3.36028,1.33883 1.09665,-0.0042 2.62803,-0.61487 3.41043,-1.388416 0.78239,-0.773545 1.41122,-2.275055 1.40429,-3.371867 -0.006,-1.096813 -0.67209,-2.603952 -1.45445,-3.371866 -0.78236,-0.767917 -2.25785,-1.392377 -3.36027,-1.388418 -1.10243,0.004 -2.63091,0.657587 -3.41043,1.438004 z M 6.0197006,42.317708 c -0.779479,0.78616 -1.361117,2.280718 -1.354142,3.371868 0.0069,1.091148 0.618981,2.605183 1.404295,3.371866 0.785314,0.766684 2.306802,1.345727 3.41043,1.33883 1.1036274,-0.0068 2.6251284,-0.608014 3.4104294,-1.388416 0.785301,-0.780403 1.417051,-2.324641 1.404295,-3.421453 -0.01268,-1.096812 -0.67492,-2.561249 -1.454448,-3.322281 -0.779528,-0.761033 -2.250921,-1.389525 -3.3602764,-1.388416 -1.109356,0.0011 -2.681105,0.651844 -3.460583,1.438002 z M 132.65697,67.160435 c -0.77952,0.780415 -1.29546,2.827989 -1.40429,3.371867 -0.10881,0.543879 -0.11299,-0.489429 0,0.04959 0.11299,0.539016 1.34153,2.783263 1.45445,3.322281 0.11298,0.539015 -0.30829,-0.401873 0,0.04959 0.30828,0.451458 2.26362,1.342912 3.36027,1.338829 1.09665,-0.0042 3.09841,-0.927757 3.41043,-1.388416 0.31203,-0.460659 -0.10881,0.494292 0,-0.04958 0.10882,-0.543879 1.41123,-2.275056 1.4043,-3.371869 -0.006,-1.096811 -0.67209,-2.60395 -1.45445,-3.371866 -0.78236,-0.767917 -2.25785,-1.392375 -3.36028,-1.388416 -1.10242,0.004 -2.63091,0.657587 -3.41043,1.438002 z M 1.0545156,67.210017 c -0.77952801,0.780415 -1.41123201,2.275056 -1.40429401,3.371868 0.0069,1.096812 0.669181,2.610883 1.45444801,3.371867 0.785267,0.760983 2.263618,1.342912 3.360276,1.338829 1.096658,-0.0042 2.628037,-0.614869 3.41043,-1.388416 0.782392,-0.773545 1.411232,-2.275054 1.404294,-3.371867 -0.0069,-1.096812 -0.672086,-2.603951 -1.454448,-3.371867 -0.782362,-0.767916 -2.257854,-1.392375 -3.360276,-1.388416 -1.102423,0.004 -2.630902,0.657587 -3.41043,1.438002 z m 5.015338,24.892314 c -0.779528,0.780414 -1.411233,2.275055 -1.404295,3.371866 0.0069,1.096813 0.669181,2.610884 1.454448,3.371869 0.785267,0.760985 2.263619,1.342904 3.360277,1.338824 1.0966574,-0.004 2.6280364,-0.614867 3.4104294,-1.388414 0.782393,-0.773547 1.411233,-2.275052 1.404295,-3.371864 -0.0069,-1.096812 -0.672086,-2.603952 -1.454448,-3.371867 -0.782362,-0.767917 -2.257854,-1.392375 -3.3602764,-1.388417 -1.102423,0.004 -2.630902,0.657587 -3.41043,1.438003 z M 127.64164,92.052748 c -0.7853,0.780403 -1.41414,2.317777 -1.4043,3.421454 0.01,1.103677 0.66919,2.610884 1.45445,3.371868 0.78527,0.760985 2.26363,1.34291 3.36028,1.33882 1.09665,-0.004 2.62513,-0.608008 3.41043,-1.38841 0.78529,-0.780401 1.41413,-2.317774 1.40429,-3.421451 -0.01,-1.103677 -0.66918,-2.610884 -1.45445,-3.371867 -0.78526,-0.760983 -2.26362,-1.342912 -3.36027,-1.338829 -1.09665,0.0042 -2.62514,0.608013 -3.41043,1.388415 z M 20.313412,113.17652 c -0.785301,0.78039 -1.414131,2.31776 -1.404295,3.42144 0.0098,1.10367 0.669181,2.61089 1.454448,3.37187 0.785267,0.76098 2.256649,1.34014 3.360276,1.33883 1.103628,-0.002 2.67527,-0.60221 3.460583,-1.38842 0.785314,-0.78621 1.363925,-2.3234 1.354142,-3.42145 -0.0098,-1.09805 -0.618981,-2.60519 -1.404295,-3.37186 -0.785314,-0.76669 -2.306802,-1.34574 -3.41043,-1.33884 -1.103627,0.006 -2.625128,0.60801 -3.410429,1.38843 z m 93.084668,0 c -0.78239,0.77353 -1.41123,2.27504 -1.4043,3.37185 0.007,1.09681 0.67209,2.60396 1.45445,3.37187 0.78236,0.76791 2.25786,1.39238 3.36028,1.38842 1.10242,-0.004 2.63091,-0.65759 3.41043,-1.438 0.77952,-0.78042 1.41123,-2.27507 1.40429,-3.37187 -0.006,-1.09682 -0.66918,-2.61089 -1.45445,-3.37186 -0.78526,-0.76099 -2.26361,-1.34292 -3.36027,-1.33884 -1.09666,0.004 -2.62804,0.61487 -3.41043,1.38843 z m -71.719329,14.13207 c -0.779528,0.78042 -1.411233,2.27506 -1.404295,3.37187 0.0069,1.09682 0.669181,2.6109 1.454448,3.37187 0.785267,0.76097 2.263619,1.34291 3.360276,1.33883 1.096658,-0.005 2.628037,-0.61487 3.41043,-1.38842 0.782393,-0.77354 1.411232,-2.27504 1.404294,-3.37186 -0.0069,-1.09682 -0.672085,-2.60396 -1.454447,-3.37188 -0.782363,-0.7679 -2.257854,-1.39238 -3.360277,-1.38841 -1.102422,0.004 -2.630901,0.65759 -3.410429,1.438 z m 50.35399,0 c -0.779528,0.78042 -1.411233,2.27506 -1.404295,3.37187 0.0069,1.09682 0.669181,2.6109 1.454448,3.37187 0.785267,0.76097 2.263619,1.34291 3.360276,1.33883 1.096658,-0.005 2.625129,-0.60802 3.41043,-1.38842 0.785301,-0.78039 1.41705,-2.32463 1.40429,-3.42145 -0.0127,-1.09681 -0.674915,-2.56125 -1.454443,-3.32229 -0.779528,-0.76102 -2.257854,-1.39238 -3.360277,-1.38841 -1.102422,0.004 -2.630901,0.65759 -3.410429,1.438 z m -25.176995,4.90905 c -0.785301,0.7804 -1.414131,2.31778 -1.404295,3.42145 0.0098,1.10367 0.669181,2.61088 1.454448,3.37187 0.785267,0.76098 2.263619,1.34291 3.360276,1.33882 1.096658,-0.005 2.625129,-0.60801 3.41043,-1.38841 0.785301,-0.7804 1.414131,-2.31778 1.404295,-3.42146 -0.0098,-1.10366 -0.669181,-2.61087 -1.454448,-3.37185 -0.785267,-0.76099 -2.263619,-1.34291 -3.360277,-1.33884 -1.096657,0.005 -2.625128,0.60801 -3.410429,1.38842 z"
       inkscape:connector-curvature="0" />
  </g>
</svg>
