<?xml version="1.0" encoding="UTF-8" standalone="no"?>
<svg
   xmlns:dc="http://purl.org/dc/elements/1.1/"
   xmlns:cc="http://creativecommons.org/ns#"
   xmlns:rdf="http://www.w3.org/1999/02/22-rdf-syntax-ns#"
   xmlns:svg="http://www.w3.org/2000/svg"
   xmlns="http://www.w3.org/2000/svg"
   xmlns:sodipodi="http://sodipodi.sourceforge.net/DTD/sodipodi-0.dtd"
   xmlns:inkscape="http://www.inkscape.org/namespaces/inkscape"
   version="1.0"
   width="72.3125"
   height="86.1875"
   id="svg2"
   inkscape:version="0.48.2 r9819"
   sodipodi:docname="Q111.svg">
  <title
     id="title2982">Q111: Latice Tower</title>
  <metadata
     id="metadata3562">
    <rdf:RDF>
      <cc:Work
         rdf:about="">
        <dc:format>image/svg+xml</dc:format>
        <dc:type
           rdf:resource="http://purl.org/dc/dcmitype/StillImage" />
        <cc:license
           rdf:resource="http://creativecommons.org/licenses/publicdomain/" />
        <dc:title>Q111: Latice Tower</dc:title>
      </cc:Work>
      <cc:License
         rdf:about="http://creativecommons.org/licenses/publicdomain/">
        <cc:permits
           rdf:resource="http://creativecommons.org/ns#Reproduction" />
        <cc:permits
           rdf:resource="http://creativecommons.org/ns#Distribution" />
        <cc:permits
           rdf:resource="http://creativecommons.org/ns#DerivativeWorks" />
      </cc:License>
    </rdf:RDF>
  </metadata>
  <sodipodi:namedview
     pagecolor="#ffffff"
     bordercolor="#666666"
     borderopacity="1"
     objecttolerance="10"
     gridtolerance="10"
     guidetolerance="10"
     inkscape:pageopacity="0"
     inkscape:pageshadow="2"
     inkscape:window-width="1440"
     inkscape:window-height="808"
     id="namedview3560"
     showgrid="false"
     inkscape:zoom="1.71875"
     inkscape:cx="-168.64375"
     inkscape:cy="12.53125"
     inkscape:window-x="0"
     inkscape:window-y="0"
     inkscape:window-maximized="1"
     inkscape:current-layer="svg2"
     fit-margin-top="0"
     fit-margin-left="0"
     fit-margin-right="0"
     fit-margin-bottom="0" />
  <defs
     id="defs4" />
  <path
     style="fill:#000407;fill-opacity:1;fill-rule:evenodd;stroke:none"
     d="m 12.78125,0 -4.625,70.875 -8.15625,0 0,5.65625 24,0 c 1.28732,5.53295 6.23327,9.65624 12.15625,9.65625 5.92495,0 10.87095,-4.12052 12.15625,-9.65625 l 24,0 0,-5.65625 -8.15625,0 L 59.1875,0 z M 19.5,7.09375 l 33.3125,0 0.4375,5.875 -17.09375,7.25 L 19.0625,13.375 z m 34.09375,10.96875 0.71875,9.6875 -12,-4.56275 z M 18.625,19.1875 28.71875,23.18725 18.03125,27.625 z m 17.53125,6.625 18.5625,7.65625 0.65625,9.03125 -19.21875,7.8125 -19.1875,-8.03125 0.625,-8.875 z M 55.71875,47.59375 56.5,58.40625 43.125,53.28125 z M 16.53125,48.125 29.5,53.28125 15.75,59 z m 19.625,7.78125 20.75,8.1875 0.5,6.78125 -9.09375,0 C 47.0272,65.33927 42.0812,61.21825 36.15625,61.21825 30.23327,61.21826 25.28732,65.34205 24,70.875 l -9.09375,0 0.4375,-6.09375 z m 0,10.28125 c 4.14,0 7.5,3.36 7.5,7.5 0,4.14 -3.36,7.5 -7.5,7.5 -4.14,0 -7.5,-3.36 -7.5,-7.5 0,-4.14 3.36,-7.5 7.5,-7.5 z"
     id="path2558"
     inkscape:connector-curvature="0"
     sodipodi:nodetypes="cccccscccccccccccccccccccccccccccccccccccccccsccccsssss" />
</svg>
