<?xml version="1.0" encoding="UTF-8" standalone="no"?>
<!-- Created with Inkscape (http://www.inkscape.org/) -->

<svg
   xmlns:dc="http://purl.org/dc/elements/1.1/"
   xmlns:cc="http://creativecommons.org/ns#"
   xmlns:rdf="http://www.w3.org/1999/02/22-rdf-syntax-ns#"
   xmlns:svg="http://www.w3.org/2000/svg"
   xmlns="http://www.w3.org/2000/svg"
   xmlns:sodipodi="http://sodipodi.sourceforge.net/DTD/sodipodi-0.dtd"
   xmlns:inkscape="http://www.inkscape.org/namespaces/inkscape"
   version="1.0"
   width="120"
   height="120"
   id="svg2"
   inkscape:version="0.48.2 r9819"
   sodipodi:docname="N10.svg">
  <title
     id="title2982">N10: Reported Anchorage</title>
  <metadata
     id="metadata2997">
    <rdf:RDF>
      <cc:Work
         rdf:about="">
        <dc:format>image/svg+xml</dc:format>
        <dc:type
           rdf:resource="http://purl.org/dc/dcmitype/StillImage" />
        <dc:title>N10: Reported Anchorage</dc:title>
        <cc:license
           rdf:resource="http://creativecommons.org/licenses/publicdomain/" />
      </cc:Work>
      <cc:License
         rdf:about="http://creativecommons.org/licenses/publicdomain/">
        <cc:permits
           rdf:resource="http://creativecommons.org/ns#Reproduction" />
        <cc:permits
           rdf:resource="http://creativecommons.org/ns#Distribution" />
        <cc:permits
           rdf:resource="http://creativecommons.org/ns#DerivativeWorks" />
      </cc:License>
    </rdf:RDF>
  </metadata>
  <sodipodi:namedview
     pagecolor="#ffffff"
     bordercolor="#666666"
     borderopacity="1"
     objecttolerance="10"
     gridtolerance="10"
     guidetolerance="10"
     inkscape:pageopacity="0"
     inkscape:pageshadow="2"
     inkscape:window-width="719"
     inkscape:window-height="480"
     id="namedview2995"
     showgrid="false"
     inkscape:zoom="2.1916667"
     inkscape:cx="60"
     inkscape:cy="60"
     inkscape:window-x="0"
     inkscape:window-y="0"
     inkscape:window-maximized="0"
     inkscape:current-layer="svg2" />
  <defs
     id="defs4" />
  <path
     d="M 60,5.5 C 54.204,5.5 49.5,10.204 49.5,16 C 49.5,20.823785 52.753189,24.8962 57.1875,26.125 L 57.1875,30.1875 L 42.28125,30.1875 L 42.28125,35.125 L 57.1875,35.125 L 55.40625,100.3125 L 54.5,100.15625 L 47.46875,98.71875 L 40.8125,96.53125 L 34.78125,93.03125 L 29.1875,88.625 L 33.0625,84.75 L 17.46875,72.34375 L 21.03125,96.78125 L 26.34375,91.8125 L 30.28125,95.5 L 35.78125,100.03125 L 41.75,103.625 L 48.40625,105.875 L 55.40625,107.40625 L 56.125,114.84375 L 63.1875,114.84375 L 63.90625,107.78125 L 69.9375,106.625 L 76.65625,104.4375 L 82.90625,101.03125 L 88.5,96.6875 L 93.6875,91.8125 L 99,97.125 L 102.53125,72.34375 L 86.59375,85.09375 L 90.84375,89 L 89.71875,89.78125 L 83.8125,93.78125 L 77.59375,97.0625 L 70.875,99.1875 L 63.90625,100.6875 L 62.84375,35.125 L 77.75,35.125 L 77.75,30.1875 L 62.5,29.8125 L 62.5,26.1875 C 67.091818,25.066065 70.5,20.935656 70.5,16 C 70.5,10.204 65.796,5.5 60,5.5 z M 60,11 C 62.76,11 65,13.24 65,16 C 65,18.76 62.76,21 60,21 C 57.24,21 55,18.76 55,16 C 55,13.24 57.24,11 60,11 z"
     id="path2630"
     style="fill:#000407;fill-opacity:1;fill-rule:evenodd;stroke:none" />
</svg>
