<?xml version="1.0" encoding="UTF-8" standalone="no"?>
<!-- Created with Inkscape (http://www.inkscape.org/) -->

<svg
   xmlns:dc="http://purl.org/dc/elements/1.1/"
   xmlns:cc="http://creativecommons.org/ns#"
   xmlns:rdf="http://www.w3.org/1999/02/22-rdf-syntax-ns#"
   xmlns:svg="http://www.w3.org/2000/svg"
   xmlns="http://www.w3.org/2000/svg"
   xmlns:sodipodi="http://sodipodi.sourceforge.net/DTD/sodipodi-0.dtd"
   xmlns:inkscape="http://www.inkscape.org/namespaces/inkscape"
   version="1.0"
   width="180"
   height="180"
   id="svg8829"
   inkscape:version="0.48.2 r9819"
   sodipodi:docname="N11.1.svg">
  <title
     id="title2994">N11.1: Designated Anchor Berth</title>
  <metadata
     id="metadata3038">
    <rdf:RDF>
      <cc:Work
         rdf:about="">
        <dc:format>image/svg+xml</dc:format>
        <dc:type
           rdf:resource="http://purl.org/dc/dcmitype/StillImage" />
        <cc:license
           rdf:resource="http://creativecommons.org/licenses/publicdomain/" />
        <dc:title>N11.1: Designated Anchor Berth</dc:title>
      </cc:Work>
      <cc:License
         rdf:about="http://creativecommons.org/licenses/publicdomain/">
        <cc:permits
           rdf:resource="http://creativecommons.org/ns#Reproduction" />
        <cc:permits
           rdf:resource="http://creativecommons.org/ns#Distribution" />
        <cc:permits
           rdf:resource="http://creativecommons.org/ns#DerivativeWorks" />
      </cc:License>
    </rdf:RDF>
  </metadata>
  <sodipodi:namedview
     pagecolor="#ffffff"
     bordercolor="#666666"
     borderopacity="1"
     objecttolerance="10"
     gridtolerance="10"
     guidetolerance="10"
     inkscape:pageopacity="0"
     inkscape:pageshadow="2"
     inkscape:window-width="927"
     inkscape:window-height="787"
     id="namedview3036"
     showgrid="false"
     inkscape:zoom="2.0663231"
     inkscape:cx="6.9293719"
     inkscape:cy="90.902067"
     inkscape:window-x="511"
     inkscape:window-y="0"
     inkscape:window-maximized="0"
     inkscape:current-layer="svg8829" />
  <defs
     id="defs8831">
    <clipPath
       id="clipPath8926">
      <path
         d="M 0.12,842.04 L 595.08,842.04 L 595.08,0.12 L 0.12,0.12 L 0.12,842.04 z"
         id="path8928" />
    </clipPath>
    <clipPath
       id="clipPath8920">
      <path
         d="M 12,830 L 583,830 L 583,12 L 12,12 L 12,830 z"
         id="path8922" />
    </clipPath>
    <clipPath
       id="clipPath8914">
      <path
         d="M 5.69,826.21 L 591.92,826.21 L 591.92,57.06 L 5.69,57.06 L 5.69,826.21 z"
         id="path8916" />
    </clipPath>
    <clipPath
       id="clipPath8902">
      <path
         d="M 0.12,842.04 L 595.08,842.04 L 595.08,0.12 L 0.12,0.12 L 0.12,842.04 z"
         id="path8904" />
    </clipPath>
    <clipPath
       id="clipPath8896">
      <path
         d="M 12,830 L 583,830 L 583,12 L 12,12 L 12,830 z"
         id="path8898" />
    </clipPath>
  </defs>
  <path
     style="fill:#8b008b;fill-rule:evenodd"
     d="m 90.5,16.75 c -7.76664,0 -14.0625,6.295862 -14.0625,14.0625 0,6.463879 4.33927,11.91591 10.28125,13.5625 l 0,5.4375 L 66.25,49.75 l 0,6.65625 19.9375,0 -0.125,5.125 c -11.168546,0.492656 -21.235045,3.04634 -29,7.15625 -4.333929,2.293903 -7.959705,5.047383 -10.71875,8.5 -2.759045,3.452617 -4.75,7.931384 -4.75,13.125 0,5.193615 1.990955,9.73488 4.75,13.1875 2.759045,3.45261 6.384821,6.2061 10.71875,8.5 7.474569,3.95621 17.080178,6.47007 27.75,7.09375 l -0.5625,25.1875 c -13.98884,-1.25609 -26.45004,-7.01213 -35.5,-15.625 l 5.15625,-5.25 L 33,106.71875 l 5.25,32.8125 7.15625,-7.375 c 3.57239,4.40093 7.6514,8.15699 12.53125,11.5625 8.25526,5.76112 17.28598,8.99079 26.375,9.9375 l 0.90625,9.59375 9.5625,0 0.96875,-9.59375 c 14.70477,-1.57696 28.71066,-9.13405 39,-21.84375 l 7.96875,7.71875 4.28125,-33.25 -20.90625,17.125 5.3125,5.125 c -9.07683,8.69584 -21.63212,14.50063 -35.71875,15.75 l -0.53125,-25.1875 c 10.66982,-0.62368 20.30668,-3.13754 27.78125,-7.09375 4.33393,-2.2939 7.99096,-5.04739 10.75,-8.5 2.75904,-3.45262 4.75,-7.993885 4.75,-13.1875 0,-5.193616 -1.99096,-9.672383 -4.75,-13.125 -2.75904,-3.452617 -6.41607,-6.206097 -10.75,-8.5 -7.76496,-4.10991 -17.86271,-6.663594 -29.03125,-7.15625 l -0.09375,-5.125 19.9375,0 0,-6.65625 -19.90625,0.25 0,-5.53125 C 99.996795,42.966034 104.5625,37.426286 104.5625,30.8125 104.5625,23.04586 98.26664,16.75 90.5,16.75 z m 0,7.375 c 3.6984,0 6.6875,2.9891 6.6875,6.6875 0,3.6984 -2.9891,6.6875 -6.6875,6.6875 -3.6984,0 -6.71875,-2.9891 -6.71875,-6.6875 0,-3.6984 3.02035,-6.6875 6.71875,-6.6875 z m -4.96875,47.8125 c 0.102793,-0.0056 0.209488,0.0052 0.3125,0 l 8.3125,0 c 10.35394,0.52961 19.64035,2.968501 26.3125,6.5 3.77851,1.999925 6.72211,4.368935 8.5,6.59375 1.77789,2.224814 2.28125,3.922706 2.28125,5.28125 0,1.358543 -0.50336,3.118936 -2.28125,5.34375 -1.77789,2.224815 -4.72149,4.59383 -8.5,6.59375 -6.50449,3.44276 -15.49153,5.85801 -25.53125,6.46875 l -9.90625,0 C 74.997982,108.10801 66.066998,105.69276 59.5625,102.25 c -3.778506,-1.99992 -6.722113,-4.368935 -8.5,-6.59375 -1.777887,-2.224814 -2.28125,-3.985207 -2.28125,-5.34375 0,-1.358544 0.503363,-3.056436 2.28125,-5.28125 1.777887,-2.224815 4.721494,-4.593825 8.5,-6.59375 6.612386,-3.499867 15.732906,-5.940784 25.96875,-6.5 z"
     id="path10693"
     inkscape:connector-curvature="0"
     sodipodi:nodetypes="ssccccccssssscccccccscccccccccccsssssccccccssssssssccsssssccssssss" />
  <text
     xml:space="preserve"
     style="font-size:30.79892349px;font-style:normal;font-weight:normal;line-height:125%;letter-spacing:0px;word-spacing:0px;fill:#8b008b;fill-opacity:1;stroke:none;font-family:Sans"
     x="62.014252"
     y="107.9086"
     id="text3781"
     sodipodi:linespacing="125%"
     transform="scale(1.0723093,0.93256677)"><tspan
       sodipodi:role="line"
       id="tspan3783"
       x="62.014252"
       y="107.9086">N1</tspan></text>
</svg>
