<?xml version="1.0" encoding="UTF-8" standalone="no"?>
<!-- Created with Inkscape (http://www.inkscape.org/) -->

<svg
   xmlns:dc="http://purl.org/dc/elements/1.1/"
   xmlns:cc="http://creativecommons.org/ns#"
   xmlns:rdf="http://www.w3.org/1999/02/22-rdf-syntax-ns#"
   xmlns:svg="http://www.w3.org/2000/svg"
   xmlns="http://www.w3.org/2000/svg"
   xmlns:sodipodi="http://sodipodi.sourceforge.net/DTD/sodipodi-0.dtd"
   xmlns:inkscape="http://www.inkscape.org/namespaces/inkscape"
   version="1.0"
   width="174.76485"
   height="146.52063"
   id="svg8829"
   inkscape:version="0.48.2 r9819"
   sodipodi:docname="N12.7.svg">
  <title
     id="title2994">N12.7: Anchorage Area (explosives)</title>
  <metadata
     id="metadata3038">
    <rdf:RDF>
      <cc:Work
         rdf:about="">
        <dc:format>image/svg+xml</dc:format>
        <dc:type
           rdf:resource="http://purl.org/dc/dcmitype/StillImage" />
        <cc:license
           rdf:resource="http://creativecommons.org/licenses/publicdomain/" />
        <dc:title>N12.7: Anchorage Area (explosives)</dc:title>
      </cc:Work>
      <cc:License
         rdf:about="http://creativecommons.org/licenses/publicdomain/">
        <cc:permits
           rdf:resource="http://creativecommons.org/ns#Reproduction" />
        <cc:permits
           rdf:resource="http://creativecommons.org/ns#Distribution" />
        <cc:permits
           rdf:resource="http://creativecommons.org/ns#DerivativeWorks" />
      </cc:License>
    </rdf:RDF>
  </metadata>
  <sodipodi:namedview
     pagecolor="#ffffff"
     bordercolor="#666666"
     borderopacity="1"
     objecttolerance="10"
     gridtolerance="10"
     guidetolerance="10"
     inkscape:pageopacity="0"
     inkscape:pageshadow="2"
     inkscape:window-width="784"
     inkscape:window-height="626"
     id="namedview3036"
     showgrid="false"
     inkscape:zoom="1.9748138"
     inkscape:cx="-33.392147"
     inkscape:cy="78.213242"
     inkscape:window-x="401"
     inkscape:window-y="0"
     inkscape:window-maximized="0"
     inkscape:current-layer="svg8829"
     fit-margin-top="0"
     fit-margin-left="0"
     fit-margin-right="0"
     fit-margin-bottom="0" />
  <defs
     id="defs8831">
    <clipPath
       id="clipPath8926">
      <path
         d="m 0.12,842.04 594.96,0 0,-841.92 -594.96,0 0,841.92 z"
         id="path8928"
         inkscape:connector-curvature="0" />
    </clipPath>
    <clipPath
       id="clipPath8920">
      <path
         d="m 12,830 571,0 0,-818 -571,0 0,818 z"
         id="path8922"
         inkscape:connector-curvature="0" />
    </clipPath>
    <clipPath
       id="clipPath8914">
      <path
         d="m 5.69,826.21 586.23,0 0,-769.15 -586.23,0 0,769.15 z"
         id="path8916"
         inkscape:connector-curvature="0" />
    </clipPath>
    <clipPath
       id="clipPath8902">
      <path
         d="m 0.12,842.04 594.96,0 0,-841.92 -594.96,0 0,841.92 z"
         id="path8904"
         inkscape:connector-curvature="0" />
    </clipPath>
    <clipPath
       id="clipPath8896">
      <path
         d="m 12,830 571,0 0,-818 -571,0 0,818 z"
         id="path8898"
         inkscape:connector-curvature="0" />
    </clipPath>
  </defs>
  <path
     d="m 118.27548,0 c -7.76664,0 -14.07,6.303362 -14.07,14.07 0,6.463879 4.35927,11.92091 10.30125,13.5675 l 0,5.44375 -20.476885,-0.08375 0,6.658125 19.932505,0 -1.92625,87.895625 C 98.047255,126.29516 85.576055,120.54476 76.526095,111.93188 l 5.15063,-5.27625 -20.89563,-16.666255 5.23438,32.788125 7.16062,-7.37 c 3.57239,4.40093 7.64078,8.15199 12.52063,11.5575 8.25526,5.76112 17.292235,9.01954 26.381255,9.96625 l 0.92125,9.58938 9.5475,0 0.96312,-9.58938 c 14.70477,-1.57696 28.73817,-9.14905 39.02751,-21.85875 l 7.95624,7.705 4.27124,-33.248745 -20.89561,17.126875 5.31813,5.15062 c -9.07683,8.69584 -21.63276,14.49564 -35.71938,15.745 l -1.88438,-87.895625 19.9325,0 0,-6.658125 -19.89062,0.25125 0,-5.5275 c 6.15304,-1.502716 10.72,-7.037464 10.72,-13.65125 0,-7.76664 -6.30336,-14.07 -14.07,-14.07 z m -0.0168,7.369987 c 3.6984,0 6.7,3.0016 6.7,6.7 0,3.6984 -3.0016,6.7 -6.7,6.7 -3.6984,0 -6.7,-3.0016 -6.7,-6.7 0,-3.6984 3.0016,-6.7 6.7,-6.7 z"
     id="path10693"
     style="fill:#8b008b;fill-rule:evenodd"
     inkscape:connector-curvature="0" />
  <g
     transform="matrix(0.11463198,0,0,0.11795774,-11.384605,17.559581)"
     id="layer1"
     inkscape:label="Camada 1">
    <path
       style="fill:#8b008b;fill-opacity:1;stroke:none"
       d="M 376.28771,-16.264495 C 222.92739,110.197 168.09053,221.56103 193.63798,323.63477 c 37.14284,90.00001 162.74908,191.54106 162.74908,191.54106 0.0296,-0.0169 186.6935,233.50244 65.15416,358.44405 -3.27287,-2.6635 -7.56131,-4.23881 -12.26752,-4.23881 -1.86551,0 -3.75355,0.32241 -5.45223,0.79478 -24.79571,-36.1343 -73.34959,-108.3394 -93.23314,-149.15299 -39.12791,-49.396 -38.29558,-56.36875 -111.22551,-80.00747 -51.42856,0 -100.048435,-103.05598 -100.048435,-103.05598 0,0 9.932315,141.39022 37.075175,197.10449 36.27075,52.25312 67.15017,70.71151 117.22296,82.92165 36.47085,0 103.87759,37.08243 140.39494,58.81343 -2.13245,2.79066 -3.27134,6.12762 -3.27134,9.80224 0,9.46771 8.28087,17.22015 18.53758,17.22015 10.25672,0 18.53759,-7.75244 18.53759,-17.22015 0,-4.60393 -1.98008,-8.84189 -5.17962,-11.92164 C 558.08243,766.30399 540.17301,579.34856 516.41003,452.38851 461.83255,329.8869 441.67288,317.56518 363.47496,229.58626 c 0,0 -59.68724,-65.13647 12.81275,-245.850755 z"
       id="rect2160"
       inkscape:connector-curvature="0" />
  </g>
</svg>
