<?xml version="1.0" encoding="UTF-8" standalone="no"?>
<!-- Created with Inkscape (http://www.inkscape.org/) -->

<svg
   xmlns:dc="http://purl.org/dc/elements/1.1/"
   xmlns:cc="http://creativecommons.org/ns#"
   xmlns:rdf="http://www.w3.org/1999/02/22-rdf-syntax-ns#"
   xmlns:svg="http://www.w3.org/2000/svg"
   xmlns="http://www.w3.org/2000/svg"
   xmlns:sodipodi="http://sodipodi.sourceforge.net/DTD/sodipodi-0.dtd"
   xmlns:inkscape="http://www.inkscape.org/namespaces/inkscape"
   version="1.0"
   width="233.271"
   height="146.52063"
   id="svg8829"
   inkscape:version="0.48.2 r9819"
   sodipodi:docname="N12.8.svg">
  <title
     id="title3317">N12.8: Anchorage Area (quarantine)</title>
  <metadata
     id="metadata3038">
    <rdf:RDF>
      <cc:Work
         rdf:about="">
        <dc:format>image/svg+xml</dc:format>
        <dc:type
           rdf:resource="http://purl.org/dc/dcmitype/StillImage" />
        <cc:license
           rdf:resource="http://creativecommons.org/licenses/publicdomain/" />
        <dc:title>N12.8: Anchorage Area (quarantine)</dc:title>
      </cc:Work>
      <cc:License
         rdf:about="http://creativecommons.org/licenses/publicdomain/">
        <cc:permits
           rdf:resource="http://creativecommons.org/ns#Reproduction" />
        <cc:permits
           rdf:resource="http://creativecommons.org/ns#Distribution" />
        <cc:permits
           rdf:resource="http://creativecommons.org/ns#DerivativeWorks" />
      </cc:License>
    </rdf:RDF>
  </metadata>
  <sodipodi:namedview
     pagecolor="#ffffff"
     bordercolor="#666666"
     borderopacity="1"
     objecttolerance="10"
     gridtolerance="10"
     guidetolerance="10"
     inkscape:pageopacity="0"
     inkscape:pageshadow="2"
     inkscape:window-width="719"
     inkscape:window-height="480"
     id="namedview3036"
     showgrid="false"
     inkscape:zoom="1.4611111"
     inkscape:cx="176.27912"
     inkscape:cy="73.26032"
     inkscape:window-x="395"
     inkscape:window-y="9"
     inkscape:window-maximized="0"
     inkscape:current-layer="svg8829"
     fit-margin-top="0"
     fit-margin-left="0"
     fit-margin-right="0"
     fit-margin-bottom="0" />
  <defs
     id="defs8831">
    <clipPath
       id="clipPath8926">
      <path
         d="m 0.12,842.04 594.96,0 0,-841.92 -594.96,0 0,841.92 z"
         id="path8928"
         inkscape:connector-curvature="0" />
    </clipPath>
    <clipPath
       id="clipPath8920">
      <path
         d="m 12,830 571,0 0,-818 -571,0 0,818 z"
         id="path8922"
         inkscape:connector-curvature="0" />
    </clipPath>
    <clipPath
       id="clipPath8914">
      <path
         d="m 5.69,826.21 586.23,0 0,-769.15 -586.23,0 0,769.15 z"
         id="path8916"
         inkscape:connector-curvature="0" />
    </clipPath>
    <clipPath
       id="clipPath8902">
      <path
         d="m 0.12,842.04 594.96,0 0,-841.92 -594.96,0 0,841.92 z"
         id="path8904"
         inkscape:connector-curvature="0" />
    </clipPath>
    <clipPath
       id="clipPath8896">
      <path
         d="m 12,830 571,0 0,-818 -571,0 0,818 z"
         id="path8898"
         inkscape:connector-curvature="0" />
    </clipPath>
    <clipPath
       id="clipPath2460">
      <path
         id="path2462"
         d="m 12,830 571,0 0,-818 -571,0 0,818 z"
         inkscape:connector-curvature="0" />
    </clipPath>
    <clipPath
       id="clipPath2466">
      <path
         id="path2468"
         d="m 0.12,842.04 594.96,0 0,-841.92 -594.96,0 0,841.92 z"
         inkscape:connector-curvature="0" />
    </clipPath>
    <clipPath
       id="clipPath2478">
      <path
         id="path2480"
         d="m 10.61,842 585.58,0 0,-799.37 -585.58,0 0,799.37 z"
         inkscape:connector-curvature="0" />
    </clipPath>
    <clipPath
       id="clipPath2484">
      <path
         id="path2486"
         d="m 12,830 571,0 0,-818 -571,0 0,818 z"
         inkscape:connector-curvature="0" />
    </clipPath>
    <clipPath
       id="clipPath2490">
      <path
         id="path2492"
         d="m 0.12,842.04 594.96,0 0,-841.92 -594.96,0 0,841.92 z"
         inkscape:connector-curvature="0" />
    </clipPath>
    <clipPath
       id="clipPath2574">
      <path
         id="path2576"
         d="m 191.419,617.986 2.382,0 0,2.691 -2.382,0 0,-2.691 z"
         inkscape:connector-curvature="0" />
    </clipPath>
    <clipPath
       id="clipPath2580">
      <path
         id="path2582"
         d="m 191.997,618.937 0.284,9.355 5.67,0 -0.284,-4.537 8.222,-0.282 0.282,0.282 -0.282,-5.102 -13.608,0.284"
         inkscape:connector-curvature="0" />
    </clipPath>
    <clipPath
       id="clipPath2606">
      <path
         id="path2608"
         d="m 193.561,617.986 2.382,0 0,2.691 -2.382,0 0,-2.691 z"
         inkscape:connector-curvature="0" />
    </clipPath>
    <clipPath
       id="clipPath2612">
      <path
         id="path2614"
         d="m 191.997,618.937 0.284,9.355 5.67,0 -0.284,-4.537 8.222,-0.282 0.282,0.282 -0.282,-5.102 -13.608,0.284"
         inkscape:connector-curvature="0" />
    </clipPath>
    <clipPath
       id="clipPath2638">
      <path
         id="path2640"
         d="m 195.703,617.986 2.382,0 0,2.691 -2.382,0 0,-2.691 z"
         inkscape:connector-curvature="0" />
    </clipPath>
    <clipPath
       id="clipPath2644">
      <path
         id="path2646"
         d="m 191.997,618.937 0.284,9.355 5.67,0 -0.284,-4.537 8.222,-0.282 0.282,0.282 -0.282,-5.102 -13.608,0.284"
         inkscape:connector-curvature="0" />
    </clipPath>
    <clipPath
       id="clipPath2678">
      <path
         id="path2680"
         d="m 197.845,617.986 2.382,0 0,2.691 -2.382,0 0,-2.691 z"
         inkscape:connector-curvature="0" />
    </clipPath>
    <clipPath
       id="clipPath2684">
      <path
         id="path2686"
         d="m 191.997,618.937 0.284,9.355 5.67,0 -0.284,-4.537 8.222,-0.282 0.282,0.282 -0.282,-5.102 -13.608,0.284"
         inkscape:connector-curvature="0" />
    </clipPath>
    <clipPath
       id="clipPath2718">
      <path
         id="path2720"
         d="m 199.987,617.986 2.382,0 0,2.691 -2.382,0 0,-2.691 z"
         inkscape:connector-curvature="0" />
    </clipPath>
    <clipPath
       id="clipPath2724">
      <path
         id="path2726"
         d="m 191.997,618.937 0.284,9.355 5.67,0 -0.284,-4.537 8.222,-0.282 0.282,0.282 -0.282,-5.102 -13.608,0.284"
         inkscape:connector-curvature="0" />
    </clipPath>
    <clipPath
       id="clipPath2758">
      <path
         id="path2760"
         d="m 202.129,617.986 2.382,0 0,2.691 -2.382,0 0,-2.691 z"
         inkscape:connector-curvature="0" />
    </clipPath>
    <clipPath
       id="clipPath2764">
      <path
         id="path2766"
         d="m 191.997,618.937 0.284,9.355 5.67,0 -0.284,-4.537 8.222,-0.282 0.282,0.282 -0.282,-5.102 -13.608,0.284"
         inkscape:connector-curvature="0" />
    </clipPath>
    <clipPath
       id="clipPath2798">
      <path
         id="path2800"
         d="m 204.272,617.986 2.382,0 0,2.691 -2.382,0 0,-2.691 z"
         inkscape:connector-curvature="0" />
    </clipPath>
    <clipPath
       id="clipPath2804">
      <path
         id="path2806"
         d="m 191.997,618.937 0.284,9.355 5.67,0 -0.284,-4.537 8.222,-0.282 0.282,0.282 -0.282,-5.102 -13.608,0.284"
         inkscape:connector-curvature="0" />
    </clipPath>
    <clipPath
       id="clipPath2832">
      <path
         id="path2834"
         d="m 191.419,620.437 2.382,0 0,2.691 -2.382,0 0,-2.691 z"
         inkscape:connector-curvature="0" />
    </clipPath>
    <clipPath
       id="clipPath2838">
      <path
         id="path2840"
         d="m 191.997,618.937 0.284,9.355 5.67,0 -0.284,-4.537 8.222,-0.282 0.282,0.282 -0.282,-5.102 -13.608,0.284"
         inkscape:connector-curvature="0" />
    </clipPath>
    <clipPath
       id="clipPath2870">
      <path
         id="path2872"
         d="m 193.561,620.437 2.382,0 0,2.691 -2.382,0 0,-2.691 z"
         inkscape:connector-curvature="0" />
    </clipPath>
    <clipPath
       id="clipPath2876">
      <path
         id="path2878"
         d="m 191.997,618.937 0.284,9.355 5.67,0 -0.284,-4.537 8.222,-0.282 0.282,0.282 -0.282,-5.102 -13.608,0.284"
         inkscape:connector-curvature="0" />
    </clipPath>
    <clipPath
       id="clipPath2908">
      <path
         id="path2910"
         d="m 195.703,620.437 2.382,0 0,2.691 -2.382,0 0,-2.691 z"
         inkscape:connector-curvature="0" />
    </clipPath>
    <clipPath
       id="clipPath2914">
      <path
         id="path2916"
         d="m 191.997,618.937 0.284,9.355 5.67,0 -0.284,-4.537 8.222,-0.282 0.282,0.282 -0.282,-5.102 -13.608,0.284"
         inkscape:connector-curvature="0" />
    </clipPath>
    <clipPath
       id="clipPath2950">
      <path
         id="path2952"
         d="m 197.845,620.437 2.382,0 0,2.691 -2.382,0 0,-2.691 z"
         inkscape:connector-curvature="0" />
    </clipPath>
    <clipPath
       id="clipPath2956">
      <path
         id="path2958"
         d="m 191.997,618.937 0.284,9.355 5.67,0 -0.284,-4.537 8.222,-0.282 0.282,0.282 -0.282,-5.102 -13.608,0.284"
         inkscape:connector-curvature="0" />
    </clipPath>
    <clipPath
       id="clipPath2992">
      <path
         id="path2994"
         d="m 199.987,620.437 2.382,0 0,2.691 -2.382,0 0,-2.691 z"
         inkscape:connector-curvature="0" />
    </clipPath>
    <clipPath
       id="clipPath2998">
      <path
         id="path3000"
         d="m 191.997,618.937 0.284,9.355 5.67,0 -0.284,-4.537 8.222,-0.282 0.282,0.282 -0.282,-5.102 -13.608,0.284"
         inkscape:connector-curvature="0" />
    </clipPath>
    <clipPath
       id="clipPath3034">
      <path
         id="path3036"
         d="m 202.129,620.437 2.382,0 0,2.691 -2.382,0 0,-2.691 z"
         inkscape:connector-curvature="0" />
    </clipPath>
    <clipPath
       id="clipPath3040">
      <path
         id="path3042"
         d="m 191.997,618.937 0.284,9.355 5.67,0 -0.284,-4.537 8.222,-0.282 0.282,0.282 -0.282,-5.102 -13.608,0.284"
         inkscape:connector-curvature="0" />
    </clipPath>
    <clipPath
       id="clipPath3076">
      <path
         id="path3078"
         d="m 204.272,620.437 2.382,0 0,2.691 -2.382,0 0,-2.691 z"
         inkscape:connector-curvature="0" />
    </clipPath>
    <clipPath
       id="clipPath3082">
      <path
         id="path3084"
         d="m 191.997,618.937 0.284,9.355 5.67,0 -0.284,-4.537 8.222,-0.282 0.282,0.282 -0.282,-5.102 -13.608,0.284"
         inkscape:connector-curvature="0" />
    </clipPath>
    <clipPath
       id="clipPath3112">
      <path
         id="path3114"
         d="m 191.419,622.888 2.382,0 0,2.691 -2.382,0 0,-2.691 z"
         inkscape:connector-curvature="0" />
    </clipPath>
    <clipPath
       id="clipPath3118">
      <path
         id="path3120"
         d="m 191.997,618.937 0.284,9.355 5.67,0 -0.284,-4.537 8.222,-0.282 0.282,0.282 -0.282,-5.102 -13.608,0.284"
         inkscape:connector-curvature="0" />
    </clipPath>
    <clipPath
       id="clipPath3150">
      <path
         id="path3152"
         d="m 193.561,622.888 2.382,0 0,2.691 -2.382,0 0,-2.691 z"
         inkscape:connector-curvature="0" />
    </clipPath>
    <clipPath
       id="clipPath3156">
      <path
         id="path3158"
         d="m 191.997,618.937 0.284,9.355 5.67,0 -0.284,-4.537 8.222,-0.282 0.282,0.282 -0.282,-5.102 -13.608,0.284"
         inkscape:connector-curvature="0" />
    </clipPath>
    <clipPath
       id="clipPath3188">
      <path
         id="path3190"
         d="m 195.703,622.888 2.382,0 0,2.691 -2.382,0 0,-2.691 z"
         inkscape:connector-curvature="0" />
    </clipPath>
    <clipPath
       id="clipPath3194">
      <path
         id="path3196"
         d="m 191.997,618.937 0.284,9.355 5.67,0 -0.284,-4.537 8.222,-0.282 0.282,0.282 -0.282,-5.102 -13.608,0.284"
         inkscape:connector-curvature="0" />
    </clipPath>
    <clipPath
       id="clipPath3230">
      <path
         id="path3232"
         d="m 197.845,622.888 2.382,0 0,2.691 -2.382,0 0,-2.691 z"
         inkscape:connector-curvature="0" />
    </clipPath>
    <clipPath
       id="clipPath3236">
      <path
         id="path3238"
         d="m 191.997,618.937 0.284,9.355 5.67,0 -0.284,-4.537 8.222,-0.282 0.282,0.282 -0.282,-5.102 -13.608,0.284"
         inkscape:connector-curvature="0" />
    </clipPath>
    <clipPath
       id="clipPath3272">
      <path
         id="path3274"
         d="m 199.987,622.888 2.382,0 0,2.691 -2.382,0 0,-2.691 z"
         inkscape:connector-curvature="0" />
    </clipPath>
    <clipPath
       id="clipPath3278">
      <path
         id="path3280"
         d="m 191.997,618.937 0.284,9.355 5.67,0 -0.284,-4.537 8.222,-0.282 0.282,0.282 -0.282,-5.102 -13.608,0.284"
         inkscape:connector-curvature="0" />
    </clipPath>
    <clipPath
       id="clipPath3304">
      <path
         id="path3306"
         d="m 202.129,622.888 2.382,0 0,2.691 -2.382,0 0,-2.691 z"
         inkscape:connector-curvature="0" />
    </clipPath>
    <clipPath
       id="clipPath3310">
      <path
         id="path3312"
         d="m 191.997,618.937 0.284,9.355 5.67,0 -0.284,-4.537 8.222,-0.282 0.282,0.282 -0.282,-5.102 -13.608,0.284"
         inkscape:connector-curvature="0" />
    </clipPath>
    <clipPath
       id="clipPath3332">
      <path
         id="path3334"
         d="m 204.272,622.888 2.382,0 0,2.691 -2.382,0 0,-2.691 z"
         inkscape:connector-curvature="0" />
    </clipPath>
    <clipPath
       id="clipPath3338">
      <path
         id="path3340"
         d="m 191.997,618.937 0.284,9.355 5.67,0 -0.284,-4.537 8.222,-0.282 0.282,0.282 -0.282,-5.102 -13.608,0.284"
         inkscape:connector-curvature="0" />
    </clipPath>
    <clipPath
       id="clipPath3360">
      <path
         id="path3362"
         d="m 191.419,625.338 2.382,0 0,2.691 -2.382,0 0,-2.691 z"
         inkscape:connector-curvature="0" />
    </clipPath>
    <clipPath
       id="clipPath3366">
      <path
         id="path3368"
         d="m 191.997,618.937 0.284,9.355 5.67,0 -0.284,-4.537 8.222,-0.282 0.282,0.282 -0.282,-5.102 -13.608,0.284"
         inkscape:connector-curvature="0" />
    </clipPath>
    <clipPath
       id="clipPath3398">
      <path
         id="path3400"
         d="m 193.561,625.338 2.382,0 0,2.691 -2.382,0 0,-2.691 z"
         inkscape:connector-curvature="0" />
    </clipPath>
    <clipPath
       id="clipPath3404">
      <path
         id="path3406"
         d="m 191.997,618.937 0.284,9.355 5.67,0 -0.284,-4.537 8.222,-0.282 0.282,0.282 -0.282,-5.102 -13.608,0.284"
         inkscape:connector-curvature="0" />
    </clipPath>
    <clipPath
       id="clipPath3436">
      <path
         id="path3438"
         d="m 195.703,625.338 2.382,0 0,2.691 -2.382,0 0,-2.691 z"
         inkscape:connector-curvature="0" />
    </clipPath>
    <clipPath
       id="clipPath3442">
      <path
         id="path3444"
         d="m 191.997,618.937 0.284,9.355 5.67,0 -0.284,-4.537 8.222,-0.282 0.282,0.282 -0.282,-5.102 -13.608,0.284"
         inkscape:connector-curvature="0" />
    </clipPath>
    <clipPath
       id="clipPath3478">
      <path
         id="path3480"
         d="m 197.845,625.338 2.382,0 0,2.691 -2.382,0 0,-2.691 z"
         inkscape:connector-curvature="0" />
    </clipPath>
    <clipPath
       id="clipPath3484">
      <path
         id="path3486"
         d="m 191.997,618.937 0.284,9.355 5.67,0 -0.284,-4.537 8.222,-0.282 0.282,0.282 -0.282,-5.102 -13.608,0.284"
         inkscape:connector-curvature="0" />
    </clipPath>
    <clipPath
       id="clipPath3502">
      <path
         id="path3504"
         d="m 191.419,627.789 2.382,0 0,2.691 -2.382,0 0,-2.691 z"
         inkscape:connector-curvature="0" />
    </clipPath>
    <clipPath
       id="clipPath3508">
      <path
         id="path3510"
         d="m 191.997,618.937 0.284,9.355 5.67,0 -0.284,-4.537 8.222,-0.282 0.282,0.282 -0.282,-5.102 -13.608,0.284"
         inkscape:connector-curvature="0" />
    </clipPath>
    <clipPath
       id="clipPath3528">
      <path
         id="path3530"
         d="m 193.561,627.789 2.382,0 0,2.691 -2.382,0 0,-2.691 z"
         inkscape:connector-curvature="0" />
    </clipPath>
    <clipPath
       id="clipPath3534">
      <path
         id="path3536"
         d="m 191.997,618.937 0.284,9.355 5.67,0 -0.284,-4.537 8.222,-0.282 0.282,0.282 -0.282,-5.102 -13.608,0.284"
         inkscape:connector-curvature="0" />
    </clipPath>
    <clipPath
       id="clipPath3554">
      <path
         id="path3556"
         d="m 195.703,627.789 2.382,0 0,2.691 -2.382,0 0,-2.691 z"
         inkscape:connector-curvature="0" />
    </clipPath>
    <clipPath
       id="clipPath3560">
      <path
         id="path3562"
         d="m 191.997,618.937 0.284,9.355 5.67,0 -0.284,-4.537 8.222,-0.282 0.282,0.282 -0.282,-5.102 -13.608,0.284"
         inkscape:connector-curvature="0" />
    </clipPath>
    <clipPath
       id="clipPath3580">
      <path
         id="path3582"
         d="m 197.845,627.789 2.382,0 0,2.691 -2.382,0 0,-2.691 z"
         inkscape:connector-curvature="0" />
    </clipPath>
    <clipPath
       id="clipPath3586">
      <path
         id="path3588"
         d="m 191.997,618.937 0.284,9.355 5.67,0 -0.284,-4.537 8.222,-0.282 0.282,0.282 -0.282,-5.102 -13.608,0.284"
         inkscape:connector-curvature="0" />
    </clipPath>
    <clipPath
       id="clipPath3600">
      <path
         id="path3602"
         d="m 161.43,620.437 2.382,0 0,2.691 -2.382,0 0,-2.691 z"
         inkscape:connector-curvature="0" />
    </clipPath>
    <clipPath
       id="clipPath3606">
      <path
         id="path3608"
         d="m 186.894,628.321 0,-5.67 -23.53,0.31 0,-0.282 0,5.67 23.53,-0.028"
         inkscape:connector-curvature="0" />
    </clipPath>
    <clipPath
       id="clipPath3622">
      <path
         id="path3624"
         d="m 163.572,620.437 2.382,0 0,2.691 -2.382,0 0,-2.691 z"
         inkscape:connector-curvature="0" />
    </clipPath>
    <clipPath
       id="clipPath3628">
      <path
         id="path3630"
         d="m 186.894,628.321 0,-5.67 -23.53,0.31 0,-0.282 0,5.67 23.53,-0.028"
         inkscape:connector-curvature="0" />
    </clipPath>
    <clipPath
       id="clipPath3644">
      <path
         id="path3646"
         d="m 165.714,620.437 2.382,0 0,2.691 -2.382,0 0,-2.691 z"
         inkscape:connector-curvature="0" />
    </clipPath>
    <clipPath
       id="clipPath3650">
      <path
         id="path3652"
         d="m 186.894,628.321 0,-5.67 -23.53,0.31 0,-0.282 0,5.67 23.53,-0.028"
         inkscape:connector-curvature="0" />
    </clipPath>
    <clipPath
       id="clipPath3668">
      <path
         id="path3670"
         d="m 167.856,620.437 2.382,0 0,2.691 -2.382,0 0,-2.691 z"
         inkscape:connector-curvature="0" />
    </clipPath>
    <clipPath
       id="clipPath3674">
      <path
         id="path3676"
         d="m 186.894,628.321 0,-5.67 -23.53,0.31 0,-0.282 0,5.67 23.53,-0.028"
         inkscape:connector-curvature="0" />
    </clipPath>
    <clipPath
       id="clipPath3692">
      <path
         id="path3694"
         d="m 169.998,620.437 2.382,0 0,2.691 -2.382,0 0,-2.691 z"
         inkscape:connector-curvature="0" />
    </clipPath>
    <clipPath
       id="clipPath3698">
      <path
         id="path3700"
         d="m 186.894,628.321 0,-5.67 -23.53,0.31 0,-0.282 0,5.67 23.53,-0.028"
         inkscape:connector-curvature="0" />
    </clipPath>
    <clipPath
       id="clipPath3716">
      <path
         id="path3718"
         d="m 172.14,620.437 2.382,0 0,2.691 -2.382,0 0,-2.691 z"
         inkscape:connector-curvature="0" />
    </clipPath>
    <clipPath
       id="clipPath3722">
      <path
         id="path3724"
         d="m 186.894,628.321 0,-5.67 -23.53,0.31 0,-0.282 0,5.67 23.53,-0.028"
         inkscape:connector-curvature="0" />
    </clipPath>
    <clipPath
       id="clipPath3740">
      <path
         id="path3742"
         d="m 174.282,620.437 2.382,0 0,2.691 -2.382,0 0,-2.691 z"
         inkscape:connector-curvature="0" />
    </clipPath>
    <clipPath
       id="clipPath3746">
      <path
         id="path3748"
         d="m 186.894,628.321 0,-5.67 -23.53,0.31 0,-0.282 0,5.67 23.53,-0.028"
         inkscape:connector-curvature="0" />
    </clipPath>
    <clipPath
       id="clipPath3764">
      <path
         id="path3766"
         d="m 176.424,620.437 2.382,0 0,2.691 -2.382,0 0,-2.691 z"
         inkscape:connector-curvature="0" />
    </clipPath>
    <clipPath
       id="clipPath3770">
      <path
         id="path3772"
         d="m 186.894,628.321 0,-5.67 -23.53,0.31 0,-0.282 0,5.67 23.53,-0.028"
         inkscape:connector-curvature="0" />
    </clipPath>
    <clipPath
       id="clipPath3788">
      <path
         id="path3790"
         d="m 178.566,620.437 2.382,0 0,2.691 -2.382,0 0,-2.691 z"
         inkscape:connector-curvature="0" />
    </clipPath>
    <clipPath
       id="clipPath3794">
      <path
         id="path3796"
         d="m 186.894,628.321 0,-5.67 -23.53,0.31 0,-0.282 0,5.67 23.53,-0.028"
         inkscape:connector-curvature="0" />
    </clipPath>
    <clipPath
       id="clipPath3812">
      <path
         id="path3814"
         d="m 180.708,620.437 2.382,0 0,2.691 -2.382,0 0,-2.691 z"
         inkscape:connector-curvature="0" />
    </clipPath>
    <clipPath
       id="clipPath3818">
      <path
         id="path3820"
         d="m 186.894,628.321 0,-5.67 -23.53,0.31 0,-0.282 0,5.67 23.53,-0.028"
         inkscape:connector-curvature="0" />
    </clipPath>
    <clipPath
       id="clipPath3836">
      <path
         id="path3838"
         d="m 182.851,620.437 2.382,0 0,2.691 -2.382,0 0,-2.691 z"
         inkscape:connector-curvature="0" />
    </clipPath>
    <clipPath
       id="clipPath3842">
      <path
         id="path3844"
         d="m 186.894,628.321 0,-5.67 -23.53,0.31 0,-0.282 0,5.67 23.53,-0.028"
         inkscape:connector-curvature="0" />
    </clipPath>
    <clipPath
       id="clipPath3864">
      <path
         id="path3866"
         d="m 184.993,620.437 2.382,0 0,2.691 -2.382,0 0,-2.691 z"
         inkscape:connector-curvature="0" />
    </clipPath>
    <clipPath
       id="clipPath3870">
      <path
         id="path3872"
         d="m 186.894,628.321 0,-5.67 -23.53,0.31 0,-0.282 0,5.67 23.53,-0.028"
         inkscape:connector-curvature="0" />
    </clipPath>
    <clipPath
       id="clipPath3888">
      <path
         id="path3890"
         d="m 161.43,622.888 2.382,0 0,2.691 -2.382,0 0,-2.691 z"
         inkscape:connector-curvature="0" />
    </clipPath>
    <clipPath
       id="clipPath3894">
      <path
         id="path3896"
         d="m 186.894,628.321 0,-5.67 -23.53,0.31 0,-0.282 0,5.67 23.53,-0.028"
         inkscape:connector-curvature="0" />
    </clipPath>
    <clipPath
       id="clipPath3916">
      <path
         id="path3918"
         d="m 163.572,622.888 2.382,0 0,2.691 -2.382,0 0,-2.691 z"
         inkscape:connector-curvature="0" />
    </clipPath>
    <clipPath
       id="clipPath3922">
      <path
         id="path3924"
         d="m 186.894,628.321 0,-5.67 -23.53,0.31 0,-0.282 0,5.67 23.53,-0.028"
         inkscape:connector-curvature="0" />
    </clipPath>
    <clipPath
       id="clipPath3952">
      <path
         id="path3954"
         d="m 165.714,622.888 2.382,0 0,2.691 -2.382,0 0,-2.691 z"
         inkscape:connector-curvature="0" />
    </clipPath>
    <clipPath
       id="clipPath3958">
      <path
         id="path3960"
         d="m 186.894,628.321 0,-5.67 -23.53,0.31 0,-0.282 0,5.67 23.53,-0.028"
         inkscape:connector-curvature="0" />
    </clipPath>
    <clipPath
       id="clipPath3994">
      <path
         id="path3996"
         d="m 167.856,622.888 2.382,0 0,2.691 -2.382,0 0,-2.691 z"
         inkscape:connector-curvature="0" />
    </clipPath>
    <clipPath
       id="clipPath4000">
      <path
         id="path4002"
         d="m 186.894,628.321 0,-5.67 -23.53,0.31 0,-0.282 0,5.67 23.53,-0.028"
         inkscape:connector-curvature="0" />
    </clipPath>
    <clipPath
       id="clipPath4036">
      <path
         id="path4038"
         d="m 169.998,622.888 2.382,0 0,2.691 -2.382,0 0,-2.691 z"
         inkscape:connector-curvature="0" />
    </clipPath>
    <clipPath
       id="clipPath4042">
      <path
         id="path4044"
         d="m 186.894,628.321 0,-5.67 -23.53,0.31 0,-0.282 0,5.67 23.53,-0.028"
         inkscape:connector-curvature="0" />
    </clipPath>
    <clipPath
       id="clipPath4078">
      <path
         id="path4080"
         d="m 172.14,622.888 2.382,0 0,2.691 -2.382,0 0,-2.691 z"
         inkscape:connector-curvature="0" />
    </clipPath>
    <clipPath
       id="clipPath4084">
      <path
         id="path4086"
         d="m 186.894,628.321 0,-5.67 -23.53,0.31 0,-0.282 0,5.67 23.53,-0.028"
         inkscape:connector-curvature="0" />
    </clipPath>
    <clipPath
       id="clipPath4120">
      <path
         id="path4122"
         d="m 174.282,622.888 2.382,0 0,2.691 -2.382,0 0,-2.691 z"
         inkscape:connector-curvature="0" />
    </clipPath>
    <clipPath
       id="clipPath4126">
      <path
         id="path4128"
         d="m 186.894,628.321 0,-5.67 -23.53,0.31 0,-0.282 0,5.67 23.53,-0.028"
         inkscape:connector-curvature="0" />
    </clipPath>
    <clipPath
       id="clipPath4162">
      <path
         id="path4164"
         d="m 176.424,622.888 2.382,0 0,2.691 -2.382,0 0,-2.691 z"
         inkscape:connector-curvature="0" />
    </clipPath>
    <clipPath
       id="clipPath4168">
      <path
         id="path4170"
         d="m 186.894,628.321 0,-5.67 -23.53,0.31 0,-0.282 0,5.67 23.53,-0.028"
         inkscape:connector-curvature="0" />
    </clipPath>
    <clipPath
       id="clipPath4204">
      <path
         id="path4206"
         d="m 178.566,622.888 2.382,0 0,2.691 -2.382,0 0,-2.691 z"
         inkscape:connector-curvature="0" />
    </clipPath>
    <clipPath
       id="clipPath4210">
      <path
         id="path4212"
         d="m 186.894,628.321 0,-5.67 -23.53,0.31 0,-0.282 0,5.67 23.53,-0.028"
         inkscape:connector-curvature="0" />
    </clipPath>
    <clipPath
       id="clipPath4246">
      <path
         id="path4248"
         d="m 180.708,622.888 2.382,0 0,2.691 -2.382,0 0,-2.691 z"
         inkscape:connector-curvature="0" />
    </clipPath>
    <clipPath
       id="clipPath4252">
      <path
         id="path4254"
         d="m 186.894,628.321 0,-5.67 -23.53,0.31 0,-0.282 0,5.67 23.53,-0.028"
         inkscape:connector-curvature="0" />
    </clipPath>
    <clipPath
       id="clipPath4288">
      <path
         id="path4290"
         d="m 182.851,622.888 2.382,0 0,2.691 -2.382,0 0,-2.691 z"
         inkscape:connector-curvature="0" />
    </clipPath>
    <clipPath
       id="clipPath4294">
      <path
         id="path4296"
         d="m 186.894,628.321 0,-5.67 -23.53,0.31 0,-0.282 0,5.67 23.53,-0.028"
         inkscape:connector-curvature="0" />
    </clipPath>
    <clipPath
       id="clipPath4330">
      <path
         id="path4332"
         d="m 184.993,622.888 2.382,0 0,2.691 -2.382,0 0,-2.691 z"
         inkscape:connector-curvature="0" />
    </clipPath>
    <clipPath
       id="clipPath4336">
      <path
         id="path4338"
         d="m 186.894,628.321 0,-5.67 -23.53,0.31 0,-0.282 0,5.67 23.53,-0.028"
         inkscape:connector-curvature="0" />
    </clipPath>
    <clipPath
       id="clipPath4366">
      <path
         id="path4368"
         d="m 161.43,625.338 2.382,0 0,2.691 -2.382,0 0,-2.691 z"
         inkscape:connector-curvature="0" />
    </clipPath>
    <clipPath
       id="clipPath4372">
      <path
         id="path4374"
         d="m 186.894,628.321 0,-5.67 -23.53,0.31 0,-0.282 0,5.67 23.53,-0.028"
         inkscape:connector-curvature="0" />
    </clipPath>
    <clipPath
       id="clipPath4394">
      <path
         id="path4396"
         d="m 163.572,625.338 2.382,0 0,2.691 -2.382,0 0,-2.691 z"
         inkscape:connector-curvature="0" />
    </clipPath>
    <clipPath
       id="clipPath4400">
      <path
         id="path4402"
         d="m 186.894,628.321 0,-5.67 -23.53,0.31 0,-0.282 0,5.67 23.53,-0.028"
         inkscape:connector-curvature="0" />
    </clipPath>
    <clipPath
       id="clipPath4432">
      <path
         id="path4434"
         d="m 165.714,625.338 2.382,0 0,2.691 -2.382,0 0,-2.691 z"
         inkscape:connector-curvature="0" />
    </clipPath>
    <clipPath
       id="clipPath4438">
      <path
         id="path4440"
         d="m 186.894,628.321 0,-5.67 -23.53,0.31 0,-0.282 0,5.67 23.53,-0.028"
         inkscape:connector-curvature="0" />
    </clipPath>
    <clipPath
       id="clipPath4474">
      <path
         id="path4476"
         d="m 167.856,625.338 2.382,0 0,2.691 -2.382,0 0,-2.691 z"
         inkscape:connector-curvature="0" />
    </clipPath>
    <clipPath
       id="clipPath4480">
      <path
         id="path4482"
         d="m 186.894,628.321 0,-5.67 -23.53,0.31 0,-0.282 0,5.67 23.53,-0.028"
         inkscape:connector-curvature="0" />
    </clipPath>
    <clipPath
       id="clipPath4516">
      <path
         id="path4518"
         d="m 169.998,625.338 2.382,0 0,2.691 -2.382,0 0,-2.691 z"
         inkscape:connector-curvature="0" />
    </clipPath>
    <clipPath
       id="clipPath4522">
      <path
         id="path4524"
         d="m 186.894,628.321 0,-5.67 -23.53,0.31 0,-0.282 0,5.67 23.53,-0.028"
         inkscape:connector-curvature="0" />
    </clipPath>
    <clipPath
       id="clipPath4558">
      <path
         id="path4560"
         d="m 172.14,625.338 2.382,0 0,2.691 -2.382,0 0,-2.691 z"
         inkscape:connector-curvature="0" />
    </clipPath>
    <clipPath
       id="clipPath4564">
      <path
         id="path4566"
         d="m 186.894,628.321 0,-5.67 -23.53,0.31 0,-0.282 0,5.67 23.53,-0.028"
         inkscape:connector-curvature="0" />
    </clipPath>
    <clipPath
       id="clipPath4600">
      <path
         id="path4602"
         d="m 174.282,625.338 2.382,0 0,2.691 -2.382,0 0,-2.691 z"
         inkscape:connector-curvature="0" />
    </clipPath>
    <clipPath
       id="clipPath4606">
      <path
         id="path4608"
         d="m 186.894,628.321 0,-5.67 -23.53,0.31 0,-0.282 0,5.67 23.53,-0.028"
         inkscape:connector-curvature="0" />
    </clipPath>
    <clipPath
       id="clipPath4642">
      <path
         id="path4644"
         d="m 176.424,625.338 2.382,0 0,2.691 -2.382,0 0,-2.691 z"
         inkscape:connector-curvature="0" />
    </clipPath>
    <clipPath
       id="clipPath4648">
      <path
         id="path4650"
         d="m 186.894,628.321 0,-5.67 -23.53,0.31 0,-0.282 0,5.67 23.53,-0.028"
         inkscape:connector-curvature="0" />
    </clipPath>
    <clipPath
       id="clipPath4684">
      <path
         id="path4686"
         d="m 178.566,625.338 2.382,0 0,2.691 -2.382,0 0,-2.691 z"
         inkscape:connector-curvature="0" />
    </clipPath>
    <clipPath
       id="clipPath4690">
      <path
         id="path4692"
         d="m 186.894,628.321 0,-5.67 -23.53,0.31 0,-0.282 0,5.67 23.53,-0.028"
         inkscape:connector-curvature="0" />
    </clipPath>
    <clipPath
       id="clipPath4726">
      <path
         id="path4728"
         d="m 180.708,625.338 2.382,0 0,2.691 -2.382,0 0,-2.691 z"
         inkscape:connector-curvature="0" />
    </clipPath>
    <clipPath
       id="clipPath4732">
      <path
         id="path4734"
         d="m 186.894,628.321 0,-5.67 -23.53,0.31 0,-0.282 0,5.67 23.53,-0.028"
         inkscape:connector-curvature="0" />
    </clipPath>
    <clipPath
       id="clipPath4768">
      <path
         id="path4770"
         d="m 182.851,625.338 2.382,0 0,2.691 -2.382,0 0,-2.691 z"
         inkscape:connector-curvature="0" />
    </clipPath>
    <clipPath
       id="clipPath4774">
      <path
         id="path4776"
         d="m 186.894,628.321 0,-5.67 -23.53,0.31 0,-0.282 0,5.67 23.53,-0.028"
         inkscape:connector-curvature="0" />
    </clipPath>
    <clipPath
       id="clipPath4810">
      <path
         id="path4812"
         d="m 184.993,625.338 2.382,0 0,2.691 -2.382,0 0,-2.691 z"
         inkscape:connector-curvature="0" />
    </clipPath>
    <clipPath
       id="clipPath4816">
      <path
         id="path4818"
         d="m 186.894,628.321 0,-5.67 -23.53,0.31 0,-0.282 0,5.67 23.53,-0.028"
         inkscape:connector-curvature="0" />
    </clipPath>
    <clipPath
       id="clipPath4846">
      <path
         id="path4848"
         d="m 161.43,627.789 2.382,0 0,2.691 -2.382,0 0,-2.691 z"
         inkscape:connector-curvature="0" />
    </clipPath>
    <clipPath
       id="clipPath4852">
      <path
         id="path4854"
         d="m 186.894,628.321 0,-5.67 -23.53,0.31 0,-0.282 0,5.67 23.53,-0.028"
         inkscape:connector-curvature="0" />
    </clipPath>
    <clipPath
       id="clipPath4866">
      <path
         id="path4868"
         d="m 163.572,627.789 2.382,0 0,2.691 -2.382,0 0,-2.691 z"
         inkscape:connector-curvature="0" />
    </clipPath>
    <clipPath
       id="clipPath4872">
      <path
         id="path4874"
         d="m 186.894,628.321 0,-5.67 -23.53,0.31 0,-0.282 0,5.67 23.53,-0.028"
         inkscape:connector-curvature="0" />
    </clipPath>
    <clipPath
       id="clipPath4892">
      <path
         id="path4894"
         d="m 165.714,627.789 2.382,0 0,2.691 -2.382,0 0,-2.691 z"
         inkscape:connector-curvature="0" />
    </clipPath>
    <clipPath
       id="clipPath4898">
      <path
         id="path4900"
         d="m 186.894,628.321 0,-5.67 -23.53,0.31 0,-0.282 0,5.67 23.53,-0.028"
         inkscape:connector-curvature="0" />
    </clipPath>
    <clipPath
       id="clipPath4918">
      <path
         id="path4920"
         d="m 167.856,627.789 2.382,0 0,2.691 -2.382,0 0,-2.691 z"
         inkscape:connector-curvature="0" />
    </clipPath>
    <clipPath
       id="clipPath4924">
      <path
         id="path4926"
         d="m 186.894,628.321 0,-5.67 -23.53,0.31 0,-0.282 0,5.67 23.53,-0.028"
         inkscape:connector-curvature="0" />
    </clipPath>
    <clipPath
       id="clipPath4944">
      <path
         id="path4946"
         d="m 169.998,627.789 2.382,0 0,2.691 -2.382,0 0,-2.691 z"
         inkscape:connector-curvature="0" />
    </clipPath>
    <clipPath
       id="clipPath4950">
      <path
         id="path4952"
         d="m 186.894,628.321 0,-5.67 -23.53,0.31 0,-0.282 0,5.67 23.53,-0.028"
         inkscape:connector-curvature="0" />
    </clipPath>
    <clipPath
       id="clipPath4970">
      <path
         id="path4972"
         d="m 172.14,627.789 2.382,0 0,2.691 -2.382,0 0,-2.691 z"
         inkscape:connector-curvature="0" />
    </clipPath>
    <clipPath
       id="clipPath4976">
      <path
         id="path4978"
         d="m 186.894,628.321 0,-5.67 -23.53,0.31 0,-0.282 0,5.67 23.53,-0.028"
         inkscape:connector-curvature="0" />
    </clipPath>
    <clipPath
       id="clipPath4996">
      <path
         id="path4998"
         d="m 174.282,627.789 2.382,0 0,2.691 -2.382,0 0,-2.691 z"
         inkscape:connector-curvature="0" />
    </clipPath>
    <clipPath
       id="clipPath5002">
      <path
         id="path5004"
         d="m 186.894,628.321 0,-5.67 -23.53,0.31 0,-0.282 0,5.67 23.53,-0.028"
         inkscape:connector-curvature="0" />
    </clipPath>
    <clipPath
       id="clipPath5022">
      <path
         id="path5024"
         d="m 176.424,627.789 2.382,0 0,2.691 -2.382,0 0,-2.691 z"
         inkscape:connector-curvature="0" />
    </clipPath>
    <clipPath
       id="clipPath5028">
      <path
         id="path5030"
         d="m 186.894,628.321 0,-5.67 -23.53,0.31 0,-0.282 0,5.67 23.53,-0.028"
         inkscape:connector-curvature="0" />
    </clipPath>
    <clipPath
       id="clipPath5048">
      <path
         id="path5050"
         d="m 178.566,627.789 2.382,0 0,2.691 -2.382,0 0,-2.691 z"
         inkscape:connector-curvature="0" />
    </clipPath>
    <clipPath
       id="clipPath5054">
      <path
         id="path5056"
         d="m 186.894,628.321 0,-5.67 -23.53,0.31 0,-0.282 0,5.67 23.53,-0.028"
         inkscape:connector-curvature="0" />
    </clipPath>
    <clipPath
       id="clipPath5074">
      <path
         id="path5076"
         d="m 180.708,627.789 2.382,0 0,2.691 -2.382,0 0,-2.691 z"
         inkscape:connector-curvature="0" />
    </clipPath>
    <clipPath
       id="clipPath5080">
      <path
         id="path5082"
         d="m 186.894,628.321 0,-5.67 -23.53,0.31 0,-0.282 0,5.67 23.53,-0.028"
         inkscape:connector-curvature="0" />
    </clipPath>
    <clipPath
       id="clipPath5100">
      <path
         id="path5102"
         d="m 182.851,627.789 2.382,0 0,2.691 -2.382,0 0,-2.691 z"
         inkscape:connector-curvature="0" />
    </clipPath>
    <clipPath
       id="clipPath5106">
      <path
         id="path5108"
         d="m 186.894,628.321 0,-5.67 -23.53,0.31 0,-0.282 0,5.67 23.53,-0.028"
         inkscape:connector-curvature="0" />
    </clipPath>
    <clipPath
       id="clipPath5126">
      <path
         id="path5128"
         d="m 184.993,627.789 2.382,0 0,2.691 -2.382,0 0,-2.691 z"
         inkscape:connector-curvature="0" />
    </clipPath>
    <clipPath
       id="clipPath5132">
      <path
         id="path5134"
         d="m 186.894,628.321 0,-5.67 -23.53,0.31 0,-0.282 0,5.67 23.53,-0.028"
         inkscape:connector-curvature="0" />
    </clipPath>
    <clipPath
       id="clipPath5150">
      <path
         id="path5152"
         d="m 10.61,842 585.58,0 0,-799.37 -585.58,0 0,799.37 z"
         inkscape:connector-curvature="0" />
    </clipPath>
    <clipPath
       id="clipPath5156">
      <path
         id="path5158"
         d="m 12,830 571,0 0,-818 -571,0 0,818 z"
         inkscape:connector-curvature="0" />
    </clipPath>
    <clipPath
       id="clipPath5162">
      <path
         id="path5164"
         d="m 0.12,842.04 594.96,0 0,-841.92 -594.96,0 0,841.92 z"
         inkscape:connector-curvature="0" />
    </clipPath>
  </defs>
  <path
     d="m 176.78162,0 c -7.76664,0 -14.07,6.303362 -14.07,14.07 0,6.463879 4.35927,11.92091 10.30125,13.5675 l 0,5.44375 -20.47688,-0.08375 0,6.658125 19.9325,0 -1.92625,87.895625 c -13.98884,-1.25609 -26.46004,-7.00649 -35.51,-15.61937 l 5.15063,-5.27625 -20.89563,-16.666255 5.23438,32.788125 7.16062,-7.37 c 3.57239,4.40093 7.64078,8.15199 12.52063,11.5575 8.25526,5.76112 17.29223,9.01954 26.38125,9.96625 l 0.92125,9.58938 9.5475,0 0.96312,-9.58938 c 14.70477,-1.57696 28.73817,-9.14905 39.02751,-21.85875 l 7.95624,7.705 4.27125,-33.248745 -20.89562,17.126875 5.31813,5.15062 c -9.07683,8.69584 -21.63276,14.49564 -35.71938,15.745 l -1.88438,-87.895625 19.9325,0 0,-6.658125 -19.89062,0.25125 0,-5.5275 C 186.28467,26.218534 190.85163,20.683786 190.85163,14.07 190.85163,6.30336 184.54826,0 176.78162,0 z m -0.0168,7.369987 c 3.6984,0 6.7,3.0016 6.7,6.7 0,3.6984 -3.0016,6.7 -6.7,6.7 -3.6984,0 -6.7,-3.0016 -6.7,-6.7 0,-3.6984 3.0016,-6.7 6.7,-6.7 z"
     id="path10693"
     style="fill:#8b008b;fill-rule:evenodd"
     inkscape:connector-curvature="0" />
  <path
     style="fill:#8b008b;fill-opacity:0.94117647"
     sodipodi:nodetypes="ssscsscssscccscccscccscccsccccccccccccccccccc"
     inkscape:connector-curvature="0"
     id="path8782"
     d="M 52.596548,17.185031 C 23.59435,17.185031 0,40.779377 0,69.781576 c 0,23.019529 14.85938,42.597074 35.493786,49.709064 0.488321,0.1683 0.971288,0.33446 1.465951,0.48865 5.223897,1.74322 10.811638,2.70979 16.614111,2.70979 29.002204,0 52.596542,-23.594355 52.596542,-52.596545 0,-23.017444 -14.862274,-42.595463 -35.493781,-49.709066 C 70.046446,20.152292 69.407554,19.924572 68.766431,19.717128 63.673193,18.06916 58.231462,17.185031 52.596548,17.185031 z m 0.9773,5.997072 c 2.574862,0 5.089797,0.223403 7.551869,0.621919 l 0,37.759343 37.670498,0 c 0.468337,2.661465 0.710764,5.422144 0.710764,8.218211 0,3.02645 -0.297284,5.973324 -0.844032,8.840128 l -37.53723,0 0,37.315126 c -2.765099,0.50694 -5.616606,0.75518 -8.529169,0.75518 -2.912564,0 -5.764071,-0.24824 -8.52917,-0.75518 l 0,-37.315126 -36.648778,0 C 6.91166,75.856606 6.66342,73.005098 6.66342,70.092535 c 0,-2.912564 0.24824,-5.764071 0.75518,-8.52917 l 36.648778,0 0,-37.403961 c 3.073218,-0.632414 6.245617,-0.977301 9.50647,-0.977301 z m 13.237981,1.865756 c 0.584732,0.171594 1.157494,0.384003 1.732488,0.577496 0.01279,0.0047 0.03127,-0.0048 0.04435,0 0.149303,0.05039 0.295592,0.125848 0.444227,0.177691 13.536375,5.058306 24.09327,16.177973 28.386143,30.074206 l -30.607281,0 z m -28.430564,0.666341 0,30.163052 -29.541135,0 C 13.32996,41.730882 24.368547,30.508935 38.381265,25.7142 z M 8.84013,84.307825 l 29.541135,0 0,30.163045 C 24.368547,109.67613 13.32996,98.454185 8.84013,84.307825 z m 57.971699,0 30.385167,0 C 92.533403,98.635375 81.180481,109.9549 66.811829,114.51529 z" />
</svg>
