<?xml version="1.0" encoding="UTF-8" standalone="no"?>
<!-- Created with Inkscape (http://www.inkscape.org/) -->

<svg
   xmlns:dc="http://purl.org/dc/elements/1.1/"
   xmlns:cc="http://creativecommons.org/ns#"
   xmlns:rdf="http://www.w3.org/1999/02/22-rdf-syntax-ns#"
   xmlns:svg="http://www.w3.org/2000/svg"
   xmlns="http://www.w3.org/2000/svg"
   xmlns:sodipodi="http://sodipodi.sourceforge.net/DTD/sodipodi-0.dtd"
   xmlns:inkscape="http://www.inkscape.org/namespaces/inkscape"
   version="1.0"
   width="180"
   height="180"
   id="svg8829"
   inkscape:version="0.48.2 r9819"
   sodipodi:docname="N12.svg">
  <title
     id="title2992">N12: Anchorage Area</title>
  <metadata
     id="metadata3038">
    <rdf:RDF>
      <cc:Work
         rdf:about="">
        <dc:format>image/svg+xml</dc:format>
        <dc:type
           rdf:resource="http://purl.org/dc/dcmitype/StillImage" />
        <cc:license
           rdf:resource="http://creativecommons.org/licenses/publicdomain/" />
        <dc:title>N12: Anchorage Area</dc:title>
      </cc:Work>
      <cc:License
         rdf:about="http://creativecommons.org/licenses/publicdomain/">
        <cc:permits
           rdf:resource="http://creativecommons.org/ns#Reproduction" />
        <cc:permits
           rdf:resource="http://creativecommons.org/ns#Distribution" />
        <cc:permits
           rdf:resource="http://creativecommons.org/ns#DerivativeWorks" />
      </cc:License>
    </rdf:RDF>
  </metadata>
  <sodipodi:namedview
     pagecolor="#ffffff"
     bordercolor="#666666"
     borderopacity="1"
     objecttolerance="10"
     gridtolerance="10"
     guidetolerance="10"
     inkscape:pageopacity="0"
     inkscape:pageshadow="2"
     inkscape:window-width="719"
     inkscape:window-height="480"
     id="namedview3036"
     showgrid="false"
     inkscape:zoom="1.4611111"
     inkscape:cx="90"
     inkscape:cy="90"
     inkscape:window-x="0"
     inkscape:window-y="0"
     inkscape:window-maximized="0"
     inkscape:current-layer="svg8829" />
  <defs
     id="defs8831">
    <clipPath
       id="clipPath8926">
      <path
         d="M 0.12,842.04 L 595.08,842.04 L 595.08,0.12 L 0.12,0.12 L 0.12,842.04 z"
         id="path8928" />
    </clipPath>
    <clipPath
       id="clipPath8920">
      <path
         d="M 12,830 L 583,830 L 583,12 L 12,12 L 12,830 z"
         id="path8922" />
    </clipPath>
    <clipPath
       id="clipPath8914">
      <path
         d="M 5.69,826.21 L 591.92,826.21 L 591.92,57.06 L 5.69,57.06 L 5.69,826.21 z"
         id="path8916" />
    </clipPath>
    <clipPath
       id="clipPath8902">
      <path
         d="M 0.12,842.04 L 595.08,842.04 L 595.08,0.12 L 0.12,0.12 L 0.12,842.04 z"
         id="path8904" />
    </clipPath>
    <clipPath
       id="clipPath8896">
      <path
         d="M 12,830 L 583,830 L 583,12 L 12,12 L 12,830 z"
         id="path8898" />
    </clipPath>
  </defs>
  <path
     d="M 90.502505,16.739685 C 82.735865,16.739685 76.432505,23.043047 76.432505,30.809685 C 76.432505,37.273564 80.791775,42.730595 86.733755,44.377185 L 86.733755,49.820935 L 66.256875,49.737185 L 66.256875,56.39531 L 86.189375,56.39531 L 84.263125,144.29094 C 70.274285,143.03485 57.803085,137.28444 48.753125,128.67157 L 53.903755,123.39532 L 33.008125,106.72906 L 38.242505,139.51719 L 45.403125,132.14719 C 48.975515,136.54812 53.043905,140.29918 57.923755,143.70469 C 66.179015,149.46581 75.215985,152.72423 84.305005,153.67094 L 85.226255,163.26032 L 94.773755,163.26032 L 95.736875,153.67094 C 110.44165,152.09398 124.47505,144.52188 134.76439,131.81218 L 142.72063,139.51719 L 146.99187,106.26844 L 126.09626,123.39532 L 131.41439,128.54594 C 122.33756,137.24178 109.78163,143.04157 95.695005,144.29094 L 93.810625,56.39531 L 113.74313,56.39531 L 113.74313,49.737185 L 93.852505,49.988435 L 93.852505,44.460935 C 100.00555,42.958219 104.57251,37.423471 104.57251,30.809685 C 104.57251,23.043045 98.269145,16.739685 90.502505,16.739685 z M 90.485755,24.109672 C 94.184155,24.109672 97.185755,27.111272 97.185755,30.809672 C 97.185755,34.508072 94.184155,37.509672 90.485755,37.509672 C 86.787355,37.509672 83.785755,34.508072 83.785755,30.809672 C 83.785755,27.111272 86.787355,24.109672 90.485755,24.109672 z"
     id="path10693"
     style="fill:#a30075;fill-rule:evenodd" />
</svg>
