<?xml version="1.0" encoding="UTF-8" standalone="no"?>
<svg
   xmlns:dc="http://purl.org/dc/elements/1.1/"
   xmlns:cc="http://creativecommons.org/ns#"
   xmlns:rdf="http://www.w3.org/1999/02/22-rdf-syntax-ns#"
   xmlns:svg="http://www.w3.org/2000/svg"
   xmlns="http://www.w3.org/2000/svg"
   xmlns:sodipodi="http://sodipodi.sourceforge.net/DTD/sodipodi-0.dtd"
   xmlns:inkscape="http://www.inkscape.org/namespaces/inkscape"
   version="1.1"
   width="124"
   height="124"
   id="svg2"
   inkscape:version="0.48.2 r9819"
   sodipodi:docname="N13.svg">
  <title
     id="title2991">N13: Seaplane Operation Area</title>
  <metadata
     id="metadata19">
    <rdf:RDF>
      <cc:Work
         rdf:about="">
        <dc:format>image/svg+xml</dc:format>
        <dc:type
           rdf:resource="http://purl.org/dc/dcmitype/StillImage" />
        <dc:title>N13: Seaplane Operation Area</dc:title>
        <cc:license
           rdf:resource="http://creativecommons.org/licenses/publicdomain/" />
      </cc:Work>
      <cc:License
         rdf:about="http://creativecommons.org/licenses/publicdomain/">
        <cc:permits
           rdf:resource="http://creativecommons.org/ns#Reproduction" />
        <cc:permits
           rdf:resource="http://creativecommons.org/ns#Distribution" />
        <cc:permits
           rdf:resource="http://creativecommons.org/ns#DerivativeWorks" />
      </cc:License>
    </rdf:RDF>
  </metadata>
  <defs
     id="defs17" />
  <sodipodi:namedview
     pagecolor="#ffffff"
     bordercolor="#666666"
     borderopacity="1"
     objecttolerance="10"
     gridtolerance="10"
     guidetolerance="10"
     inkscape:pageopacity="0"
     inkscape:pageshadow="2"
     inkscape:window-width="719"
     inkscape:window-height="480"
     id="namedview15"
     showgrid="false"
     inkscape:zoom="1.18"
     inkscape:cx="61.999998"
     inkscape:cy="62"
     inkscape:window-x="0"
     inkscape:window-y="0"
     inkscape:window-maximized="0"
     inkscape:current-layer="svg2"
     fit-margin-top="0"
     fit-margin-left="0"
     fit-margin-right="0"
     fit-margin-bottom="0" />
  <symbol
     id="seaplane"
     width="200"
     height="200"
     transform="translate(-38,-38)">
    <circle
       cx="100"
       cy="100"
       r="60"
       style="fill:none;stroke:#a30075;stroke-width:4"
       id="circle5"
       sodipodi:cx="100"
       sodipodi:cy="100"
       sodipodi:rx="60"
       sodipodi:ry="60"
       d="m 160,100 c 0,33.13708 -26.86292,60 -60,60 -33.137085,0 -60,-26.86292 -60,-60 0,-33.137085 26.862915,-60 60,-60 33.13708,0 60,26.862915 60,60 z" />
    <path
       d="m 80,120 60,0 10,-10 z"
       style="fill:#a30075;stroke:none"
       id="path7"
       inkscape:connector-curvature="0" />
    <path
       d="m 50,115 90,-10 a 11.25,7.5 0 0 0 0,-15 20,20 0 0 1 -10,-5 L 70,102 A 25,25 0 0 0 55,85 25,25 0 0 0 50,115 z"
       style="fill:#a30075;stroke:none"
       id="path9"
       inkscape:connector-curvature="0" />
    <line
       x1="120"
       y1="105"
       x2="125"
       y2="115"
       style="fill:none;stroke:#a30075;stroke-width:5"
       id="line11" />
  </symbol>
  <g
     id="use13"
     transform="translate(-38,-38)">
    <g
       id="g3034">
      <g
         id="g3038">
        <path
           style="font-size:medium;font-style:normal;font-variant:normal;font-weight:normal;font-stretch:normal;text-indent:0;text-align:start;text-decoration:none;line-height:normal;letter-spacing:normal;word-spacing:normal;text-transform:none;direction:ltr;block-progression:tb;writing-mode:lr-tb;text-anchor:start;baseline-shift:baseline;color:#000000;fill:#a30075;fill-opacity:1;stroke:none;stroke-width:4;marker:none;visibility:visible;display:inline;overflow:visible;enable-background:accumulate;font-family:Sans;-inkscape-font-specification:Sans"
           d="m 100,38 c -34.217965,0 -62,27.782035 -62,62 0,34.21797 27.782035,62 62,62 34.21797,0 62,-27.78203 62,-62 0,-34.217965 -27.78203,-62 -62,-62 z m 0,4 c 32.0562,0 58,25.943795 58,58 0,32.0562 -25.9438,58 -58,58 -32.056205,0 -58,-25.9438 -58,-58 0,-32.056205 25.943795,-58 58,-58 z"
           id="circle3017"
           inkscape:connector-curvature="0" />
        <path
           style="fill:#a30075;stroke:none"
           d="m 55,85 a 25,25 0 0 0 -5,30 l 68.375,-7.59375 3.34375,6.625 L 80,120 l 60,0 10,-10 -23.03125,3.28125 -3.25,-6.46875 L 140,105 a 11.25,7.5 0 0 0 0,-15 20,20 0 0 1 -10,-5 L 70,102 A 25,25 0 0 0 55,85 z"
           id="path3019"
           inkscape:connector-curvature="0" />
      </g>
    </g>
  </g>
</svg>
