<?xml version="1.0" encoding="UTF-8" standalone="no"?>
<!-- Created with Inkscape (http://www.inkscape.org/) -->

<svg
   xmlns:dc="http://purl.org/dc/elements/1.1/"
   xmlns:cc="http://creativecommons.org/ns#"
   xmlns:rdf="http://www.w3.org/1999/02/22-rdf-syntax-ns#"
   xmlns:svg="http://www.w3.org/2000/svg"
   xmlns="http://www.w3.org/2000/svg"
   xmlns:sodipodi="http://sodipodi.sourceforge.net/DTD/sodipodi-0.dtd"
   xmlns:inkscape="http://www.inkscape.org/namespaces/inkscape"
   version="1.0"
   width="120"
   height="120"
   id="svg2"
   inkscape:version="0.48.2 r9819"
   sodipodi:docname="N20.svg">
  <title
     id="title2982">N20: Anchorage Prohibited</title>
  <metadata
     id="metadata5335">
    <rdf:RDF>
      <cc:Work
         rdf:about="">
        <dc:format>image/svg+xml</dc:format>
        <dc:type
           rdf:resource="http://purl.org/dc/dcmitype/StillImage" />
        <cc:license
           rdf:resource="http://creativecommons.org/licenses/publicdomain/" />
        <dc:title>N20: Anchorage Prohibited</dc:title>
      </cc:Work>
      <cc:License
         rdf:about="http://creativecommons.org/licenses/publicdomain/">
        <cc:permits
           rdf:resource="http://creativecommons.org/ns#Reproduction" />
        <cc:permits
           rdf:resource="http://creativecommons.org/ns#Distribution" />
        <cc:permits
           rdf:resource="http://creativecommons.org/ns#DerivativeWorks" />
      </cc:License>
    </rdf:RDF>
  </metadata>
  <sodipodi:namedview
     pagecolor="#ffffff"
     bordercolor="#666666"
     borderopacity="1"
     objecttolerance="10"
     gridtolerance="10"
     guidetolerance="10"
     inkscape:pageopacity="0"
     inkscape:pageshadow="2"
     inkscape:window-width="719"
     inkscape:window-height="480"
     id="namedview5333"
     showgrid="false"
     inkscape:zoom="2.1916667"
     inkscape:cx="60"
     inkscape:cy="60"
     inkscape:window-x="334"
     inkscape:window-y="0"
     inkscape:window-maximized="0"
     inkscape:current-layer="svg2" />
  <defs
     id="defs4" />
  <path
     d="M 60,7.1156225 C 62.76,7.1156225 65,9.3556225 65,12.115623 C 65,14.875623 62.76,17.115623 60,17.115623 C 57.24,17.115623 55,14.875623 55,12.115623 C 55,9.3556225 57.24,7.1156225 60,7.1156225 z M 62.5,26.428123 L 77.35,26.246883 L 77.35,31.221882 L 62.475,31.221882 L 63.1875,52.471882 L 59.6375,56.021883 L 56.45,52.471882 L 56.8,31.221882 L 41.9125,31.221882 L 41.9125,26.246883 L 57.1875,26.303123 L 57.1875,22.240623 C 52.753189,21.011823 49.5,16.939408 49.5,12.115623 C 49.5,6.3196225 54.204,1.6156225 60,1.6156225 C 65.796,1.6156225 70.5,6.3196225 70.5,12.115623 C 70.5,17.051279 67.091818,21.181688 62.5,22.303123 L 62.5,26.428123 z M 56.0875,110.95938 L 55.3875,103.85938 L 48.3875,102.43438 L 41.825,99.996877 L 36.25,96.771878 L 17.825,118.38438 L 13.925,115.20938 L 32,93.934377 L 27.1625,88.796877 L 26.325,87.909378 L 21.0125,93.234377 L 17.1125,68.784383 L 32.7,81.196883 L 28.8125,85.071883 L 34.4875,89.259377 L 35.5375,90.034378 L 56.45,65.246882 L 13.5625,15.621883 L 17.1125,12.084383 L 59.6375,61.684382 L 101.8125,12.084383 L 105.7,15.259383 L 62.825,65.246882 L 84.0875,90.034378 L 89.675,85.696883 L 90.4625,85.071883 L 86.575,81.196883 L 102.1625,68.421882 L 98.975,93.234377 L 93.3,87.909378 L 88.3125,92.909378 L 87.275,93.934377 L 105.7,115.20938 L 102.1625,118.38438 L 83.375,96.771878 L 77.175,100.23438 L 70.55,102.58438 L 63.8875,103.85938 L 63.1875,110.95938 L 56.0875,110.95938 M 39.7875,92.521878 L 46.3875,95.159378 L 53.3,96.546877 L 55.3875,96.771878 L 55.7375,79.046882 L 59.6375,74.459383 L 63.5375,79.046882 L 63.8875,96.771878 L 70.875,95.559377 L 77.575,93.309377 L 79.4875,92.521878 L 59.6375,69.134383 L 39.7875,92.521878 z"
     id="path2630"
     style="fill:#a30075;fill-opacity:1;fill-rule:evenodd;stroke:none" />
</svg>
