<?xml version="1.0" encoding="UTF-8" standalone="no"?>
<!-- Created with Inkscape (http://www.inkscape.org/) -->

<svg
   xmlns:dc="http://purl.org/dc/elements/1.1/"
   xmlns:cc="http://creativecommons.org/ns#"
   xmlns:rdf="http://www.w3.org/1999/02/22-rdf-syntax-ns#"
   xmlns:svg="http://www.w3.org/2000/svg"
   xmlns="http://www.w3.org/2000/svg"
   xmlns:sodipodi="http://sodipodi.sourceforge.net/DTD/sodipodi-0.dtd"
   xmlns:inkscape="http://www.inkscape.org/namespaces/inkscape"
   version="1.0"
   width="140"
   height="140"
   id="svg2"
   inkscape:version="0.48.2 r9819"
   sodipodi:docname="N21.svg">
  <title
     id="title2982">N21: Fishing Prohibited</title>
  <metadata
     id="metadata5356">
    <rdf:RDF>
      <cc:Work
         rdf:about="">
        <dc:format>image/svg+xml</dc:format>
        <dc:type
           rdf:resource="http://purl.org/dc/dcmitype/StillImage" />
        <cc:license
           rdf:resource="http://creativecommons.org/licenses/publicdomain/" />
        <dc:title>N21: Fishing Prohibited</dc:title>
      </cc:Work>
      <cc:License
         rdf:about="http://creativecommons.org/licenses/publicdomain/">
        <cc:permits
           rdf:resource="http://creativecommons.org/ns#Reproduction" />
        <cc:permits
           rdf:resource="http://creativecommons.org/ns#Distribution" />
        <cc:permits
           rdf:resource="http://creativecommons.org/ns#DerivativeWorks" />
      </cc:License>
    </rdf:RDF>
  </metadata>
  <sodipodi:namedview
     pagecolor="#ffffff"
     bordercolor="#666666"
     borderopacity="1"
     objecttolerance="10"
     gridtolerance="10"
     guidetolerance="10"
     inkscape:pageopacity="0"
     inkscape:pageshadow="2"
     inkscape:window-width="719"
     inkscape:window-height="480"
     id="namedview5354"
     showgrid="false"
     inkscape:zoom="1.8785714"
     inkscape:cx="70"
     inkscape:cy="70"
     inkscape:window-x="0"
     inkscape:window-y="0"
     inkscape:window-maximized="0"
     inkscape:current-layer="svg2" />
  <defs
     id="defs4" />
  <path
     d="M 1.78125,92.15 L 0.36875,87.1875 L 28.70625,70.1875 L 0.36875,52.475 L 1.78125,47.15 L 33.66875,66.9875 L 48.20625,58.15 L 51.75625,61.675 L 38.28125,69.825 L 52.10625,78.3375 L 48.20625,81.875 L 33.31875,72.6625 L 1.78125,92.15 z M 21.98125,113.0625 L 65.21875,69.825 L 21.98125,26.95 L 25.51875,23.4 L 68.75625,66.6375 L 111.99375,23.4 L 115.53125,26.6 L 71.94375,70.1875 L 115.18125,113.0625 L 111.99375,116.6 L 68.75625,73.375 L 25.51875,116.6 L 21.98125,113.0625 z M 59.55625,87.55 L 63.44375,83.65 L 70.31875,85.2875 L 76.90625,86.8375 L 82.21875,92.5125 L 75.16875,91.8375 L 68.25625,90.425 L 61.50625,88.2375 L 59.55625,87.55 z M 63.08125,56.3625 L 59.55625,52.475 L 66.21875,50.0625 L 73.09375,48.5 L 80.15625,47.7 L 82.58125,47.5 L 77.26875,52.8125 L 70.41875,54.5375 L 63.56875,56.2375 L 63.08125,56.3625 z M 98.51875,91.45 L 94.26875,87.1875 L 92.20625,80.4125 L 90.99375,73.4375 L 91.06875,66.3125 L 92.30625,59.325 L 94.25625,52.5125 L 98.51875,48.2125 L 105.41875,49.85 L 112.16875,51.9625 L 118.69375,54.7625 L 124.94375,58.15 L 130.79375,62.1375 L 136.20625,66.7 L 139.63125,69.825 L 134.36875,74.575 L 128.84375,79.025 L 122.90625,82.9 L 116.54375,86.05 L 109.89375,88.475 L 103.09375,90.35 L 98.51875,91.45 z M 99.23125,86.4875 L 106.09375,84.6625 L 112.80625,82.4 L 119.23125,79.3875 L 125.24375,75.6125 L 130.83125,71.25 L 132.54375,69.825 L 126.86875,65.5125 L 120.96875,61.6375 L 114.68125,58.525 L 108.04375,56.075 L 101.21875,54 L 99.58125,53.525 L 97.43125,60.2875 L 96.19375,67.225 L 96.38125,74.3375 L 97.76875,81.275 L 99.23125,86.4875 z M 115.53125,65.575 L 115.04375,67.5625 L 113.69375,69.075 L 111.79375,69.8 L 109.76875,69.55 L 108.09375,68.4 L 107.15625,66.5875 L 107.15625,64.5625 L 108.09375,62.75 L 109.76875,61.6 L 111.79375,61.3375 L 113.69375,62.075 L 115.04375,63.6 L 115.53125,65.575 z"
     id="path19763"
     style="fill:#a30075;fill-opacity:1;fill-rule:evenodd;stroke:none" />
</svg>
