<?xml version="1.0" encoding="UTF-8" standalone="no"?>
<!-- Created with Inkscape (http://www.inkscape.org/) -->

<svg
   xmlns:dc="http://purl.org/dc/elements/1.1/"
   xmlns:cc="http://creativecommons.org/ns#"
   xmlns:rdf="http://www.w3.org/1999/02/22-rdf-syntax-ns#"
   xmlns:svg="http://www.w3.org/2000/svg"
   xmlns="http://www.w3.org/2000/svg"
   xmlns:sodipodi="http://sodipodi.sourceforge.net/DTD/sodipodi-0.dtd"
   xmlns:inkscape="http://www.inkscape.org/namespaces/inkscape"
   width="50"
   height="50"
   id="svg10615"
   version="1.1"
   inkscape:version="0.48.2 r9819"
   sodipodi:docname="N22_PSSA_green.svg">
  <title
     id="title2987">N22: Particularly Sensitive Sea Area</title>
  <defs
     id="defs10617" />
  <sodipodi:namedview
     id="base"
     pagecolor="#ffffff"
     bordercolor="#666666"
     borderopacity="1.0"
     inkscape:pageopacity="0.0"
     inkscape:pageshadow="2"
     inkscape:zoom="11"
     inkscape:cx="9"
     inkscape:cy="25"
     inkscape:document-units="px"
     inkscape:current-layer="layer1"
     showgrid="false"
     inkscape:window-width="1440"
     inkscape:window-height="808"
     inkscape:window-x="0"
     inkscape:window-y="0"
     inkscape:window-maximized="1" />
  <metadata
     id="metadata10620">
    <rdf:RDF>
      <cc:Work
         rdf:about="">
        <dc:format>image/svg+xml</dc:format>
        <dc:type
           rdf:resource="http://purl.org/dc/dcmitype/StillImage" />
        <dc:title>N22: Particularly Sensitive Sea Area</dc:title>
        <cc:license
           rdf:resource="http://creativecommons.org/licenses/publicdomain/" />
      </cc:Work>
      <cc:License
         rdf:about="http://creativecommons.org/licenses/publicdomain/">
        <cc:permits
           rdf:resource="http://creativecommons.org/ns#Reproduction" />
        <cc:permits
           rdf:resource="http://creativecommons.org/ns#Distribution" />
        <cc:permits
           rdf:resource="http://creativecommons.org/ns#DerivativeWorks" />
      </cc:License>
    </rdf:RDF>
  </metadata>
  <g
     inkscape:label="Layer 1"
     inkscape:groupmode="layer"
     id="layer1"
     transform="translate(0,-1002.3622)">
    <g
       style="font-size:18px;font-style:oblique;font-weight:normal;line-height:125%;letter-spacing:0px;word-spacing:0px;fill:#008000;fill-opacity:1;stroke:none;font-family:Sans;-inkscape-font-specification:Sans Oblique"
       id="text10623">
      <path
         d="m 1.5782665,1034.9578 2.6982422,-12.8848 5.3789062,0 c 0.9316311,0 1.6303611,0.1069 2.0961911,0.3208 0.465809,0.2139 0.851063,0.5801 1.155762,1.0986 0.304675,0.5186 0.457019,1.1001 0.457031,1.7447 -1.2e-5,0.5332 -0.108411,1.0752 -0.325195,1.6259 -0.216809,0.5508 -0.490734,1.0049 -0.821777,1.3623 -0.331066,0.3575 -0.666515,0.627 -1.006348,0.8086 -0.339854,0.1817 -0.703135,0.3164 -1.089844,0.4043 -0.8261801,0.1934 -1.6611402,0.2901 -2.5048826,0.2901 l -3.2255859,0 -1.0898437,5.2295 z m 3.1201172,-6.6885 2.8388672,0 c 1.1015546,0 1.9101476,-0.1187 2.4257812,-0.356 0.5156149,-0.2373 0.9287009,-0.5991 1.2392579,-1.0854 0.310536,-0.4863 0.465809,-1.002 0.46582,-1.5469 -1.1e-5,-0.4219 -0.08204,-0.7661 -0.246093,-1.0327 -0.164073,-0.2666 -0.395519,-0.4629 -0.694336,-0.5889 -0.298838,-0.1259 -0.8730564,-0.1889 -1.7226567,-0.1889 l -3.3046875,0 z"
         style=""
         id="path2985" />
      <path
         d="m 14.093892,1030.7917 1.6875,-0.1582 -0.01758,0.4483 c -3e-6,0.498 0.114255,0.9536 0.342774,1.3667 0.228512,0.4131 0.606441,0.7324 1.133789,0.958 0.527339,0.2256 1.154291,0.3384 1.880859,0.3384 1.031243,0 1.817863,-0.2256 2.359864,-0.6768 0.541983,-0.4512 0.812978,-0.9668 0.812988,-1.5469 -10e-6,-0.4043 -0.143564,-0.7734 -0.430664,-1.1074 -0.292978,-0.3281 -1.092782,-0.7734 -2.399414,-1.3359 -1.013678,-0.4395 -1.705083,-0.7764 -2.074219,-1.0108 -0.580082,-0.3808 -1.007816,-0.7954 -1.283203,-1.2436 -0.275394,-0.4482 -0.413089,-0.9595 -0.413086,-1.5337 -3e-6,-0.6621 0.181637,-1.2598 0.544922,-1.793 0.363277,-0.5332 0.895015,-0.9404 1.595215,-1.2217 0.700189,-0.2812 1.489739,-0.4218 2.368652,-0.4218 1.04882,0 1.933584,0.1758 2.654297,0.5273 0.720692,0.3516 1.243641,0.8203 1.568847,1.4063 0.325184,0.5859 0.487781,1.1455 0.487793,1.6787 -1.2e-5,0.053 -0.0029,0.1406 -0.0088,0.2636 l -1.661132,0.1319 c -1.1e-5,-0.3633 -0.03224,-0.6475 -0.09668,-0.8526 -0.117198,-0.3574 -0.298838,-0.6591 -0.544922,-0.9052 -0.246103,-0.2461 -0.584482,-0.4439 -1.015137,-0.5933 -0.430672,-0.1494 -0.912605,-0.2241 -1.4458,-0.2241 -0.937507,0 -1.666998,0.2109 -2.188477,0.6328 -0.398442,0.3223 -0.597661,0.75 -0.597656,1.2832 -5e-6,0.3164 0.08203,0.5991 0.246093,0.8481 0.164058,0.2491 0.459956,0.4937 0.887696,0.7339 0.304681,0.17 1.028313,0.5069 2.170898,1.0108 0.925773,0.4101 1.564444,0.7324 1.916016,0.9668 0.46874,0.3105 0.829091,0.687 1.081055,1.1294 0.251942,0.4424 0.377918,0.9448 0.377929,1.5073 -1.1e-5,0.6973 -0.212413,1.3403 -0.637207,1.9292 -0.424815,0.5889 -1.012216,1.0444 -1.762207,1.3667 -0.750008,0.3223 -1.608406,0.4834 -2.575195,0.4834 -1.458989,0 -2.649906,-0.3179 -3.572754,-0.9536 -0.922853,-0.6358 -1.387208,-1.7798 -1.393066,-3.4322 z"
         style=""
         id="path2987" />
      <path
         d="m 26.117329,1030.7917 1.6875,-0.1582 -0.01758,0.4483 c -3e-6,0.498 0.114255,0.9536 0.342773,1.3667 0.228512,0.4131 0.606442,0.7324 1.133789,0.958 0.527339,0.2256 1.154292,0.3384 1.88086,0.3384 1.031242,0 1.817863,-0.2256 2.359863,-0.6768 0.541983,-0.4512 0.812979,-0.9668 0.812988,-1.5469 -9e-6,-0.4043 -0.143564,-0.7734 -0.430664,-1.1074 -0.292977,-0.3281 -1.092781,-0.7734 -2.399414,-1.3359 -1.013677,-0.4395 -1.705083,-0.7764 -2.074219,-1.0108 -0.580082,-0.3808 -1.007816,-0.7954 -1.283203,-1.2436 -0.275393,-0.4482 -0.413088,-0.9595 -0.413086,-1.5337 -2e-6,-0.6621 0.181638,-1.2598 0.544922,-1.793 0.363278,-0.5332 0.895015,-0.9404 1.595215,-1.2217 0.70019,-0.2812 1.48974,-0.4218 2.368652,-0.4218 1.04882,0 1.933585,0.1758 2.654297,0.5273 0.720693,0.3516 1.243641,0.8203 1.568848,1.4063 0.325183,0.5859 0.487781,1.1455 0.487793,1.6787 -1.2e-5,0.053 -0.0029,0.1406 -0.0088,0.2636 l -1.661133,0.1319 c -10e-6,-0.3633 -0.03224,-0.6475 -0.09668,-0.8526 -0.117197,-0.3574 -0.298838,-0.6591 -0.544921,-0.9052 -0.246104,-0.2461 -0.584482,-0.4439 -1.015137,-0.5933 -0.430673,-0.1494 -0.912606,-0.2241 -1.445801,-0.2241 -0.937506,0 -1.666998,0.2109 -2.188477,0.6328 -0.398442,0.3223 -0.59766,0.75 -0.597656,1.2832 -4e-6,0.3164 0.08203,0.5991 0.246094,0.8481 0.164058,0.2491 0.459956,0.4937 0.887695,0.7339 0.304682,0.17 1.028314,0.5069 2.170899,1.0108 0.925772,0.4101 1.564443,0.7324 1.916015,0.9668 0.46874,0.3105 0.829091,0.687 1.081055,1.1294 0.251942,0.4424 0.377918,0.9448 0.37793,1.5073 -1.2e-5,0.6973 -0.212414,1.3403 -0.637207,1.9292 -0.424815,0.5889 -1.012217,1.0444 -1.762207,1.3667 -0.750008,0.3223 -1.608406,0.4834 -2.575196,0.4834 -1.458989,0 -2.649906,-0.3179 -3.572754,-0.9536 -0.922853,-0.6358 -1.387208,-1.7798 -1.393066,-3.4322 z"
         style=""
         id="path2989" />
      <path
         d="m 36.51479,1034.9578 7.303711,-12.8848 2.030273,0 2.126953,12.8848 -1.669921,0 -0.624024,-3.709 -5.211914,0 -2.06543,3.709 z m 4.693359,-5.0362 4.262696,0 -0.500977,-3.2343 c -0.193367,-1.2832 -0.313484,-2.3526 -0.360351,-3.2081 -0.292977,0.7383 -0.720711,1.6143 -1.283204,2.628 z"
         style=""
         id="path2991" />
    </g>
  </g>
</svg>
