<?xml version="1.0" encoding="UTF-8" standalone="no"?>
<!-- Generator: Adobe Illustrator 12.0.0, SVG Export Plug-In . SVG Version: 6.00 Build 51448)  -->

<svg
   xmlns:dc="http://purl.org/dc/elements/1.1/"
   xmlns:cc="http://creativecommons.org/ns#"
   xmlns:rdf="http://www.w3.org/1999/02/22-rdf-syntax-ns#"
   xmlns:svg="http://www.w3.org/2000/svg"
   xmlns="http://www.w3.org/2000/svg"
   xmlns:sodipodi="http://sodipodi.sourceforge.net/DTD/sodipodi-0.dtd"
   xmlns:inkscape="http://www.inkscape.org/namespaces/inkscape"
   height="339.716"
   id="Layer_1"
   inkscape:version="0.48.2 r9819"
   sodipodi:docname="N22_duck_green.svg"
   sodipodi:version="0.32"
   space="preserve"
   style="overflow: visible;"
   version="1.1"
   viewBox="0 0 409.156 339.716"
   width="409.156">
  <title
     id="title2982">N22: Bird Sanctuary</title>
  <metadata
     id="metadata11261">
    <rdf:RDF>
      <cc:Work
         rdf:about="">
        <dc:title>N22: Bird Sanctuary</dc:title>
        <dc:description />
        <dc:subject>
          <rdf:Bag>
            <rdf:li />
          </rdf:Bag>
        </dc:subject>
        <dc:publisher>
          <cc:Agent
             rdf:about="http://www.openclipart.org/">
            <dc:title />
          </cc:Agent>
        </dc:publisher>
        <dc:creator>
          <cc:Agent>
            <dc:title />
          </cc:Agent>
        </dc:creator>
        <dc:rights>
          <cc:Agent>
            <dc:title />
          </cc:Agent>
        </dc:rights>
        <dc:date />
        <dc:format>image/svg+xml</dc:format>
        <dc:type
           rdf:resource="http://purl.org/dc/dcmitype/StillImage" />
        <cc:license
           rdf:resource="http://creativecommons.org/licenses/publicdomain/" />
        <dc:language />
      </cc:Work>
      <cc:License
         rdf:about="http://creativecommons.org/licenses/publicdomain/">
        <cc:permits
           rdf:resource="http://creativecommons.org/ns#Reproduction" />
        <cc:permits
           rdf:resource="http://creativecommons.org/ns#Distribution" />
        <cc:permits
           rdf:resource="http://creativecommons.org/ns#DerivativeWorks" />
      </cc:License>
    </rdf:RDF>
  </metadata>
  <defs
     id="defs10" />
  <sodipodi:namedview
     bordercolor="#666666"
     borderopacity="1.0"
     id="base"
     inkscape:current-layer="Layer_1"
     inkscape:cx="-36.0205"
     inkscape:cy="169.87078"
     inkscape:pageopacity="0.0"
     inkscape:pageshadow="2"
     inkscape:window-height="808"
     inkscape:window-width="1440"
     inkscape:window-x="0"
     inkscape:window-y="0"
     inkscape:zoom="1.4629875"
     pagecolor="#ffffff"
     showgrid="false"
     inkscape:window-maximized="1" />
  <path
     style="fill-rule:evenodd;stroke:none;stroke-opacity:1;fill:#008000;fill-opacity:1"
     d="M 310.5 0 C 286.34493 0.36378736 260.66944 22.727437 269 47.75 C 274.433 64.067 285.25 75.7895 285.25 93.6875 C 285.25 111.0295 286.94775 132.2845 272.59375 144.8125 C 260.08975 155.7295 244.03975 152.06025 229.09375 149.78125 C 209.58775 146.80725 191.69325 152.15625 172.90625 157.53125 C 152.84525 163.26925 133.61075 171.22825 115.59375 181.78125 C 108.48975 185.94125 96.54875 198.0975 89.21875 199.5625 C 85.00075 200.4045 76.7945 196.46925 72.5625 195.40625 C 69.0725 194.53025 64.0615 196.673 60.5625 197.375 C 71.5435 201.053 82.204 204.17075 93.625 206.21875 C 88.77 225.19875 45.9175 205.44425 31.9375 201.78125 C 44.1875 210.56525 58.48175 214.5445 71.59375 221.6875 C 50.29875 217.0075 21.322 204.636 0 206.75 C 13.346 219.833 37.47225 226.465 53.40625 237.75 C 35.32425 244.463 66.52425 258.91375 72.15625 260.96875 C 71.28225 261.32975 70.263 261.33425 69.375 261.53125 C 77.641 272.05825 108.0015 274.81525 121.1875 277.90625 C 131.3595 280.29125 141.62875 282.2385 151.84375 284.4375 C 161.67875 286.5545 171.76275 282.85975 181.71875 283.09375 C 182.21373 283.10543 182.69709 283.1088 183.1875 283.125 C 180.08757 297.12538 176.89805 310.14818 182.8125 324.5625 C 175.4075 325.8845 168.52075 329.7305 161.34375 332.3125 C 166.77975 335.1785 174.736 336.07475 180.625 337.84375 C 189.945 340.64375 187.805 339.74025 198.25 338.40625 C 204.487 337.60925 210.1245 341.2145 215.3125 338.9375 C 221.5725 336.1895 218.19575 324.80675 229.09375 335.09375 C 230.13708 330.95325 233.17508 327.80701 237.1875 327 C 244.8689 331.32753 256.07506 328.44396 262.40625 334.8125 C 261.01925 333.4175 280.3795 329.44875 284.6875 331.21875 C 285.4345 325.40175 290.77725 322.67925 296.28125 322.90625 C 285.57325 321.87425 274.8295 319.03125 264.0625 319.03125 C 256.6735 319.03125 246.28525 322.35675 240.65625 316.84375 C 233.14155 309.4852 237.85935 295.10521 239.875 284.3125 C 240.13575 284.26358 240.39422 284.23916 240.65625 284.1875 C 257.01725 280.9615 272.77825 274.18575 287.28125 266.09375 C 318.91525 248.44575 344.3265 213.036 340.3125 175.25 C 338.2095 155.448 325.2585 139.678 321.0625 120.75 C 316.7425 101.262 320.17725 81.59875 318.28125 61.84375 C 329.77725 60.71675 337.49325 59.58875 348.03125 62.96875 C 357.18625 65.90475 366.0595 69.0405 375.5625 70.6875 C 384.7685 70.1805 409.15625 72.1285 409.15625 58.8125 C 409.15625 49.9255 399.46625 49.0425 392.90625 48.3125 C 377.95725 46.6495 365.77775 47.17 355.46875 34.75 C 346.55975 24.018 339.4955 9.9900001 326.5625 3.5 C 321.58756 1.003625 316.07425 -0.083950929 310.5 0 z M 196.0625 284 C 204.6985 284.7839 212.8895 285.77819 221.375 285.875 C 222.4565 286.98219 223.58887 288.05319 224.65625 289.125 C 229.37625 293.865 226.87125 300.81225 226.40625 306.90625 C 225.81663 314.62098 229.71688 322.03413 235.90625 326.21875 C 222.03661 324.57845 200.84521 327.36598 194.40625 312.96875 C 191.17925 305.75575 194.5495 295.73725 196.3125 288.65625 C 196.68995 287.14007 196.49127 285.58965 196.0625 284 z "
     id="path3" />
</svg>
