<?xml version="1.0" encoding="UTF-8" standalone="no"?>
<!-- Created with Inkscape (http://www.inkscape.org/) -->

<svg
   xmlns:dc="http://purl.org/dc/elements/1.1/"
   xmlns:cc="http://creativecommons.org/ns#"
   xmlns:rdf="http://www.w3.org/1999/02/22-rdf-syntax-ns#"
   xmlns:svg="http://www.w3.org/2000/svg"
   xmlns="http://www.w3.org/2000/svg"
   xmlns:sodipodi="http://sodipodi.sourceforge.net/DTD/sodipodi-0.dtd"
   xmlns:inkscape="http://www.inkscape.org/namespaces/inkscape"
   version="1.0"
   width="140"
   height="140"
   id="svg2"
   inkscape:version="0.48.2 r9819"
   sodipodi:docname="N45.svg">
  <title
     id="title2982">N45: Fishery Zone</title>
  <metadata
     id="metadata4468">
    <rdf:RDF>
      <cc:Work
         rdf:about="">
        <dc:format>image/svg+xml</dc:format>
        <dc:type
           rdf:resource="http://purl.org/dc/dcmitype/StillImage" />
        <cc:license
           rdf:resource="http://creativecommons.org/licenses/publicdomain/" />
        <dc:title>N45: Fishery Zone</dc:title>
      </cc:Work>
      <cc:License
         rdf:about="http://creativecommons.org/licenses/publicdomain/">
        <cc:permits
           rdf:resource="http://creativecommons.org/ns#Reproduction" />
        <cc:permits
           rdf:resource="http://creativecommons.org/ns#Distribution" />
        <cc:permits
           rdf:resource="http://creativecommons.org/ns#DerivativeWorks" />
      </cc:License>
    </rdf:RDF>
  </metadata>
  <sodipodi:namedview
     pagecolor="#ffffff"
     bordercolor="#666666"
     borderopacity="1"
     objecttolerance="10"
     gridtolerance="10"
     guidetolerance="10"
     inkscape:pageopacity="0"
     inkscape:pageshadow="2"
     inkscape:window-width="719"
     inkscape:window-height="480"
     id="namedview4466"
     showgrid="false"
     inkscape:zoom="1.8785714"
     inkscape:cx="70"
     inkscape:cy="70"
     inkscape:window-x="347"
     inkscape:window-y="0"
     inkscape:window-maximized="0"
     inkscape:current-layer="svg2" />
  <defs
     id="defs4" />
  <path
     d="M 1.9812475,92.38125 L 0.5562475,87.43125 L 28.918747,70.04375 L 0.1812475,52.34375 L 1.6062475,47.39375 L 33.506247,67.20625 L 45.556247,59.76875 L 51.631247,56.10625 L 57.981247,53.00625 L 64.693747,50.68125 L 71.631247,48.99375 L 78.643747,47.96875 L 85.756247,47.55625 L 92.856247,47.78125 L 99.906247,48.63125 L 106.85625,50.14375 L 113.63124,52.29375 L 120.18124,55.13125 L 126.35624,58.64375 L 132.05624,62.84375 L 137.33125,67.58125 L 139.81875,69.99375 L 134.59374,74.78125 L 129.06874,79.19375 L 123.11875,83.08125 L 116.78124,86.30625 L 110.16874,88.86875 L 103.30624,90.79375 L 96.306247,92.01875 L 89.231247,92.60625 L 82.131247,92.50625 L 75.056247,91.74375 L 68.081247,90.33125 L 61.281247,88.23125 L 54.743747,85.44375 L 48.506247,82.13125 L 43.093747,78.90625 L 33.506247,73.24375 L 1.9812475,92.38125 z M 38.468747,70.04375 L 47.331247,75.70625 L 53.568747,79.10625 L 59.968747,82.13125 L 66.631247,84.54375 L 73.493747,86.38125 L 80.506247,87.54375 L 87.556247,87.79375 L 94.468747,87.38125 L 92.643747,80.54375 L 91.418747,73.53125 L 91.268747,66.45625 L 92.493747,59.49375 L 94.443747,52.65625 L 94.456247,52.63125 L 87.368747,52.56875 L 80.293747,52.78125 L 73.293747,53.63125 L 66.381247,55.36875 L 59.756247,57.88125 L 53.456247,61.08125 L 47.306247,64.64375 L 46.631247,65.06875 L 38.468747,70.04375 M 99.793747,86.30625 L 106.65624,84.56875 L 113.39374,82.41875 L 119.86874,79.49375 L 125.90625,75.75625 L 131.34374,71.24375 L 132.73124,69.99375 L 127.25624,65.48125 L 121.43124,61.46875 L 115.08124,58.28125 L 108.40625,55.90625 L 101.56874,54.13125 L 99.781247,53.70625 L 97.518747,60.43125 L 96.418747,67.43125 L 96.806247,74.50625 L 98.343747,81.41875 L 99.793747,86.30625 z M 115.71874,65.74375 L 115.23124,67.71875 L 113.89375,69.23125 L 111.98124,69.96875 L 109.96875,69.73125 L 108.28125,68.58125 L 107.34375,66.76875 L 107.34375,64.74375 L 108.28125,62.94375 L 109.95624,61.76875 L 111.98124,61.51875 L 113.89375,62.25625 L 115.23124,63.76875 L 115.71874,65.74375 z"
     id="path22396"
     style="fill:#a30075;fill-opacity:1;fill-rule:evenodd;stroke:none" />
</svg>
