<?xml version="1.0" encoding="UTF-8" standalone="no"?>
<!-- Created with Inkscape (http://www.inkscape.org/) -->

<svg
   xmlns:dc="http://purl.org/dc/elements/1.1/"
   xmlns:cc="http://creativecommons.org/ns#"
   xmlns:rdf="http://www.w3.org/1999/02/22-rdf-syntax-ns#"
   xmlns:svg="http://www.w3.org/2000/svg"
   xmlns="http://www.w3.org/2000/svg"
   xmlns:sodipodi="http://sodipodi.sourceforge.net/DTD/sodipodi-0.dtd"
   xmlns:inkscape="http://www.inkscape.org/namespaces/inkscape"
   width="61.901981"
   height="43.1745"
   id="svg2184"
   sodipodi:version="0.32"
   inkscape:version="0.48.2 r9819"
   sodipodi:modified="true"
   version="1.0"
   sodipodi:docname="Nb_no.svg">
  <title
     id="title2988">Nb: No Diving Zone (Norwegian Symbol)</title>
  <defs
     id="defs2186" />
  <sodipodi:namedview
     id="base"
     pagecolor="#ffffff"
     bordercolor="#666666"
     borderopacity="1.0"
     inkscape:pageopacity="0.0"
     inkscape:pageshadow="2"
     inkscape:zoom="11.974661"
     inkscape:cx="1.5555869"
     inkscape:cy="21.58725"
     inkscape:document-units="px"
     inkscape:current-layer="layer1"
     inkscape:window-width="1280"
     inkscape:window-height="715"
     inkscape:window-x="-8"
     inkscape:window-y="0"
     showgrid="false"
     inkscape:window-maximized="0" />
  <metadata
     id="metadata2189">
    <rdf:RDF>
      <cc:Work
         rdf:about="">
        <dc:format>image/svg+xml</dc:format>
        <dc:type
           rdf:resource="http://purl.org/dc/dcmitype/StillImage" />
        <dc:title>Nb: No Diving Zone (Norwegian Symbol)</dc:title>
        <cc:license
           rdf:resource="http://creativecommons.org/licenses/publicdomain/" />
      </cc:Work>
      <cc:License
         rdf:about="http://creativecommons.org/licenses/publicdomain/">
        <cc:permits
           rdf:resource="http://creativecommons.org/ns#Reproduction" />
        <cc:permits
           rdf:resource="http://creativecommons.org/ns#Distribution" />
        <cc:permits
           rdf:resource="http://creativecommons.org/ns#DerivativeWorks" />
      </cc:License>
    </rdf:RDF>
  </metadata>
  <g
     inkscape:label="Camada 1"
     inkscape:groupmode="layer"
     id="layer1"
     transform="translate(-166.19188,-125.23291)">
    <g
       style="display:inline;fill:#800080;fill-opacity:1"
       id="g3878-1-2-7-4-3-0-7"
       transform="matrix(0.1855047,6.894441e-2,-6.894441e-2,0.1855047,269.59672,212.51485)">
      <path
         sodipodi:nodetypes="csssssscsssssssccsssssssscc"
         inkscape:connector-curvature="0"
         id="path2997-7-45-7-5-8-2-8"
         d="M -458.11253,-183.60127 C -458.11253,-183.60127 -462.75464,-183.77119 -465.07682,-183.77984 C -466.71398,-183.78584 -468.3528,-183.60109 -469.98753,-183.69054 C -471.156,-183.75444 -472.41926,-183.62114 -473.46967,-184.13697 C -474.33863,-184.56366 -474.77086,-185.58139 -475.52325,-186.19054 C -478.66706,-188.73582 -481.76747,-190.80078 -485.38615,-192.60829 C -488.87334,-194.35012 -493.78205,-195.28359 -497.44157,-196.62614 C -503.1875,-198.73412 -513.9161,-203.15483 -513.9161,-203.15483 C -513.9161,-203.15483 -512.60153,-205.38688 -512.84467,-206.54769 C -513.10411,-207.7863 -513.41945,-208.60114 -514.58706,-209.08916 C -516.87036,-210.0435 -520.28166,-209.02816 -522.75539,-208.9584 C -530.63921,-208.73604 -538.54443,-208.55678 -546.4161,-209.0477 C -551.59265,-209.37054 -555.93173,-209.9717 -561.04178,-210.85957 C -564.4671,-211.45471 -568.81843,-211.82569 -572.28981,-212.56082 C -575.1264,-213.16153 -577.90248,-214.21536 -580.72348,-214.55091 C -582.91065,-214.81107 -586.95182,-215.20842 -586.95182,-215.20842 C -589.06495,-214.16947 -589.69982,-212.59298 -588.11253,-210.20842 C -588.11253,-210.20842 -583.66803,-208.59512 -581.36414,-208.3482 C -575.18776,-207.68626 -571.07631,-206.83403 -565.89617,-206.1385 C -559.32419,-205.25609 -554.78658,-204.45781 -548.28164,-203.17118 C -544.61637,-202.44622 -539.70109,-201.85261 -536.22294,-200.48796 C -533.10214,-199.26352 -529.20623,-197.32659 -526.15298,-195.94227 C -522.39315,-194.2376 -518.63246,-193.21967 -514.88347,-191.49129 C -509.71556,-189.10875 -504.89316,-186.03524 -499.98372,-183.15753 C -496.23466,-180.95999 -492.48144,-178.7591 -488.87204,-176.339 C -486.95853,-175.05599 -483.2911,-172.26199 -483.2911,-172.26199 L -477.93396,-167.26199"
         style="fill:#800080;stroke:#ffffff;stroke-width:0.60000002;stroke-linecap:butt;stroke-linejoin:miter;stroke-miterlimit:4;stroke-dasharray:none;stroke-opacity:1;fill-opacity:1" />
      <path
         sodipodi:nodetypes="cssssssssssssssssssscscssssccccsccsssssssssccccccccsssccccssssssssssscssssssssssscc"
         inkscape:connector-curvature="0"
         id="path3000-4-5-1-2-6-0-7"
         d="M -592.0411,-94.047707 C -592.0411,-94.047707 -579.79278,-93.937127 -573.82682,-95.119127 C -568.63809,-96.147137 -563.53802,-97.892647 -558.82682,-100.29771 C -553.84085,-102.84304 -549.42065,-106.40931 -545.07682,-109.94056 C -539.94669,-114.11103 -535.58732,-119.15739 -530.61253,-123.51199 C -525.583,-127.9145 -520.54852,-132.35145 -515.07682,-136.19056 C -508.43338,-140.8518 -504.79332,-143.22095 -497.75539,-147.26199 C -492.51096,-150.27324 -483.89717,-154.87148 -478.20181,-156.90485 C -474.49645,-158.22775 -470.40838,-158.31518 -466.68396,-159.58342 C -464.21433,-160.42438 -462.08893,-162.06266 -459.71967,-163.15485 C -454.45949,-165.5797 -449.01743,-167.58912 -443.64825,-169.76199 C -436.63994,-172.59821 -429.63913,-175.45588 -422.57682,-178.15485 C -418.37272,-179.76151 -414.25873,-181.68326 -409.89825,-182.79771 C -404.4745,-184.18391 -398.80311,-184.31979 -393.2911,-185.29771 C -390.65893,-185.7647 -387.99619,-186.14238 -385.43396,-186.90485 C -379.8508,-188.5663 -374.34446,-190.63133 -369.18396,-193.33342 C -363.67021,-196.22048 -358.30943,-199.56625 -353.64825,-203.69056 C -350.29743,-206.65543 -347.15787,-210.00745 -344.89825,-213.86913 C -342.78708,-217.47711 -342.81268,-222.10044 -340.61253,-225.65485 C -339.74829,-227.05105 -338.41367,-228.09904 -337.21967,-229.22628 C -336.4826,-229.92214 -334.89825,-231.19056 -334.89825,-231.19056 C -334.89825,-231.19056 -332.159,-230.48707 -330.43396,-230.2977 C -328.93711,-230.13339 -326.14825,-229.94056 -326.14825,-229.94056 C -326.14825,-229.94056 -324.34877,-226.04668 -322.57682,-225.11913 C -320.88846,-224.23533 -318.64365,-224.26287 -316.86253,-224.94056 C -315.40647,-225.49456 -314.05864,-226.71258 -313.46967,-228.15485 C -312.86166,-229.64373 -312.92486,-231.53991 -313.64825,-232.97628 C -314.16256,-233.9975 -316.32682,-235.11913 -316.32682,-235.11913 L -319.36253,-236.01199 L -317.75538,-239.04771 L -316.37146,-239.04771 C -316.37146,-239.04771 -315.82972,-238.88365 -315.65718,-239.04771 C -315.30263,-239.38483 -315.58328,-240.51357 -315.58328,-240.51357 L -317.39826,-244.04771 C -317.39826,-244.04771 -317.5253,-246.30922 -317.57683,-247.44056 C -317.64733,-248.98772 -317.20679,-250.63508 -317.7554,-252.08342 C -318.05507,-252.87456 -318.90268,-253.33762 -319.36254,-254.04771 C -320.44778,-255.72349 -320.85408,-257.79957 -322.04111,-259.40485 C -323.06743,-260.7928 -324.40662,-261.9453 -325.79111,-262.97628 C -327.33071,-264.12277 -329.01872,-265.09624 -330.79111,-265.83342 C -332.44447,-266.52109 -334.17925,-267.23306 -335.96968,-267.26199 C -337.74522,-267.29069 -339.47544,-266.60784 -341.14826,-266.01199 C -342.70321,-265.45812 -344.31036,-264.8835 -345.61254,-263.86913 C -347.07955,-262.72636 -349.18397,-259.58342 -349.18397,-259.58342 L -351.68397,-263.15485 L -356.32683,-264.94056 L -359.36254,-264.40485 L -361.68397,-267.61913 L -364.36254,-267.61913 L -365.96968,-266.36913 L -367.39826,-264.22628 C -367.39826,-264.22628 -369.64829,-265.94326 -370.96968,-266.36913 C -373.0163,-267.02874 -375.25987,-267.13069 -377.39826,-266.90485 C -380.05741,-266.62401 -382.51735,-265.35738 -385.07683,-264.58342 C -406.92245,-257.97754 -450.61254,-244.76199 -450.61254,-244.76199 C -450.21185,-236.66566 -448.69191,-228.44424 -442.93397,-219.94056 L -409.36254,-230.47628 L -409.18397,-217.26199 C -409.18397,-217.26199 -415.03053,-217.05621 -417.93397,-216.72628 C -420.09249,-216.481 -422.31605,-216.38372 -424.36254,-215.65485 C -426.62294,-214.8498 -428.7686,-213.6188 -430.61254,-212.08342 C -433.3067,-209.8401 -435.89923,-206.07813 -438.3804,-203.60128 C -442.895,-199.09454 -447.49901,-195.85524 -452.57682,-191.99414 C -455.67843,-189.63572 -459.16058,-187.86116 -462.30897,-185.56556 C -464.74295,-183.79086 -466.36131,-181.31403 -468.82683,-179.58342 C -473.94587,-175.99023 -479.61639,-173.33165 -486.32683,-171.01199 C -489.83694,-169.79861 -492.59685,-168.79956 -495.79111,-166.90485 C -500.11732,-164.33871 -504.54228,-160.69171 -508.3804,-157.44056 C -511.02097,-155.20382 -513.81988,-152.72272 -516.59469,-150.65485 C -518.63364,-149.13537 -524.54112,-144.58342 -524.54112,-144.58342 C -524.54112,-144.58342 -527.1249,-147.07752 -529.36254,-146.72628 C -530.68399,-146.51885 -532.08431,-146.15327 -533.11254,-145.29771 C -535.57657,-143.24746 -536.03386,-140.06147 -537.21968,-137.08342 C -537.85024,-135.49984 -538.51372,-133.65061 -539.18397,-132.08342 C -540.59922,-128.77425 -543.19436,-126.10538 -545.2554,-123.15485 C -547.18513,-120.39229 -549.03124,-117.56235 -551.14826,-114.94056 C -552.76318,-112.94059 -554.46204,-110.99557 -556.32683,-109.22628 C -557.83074,-107.79939 -559.30381,-106.24416 -561.14826,-105.29771 C -563.78185,-103.94633 -566.8289,-103.61299 -569.71969,-102.97628 C -572.13752,-102.44374 -574.60572,-102.17171 -577.04111,-101.72628 C -579.48704,-101.27892 -581.98769,-101.03443 -584.36254,-100.29771 C -586.22132,-99.721077 -589.71969,-97.976277 -589.71969,-97.976277 L -592.0411,-94.047707 z "
         style="fill:#800080;stroke:#ffffff;stroke-width:0.60000002;stroke-linecap:butt;stroke-linejoin:miter;stroke-miterlimit:4;stroke-dasharray:none;stroke-opacity:1;display:inline;fill-opacity:1" />
      <path
         sodipodi:nodetypes="cc"
         inkscape:connector-curvature="0"
         id="path3776-0-1-26-9-9-8-8"
         d="M -450.61253,-244.80664 C -445.37329,-236.51795 -442.89198,-228.22925 -442.88932,-219.94056"
         style="fill:#800080;stroke:#ffffff;stroke-width:0.60000002;stroke-linecap:butt;stroke-linejoin:miter;stroke-miterlimit:4;stroke-dasharray:none;stroke-opacity:1;fill-opacity:1" />
    </g>
    <path
       style="fill:#800080;fill-rule:evenodd;stroke:#800080;stroke-width:1px;stroke-linecap:butt;stroke-linejoin:miter;stroke-opacity:1;fill-opacity:1"
       d="M 181.04144,125.73291 C 219.20138,167.77791 219.20138,167.77791 219.20138,167.77791"
       id="path2196" />
    <path
       style="fill:#800080;fill-rule:evenodd;stroke:#800080;stroke-width:1px;stroke-linecap:butt;stroke-linejoin:miter;stroke-opacity:1;fill-opacity:1"
       d="M 219.80572,125.86241 C 181.64578,167.90741 181.64578,167.90741 181.64578,167.90741"
       id="path2198" />
  </g>
</svg>
