<?xml version="1.0" encoding="UTF-8" standalone="no"?>
<svg
   xmlns:dc="http://purl.org/dc/elements/1.1/"
   xmlns:cc="http://creativecommons.org/ns#"
   xmlns:rdf="http://www.w3.org/1999/02/22-rdf-syntax-ns#"
   xmlns:svg="http://www.w3.org/2000/svg"
   xmlns="http://www.w3.org/2000/svg"
   xmlns:sodipodi="http://sodipodi.sourceforge.net/DTD/sodipodi-0.dtd"
   xmlns:inkscape="http://www.inkscape.org/namespaces/inkscape"
   version="1.0"
   width="85.391609"
   height="141.31348"
   id="svg2"
   inkscape:version="0.48.2 r9819"
   sodipodi:docname="C31.8.s.svg"
   sodipodi:version="0.32"
   inkscape:output_extension="org.inkscape.output.svg.inkscape"
   sodipodi:modified="true">
  <title
     id="title2988">C31.8: Eucalypt (notable tree)</title>
  <metadata
     id="metadata3032">
    <rdf:RDF>
      <cc:Work
         rdf:about="">
        <dc:format>image/svg+xml</dc:format>
        <dc:type
           rdf:resource="http://purl.org/dc/dcmitype/StillImage" />
        <cc:license
           rdf:resource="http://creativecommons.org/licenses/publicdomain/" />
        <dc:title>C31.8: Eucalypt (notable tree)</dc:title>
      </cc:Work>
      <cc:License
         rdf:about="http://creativecommons.org/licenses/publicdomain/">
        <cc:permits
           rdf:resource="http://creativecommons.org/ns#Reproduction" />
        <cc:permits
           rdf:resource="http://creativecommons.org/ns#Distribution" />
        <cc:permits
           rdf:resource="http://creativecommons.org/ns#DerivativeWorks" />
      </cc:License>
      <cc:Work
         rdf:about="">
        <dc:format>image/svg+xml</dc:format>
        <dc:type
           rdf:resource="http://purl.org/dc/dcmitype/StillImage" />
      </cc:Work>
    </rdf:RDF>
  </metadata>
  <sodipodi:namedview
     pagecolor="#ffffff"
     bordercolor="#666666"
     borderopacity="1"
     objecttolerance="10"
     gridtolerance="10"
     guidetolerance="10"
     inkscape:pageopacity="0"
     inkscape:pageshadow="2"
     inkscape:window-width="1440"
     inkscape:window-height="808"
     id="namedview3030"
     showgrid="false"
     inkscape:zoom="3.0627563"
     inkscape:cx="102.53542"
     inkscape:cy="224.47076"
     inkscape:window-x="0"
     inkscape:window-y="0"
     inkscape:window-maximized="1"
     inkscape:current-layer="svg2" />
  <defs
     id="defs4" />
  <path
     style="opacity:1;fill:#000000;fill-opacity:1;stroke:#ffffff;stroke-width:1;stroke-miterlimit:4;stroke-dasharray:none;stroke-dashoffset:10;stroke-opacity:0"
     id="path2982"
     d="" />
  <path
     style="fill:#000000;fill-opacity:1;fill-rule:evenodd;stroke:none"
     d="M 39.25005,30.063476 L 34.25005,32.500976 C 34.07379,33.162111 33.86276,33.786937 33.6563,34.438476 C 33.52326,34.738867 33.38953,35.045576 33.25005,35.344726 C 32.55958,34.929937 31.7853,34.449037 31.1563,34.250976 C 30.47507,34.087676 30.83057,34.154886 30.1563,34.032226 L 25.62505,37.219726 C 26.27826,37.304966 25.96873,37.254106 26.62505,37.375976 C 27.4908,37.598101 29.61671,39.123734 30.43755,39.657226 C 30.46575,39.806544 30.49095,39.979033 30.53125,40.125976 C 30.74236,40.726843 31.08778,41.252976 31.4375,41.782226 C 31.79703,42.250252 32.10548,42.754368 32.46875,43.219726 C 32.92349,43.812913 33.36711,44.414155 33.90625,44.938476 C 34.4783,45.610793 36.30717,46.914957 37.09375,47.594726 C 37.09337,47.853523 37.09275,48.117175 37.09375,48.375976 C 36.43374,71.468096 40.56431,93.285026 39.6875,116.00098 C 39.6722,116.30469 39.6473,116.60321 39.625,116.90723 C 35.25396,118.19862 30.6847,122.28975 29.6875,126.00098 L -1.4210855e-014,126.00098 L -1.4210855e-014,131.65723 L 29.6875,131.65723 C 30.97482,137.19018 35.92077,141.31347 41.84375,141.31348 C 47.7687,141.31348 52.7147,137.19296 54,131.65723 L 83.84375,131.65723 L 83.84375,131.59473 L 83.84375,126.00098 L 54,126.00098 C 51.78235,120.9314 48.82193,117.72747 44.21875,116.59473 L 44.375,116.50103 C 45.86918,93.558046 42.03125,71.668646 42.03125,48.626026 C 42.02325,47.708751 41.99605,46.793379 42.00005,45.876026 C 42.00205,45.493291 42.00105,45.102504 42.00005,44.719776 C 42.36627,44.465691 42.69941,44.211047 42.9688,43.969776 C 43.32256,43.596843 43.15092,43.757544 43.5313,43.438526 C 43.89585,42.920823 44.3044,42.432758 44.6563,41.907276 C 45.01419,41.495481 45.48971,41.169267 45.75005,40.688526 C 46.26829,40.192134 46.55473,39.520044 47.00005,38.969776 C 47.40695,38.353991 47.7026,37.68623 47.87505,36.969776 C 48.02336,36.218695 48.05355,35.451218 48.06255,34.688526 C 48.06655,34.058672 48.06455,33.44338 48.06255,32.813526 L 43.0938,35.313476 C 43.0958,35.939859 43.1028,36.593381 43.0938,37.219726 C 43.0765,37.942359 43.0714,38.643935 42.87505,39.344726 C 42.65692,39.999735 42.32117,40.634869 41.9063,41.188476 C 41.50943,41.784417 41.0763,42.35221 40.62505,42.907226 C 40.47759,43.053017 40.32808,43.191784 40.18755,43.344726 L 40.00005,43.438476 C 39.52722,43.006158 39.03997,42.580909 38.62505,42.094726 C 38.12242,41.558876 37.67787,40.970429 37.25005,40.375976 C 36.90311,39.896576 36.56958,39.415338 36.2188,38.938476 C 36.06267,38.697871 35.89117,38.468747 35.75005,38.219726 C 36.36103,37.198997 37.38345,34.79267 37.7813,34.188476 C 38.04324,33.484656 38.42648,32.8306 38.68755,32.125976 C 38.83711,31.426547 39.11061,30.765664 39.25005,30.063476 z M 41.8438,121.31348 C 45.9838,121.31348 49.3438,124.67348 49.3438,128.81348 C 49.3438,132.95348 45.9838,136.31348 41.8438,136.31348 C 37.7038,136.31348 34.3438,132.95348 34.3438,128.81348 C 34.3438,124.67348 37.7038,121.31348 41.8438,121.31348 z "
     id="path90440"
     inkscape:connector-curvature="0"
     sodipodi:nodetypes="cccccccccccccccccccccsccccccccccccccccccccccccccccccccsssss" />
  <path
     sodipodi:nodetypes="cccccccscccccccccccccccccccc"
     style="fill:#000000;fill-opacity:1;stroke:#ffffff;stroke-width:1;stroke-miterlimit:4;stroke-dasharray:none;stroke-dashoffset:10;stroke-opacity:0"
     id="path3073"
     d="M 34.0029,29.220556 C 33.54026,28.447211 33.22452,27.603296 32.76944,26.826568 C 32.32636,26.1045 31.76337,25.561608 30.96654,25.273323 C 21.83405,30.15193 33.05726,22.872417 29.83696,25.830319 C 29.50901,26.325034 29.27288,26.889584 29.43118,27.482322 C 29.83401,27.988439 30.18937,28.343208 30.45262,28.963107 C 30.84899,31.383895 27.78571,31.450785 25.44081,32.600788 C 25.34291,32.648818 25.26722,32.46828 25.17573,32.408885 C 25.10053,32.360065 25.01958,32.320735 24.9415,32.276666 C 24.38929,31.821698 23.93421,31.261731 23.3478,30.849153 C 22.64896,30.409458 22.45967,30.484897 21.68932,30.569545 C 21.59192,30.575045 21.26023,30.549275 21.21183,31.028762 C 20.97167,31.667888 20.94027,32.340395 21.02751,33.010014 C 21.19832,33.63255 21.38998,34.245882 21.52078,34.878816 L 16.62946,37.490669 L 16.62946,37.490669 C 16.51236,36.846412 16.3303,36.222167 16.12242,35.601384 C 15.99798,34.853164 15.97701,34.116508 16.17012,33.373525 C 16.37654,32.683627 16.77745,32.110882 17.22925,31.556927 C 19.10593,29.898655 21.00935,28.850088 23.47824,27.698573 C 30.81522,26.337223 22.93122,31.037377 26.17534,26.272028 C 26.28077,26.16136 26.86362,25.458087 26.92984,25.416637 C 28.75205,24.27594 30.6259,22.708911 32.80166,22.158056 C 33.72492,21.971007 34.67673,21.846433 35.57744,22.201826 C 36.42497,22.619496 37.0566,23.25579 37.54881,24.064034 C 37.99006,24.82195 38.29466,25.654007 38.80731,26.369375 L 34.00289,29.220556 L 34.0029,29.220556 z "
     inkscape:connector-curvature="0" />
  <path
     sodipodi:nodetypes="ccccccccccccccccccccccccccccc"
     style="fill:#000000;fill-opacity:1;stroke:#ffffff;stroke-width:1;stroke-miterlimit:4;stroke-dasharray:none;stroke-dashoffset:10;stroke-opacity:0"
     id="path3075"
     d="M 45.74037,25.580966 C 45.93897,24.780057 46.34402,24.059088 46.78839,23.372088 C 48.41696,21.429082 50.92069,20.40526 53.24135,19.448773 C 53.85403,19.057384 54.56391,18.939516 55.27305,18.864202 C 56.0083,18.772912 56.69683,18.832132 57.26674,19.331269 C 57.69765,19.900328 57.82004,20.636629 57.97624,21.31978 C 57.87854,21.421641 58.43651,23.258151 58.2469,22.329205 C 54.52164,21.290302 58.87604,20.74411 61.31206,19.119524 C 55.56693,22.391477 56.59847,21.811154 62.16866,18.668821 C 62.86201,18.423941 63.55348,18.23067 64.28575,18.136972 C 65.04027,18.015586 65.70701,18.113922 66.32735,18.560872 C 66.92275,19.102453 67.24125,19.797764 67.44308,20.561346 C 67.60652,21.321306 67.6157,22.10142 67.62479,22.875229 C 67.62779,23.254208 67.62568,23.633195 67.62443,24.012175 L 62.68131,26.528387 L 62.68131,26.528387 C 62.68331,26.151308 62.68531,25.774229 62.68531,25.397145 C 62.68231,24.663539 62.68631,23.924664 62.56225,23.199239 C 62.41871,22.567546 62.18802,21.979727 61.65036,21.577744 C 61.07896,21.295083 60.46518,21.357976 59.85183,21.470772 C 58.4279,21.505662 61.04124,20.082399 59.7327,21.748542 C 59.49484,21.982808 59.17244,22.162159 58.96843,22.425976 C 57.46679,24.367771 61.2457,22.331426 53.75864,25.704821 C 53.18502,25.223196 53.19256,24.656515 53.08906,23.946975 C 52.96964,23.398548 52.86882,22.774206 52.55309,22.308535 C 52.03166,22.004005 51.40186,22.116419 50.83155,22.192384 C 44.28862,26.25295 53.84377,18.640205 50.76665,23.143896 L 45.74079,25.580966 L 45.74037,25.580966 z "
     inkscape:connector-curvature="0" />
  <path
     sodipodi:nodetypes="cccccccssccccccccccccccccscccccccccccc"
     style="fill:#000000;fill-opacity:1;stroke:#ffffff;stroke-width:1;stroke-miterlimit:4;stroke-dasharray:none;stroke-dashoffset:10;stroke-opacity:0"
     id="path3077"
     d="M 21.57497,15.734611 C 22.32807,15.137709 22.43695,14.642959 23.17741,14.030374 C 24.61166,12.629888 25.13629,12.166957 26.56712,10.92271 C 28.54802,9.2916554 30.58465,8.4769674 33.09908,8.2961274 C 33.83477,8.2215574 34.52865,8.2684074 35.211,8.5587024 C 39.55154,11.064956 28.97125,16.871919 34.60652,8.6982544 C 34.69142,8.6190044 34.76157,8.5203114 34.86109,8.4605124 C 38.72838,6.1368304 43.93886,3.2300144 35.42049,8.0979354 C 35.22143,8.2116894 35.79262,7.8287584 35.99074,7.7133724 C 37.67188,6.7342554 39.36317,5.7726714 41.04939,4.8023214 C 41.74786,4.5554334 42.49283,4.5320284 43.22556,4.5112004 C 43.94714,4.6043604 44.44576,5.0340144 44.76302,5.6650054 C 45.02492,6.1795674 45.27245,6.7065054 45.48329,7.2448824 C 46.4809,6.9522374 39.2879,10.642446 49.67034,4.8423944 C 50.37358,4.5713684 51.13039,4.5388364 51.87471,4.5133634 C 52.63184,4.4981434 53.3892,4.5056634 54.14641,4.5088634 C 54.87386,4.4612234 55.47557,4.7999284 55.9043,5.3659334 C 56.1764,5.9377384 56.38896,6.5465354 56.53433,7.1641594 C 56.69491,7.7457724 56.97874,8.2693274 57.28128,8.7855514 L 52.46508,11.569242 L 52.46508,11.569242 C 52.13606,11.003297 51.82177,10.429989 51.63439,9.7983024 C 51.52018,9.2569944 51.32898,8.7333984 51.11778,8.2250344 C 50.74039,7.7871394 50.20903,7.7402494 49.65779,7.7675414 C 48.23926,7.7137214 47.52655,8.7161014 47.52655,8.7161014 C 45.95841,10.301338 44.54715,11.203956 42.44632,11.998674 C 42.0708,12.140729 41.61617,11.741541 41.40339,11.541751 C 41.04194,11.067641 40.76048,10.535663 40.61721,9.9537294 C 40.41937,9.4286124 40.17119,8.9202094 39.91995,8.4196224 C 39.69374,7.9497944 39.2699,7.7636284 38.75294,7.7946944 C 28.6525,14.820894 43.51781,2.5145294 38.52,8.1043444 C 38.22941,8.7520744 38.23124,9.4506464 38.1611,10.146758 C 37.79429,12.31632 34.93015,15.725318 32.68594,13.769121 C 32.40753,13.401827 32.46244,12.898263 32.12153,12.559213 C 31.67406,12.173282 31.17794,11.846091 30.60712,11.673984 C 29.02947,12.561666 29.67988,11.552533 28.34182,12.230102 C 27.66113,12.891841 26.84612,14.849969 26.14226,15.485326 C 24.39572,15.816759 23.34235,15.902869 21.57497,15.734611 L 21.57497,15.734611 z "
     inkscape:connector-curvature="0" />
  <path
     sodipodi:nodetypes="cccccccccccccccccscccc"
     style="fill:#000000;fill-opacity:1;stroke:#ffffff;stroke-width:1;stroke-miterlimit:4;stroke-dasharray:none;stroke-dashoffset:10;stroke-opacity:0"
     id="path3085"
     d="M 17.03636,21.074172 C 16.32194,20.611586 15.6118,20.201507 14.78593,19.977889 C 11.92592,21.520163 15.69741,16.796211 14.96867,20.30229 C 14.93017,21.023235 14.97877,21.715333 14.58224,22.346898 C 8.83382,25.680503 11.16562,25.461428 7.71841,24.872561 C 0.39547,27.248291 7.71141,23.963014 6.47255,24.908631 C 6.05884,25.421399 5.97048,26.051003 5.91373,26.685576 C 5.82923,27.316292 5.90473,27.884862 6.16938,28.456226 C 6.20808,28.548996 6.24678,28.641759 6.28546,28.734525 L 1.42589,31.456022 L 1.42589,31.456022 C 1.39059,31.370262 1.35539,31.284502 1.32013,31.198741 C 1.01672,30.547788 0.8658,29.897965 0.94964,29.172683 C 0.98314,28.467793 1.02414,27.745406 1.36865,27.111888 C 1.80582,26.467829 2.34801,25.924428 2.84607,25.335483 C 4.72991,23.509487 7.26848,22.133499 9.8589,21.602058 C 10.23955,22.078173 8.05341,22.969119 10.48201,20.768928 C 10.65365,20.531182 10.86213,20.10231 11.06345,19.885774 C 12.66467,18.163557 14.64708,17.286085 16.79572,16.712916 C 17.66049,16.574557 18.52395,16.580444 19.36378,16.861262 C 20.20032,17.161001 20.93722,17.629995 21.71866,18.044629 L 17.03636,21.074172 z "
     inkscape:connector-curvature="0" />
  <path
     style="fill:#000000;fill-opacity:1;stroke:#ffffff;stroke-width:1;stroke-miterlimit:4;stroke-dasharray:none;stroke-dashoffset:10;stroke-opacity:0"
     id="path3087"
     d="M 63.05432,11.654528 C 63.20219,10.860766 63.37741,10.075714 63.61088,9.3022534 C 63.85747,8.6686794 64.01949,8.0215964 64.38162,7.4417434 C 64.74517,6.8794494 65.18772,6.3791134 65.62262,5.8730544 C 67.30409,4.1539764 69.4087,2.3228194 71.84987,2.0924614 C 72.4244,2.1515914 72.94575,2.4216824 73.52291,2.5241174 C 74.08271,2.7405724 74.54542,3.1656904 74.94089,3.6090384 C 75.35842,4.0304274 75.74846,4.0670174 76.29958,3.9556004 C 77.89724,2.9435984 80.1687,1.7739534 72.1537,6.3012394 C 72.0844,6.3403694 72.29315,6.2222794 72.353,6.1698434 C 72.48399,6.0550704 72.58509,5.9101204 72.70135,5.7804444 C 73.04503,5.2634984 73.47906,4.8208444 73.89166,4.3609394 C 75.66163,2.8077384 78.14609,1.6606104 79.99641,0.58130842 C 80.70173,0.35038842 81.07363,0.64102842 81.57938,1.0796744 C 82.03521,1.5243254 82.32892,2.0088204 82.50633,2.6198674 C 82.61204,3.2071334 82.78618,3.7779784 83.01716,4.3269954 C 83.27229,4.8740094 83.75256,5.2563004 84.08433,5.7526084 C 84.3644,6.2977684 84.51781,6.8984844 84.7729,7.4544264 C 84.8125,7.5411464 84.852,7.6278724 84.89161,7.7145954 C 84.89161,7.7145954 80.04037,10.453607 80.04037,10.453607 L 80.04037,10.453607 C 80.00117,10.367517 79.96207,10.281416 79.9229,10.195321 C 79.67882,9.6666144 79.52408,9.0996314 79.28205,8.5704764 C 78.92643,8.0506624 78.42105,7.6369354 78.15877,7.0517084 C 77.91809,6.4813864 77.71609,5.8902754 77.61702,5.2773754 C 77.4892,4.7684074 77.24579,4.3895464 76.84852,4.0409834 C 76.45197,3.7311114 76.07631,3.8130154 75.66208,4.0842234 C 77.1673,3.2031864 78.67251,2.3221494 80.17773,1.4411124 C 80.10293,1.4904524 80.02256,1.5323524 79.95318,1.5891314 C 79.73623,1.7667144 79.52992,1.9570994 79.29475,2.1139444 C 79.21615,2.1663444 79.12586,2.1984944 79.04141,2.2407724 C 78.57791,2.6188844 78.18849,3.1017464 77.81788,3.5664854 C 76.60364,5.6063684 74.14306,6.9277054 71.81196,7.2627684 C 71.17537,7.2342084 70.61063,6.9781224 70.17618,6.5045334 C 69.82983,6.1495514 69.4576,5.7983454 68.95428,5.7007804 C 68.44916,5.5790534 67.94889,5.3070124 67.43018,5.4861744 C 65.66771,6.3935114 67.17634,5.6219704 71.66683,2.9950694 C 71.75663,2.9425694 71.48161,3.0908794 71.39616,3.1501204 C 71.16122,3.3129964 70.93546,3.5128634 70.7674,3.7437984 C 70.26758,4.1646054 69.86055,4.7079184 69.47678,5.2325214 C 69.0411,5.7591814 68.85337,6.3172994 68.64515,6.9624024 C 68.31764,7.6633014 68.16867,8.4531514 68.08018,9.2174554 C 68.08018,9.2174554 63.05432,11.654525 63.05432,11.654525 L 63.05432,11.654528 z "
     inkscape:connector-curvature="0" />
</svg>
