<?xml version="1.0" encoding="UTF-8" standalone="no"?>
<svg
   xmlns:dc="http://purl.org/dc/elements/1.1/"
   xmlns:cc="http://creativecommons.org/ns#"
   xmlns:rdf="http://www.w3.org/1999/02/22-rdf-syntax-ns#"
   xmlns:svg="http://www.w3.org/2000/svg"
   xmlns="http://www.w3.org/2000/svg"
   xmlns:sodipodi="http://sodipodi.sourceforge.net/DTD/sodipodi-0.dtd"
   xmlns:inkscape="http://www.inkscape.org/namespaces/inkscape"
   version="1.0"
   width="83.84375"
   height="100.40625"
   id="svg2"
   inkscape:version="0.48.2 r9819"
   sodipodi:docname="C31.7.s.svg"
   sodipodi:version="0.32"
   inkscape:output_extension="org.inkscape.output.svg.inkscape"
   sodipodi:modified="true">
  <title
     id="title2983">C31.7: Filao (notable tree)</title>
  <metadata
     id="metadata3032">
    <rdf:RDF>
      <cc:Work
         rdf:about="">
        <dc:format>image/svg+xml</dc:format>
        <dc:type
           rdf:resource="http://purl.org/dc/dcmitype/StillImage" />
        <cc:license
           rdf:resource="http://creativecommons.org/licenses/publicdomain/" />
        <dc:title>C31.7: Filao (notable tree)</dc:title>
      </cc:Work>
      <cc:License
         rdf:about="http://creativecommons.org/licenses/publicdomain/">
        <cc:permits
           rdf:resource="http://creativecommons.org/ns#Reproduction" />
        <cc:permits
           rdf:resource="http://creativecommons.org/ns#Distribution" />
        <cc:permits
           rdf:resource="http://creativecommons.org/ns#DerivativeWorks" />
      </cc:License>
      <cc:Work
         rdf:about="">
        <dc:format>image/svg+xml</dc:format>
        <dc:type
           rdf:resource="http://purl.org/dc/dcmitype/StillImage" />
      </cc:Work>
    </rdf:RDF>
  </metadata>
  <sodipodi:namedview
     pagecolor="#ffffff"
     bordercolor="#666666"
     borderopacity="1"
     objecttolerance="10"
     gridtolerance="10"
     guidetolerance="10"
     inkscape:pageopacity="0"
     inkscape:pageshadow="2"
     inkscape:window-width="1440"
     inkscape:window-height="808"
     id="namedview3030"
     showgrid="false"
     inkscape:zoom="3.0627563"
     inkscape:cx="102.53542"
     inkscape:cy="196.99142"
     inkscape:window-x="0"
     inkscape:window-y="0"
     inkscape:window-maximized="1"
     inkscape:current-layer="svg2" />
  <defs
     id="defs4" />
  <path
     style="fill:#000000;fill-opacity:1;fill-rule:evenodd;stroke:none"
     d="M 53.375,0 L 50.6875,1.34375 C 50.68821,1.579701 50.6895,1.82655 50.6875,2.0625 C 50.6821,2.487453 50.7039,2.887736 50.6875,3.3125 C 50.66653,3.770815 50.61685,4.236017 50.53125,4.6875 C 50.47045,5.101437 50.48195,5.520074 50.46875,5.9375 C 50.44701,6.387593 50.41645,6.83622 50.34375,7.28125 C 50.27822,7.759337 50.2869,8.238031 50.25,8.71875 C 50.1989,9.218359 50.09205,9.720567 50.03125,10.21875 C 49.94949,10.742582 49.79304,11.247633 49.625,11.75 C 49.46801,12.284442 49.34656,12.801667 49.21875,13.34375 C 49.09491,13.814411 48.92672,14.285937 48.78125,14.75 C 48.64414,15.235552 48.51025,15.722264 48.3125,16.1875 C 48.1022,16.661481 47.8412,16.907137 47.5625,17.34375 C 47.25872,17.773685 46.88143,18.050231 46.5625,18.46875 C 46.22959,18.914285 45.89894,19.05715 45.5625,19.5 C 45.30483,19.887206 44.77941,20.112656 44.40625,20.40625 C 44.02554,20.497676 43.59751,20.73491 43.1875,20.8125 C 43.12879,20.816569 40.71746,21.001362 40.59375,20.96875 C 40.22612,20.804795 39.86464,20.607476 39.5,20.4375 C 39.16156,20.285899 38.87042,20.055101 38.59375,19.8125 C 38.37778,19.576641 38.20632,19.333638 38.09375,19.03125 C 37.89295,18.695783 37.60764,18.387199 37.4375,18.03125 C 37.17631,17.590629 36.95191,17.138619 36.65625,16.71875 C 36.33791,16.181609 36.05219,15.639217 35.75,15.09375 C 35.49792,14.698099 35.25503,14.303634 35.0625,13.875 C 34.905,13.459667 34.75887,13.037597 34.59375,12.625 C 34.43346,12.312584 34.25565,11.997445 34.15625,11.65625 C 34.00214,11.27938 33.85612,10.902498 33.6875,10.53125 C 33.523,10.189603 33.35628,9.854059 33.15625,9.53125 C 32.9656,9.130415 32.77765,8.744908 32.53125,8.375 C 32.17201,7.862879 31.72488,7.402218 31.34375,6.90625 C 31.00103,6.457077 30.66799,6.019212 30.4375,5.5 C 30.2742,5.114678 30.08575,4.721742 29.90625,4.34375 C 29.73018,4.035057 29.52405,3.735227 29.46875,3.375 C 29.39445,2.851095 29.35515,2.34185 29.40625,1.8125 L 26.71875,3.1875 C 26.71833,3.72362 26.77475,4.250163 26.84375,4.78125 C 26.90262,5.182593 27.11464,5.501494 27.3125,5.84375 C 27.48942,6.210987 27.64147,6.598644 27.8125,6.96875 C 28.0626,7.508342 28.40852,7.977691 28.78125,8.4375 C 29.16625,8.918616 29.62766,9.360349 29.96875,9.875 C 30.19968,10.235698 30.38105,10.612244 30.5625,11 C 30.75513,11.32919 30.91988,11.692044 31.09375,12.03125 C 31.25789,12.396441 31.40992,12.75521 31.5625,13.125 C 31.66441,13.475304 31.8283,13.806771 32,14.125 C 32.1666,14.523091 32.29043,14.90719 32.4375,15.3125 C 32.63904,15.761494 32.92154,16.181207 33.1875,16.59375 C 33.50048,17.126984 33.78746,17.680589 34.09375,18.21875 C 34.38717,18.6414 34.61257,19.090384 34.875,19.53125 C 35.04006,19.888414 35.30244,20.195177 35.5,20.53125 C 35.61573,20.855064 35.79823,21.126117 36.03125,21.375 C 36.32127,21.650528 36.61869,21.898947 36.96875,22.09375 C 37.35482,22.284182 37.76612,22.443005 38.15625,22.625 C 38.57524,22.834478 39.04376,22.87863 39.5,22.9375 C 39.8498,22.975698 40.19111,23.072827 40.53125,23.15625 C 40.53133,23.239522 40.53114,23.322978 40.53125,23.40625 C 40.53125,23.81222 40.53425,24.21904 40.53125,24.625 C 40.52575,25.04536 40.51335,25.456613 40.46875,25.875 C 40.41657,26.334596 40.33975,26.786252 40.34375,27.25 C 40.34374,27.656056 40.34343,28.0627 40.34375,28.46875 C 40.34375,28.89515 40.34175,29.32361 40.34375,29.75 C 40.3456,30.24436 40.34475,30.75565 40.34375,31.25 C 40.34475,31.73032 40.34175,32.20718 40.34375,32.6875 C 40.34212,33.12929 40.33875,33.55819 40.34375,34 C 40.34688,34.51857 40.34775,35.04392 40.34375,35.5625 C 40.34475,36.11677 40.34175,36.66447 40.34375,37.21875 C 40.33875,37.76345 40.34275,38.29903 40.34375,38.84375 C 40.34075,39.35773 40.35175,39.89228 40.34375,40.40625 C 40.34175,40.832 40.34175,41.26174 40.34375,41.6875 C 40.34475,42.10095 40.34275,42.4928 40.34375,42.90625 C 40.34524,43.36526 40.34575,43.82224 40.34375,44.28125 C 40.33875,44.73363 40.34283,45.20386 40.34375,45.65625 C 40.34444,46.00256 40.34619,46.34122 40.34375,46.6875 C 40.13531,46.62587 39.95587,46.57401 39.78125,46.4375 C 39.47714,46.16864 39.16968,45.8724 38.875,45.59375 C 38.50161,45.18748 38.16997,44.76457 37.8125,44.34375 C 37.32663,43.74837 36.77582,43.21524 36.21875,42.6875 C 35.55819,42.10314 34.83497,41.59826 34.1875,41 C 33.6457,40.4532 33.08338,39.89451 32.65625,39.25 C 32.29108,38.78271 31.99461,38.25537 31.6875,37.75 C 31.42399,37.30668 31.15206,36.89115 30.90625,36.4375 C 30.63213,35.97146 30.39349,35.4818 30.21875,34.96875 C 29.94894,34.33541 29.65438,33.69173 29.375,33.0625 C 29.05426,32.27141 28.71832,31.51363 28.40625,30.71875 C 28.03047,29.80524 27.58591,28.92016 27.15625,28.03125 C 26.77849,27.174184 26.44442,26.295629 26,25.46875 C 25.55745,24.477164 25.02479,23.524909 24.46875,22.59375 C 23.86992,21.458095 23.22838,20.351816 22.625,19.21875 C 21.84827,17.841049 21.15818,16.438102 20.5,15 C 19.9773,13.83567 19.45769,12.665459 18.9375,11.5 C 18.59265,10.663363 18.25014,9.805614 17.90625,8.96875 C 17.66641,8.32227 17.42885,7.689015 17.34375,7 C 17.24543,6.305164 17.06803,5.643352 16.78125,5 C 16.53408,4.395907 16.26472,3.796423 16.03125,3.1875 L 13.40625,4.65625 C 13.71641,5.231335 13.94722,5.831368 14.1875,6.4375 C 14.47499,7.05446 14.64045,7.702478 14.71875,8.375 C 14.81338,9.084082 15.05664,9.74344 15.3125,10.40625 C 15.66197,11.243098 16.05496,12.070038 16.40625,12.90625 C 16.94657,14.064395 17.48819,15.218121 18.03125,16.375 C 18.71483,17.808325 19.39189,19.232883 20.15625,20.625 C 20.73831,21.766872 21.37961,22.892614 21.96875,24.03125 C 22.51619,24.960273 23.04593,25.881119 23.46875,26.875 C 23.90193,27.707943 24.23669,28.61564 24.625,29.46875 C 25.06511,30.35013 25.50163,31.21312 25.875,32.125 C 26.18924,32.91888 26.50251,33.7046 26.8125,34.5 C 27.09416,35.13127 27.36421,35.76624 27.625,36.40625 C 27.80356,36.93208 28.02558,37.46248 28.3125,37.9375 C 28.56042,38.39086 28.85091,38.81209 29.125,39.25 C 29.44431,39.76156 29.75347,40.27322 30.125,40.75 C 30.57438,41.39443 31.13151,41.97971 31.6875,42.53125 C 32.33519,43.13765 33.04872,43.63728 33.71875,44.21875 C 34.26996,44.72889 34.79936,45.29845 35.28125,45.875 C 35.63237,46.30389 35.97636,46.70991 36.34375,47.125 C 36.63376,47.42259 36.90759,47.72424 37.21875,48 C 37.56789,48.32431 38.02357,48.41422 38.46875,48.53125 C 39.02402,48.6916 39.61451,48.70975 40.1875,48.71875 C 40.26095,48.71924 40.3328,48.71831 40.40625,48.71875 C 40.41266,49.04094 40.40894,49.35398 40.5,49.65625 C 40.56261,50.06547 40.59402,50.64936 40.59375,51.0625 C 40.59575,51.52401 40.757,51.78851 40.75,52.25 C 40.75,52.66365 40.749,53.0551 40.75,53.46875 C 40.752,53.9345 40.752,54.40925 40.75,54.875 C 40.746,55.34162 40.754,55.81462 40.75,56.28125 C 40.744,56.69624 40.75037,57.11623 40.75,57.53125 C 40.7513,57.93275 40.75545,58.31791 40.78125,58.71875 C 40.81102,59.09097 40.8621,59.47798 40.9375,59.84375 C 40.985,60.28859 40.9295,60.74089 40.9375,61.1875 C 40.9375,61.59952 40.9365,61.99424 40.9375,62.40625 C 40.9395,62.88149 40.96783,63.36851 40.96875,63.84375 C 40.96775,64.31126 40.9355,64.78249 40.9375,65.25 L 40.9375,66.46875 C 40.93749,66.87455 40.93747,67.28171 40.9375,67.6875 C 40.93756,68.09624 40.93671,68.49752 40.9375,68.90625 C 40.9385,69.34667 40.9365,69.77834 40.9375,70.21875 C 40.9375,70.65501 40.9425,71.09503 40.9375,71.53125 C 40.9279,71.93345 40.90425,72.32038 40.84375,72.71875 C 40.7774,73.15434 40.7176,73.58821 40.75,74.03125 C 40.75057,74.20708 40.74988,74.38661 40.75,74.5625 C 40.5581,74.87299 40.4531,75.26335 40.46875,75.75 C 35.85962,76.72385 30.74884,81.1438 29.6875,85.09375 L 0,85.09375 L 0,90.75 L 29.6875,90.75 C 30.97482,96.28295 35.92077,100.40624 41.84375,100.40625 C 47.7687,100.40625 52.7147,96.28573 54,90.75 L 83.84375,90.75 L 83.84375,90.6875 L 83.84375,85.09375 L 54,85.09375 C 51.74685,79.94301 48.73114,76.70814 44,75.625 C 43.9701,74.93067 43.70403,74.43113 43.3125,74.125 L 43.40625,74.0625 C 43.38585,73.60196 43.40425,73.14838 43.40625,72.6875 C 43.37389,72.2548 43.47085,71.83134 43.53125,71.40625 C 43.58505,70.99584 43.618,70.60081 43.625,70.1875 C 43.631,69.75078 43.62559,69.31173 43.625,68.875 C 43.625,68.43354 43.62433,67.97272 43.625,67.53125 C 43.62555,67.12229 43.62495,66.72146 43.625,66.3125 C 43.62503,65.9067 43.62501,65.49954 43.625,65.09375 L 43.625,63.875 C 43.627,63.41002 43.59475,62.93371 43.59375,62.46875 C 43.59475,61.99151 43.623,61.53973 43.625,61.0625 C 43.62671,60.64993 43.62488,60.22506 43.625,59.8125 C 43.6035,59.35438 43.65575,58.89249 43.59375,58.4375 C 43.51388,58.07678 43.4619,57.712 43.4375,57.34375 C 43.41715,56.94945 43.40693,56.55097 43.40625,56.15625 C 43.4052,55.74252 43.41125,55.31996 43.40625,54.90625 C 43.40325,54.4401 43.41025,53.99739 43.40625,53.53125 C 43.40525,53.06455 43.40525,52.5917 43.40625,52.125 C 43.40784,51.71079 43.40609,51.28921 43.40625,50.875 C 43.40025,50.41425 43.40525,49.96077 43.40625,49.5 C 43.41509,49.25228 43.42109,48.99384 43.40625,48.75 C 43.82375,48.75166 44.23874,48.74932 44.65625,48.75 C 45.23862,48.755 45.82389,48.753 46.40625,48.75 C 47.01163,48.75 47.61338,48.747 48.21875,48.75 C 48.71054,48.7709 49.151,48.59439 49.59375,48.40625 C 50.97603,47.72611 52.42253,47.13092 53.6875,46.25 C 54.19785,45.89395 54.91786,45.47008 55.4375,45.125 C 55.98588,44.69805 56.31788,44.2989 56.84375,43.84375 C 57.38602,43.375 57.91167,42.89308 58.4375,42.40625 C 58.95711,41.98633 59.35491,41.46049 59.71875,40.90625 C 60.12906,40.23168 60.479,39.53918 60.90625,38.875 C 61.34885,38.13955 61.7579,37.38417 62.09375,36.59375 C 62.43791,35.53473 62.53843,34.41319 62.84375,33.34375 C 63.16438,32.3546 63.5833,31.41375 63.84375,30.40625 C 64.0003,29.81871 63.99585,29.19016 64.09375,28.59375 C 64.14038,28.30969 64.2004,28.03357 64.25,27.75 C 64.46545,26.901487 64.69768,26.088307 64.8125,25.21875 C 64.92179,24.361342 64.8771,23.485027 64.9375,22.625 C 65.07568,21.836483 65.20845,21.047423 65.28125,20.25 C 65.32321,19.448751 65.52118,18.685564 65.6875,17.90625 C 65.92522,17.153163 65.99218,16.366803 66.125,15.59375 C 66.21147,15.003738 66.36592,14.430624 66.46875,13.84375 C 66.50796,13.286315 66.6374,12.74349 66.6875,12.1875 C 66.7424,11.594883 66.7387,11.000945 66.75,10.40625 C 66.76,9.936881 66.752,9.469403 66.75,9 C 66.74313,8.494133 66.748,7.974634 66.75,7.46875 C 66.75414,7.026689 66.752,6.598299 66.75,6.15625 L 64.09375,7.5 C 64.09211,7.942341 64.08875,8.37015 64.09375,8.8125 C 64.09617,9.318076 64.09975,9.838178 64.09375,10.34375 C 64.09311,10.810859 64.09275,11.282884 64.09375,11.75 C 64.08915,12.334607 64.09585,12.918391 64.03125,13.5 C 63.95603,14.049647 63.84625,14.605332 63.78125,15.15625 C 63.67726,15.738407 63.54005,16.287087 63.46875,16.875 C 63.35814,17.645071 63.24624,18.437301 63.03125,19.1875 C 62.84816,19.975954 62.6893,20.753601 62.625,21.5625 C 62.55603,22.358179 62.4109,23.145432 62.3125,23.9375 C 62.26601,24.792434 62.29929,25.649301 62.1875,26.5 C 62.06045,27.361708 61.81182,28.18183 61.625,29.03125 C 61.46545,29.90215 61.40811,30.7913 61.21875,31.65625 C 60.9358,32.65024 60.52772,33.60795 60.21875,34.59375 C 59.93665,35.66112 59.85126,36.78235 59.4375,37.8125 C 59.07934,38.58305 58.65983,39.33636 58.21875,40.0625 C 57.80198,40.73874 57.3138,40.96241 56.875,41.625 C 56.49694,42.15264 56.03123,42.80072 55.53125,43.21875 C 55.00883,43.70736 54.58243,44.10577 54.03125,44.5625 C 51.7533,46.15778 51.50009,46.202 48.8125,47 C 48.23358,46.99645 47.64143,46.995 47.0625,47 C 46.4392,47.002 45.81076,46.991 45.1875,47 C 44.46459,47.00542 43.75417,47.00921 43.03125,47 C 42.99055,46.60138 43.002,46.21277 43,45.8125 C 42.993,45.31149 42.997,44.81354 43,44.3125 C 43.00201,43.85921 43.005,43.39079 43,42.9375 C 42.998,42.47783 42.999,42.02217 43,41.5625 C 43.0016,41.14853 42.99985,40.72647 43,40.3125 C 43.002,39.88804 43.002,39.45568 43,39.03125 C 42.992,38.51806 43.003,38.0132 43,37.5 C 43.001,36.95728 43.005,36.4177 43,35.875 C 43.002,35.31905 42.99921,34.7747 43,34.21875 C 42.996,33.69889 42.997,33.17611 43,32.65625 C 43.00436,32.21466 43.002,31.75409 43,31.3125 C 43.002,30.83254 42.9992,30.35496 43,29.875 C 42.998,29.38017 42.998,28.90109 43,28.40625 C 43.002,27.9787 42.99954,27.552556 43,27.125 C 43.00032,26.718847 43.00001,26.312403 43,25.90625 C 43.01047,25.454328 43.10915,25.012524 43.15625,24.5625 C 43.19715,24.134279 43.21475,23.679829 43.21875,23.25 C 43.21902,23.208238 43.21856,23.166763 43.21875,23.125 C 44.36084,22.731811 45.38006,21.985351 46.25,21.15625 C 46.61121,20.746077 47.0953,20.458485 47.46875,20.0625 C 47.86366,19.776676 48.17229,19.366007 48.46875,19 C 48.80294,18.553344 49.13159,18.069222 49.46875,17.625 C 49.80914,17.221445 49.98708,16.781545 50.28125,16.34375 C 50.42604,16.02326 50.66226,15.754133 50.8125,15.4375 C 50.88927,15.275725 50.929,15.101891 51,14.9375 C 51.19926,14.461487 51.3124,13.958119 51.46875,13.46875 C 51.65115,13.01349 51.77187,12.532202 51.90625,12.0625 C 52.00137,11.516063 52.17317,11.004987 52.3125,10.46875 C 52.50397,9.958665 52.64685,9.445783 52.71875,8.90625 C 52.78554,8.406989 52.85925,7.908695 52.90625,7.40625 C 52.93489,6.927216 52.95905,6.443328 53.03125,5.96875 C 53.10748,5.51403 53.13755,5.053945 53.15625,4.59375 C 53.15475,4.182853 53.14435,3.778885 53.21875,3.375 C 53.2883,2.911598 53.32485,2.436576 53.34375,1.96875 C 53.35645,1.540406 53.38,1.11599 53.375,0.6875 C 53.37337,0.451617 53.37478,0.235886 53.375,0 z M 41.84375,80.40625 C 45.98375,80.40625 49.34375,83.76625 49.34375,87.90625 C 49.34375,92.04625 45.98375,95.40625 41.84375,95.40625 C 37.70375,95.40625 34.34375,92.04625 34.34375,87.90625 C 34.34375,83.76625 37.70375,80.40625 41.84375,80.40625 z "
     id="path90440" />
  <path
     style="opacity:1;fill:#000000;fill-opacity:1;stroke:#ffffff;stroke-width:1;stroke-miterlimit:4;stroke-dasharray:none;stroke-dashoffset:10;stroke-opacity:0"
     id="path2982"
     d="" />
</svg>
