<?xml version="1.0" encoding="UTF-8" standalone="no"?>
<svg
   xmlns:dc="http://purl.org/dc/elements/1.1/"
   xmlns:cc="http://creativecommons.org/ns#"
   xmlns:rdf="http://www.w3.org/1999/02/22-rdf-syntax-ns#"
   xmlns:svg="http://www.w3.org/2000/svg"
   xmlns="http://www.w3.org/2000/svg"
   xmlns:sodipodi="http://sodipodi.sourceforge.net/DTD/sodipodi-0.dtd"
   xmlns:inkscape="http://www.inkscape.org/namespaces/inkscape"
   version="1.0"
   width="320"
   height="320"
   id="svg2"
   inkscape:version="0.48.2 r9819"
   sodipodi:docname="C31.2.f.svg">
  <title
     id="title3052">C31.2: Evergreen Woods (area)</title>
  <metadata
     id="metadata3032">
    <rdf:RDF>
      <cc:Work
         rdf:about="">
        <dc:format>image/svg+xml</dc:format>
        <dc:type
           rdf:resource="http://purl.org/dc/dcmitype/StillImage" />
        <cc:license
           rdf:resource="http://creativecommons.org/licenses/publicdomain/" />
        <dc:title>C31.2: Evergreen Woods (area)</dc:title>
      </cc:Work>
      <cc:License
         rdf:about="http://creativecommons.org/licenses/publicdomain/">
        <cc:permits
           rdf:resource="http://creativecommons.org/ns#Reproduction" />
        <cc:permits
           rdf:resource="http://creativecommons.org/ns#Distribution" />
        <cc:permits
           rdf:resource="http://creativecommons.org/ns#DerivativeWorks" />
      </cc:License>
    </rdf:RDF>
  </metadata>
  <sodipodi:namedview
     pagecolor="#ffffff"
     bordercolor="#666666"
     borderopacity="1"
     objecttolerance="10"
     gridtolerance="10"
     guidetolerance="10"
     inkscape:pageopacity="0"
     inkscape:pageshadow="2"
     inkscape:window-width="891"
     inkscape:window-height="712"
     id="namedview3030"
     showgrid="false"
     inkscape:zoom="1.53125"
     inkscape:cx="45.061224"
     inkscape:cy="160"
     inkscape:window-x="410"
     inkscape:window-y="13"
     inkscape:window-maximized="0"
     inkscape:current-layer="svg2" />
  <defs
     id="defs4" />
  <path
     d="m 96.306097,148.91291 0,3.48186 c 0,0 -0.0277,0 55.405083,0 0,0 0,-0.03 0,-0.0449 0,-1.34032 0,-3.43693 0,-3.43693 m -26.31972,0 c -0.12307,-0.0249 -0.26621,-30.6686 -0.26621,-30.6686 l -0.0816,-2.99578 -2.50241,-0.25378 c -4.94648,0.77551 -18.10715,-0.74318 -21.88819,-3.77096 -8.722593,-1.9861 -13.893203,-6.50794 -4.967743,-18.09284 2.28939,-8.266088 5.297063,-13.719585 8.917063,-17.070709 4.79911,-4.44265 10.67442,-5.190299 17.37907,-3.897735 18.19967,-6.123864 14.68138,5.686104 19.72825,16.043223 4.4138,7.391201 13.70874,8.726301 -0.01,18.027321 -5.62802,5.21257 -6.35389,11.26759 -16.64366,9.05466 l -0.001,2.90942 c 8.84571,3.07596 13.12226,-4.65156 19.8036,-9.18221 11.2919,-8.56063 10.42989,-14.64616 -0.25503,-23.93123 -5.96331,-9.758119 -2.02954,-22.055743 -23.47652,-16.419538 -15.28682,-1.970403 -23.026623,3.666242 -28.379483,22.403228 -6.40724,10.28539 -7.87542,18.94102 6.52872,22.88757 5.352903,2.74437 17.754533,5.42851 23.273913,4.18847 0,0 0.20293,30.73647 -0.0268,30.76949"
     id="path90440"
     style="fill:#000000;fill-opacity:1;fill-rule:evenodd;stroke:none"
     inkscape:connector-curvature="0"
     sodipodi:nodetypes="cccscccccccscccccccccccc" />
  <path
     d="m 162.54786,187.33887 0,3.48186 c 0,0 -0.0277,0 55.40509,0 0,0 0,-0.03 0,-0.0449 0,-1.34032 0,-3.43693 0,-3.43693 m -26.31972,0 c -0.12307,-0.0249 -0.26621,-30.6686 -0.26621,-30.6686 l -0.0816,-2.99578 -2.50241,-0.25378 c -4.94648,0.77551 -18.10715,-0.74318 -21.88819,-3.77096 -8.7226,-1.9861 -13.89321,-6.50794 -4.96775,-18.09284 2.28939,-8.26609 5.29707,-13.71959 8.91707,-17.07071 4.79911,-4.44265 10.67442,-5.1903 17.37907,-3.89774 18.19967,-6.12386 14.68138,5.68611 19.72825,16.04323 4.4138,7.3912 13.70874,8.7263 -0.01,18.02732 -5.62802,5.21257 -6.35389,11.26759 -16.64366,9.05466 l -0.001,2.90942 c 8.84571,3.07596 13.12226,-4.65156 19.8036,-9.18221 11.2919,-8.56063 10.42989,-14.64616 -0.25503,-23.93123 -5.96331,-9.75812 -2.02954,-22.05575 -23.47652,-16.41954 -15.28682,-1.9704 -23.02663,3.66624 -28.37949,22.40323 -6.40724,10.28539 -7.87542,18.94102 6.52872,22.88757 5.35291,2.74437 17.75454,5.42851 23.27392,4.18847 0,0 0.20293,30.73647 -0.0268,30.76949"
     id="path90440-1"
     style="fill:#000000;fill-opacity:1;fill-rule:evenodd;stroke:none"
     inkscape:connector-curvature="0"
     sodipodi:nodetypes="cccscccccccscccccccccccc" />
  <path
     d="m 242.22133,155.33887 0,3.48186 c 0,0 -0.0277,0 55.40509,0 0,0 0,-0.03 0,-0.0449 0,-1.34032 0,-3.43693 0,-3.43693 m -26.31972,0 c -0.12307,-0.0249 -0.26621,-30.6686 -0.26621,-30.6686 l -0.0816,-2.99578 -2.50241,-0.25378 c -4.94648,0.77551 -18.10715,-0.74318 -21.88819,-3.77096 -8.7226,-1.9861 -13.89321,-6.50794 -4.96775,-18.092843 2.28939,-8.266088 5.29707,-13.719585 8.91707,-17.070708 4.79911,-4.44265 10.67442,-5.190299 17.37907,-3.897735 18.19967,-6.123864 14.68138,5.686103 19.72825,16.043222 4.4138,7.391204 13.70874,8.726304 -0.01,18.027324 -5.62802,5.21257 -6.35389,11.26759 -16.64366,9.05466 l -10e-4,2.90942 c 8.84571,3.07596 13.12226,-4.65156 19.8036,-9.18221 11.2919,-8.56063 10.42989,-14.64616 -0.25503,-23.931233 -5.96331,-9.758118 -2.02954,-22.055742 -23.47652,-16.419537 -15.28682,-1.970403 -23.02663,3.666242 -28.37949,22.403227 -6.40724,10.285393 -7.87542,18.941023 6.52872,22.887573 5.35291,2.74437 17.75454,5.42851 23.27392,4.18847 0,0 0.20293,30.73647 -0.0268,30.76949"
     id="path90440-7"
     style="fill:#000000;fill-opacity:1;fill-rule:evenodd;stroke:none"
     inkscape:connector-curvature="0"
     sodipodi:nodetypes="cccscccccccscccccccccccc" />
  <path
     d="m 47.609089,295.74703 0,3.48186 c 0,0 -0.0277,0 55.405081,0 0,0 0,-0.03 0,-0.0449 0,-1.34032 0,-3.43693 0,-3.43693 m -26.319718,0 c -0.12307,-0.0249 -0.26621,-30.6686 -0.26621,-30.6686 l -0.0816,-2.99578 -2.50241,-0.25378 c -4.94648,0.77551 -18.10715,-0.74318 -21.88819,-3.77096 -8.722593,-1.9861 -13.893203,-6.50794 -4.967743,-18.09284 2.28939,-8.26609 5.297063,-13.71958 8.917063,-17.07071 4.79911,-4.44265 10.67442,-5.1903 17.37907,-3.89773 18.19967,-6.12387 14.68138,5.6861 19.72825,16.04322 4.4138,7.3912 13.708738,8.7263 -0.01,18.02732 -5.62802,5.21257 -6.35389,11.26759 -16.64366,9.05466 l -10e-4,2.90942 c 8.84571,3.07596 13.12226,-4.65156 19.8036,-9.18221 11.291898,-8.56063 10.429888,-14.64616 -0.25503,-23.93123 -5.96331,-9.75812 -2.02954,-22.05574 -23.47652,-16.41954 -15.28682,-1.9704 -23.026623,3.66624 -28.379483,22.40323 -6.40724,10.28539 -7.87542,18.94102 6.52872,22.88757 5.352903,2.74437 17.754533,5.42851 23.273913,4.18847 0,0 0.20293,30.73647 -0.0268,30.76949"
     id="path90440-4"
     style="fill:#000000;fill-opacity:1;fill-rule:evenodd;stroke:none"
     inkscape:connector-curvature="0"
     sodipodi:nodetypes="cccscccccccscccccccccccc" />
  <path
     transform="translate(-31.972329,20.860521)"
     sodipodi:type="arc"
     style="fill:#000000;fill-opacity:1;stroke:none"
     id="path3752-44"
     sodipodi:cx="141.68661"
     sodipodi:cy="62.078255"
     sodipodi:rx="1.4028378"
     sodipodi:ry="1.4028378"
     d="m 143.08945,62.078255 a 1.4028378,1.4028378 0 1 1 -2.80567,0 1.4028378,1.4028378 0 1 1 2.80567,0 z" />
  <path
     transform="translate(-11.07437,17.595215)"
     sodipodi:type="arc"
     style="fill:#000000;fill-opacity:1;stroke:none"
     id="path3752-44-1"
     sodipodi:cx="141.68661"
     sodipodi:cy="62.078255"
     sodipodi:rx="1.4028378"
     sodipodi:ry="1.4028378"
     d="m 143.08945,62.078255 a 1.4028378,1.4028378 0 1 1 -2.80567,0 1.4028378,1.4028378 0 1 1 2.80567,0 z" />
  <path
     transform="translate(-20.870288,33.921745)"
     sodipodi:type="arc"
     style="fill:#000000;fill-opacity:1;stroke:none"
     id="path3752-44-7"
     sodipodi:cx="141.68661"
     sodipodi:cy="62.078255"
     sodipodi:rx="1.4028378"
     sodipodi:ry="1.4028378"
     d="m 143.08945,62.078255 a 1.4028378,1.4028378 0 1 1 -2.80567,0 1.4028378,1.4028378 0 1 1 2.80567,0 z" />
  <path
     transform="translate(-20.870288,23.472766)"
     sodipodi:type="arc"
     style="fill:#000000;fill-opacity:1;stroke:none"
     id="path3752-44-4"
     sodipodi:cx="141.68661"
     sodipodi:cy="62.078255"
     sodipodi:rx="1.4028378"
     sodipodi:ry="1.4028378"
     d="m 143.08945,62.078255 a 1.4028378,1.4028378 0 1 1 -2.80567,0 1.4028378,1.4028378 0 1 1 2.80567,0 z" />
  <path
     transform="translate(-6.5029415,40.452358)"
     sodipodi:type="arc"
     style="fill:#000000;fill-opacity:1;stroke:none"
     id="path3752-44-0"
     sodipodi:cx="141.68661"
     sodipodi:cy="62.078255"
     sodipodi:rx="1.4028378"
     sodipodi:ry="1.4028378"
     d="m 143.08945,62.078255 a 1.4028378,1.4028378 0 1 1 -2.80567,0 1.4028378,1.4028378 0 1 1 2.80567,0 z" />
  <path
     transform="translate(-6.5029415,27.391133)"
     sodipodi:type="arc"
     style="fill:#000000;fill-opacity:1;stroke:none"
     id="path3752-44-9"
     sodipodi:cx="141.68661"
     sodipodi:cy="62.078255"
     sodipodi:rx="1.4028378"
     sodipodi:ry="1.4028378"
     d="m 143.08945,62.078255 a 1.4028378,1.4028378 0 1 1 -2.80567,0 1.4028378,1.4028378 0 1 1 2.80567,0 z" />
  <path
     transform="translate(-31.972329,41.75848)"
     sodipodi:type="arc"
     style="fill:#000000;fill-opacity:1;stroke:none"
     id="path3752-44-48"
     sodipodi:cx="141.68661"
     sodipodi:cy="62.078255"
     sodipodi:rx="1.4028378"
     sodipodi:ry="1.4028378"
     d="m 143.08945,62.078255 a 1.4028378,1.4028378 0 1 1 -2.80567,0 1.4028378,1.4028378 0 1 1 2.80567,0 z" />
  <path
     transform="translate(-34.584574,30.003378)"
     sodipodi:type="arc"
     style="fill:#000000;fill-opacity:1;stroke:none"
     id="path3752-44-8"
     sodipodi:cx="141.68661"
     sodipodi:cy="62.078255"
     sodipodi:rx="1.4028378"
     sodipodi:ry="1.4028378"
     d="m 143.08945,62.078255 a 1.4028378,1.4028378 0 1 1 -2.80567,0 1.4028378,1.4028378 0 1 1 2.80567,0 z" />
  <path
     transform="translate(-23.482533,39.799296)"
     sodipodi:type="arc"
     style="fill:#000000;fill-opacity:1;stroke:none"
     id="path3752-44-2"
     sodipodi:cx="141.68661"
     sodipodi:cy="62.078255"
     sodipodi:rx="1.4028378"
     sodipodi:ry="1.4028378"
     d="m 143.08945,62.078255 a 1.4028378,1.4028378 0 1 1 -2.80567,0 1.4028378,1.4028378 0 1 1 2.80567,0 z" />
  <path
     transform="translate(-41.115186,43.064602)"
     sodipodi:type="arc"
     style="fill:#000000;fill-opacity:1;stroke:none"
     id="path3752-44-45"
     sodipodi:cx="141.68661"
     sodipodi:cy="62.078255"
     sodipodi:rx="1.4028378"
     sodipodi:ry="1.4028378"
     d="m 143.08945,62.078255 a 1.4028378,1.4028378 0 1 1 -2.80567,0 1.4028378,1.4028378 0 1 1 2.80567,0 z" />
  <path
     transform="translate(-21.52335,46.98297)"
     sodipodi:type="arc"
     style="fill:#000000;fill-opacity:1;stroke:none"
     id="path3752-44-5"
     sodipodi:cx="141.68661"
     sodipodi:cy="62.078255"
     sodipodi:rx="1.4028378"
     sodipodi:ry="1.4028378"
     d="m 143.08945,62.078255 a 1.4028378,1.4028378 0 1 1 -2.80567,0 1.4028378,1.4028378 0 1 1 2.80567,0 z" />
  <path
     transform="translate(-10.421309,31.962562)"
     sodipodi:type="arc"
     style="fill:#000000;fill-opacity:1;stroke:none"
     id="path3752-44-17"
     sodipodi:cx="141.68661"
     sodipodi:cy="62.078255"
     sodipodi:rx="1.4028378"
     sodipodi:ry="1.4028378"
     d="m 143.08945,62.078255 a 1.4028378,1.4028378 0 1 1 -2.80567,0 1.4028378,1.4028378 0 1 1 2.80567,0 z" />
  <path
     transform="translate(32.027671,69.187051)"
     sodipodi:type="arc"
     style="fill:#000000;fill-opacity:1;stroke:none"
     id="path3752-44-11"
     sodipodi:cx="141.68661"
     sodipodi:cy="62.078255"
     sodipodi:rx="1.4028378"
     sodipodi:ry="1.4028378"
     d="m 143.08945,62.078255 a 1.4028378,1.4028378 0 1 1 -2.80567,0 1.4028378,1.4028378 0 1 1 2.80567,0 z" />
  <path
     transform="translate(41.823589,57.431949)"
     sodipodi:type="arc"
     style="fill:#000000;fill-opacity:1;stroke:none"
     id="path3752-44-52"
     sodipodi:cx="141.68661"
     sodipodi:cy="62.078255"
     sodipodi:rx="1.4028378"
     sodipodi:ry="1.4028378"
     d="m 143.08945,62.078255 a 1.4028378,1.4028378 0 1 1 -2.80567,0 1.4028378,1.4028378 0 1 1 2.80567,0 z" />
  <path
     transform="translate(39.211344,66.574807)"
     sodipodi:type="arc"
     style="fill:#000000;fill-opacity:1;stroke:none"
     id="path3752-44-76"
     sodipodi:cx="141.68661"
     sodipodi:cy="62.078255"
     sodipodi:rx="1.4028378"
     sodipodi:ry="1.4028378"
     d="m 143.08945,62.078255 a 1.4028378,1.4028378 0 1 1 -2.80567,0 1.4028378,1.4028378 0 1 1 2.80567,0 z" />
  <path
     transform="translate(55.537875,75.064602)"
     sodipodi:type="arc"
     style="fill:#000000;fill-opacity:1;stroke:none"
     id="path3752-44-14"
     sodipodi:cx="141.68661"
     sodipodi:cy="62.078255"
     sodipodi:rx="1.4028378"
     sodipodi:ry="1.4028378"
     d="m 143.08945,62.078255 a 1.4028378,1.4028378 0 1 1 -2.80567,0 1.4028378,1.4028378 0 1 1 2.80567,0 z" />
  <path
     transform="translate(54.231752,63.3095)"
     sodipodi:type="arc"
     style="fill:#000000;fill-opacity:1;stroke:none"
     id="path3752-44-23"
     sodipodi:cx="141.68661"
     sodipodi:cy="62.078255"
     sodipodi:rx="1.4028378"
     sodipodi:ry="1.4028378"
     d="m 143.08945,62.078255 a 1.4028378,1.4028378 0 1 1 -2.80567,0 1.4028378,1.4028378 0 1 1 2.80567,0 z" />
  <path
     transform="translate(43.782773,74.411541)"
     sodipodi:type="arc"
     style="fill:#000000;fill-opacity:1;stroke:none"
     id="path3752-44-22"
     sodipodi:cx="141.68661"
     sodipodi:cy="62.078255"
     sodipodi:rx="1.4028378"
     sodipodi:ry="1.4028378"
     d="m 143.08945,62.078255 a 1.4028378,1.4028378 0 1 1 -2.80567,0 1.4028378,1.4028378 0 1 1 2.80567,0 z" />
  <path
     transform="translate(38.558283,78.329909)"
     sodipodi:type="arc"
     style="fill:#000000;fill-opacity:1;stroke:none"
     id="path3752-44-16"
     sodipodi:cx="141.68661"
     sodipodi:cy="62.078255"
     sodipodi:rx="1.4028378"
     sodipodi:ry="1.4028378"
     d="m 143.08945,62.078255 a 1.4028378,1.4028378 0 1 1 -2.80567,0 1.4028378,1.4028378 0 1 1 2.80567,0 z" />
  <path
     transform="translate(47.70114,78.329909)"
     sodipodi:type="arc"
     style="fill:#000000;fill-opacity:1;stroke:none"
     id="path3752-44-85"
     sodipodi:cx="141.68661"
     sodipodi:cy="62.078255"
     sodipodi:rx="1.4028378"
     sodipodi:ry="1.4028378"
     d="m 143.08945,62.078255 a 1.4028378,1.4028378 0 1 1 -2.80567,0 1.4028378,1.4028378 0 1 1 2.80567,0 z" />
  <path
     transform="translate(51.619507,58.738072)"
     sodipodi:type="arc"
     style="fill:#000000;fill-opacity:1;stroke:none"
     id="path3752-44-761"
     sodipodi:cx="141.68661"
     sodipodi:cy="62.078255"
     sodipodi:rx="1.4028378"
     sodipodi:ry="1.4028378"
     d="m 143.08945,62.078255 a 1.4028378,1.4028378 0 1 1 -2.80567,0 1.4028378,1.4028378 0 1 1 2.80567,0 z" />
  <path
     transform="translate(109.74196,39.799296)"
     sodipodi:type="arc"
     style="fill:#000000;fill-opacity:1;stroke:none"
     id="path3752-44-89"
     sodipodi:cx="141.68661"
     sodipodi:cy="62.078255"
     sodipodi:rx="1.4028378"
     sodipodi:ry="1.4028378"
     d="m 143.08945,62.078255 a 1.4028378,1.4028378 0 1 1 -2.80567,0 1.4028378,1.4028378 0 1 1 2.80567,0 z" />
  <path
     transform="translate(119.53787,26.085011)"
     sodipodi:type="arc"
     style="fill:#000000;fill-opacity:1;stroke:none"
     id="path3752-44-27"
     sodipodi:cx="141.68661"
     sodipodi:cy="62.078255"
     sodipodi:rx="1.4028378"
     sodipodi:ry="1.4028378"
     d="m 143.08945,62.078255 a 1.4028378,1.4028378 0 1 1 -2.80567,0 1.4028378,1.4028378 0 1 1 2.80567,0 z" />
  <path
     transform="translate(128.02767,41.75848)"
     sodipodi:type="arc"
     style="fill:#000000;fill-opacity:1;stroke:none"
     id="path3752-44-95"
     sodipodi:cx="141.68661"
     sodipodi:cy="62.078255"
     sodipodi:rx="1.4028378"
     sodipodi:ry="1.4028378"
     d="m 143.08945,62.078255 a 1.4028378,1.4028378 0 1 1 -2.80567,0 1.4028378,1.4028378 0 1 1 2.80567,0 z" />
  <path
     transform="translate(132.5991,29.350317)"
     sodipodi:type="arc"
     style="fill:#000000;fill-opacity:1;stroke:none"
     id="path3752-44-43"
     sodipodi:cx="141.68661"
     sodipodi:cy="62.078255"
     sodipodi:rx="1.4028378"
     sodipodi:ry="1.4028378"
     d="m 143.08945,62.078255 a 1.4028378,1.4028378 0 1 1 -2.80567,0 1.4028378,1.4028378 0 1 1 2.80567,0 z" />
  <path
     transform="translate(124.76236,39.799296)"
     sodipodi:type="arc"
     style="fill:#000000;fill-opacity:1;stroke:none"
     id="path3752-44-12"
     sodipodi:cx="141.68661"
     sodipodi:cy="62.078255"
     sodipodi:rx="1.4028378"
     sodipodi:ry="1.4028378"
     d="m 143.08945,62.078255 a 1.4028378,1.4028378 0 1 1 -2.80567,0 1.4028378,1.4028378 0 1 1 2.80567,0 z" />
  <path
     transform="translate(116.92563,45.023786)"
     sodipodi:type="arc"
     style="fill:#000000;fill-opacity:1;stroke:none"
     id="path3752-44-3"
     sodipodi:cx="141.68661"
     sodipodi:cy="62.078255"
     sodipodi:rx="1.4028378"
     sodipodi:ry="1.4028378"
     d="m 143.08945,62.078255 a 1.4028378,1.4028378 0 1 1 -2.80567,0 1.4028378,1.4028378 0 1 1 2.80567,0 z" />
  <path
     transform="translate(128.68073,48.942153)"
     sodipodi:type="arc"
     style="fill:#000000;fill-opacity:1;stroke:none"
     id="path3752-44-34"
     sodipodi:cx="141.68661"
     sodipodi:cy="62.078255"
     sodipodi:rx="1.4028378"
     sodipodi:ry="1.4028378"
     d="m 143.08945,62.078255 a 1.4028378,1.4028378 0 1 1 -2.80567,0 1.4028378,1.4028378 0 1 1 2.80567,0 z" />
  <path
     transform="translate(143.70114,38.493174)"
     sodipodi:type="arc"
     style="fill:#000000;fill-opacity:1;stroke:none"
     id="path3752-44-113"
     sodipodi:cx="141.68661"
     sodipodi:cy="62.078255"
     sodipodi:rx="1.4028378"
     sodipodi:ry="1.4028378"
     d="m 143.08945,62.078255 a 1.4028378,1.4028378 0 1 1 -2.80567,0 1.4028378,1.4028378 0 1 1 2.80567,0 z" />
  <path
     transform="translate(130.63992,37.187051)"
     sodipodi:type="arc"
     style="fill:#000000;fill-opacity:1;stroke:none"
     id="path3752-44-87"
     sodipodi:cx="141.68661"
     sodipodi:cy="62.078255"
     sodipodi:rx="1.4028378"
     sodipodi:ry="1.4028378"
     d="m 143.08945,62.078255 a 1.4028378,1.4028378 0 1 1 -2.80567,0 1.4028378,1.4028378 0 1 1 2.80567,0 z" />
  <path
     transform="translate(122.15012,28.044194)"
     sodipodi:type="arc"
     style="fill:#000000;fill-opacity:1;stroke:none"
     id="path3752-44-42"
     sodipodi:cx="141.68661"
     sodipodi:cy="62.078255"
     sodipodi:rx="1.4028378"
     sodipodi:ry="1.4028378"
     d="m 143.08945,62.078255 a 1.4028378,1.4028378 0 1 1 -2.80567,0 1.4028378,1.4028378 0 1 1 2.80567,0 z" />
  <path
     transform="translate(131.29298,18.248276)"
     sodipodi:type="arc"
     style="fill:#000000;fill-opacity:1;stroke:none"
     id="path3752-44-77"
     sodipodi:cx="141.68661"
     sodipodi:cy="62.078255"
     sodipodi:rx="1.4028378"
     sodipodi:ry="1.4028378"
     d="m 143.08945,62.078255 a 1.4028378,1.4028378 0 1 1 -2.80567,0 1.4028378,1.4028378 0 1 1 2.80567,0 z" />
  <path
     transform="translate(116.92563,33.921745)"
     sodipodi:type="arc"
     style="fill:#000000;fill-opacity:1;stroke:none"
     id="path3752-44-93"
     sodipodi:cx="141.68661"
     sodipodi:cy="62.078255"
     sodipodi:rx="1.4028378"
     sodipodi:ry="1.4028378"
     d="m 143.08945,62.078255 a 1.4028378,1.4028378 0 1 1 -2.80567,0 1.4028378,1.4028378 0 1 1 2.80567,0 z" />
  <path
     transform="translate(-58.747839,180.20746)"
     sodipodi:type="arc"
     style="fill:#000000;fill-opacity:1;stroke:none"
     id="path3752-44-19"
     sodipodi:cx="141.68661"
     sodipodi:cy="62.078255"
     sodipodi:rx="1.4028378"
     sodipodi:ry="1.4028378"
     d="m 143.08945,62.078255 a 1.4028378,1.4028378 0 1 1 -2.80567,0 1.4028378,1.4028378 0 1 1 2.80567,0 z" />
  <path
     transform="translate(-82.258044,187.39113)"
     sodipodi:type="arc"
     style="fill:#000000;fill-opacity:1;stroke:none"
     id="path3752-44-86"
     sodipodi:cx="141.68661"
     sodipodi:cy="62.078255"
     sodipodi:rx="1.4028378"
     sodipodi:ry="1.4028378"
     d="m 143.08945,62.078255 a 1.4028378,1.4028378 0 1 1 -2.80567,0 1.4028378,1.4028378 0 1 1 2.80567,0 z" />
  <path
     transform="translate(-78.339676,173.02379)"
     sodipodi:type="arc"
     style="fill:#000000;fill-opacity:1;stroke:none"
     id="path3752-44-50"
     sodipodi:cx="141.68661"
     sodipodi:cy="62.078255"
     sodipodi:rx="1.4028378"
     sodipodi:ry="1.4028378"
     d="m 143.08945,62.078255 a 1.4028378,1.4028378 0 1 1 -2.80567,0 1.4028378,1.4028378 0 1 1 2.80567,0 z" />
  <path
     transform="translate(-72.462125,180.86052)"
     sodipodi:type="arc"
     style="fill:#000000;fill-opacity:1;stroke:none"
     id="path3752-44-28"
     sodipodi:cx="141.68661"
     sodipodi:cy="62.078255"
     sodipodi:rx="1.4028378"
     sodipodi:ry="1.4028378"
     d="m 143.08945,62.078255 a 1.4028378,1.4028378 0 1 1 -2.80567,0 1.4028378,1.4028378 0 1 1 2.80567,0 z" />
  <path
     transform="translate(-64.625391,161.26868)"
     sodipodi:type="arc"
     style="fill:#000000;fill-opacity:1;stroke:none"
     id="path3752-44-6"
     sodipodi:cx="141.68661"
     sodipodi:cy="62.078255"
     sodipodi:rx="1.4028378"
     sodipodi:ry="1.4028378"
     d="m 143.08945,62.078255 a 1.4028378,1.4028378 0 1 1 -2.80567,0 1.4028378,1.4028378 0 1 1 2.80567,0 z" />
  <path
     transform="translate(-71.809064,180.20746)"
     sodipodi:type="arc"
     style="fill:#000000;fill-opacity:1;stroke:none"
     id="path3752-44-02"
     sodipodi:cx="141.68661"
     sodipodi:cy="62.078255"
     sodipodi:rx="1.4028378"
     sodipodi:ry="1.4028378"
     d="m 143.08945,62.078255 a 1.4028378,1.4028378 0 1 1 -2.80567,0 1.4028378,1.4028378 0 1 1 2.80567,0 z" />
  <path
     transform="translate(-63.972329,188.04419)"
     sodipodi:type="arc"
     style="fill:#000000;fill-opacity:1;stroke:none"
     id="path3752-44-486"
     sodipodi:cx="141.68661"
     sodipodi:cy="62.078255"
     sodipodi:rx="1.4028378"
     sodipodi:ry="1.4028378"
     d="m 143.08945,62.078255 a 1.4028378,1.4028378 0 1 1 -2.80567,0 1.4028378,1.4028378 0 1 1 2.80567,0 z" />
  <path
     transform="matrix(1.698293,0,0,1,-156.70703,186.08501)"
     sodipodi:type="arc"
     style="fill:#000000;fill-opacity:1;stroke:none"
     id="path3752-44-509"
     sodipodi:cx="141.68661"
     sodipodi:cy="62.078255"
     sodipodi:rx="1.4028378"
     sodipodi:ry="1.4028378"
     d="m 143.08945,62.078255 a 1.4028378,1.4028378 0 1 1 -2.80567,0 1.4028378,1.4028378 0 1 1 2.80567,0 z" />
  <path
     transform="translate(-61.360084,174.98297)"
     sodipodi:type="arc"
     style="fill:#000000;fill-opacity:1;stroke:none"
     id="path3752-44-00"
     sodipodi:cx="141.68661"
     sodipodi:cy="62.078255"
     sodipodi:rx="1.4028378"
     sodipodi:ry="1.4028378"
     d="m 143.08945,62.078255 a 1.4028378,1.4028378 0 1 1 -2.80567,0 1.4028378,1.4028378 0 1 1 2.80567,0 z" />
  <path
     transform="translate(-73.115186,173.67685)"
     sodipodi:type="arc"
     style="fill:#000000;fill-opacity:1;stroke:none"
     id="path3752-44-61"
     sodipodi:cx="141.68661"
     sodipodi:cy="62.078255"
     sodipodi:rx="1.4028378"
     sodipodi:ry="1.4028378"
     d="m 143.08945,62.078255 a 1.4028378,1.4028378 0 1 1 -2.80567,0 1.4028378,1.4028378 0 1 1 2.80567,0 z" />
  <path
     transform="matrix(1,0,0,0.53447131,-82.258044,214.33116)"
     sodipodi:type="arc"
     style="fill:#000000;fill-opacity:1;stroke:none"
     id="path3752-44-38"
     sodipodi:cx="141.68661"
     sodipodi:cy="62.078255"
     sodipodi:rx="1.4028378"
     sodipodi:ry="1.4028378"
     d="m 143.08945,62.078255 a 1.4028378,1.4028378 0 1 1 -2.80567,0 1.4028378,1.4028378 0 1 1 2.80567,0 z" />
  <path
     transform="translate(-70.502942,176.94215)"
     sodipodi:type="arc"
     style="fill:#000000;fill-opacity:1;stroke:none"
     id="path3752-44-934"
     sodipodi:cx="141.68661"
     sodipodi:cy="62.078255"
     sodipodi:rx="1.4028378"
     sodipodi:ry="1.4028378"
     d="m 143.08945,62.078255 a 1.4028378,1.4028378 0 1 1 -2.80567,0 1.4028378,1.4028378 0 1 1 2.80567,0 z" />
  <path
     transform="translate(-75.727431,184.77889)"
     sodipodi:type="arc"
     style="fill:#000000;fill-opacity:1;stroke:none"
     id="path3752-44-46"
     sodipodi:cx="141.68661"
     sodipodi:cy="62.078255"
     sodipodi:rx="1.4028378"
     sodipodi:ry="1.4028378"
     d="m 143.08945,62.078255 a 1.4028378,1.4028378 0 1 1 -2.80567,0 1.4028378,1.4028378 0 1 1 2.80567,0 z" />
  <path
     transform="translate(-84.217227,166.49317)"
     sodipodi:type="arc"
     style="fill:#000000;fill-opacity:1;stroke:none"
     id="path3752-44-06"
     sodipodi:cx="141.68661"
     sodipodi:cy="62.078255"
     sodipodi:rx="1.4028378"
     sodipodi:ry="1.4028378"
     d="m 143.08945,62.078255 a 1.4028378,1.4028378 0 1 1 -2.80567,0 1.4028378,1.4028378 0 1 1 2.80567,0 z" />
  <path
     transform="translate(-73.115186,168.45236)"
     sodipodi:type="arc"
     style="fill:#000000;fill-opacity:1;stroke:none"
     id="path3752-44-618"
     sodipodi:cx="141.68661"
     sodipodi:cy="62.078255"
     sodipodi:rx="1.4028378"
     sodipodi:ry="1.4028378"
     d="m 143.08945,62.078255 a 1.4028378,1.4028378 0 1 1 -2.80567,0 1.4028378,1.4028378 0 1 1 2.80567,0 z" />
  <path
     transform="translate(-66.584574,170.41154)"
     sodipodi:type="arc"
     style="fill:#000000;fill-opacity:1;stroke:none"
     id="path3752-44-49"
     sodipodi:cx="141.68661"
     sodipodi:cy="62.078255"
     sodipodi:rx="1.4028378"
     sodipodi:ry="1.4028378"
     d="m 143.08945,62.078255 a 1.4028378,1.4028378 0 1 1 -2.80567,0 1.4028378,1.4028378 0 1 1 2.80567,0 z" />
  <path
     transform="translate(-84.870288,174.32991)"
     sodipodi:type="arc"
     style="fill:#000000;fill-opacity:1;stroke:none"
     id="path3752-44-63"
     sodipodi:cx="141.68661"
     sodipodi:cy="62.078255"
     sodipodi:rx="1.4028378"
     sodipodi:ry="1.4028378"
     d="m 143.08945,62.078255 a 1.4028378,1.4028378 0 1 1 -2.80567,0 1.4028378,1.4028378 0 1 1 2.80567,0 z" />
  <path
     transform="translate(-72.462125,190.00338)"
     sodipodi:type="arc"
     style="fill:#000000;fill-opacity:1;stroke:none"
     id="path3752-44-78"
     sodipodi:cx="141.68661"
     sodipodi:cy="62.078255"
     sodipodi:rx="1.4028378"
     sodipodi:ry="1.4028378"
     d="m 143.08945,62.078255 a 1.4028378,1.4028378 0 1 1 -2.80567,0 1.4028378,1.4028378 0 1 1 2.80567,0 z" />
  <path
     transform="translate(-50.911105,181.51358)"
     sodipodi:type="arc"
     style="fill:#000000;fill-opacity:1;stroke:none"
     id="path3752-44-82"
     sodipodi:cx="141.68661"
     sodipodi:cy="62.078255"
     sodipodi:rx="1.4028378"
     sodipodi:ry="1.4028378"
     d="m 143.08945,62.078255 a 1.4028378,1.4028378 0 1 1 -2.80567,0 1.4028378,1.4028378 0 1 1 2.80567,0 z" />
  <path
     transform="translate(-58.747839,164.53399)"
     sodipodi:type="arc"
     style="fill:#000000;fill-opacity:1;stroke:none"
     id="path3752-44-91"
     sodipodi:cx="141.68661"
     sodipodi:cy="62.078255"
     sodipodi:rx="1.4028378"
     sodipodi:ry="1.4028378"
     d="m 143.08945,62.078255 a 1.4028378,1.4028378 0 1 1 -2.80567,0 1.4028378,1.4028378 0 1 1 2.80567,0 z" />
  <path
     transform="translate(-67.890697,182.8197)"
     sodipodi:type="arc"
     style="fill:#000000;fill-opacity:1;stroke:none"
     id="path3752-44-35"
     sodipodi:cx="141.68661"
     sodipodi:cy="62.078255"
     sodipodi:rx="1.4028378"
     sodipodi:ry="1.4028378"
     d="m 143.08945,62.078255 a 1.4028378,1.4028378 0 1 1 -2.80567,0 1.4028378,1.4028378 0 1 1 2.80567,0 z" />
  <path
     transform="translate(-67.890697,196.53399)"
     sodipodi:type="arc"
     style="fill:#000000;fill-opacity:1;stroke:none"
     id="path3752-44-98"
     sodipodi:cx="141.68661"
     sodipodi:cy="62.078255"
     sodipodi:rx="1.4028378"
     sodipodi:ry="1.4028378"
     d="m 143.08945,62.078255 a 1.4028378,1.4028378 0 1 1 -2.80567,0 1.4028378,1.4028378 0 1 1 2.80567,0 z" />
  <path
     transform="translate(29.415426,79.636031)"
     sodipodi:type="arc"
     style="fill:#000000;fill-opacity:1;stroke:none"
     id="path3752-44-40"
     sodipodi:cx="141.68661"
     sodipodi:cy="62.078255"
     sodipodi:rx="1.4028378"
     sodipodi:ry="1.4028378"
     d="m 143.08945,62.078255 a 1.4028378,1.4028378 0 1 1 -2.80567,0 1.4028378,1.4028378 0 1 1 2.80567,0 z" />
  <path
     transform="translate(46.395018,82.901337)"
     sodipodi:type="arc"
     style="fill:#000000;fill-opacity:1;stroke:none"
     id="path3752-44-763"
     sodipodi:cx="141.68661"
     sodipodi:cy="62.078255"
     sodipodi:rx="1.4028378"
     sodipodi:ry="1.4028378"
     d="m 143.08945,62.078255 a 1.4028378,1.4028378 0 1 1 -2.80567,0 1.4028378,1.4028378 0 1 1 2.80567,0 z" />
  <path
     transform="translate(49.660324,65.921745)"
     sodipodi:type="arc"
     style="fill:#000000;fill-opacity:1;stroke:none"
     id="path3752-44-615"
     sodipodi:cx="141.68661"
     sodipodi:cy="62.078255"
     sodipodi:rx="1.4028378"
     sodipodi:ry="1.4028378"
     d="m 143.08945,62.078255 a 1.4028378,1.4028378 0 1 1 -2.80567,0 1.4028378,1.4028378 0 1 1 2.80567,0 z" />
  <path
     transform="translate(62.721548,77.676847)"
     sodipodi:type="arc"
     style="fill:#000000;fill-opacity:1;stroke:none"
     id="path3752-44-420"
     sodipodi:cx="141.68661"
     sodipodi:cy="62.078255"
     sodipodi:rx="1.4028378"
     sodipodi:ry="1.4028378"
     d="m 143.08945,62.078255 a 1.4028378,1.4028378 0 1 1 -2.80567,0 1.4028378,1.4028378 0 1 1 2.80567,0 z" />
  <path
     transform="translate(-16.951921,44.370725)"
     sodipodi:type="arc"
     style="fill:#000000;fill-opacity:1;stroke:none"
     id="path3752-44-97"
     sodipodi:cx="141.68661"
     sodipodi:cy="62.078255"
     sodipodi:rx="1.4028378"
     sodipodi:ry="1.4028378"
     d="m 143.08945,62.078255 a 1.4028378,1.4028378 0 1 1 -2.80567,0 1.4028378,1.4028378 0 1 1 2.80567,0 z" />
  <path
     transform="translate(-14.992737,18.248276)"
     sodipodi:type="arc"
     style="fill:#000000;fill-opacity:1;stroke:none"
     id="path3752-44-37"
     sodipodi:cx="141.68661"
     sodipodi:cy="62.078255"
     sodipodi:rx="1.4028378"
     sodipodi:ry="1.4028378"
     d="m 143.08945,62.078255 a 1.4028378,1.4028378 0 1 1 -2.80567,0 1.4028378,1.4028378 0 1 1 2.80567,0 z" />
  <path
     transform="translate(-27.400901,28.697256)"
     sodipodi:type="arc"
     style="fill:#000000;fill-opacity:1;stroke:none"
     id="path3752-44-26"
     sodipodi:cx="141.68661"
     sodipodi:cy="62.078255"
     sodipodi:rx="1.4028378"
     sodipodi:ry="1.4028378"
     d="m 143.08945,62.078255 a 1.4028378,1.4028378 0 1 1 -2.80567,0 1.4028378,1.4028378 0 1 1 2.80567,0 z" />
  <path
     transform="translate(-20.217227,27.391133)"
     sodipodi:type="arc"
     style="fill:#000000;fill-opacity:1;stroke:none"
     id="path3752-44-01"
     sodipodi:cx="141.68661"
     sodipodi:cy="62.078255"
     sodipodi:rx="1.4028378"
     sodipodi:ry="1.4028378"
     d="m 143.08945,62.078255 a 1.4028378,1.4028378 0 1 1 -2.80567,0 1.4028378,1.4028378 0 1 1 2.80567,0 z" />
  <path
     transform="translate(-17.604982,46.329909)"
     sodipodi:type="arc"
     style="fill:#000000;fill-opacity:1;stroke:none"
     id="path3752-44-65"
     sodipodi:cx="141.68661"
     sodipodi:cy="62.078255"
     sodipodi:rx="1.4028378"
     sodipodi:ry="1.4028378"
     d="m 143.08945,62.078255 a 1.4028378,1.4028378 0 1 1 -2.80567,0 1.4028378,1.4028378 0 1 1 2.80567,0 z" />
  <path
     transform="translate(-88.788656,177.59521)"
     sodipodi:type="arc"
     style="fill:#000000;fill-opacity:1;stroke:none"
     id="path3752-44-75"
     sodipodi:cx="141.68661"
     sodipodi:cy="62.078255"
     sodipodi:rx="1.4028378"
     sodipodi:ry="1.4028378"
     d="m 143.08945,62.078255 a 1.4028378,1.4028378 0 1 1 -2.80567,0 1.4028378,1.4028378 0 1 1 2.80567,0 z" />
  <path
     transform="translate(-55.482533,192.61562)"
     sodipodi:type="arc"
     style="fill:#000000;fill-opacity:1;stroke:none"
     id="path3752-44-41"
     sodipodi:cx="141.68661"
     sodipodi:cy="62.078255"
     sodipodi:rx="1.4028378"
     sodipodi:ry="1.4028378"
     d="m 143.08945,62.078255 a 1.4028378,1.4028378 0 1 1 -2.80567,0 1.4028378,1.4028378 0 1 1 2.80567,0 z" />
  <path
     transform="translate(-53.52335,177.59521)"
     sodipodi:type="arc"
     style="fill:#000000;fill-opacity:1;stroke:none"
     id="path3752-44-20"
     sodipodi:cx="141.68661"
     sodipodi:cy="62.078255"
     sodipodi:rx="1.4028378"
     sodipodi:ry="1.4028378"
     d="m 143.08945,62.078255 a 1.4028378,1.4028378 0 1 1 -2.80567,0 1.4028378,1.4028378 0 1 1 2.80567,0 z" />
</svg>
