<?xml version="1.0" encoding="UTF-8" standalone="no"?>
<svg
   xmlns:dc="http://purl.org/dc/elements/1.1/"
   xmlns:cc="http://creativecommons.org/ns#"
   xmlns:rdf="http://www.w3.org/1999/02/22-rdf-syntax-ns#"
   xmlns:svg="http://www.w3.org/2000/svg"
   xmlns="http://www.w3.org/2000/svg"
   xmlns:sodipodi="http://sodipodi.sourceforge.net/DTD/sodipodi-0.dtd"
   xmlns:inkscape="http://www.inkscape.org/namespaces/inkscape"
   version="1.0"
   width="122.23191"
   height="101.89735"
   id="svg2"
   inkscape:version="0.48.2 r9819"
   sodipodi:docname="C31.5.s.svg"
   sodipodi:version="0.32"
   inkscape:output_extension="org.inkscape.output.svg.inkscape"
   sodipodi:modified="true">
  <title
     id="title2982">C31.5: Nipa Palm (notable tree)</title>
  <metadata
     id="metadata3032">
    <rdf:RDF>
      <cc:Work
         rdf:about="">
        <dc:format>image/svg+xml</dc:format>
        <dc:type
           rdf:resource="http://purl.org/dc/dcmitype/StillImage" />
        <cc:license
           rdf:resource="http://creativecommons.org/licenses/publicdomain/" />
        <dc:title>C31.5: Nipa Palm (notable tree)</dc:title>
      </cc:Work>
      <cc:License
         rdf:about="http://creativecommons.org/licenses/publicdomain/">
        <cc:permits
           rdf:resource="http://creativecommons.org/ns#Reproduction" />
        <cc:permits
           rdf:resource="http://creativecommons.org/ns#Distribution" />
        <cc:permits
           rdf:resource="http://creativecommons.org/ns#DerivativeWorks" />
      </cc:License>
      <cc:Work
         rdf:about="">
        <dc:format>image/svg+xml</dc:format>
        <dc:type
           rdf:resource="http://purl.org/dc/dcmitype/StillImage" />
      </cc:Work>
    </rdf:RDF>
  </metadata>
  <sodipodi:namedview
     pagecolor="#ffffff"
     bordercolor="#666666"
     borderopacity="1"
     objecttolerance="10"
     gridtolerance="10"
     guidetolerance="10"
     inkscape:pageopacity="0"
     inkscape:pageshadow="2"
     inkscape:window-width="1440"
     inkscape:window-height="808"
     id="namedview3030"
     showgrid="false"
     inkscape:zoom="2.1443337"
     inkscape:cx="48.098952"
     inkscape:cy="221.88208"
     inkscape:window-x="0"
     inkscape:window-y="0"
     inkscape:window-maximized="1"
     inkscape:current-layer="svg2" />
  <defs
     id="defs4" />
  <path
     d="M 20.52924,86.58485 L 20.52924,92.2411 L 50.21674,92.2411 C 51.50406,97.77405 56.45001,101.89734 62.37299,101.89735 C 68.29794,101.89735 73.24394,97.77683 74.52924,92.2411 L 104.37299,92.2411 L 104.37299,92.1786 L 104.37299,86.58485 M 74.52924,86.58485 C 72.27609,81.43411 69.27486,78.1996 64.54372,77.11646 L 64.53972,74.51315 C 77.74912,54.46723 105.21861,46.50358 122.23191,49.20033 C 109.79131,40.68693 73.50917,51.10469 64.88007,68.20517 C 58.14361,50.15951 63.93295,16.01879 53.92447,-4.2632564e-014 C 59.38168,16.81046 52.5021,48.66743 59.15414,66.89974 C 44.85241,49.47636 19.11146,41.14055 2.8421709e-014,51.19643 C 26.8547,46.53394 41.41534,58.25907 60.93199,74.46626 L 60.20291,77.11658 C 55.59378,78.09043 51.27809,82.6349 50.21675,86.58485 M 62.37299,81.89735 C 66.51299,81.89735 69.87299,85.25735 69.87299,89.39735 C 69.87299,93.53735 66.51299,96.89735 62.37299,96.89735 C 58.23299,96.89735 54.87299,93.53735 54.87299,89.39735 C 54.87299,85.25735 58.23299,81.89735 62.37299,81.89735 z "
     id="path90440"
     style="fill:#000000;fill-opacity:1;fill-rule:evenodd;stroke:none"
     inkscape:connector-curvature="0"
     sodipodi:nodetypes="cccscccccccccccccccsssss" />
</svg>
