<?xml version="1.0" encoding="UTF-8" standalone="no"?>
<svg
   xmlns:dc="http://purl.org/dc/elements/1.1/"
   xmlns:cc="http://creativecommons.org/ns#"
   xmlns:rdf="http://www.w3.org/1999/02/22-rdf-syntax-ns#"
   xmlns:svg="http://www.w3.org/2000/svg"
   xmlns="http://www.w3.org/2000/svg"
   xmlns:sodipodi="http://sodipodi.sourceforge.net/DTD/sodipodi-0.dtd"
   xmlns:inkscape="http://www.inkscape.org/namespaces/inkscape"
   version="1.0"
   width="98.194115"
   height="128.11406"
   id="svg2"
   inkscape:version="0.48.2 r9819"
   sodipodi:docname="C31.2.s.svg"
   sodipodi:version="0.32"
   inkscape:output_extension="org.inkscape.output.svg.inkscape"
   sodipodi:modified="true">
  <title
     id="title3019">C31.2: Evergreen Wood (notable tree)</title>
  <metadata
     id="metadata3032">
    <rdf:RDF>
      <cc:Work
         rdf:about="">
        <dc:format>image/svg+xml</dc:format>
        <dc:type
           rdf:resource="http://purl.org/dc/dcmitype/StillImage" />
        <cc:license
           rdf:resource="http://creativecommons.org/licenses/publicdomain/" />
        <dc:title>C31.2: Evergreen Wood (notable tree)</dc:title>
      </cc:Work>
      <cc:License
         rdf:about="http://creativecommons.org/licenses/publicdomain/">
        <cc:permits
           rdf:resource="http://creativecommons.org/ns#Reproduction" />
        <cc:permits
           rdf:resource="http://creativecommons.org/ns#Distribution" />
        <cc:permits
           rdf:resource="http://creativecommons.org/ns#DerivativeWorks" />
      </cc:License>
      <cc:Work
         rdf:about="">
        <dc:format>image/svg+xml</dc:format>
        <dc:type
           rdf:resource="http://purl.org/dc/dcmitype/StillImage" />
      </cc:Work>
    </rdf:RDF>
  </metadata>
  <sodipodi:namedview
     pagecolor="#ffffff"
     bordercolor="#666666"
     borderopacity="1"
     objecttolerance="10"
     gridtolerance="10"
     guidetolerance="10"
     inkscape:pageopacity="0"
     inkscape:pageshadow="2"
     inkscape:window-width="1440"
     inkscape:window-height="808"
     id="namedview3030"
     showgrid="false"
     inkscape:zoom="2.4949428"
     inkscape:cx="33.774291"
     inkscape:cy="211.42932"
     inkscape:window-x="0"
     inkscape:window-y="0"
     inkscape:window-maximized="1"
     inkscape:current-layer="svg2" />
  <defs
     id="defs4" />
  <path
     d="M 12.434153,112.80156 L 12.434153,118.45781 L 42.121653,118.45781 C 43.408973,123.99076 48.354923,128.11405 54.277903,128.11406 C 60.202853,128.11406 65.148853,123.99354 66.434153,118.45781 L 96.277903,118.45781 L 96.277903,118.39531 L 96.277903,112.80156 M 66.434153,112.80156 C 64.181003,107.65082 61.179773,104.41631 56.448633,103.33317 C 56.262393,103.29847 56.045773,70.949781 56.045773,70.949781 L 55.922283,66.782241 L 52.135413,66.429191 C 44.649973,67.508041 24.734113,65.395331 19.012313,61.183261 C 5.8125331,58.420331 -2.0120769,52.129821 11.494703,36.013621 C 14.959203,24.514341 19.510663,16.927771 24.988763,12.265892 C 32.251193,6.0855504 41.142213,5.0454664 51.288273,6.8436024 C 78.829583,-1.6755416 73.505413,14.753761 81.142773,29.161951 C 87.822103,39.444131 101.88802,41.301451 81.127673,54.240451 C 72.610873,61.491861 71.512423,69.915231 55.941053,66.836741 L 55.939053,70.884151 C 69.325153,75.163241 75.796803,64.413181 85.907573,58.110421 C 102.99545,46.201401 101.69099,37.735581 85.521643,24.818761 C 76.497453,11.243864 82.450373,-5.8638366 49.994943,1.9769074 C 26.861613,-0.76419657 15.149083,7.0771584 7.0486731,33.142911 C -2.6473269,47.451311 -4.8691069,59.492491 16.928493,64.982691 C 25.028953,68.800491 43.796173,72.534501 52.148583,70.809431 C 52.148583,70.809431 52.455663,103.28735 52.107983,103.33329 C 47.498853,104.30714 43.183163,108.85161 42.121823,112.80156 M 54.277903,108.11406 C 58.417903,108.11406 61.777903,111.47406 61.777903,115.61406 C 61.777903,119.75406 58.417903,123.11406 54.277903,123.11406 C 50.137903,123.11406 46.777903,119.75406 46.777903,115.61406 C 46.777903,111.47406 50.137903,108.11406 54.277903,108.11406 z "
     id="path90440"
     style="fill:#000000;fill-opacity:1;fill-rule:evenodd;stroke:none;stroke-opacity:0.93567254"
     inkscape:connector-curvature="0"
     sodipodi:nodetypes="cccscccccccccccscccccccccccccsssss" />
  <path
     sodipodi:type="arc"
     style="fill:#000000;fill-opacity:1;stroke:none"
     id="path3752"
     sodipodi:cx="141.68661"
     sodipodi:cy="62.078255"
     sodipodi:rx="1.4028378"
     sodipodi:ry="1.4028378"
     d="M 143.08945 62.078255 A 1.4028378 1.4028378 0 1 1  140.28378,62.078255 A 1.4028378 1.4028378 0 1 1  143.08945 62.078255 z"
     transform="translate(-105.7221,-44.385939)" />
  <path
     transform="translate(-75.861693,-48.995262)"
     sodipodi:type="arc"
     style="fill:#000000;fill-opacity:1;stroke:none"
     id="path3752-5"
     sodipodi:cx="141.68661"
     sodipodi:cy="62.078255"
     sodipodi:rx="1.4028378"
     sodipodi:ry="1.4028378"
     d="M 143.08945 62.078255 A 1.4028378 1.4028378 0 1 1  140.28378,62.078255 A 1.4028378 1.4028378 0 1 1  143.08945 62.078255 z" />
  <path
     transform="translate(-91.493314,-42.582289)"
     sodipodi:type="arc"
     style="fill:#000000;fill-opacity:1;stroke:none"
     id="path3752-3"
     sodipodi:cx="141.68661"
     sodipodi:cy="62.078255"
     sodipodi:rx="1.4028378"
     sodipodi:ry="1.4028378"
     d="M 143.08945 62.078255 A 1.4028378 1.4028378 0 1 1  140.28378,62.078255 A 1.4028378 1.4028378 0 1 1  143.08945 62.078255 z" />
  <path
     transform="translate(-73.056017,-36.570127)"
     sodipodi:type="arc"
     style="fill:#000000;fill-opacity:1;stroke:none"
     id="path3752-9"
     sodipodi:cx="141.68661"
     sodipodi:cy="62.078255"
     sodipodi:rx="1.4028378"
     sodipodi:ry="1.4028378"
     d="M 143.08945 62.078255 A 1.4028378 1.4028378 0 1 1  140.28378,62.078255 A 1.4028378 1.4028378 0 1 1  143.08945 62.078255 z" />
  <path
     transform="translate(-113.1371,-40.177424)"
     sodipodi:type="arc"
     style="fill:#000000;fill-opacity:1;stroke:none"
     id="path3752-8"
     sodipodi:cx="141.68661"
     sodipodi:cy="62.078255"
     sodipodi:rx="1.4028378"
     sodipodi:ry="1.4028378"
     d="M 143.08945 62.078255 A 1.4028378 1.4028378 0 1 1  140.28378,62.078255 A 1.4028378 1.4028378 0 1 1  143.08945 62.078255 z" />
  <path
     transform="translate(-105.12088,-27.351479)"
     sodipodi:type="arc"
     style="fill:#000000;fill-opacity:1;stroke:none"
     id="path3752-58"
     sodipodi:cx="141.68661"
     sodipodi:cy="62.078255"
     sodipodi:rx="1.4028378"
     sodipodi:ry="1.4028378"
     d="M 143.08945 62.078255 A 1.4028378 1.4028378 0 1 1  140.28378,62.078255 A 1.4028378 1.4028378 0 1 1  143.08945 62.078255 z" />
  <path
     transform="translate(-101.11277,-38.974992)"
     sodipodi:type="arc"
     style="fill:#000000;fill-opacity:1;stroke:none"
     id="path3752-0"
     sodipodi:cx="141.68661"
     sodipodi:cy="62.078255"
     sodipodi:rx="1.4028378"
     sodipodi:ry="1.4028378"
     d="M 143.08945 62.078255 A 1.4028378 1.4028378 0 1 1  140.28378,62.078255 A 1.4028378 1.4028378 0 1 1  143.08945 62.078255 z" />
  <path
     transform="translate(-89.088449,-29.355533)"
     sodipodi:type="arc"
     style="fill:#000000;fill-opacity:1;stroke:none"
     id="path3752-4"
     sodipodi:cx="141.68661"
     sodipodi:cy="62.078255"
     sodipodi:rx="1.4028378"
     sodipodi:ry="1.4028378"
     d="M 143.08945 62.078255 A 1.4028378 1.4028378 0 1 1  140.28378,62.078255 A 1.4028378 1.4028378 0 1 1  143.08945 62.078255 z" />
  <path
     transform="translate(-81.072234,-41.780667)"
     sodipodi:type="arc"
     style="fill:#000000;fill-opacity:1;stroke:none"
     id="path3752-88"
     sodipodi:cx="141.68661"
     sodipodi:cy="62.078255"
     sodipodi:rx="1.4028378"
     sodipodi:ry="1.4028378"
     d="M 143.08945 62.078255 A 1.4028378 1.4028378 0 1 1  140.28378,62.078255 A 1.4028378 1.4028378 0 1 1  143.08945 62.078255 z" />
  <path
     transform="translate(-79.46899,-33.363641)"
     sodipodi:type="arc"
     style="fill:#000000;fill-opacity:1;stroke:none"
     id="path3752-83"
     sodipodi:cx="141.68661"
     sodipodi:cy="62.078255"
     sodipodi:rx="1.4028378"
     sodipodi:ry="1.4028378"
     d="M 143.08945 62.078255 A 1.4028378 1.4028378 0 1 1  140.28378,62.078255 A 1.4028378 1.4028378 0 1 1  143.08945 62.078255 z" />
  <path
     transform="translate(-70.250342,-29.756344)"
     sodipodi:type="arc"
     style="fill:#000000;fill-opacity:1;stroke:none"
     id="path3752-1"
     sodipodi:cx="141.68661"
     sodipodi:cy="62.078255"
     sodipodi:rx="1.4028378"
     sodipodi:ry="1.4028378"
     d="M 143.08945 62.078255 A 1.4028378 1.4028378 0 1 1  140.28378,62.078255 A 1.4028378 1.4028378 0 1 1  143.08945 62.078255 z" />
  <path
     transform="translate(-74.659261,-20.136885)"
     sodipodi:type="arc"
     style="fill:#000000;fill-opacity:1;stroke:none"
     id="path3752-92"
     sodipodi:cx="141.68661"
     sodipodi:cy="62.078255"
     sodipodi:rx="1.4028378"
     sodipodi:ry="1.4028378"
     d="M 143.08945 62.078255 A 1.4028378 1.4028378 0 1 1  140.28378,62.078255 A 1.4028378 1.4028378 0 1 1  143.08945 62.078255 z" />
  <path
     transform="translate(-87.886017,-19.736074)"
     sodipodi:type="arc"
     style="fill:#000000;fill-opacity:1;stroke:none"
     id="path3752-16"
     sodipodi:cx="141.68661"
     sodipodi:cy="62.078255"
     sodipodi:rx="1.4028378"
     sodipodi:ry="1.4028378"
     d="M 143.08945 62.078255 A 1.4028378 1.4028378 0 1 1  140.28378,62.078255 A 1.4028378 1.4028378 0 1 1  143.08945 62.078255 z" />
  <path
     transform="translate(-105.12088,-18.533642)"
     sodipodi:type="arc"
     style="fill:#000000;fill-opacity:1;stroke:none"
     id="path3752-45"
     sodipodi:cx="141.68661"
     sodipodi:cy="62.078255"
     sodipodi:rx="1.4028378"
     sodipodi:ry="1.4028378"
     d="M 143.08945 62.078255 A 1.4028378 1.4028378 0 1 1  140.28378,62.078255 A 1.4028378 1.4028378 0 1 1  143.08945 62.078255 z" />
  <path
     transform="translate(-114.33953,-28.553912)"
     sodipodi:type="arc"
     style="fill:#000000;fill-opacity:1;stroke:none"
     id="path3752-165"
     sodipodi:cx="141.68661"
     sodipodi:cy="62.078255"
     sodipodi:rx="1.4028378"
     sodipodi:ry="1.4028378"
     d="M 143.08945 62.078255 A 1.4028378 1.4028378 0 1 1  140.28378,62.078255 A 1.4028378 1.4028378 0 1 1  143.08945 62.078255 z" />
  <path
     transform="translate(-97.906287,-26.950668)"
     sodipodi:type="arc"
     style="fill:#000000;fill-opacity:1;stroke:none"
     id="path3752-00"
     sodipodi:cx="141.68661"
     sodipodi:cy="62.078255"
     sodipodi:rx="1.4028378"
     sodipodi:ry="1.4028378"
     d="M 143.08945 62.078255 A 1.4028378 1.4028378 0 1 1  140.28378,62.078255 A 1.4028378 1.4028378 0 1 1  143.08945 62.078255 z" />
  <path
     transform="translate(-116.74439,-16.930399)"
     sodipodi:type="arc"
     style="fill:#000000;fill-opacity:1;stroke:none"
     id="path3752-03"
     sodipodi:cx="141.68661"
     sodipodi:cy="62.078255"
     sodipodi:rx="1.4028378"
     sodipodi:ry="1.4028378"
     d="M 143.08945 62.078255 A 1.4028378 1.4028378 0 1 1  140.28378,62.078255 A 1.4028378 1.4028378 0 1 1  143.08945 62.078255 z" />
  <path
     transform="translate(-128.76872,-17.331209)"
     sodipodi:type="arc"
     style="fill:#000000;fill-opacity:1;stroke:none"
     id="path3752-89"
     sodipodi:cx="141.68661"
     sodipodi:cy="62.078255"
     sodipodi:rx="1.4028378"
     sodipodi:ry="1.4028378"
     d="M 143.08945 62.078255 A 1.4028378 1.4028378 0 1 1  140.28378,62.078255 A 1.4028378 1.4028378 0 1 1  143.08945 62.078255 z" />
  <path
     transform="translate(-119.14926,-10.517426)"
     sodipodi:type="arc"
     style="fill:#000000;fill-opacity:1;stroke:none"
     id="path3752-09"
     sodipodi:cx="141.68661"
     sodipodi:cy="62.078255"
     sodipodi:rx="1.4028378"
     sodipodi:ry="1.4028378"
     d="M 143.08945 62.078255 A 1.4028378 1.4028378 0 1 1  140.28378,62.078255 A 1.4028378 1.4028378 0 1 1  143.08945 62.078255 z" />
  <path
     transform="translate(-111.93466,-4.5052636)"
     sodipodi:type="arc"
     style="fill:#000000;fill-opacity:1;stroke:none"
     id="path3752-32"
     sodipodi:cx="141.68661"
     sodipodi:cy="62.078255"
     sodipodi:rx="1.4028378"
     sodipodi:ry="1.4028378"
     d="M 143.08945 62.078255 A 1.4028378 1.4028378 0 1 1  140.28378,62.078255 A 1.4028378 1.4028378 0 1 1  143.08945 62.078255 z" />
  <path
     transform="translate(-99.910341,-10.918237)"
     sodipodi:type="arc"
     style="fill:#000000;fill-opacity:1;stroke:none"
     id="path3752-05"
     sodipodi:cx="141.68661"
     sodipodi:cy="62.078255"
     sodipodi:rx="1.4028378"
     sodipodi:ry="1.4028378"
     d="M 143.08945 62.078255 A 1.4028378 1.4028378 0 1 1  140.28378,62.078255 A 1.4028378 1.4028378 0 1 1  143.08945 62.078255 z" />
  <path
     transform="translate(-109.12899,-12.120669)"
     sodipodi:type="arc"
     style="fill:#000000;fill-opacity:1;stroke:none"
     id="path3752-6"
     sodipodi:cx="141.68661"
     sodipodi:cy="62.078255"
     sodipodi:rx="1.4028378"
     sodipodi:ry="1.4028378"
     d="M 143.08945 62.078255 A 1.4028378 1.4028378 0 1 1  140.28378,62.078255 A 1.4028378 1.4028378 0 1 1  143.08945 62.078255 z" />
  <path
     transform="translate(-99.108719,-2.9020206)"
     sodipodi:type="arc"
     style="fill:#000000;fill-opacity:1;stroke:none"
     id="path3752-48"
     sodipodi:cx="141.68661"
     sodipodi:cy="62.078255"
     sodipodi:rx="1.4028378"
     sodipodi:ry="1.4028378"
     d="M 143.08945 62.078255 A 1.4028378 1.4028378 0 1 1  140.28378,62.078255 A 1.4028378 1.4028378 0 1 1  143.08945 62.078255 z" />
  <path
     transform="translate(-88.286828,-6.9101286)"
     sodipodi:type="arc"
     style="fill:#000000;fill-opacity:1;stroke:none"
     id="path3752-160"
     sodipodi:cx="141.68661"
     sodipodi:cy="62.078255"
     sodipodi:rx="1.4028378"
     sodipodi:ry="1.4028378"
     d="M 143.08945 62.078255 A 1.4028378 1.4028378 0 1 1  140.28378,62.078255 A 1.4028378 1.4028378 0 1 1  143.08945 62.078255 z" />
  <path
     transform="translate(-78.667369,-0.4971556)"
     sodipodi:type="arc"
     style="fill:#000000;fill-opacity:1;stroke:none"
     id="path3752-14"
     sodipodi:cx="141.68661"
     sodipodi:cy="62.078255"
     sodipodi:rx="1.4028378"
     sodipodi:ry="1.4028378"
     d="M 143.08945 62.078255 A 1.4028378 1.4028378 0 1 1  140.28378,62.078255 A 1.4028378 1.4028378 0 1 1  143.08945 62.078255 z" />
  <path
     transform="translate(-79.06818,-12.120669)"
     sodipodi:type="arc"
     style="fill:#000000;fill-opacity:1;stroke:none"
     id="path3752-42"
     sodipodi:cx="141.68661"
     sodipodi:cy="62.078255"
     sodipodi:rx="1.4028378"
     sodipodi:ry="1.4028378"
     d="M 143.08945 62.078255 A 1.4028378 1.4028378 0 1 1  140.28378,62.078255 A 1.4028378 1.4028378 0 1 1  143.08945 62.078255 z" />
  <path
     transform="translate(-70.651153,-9.3149936)"
     sodipodi:type="arc"
     style="fill:#000000;fill-opacity:1;stroke:none"
     id="path3752-59"
     sodipodi:cx="141.68661"
     sodipodi:cy="62.078255"
     sodipodi:rx="1.4028378"
     sodipodi:ry="1.4028378"
     d="M 143.08945 62.078255 A 1.4028378 1.4028378 0 1 1  140.28378,62.078255 A 1.4028378 1.4028378 0 1 1  143.08945 62.078255 z" />
  <path
     transform="translate(-64.638991,-20.938507)"
     sodipodi:type="arc"
     style="fill:#000000;fill-opacity:1;stroke:none"
     id="path3752-2"
     sodipodi:cx="141.68661"
     sodipodi:cy="62.078255"
     sodipodi:rx="1.4028378"
     sodipodi:ry="1.4028378"
     d="M 143.08945 62.078255 A 1.4028378 1.4028378 0 1 1  140.28378,62.078255 A 1.4028378 1.4028378 0 1 1  143.08945 62.078255 z" />
  <path
     transform="translate(-55.821154,-20.938507)"
     sodipodi:type="arc"
     style="fill:#000000;fill-opacity:1;stroke:none"
     id="path3752-21"
     sodipodi:cx="141.68661"
     sodipodi:cy="62.078255"
     sodipodi:rx="1.4028378"
     sodipodi:ry="1.4028378"
     d="M 143.08945 62.078255 A 1.4028378 1.4028378 0 1 1  140.28378,62.078255 A 1.4028378 1.4028378 0 1 1  143.08945 62.078255 z" />
  <path
     transform="translate(-65.440613,-13.323102)"
     sodipodi:type="arc"
     style="fill:#000000;fill-opacity:1;stroke:none"
     id="path3752-65"
     sodipodi:cx="141.68661"
     sodipodi:cy="62.078255"
     sodipodi:rx="1.4028378"
     sodipodi:ry="1.4028378"
     d="M 143.08945 62.078255 A 1.4028378 1.4028378 0 1 1  140.28378,62.078255 A 1.4028378 1.4028378 0 1 1  143.08945 62.078255 z" />
  <path
     transform="translate(-93.497368,-14.926345)"
     sodipodi:type="arc"
     style="fill:#000000;fill-opacity:1;stroke:none"
     id="path3752-457"
     sodipodi:cx="141.68661"
     sodipodi:cy="62.078255"
     sodipodi:rx="1.4028378"
     sodipodi:ry="1.4028378"
     d="M 143.08945 62.078255 A 1.4028378 1.4028378 0 1 1  140.28378,62.078255 A 1.4028378 1.4028378 0 1 1  143.08945 62.078255 z" />
  <path
     transform="translate(-80.671423,-26.149047)"
     sodipodi:type="arc"
     style="fill:#000000;fill-opacity:1;stroke:none"
     id="path3752-35"
     sodipodi:cx="141.68661"
     sodipodi:cy="62.078255"
     sodipodi:rx="1.4028378"
     sodipodi:ry="1.4028378"
     d="M 143.08945 62.078255 A 1.4028378 1.4028378 0 1 1  140.28378,62.078255 A 1.4028378 1.4028378 0 1 1  143.08945 62.078255 z" />
  <path
     transform="translate(-107.92656,-36.169316)"
     sodipodi:type="arc"
     style="fill:#000000;fill-opacity:1;stroke:none"
     id="path3752-588"
     sodipodi:cx="141.68661"
     sodipodi:cy="62.078255"
     sodipodi:rx="1.4028378"
     sodipodi:ry="1.4028378"
     d="M 143.08945 62.078255 A 1.4028378 1.4028378 0 1 1  140.28378,62.078255 A 1.4028378 1.4028378 0 1 1  143.08945 62.078255 z" />
  <path
     transform="translate(-98.307098,-50.999315)"
     sodipodi:type="arc"
     style="fill:#000000;fill-opacity:1;stroke:none"
     id="path3752-90"
     sodipodi:cx="141.68661"
     sodipodi:cy="62.078255"
     sodipodi:rx="1.4028378"
     sodipodi:ry="1.4028378"
     d="M 143.08945 62.078255 A 1.4028378 1.4028378 0 1 1  140.28378,62.078255 A 1.4028378 1.4028378 0 1 1  143.08945 62.078255 z" />
  <path
     transform="translate(-85.881963,-50.598505)"
     sodipodi:type="arc"
     style="fill:#000000;fill-opacity:1;stroke:none"
     id="path3752-051"
     sodipodi:cx="141.68661"
     sodipodi:cy="62.078255"
     sodipodi:rx="1.4028378"
     sodipodi:ry="1.4028378"
     d="M 143.08945 62.078255 A 1.4028378 1.4028378 0 1 1  140.28378,62.078255 A 1.4028378 1.4028378 0 1 1  143.08945 62.078255 z" />
  <path
     transform="translate(-124.3598,-31.760398)"
     sodipodi:type="arc"
     style="fill:#000000;fill-opacity:1;stroke:none"
     id="path3752-44"
     sodipodi:cx="141.68661"
     sodipodi:cy="62.078255"
     sodipodi:rx="1.4028378"
     sodipodi:ry="1.4028378"
     d="M 143.08945 62.078255 A 1.4028378 1.4028378 0 1 1  140.28378,62.078255 A 1.4028378 1.4028378 0 1 1  143.08945 62.078255 z" />
  <path
     transform="translate(-94.699801,-34.165263)"
     sodipodi:type="arc"
     style="fill:#000000;fill-opacity:1;stroke:none"
     id="path3752-592"
     sodipodi:cx="141.68661"
     sodipodi:cy="62.078255"
     sodipodi:rx="1.4028378"
     sodipodi:ry="1.4028378"
     d="M 143.08945 62.078255 A 1.4028378 1.4028378 0 1 1  140.28378,62.078255 A 1.4028378 1.4028378 0 1 1  143.08945 62.078255 z" />
</svg>
