<?xml version="1.0" encoding="UTF-8" standalone="no"?>
<svg
   xmlns:dc="http://purl.org/dc/elements/1.1/"
   xmlns:cc="http://creativecommons.org/ns#"
   xmlns:rdf="http://www.w3.org/1999/02/22-rdf-syntax-ns#"
   xmlns:svg="http://www.w3.org/2000/svg"
   xmlns="http://www.w3.org/2000/svg"
   xmlns:sodipodi="http://sodipodi.sourceforge.net/DTD/sodipodi-0.dtd"
   xmlns:inkscape="http://www.inkscape.org/namespaces/inkscape"
   version="1.0"
   width="89.0625"
   height="110.46875"
   id="svg2"
   inkscape:version="0.48.2 r9819"
   sodipodi:docname="C31.6.s.svg"
   sodipodi:version="0.32"
   inkscape:output_extension="org.inkscape.output.svg.inkscape"
   sodipodi:modified="true">
  <title
     id="title2983">C31.6: Casuarina (notable tree)</title>
  <metadata
     id="metadata3032">
    <rdf:RDF>
      <cc:Work
         rdf:about="">
        <dc:format>image/svg+xml</dc:format>
        <dc:type
           rdf:resource="http://purl.org/dc/dcmitype/StillImage" />
        <cc:license
           rdf:resource="http://creativecommons.org/licenses/publicdomain/" />
        <dc:title>C31.6: Casuarina (notable tree)</dc:title>
      </cc:Work>
      <cc:License
         rdf:about="http://creativecommons.org/licenses/publicdomain/">
        <cc:permits
           rdf:resource="http://creativecommons.org/ns#Reproduction" />
        <cc:permits
           rdf:resource="http://creativecommons.org/ns#Distribution" />
        <cc:permits
           rdf:resource="http://creativecommons.org/ns#DerivativeWorks" />
      </cc:License>
      <cc:Work
         rdf:about="">
        <dc:format>image/svg+xml</dc:format>
        <dc:type
           rdf:resource="http://purl.org/dc/dcmitype/StillImage" />
      </cc:Work>
    </rdf:RDF>
  </metadata>
  <sodipodi:namedview
     pagecolor="#ffffff"
     bordercolor="#666666"
     borderopacity="1"
     objecttolerance="10"
     gridtolerance="10"
     guidetolerance="10"
     inkscape:pageopacity="0"
     inkscape:pageshadow="2"
     inkscape:window-width="1440"
     inkscape:window-height="808"
     id="namedview3030"
     showgrid="false"
     inkscape:zoom="3.0627563"
     inkscape:cx="45.070841"
     inkscape:cy="205.4466"
     inkscape:window-x="0"
     inkscape:window-y="0"
     inkscape:window-maximized="1"
     inkscape:current-layer="svg2" />
  <defs
     id="defs4" />
  <path
     style="fill:#000000;fill-opacity:1;fill-rule:evenodd;stroke:none"
     d="M 42.375,0 L 39.28125,1.5625 C 39.2815,1.79588 39.28079,2.04787 39.28125,2.28125 C 39.28225,2.747225 39.28725,3.1903 39.28125,3.65625 C 39.27133,4.141129 39.2652,4.64534 39.1875,5.125 C 39.08961,5.704365 38.95478,6.266938 38.84375,6.84375 C 38.68667,7.467679 38.54495,8.077742 38.46875,8.71875 C 38.33857,9.385782 38.1531,10.066528 38.125,10.75 C 38.09214,11.419216 38.01469,12.075506 37.8125,12.71875 C 37.76608,12.878651 37.7112,13.03091 37.65625,13.1875 C 37.64616,13.185759 37.63507,13.189255 37.625,13.1875 C 36.94578,13.000369 36.4285,12.629202 35.9375,12.125 C 35.3182,11.55229 34.75827,10.928361 34.34375,10.1875 C 33.92491,9.431202 33.52506,8.633757 33.25,7.8125 C 32.96173,7.01469 32.68202,6.239539 32.40625,5.4375 C 32.13834,4.695984 31.80189,3.97943 31.4375,3.28125 L 28.4375,5.03125 C 28.86892,5.663567 29.18689,6.340722 29.4375,7.0625 C 29.70675,7.866715 30.00317,8.66761 30.28125,9.46875 C 30.56327,10.307438 30.98244,11.100744 31.40625,11.875 C 31.82452,12.65251 32.40044,13.298216 33.03125,13.90625 C 33.34087,14.228134 33.66927,14.519112 34.03125,14.75 C 34.05066,14.783159 34.07452,14.810489 34.09375,14.84375 C 34.52882,15.574748 34.86936,16.373862 35.375,17.0625 C 35.70232,17.63184 36.07491,18.1806 36.34375,18.78125 C 36.61691,19.342263 36.97255,19.863942 37.40625,20.3125 C 37.83629,20.742238 38.31353,21.122376 38.8125,21.46875 C 39.29316,21.799671 39.79618,22.046095 40.3125,22.3125 C 40.76413,22.612236 41.24971,22.885198 41.71875,23.15625 C 42.14221,23.426618 42.57206,23.690857 42.96875,24 C 43.51458,24.320982 44.0045,24.727406 44.5625,25.03125 C 45.02908,25.363137 45.49549,25.678173 45.96875,26 C 46.40536,26.293273 46.91518,26.47585 47.4375,26.53125 C 48.03802,26.53495 48.61823,26.500909 49.21875,26.5 C 49.83432,26.49896 50.45015,26.50783 51.0625,26.4375 C 51.6617,26.354137 52.24867,26.21868 52.84375,26.125 L 53.21875,26.0625 C 53.24035,26.083122 53.25954,26.104318 53.28125,26.125 C 53.60783,26.407636 54.01011,26.624407 54.3125,26.9375 C 54.71708,27.240237 55.10552,27.529562 55.5,27.84375 C 55.83833,28.180104 56.17663,28.523274 56.3125,29 C 56.5255,29.553646 56.67804,30.10348 56.78125,30.6875 C 56.84695,31.318175 56.8225,31.959951 56.8125,32.59375 C 56.8135,33.15392 56.8145,33.721103 56.8125,34.28125 C 56.81248,34.747259 56.81235,35.221491 56.8125,35.6875 C 56.8125,36.160784 56.8105,36.62047 56.8125,37.09375 C 56.8155,37.665549 56.81226,38.24069 56.8125,38.8125 C 56.8086,39.49656 56.8011,40.16133 56.75,40.84375 C 56.69258,41.56477 56.5923,42.30619 56.625,43.03125 C 56.6318,43.85472 56.63786,44.68144 56.53125,45.5 C 56.39123,46.32483 56.25969,47.13075 56.03125,47.9375 C 55.9187,48.55327 55.65621,48.86579 55.28125,49.375 C 54.97323,49.91581 54.96364,50.11108 54.53125,50.5625 C 54.17213,50.92083 53.84237,51.17541 53.40625,51.4375 C 52.93132,51.74642 52.53431,51.80009 52.09375,52.15625 C 51.55601,52.56551 50.6197,53.18018 50.0625,53.5625 C 49.65144,53.66845 48.79896,54.2613 47.71875,54.3125 L 46.125,54.71875 L 43.71875,55.28125 C 43.73022,55.2831 43.7381,55.30842 43.75,55.3125 C 42.99355,55.48182 41.67264,55.75031 41.125,55.78125 C 40.51172,55.80472 39.92812,55.66118 39.375,55.40625 C 38.82591,55.10548 38.32013,54.75639 37.78125,54.4375 C 37.01444,54.03268 36.2904,53.53065 35.5625,53.0625 C 34.74472,52.54572 33.9104,52.06061 33.03125,51.65625 C 32.38842,51.38435 31.828,50.99037 31.21875,50.65625 C 30.73758,50.38652 30.2833,50.06927 29.8125,49.78125 C 29.42574,49.56965 29.0762,49.28528 28.71875,49.03125 C 28.24176,48.73443 27.82728,48.36936 27.40625,48 C 26.91036,47.56822 26.45757,47.06417 25.96875,46.625 C 25.55182,46.19238 25.06717,45.84184 24.6875,45.375 C 24.34085,44.97535 24.01663,44.55049 23.75,44.09375 C 23.45972,43.62591 23.15999,43.19047 22.875,42.71875 C 22.60942,42.25994 22.2544,41.86464 21.90625,41.46875 C 21.53634,41.00891 21.16537,40.54231 20.78125,40.09375 C 20.36573,39.61895 19.99813,39.10178 19.625,38.59375 C 19.29339,38.15667 18.92221,37.743521 18.625,37.28125 C 18.29541,36.812139 18.02145,36.315581 17.8125,35.78125 C 17.67429,35.334228 17.50547,34.907687 17.34375,34.46875 C 17.22608,34.019547 17.13237,33.547771 17.03125,33.09375 C 16.93332,32.613948 16.77293,32.154561 16.625,31.6875 C 16.47967,31.241033 16.3282,30.808483 16.25,30.34375 C 16.1882,29.890431 16.1905,29.425392 16.1875,28.96875 C 16.17637,28.550211 16.09982,28.117746 15.96875,27.71875 C 15.84345,27.334038 15.68775,26.957059 15.59375,26.5625 C 15.5898,26.549423 15.56661,26.544257 15.5625,26.53125 C 15.99692,26.264647 16.43429,25.879453 17.0625,25.1875 C 17.45458,24.86781 17.82982,24.511903 18.15625,24.125 C 18.40991,23.766145 18.6501,23.421748 18.6875,22.96875 C 18.7763,22.524907 18.7693,22.077466 18.75,21.625 C 18.7455,21.101823 18.76205,20.584195 18.71875,20.0625 C 18.66798,19.522137 18.54255,19.00078 18.4375,18.46875 C 18.37612,17.89601 18.26995,17.327318 18.28125,16.75 C 18.28025,16.261217 18.28325,15.770029 18.28125,15.28125 C 18.27861,14.728482 18.27925,14.177757 18.28125,13.625 C 18.27945,13.089554 18.2888,12.535061 18.3125,12 L 15.21875,13.59375 C 15.24315,14.123547 15.22075,14.657301 15.21875,15.1875 C 15.22011,15.740476 15.22075,16.290763 15.21875,16.84375 C 15.21575,17.333725 15.21923,17.822521 15.21875,18.3125 C 15.24064,18.896868 15.35395,19.479229 15.40625,20.0625 C 15.52044,20.591838 15.61135,21.116476 15.65625,21.65625 C 15.69032,22.171193 15.68723,22.671684 15.6875,23.1875 C 15.72907,23.584143 15.39278,23.939622 15.25,24.3125 L 12.0625,26.28125 C 11.73748,26.334481 11.39171,26.365824 11.0625,26.375 C 10.55889,26.3834 10.06615,26.3769 9.5625,26.375 C 9.03278,26.428779 8.53372,26.302288 8.03125,26.15625 C 7.55786,26.016022 7.19824,25.685906 6.78125,25.4375 C 6.32866,25.175232 5.88557,24.883709 5.5,24.53125 C 5.11952,24.177154 4.7765,23.830899 4.4375,23.4375 C 4.21376,23.141354 3.9581,22.845876 3.71875,22.5625 C 3.46656,22.245914 3.4135,21.858771 3.375,21.46875 C 3.3433,21.011048 3.34275,20.552252 3.34375,20.09375 C 3.36684,19.653444 3.31122,19.225613 3.15625,18.8125 C 3.06517,18.586649 3.10955,18.692941 3.03125,18.46875 L 0,20.15625 C 0.08374,20.3898 0.037,20.24818 0.125,20.46875 C 0.25831,20.848412 0.29875,21.256175 0.28125,21.65625 C 0.28125,22.126895 0.2679,22.593462 0.3125,23.0625 C 0.37016,23.516659 0.46735,23.970161 0.75,24.34375 C 0.98536,24.637849 1.23815,24.920935 1.46875,25.21875 C 1.82758,25.60884 2.20914,25.977892 2.59375,26.34375 C 2.99097,26.724096 3.43489,27.028475 3.90625,27.3125 C 4.35351,27.55708 4.72715,27.926025 5.21875,28.09375 C 5.73788,28.238 6.22844,28.44208 6.78125,28.375 C 7.28831,28.375777 7.80545,28.3783 8.3125,28.375 C 8.79882,28.36997 9.27061,28.40726 9.75,28.3125 C 10.24266,28.192321 10.88044,28.178454 11.375,28.0625 C 11.69054,27.95634 12.05354,27.884166 12.40625,27.8125 C 12.46278,27.942616 12.52169,28.081084 12.5625,28.21875 C 12.66591,28.617267 12.81067,28.983756 12.9375,29.375 C 13.04924,29.74689 13.12436,30.143101 13.125,30.53125 C 13.1314,31.005843 13.13935,31.499548 13.21875,31.96875 C 13.3121,32.443529 13.47635,32.884425 13.625,33.34375 C 13.77304,33.801728 13.86925,34.279192 13.96875,34.75 C 14.07953,35.21676 14.17391,35.666245 14.3125,36.125 C 14.3271,36.164399 14.32907,36.210635 14.34375,36.25 C 13.25639,37.016092 11.96185,38.33666 11.0625,39.28125 C 10.955,39.40612 10.87059,39.5481 10.78125,39.6875 C 10.63431,39.67998 10.49495,39.67261 10.34375,39.6875 C 9.77141,39.68811 9.19733,39.68651 8.625,39.6875 C 7.91033,39.6939 7.182,39.7014 6.46875,39.75 C 5.81833,39.81705 5.17943,39.93498 4.5625,40.15625 C 3.40982,40.81822 1.34335,41.45206 0.65625,42.90625 C 0.4303,43.38059 0.15669,43.82849 0.03125,44.34375 L 3.15625,42.84375 C 3.86983,42.08387 3.92393,41.47883 5.84375,41.6875 C 6.41256,41.6865 6.9937,41.6845 7.5625,41.6875 C 8.01188,41.6741 8.46529,41.69385 8.90625,41.78125 C 9.38572,41.87479 9.76597,42.19602 10.15625,42.46875 C 10.58274,42.75661 10.79915,43.20204 11.0625,43.625 C 11.34109,44.09358 11.60378,44.57758 11.78125,45.09375 C 11.93092,45.57398 11.95375,46.06342 11.96875,46.5625 C 11.98075,47.08666 11.97175,47.63201 11.96875,48.15625 C 11.96475,48.64501 11.96958,49.13623 11.96875,49.625 C 11.96815,50.09275 11.96875,50.53226 11.96875,51 C 12.04009,51.50798 11.85382,51.80378 11.6875,52.25 C 11.48054,52.51419 11.21508,52.7757 10.9375,52.96875 C 12.03552,53.78803 11.04333,54.01243 13.78125,52.25 C 13.97399,52.09172 14.08628,52.01472 14.28125,51.46875 C 14.54389,51.20897 14.69653,51.17879 14.8125,50.8125 C 14.98459,50.37267 15.07445,49.91384 15.03125,49.4375 C 15.03125,48.96995 15.03122,48.53004 15.03125,48.0625 C 15.03129,47.57502 15.0311,47.08123 15.03125,46.59375 C 15.03125,46.06425 15.04425,45.52933 15.03125,45 C 15.00446,44.46981 14.95536,43.9429 14.78125,43.4375 C 14.58634,42.90271 14.32673,42.39308 14.03125,41.90625 C 13.7488,41.44255 13.48393,40.95112 13.03125,40.625 C 13.00741,40.60786 12.99252,40.57989 12.96875,40.5625 C 12.97478,40.49458 12.98672,40.4108 13,40.34375 C 13.09045,39.86767 13.2485,39.44746 13.5,39.03125 C 13.68423,38.69946 13.88209,38.35825 14.15625,38.09375 C 14.40148,37.962038 14.62527,37.843768 14.90625,37.6875 C 15.11596,38.15422 15.36282,38.61093 15.65625,39.03125 C 15.96021,39.49847 16.0329,39.74843 16.375,40.1875 C 16.76311,40.69412 17.02865,41.26012 17.4375,41.75 C 17.82098,42.1991 18.10546,42.78489 18.46875,43.25 C 18.79681,43.63786 18.86401,43.99916 19.125,44.4375 C 19.41134,44.90688 19.60915,44.97625 19.90625,45.4375 C 20.18395,45.90592 20.63735,46.68655 21,47.09375 C 21.39521,47.57676 21.35656,47.69969 21.78125,48.15625 C 22.2842,48.57762 22.50524,49.06864 23,49.5 C 23.42443,49.88205 24.08309,50.56196 24.5625,50.875 C 24.9337,51.11923 25.47046,51.55417 25.875,51.75 C 26.34919,52.05052 26.89446,52.33518 27.375,52.625 C 28.00712,52.94217 28.59161,54.04512 29.25,54.3125 C 30.12808,54.68592 30.91064,55.05645 31.71875,55.5625 C 32.4419,56.03347 32.82704,56.41297 33.59375,56.8125 C 34.05302,57.09326 34.771,57.83087 35.3125,58.25 C 35.40684,58.32302 35.51373,58.41993 35.59375,58.46875 C 35.91895,58.48789 36.20822,58.42587 36.46875,58.375 L 36.53125,58.375 L 42.15625,59.03125 L 42.21875,85.8125 C 37.60962,86.78635 32.49884,91.2063 31.4375,95.15625 L 1.75,95.15625 L 1.75,100.8125 L 31.4375,100.8125 C 32.72482,106.34545 37.67077,110.46874 43.59375,110.46875 C 49.5187,110.46875 54.4647,106.34823 55.75,100.8125 L 85.59375,100.8125 L 85.59375,100.75 L 85.59375,95.15625 L 55.75,95.15625 C 53.49685,90.00551 50.48114,86.77064 45.75,85.6875 L 45.75,59.09375 L 50.75,58.375 L 51.40625,58.28125 L 51.25,58.21875 C 51.56211,57.94555 52.43228,56.96104 52.75,56.6875 C 53.04254,56.35972 54.20035,55.00717 54.53125,54.71875 C 54.98278,54.32789 55.16401,53.59162 55.65625,53.25 C 56.22861,52.89229 56.23038,52.3254 56.78125,51.9375 C 57.20513,51.54815 57.13042,51.20854 57.59375,50.875 C 58.04884,50.62726 58.11846,49.71758 58.46875,49.34375 C 58.88877,48.86248 58.85639,48.85139 59.1875,48.3125 C 59.46834,47.95377 59.46877,47.41746 59.46875,46.90625 C 59.50618,46.86158 59.5561,46.82565 59.59375,46.78125 C 59.94068,46.84271 60.27387,46.94931 60.59375,47.09375 C 60.93361,47.25931 61.269,47.41515 61.5625,47.65625 C 61.8422,47.9759 62.0298,48.33949 62.125,48.75 C 62.2087,49.23729 62.1855,49.72596 62.1875,50.21875 C 62.25161,50.65896 62.335,51.0877 62.375,51.53125 C 62.45572,52.00379 62.62813,52.44421 62.75,52.90625 C 62.93077,53.35055 63.03835,53.83762 63.09375,54.3125 C 63.17628,54.78869 63.35927,55.21812 63.46875,55.6875 C 63.60523,56.20742 63.78056,56.71115 64.03125,57.1875 C 64.31482,57.68271 64.58982,58.16448 64.96875,58.59375 C 65.32705,59.01596 65.78031,59.26021 66.3125,59.375 C 66.89641,59.4583 67.47394,59.4574 68.0625,59.4375 L 70.8125,57.40625 C 70.24688,57.47005 69.69151,57.45555 69.125,57.40625 C 68.65092,57.34556 68.22267,57.19263 67.90625,56.8125 C 67.53826,56.41354 67.25428,55.94748 67,55.46875 C 66.77875,55.00963 66.62618,54.55627 66.5,54.0625 C 66.38523,53.60765 66.1961,53.15265 66.125,52.6875 C 66.05499,52.20027 65.92279,51.7427 65.75,51.28125 C 65.7411,51.24892 65.7278,51.2198 65.71875,51.1875 L 66.0625,51.03125 C 66.30408,50.49952 66.50906,49.96902 66.8125,49.46875 C 67.06471,48.96363 67.3361,48.45443 67.625,47.96875 C 67.8183,47.67404 68.03611,47.40326 68.28125,47.15625 C 68.36628,47.13982 68.44586,47.13569 68.53125,47.125 C 69.01364,47.078 69.51585,47.06237 70,47.0625 C 70.51606,47.06426 71.01518,47.0605 71.53125,47.0625 C 71.82572,47.06816 72.11978,47.02855 72.40625,46.96875 L 75.125,44.84375 C 74.86904,44.97268 74.59106,44.9993 74.3125,45.0625 C 73.79868,45.0625 73.29506,45.0655 72.78125,45.0625 C 72.2887,45.0608 71.80453,45.0354 71.3125,45.0625 C 69.51728,45.19708 68.52647,45.93401 66.8125,47.125 C 66.39404,47.39444 65.99726,47.70921 65.59375,48 C 65.46629,48.11294 65.36531,48.25045 65.25,48.375 C 65.24529,47.94791 65.24676,47.51206 65.15625,47.09375 C 65.02865,46.62077 64.80056,46.20006 64.5,45.8125 C 64.19873,45.52882 63.84704,45.35133 63.46875,45.1875 C 63.03515,44.95159 62.57011,44.84099 62.09375,44.71875 C 62.00799,44.71115 61.68705,44.6774 61.59375,44.6875 C 61.52085,44.6953 61.4392,44.68345 61.375,44.71875 C 60.76819,45.05257 60.16552,45.34053 59.59375,45.65625 C 59.62219,45.11086 59.49252,44.61316 59.59375,44 C 59.68395,43.16125 59.66525,42.31077 59.65625,41.46875 C 59.65254,40.75033 59.7552,40.05955 59.8125,39.34375 C 59.8646,38.65463 59.869,37.940639 59.875,37.25 C 59.8815,36.673396 59.873,36.107886 59.875,35.53125 C 59.87601,35.057313 59.87498,34.567688 59.875,34.09375 L 59.875,32.71875 C 59.873,32.161313 59.874,31.588712 59.875,31.03125 C 59.8892,30.38476 59.86285,29.766335 59.78125,29.125 C 59.76458,29.042795 59.73615,28.956984 59.71875,28.875 C 61.20842,28.186364 62.80235,27.535036 63.84375,26.25 C 64.10812,25.879137 64.34464,25.493683 64.5625,25.09375 C 64.86147,24.795957 65.10457,24.444347 65.375,24.125 C 65.41163,24.067318 65.42655,23.99127 65.46875,23.9375 C 65.64771,23.709535 65.56916,23.913768 65.71875,23.65625 C 65.8213,23.479701 65.88499,23.295959 66,23.125 C 66.22074,22.754367 66.35896,22.329042 66.59375,21.96875 C 66.87921,21.580643 67.15628,21.195208 67.34375,20.75 C 67.5393,20.198707 67.56805,19.579624 67.59375,19 C 67.6281,18.516157 67.68197,18.031604 67.8125,17.5625 C 67.95433,17.089229 68.00885,16.585587 68.03125,16.09375 C 68.04225,15.82034 68.0585,15.554838 68.0625,15.28125 L 65,16.84375 C 64.9949,17.112246 64.98915,17.388347 64.96875,17.65625 C 64.92267,18.132289 64.85017,18.601654 64.71875,19.0625 C 64.62147,19.558716 64.54025,20.056008 64.53125,20.5625 C 64.50175,21.108129 64.45687,21.65501 64.21875,22.15625 C 63.99301,22.583517 63.68557,22.96086 63.4375,23.375 C 63.25884,23.760749 63.06451,24.168083 62.84375,24.53125 C 62.64082,24.862753 62.43053,25.164639 62.1875,25.46875 C 61.94167,25.818826 61.6233,26.129821 61.40625,26.5 C 61.30363,26.666295 61.19948,26.835991 61.09375,27 C 61.07297,26.996333 61.05218,27.00436 61.03125,27 C 60.49193,26.910402 59.94427,26.768238 59.4375,26.5625 C 59.02892,26.357832 58.66097,26.105138 58.25,25.90625 C 57.90832,25.628115 57.54123,25.356467 57.1875,25.09375 C 56.88183,24.799228 56.54911,24.545187 56.21875,24.28125 C 55.902,24.003818 55.59463,23.744636 55.34375,23.40625 C 55.04861,23.069721 54.78549,22.700541 54.5625,22.3125 C 54.30092,21.969994 54.14598,21.55671 54,21.15625 C 53.85767,20.732325 53.8311,20.286912 53.8125,19.84375 C 53.8013,19.357531 53.8135,18.892582 53.8125,18.40625 C 53.8135,17.887495 53.8105,17.362503 53.8125,16.84375 C 53.88552,16.48476 53.94121,16.127444 54.1875,15.84375 C 54.42574,15.494456 54.71037,15.153189 55.03125,14.875 C 55.44007,14.529368 55.90248,14.270226 56.34375,13.96875 C 56.7069,13.665656 57.06556,13.358662 57.375,13 C 57.53376,12.747611 57.47054,12.868543 57.59375,12.59375 L 54.4375,14.03125 C 54.28825,14.25246 54.36454,14.140222 54.1875,14.34375 C 53.86694,14.668056 53.52564,14.951628 53.15625,15.21875 C 52.71157,15.523015 52.25434,15.798302 51.875,16.1875 C 51.56455,16.511417 51.24765,16.820987 51.03125,17.21875 C 50.86587,17.591395 50.758,17.995999 50.75,18.40625 C 50.75071,18.923818 50.751,19.451182 50.75,19.96875 C 50.7471,20.461992 50.7266,20.944551 50.75,21.4375 C 50.77797,21.913562 50.83909,22.391097 51,22.84375 C 51.15372,23.261892 51.28105,23.678361 51.5625,24.03125 C 51.65127,24.186218 51.74462,24.351595 51.84375,24.5 C 51.29969,24.503284 50.76282,24.498632 50.21875,24.5 C 49.74882,24.488411 49.28578,24.384388 48.875,24.15625 C 48.39866,23.842094 47.90803,23.510386 47.4375,23.1875 C 46.88779,22.864296 46.37683,22.504652 45.84375,22.15625 C 45.54169,21.936822 45.2468,21.708061 44.9375,21.5 C 45.07449,20.665052 45.51843,18.71626 45.75,18.21875 C 46.02386,17.621421 46.3556,17.053217 46.65625,16.46875 C 46.8453,15.977179 47.15761,15.533364 47.4375,15.09375 C 47.64654,14.839667 47.8109,14.555839 48.03125,14.3125 C 48.14648,14.185247 48.2858,14.091078 48.40625,13.96875 C 48.78612,13.646506 49.10645,13.252349 49.5,12.9375 C 49.64889,12.827126 49.78666,12.701982 49.9375,12.59375 C 50.39461,12.363493 50.86137,12.117208 51.3125,11.875 C 51.66522,11.682037 52.05447,11.475276 52.5,11.21875 C 52.61994,11.15471 52.96948,10.97469 53.09375,10.90625 C 53.7779,10.546429 54.48247,10.191631 55.1875,9.875 C 56.00159,9.494755 56.90848,9.497321 57.75,9.1875 L 60.90625,8.78125 C 61.44271,8.73862 62.06694,8.46846 62.59375,8.5625 C 63.21207,8.674605 63.42451,8.314421 64,8.5625 C 64.46794,8.733018 64.90007,8.943004 65.375,9.09375 C 65.80972,9.245828 66.26275,9.34317 66.71875,9.40625 C 67.17972,9.463696 67.62897,9.619127 68.0625,9.78125 C 68.41914,9.929124 68.74517,10.125513 69.0625,10.34375 C 69.39039,10.577369 69.7463,10.78145 70.0625,11.03125 C 70.37178,11.325699 70.66554,11.605447 70.96875,11.90625 C 71.22412,12.150316 71.50532,12.401306 71.75,12.65625 C 71.83004,12.77195 73.22441,13.326509 74.125,13.71875 C 74.14978,13.93413 74.18223,14.12766 74.21875,14.34375 C 74.3639,14.812348 74.59485,15.285233 74.875,15.6875 C 75.0875,16.040788 75.31228,16.35917 75.5625,16.6875 C 75.89289,17.078781 76.3098,17.386113 76.71875,17.6875 C 77.15765,18.057028 77.59234,18.40434 78.125,18.625 C 78.61662,18.83976 79.15775,18.94013 79.6875,19 C 80.19935,19.043044 80.70541,19.05326 81.21875,19.03125 L 81.46875,19 L 84.1875,16.90625 C 84.11376,16.93567 84.04245,16.93933 83.96875,16.96875 C 83.47515,17.06453 82.96871,17.0056 82.46875,17 C 81.96057,16.962338 81.47007,16.89967 81,16.6875 C 80.46804,16.52615 80.03329,16.21651 79.625,15.84375 C 79.24674,15.554524 78.85092,15.295395 78.53125,14.9375 C 78.2863,14.607416 78.05662,14.257409 77.84375,13.90625 C 77.5785,13.555984 77.36902,13.173096 77.25,12.75 C 77.1734,12.292895 77.13005,11.83957 77.15625,11.375 C 77.15625,10.898375 77.15825,10.414119 77.15625,9.9375 C 77.15325,9.409623 77.15525,8.871638 77.15625,8.34375 C 77.16211,7.899165 77.15171,7.472012 77.21875,7.03125 C 77.70534,6.8802 78.17531,6.707108 78.65625,6.53125 C 78.89403,6.471398 79.13614,6.36789 79.375,6.3125 C 79.78111,6.218322 80.21154,6.20624 80.625,6.1875 C 81.26703,6.19267 81.92295,6.18799 82.5625,6.25 C 83.20803,6.322137 83.81841,6.47584 84.46875,6.5 C 85.06198,6.568199 85.64606,6.6783 86.21875,6.84375 L 89.0625,4.875 C 88.46021,4.765146 87.88867,4.61643 87.28125,4.53125 C 86.63492,4.482532 85.98606,4.36316 85.34375,4.28125 C 84.69814,4.203217 84.05574,4.19897 83.40625,4.1875 C 82.71147,4.154367 82.00971,4.251477 81.34375,4.4375 C 80.58096,4.664787 79.86701,4.994098 79.09375,5.1875 C 77.21063,5.502847 76.72039,6.126818 74.625,7.375 C 74.25808,7.656259 74.1797,8.066315 74.125,8.5 C 74.0853,8.969233 74.08575,9.435807 74.09375,9.90625 C 74.09493,10.030574 74.09312,10.156922 74.09375,10.28125 C 74.03884,10.230729 73.99205,10.17565 73.9375,10.125 C 73.63082,9.812596 73.26472,9.542752 72.96875,9.21875 C 72.65803,8.950548 72.3044,8.734951 71.96875,8.5 C 71.64455,8.251612 71.30537,8.018539 70.9375,7.84375 C 70.49383,7.642615 70.00333,7.522303 69.53125,7.40625 C 69.08696,7.367002 68.63217,7.301602 68.21875,7.125 C 67.73788,7.013105 67.31554,6.798828 66.84375,6.65625 C 66.25414,6.405517 65.66387,6.153716 65.03125,6.03125 C 64.49644,5.896762 63.92373,5.83069 63.375,5.8125 C 62.86749,5.835305 62.34895,5.863722 61.875,6.0625 C 61.35423,6.37194 60.68445,6.334494 60.09375,6.46875 C 59.24186,6.766519 58.68214,6.66609 57.84375,7 C 57.14436,7.311371 56.14846,7.712364 55.46875,8.0625 C 51.69698,9.461303 48.46875,11.96875 48.46875,11.96875 C 48.18425,12.251841 47.6429,12.67635 47.3125,13.09375 C 46.75629,13.461573 46.47925,13.85059 45.96875,14.28125 C 45.60685,14.630809 45.58175,14.932912 45.21875,15.28125 C 44.85691,15.649146 44.56411,16.068858 44.28125,16.5 C 43.99476,16.940486 43.74513,17.394947 43.53125,17.875 C 43.24418,18.463578 42.90707,19.019042 42.65625,19.625 C 42.59471,19.766482 42.55314,19.918465 42.5,20.0625 C 42.22546,19.915075 41.95052,19.794882 41.6875,19.625 C 41.2057,19.293609 40.76293,18.939246 40.34375,18.53125 C 39.92635,18.120759 39.55941,17.625004 39.3125,17.09375 C 39.04121,16.482887 38.65759,15.94518 38.3125,15.375 C 38.15246,15.169476 38.03706,14.941603 37.90625,14.71875 C 38.86981,14.240812 39.87552,13.547397 40.375,12.75 C 40.64994,12.28387 40.79564,11.765574 40.9375,11.25 C 41.11725,10.584378 41.12165,9.903605 41.15625,9.21875 C 41.19694,8.545269 41.41224,7.91039 41.53125,7.25 C 41.58217,6.608941 41.78862,5.996092 41.9375,5.375 C 42.02717,4.784844 42.18755,4.183599 42.28125,3.59375 C 42.35385,3.097172 42.368,2.594683 42.375,2.09375 C 42.37881,1.625715 42.37591,1.155542 42.375,0.6875 C 42.37453,0.454207 42.37524,0.233293 42.375,0 z M 43.59375,90.46875 C 47.73375,90.46875 51.09375,93.82875 51.09375,97.96875 C 51.09375,102.10875 47.73375,105.46875 43.59375,105.46875 C 39.45375,105.46875 36.09375,102.10875 36.09375,97.96875 C 36.09375,93.82875 39.45375,90.46875 43.59375,90.46875 z "
     id="path90440" />
  <path
     style="opacity:1;fill:#000000;fill-opacity:1;stroke:#ffffff;stroke-width:1;stroke-miterlimit:4;stroke-dasharray:none;stroke-dashoffset:10;stroke-opacity:0"
     id="path2982"
     d="" />
</svg>
