<?xml version="1.0" encoding="UTF-8" standalone="no"?>
<svg
   xmlns:dc="http://purl.org/dc/elements/1.1/"
   xmlns:cc="http://creativecommons.org/ns#"
   xmlns:rdf="http://www.w3.org/1999/02/22-rdf-syntax-ns#"
   xmlns:svg="http://www.w3.org/2000/svg"
   xmlns="http://www.w3.org/2000/svg"
   xmlns:sodipodi="http://sodipodi.sourceforge.net/DTD/sodipodi-0.dtd"
   xmlns:inkscape="http://www.inkscape.org/namespaces/inkscape"
   version="1.0"
   width="83.84375"
   height="130.22351"
   id="svg2"
   inkscape:version="0.48.2 r9819"
   sodipodi:docname="C31.3.s.svg"
   sodipodi:version="0.32"
   inkscape:output_extension="org.inkscape.output.svg.inkscape"
   sodipodi:modified="true">
  <title
     id="title2982">C31.3: Conifer Wood (notable tree)</title>
  <metadata
     id="metadata3032">
    <rdf:RDF>
      <cc:Work
         rdf:about="">
        <dc:format>image/svg+xml</dc:format>
        <dc:type
           rdf:resource="http://purl.org/dc/dcmitype/StillImage" />
        <cc:license
           rdf:resource="http://creativecommons.org/licenses/publicdomain/" />
        <dc:title>C31.3: Conifer Wood (notable tree)</dc:title>
      </cc:Work>
      <cc:License
         rdf:about="http://creativecommons.org/licenses/publicdomain/">
        <cc:permits
           rdf:resource="http://creativecommons.org/ns#Reproduction" />
        <cc:permits
           rdf:resource="http://creativecommons.org/ns#Distribution" />
        <cc:permits
           rdf:resource="http://creativecommons.org/ns#DerivativeWorks" />
      </cc:License>
      <cc:Work
         rdf:about="">
        <dc:format>image/svg+xml</dc:format>
        <dc:type
           rdf:resource="http://purl.org/dc/dcmitype/StillImage" />
      </cc:Work>
    </rdf:RDF>
  </metadata>
  <sodipodi:namedview
     pagecolor="#ffffff"
     bordercolor="#666666"
     borderopacity="1"
     objecttolerance="10"
     gridtolerance="10"
     guidetolerance="10"
     inkscape:pageopacity="0"
     inkscape:pageshadow="2"
     inkscape:window-width="1440"
     inkscape:window-height="808"
     id="namedview3030"
     showgrid="false"
     inkscape:zoom="2.4949428"
     inkscape:cx="33.774291"
     inkscape:cy="218.69734"
     inkscape:window-x="0"
     inkscape:window-y="0"
     inkscape:window-maximized="1"
     inkscape:current-layer="svg2" />
  <defs
     id="defs4" />
  <path
     d="M 0,114.91102 L 0,120.56727 L 29.6875,120.56727 C 30.97482,126.10022 35.92077,130.22351 41.84375,130.22352 C 47.7687,130.22352 52.7147,126.103 54,120.56727 L 83.84375,120.56727 L 83.84375,120.50477 L 83.84375,114.91102 M 54,114.91102 C 51.74685,109.76028 48.74562,106.52577 44.01448,105.44263 C 43.82824,105.40793 43.21081,68.650316 43.21081,68.650316 C 55.29647,75.470786 55.35781,75.477476 72.2532,78.289846 L 74.84209,73.099376 C 56.66108,69.104646 56.11574,69.118026 43.14527,62.317616 L 43.48054,39.150866 C 55.63301,48.910616 59.36845,50.253346 73.92578,52.798506 L 77.11588,47.608026 C 58.66766,44.281316 59.45836,44.161096 43.41501,32.818166 L 43.34951,7.647361 C 50.27505,12.350245 50.78762,13.045021 60.51884,14.541418 L 66.06465,8.60953 C 52.41462,5.935927 52.15399,5.151184 41.30455,1.4210855e-014 C 31.65278,7.312407 31.21967,7.41022 18.36142,9.912898 L 21.51945,15.871374 C 30.18753,14.250235 32.44264,13.029908 39.10667,7.400661 L 39.25862,32.598056 C 25.78998,44.747036 23.54404,46.074126 4.86486,51.008506 L 9.71258,56.005226 C 27.62813,50.322596 28.30881,50.652136 39.41057,38.957346 L 39.16171,62.150676 C 27.29631,70.825966 25.05038,74.290706 7.17282,76.152216 L 9.81608,82.150956 C 27.26401,78.405576 28.2787,77.866696 39.31366,68.509966 C 39.31366,68.509966 40.02155,105.39681 39.67387,105.44275 C 35.06474,106.4166 30.74905,110.96107 29.68771,114.91102 M 41.84375,110.22352 C 45.98375,110.22352 49.34375,113.58352 49.34375,117.72352 C 49.34375,121.86352 45.98375,125.22352 41.84375,125.22352 C 37.70375,125.22352 34.34375,121.86352 34.34375,117.72352 C 34.34375,113.58352 37.70375,110.22352 41.84375,110.22352 z "
     id="path90440"
     style="fill:#000000;fill-opacity:1;fill-rule:evenodd;stroke:none"
     inkscape:connector-curvature="0"
     sodipodi:nodetypes="cccscccccccccccccccccccccccccccccccsssss" />
</svg>
