<?xml version="1.0" encoding="UTF-8" standalone="no"?>
<svg
   xmlns:dc="http://purl.org/dc/elements/1.1/"
   xmlns:cc="http://creativecommons.org/ns#"
   xmlns:rdf="http://www.w3.org/1999/02/22-rdf-syntax-ns#"
   xmlns:svg="http://www.w3.org/2000/svg"
   xmlns="http://www.w3.org/2000/svg"
   xmlns:sodipodi="http://sodipodi.sourceforge.net/DTD/sodipodi-0.dtd"
   xmlns:inkscape="http://www.inkscape.org/namespaces/inkscape"
   version="1.0"
   width="320"
   height="320"
   id="svg2"
   inkscape:version="0.48.2 r9819"
   sodipodi:docname="C31.1.f.svg">
  <title
     id="title2985">C31.1: Deciduous Woods (area)</title>
  <metadata
     id="metadata3032">
    <rdf:RDF>
      <cc:Work
         rdf:about="">
        <dc:format>image/svg+xml</dc:format>
        <dc:type
           rdf:resource="http://purl.org/dc/dcmitype/StillImage" />
        <cc:license
           rdf:resource="http://creativecommons.org/licenses/publicdomain/" />
        <dc:title>C31.1: Deciduous Woods (area)</dc:title>
      </cc:Work>
      <cc:License
         rdf:about="http://creativecommons.org/licenses/publicdomain/">
        <cc:permits
           rdf:resource="http://creativecommons.org/ns#Reproduction" />
        <cc:permits
           rdf:resource="http://creativecommons.org/ns#Distribution" />
        <cc:permits
           rdf:resource="http://creativecommons.org/ns#DerivativeWorks" />
      </cc:License>
    </rdf:RDF>
  </metadata>
  <sodipodi:namedview
     pagecolor="#ffffff"
     bordercolor="#666666"
     borderopacity="1"
     objecttolerance="10"
     gridtolerance="10"
     guidetolerance="10"
     inkscape:pageopacity="0"
     inkscape:pageshadow="2"
     inkscape:window-width="891"
     inkscape:window-height="712"
     id="namedview3030"
     showgrid="false"
     inkscape:zoom="1.53125"
     inkscape:cx="45.061224"
     inkscape:cy="160"
     inkscape:window-x="390"
     inkscape:window-y="2"
     inkscape:window-maximized="0"
     inkscape:current-layer="svg2" />
  <defs
     id="defs4" />
  <path
     d="m 96.306097,148.91291 0,3.48186 c 0,0 -0.0277,0 55.405083,0 0,0 0,-0.03 0,-0.0449 0,-1.34032 0,-3.43693 0,-3.43693 m -26.31972,0 c -0.12307,-0.0249 -0.26621,-30.6686 -0.26621,-30.6686 l -0.0816,-2.99578 -2.50241,-0.25378 c -4.94648,0.77551 -18.10715,-0.74318 -21.88819,-3.77096 -8.722593,-1.9861 -13.893203,-6.50794 -4.967743,-18.09284 2.28939,-8.266088 5.297063,-13.719585 8.917063,-17.070709 4.79911,-4.44265 10.67442,-5.190299 17.37907,-3.897735 18.19967,-6.123864 14.68138,5.686104 19.72825,16.043223 4.4138,7.391201 13.70874,8.726301 -0.01,18.027321 -5.62802,5.21257 -6.35389,11.26759 -16.64366,9.05466 l -0.001,2.90942 c 8.84571,3.07596 13.12226,-4.65156 19.8036,-9.18221 11.2919,-8.56063 10.42989,-14.64616 -0.25503,-23.93123 -5.96331,-9.758119 -2.02954,-22.055743 -23.47652,-16.419538 -15.28682,-1.970403 -23.026623,3.666242 -28.379483,22.403228 -6.40724,10.28539 -7.87542,18.94102 6.52872,22.88757 5.352903,2.74437 17.754533,5.42851 23.273913,4.18847 0,0 0.20293,30.73647 -0.0268,30.76949"
     id="path90440"
     style="fill:#000000;fill-opacity:1;fill-rule:evenodd;stroke:none"
     inkscape:connector-curvature="0"
     sodipodi:nodetypes="cccscccccccscccccccccccc" />
  <path
     d="m 162.54786,187.33887 0,3.48186 c 0,0 -0.0277,0 55.40509,0 0,0 0,-0.03 0,-0.0449 0,-1.34032 0,-3.43693 0,-3.43693 m -26.31972,0 c -0.12307,-0.0249 -0.26621,-30.6686 -0.26621,-30.6686 l -0.0816,-2.99578 -2.50241,-0.25378 c -4.94648,0.77551 -18.10715,-0.74318 -21.88819,-3.77096 -8.7226,-1.9861 -13.89321,-6.50794 -4.96775,-18.09284 2.28939,-8.26609 5.29707,-13.71959 8.91707,-17.07071 4.79911,-4.44265 10.67442,-5.1903 17.37907,-3.89774 18.19967,-6.12386 14.68138,5.68611 19.72825,16.04323 4.4138,7.3912 13.70874,8.7263 -0.01,18.02732 -5.62802,5.21257 -6.35389,11.26759 -16.64366,9.05466 l -0.001,2.90942 c 8.84571,3.07596 13.12226,-4.65156 19.8036,-9.18221 11.2919,-8.56063 10.42989,-14.64616 -0.25503,-23.93123 -5.96331,-9.75812 -2.02954,-22.05575 -23.47652,-16.41954 -15.28682,-1.9704 -23.02663,3.66624 -28.37949,22.40323 -6.40724,10.28539 -7.87542,18.94102 6.52872,22.88757 5.35291,2.74437 17.75454,5.42851 23.27392,4.18847 0,0 0.20293,30.73647 -0.0268,30.76949"
     id="path90440-1"
     style="fill:#000000;fill-opacity:1;fill-rule:evenodd;stroke:none"
     inkscape:connector-curvature="0"
     sodipodi:nodetypes="cccscccccccscccccccccccc" />
  <path
     d="m 242.22133,155.33887 0,3.48186 c 0,0 -0.0277,0 55.40509,0 0,0 0,-0.03 0,-0.0449 0,-1.34032 0,-3.43693 0,-3.43693 m -26.31972,0 c -0.12307,-0.0249 -0.26621,-30.6686 -0.26621,-30.6686 l -0.0816,-2.99578 -2.50241,-0.25378 c -4.94648,0.77551 -18.10715,-0.74318 -21.88819,-3.77096 -8.7226,-1.9861 -13.89321,-6.50794 -4.96775,-18.092843 2.28939,-8.266088 5.29707,-13.719585 8.91707,-17.070708 4.79911,-4.44265 10.67442,-5.190299 17.37907,-3.897735 18.19967,-6.123864 14.68138,5.686103 19.72825,16.043222 4.4138,7.391204 13.70874,8.726304 -0.01,18.027324 -5.62802,5.21257 -6.35389,11.26759 -16.64366,9.05466 l -10e-4,2.90942 c 8.84571,3.07596 13.12226,-4.65156 19.8036,-9.18221 11.2919,-8.56063 10.42989,-14.64616 -0.25503,-23.931233 -5.96331,-9.758118 -2.02954,-22.055742 -23.47652,-16.419537 -15.28682,-1.970403 -23.02663,3.666242 -28.37949,22.403227 -6.40724,10.285393 -7.87542,18.941023 6.52872,22.887573 5.35291,2.74437 17.75454,5.42851 23.27392,4.18847 0,0 0.20293,30.73647 -0.0268,30.76949"
     id="path90440-7"
     style="fill:#000000;fill-opacity:1;fill-rule:evenodd;stroke:none"
     inkscape:connector-curvature="0"
     sodipodi:nodetypes="cccscccccccscccccccccccc" />
  <path
     d="m 47.609089,295.74703 0,3.48186 c 0,0 -0.0277,0 55.405081,0 0,0 0,-0.03 0,-0.0449 0,-1.34032 0,-3.43693 0,-3.43693 m -26.319718,0 c -0.12307,-0.0249 -0.26621,-30.6686 -0.26621,-30.6686 l -0.0816,-2.99578 -2.50241,-0.25378 c -4.94648,0.77551 -18.10715,-0.74318 -21.88819,-3.77096 -8.722593,-1.9861 -13.893203,-6.50794 -4.967743,-18.09284 2.28939,-8.26609 5.297063,-13.71958 8.917063,-17.07071 4.79911,-4.44265 10.67442,-5.1903 17.37907,-3.89773 18.19967,-6.12387 14.68138,5.6861 19.72825,16.04322 4.4138,7.3912 13.708738,8.7263 -0.01,18.02732 -5.62802,5.21257 -6.35389,11.26759 -16.64366,9.05466 l -10e-4,2.90942 c 8.84571,3.07596 13.12226,-4.65156 19.8036,-9.18221 11.291898,-8.56063 10.429888,-14.64616 -0.25503,-23.93123 -5.96331,-9.75812 -2.02954,-22.05574 -23.47652,-16.41954 -15.28682,-1.9704 -23.026623,3.66624 -28.379483,22.40323 -6.40724,10.28539 -7.87542,18.94102 6.52872,22.88757 5.352903,2.74437 17.754533,5.42851 23.273913,4.18847 0,0 0.20293,30.73647 -0.0268,30.76949"
     id="path90440-4"
     style="fill:#000000;fill-opacity:1;fill-rule:evenodd;stroke:none"
     inkscape:connector-curvature="0"
     sodipodi:nodetypes="cccscccccccscccccccccccc" />
</svg>
