<?xml version="1.0" encoding="UTF-8" standalone="no"?>
<svg
   xmlns:dc="http://purl.org/dc/elements/1.1/"
   xmlns:cc="http://creativecommons.org/ns#"
   xmlns:rdf="http://www.w3.org/1999/02/22-rdf-syntax-ns#"
   xmlns:svg="http://www.w3.org/2000/svg"
   xmlns="http://www.w3.org/2000/svg"
   xmlns:sodipodi="http://sodipodi.sourceforge.net/DTD/sodipodi-0.dtd"
   xmlns:inkscape="http://www.inkscape.org/namespaces/inkscape"
   version="1.0"
   width="143.64853"
   height="148.76416"
   id="svg2"
   inkscape:version="0.48.2 r9819"
   sodipodi:docname="C31.4.s.svg"
   sodipodi:version="0.32"
   inkscape:output_extension="org.inkscape.output.svg.inkscape"
   sodipodi:modified="true">
  <title
     id="title2982">C31.4: Palm (notable tree)</title>
  <metadata
     id="metadata3032">
    <rdf:RDF>
      <cc:Work
         rdf:about="">
        <dc:format>image/svg+xml</dc:format>
        <dc:type
           rdf:resource="http://purl.org/dc/dcmitype/StillImage" />
        <cc:license
           rdf:resource="http://creativecommons.org/licenses/publicdomain/" />
        <dc:title>C31.4: Palm (notable tree)</dc:title>
      </cc:Work>
      <cc:License
         rdf:about="http://creativecommons.org/licenses/publicdomain/">
        <cc:permits
           rdf:resource="http://creativecommons.org/ns#Reproduction" />
        <cc:permits
           rdf:resource="http://creativecommons.org/ns#Distribution" />
        <cc:permits
           rdf:resource="http://creativecommons.org/ns#DerivativeWorks" />
      </cc:License>
      <cc:Work
         rdf:about="">
        <dc:format>image/svg+xml</dc:format>
        <dc:type
           rdf:resource="http://purl.org/dc/dcmitype/StillImage" />
      </cc:Work>
    </rdf:RDF>
  </metadata>
  <sodipodi:namedview
     pagecolor="#ffffff"
     bordercolor="#666666"
     borderopacity="1"
     objecttolerance="10"
     gridtolerance="10"
     guidetolerance="10"
     inkscape:pageopacity="0"
     inkscape:pageshadow="2"
     inkscape:window-width="1440"
     inkscape:window-height="808"
     id="namedview3030"
     showgrid="false"
     inkscape:zoom="2.1443337"
     inkscape:cx="48.098952"
     inkscape:cy="221.88208"
     inkscape:window-x="0"
     inkscape:window-y="0"
     inkscape:window-maximized="1"
     inkscape:current-layer="svg2" />
  <defs
     id="defs4" />
  <path
     d="M 59.80478,133.45166 L 59.80478,139.10791 L 89.49228,139.10791 C 90.7796,144.64086 95.72555,148.76415 101.64853,148.76416 C 107.57348,148.76416 112.51948,144.64364 113.80478,139.10791 L 143.64853,139.10791 L 143.64853,139.04541 L 143.64853,133.45166 M 113.80478,133.45166 C 111.55163,128.30092 108.5504,125.06641 103.81926,123.98327 C 103.61944,99.775118 82.97826,55.526418 66.74601,39.735298 C 81.64807,24.199294 94.94689,17.881938 111.4522,8.758907 C 95.35823,14.065065 78.86344,17.76798 65.57514,37.904138 C 68.52494,19.257263 72.67717,9.428226 78.03184,7.1054274e-015 C 70.25469,6.875999 65.68403,17.760107 63.11742,36.259619 C 56.38096,18.213962 50.04532,10.188575 40.50319,2.563998 C 48.75847,12.379278 52.60483,18.587261 59.25687,36.819568 C 40.75803,25.458675 29.47379,24.118052 6.16522,24.380672 C 29.28916,28.1124 39.18635,31.443317 58.703,41.588018 C 31.92074,43.186678 16.76199,53.603168 2.8421709e-014,69.230208 C 19.18264,57.397118 31.9523,47.568078 61.15521,43.350398 C 50.9064,52.998668 49.47542,58.638838 49.64769,73.497648 C 51.95761,59.898898 55.06916,54.316358 63.79205,43.523288 C 79.16128,63.395938 99.34023,99.701828 99.47865,123.98339 C 94.86952,124.95724 90.55383,129.50171 89.49249,133.45166 M 101.64853,128.76416 C 105.78853,128.76416 109.14853,132.12416 109.14853,136.26416 C 109.14853,140.40416 105.78853,143.76416 101.64853,143.76416 C 97.50853,143.76416 94.14853,140.40416 94.14853,136.26416 C 94.14853,132.12416 97.50853,128.76416 101.64853,128.76416 z "
     id="path90440"
     style="fill:#000000;fill-opacity:1;fill-rule:evenodd;stroke:none"
     inkscape:connector-curvature="0"
     sodipodi:nodetypes="cccscccccccccccccccccccccsssss" />
</svg>
