<?xml version="1.0" encoding="UTF-8" standalone="no"?>
<!-- Created with Inkscape (http://www.inkscape.org/) -->

<svg
   xmlns:dc="http://purl.org/dc/elements/1.1/"
   xmlns:cc="http://creativecommons.org/ns#"
   xmlns:rdf="http://www.w3.org/1999/02/22-rdf-syntax-ns#"
   xmlns:svg="http://www.w3.org/2000/svg"
   xmlns="http://www.w3.org/2000/svg"
   xmlns:sodipodi="http://sodipodi.sourceforge.net/DTD/sodipodi-0.dtd"
   xmlns:inkscape="http://www.inkscape.org/namespaces/inkscape"
   width="750"
   height="750"
   id="svg2"
   version="1.1"
   inkscape:version="0.48.2 r9819"
   sodipodi:docname="Cf_br.svg">
  <title
     id="title2986">Cf: Bushes (Brazilian symbol)</title>
  <defs
     id="defs4" />
  <sodipodi:namedview
     id="base"
     pagecolor="#ffffff"
     bordercolor="#666666"
     borderopacity="1.0"
     inkscape:pageopacity="0.0"
     inkscape:pageshadow="2"
     inkscape:zoom="0.46942014"
     inkscape:cx="-377.81407"
     inkscape:cy="526.18109"
     inkscape:document-units="px"
     inkscape:current-layer="layer1"
     showgrid="false"
     inkscape:window-width="898"
     inkscape:window-height="716"
     inkscape:window-x="1"
     inkscape:window-y="0"
     inkscape:window-maximized="0" />
  <metadata
     id="metadata7">
    <rdf:RDF>
      <cc:Work
         rdf:about="">
        <dc:format>image/svg+xml</dc:format>
        <dc:type
           rdf:resource="http://purl.org/dc/dcmitype/StillImage" />
        <dc:title>Cf: Bushes (Brazilian symbol)</dc:title>
        <cc:license
           rdf:resource="http://creativecommons.org/licenses/publicdomain/" />
      </cc:Work>
      <cc:License
         rdf:about="http://creativecommons.org/licenses/publicdomain/">
        <cc:permits
           rdf:resource="http://creativecommons.org/ns#Reproduction" />
        <cc:permits
           rdf:resource="http://creativecommons.org/ns#Distribution" />
        <cc:permits
           rdf:resource="http://creativecommons.org/ns#DerivativeWorks" />
      </cc:License>
    </rdf:RDF>
  </metadata>
  <g
     inkscape:label="Layer 1"
     inkscape:groupmode="layer"
     id="layer1"
     transform="translate(0,-302.36218)">
    <path
       sodipodi:type="arc"
       style="fill:#000000;fill-opacity:0;stroke:#000000;stroke-width:9;stroke-miterlimit:4;stroke-opacity:1;stroke-dasharray:none;stroke-dashoffset:10"
       id="path2985"
       sodipodi:cx="701.23987"
       sodipodi:cy="540.01715"
       sodipodi:rx="30.188679"
       sodipodi:ry="31.051212"
       d="m 731.42855,540.01715 c 0,17.14911 -13.51593,31.05121 -30.18868,31.05121 -16.67275,0 -30.18868,-13.9021 -30.18868,-31.05121 0,-17.14911 13.51593,-31.05121 30.18868,-31.05121 16.67275,0 30.18868,13.9021 30.18868,31.05121 z"
       transform="translate(-91.602377,-44.736045)" />
    <path
       style="fill:#000000;fill-opacity:1;stroke:#000000;stroke-width:9;stroke-miterlimit:4;stroke-opacity:0;stroke-dasharray:none;stroke-dashoffset:10"
       d="m 269.31396,443.78078 -9.28125,4.75 c 0.18572,3.47071 0.0883,1.75765 0.375,5.21875 0.62022,5.08223 1.67901,10.04982 3.78125,14.75 1.73272,4.8643 4.54582,9.18855 6.6875,13.875 1.31931,2.68727 2.84117,5.28003 4.34375,7.875 -3.48049,4.37411 -6.95818,3.47227 -13.84375,7.03125 -1.96471,1.61195 -3.4293,3.6757 -4.53125,5.9375 -0.22148,0.18473 -0.43907,0.37373 -0.65625,0.5625 -0.17155,-0.42922 -0.36545,-0.84969 -0.53125,-1.28125 -1.5955,-4.49342 -3.97532,-8.51156 -6.625,-12.4375 -2.05265,-3.35541 -3.96645,-6.77718 -5.875,-10.21875 -2.07317,-3.89454 -1.91274,-8.37133 -2.84375,-12.5625 l -9.1875,4.9375 c 0.88887,4.30275 0.84741,8.84299 3,12.8125 1.92422,3.4672 3.83878,6.93117 5.90625,10.3125 2.60407,3.86255 4.97498,7.79154 6.53125,12.21875 7.58934,16.0378 6.58516,11.17937 16.37495,17.8125 4.28467,-1.10825 8.03578,-3.77499 11.375,-6.59375 3.56045,-2.86012 7.02466,-5.85526 10.21875,-9.125 2.82914,-2.59951 6.491,-4.31897 10.0625,-5.6875 1.25036,-0.52196 6.01237,-0.44004 9.06085,-2.42983 4.78587,0.006 7.89031,-1.14591 12.06415,1.55483 3.70059,2.70869 7.761,5.05914 10.5,8.84375 2.22109,3.56354 4.42998,7.13454 6.40625,10.84375 8.29256,-4.33382 12.17589,-9.4248 20.21875,-14.84375 4.33882,-3.73758 8.16532,-10.64954 12.53125,-14.34375 3.23066,-3.67771 6.24176,-7.68898 8.40625,-12.09375 0.96379,-2.17787 1.3391,-4.51557 1.71875,-6.84375 l -9.375,4.59375 c -0.41507,2.24347 -0.82065,4.46346 -1.84375,6.53125 -2.28682,4.25236 -5.15481,8.29466 -8.5625,11.71875 -3.04874,2.46373 -6.15715,4.87104 -9.25,7.28125 -0.95055,-2.27221 -2.60721,-4.22154 -4.65625,-5.96875 -2.75141,-1.32649 -5.58351,-2.42906 -8.4375,-3.53125 0.1782,-0.64754 0.36372,-1.29991 0.5625,-1.9375 1.54987,-4.59358 3.62818,-8.88166 4.65625,-13.65625 1.10149,-4.009 2.92816,-7.70756 4.34375,-11.59375 1.20018,-2.6502 0.49073,-1.37714 2.125,-3.75 l -9.53125,4.1875 c -1.53606,2.55662 -0.85626,1.23358 -2.03125,3.96875 -1.51246,3.88272 -3.21971,7.66964 -4.28125,11.71875 -0.67775,2.86404 -1.76249,5.5409 -2.8125,8.25 -4.29344,-2.55643 -8.34979,-5.19389 -13.15625,-6.71875 -2.51722,-0.6992 -5.05865,-0.76149 -7.59375,-0.53125 l 0,-12.375 0,-16 0,-13.0625 -9.28125,4.71875 0,13.09375 0,15.96875 0,7.78125 c -3.08312,0.44173 -7.0637,1.05177 -10.9375,1.8125 -1.86431,-3.27623 -3.84218,-6.54516 -5.5,-9.9375 -2.10878,-4.65708 -4.93915,-8.91097 -6.625,-13.75 -2.09198,-4.62877 -3.11153,-9.54802 -3.6875,-14.5625 -0.26233,-3.41715 -0.14517,-1.69273 -0.3125,-5.125 z"
       id="path3769"
       inkscape:connector-curvature="0"
       sodipodi:nodetypes="cccccccccccccccccccccccccccccccccccccccccccccccccccccccccc" />
    <path
       sodipodi:type="arc"
       style="fill:#000000;fill-opacity:0;stroke:#000000;stroke-width:9;stroke-miterlimit:4;stroke-opacity:1;stroke-dasharray:none;stroke-dashoffset:10"
       id="path2985-1"
       sodipodi:cx="701.23987"
       sodipodi:cy="540.01715"
       sodipodi:rx="30.188679"
       sodipodi:ry="31.051212"
       d="m 731.42855,540.01715 c 0,17.14911 -13.51593,31.05121 -30.18868,31.05121 -16.67275,0 -30.18868,-13.9021 -30.18868,-31.05121 0,-17.14911 13.51593,-31.05121 30.18868,-31.05121 16.67275,0 30.18868,13.9021 30.18868,31.05121 z"
       transform="matrix(-1,0,0,1,986.15573,269.54424)" />
    <path
       style="fill:#000000;fill-opacity:1;stroke:#000000;stroke-width:9;stroke-miterlimit:4;stroke-opacity:0;stroke-dasharray:none;stroke-dashoffset:10"
       d="m 612.45764,770.84278 9.28125,4.75 c -0.18572,3.47071 -0.0883,1.75765 -0.375,5.21875 -0.62022,5.08223 -1.67901,10.04982 -3.78125,14.75 -1.73272,4.8643 -4.54582,9.18855 -6.6875,13.875 -1.31931,2.68727 -2.84117,5.28003 -4.34375,7.875 3.48049,4.37411 6.95818,3.47227 13.84375,7.03125 1.96471,1.61195 3.4293,3.6757 4.53125,5.9375 0.22148,0.18473 0.43907,0.37373 0.65625,0.5625 0.17155,-0.42922 0.36545,-0.84969 0.53125,-1.28125 1.5955,-4.49342 3.97532,-8.51156 6.625,-12.4375 2.05265,-3.35541 3.96645,-6.77718 5.875,-10.21875 2.07317,-3.89454 1.91274,-8.37133 2.84375,-12.5625 l 9.1875,4.9375 c -0.88887,4.30275 -0.84741,8.84299 -3,12.8125 -1.92422,3.4672 -3.83878,6.93117 -5.90625,10.3125 -2.60407,3.86255 -4.97498,7.79154 -6.53125,12.21875 -7.58934,16.0378 -6.58516,11.17937 -16.37495,17.8125 -4.28467,-1.10825 -8.03578,-3.77499 -11.375,-6.59375 -3.56045,-2.86012 -7.02466,-5.85526 -10.21875,-9.125 -2.82914,-2.59951 -6.491,-4.31897 -10.0625,-5.6875 -1.25036,-0.52196 -6.01237,-0.44004 -9.06085,-2.42983 -4.78587,0.006 -7.89031,-1.14591 -12.06415,1.55483 -3.70059,2.70869 -7.761,5.05914 -10.5,8.84375 -2.22109,3.56354 -4.42998,7.13454 -6.40625,10.84375 -8.29256,-4.33382 -12.17589,-9.4248 -20.21875,-14.84375 -4.33882,-3.73758 -8.16532,-10.64954 -12.53125,-14.34375 -3.23066,-3.67771 -6.24176,-7.68898 -8.40625,-12.09375 -0.96379,-2.17787 -1.3391,-4.51557 -1.71875,-6.84375 l 9.375,4.59375 c 0.41507,2.24347 0.82065,4.46346 1.84375,6.53125 2.28682,4.25236 5.15481,8.29466 8.5625,11.71875 3.04874,2.46373 6.15715,4.87104 9.25,7.28125 0.95055,-2.27221 2.60721,-4.22154 4.65625,-5.96875 2.75141,-1.32649 5.58351,-2.42906 8.4375,-3.53125 -0.1782,-0.64754 -0.36372,-1.29991 -0.5625,-1.9375 -1.54987,-4.59358 -3.62818,-8.88166 -4.65625,-13.65625 -1.10149,-4.009 -2.92816,-7.70756 -4.34375,-11.59375 -1.20018,-2.6502 -0.49073,-1.37714 -2.125,-3.75 l 9.53125,4.1875 c 1.53606,2.55662 0.85626,1.23358 2.03125,3.96875 1.51246,3.88272 3.21971,7.66964 4.28125,11.71875 0.67775,2.86404 1.76249,5.5409 2.8125,8.25 4.29344,-2.55643 8.34979,-5.19389 13.15625,-6.71875 2.51722,-0.6992 5.05865,-0.76149 7.59375,-0.53125 l 0,-12.375 0,-16 0,-13.0625 9.28125,4.71875 0,13.09375 0,15.96875 0,7.78125 c 3.08312,0.44173 7.0637,1.05177 10.9375,1.8125 1.86431,-3.27623 3.84218,-6.54516 5.5,-9.9375 2.10878,-4.65708 4.93915,-8.91097 6.625,-13.75 2.09198,-4.62877 3.11153,-9.54802 3.6875,-14.5625 0.26233,-3.41715 0.14517,-1.69273 0.3125,-5.125 z"
       id="path3769-7"
       inkscape:connector-curvature="0"
       sodipodi:nodetypes="cccccccccccccccccccccccccccccccccccccccccccccccccccccccccc" />
  </g>
</svg>
