<?xml version="1.0" encoding="UTF-8" standalone="no"?>
<svg
   xmlns:dc="http://purl.org/dc/elements/1.1/"
   xmlns:cc="http://creativecommons.org/ns#"
   xmlns:rdf="http://www.w3.org/1999/02/22-rdf-syntax-ns#"
   xmlns:svg="http://www.w3.org/2000/svg"
   xmlns="http://www.w3.org/2000/svg"
   xmlns:sodipodi="http://sodipodi.sourceforge.net/DTD/sodipodi-0.dtd"
   xmlns:inkscape="http://www.inkscape.org/namespaces/inkscape"
   version="1.0"
   width="107.96875"
   height="57.441975"
   id="svg7393"
   inkscape:version="0.48.2 r9819"
   sodipodi:docname="H_black_red_black.svg"
   sodipodi:version="0.32"
   inkscape:output_extension="org.inkscape.output.svg.inkscape"
   sodipodi:modified="true">
  <title
     id="title2987">Q31: Black and red light float</title>
  <metadata
     id="metadata7404">
    <rdf:RDF>
      <cc:Work
         rdf:about="">
        <dc:format>image/svg+xml</dc:format>
        <dc:type
           rdf:resource="http://purl.org/dc/dcmitype/StillImage" />
        <dc:title>Q31: Black and red light float</dc:title>
        <cc:license
           rdf:resource="http://creativecommons.org/licenses/publicdomain/" />
      </cc:Work>
      <cc:Work
         rdf:about="">
        <dc:format>image/svg+xml</dc:format>
        <dc:type
           rdf:resource="http://purl.org/dc/dcmitype/StillImage" />
      </cc:Work>
      <cc:License
         rdf:about="http://creativecommons.org/licenses/publicdomain/">
        <cc:permits
           rdf:resource="http://creativecommons.org/ns#Reproduction" />
        <cc:permits
           rdf:resource="http://creativecommons.org/ns#Distribution" />
        <cc:permits
           rdf:resource="http://creativecommons.org/ns#DerivativeWorks" />
      </cc:License>
    </rdf:RDF>
  </metadata>
  <defs
     id="defs7402" />
  <sodipodi:namedview
     pagecolor="#ffffff"
     bordercolor="#666666"
     borderopacity="1"
     objecttolerance="10"
     gridtolerance="10"
     guidetolerance="10"
     inkscape:pageopacity="0"
     inkscape:pageshadow="2"
     inkscape:window-width="1440"
     inkscape:window-height="808"
     id="namedview7400"
     showgrid="false"
     inkscape:zoom="8.8636758"
     inkscape:cx="34.128053"
     inkscape:cy="28.720987"
     inkscape:window-x="0"
     inkscape:window-y="0"
     inkscape:window-maximized="1"
     inkscape:current-layer="svg7393" />
  <path
     style="fill:#000000;fill-opacity:1;stroke:none"
     d="M 18.30804,45.840835 L 6.45584,10.284225 L 21.66018,19.382885 L 35.06874,19.382885 L 42.37161,2.0236053 L 65.71686,2.3827553 L 71.46338,19.023735 L 86.18885,19.023735 L 101.51291,10.164505 L 89.90014,45.242245 L 64.28023,45.002805 L 63.08304,40.214035 L 59.25202,36.502735 L 53.98437,35.544985 L 49.43504,36.622455 L 45.24487,40.214035 L 43.80824,45.481685 L 18.30804,45.840835 z "
     id="path2988"
     inkscape:connector-curvature="0" />
  <path
     style="fill:#d40000;stroke:none;stroke-width:1px;stroke-linecap:butt;stroke-linejoin:miter;stroke-opacity:1"
     d="M 12.02595,27.354635 L 96.41394,27.354635 L 101.80041,10.955835 L 86.3592,18.377185 L 21.36249,18.496885 L 6.04099,9.9982353 L 12.02595,27.354635 z "
     id="path3803"
     inkscape:connector-curvature="0" />
  <symbol
     id="float"
     width="300"
     height="400"
     transform="translate(-96.0625,-155.15177)">
    <path
       d="M 136.84375,155.15625 C 136.82855,155.15549 132.83954,165.70872 130.5,171.96875 L 118.46875,171.96875 C 111.80472,168.20363 105.14232,164.43567 98.46875,160.6875 C 102.6158,172.8396 106.68469,185.0183 110.78125,197.1875 L 96.0625,197.1875 L 96.09375,202.8125 L 137.9375,202.875 C 139.2248,208.408 144.17105,212.59375 150.09375,212.59375 C 156.01875,212.59375 160.99625,208.4107 162.28125,202.875 L 204.03125,202.8438 L 204.00005,197.18755 L 189.0938,197.18755 C 193.25263,184.99738 197.47502,172.82884 201.5938,160.62505 C 194.93867,164.46552 188.24463,168.23804 181.56255,172.0313 L 169.62505,172.0313 C 167.63596,166.40613 165.65514,160.77802 163.6563,155.1563 C 153.89142,155.1623 145.60553,155.1436 136.8438,155.1563 L 136.84375,155.15625 z M 139.6875,159.40625 L 160.65625,159.40625 L 165,171.71875 L 135.09375,171.74995 L 139.6875,159.40625 z M 105.59375,169.28125 C 109.54825,171.51718 113.5183,173.72569 117.46875,175.96875 C 140.21612,175.99005 163.12284,176.01275 182.65625,176.03125 C 186.5696,173.76843 190.50847,171.54836 194.4375,169.3125 L 184.875,197.1875 L 162.25,197.2187 C 161.66332,194.6897 160.4284,192.68635 158.5625,190.99995 L 157.0625,189.7187 L 155.15625,188.5312 L 152.875,187.81245 L 149.96875,187.49995 L 147.09375,187.7812 L 144.90625,188.4687 L 143,189.6562 L 141.4375,190.9687 C 139.733,192.6176 138.52205,194.8336 137.96875,197.2187 L 115,197.1875 L 105.59375,169.28125 z M 150.09375,192.59375 C 154.23375,192.59375 157.59375,195.95375 157.59375,200.09375 C 157.59375,204.23375 154.23375,207.59375 150.09375,207.59375 C 145.95375,207.59375 142.59375,204.23375 142.59375,200.09375 C 142.59375,195.95375 145.95375,192.59375 150.09375,192.59375 z "
       id="path7396" />
  </symbol>
  <g
     id="use7398"
     transform="translate(-96.0625,-155.15177)">
    <path
       id="path2986"
       d="M 136.84375,155.15625 C 136.82855,155.15549 132.83954,165.70872 130.5,171.96875 L 118.46875,171.96875 C 111.80472,168.20363 105.14232,164.43567 98.46875,160.6875 C 102.6158,172.8396 106.68469,185.0183 110.78125,197.1875 L 96.0625,197.1875 L 96.09375,202.8125 L 137.9375,202.875 C 139.2248,208.408 144.17105,212.59375 150.09375,212.59375 C 156.01875,212.59375 160.99625,208.4107 162.28125,202.875 L 204.03125,202.8438 L 204.00005,197.18755 L 189.0938,197.18755 C 193.25263,184.99738 197.47502,172.82884 201.5938,160.62505 C 194.93867,164.46552 188.24463,168.23804 181.56255,172.0313 L 169.62505,172.0313 C 167.63596,166.40613 165.65514,160.77802 163.6563,155.1563 C 153.89142,155.1623 145.60553,155.1436 136.8438,155.1563 L 136.84375,155.15625 z M 139.6875,159.40625 L 160.65625,159.40625 L 165,171.71875 L 135.09375,171.74995 L 139.6875,159.40625 z M 105.59375,169.28125 C 109.54825,171.51718 113.5183,173.72569 117.46875,175.96875 C 140.21612,175.99005 163.12284,176.01275 182.65625,176.03125 C 186.5696,173.76843 190.50847,171.54836 194.4375,169.3125 L 184.875,197.1875 L 162.25,197.2187 C 161.66332,194.6897 160.4284,192.68635 158.5625,190.99995 L 157.0625,189.7187 L 155.15625,188.5312 L 152.875,187.81245 L 149.96875,187.49995 L 147.09375,187.7812 L 144.90625,188.4687 L 143,189.6562 L 141.4375,190.9687 C 139.733,192.6176 138.52205,194.8336 137.96875,197.2187 L 115,197.1875 L 105.59375,169.28125 z M 150.09375,192.59375 C 154.23375,192.59375 157.59375,195.95375 157.59375,200.09375 C 157.59375,204.23375 154.23375,207.59375 150.09375,207.59375 C 145.95375,207.59375 142.59375,204.23375 142.59375,200.09375 C 142.59375,195.95375 145.95375,192.59375 150.09375,192.59375 z "
       inkscape:connector-curvature="0" />
  </g>
</svg>
