<?xml version="1.0" encoding="UTF-8" standalone="no"?>
<svg
   xmlns:dc="http://purl.org/dc/elements/1.1/"
   xmlns:cc="http://creativecommons.org/ns#"
   xmlns:rdf="http://www.w3.org/1999/02/22-rdf-syntax-ns#"
   xmlns:svg="http://www.w3.org/2000/svg"
   xmlns="http://www.w3.org/2000/svg"
   xmlns:sodipodi="http://sodipodi.sourceforge.net/DTD/sodipodi-0.dtd"
   xmlns:inkscape="http://www.inkscape.org/namespaces/inkscape"
   version="1.0"
   width="83.84375"
   height="68.413879"
   id="svg2"
   sodipodi:version="0.32"
   inkscape:version="0.48.2 r9819"
   sodipodi:docname="H_red_white_red_white.svg"
   inkscape:output_extension="org.inkscape.output.svg.inkscape"
   sodipodi:modified="true">
  <title
     id="title2985">Q20: Conical red and white buoy</title>
  <metadata
     id="metadata7">
    <rdf:RDF>
      <cc:Work
         rdf:about="">
        <dc:format>image/svg+xml</dc:format>
        <dc:type
           rdf:resource="http://purl.org/dc/dcmitype/StillImage" />
        <dc:title>Q20: Conical red and white buoy</dc:title>
        <cc:license
           rdf:resource="http://creativecommons.org/licenses/publicdomain/" />
      </cc:Work>
      <cc:Work
         rdf:about="">
        <dc:format>image/svg+xml</dc:format>
        <dc:type
           rdf:resource="http://purl.org/dc/dcmitype/StillImage" />
      </cc:Work>
      <cc:License
         rdf:about="http://creativecommons.org/licenses/publicdomain/">
        <cc:permits
           rdf:resource="http://creativecommons.org/ns#Reproduction" />
        <cc:permits
           rdf:resource="http://creativecommons.org/ns#Distribution" />
        <cc:permits
           rdf:resource="http://creativecommons.org/ns#DerivativeWorks" />
      </cc:License>
    </rdf:RDF>
  </metadata>
  <sodipodi:namedview
     inkscape:window-height="808"
     inkscape:window-width="1440"
     inkscape:pageshadow="2"
     inkscape:pageopacity="0.0"
     guidetolerance="10.0"
     gridtolerance="10.0"
     objecttolerance="10.0"
     borderopacity="1.0"
     bordercolor="#666666"
     pagecolor="#ffffff"
     id="base"
     showgrid="false"
     inkscape:zoom="8.0393044"
     inkscape:cx="20.029434"
     inkscape:cy="34.20694"
     inkscape:window-x="0"
     inkscape:window-y="0"
     inkscape:current-layer="svg2"
     inkscape:window-maximized="1" />
  <defs
     id="defs4">
    <inkscape:perspective
       sodipodi:type="inkscape:persp3d"
       inkscape:vp_x="0 : 160 : 1"
       inkscape:vp_y="0 : 1000 : 0"
       inkscape:vp_z="320 : 160 : 1"
       inkscape:persp3d-origin="160 : 106.66667 : 1"
       id="perspective9" />
  </defs>
  <path
     style="fill:#d40000;fill-opacity:1;fill-rule:evenodd;stroke:none;stroke-width:0.6829406;stroke-opacity:1"
     d="M 12.71373,53.886552 C 14.37502,51.197432 30.8114,30.471472 36.61566,23.746662 C 47.96301,10.599642 58.22226,2.5631615 61.49048,4.2612315 C 64.13896,5.6373015 66.91871,13.803892 68.70493,25.456372 C 69.73878,32.200722 71.88484,51.105932 71.88484,53.468872 C 71.88484,54.628112 71.23286,54.727672 63.64246,54.727672 C 55.44489,54.727672 52.6392,55.638182 52.20982,53.977272 C 51.56757,51.492962 50.44049,46.607952 47.28477,45.216172 C 39.75665,41.896002 33.32512,46.474102 30.38968,54.163112 C 30.00031,55.183012 25.89218,54.727672 19.53457,54.727672 C 13.84711,54.727672 12.3111,54.538262 12.71372,53.886552 L 12.71373,53.886552 z "
     id="path2382"
     inkscape:connector-curvature="0"
     sodipodi:nodetypes="cssssssssscc" />
  <path
     style="fill:#ffffff;fill-opacity:1;stroke:none"
     d="M 40.71875,17.038882 L 31.78125,26.632632 L 71,36.757632 L 69.25,23.663882 L 40.71875,17.038882 z M 24.34375,37.320132 L 11.375,54.757632 L 31.25,55.163882 L 33.28125,50.007632 L 37.59375,45.976382 L 43.6875,45.820132 L 50.03125,49.601382 L 52.0625,56.101382 L 72.21875,55.413882 L 71.40625,47.726382 L 24.34375,37.320132 z "
     id="path2984" />
  <path
     d="M 58.25,0.0076315289 C 54.30373,0.073041529 50.71799,2.2282915 46.96875,5.1951315 C 42.96956,8.3597615 38.74036,12.690502 34.3125,17.788882 C 25.53834,27.891732 16.03302,40.955752 7.15625,53.101382 L 0,53.101382 L 0,58.757632 L 29.6875,58.757632 C 30.97482,64.290582 35.92077,68.413872 41.84375,68.413882 C 47.7687,68.413882 52.7147,64.293362 54,58.757632 L 83.84375,58.757632 L 83.84375,58.695132 L 83.84375,53.101382 L 76.125,53.101382 C 74.84896,41.774352 73.93984,29.728542 72.125,20.007632 C 71.17035,14.894232 70.00242,10.432672 68.125,6.8513815 C 66.24758,3.2700915 63.15687,0.23796153 59.03125,0.0076315289 C 58.76468,-0.0071084711 58.51308,0.0032715289 58.25,0.0076315289 z M 58.625,6.9763815 C 59.70958,7.0369315 60.62002,7.6478215 61.90625,10.101382 C 63.19248,12.554942 64.35794,16.510692 65.25,21.288882 C 66.90735,30.166242 67.80992,41.820722 69.0625,53.101382 L 54,53.101382 C 52.7147,47.565652 47.7687,43.445132 41.84375,43.445132 C 35.92077,43.445142 30.97482,47.568432 29.6875,53.101382 L 15.84375,53.101382 C 23.82167,42.199962 32.08406,31.029522 39.59375,22.382632 C 43.86249,17.467472 47.89552,13.367792 51.3125,10.663882 C 54.72948,7.9599715 57.52398,6.9154915 58.625,6.9763815 z M 41.84375,48.413882 C 45.98375,48.413882 49.34375,51.773882 49.34375,55.913882 C 49.34375,60.053882 45.98375,63.413882 41.84375,63.413882 C 37.70375,63.413882 34.34375,60.053882 34.34375,55.913882 C 34.34375,51.773882 37.70375,48.413882 41.84375,48.413882 z "
     id="path90440"
     style="fill:#000407;fill-opacity:1;fill-rule:evenodd;stroke:none" />
</svg>
