<?xml version="1.0" encoding="UTF-8" standalone="no"?>
<svg
   xmlns:dc="http://purl.org/dc/elements/1.1/"
   xmlns:cc="http://creativecommons.org/ns#"
   xmlns:rdf="http://www.w3.org/1999/02/22-rdf-syntax-ns#"
   xmlns:svg="http://www.w3.org/2000/svg"
   xmlns="http://www.w3.org/2000/svg"
   xmlns:sodipodi="http://sodipodi.sourceforge.net/DTD/sodipodi-0.dtd"
   xmlns:inkscape="http://www.inkscape.org/namespaces/inkscape"
   version="1.0"
   width="143.84375"
   height="54.097401"
   id="svg2"
   inkscape:version="0.48.2 r9819"
   sodipodi:docname="L16.svg"
   sodipodi:version="0.32"
   inkscape:output_extension="org.inkscape.output.svg.inkscape"
   sodipodi:modified="true">
  <title
     id="title2983">L16: Monobuoy, Exposed Location Mooring</title>
  <metadata
     id="metadata3032">
    <rdf:RDF>
      <cc:Work
         rdf:about="">
        <dc:format>image/svg+xml</dc:format>
        <dc:type
           rdf:resource="http://purl.org/dc/dcmitype/StillImage" />
        <cc:license
           rdf:resource="http://creativecommons.org/licenses/publicdomain/" />
        <dc:title>L16: Monobuoy, Exposed Location Mooring</dc:title>
      </cc:Work>
      <cc:License
         rdf:about="http://creativecommons.org/licenses/publicdomain/">
        <cc:permits
           rdf:resource="http://creativecommons.org/ns#Reproduction" />
        <cc:permits
           rdf:resource="http://creativecommons.org/ns#Distribution" />
        <cc:permits
           rdf:resource="http://creativecommons.org/ns#DerivativeWorks" />
      </cc:License>
      <cc:Work
         rdf:about="">
        <dc:format>image/svg+xml</dc:format>
        <dc:type
           rdf:resource="http://purl.org/dc/dcmitype/StillImage" />
      </cc:Work>
    </rdf:RDF>
  </metadata>
  <sodipodi:namedview
     pagecolor="#ffffff"
     bordercolor="#666666"
     borderopacity="1"
     objecttolerance="10"
     gridtolerance="10"
     guidetolerance="10"
     inkscape:pageopacity="0"
     inkscape:pageshadow="2"
     inkscape:window-width="1440"
     inkscape:window-height="808"
     id="namedview3030"
     showgrid="false"
     inkscape:zoom="5.9321112"
     inkscape:cx="128.10051"
     inkscape:cy="180.8554"
     inkscape:window-x="0"
     inkscape:window-y="0"
     inkscape:window-maximized="1"
     inkscape:current-layer="svg2" />
  <defs
     id="defs4" />
  <path
     style="fill:#000407;fill-opacity:1;fill-rule:evenodd;stroke:none"
     d="M 113.875,10.909902 L 34.03785,10.891852 L 21.84375,38.784902 L 0,38.784902 L 0,44.441152 L 59.6875,44.441152 C 60.97482,49.974102 65.92077,54.097392 71.84375,54.097402 C 77.7687,54.097402 82.7147,49.976882 84,44.441152 L 143.84375,44.441152 L 143.84375,38.784902 L 124.98592,38.784902 L 113.875,10.909902 z M 36.59551,15.791502 L 111.18486,15.436312 L 120.92738,39.122052 L 84,38.784902 C 82.7147,33.249172 77.7687,29.128652 71.84375,29.128652 C 65.92077,29.128662 60.97482,33.251952 59.6875,38.784902 L 27.125,38.784902 L 36.59551,15.791502 z M 71.84375,34.097402 C 75.98375,34.097402 79.34375,37.457402 79.34375,41.597402 C 79.34375,45.737402 75.98375,49.097402 71.84375,49.097402 C 67.70375,49.097402 64.34375,45.737402 64.34375,41.597402 C 64.34375,37.457402 67.70375,34.097402 71.84375,34.097402 z "
     id="path90440"
     inkscape:connector-curvature="0"
     sodipodi:nodetypes="ccccccscccccccccscccsssss" />
  <path
     sodipodi:type="arc"
     style="fill:#000000;fill-opacity:0;stroke:#000000;stroke-width:3;stroke-miterlimit:4;stroke-dasharray:none;stroke-dashoffset:10;stroke-opacity:1"
     id="path3756"
     sodipodi:cx="159.04962"
     sodipodi:cy="122.76836"
     sodipodi:rx="9.018712"
     sodipodi:ry="9.6087208"
     d="M 168.06833 122.76836 A 9.018712 9.6087208 0 1 1  150.03091,122.76836 A 9.018712 9.6087208 0 1 1  168.06833 122.76836 z"
     transform="matrix(0.5332259,0,0,0.5618875,-12.230268,-62.761927)" />
</svg>
