<?xml version="1.0" encoding="UTF-8" standalone="no"?>
<svg
   xmlns:dc="http://purl.org/dc/elements/1.1/"
   xmlns:cc="http://creativecommons.org/ns#"
   xmlns:rdf="http://www.w3.org/1999/02/22-rdf-syntax-ns#"
   xmlns:svg="http://www.w3.org/2000/svg"
   xmlns="http://www.w3.org/2000/svg"
   xmlns:sodipodi="http://sodipodi.sourceforge.net/DTD/sodipodi-0.dtd"
   xmlns:inkscape="http://www.inkscape.org/namespaces/inkscape"
   version="1.1"
   width="62.574566"
   height="28.3125"
   id="svg6435"
   inkscape:version="0.48.2 r9819"
   sodipodi:docname="L31.svg">
  <title
     id="title2985">L31: Submarine Cable</title>
  <metadata
     id="metadata6446">
    <rdf:RDF>
      <cc:Work
         rdf:about="">
        <dc:format>image/svg+xml</dc:format>
        <dc:type
           rdf:resource="http://purl.org/dc/dcmitype/StillImage" />
        <dc:title>L31: Submarine Cable</dc:title>
        <cc:license
           rdf:resource="http://creativecommons.org/licenses/publicdomain/" />
      </cc:Work>
      <cc:License
         rdf:about="http://creativecommons.org/licenses/publicdomain/">
        <cc:permits
           rdf:resource="http://creativecommons.org/ns#Reproduction" />
        <cc:permits
           rdf:resource="http://creativecommons.org/ns#Distribution" />
        <cc:permits
           rdf:resource="http://creativecommons.org/ns#DerivativeWorks" />
      </cc:License>
    </rdf:RDF>
  </metadata>
  <defs
     id="defs6444" />
  <sodipodi:namedview
     pagecolor="#ffffff"
     bordercolor="#666666"
     borderopacity="1"
     objecttolerance="10"
     gridtolerance="10"
     guidetolerance="10"
     inkscape:pageopacity="0"
     inkscape:pageshadow="2"
     inkscape:window-width="719"
     inkscape:window-height="494"
     id="namedview6442"
     showgrid="false"
     inkscape:zoom="3.7941176"
     inkscape:cx="-13.865931"
     inkscape:cy="18.156249"
     inkscape:window-x="0"
     inkscape:window-y="0"
     inkscape:window-maximized="0"
     inkscape:current-layer="svg6435"
     fit-margin-top="0"
     fit-margin-left="-5.5"
     fit-margin-right="0"
     fit-margin-bottom="0" />
  <symbol
     id="cable"
     width="30"
     height="68"
     transform="translate(17.52167,-23.84375)">
    <path
       d="m 15,8 5,5 3.6,5 1.4,5 -1.4,5 -3.6,5 -5,5 -5,5 -3.6,5 -1.4,5 1.4,5 3.6,5 5,5"
       style="fill:none;stroke:#c480ff;stroke-width:8;stroke-linecap:round"
       id="path6438"
       inkscape:connector-curvature="0" />
  </symbol>
  <g
     id="use6440"
     transform="matrix(0,1,-1,0,66.52167,-0.84375)">
    <path
       style="font-size:medium;font-style:normal;font-variant:normal;font-weight:normal;font-stretch:normal;text-indent:0;text-align:start;text-decoration:none;line-height:normal;letter-spacing:normal;word-spacing:normal;text-transform:none;direction:ltr;block-progression:tb;writing-mode:lr-tb;text-anchor:start;baseline-shift:baseline;color:#000000;fill:#c480ff;fill-opacity:1;stroke:none;stroke-width:8;marker:none;visibility:visible;display:inline;overflow:visible;enable-background:accumulate;font-family:Sans;-inkscape-font-specification:Sans"
       d="m 14.5625,3.96875 a 4.0004,4.0004 0 0 0 -2.40625,6.875 L 17,15.6875 19.9375,19.78125 20.84375,23 19.9375,26.21875 17,30.3125 l -4.84375,4.84375 -5,5 -0.21875,0.25 -0.1875,0.25 -3.59375,5 L 2.75,46.25 l -0.1875,0.65625 -1.40625,5 L 0.84375,53 l 0.3125,1.09375 1.40625,5 0.1875,0.65625 0.40625,0.59375 3.59375,5 0.1875,0.25 0.21875,0.25 5,5 a 4.0216698,4.0216698 0 1 0 5.6875,-5.6875 L 13,60.3125 10.0625,56.21875 9.15625,53 10.0625,49.78125 13,45.6875 l 4.84375,-4.84375 5,-5 0.21875,-0.25 0.1875,-0.25 3.59375,-5 L 27.25,29.75 l 0.1875,-0.65625 1.40625,-5 0.3125,-1.09375 -0.3125,-1.09375 -1.40625,-5 L 27.25,16.25 l -0.40625,-0.59375 -3.59375,-5 -0.1875,-0.25 -0.21875,-0.25 -5,-5 A 4.0004,4.0004 0 0 0 14.5625,3.96875 z"
       id="path2986"
       inkscape:connector-curvature="0" />
  </g>
</svg>
