<?xml version="1.0" encoding="UTF-8" standalone="no"?>
<svg
   xmlns:dc="http://purl.org/dc/elements/1.1/"
   xmlns:cc="http://creativecommons.org/ns#"
   xmlns:rdf="http://www.w3.org/1999/02/22-rdf-syntax-ns#"
   xmlns:svg="http://www.w3.org/2000/svg"
   xmlns="http://www.w3.org/2000/svg"
   xmlns:xlink="http://www.w3.org/1999/xlink"
   xmlns:sodipodi="http://sodipodi.sourceforge.net/DTD/sodipodi-0.dtd"
   xmlns:inkscape="http://www.inkscape.org/namespaces/inkscape"
   version="1.1"
   width="69"
   height="20"
   id="svg6723"
   inkscape:version="0.48.2 r9819"
   sodipodi:docname="L40.svg">
  <title
     id="title2987">L40: Submarine Pipeline</title>
  <metadata
     id="metadata6736">
    <rdf:RDF>
      <cc:Work
         rdf:about="">
        <dc:format>image/svg+xml</dc:format>
        <dc:type
           rdf:resource="http://purl.org/dc/dcmitype/StillImage" />
        <dc:title>L40: Submarine Pipeline</dc:title>
        <cc:license
           rdf:resource="http://creativecommons.org/licenses/publicdomain/" />
      </cc:Work>
      <cc:License
         rdf:about="http://creativecommons.org/licenses/publicdomain/">
        <cc:permits
           rdf:resource="http://creativecommons.org/ns#Reproduction" />
        <cc:permits
           rdf:resource="http://creativecommons.org/ns#Distribution" />
        <cc:permits
           rdf:resource="http://creativecommons.org/ns#DerivativeWorks" />
      </cc:License>
    </rdf:RDF>
  </metadata>
  <defs
     id="defs6734" />
  <sodipodi:namedview
     pagecolor="#ffffff"
     bordercolor="#666666"
     borderopacity="1"
     objecttolerance="10"
     gridtolerance="10"
     guidetolerance="10"
     inkscape:pageopacity="0"
     inkscape:pageshadow="2"
     inkscape:window-width="719"
     inkscape:window-height="494"
     id="namedview6732"
     showgrid="false"
     inkscape:zoom="8.6470588"
     inkscape:cx="14.146258"
     inkscape:cy="10"
     inkscape:window-x="0"
     inkscape:window-y="0"
     inkscape:window-maximized="0"
     inkscape:current-layer="svg6723"
     fit-margin-top="0"
     fit-margin-left="0.5"
     fit-margin-right="0.5"
     fit-margin-bottom="0" />
  <symbol
     id="pipeline"
     width="30"
     height="60"
     transform="translate(19.5,-20)">
    <path
       d="m 15,0 0,60"
       style="fill:none;stroke:#c480ff;stroke-width:8"
       id="path6726"
       inkscape:connector-curvature="0" />
    <circle
       r="10"
       cx="15"
       cy="10"
       style="fill:#c480ff;stroke:none"
       id="circle6728"
       sodipodi:cx="15"
       sodipodi:cy="10"
       sodipodi:rx="10"
       sodipodi:ry="10"
       d="M 25,10 C 25,15.522847 20.522847,20 15,20 9.4771525,20 5,15.522847 5,10 5,4.4771525 9.4771525,0 15,0 20.522847,0 25,4.4771525 25,10 z" />
  </symbol>
  <use
     xlink:href="#pipeline"
     x="0"
     y="0"
     id="use6730"
     transform="matrix(0,1,-1,0,44.5,-24.5)"
     width="30"
     height="60" />
  <g
     id="use2985"
     transform="matrix(0,1,-1,0,64.5,-5)">
    <path
       style="font-size:medium;font-style:normal;font-variant:normal;font-weight:normal;font-stretch:normal;text-indent:0;text-align:start;text-decoration:none;line-height:normal;letter-spacing:normal;word-spacing:normal;text-transform:none;direction:ltr;block-progression:tb;writing-mode:lr-tb;text-anchor:start;baseline-shift:baseline;color:#000000;fill:#c480ff;fill-opacity:1;stroke:none;stroke-width:8;marker:none;visibility:visible;display:inline;overflow:visible;enable-background:accumulate;font-family:Sans;-inkscape-font-specification:Sans"
       d="M 54.5 0 C 50.392382 0 46.85148 2.458556 45.3125 6 L 4.5 6 L 4.5 14 L 45.3125 14 C 46.85148 17.541444 50.392382 20 54.5 20 C 58.607618 20 62.14852 17.541444 63.6875 14 L 64.5 14 L 64.5 10 L 64.5 6 L 63.6875 6 C 62.14852 2.458556 58.607618 0 54.5 0 z "
       transform="matrix(0,-1,1,0,5,64.5)"
       id="path2989" />
  </g>
</svg>
