<?xml version="1.0" encoding="UTF-8" standalone="no"?>
<svg
   xmlns:dc="http://purl.org/dc/elements/1.1/"
   xmlns:cc="http://creativecommons.org/ns#"
   xmlns:rdf="http://www.w3.org/1999/02/22-rdf-syntax-ns#"
   xmlns:svg="http://www.w3.org/2000/svg"
   xmlns="http://www.w3.org/2000/svg"
   xmlns:sodipodi="http://sodipodi.sourceforge.net/DTD/sodipodi-0.dtd"
   xmlns:inkscape="http://www.inkscape.org/namespaces/inkscape"
   version="1.0"
   width="83.84375"
   height="108.4797"
   id="svg2"
   inkscape:version="0.48.2 r9819"
   sodipodi:docname="L5.1.svg"
   sodipodi:version="0.32"
   inkscape:output_extension="org.inkscape.output.svg.inkscape"
   sodipodi:modified="true">
  <title
     id="title2982">L5.1: Wind Turbine</title>
  <metadata
     id="metadata3032">
    <rdf:RDF>
      <cc:Work
         rdf:about="">
        <dc:format>image/svg+xml</dc:format>
        <dc:type
           rdf:resource="http://purl.org/dc/dcmitype/StillImage" />
        <cc:license
           rdf:resource="http://creativecommons.org/licenses/publicdomain/" />
        <dc:title>L5.1: Wind Turbine</dc:title>
      </cc:Work>
      <cc:License
         rdf:about="http://creativecommons.org/licenses/publicdomain/">
        <cc:permits
           rdf:resource="http://creativecommons.org/ns#Reproduction" />
        <cc:permits
           rdf:resource="http://creativecommons.org/ns#Distribution" />
        <cc:permits
           rdf:resource="http://creativecommons.org/ns#DerivativeWorks" />
      </cc:License>
      <cc:Work
         rdf:about="">
        <dc:format>image/svg+xml</dc:format>
        <dc:type
           rdf:resource="http://purl.org/dc/dcmitype/StillImage" />
      </cc:Work>
    </rdf:RDF>
  </metadata>
  <sodipodi:namedview
     pagecolor="#ffffff"
     bordercolor="#666666"
     borderopacity="1"
     objecttolerance="10"
     gridtolerance="10"
     guidetolerance="10"
     inkscape:pageopacity="0"
     inkscape:pageshadow="2"
     inkscape:window-width="1440"
     inkscape:window-height="808"
     id="namedview3030"
     showgrid="false"
     inkscape:zoom="1.534375"
     inkscape:cx="45.295316"
     inkscape:cy="160"
     inkscape:window-x="0"
     inkscape:window-y="0"
     inkscape:window-maximized="1"
     inkscape:current-layer="svg2" />
  <defs
     id="defs4" />
  <path
     style="fill:#000407;fill-opacity:1;fill-rule:evenodd;stroke:none"
     d="M 24.92815,0 L 22.625,2.448451 L 38.73882,25.895069 L 20.65625,48.073451 L 22.9594,50.033081 L 39.4375,30.010951 L 39.5625,83.729701 C 34.6891,84.635821 30.80436,88.366911 29.6875,93.167201 L 0,93.167201 L 0,98.823451 L 29.6875,98.823451 C 30.97482,104.3564 35.92077,108.47969 41.84375,108.4797 C 47.7687,108.4797 52.7147,104.35918 54,98.823451 L 83.84375,98.823451 L 83.84375,98.760951 L 83.84375,93.167201 L 54,93.167201 C 52.8352,88.150441 48.65053,84.314571 43.46875,83.635951 L 43.46875,27.594895 L 65.70872,26.449826 L 65.62502,23.323451 L 41.55294,24.75 L 24.92815,0 z M 41.84375,88.479701 C 45.98375,88.479701 49.34375,91.839701 49.34375,95.979701 C 49.34375,100.1197 45.98375,103.4797 41.84375,103.4797 C 37.70375,103.4797 34.34375,100.1197 34.34375,95.979701 C 34.34375,91.839701 37.70375,88.479701 41.84375,88.479701 z "
     id="path90440"
     inkscape:connector-curvature="0"
     sodipodi:nodetypes="cccccccccccscccccccccccsssss" />
</svg>
