<?xml version="1.0" encoding="UTF-8" standalone="no"?>
<svg
   xmlns:dc="http://purl.org/dc/elements/1.1/"
   xmlns:cc="http://creativecommons.org/ns#"
   xmlns:rdf="http://www.w3.org/1999/02/22-rdf-syntax-ns#"
   xmlns:svg="http://www.w3.org/2000/svg"
   xmlns="http://www.w3.org/2000/svg"
   xmlns:sodipodi="http://sodipodi.sourceforge.net/DTD/sodipodi-0.dtd"
   xmlns:inkscape="http://www.inkscape.org/namespaces/inkscape"
   version="1.0"
   width="28.0625"
   height="67.9375"
   id="svg2"
   inkscape:version="0.48.2 r9819"
   sodipodi:docname="isol_black_plus_red.svg"
   sodipodi:version="0.32"
   inkscape:output_extension="org.inkscape.output.svg.inkscape"
   sodipodi:modified="true">
  <title
     id="title2986">Q9: Topmark, two black balls with red cross</title>
  <metadata
     id="metadata10">
    <rdf:RDF>
      <cc:Work
         rdf:about="">
        <dc:format>image/svg+xml</dc:format>
        <dc:type
           rdf:resource="http://purl.org/dc/dcmitype/StillImage" />
        <dc:title>Q9: Topmark, two black balls with red cross</dc:title>
        <cc:license
           rdf:resource="http://creativecommons.org/licenses/publicdomain/" />
      </cc:Work>
      <cc:Work
         rdf:about="">
        <dc:format>image/svg+xml</dc:format>
        <dc:type
           rdf:resource="http://purl.org/dc/dcmitype/StillImage" />
      </cc:Work>
      <cc:License
         rdf:about="http://creativecommons.org/licenses/publicdomain/">
        <cc:permits
           rdf:resource="http://creativecommons.org/ns#Reproduction" />
        <cc:permits
           rdf:resource="http://creativecommons.org/ns#Distribution" />
        <cc:permits
           rdf:resource="http://creativecommons.org/ns#DerivativeWorks" />
      </cc:License>
    </rdf:RDF>
  </metadata>
  <defs
     id="defs8" />
  <sodipodi:namedview
     pagecolor="#ffffff"
     bordercolor="#666666"
     borderopacity="1"
     objecttolerance="10"
     gridtolerance="10"
     guidetolerance="10"
     inkscape:pageopacity="0"
     inkscape:pageshadow="2"
     inkscape:window-width="1440"
     inkscape:window-height="808"
     id="namedview6"
     showgrid="false"
     inkscape:zoom="21.38397"
     inkscape:cx="3.5390718"
     inkscape:cy="33.96875"
     inkscape:window-x="0"
     inkscape:window-y="0"
     inkscape:window-maximized="1"
     inkscape:current-layer="svg2" />
  <path
     style="fill:#000000;stroke:none;stroke-width:1px;stroke-linecap:butt;stroke-linejoin:miter;stroke-opacity:1"
     d="M 14.044902,53.778181 L 10.096631,53.233592 L 7.237538,52.008267 L 5.059181,50.374499 L 3.4254133,48.468437 L 2.2000877,46.426227 L 1.2470566,43.839429 L 0.974762,40.980336 L 1.3832039,37.848948 L 2.7446769,34.309118 L 4.923034,31.72232 L 7.782127,29.543963 L 11.185809,28.18249 L 12.002693,26.821017 L 7.645979,25.187249 L 4.786886,22.872745 L 2.4723823,20.285947 L 1.2470566,16.60997 L 1.1109093,13.206288 L 1.7916458,9.530311 L 3.8338552,5.854334 L 7.373685,2.859093 L 11.866546,1.089178 L 14.725639,0.953031 L 17.857027,1.49762 L 20.71612,2.722946 L 23.030624,4.629008 L 24.664391,6.807365 L 26.162012,9.394163 L 26.706601,12.253257 L 26.978895,15.793086 L 25.617422,20.285947 L 23.439066,23.14504 L 20.171531,25.459544 L 15.406375,27.093312 L 19.082352,29.135521 L 21.805298,30.496994 L 23.847508,32.130762 L 25.889717,34.853707 L 26.978895,39.210421 L 26.978895,42.341809 L 26.434306,45.473196 L 24.936686,48.33229 L 22.486035,51.055235 L 20.035383,52.689003 L 17.040143,53.642034 L 14.044902,53.778181 z "
     id="path2987"
     inkscape:connector-curvature="0" />
  <path
     d="M 14.03125,0 C 6.225114,0 0,6.291548 0,13.9375 C 0,20.405752 4.462787,25.896531 10.5625,27.4375 C 4.462787,28.978469 0,34.469248 0,40.9375 C 0,47.872635 5.128041,53.696101 11.90625,54.71875 L 11.90625,67.9375 L 16.15625,67.9375 L 16.15625,54.71875 C 22.934459,53.696101 28.0625,47.872635 28.0625,40.9375 C 28.0625,34.469248 23.599714,28.978469 17.5,27.4375 C 23.599714,25.896531 28.0625,20.405752 28.0625,13.9375 C 28.0625,6.291548 21.837386,0 14.03125,0 z M 14.03125,1.875 C 20.584518,1.875 26,7.224049 26,13.9375 C 26,20.650951 20.584518,26 14.03125,26 C 7.477983,26 2.0625,20.650951 2.0625,13.9375 C 2.0625,7.224049 7.477983,1.875 14.03125,1.875 z M 14.03125,28.875 C 20.584518,28.875 26,34.224049 26,40.9375 C 26,47.650951 20.584518,53 14.03125,53 C 7.477983,53 2.0625,47.650951 2.0625,40.9375 C 2.0625,34.224049 7.477983,28.875 14.03125,28.875 z "
     id="path4"
     style="fill:#000000" />
  <path
     style="fill:#d40000;fill-opacity:1;stroke:none"
     d="M 12.28125,4.15625 L 12.28125,11.40625 L 4.65625,11.40625 L 4.65625,15.71875 L 12.28125,15.71875 L 12.28125,23.5 L 16.59375,23.5 L 16.59375,15.71875 L 23.96875,15.71875 L 23.96875,11.40625 L 16.59375,11.40625 L 16.59375,4.15625 L 12.28125,4.15625 z M 11.875,31.40625 L 11.875,38.65625 L 4.25,38.65625 L 4.25,42.96875 L 11.875,42.96875 L 11.875,50.75 L 16.1875,50.75 L 16.1875,42.96875 L 23.5625,42.96875 L 23.5625,38.65625 L 16.1875,38.65625 L 16.1875,31.40625 L 11.875,31.40625 z "
     id="rect2983" />
</svg>
