<?xml version="1.0" encoding="UTF-8" standalone="no"?>
<svg
   xmlns:dc="http://purl.org/dc/elements/1.1/"
   xmlns:cc="http://creativecommons.org/ns#"
   xmlns:rdf="http://www.w3.org/1999/02/22-rdf-syntax-ns#"
   xmlns:svg="http://www.w3.org/2000/svg"
   xmlns="http://www.w3.org/2000/svg"
   xmlns:sodipodi="http://sodipodi.sourceforge.net/DTD/sodipodi-0.dtd"
   xmlns:inkscape="http://www.inkscape.org/namespaces/inkscape"
   version="1.0"
   width="28.0625"
   height="67.9375"
   id="svg2"
   sodipodi:version="0.32"
   inkscape:version="0.48.2 r9819"
   sodipodi:docname="isol.svg"
   inkscape:output_extension="org.inkscape.output.svg.inkscape"
   sodipodi:modified="true">
  <title
     id="title2982">Q9: Topmark, two balls</title>
  <metadata
     id="metadata9">
    <rdf:RDF>
      <cc:Work
         rdf:about="">
        <dc:format>image/svg+xml</dc:format>
        <dc:type
           rdf:resource="http://purl.org/dc/dcmitype/StillImage" />
        <dc:title>Q9: Topmark, two balls</dc:title>
        <cc:license
           rdf:resource="http://creativecommons.org/licenses/publicdomain/" />
      </cc:Work>
      <cc:License
         rdf:about="http://creativecommons.org/licenses/publicdomain/">
        <cc:permits
           rdf:resource="http://creativecommons.org/ns#Reproduction" />
        <cc:permits
           rdf:resource="http://creativecommons.org/ns#Distribution" />
        <cc:permits
           rdf:resource="http://creativecommons.org/ns#DerivativeWorks" />
      </cc:License>
    </rdf:RDF>
  </metadata>
  <defs
     id="defs7" />
  <sodipodi:namedview
     inkscape:window-height="575"
     inkscape:window-width="802"
     inkscape:pageshadow="2"
     inkscape:pageopacity="0.0"
     guidetolerance="10.0"
     gridtolerance="10.0"
     objecttolerance="10.0"
     borderopacity="1.0"
     bordercolor="#666666"
     pagecolor="#ffffff"
     id="base"
     inkscape:zoom="4.7125"
     inkscape:cx="-54.69496"
     inkscape:cy="40"
     inkscape:window-x="130"
     inkscape:window-y="130"
     inkscape:current-layer="svg2"
     showgrid="false"
     inkscape:window-maximized="0" />
  <path
     d="M 14.03125,0 C 6.225114,0 0,6.291548 0,13.9375 C 0,20.405752 4.462787,25.896531 10.5625,27.4375 C 4.462787,28.978469 0,34.469248 0,40.9375 C 0,47.872635 5.128041,53.696101 11.90625,54.71875 L 11.90625,67.9375 L 16.15625,67.9375 L 16.15625,54.71875 C 22.934459,53.696101 28.0625,47.872635 28.0625,40.9375 C 28.0625,34.469248 23.599714,28.978469 17.5,27.4375 C 23.599714,25.896531 28.0625,20.405752 28.0625,13.9375 C 28.0625,6.291548 21.837386,0 14.03125,0 z M 14.03125,1.875 C 20.584518,1.875 26,7.224049 26,13.9375 C 26,20.650951 20.584518,26 14.03125,26 C 7.477983,26 2.0625,20.650951 2.0625,13.9375 C 2.0625,7.224049 7.477983,1.875 14.03125,1.875 z M 14.03125,28.875 C 20.584518,28.875 26,34.224049 26,40.9375 C 26,47.650951 20.584518,53 14.03125,53 C 7.477983,53 2.0625,47.650951 2.0625,40.9375 C 2.0625,34.224049 7.477983,28.875 14.03125,28.875 z "
     id="path4" />
</svg>
