<?xml version="1.0" encoding="UTF-8" standalone="no"?>
<!-- Created with Inkscape (http://www.inkscape.org/) -->

<svg
   xmlns:dc="http://purl.org/dc/elements/1.1/"
   xmlns:cc="http://creativecommons.org/ns#"
   xmlns:rdf="http://www.w3.org/1999/02/22-rdf-syntax-ns#"
   xmlns:svg="http://www.w3.org/2000/svg"
   xmlns="http://www.w3.org/2000/svg"
   version="1.0"
   width="72.3125"
   height="86.1875"
   id="svg2">
  <title
     id="title2982">Q111: Latice Tower</title>
  <metadata
     id="metadata3562">
    <rdf:RDF>
      <cc:Work
         rdf:about="">
        <dc:format>image/svg+xml</dc:format>
        <dc:type
           rdf:resource="http://purl.org/dc/dcmitype/StillImage" />
        <cc:license
           rdf:resource="http://creativecommons.org/licenses/publicdomain/" />
        <dc:title>Q111: Latice Tower</dc:title>
      </cc:Work>
      <cc:License
         rdf:about="http://creativecommons.org/licenses/publicdomain/">
        <cc:permits
           rdf:resource="http://creativecommons.org/ns#Reproduction" />
        <cc:permits
           rdf:resource="http://creativecommons.org/ns#Distribution" />
        <cc:permits
           rdf:resource="http://creativecommons.org/ns#DerivativeWorks" />
      </cc:License>
    </rdf:RDF>
  </metadata>
  <defs
     id="defs4" />
  <path
     d="M 12.7812,9.421e-5 8.1562,70.875098 H 0 V 76.5313 h 24 c 1.2873,5.533 6.2333,9.6562 12.156,9.6562 5.925,0 10.871,-4.1205 12.156,-9.6562 h 24 V 70.875098 H 64.1558 L 59.187,9.421e-5 H 12.781 z M 19.5,7.0938982 H 52.812 L 57.4058,70.874898 H 48.312 c -1.2853,-5.5357 -6.2313,-9.6562 -12.156,-9.6562 -5.923,10e-6 -10.869,4.1233 -12.156,9.6562 H 14.9062 L 19.5,7.0938982 z M 36.156,66.187898 c 4.14,0 7.5,3.36 7.5,7.500002 0,4.14 -3.36,7.5 -7.5,7.5 -4.14,0 -7.5,-3.36 -7.5,-7.5 0,-4.140002 3.36,-7.500002 7.5,-7.500002 z"
     id="path4" />
</svg>
