<?xml version="1.0" encoding="UTF-8" standalone="no"?>
<svg
   xmlns:dc="http://purl.org/dc/elements/1.1/"
   xmlns:cc="http://creativecommons.org/ns#"
   xmlns:rdf="http://www.w3.org/1999/02/22-rdf-syntax-ns#"
   xmlns:svg="http://www.w3.org/2000/svg"
   xmlns="http://www.w3.org/2000/svg"
   xmlns:sodipodi="http://sodipodi.sourceforge.net/DTD/sodipodi-0.dtd"
   xmlns:inkscape="http://www.inkscape.org/namespaces/inkscape"
   version="1.1"
   width="100"
   height="100"
   id="svg2"
   inkscape:version="0.48.2 r9819"
   sodipodi:docname="E10.1.svg">
  <title
     id="title2985">E10.1: Church</title>
  <metadata
     id="metadata13">
    <rdf:RDF>
      <cc:Work
         rdf:about="">
        <dc:format>image/svg+xml</dc:format>
        <dc:type
           rdf:resource="http://purl.org/dc/dcmitype/StillImage" />
        <dc:title>E10.1: Church</dc:title>
        <cc:license
           rdf:resource="http://creativecommons.org/licenses/publicdomain/" />
      </cc:Work>
      <cc:License
         rdf:about="http://creativecommons.org/licenses/publicdomain/">
        <cc:permits
           rdf:resource="http://creativecommons.org/ns#Reproduction" />
        <cc:permits
           rdf:resource="http://creativecommons.org/ns#Distribution" />
        <cc:permits
           rdf:resource="http://creativecommons.org/ns#DerivativeWorks" />
      </cc:License>
    </rdf:RDF>
  </metadata>
  <defs
     id="defs11" />
  <sodipodi:namedview
     pagecolor="#ffffff"
     bordercolor="#666666"
     borderopacity="1"
     objecttolerance="10"
     gridtolerance="10"
     guidetolerance="10"
     inkscape:pageopacity="0"
     inkscape:pageshadow="2"
     inkscape:window-width="2560"
     inkscape:window-height="1332"
     id="namedview9"
     showgrid="true"
     inkscape:zoom="6.675088"
     inkscape:cx="-42.690678"
     inkscape:cy="50"
     inkscape:window-x="0"
     inkscape:window-y="0"
     inkscape:window-maximized="1"
     inkscape:current-layer="svg2"
     fit-margin-top="0"
     fit-margin-left="0"
     fit-margin-right="0"
     fit-margin-bottom="0">
    <inkscape:grid
       type="xygrid"
       id="grid2984"
       empspacing="5"
       visible="true"
       enabled="true"
       snapvisiblegridlinesonly="true" />
  </sodipodi:namedview>
  <path
     d="m 29,0 0,2.0625 C 35.1706,2.57342 40,7.6926 40,14 l 0,26 -26,0 C 7.6931,40 2.5735,35.1706 2.0625,29 L 0,29 0,71 2.0625,71 C 2.57342,64.8294 7.6926,60 14,60 l 26,0 0,26 c 0,6.3069 -4.8294,11.4265 -11,11.9375 l 0,2.0625 42,0 0,-2.0625 C 64.83,97.4275 60,92.31 60,86 l 0,-26 26,0 c 6.3069,0 11.4265,4.8294 11.9375,11 L 100,71 100,29 97.9375,29 C 97.42658,35.1706 92.3074,40 86,40 L 60,40 60,14 C 60,7.6931 64.8294,2.5735 71,2.0625 L 71,0 29,0 z"
     id="path7"
     inkscape:connector-curvature="0" />
</svg>
