<?xml version="1.0" encoding="UTF-8" standalone="no"?>
<!-- Created with Inkscape (http://www.inkscape.org/) -->

<svg
   xmlns:dc="http://purl.org/dc/elements/1.1/"
   xmlns:cc="http://creativecommons.org/ns#"
   xmlns:rdf="http://www.w3.org/1999/02/22-rdf-syntax-ns#"
   xmlns:svg="http://www.w3.org/2000/svg"
   xmlns="http://www.w3.org/2000/svg"
   xmlns:sodipodi="http://sodipodi.sourceforge.net/DTD/sodipodi-0.dtd"
   xmlns:inkscape="http://www.inkscape.org/namespaces/inkscape"
   width="500"
   height="500"
   id="svg2983"
   version="1.1"
   inkscape:version="0.48.2 r9819"
   sodipodi:docname="E19_christian.svg">
  <title
     id="title2987">E19: Cemetery (Christian)</title>
  <defs
     id="defs2985" />
  <sodipodi:namedview
     id="base"
     pagecolor="#ffffff"
     bordercolor="#666666"
     borderopacity="1.0"
     inkscape:pageopacity="0.0"
     inkscape:pageshadow="2"
     inkscape:zoom="1.032"
     inkscape:cx="-91.085272"
     inkscape:cy="250"
     inkscape:document-units="px"
     inkscape:current-layer="layer1"
     showgrid="false"
     inkscape:window-width="1440"
     inkscape:window-height="808"
     inkscape:window-x="0"
     inkscape:window-y="0"
     inkscape:window-maximized="1" />
  <metadata
     id="metadata2988">
    <rdf:RDF>
      <cc:Work
         rdf:about="">
        <dc:format>image/svg+xml</dc:format>
        <dc:type
           rdf:resource="http://purl.org/dc/dcmitype/StillImage" />
        <dc:title>E19: Cemetery (Christian)</dc:title>
        <cc:license
           rdf:resource="http://creativecommons.org/licenses/publicdomain/" />
      </cc:Work>
      <cc:License
         rdf:about="http://creativecommons.org/licenses/publicdomain/">
        <cc:permits
           rdf:resource="http://creativecommons.org/ns#Reproduction" />
        <cc:permits
           rdf:resource="http://creativecommons.org/ns#Distribution" />
        <cc:permits
           rdf:resource="http://creativecommons.org/ns#DerivativeWorks" />
      </cc:License>
    </rdf:RDF>
  </metadata>
  <g
     inkscape:label="Layer 1"
     inkscape:groupmode="layer"
     id="layer1"
     transform="translate(0,-552.36218)">
    <path
       style="fill:#000000;fill-opacity:1;stroke:none"
       d="m 255.81904,655.0601 0,63.96875 -66.875,0 0,19.375 66.875,0 0,172.5 26.15625,0 0,-172.5 66.875,0 0,-19.375 -66.875,0 0,-63.96875 -26.15625,0 z"
       id="rect2991"
       inkscape:connector-curvature="0" />
    <path
       style="fill:#000000;fill-opacity:1;stroke:none"
       d="m -12.109133,478.70387 0,63.96875 -66.875,0 0,19.375 66.875,0 0,172.5 26.15625,0 0,-172.5 66.875,0 0,-19.375 -66.875,0 0,-63.96875 -26.15625,0 z"
       id="rect2991-1"
       inkscape:connector-curvature="0" />
    <path
       style="fill:#000000;fill-opacity:1;stroke:none"
       d="m -12.109133,977.73488 0,63.96872 -66.875,0 0,19.375 66.875,0 0,172.5 26.15625,0 0,-172.5 66.875,0 0,-19.375 -66.875,0 0,-63.96872 -26.15625,0 z"
       id="rect2991-7"
       inkscape:connector-curvature="0" />
    <path
       style="fill:#000000;fill-opacity:1;stroke:none"
       d="m 487.89086,481.12637 0,63.96875 -66.875,0 0,19.375 66.875,0 0,172.5 26.15625,0 0,-172.5 66.875,0 0,-19.375 -66.875,0 0,-63.96875 -26.15625,0 z"
       id="rect2991-1-4"
       inkscape:connector-curvature="0" />
    <path
       style="fill:#000000;fill-opacity:1;stroke:none"
       d="m 487.89086,980.15739 0,63.96871 -66.875,0 0,19.375 66.875,0 0,172.5 26.15625,0 0,-172.5 66.875,0 0,-19.375 -66.875,0 0,-63.96871 -26.15625,0 z"
       id="rect2991-7-0"
       inkscape:connector-curvature="0" />
  </g>
</svg>
