<?xml version="1.0" encoding="UTF-8" standalone="no"?>
<svg
   xmlns:dc="http://purl.org/dc/elements/1.1/"
   xmlns:cc="http://creativecommons.org/ns#"
   xmlns:rdf="http://www.w3.org/1999/02/22-rdf-syntax-ns#"
   xmlns:svg="http://www.w3.org/2000/svg"
   xmlns="http://www.w3.org/2000/svg"
   xmlns:sodipodi="http://sodipodi.sourceforge.net/DTD/sodipodi-0.dtd"
   xmlns:inkscape="http://www.inkscape.org/namespaces/inkscape"
   version="1.0"
   width="83.84375"
   height="160.53125"
   id="svg2"
   inkscape:version="0.48.2 r9819"
   sodipodi:docname="E20.svg"
   sodipodi:version="0.32"
   inkscape:output_extension="org.inkscape.output.svg.inkscape"
   sodipodi:modified="true">
  <title
     id="title2982">E20: Tower</title>
  <metadata
     id="metadata3032">
    <rdf:RDF>
      <cc:Work
         rdf:about="">
        <dc:format>image/svg+xml</dc:format>
        <dc:type
           rdf:resource="http://purl.org/dc/dcmitype/StillImage" />
        <cc:license
           rdf:resource="http://creativecommons.org/licenses/publicdomain/" />
        <dc:title>E20: Tower</dc:title>
      </cc:Work>
      <cc:License
         rdf:about="http://creativecommons.org/licenses/publicdomain/">
        <cc:permits
           rdf:resource="http://creativecommons.org/ns#Reproduction" />
        <cc:permits
           rdf:resource="http://creativecommons.org/ns#Distribution" />
        <cc:permits
           rdf:resource="http://creativecommons.org/ns#DerivativeWorks" />
      </cc:License>
      <cc:Work
         rdf:about="">
        <dc:format>image/svg+xml</dc:format>
        <dc:type
           rdf:resource="http://purl.org/dc/dcmitype/StillImage" />
      </cc:Work>
    </rdf:RDF>
  </metadata>
  <sodipodi:namedview
     pagecolor="#ffffff"
     bordercolor="#666666"
     borderopacity="1"
     objecttolerance="10"
     gridtolerance="10"
     guidetolerance="10"
     inkscape:pageopacity="0"
     inkscape:pageshadow="2"
     inkscape:window-width="1440"
     inkscape:window-height="808"
     id="namedview3030"
     showgrid="false"
     inkscape:zoom="1.609375"
     inkscape:cx="50.640777"
     inkscape:cy="160"
     inkscape:window-x="0"
     inkscape:window-y="0"
     inkscape:window-maximized="1"
     inkscape:current-layer="svg2" />
  <defs
     id="defs4" />
  <path
     style="fill:#000407;fill-opacity:1;fill-rule:evenodd;stroke:none"
     d="M 25.9375,0 L 25.9375,0.03125 L 22.15625,0.03125 L 12.15625,145.21875 L 0,145.21875 L 0,150.875 L 29.6875,150.875 C 30.97482,156.40795 35.92077,160.53124 41.84375,160.53125 C 47.7687,160.53125 52.7147,156.41073 54,150.875 L 83.84375,150.875 L 83.84375,150.8125 L 83.84375,145.21875 L 70.78125,145.21875 L 60.84375,0.03125 L 55.4375,0.03125 L 55.4375,0 L 25.9375,0 z M 29.6875,5.875 L 53.34375,5.875 L 54.65625,24.96875 L 28.375,24.96875 L 29.6875,5.875 z M 27.90625,31.59375 L 55.09375,31.59375 L 62.875,145.21875 L 54,145.21875 C 52.7147,139.68302 47.7687,135.5625 41.84375,135.5625 C 35.92077,135.56251 30.97482,139.6858 29.6875,145.21875 L 20.09375,145.21875 L 27.90625,31.59375 z M 41.84375,140.53125 C 45.98375,140.53125 49.34375,143.89125 49.34375,148.03125 C 49.34375,152.17125 45.98375,155.53125 41.84375,155.53125 C 37.70375,155.53125 34.34375,152.17125 34.34375,148.03125 C 34.34375,143.89125 37.70375,140.53125 41.84375,140.53125 z "
     id="path90440" />
</svg>
