<?xml version="1.0" encoding="UTF-8" standalone="no"?>
<svg
   xmlns:dc="http://purl.org/dc/elements/1.1/"
   xmlns:cc="http://creativecommons.org/ns#"
   xmlns:rdf="http://www.w3.org/1999/02/22-rdf-syntax-ns#"
   xmlns:svg="http://www.w3.org/2000/svg"
   xmlns="http://www.w3.org/2000/svg"
   xmlns:sodipodi="http://sodipodi.sourceforge.net/DTD/sodipodi-0.dtd"
   xmlns:inkscape="http://www.inkscape.org/namespaces/inkscape"
   version="1.0"
   width="83.84375"
   height="162.71875"
   id="svg2"
   inkscape:version="0.48.2 r9819"
   sodipodi:docname="E21.svg"
   sodipodi:version="0.32"
   inkscape:output_extension="org.inkscape.output.svg.inkscape"
   sodipodi:modified="true">
  <title
     id="title2982">E21: Water Tower</title>
  <metadata
     id="metadata3032">
    <rdf:RDF>
      <cc:Work
         rdf:about="">
        <dc:format>image/svg+xml</dc:format>
        <dc:type
           rdf:resource="http://purl.org/dc/dcmitype/StillImage" />
        <cc:license
           rdf:resource="http://creativecommons.org/licenses/publicdomain/" />
        <dc:title>E21: Water Tower</dc:title>
      </cc:Work>
      <cc:License
         rdf:about="http://creativecommons.org/licenses/publicdomain/">
        <cc:permits
           rdf:resource="http://creativecommons.org/ns#Reproduction" />
        <cc:permits
           rdf:resource="http://creativecommons.org/ns#Distribution" />
        <cc:permits
           rdf:resource="http://creativecommons.org/ns#DerivativeWorks" />
      </cc:License>
      <cc:Work
         rdf:about="">
        <dc:format>image/svg+xml</dc:format>
        <dc:type
           rdf:resource="http://purl.org/dc/dcmitype/StillImage" />
      </cc:Work>
    </rdf:RDF>
  </metadata>
  <sodipodi:namedview
     pagecolor="#ffffff"
     bordercolor="#666666"
     borderopacity="1"
     objecttolerance="10"
     gridtolerance="10"
     guidetolerance="10"
     inkscape:pageopacity="0"
     inkscape:pageshadow="2"
     inkscape:window-width="802"
     inkscape:window-height="575"
     id="namedview3030"
     showgrid="false"
     inkscape:zoom="0.83474804"
     inkscape:cx="-50.842064"
     inkscape:cy="160"
     inkscape:window-x="445"
     inkscape:window-y="165"
     inkscape:window-maximized="0"
     inkscape:current-layer="svg2" />
  <defs
     id="defs4" />
  <path
     style="fill:#000407;fill-opacity:1;fill-rule:evenodd;stroke:none"
     d="M 6.375,0 L 6.375,47.5625 L 26.75,47.5625 C 21.00082,68.092484 15.47178,90.97648 12.9375,147.40625 L 0,147.40625 L 0,153.0625 L 29.6875,153.0625 C 30.97482,158.59545 35.92077,162.71874 41.84375,162.71875 C 47.7687,162.71875 52.7147,158.59823 54,153.0625 L 83.84375,153.0625 L 83.84375,153 L 83.84375,147.40625 L 69.46875,147.40625 C 65.27324,91.98764 60.06166,68.806501 54.78125,47.5625 L 75.4375,47.5625 L 75.4375,0 L 6.375,0 z M 12.84375,4.5625 L 66.9375,4.5625 L 66.9375,39.75 L 12.84375,39.75 L 12.84375,4.5625 z M 33.4375,47.5625 L 48.625,47.5625 C 54.50664,74.805506 60.55466,100.17594 64.5625,147.40625 L 54,147.40625 C 52.7147,141.87052 47.7687,137.75 41.84375,137.75 C 35.92077,137.75001 30.97482,141.8733 29.6875,147.40625 L 19.53125,147.40625 C 22.3652,96.3312 27.19334,72.224331 33.4375,47.5625 z M 41.84375,142.71875 C 45.98375,142.71875 49.34375,146.07875 49.34375,150.21875 C 49.34375,154.35875 45.98375,157.71875 41.84375,157.71875 C 37.70375,157.71875 34.34375,154.35875 34.34375,150.21875 C 34.34375,146.07875 37.70375,142.71875 41.84375,142.71875 z "
     id="path90440" />
</svg>
