<?xml version="1.0" encoding="UTF-8" standalone="no"?>
<svg
   xmlns:dc="http://purl.org/dc/elements/1.1/"
   xmlns:cc="http://creativecommons.org/ns#"
   xmlns:rdf="http://www.w3.org/1999/02/22-rdf-syntax-ns#"
   xmlns:svg="http://www.w3.org/2000/svg"
   xmlns="http://www.w3.org/2000/svg"
   xmlns:xlink="http://www.w3.org/1999/xlink"
   xmlns:sodipodi="http://sodipodi.sourceforge.net/DTD/sodipodi-0.dtd"
   xmlns:inkscape="http://www.inkscape.org/namespaces/inkscape"
   version="1.0"
   width="103.59992"
   height="187.44247"
   id="svg6837"
   inkscape:version="0.48.2 r9819"
   sodipodi:docname="E22.svg"
   sodipodi:version="0.32"
   inkscape:output_extension="org.inkscape.output.svg.inkscape"
   sodipodi:modified="true">
  <title
     id="title2985">E22: Chimney</title>
  <metadata
     id="metadata6850">
    <rdf:RDF>
      <cc:Work
         rdf:about="">
        <dc:format>image/svg+xml</dc:format>
        <dc:type
           rdf:resource="http://purl.org/dc/dcmitype/StillImage" />
        <dc:title>E22: Chimney</dc:title>
        <cc:license
           rdf:resource="http://creativecommons.org/licenses/publicdomain/" />
      </cc:Work>
      <cc:Work
         rdf:about="">
        <dc:format>image/svg+xml</dc:format>
        <dc:type
           rdf:resource="http://purl.org/dc/dcmitype/StillImage" />
      </cc:Work>
      <cc:License
         rdf:about="http://creativecommons.org/licenses/publicdomain/">
        <cc:permits
           rdf:resource="http://creativecommons.org/ns#Reproduction" />
        <cc:permits
           rdf:resource="http://creativecommons.org/ns#Distribution" />
        <cc:permits
           rdf:resource="http://creativecommons.org/ns#DerivativeWorks" />
      </cc:License>
    </rdf:RDF>
  </metadata>
  <defs
     id="defs6848" />
  <sodipodi:namedview
     pagecolor="#ffffff"
     bordercolor="#666666"
     borderopacity="1"
     objecttolerance="10"
     gridtolerance="10"
     guidetolerance="10"
     inkscape:pageopacity="0"
     inkscape:pageshadow="2"
     inkscape:window-width="802"
     inkscape:window-height="575"
     id="namedview6846"
     showgrid="false"
     inkscape:zoom="0.645"
     inkscape:cx="-395.73644"
     inkscape:cy="200"
     inkscape:window-x="104"
     inkscape:window-y="104"
     inkscape:window-maximized="0"
     inkscape:current-layer="svg6837" />
  <symbol
     id="chimney"
     width="300"
     height="400"
     transform="translate(-112.4375,-27.55753)">
    <path
       d="M 137.71875,68.5 C 132.73434,111.50177 127.72142,154.50032 122.71875,197.5 L 112.4375,197.5 L 112.4375,202.5 L 135.15625,202.5 C 136.36065,209.56648 142.53965,215 149.9375,215 C 157.33535,215 163.4831,209.56648 164.6875,202.5 L 187.4375,202.5 L 187.4375,197.5 L 177.15625,197.5 C 172.25746,154.48858 167.00327,111.51728 162.15625,68.5 C 153.27633,68.5 145.66695,68.5 137.71875,68.5 z M 142.15625,73.5 L 157.71875,73.5 L 172.15625,197.5 L 164.6875,197.5 C 163.4831,190.43352 157.33535,185 149.9375,185 C 142.53965,185 136.36065,190.43352 135.15625,197.5 L 127.71875,197.5 L 142.15625,73.5 z M 149.9375,190 C 155.48996,190 159.9375,194.44754 159.9375,200 C 159.9375,205.55246 155.48996,210 149.9375,210 C 144.38504,210 139.9375,205.55246 139.9375,200 C 139.9375,194.44754 144.38504,190 149.9375,190 z "
       id="path6840" />
    <path
       d="M 186.25,27.5625 C 185.75653,27.5722 185.28046,27.58629 184.78125,27.625 C 178.45897,28.115254 171.68298,31.001046 165.125,37.15625 C 164.13783,36.933505 163.13977,36.835657 162.125,36.84375 C 158.02435,36.87645 153.77935,38.459025 149.90625,41 C 142.16006,46.08195 135.67542,55.357909 137.71875,65.5625 L 142.625,64.59375 C 141.11033,57.029341 146.18494,49.43305 152.65625,45.1875 C 155.8919,43.064725 159.39996,41.865982 162.1875,41.84375 C 164.97504,41.82152 166.88843,42.674566 168.21875,45 L 172.5625,42.53125 C 171.87406,41.327834 170.99204,40.314593 170,39.5 C 179.0268,31.696105 187.26283,31.206967 194.1875,34 C 201.72102,37.038609 207.76239,44.481991 210.03125,51.6875 C 211.16568,55.290254 211.33031,58.796305 210.5625,61.53125 C 209.79469,64.266195 208.23706,66.299591 205.28125,67.59375 C 199.72058,70.028414 188.38961,69.206385 170.09375,60.15625 C 170.35479,59.91857 170.62942,59.669388 170.875,59.40625 C 171.93746,58.267807 172.875,56.726933 172.875,54.84375 L 167.875,54.84375 C 167.875,55.108567 167.7858,55.392443 167.21875,56 C 166.65174,56.607557 165.66883,57.343463 164.53125,58.125 C 162.25609,59.688073 159.26156,61.289887 157.71875,64.46875 L 162.21875,66.65625 C 162.62539,65.818397 163.96191,64.679747 165.625,63.46875 C 185.81977,73.889676 198.9815,75.790185 207.28125,72.15625 C 211.52555,70.297941 214.26325,66.835079 215.375,62.875 C 216.48675,58.914921 216.13888,54.499121 214.78125,50.1875 C 212.06598,41.564259 205.30601,33.072079 196.0625,29.34375 C 193.02947,28.120392 189.70426,27.494796 186.25,27.5625 z "
       id="path6842" />
  </symbol>
  <use
     xlink:href="#chimney"
     x="0"
     y="0"
     id="use6844"
     width="300"
     height="400" />
</svg>
