<?xml version="1.0" encoding="UTF-8" standalone="no"?>
<svg
   xmlns:dc="http://purl.org/dc/elements/1.1/"
   xmlns:cc="http://creativecommons.org/ns#"
   xmlns:rdf="http://www.w3.org/1999/02/22-rdf-syntax-ns#"
   xmlns:svg="http://www.w3.org/2000/svg"
   xmlns="http://www.w3.org/2000/svg"
   xmlns:sodipodi="http://sodipodi.sourceforge.net/DTD/sodipodi-0.dtd"
   xmlns:inkscape="http://www.inkscape.org/namespaces/inkscape"
   version="1.0"
   width="41.1875"
   height="134.40625"
   id="svg2"
   inkscape:version="0.48.2 r9819"
   sodipodi:docname="E23_colour.svg"
   sodipodi:version="0.32"
   inkscape:output_extension="org.inkscape.output.svg.inkscape"
   sodipodi:modified="true">
  <title
     id="title2985">E23: Flare</title>
  <metadata
     id="metadata3080">
    <rdf:RDF>
      <cc:Work
         rdf:about="">
        <dc:format>image/svg+xml</dc:format>
        <dc:type
           rdf:resource="http://purl.org/dc/dcmitype/StillImage" />
        <cc:license
           rdf:resource="http://creativecommons.org/licenses/publicdomain/" />
        <dc:title>E23: Flare</dc:title>
      </cc:Work>
      <cc:License
         rdf:about="http://creativecommons.org/licenses/publicdomain/">
        <cc:permits
           rdf:resource="http://creativecommons.org/ns#Reproduction" />
        <cc:permits
           rdf:resource="http://creativecommons.org/ns#Distribution" />
        <cc:permits
           rdf:resource="http://creativecommons.org/ns#DerivativeWorks" />
      </cc:License>
      <cc:Work
         rdf:about="">
        <dc:format>image/svg+xml</dc:format>
        <dc:type
           rdf:resource="http://purl.org/dc/dcmitype/StillImage" />
      </cc:Work>
    </rdf:RDF>
  </metadata>
  <sodipodi:namedview
     pagecolor="#ffffff"
     bordercolor="#666666"
     borderopacity="1"
     objecttolerance="10"
     gridtolerance="10"
     guidetolerance="10"
     inkscape:pageopacity="0"
     inkscape:pageshadow="2"
     inkscape:window-width="1440"
     inkscape:window-height="808"
     id="namedview3078"
     showgrid="false"
     inkscape:zoom="3.8911881"
     inkscape:cx="-24.636651"
     inkscape:cy="67.203125"
     inkscape:window-x="0"
     inkscape:window-y="0"
     inkscape:window-maximized="1"
     inkscape:current-layer="svg2" />
  <defs
     id="defs4" />
  <path
     style="fill:#d40000;stroke:none;stroke-width:1px;stroke-linecap:butt;stroke-linejoin:miter;stroke-opacity:1"
     d="M 16.82947,15.504327 L 15.91713,18.139962 L 15.91713,21.890674 L 16.82947,24.729051 L 19.16099,27.161945 L 22.70896,28.479763 L 25.95282,28.175651 L 29.09531,26.553722 L 30.00764,23.715345 L 30.91998,2.731632 L 23.31718,7.49605 L 18.24865,12.868691 L 16.82947,15.504327 z "
     id="path2982"
     inkscape:connector-curvature="0" />
  <path
     style="fill:#000407;fill-opacity:1;fill-rule:evenodd;stroke:none"
     d="M 32.28125,0 C 27.70218,1.983907 17.04499,11.151037 15.78125,13.6875 C 14.17235,17.030778 14.03693,21.479167 15.375,25.375 C 16.29688,27.764676 21.6392,29.601797 24.21875,29.78125 C 26.68419,29.78595 30.99147,27.764676 31.0625,25.375 C 31.46875,16.916667 31.875,8.458333 32.28125,0 z M 29.32386,4.786463 C 29.17803,9.890629 28.47964,18.494315 28.33381,23.598482 C 28.78645,25.279352 26.66051,26.591852 24.35038,26.615056 C 21.31108,26.737685 19.56108,25.939389 18.17945,23.851797 C 16.56014,21.779352 16.96686,17.68087 19.03125,14.6875 C 21.17282,11.325759 25.89299,6.490537 29.32386,4.786463 z M 12.0625,38.1875 L 12.0625,112.9375 C 10.35796,114.5864 9.11581,116.70864 8.5625,119.09375 L 0.125,119.09375 L 0,124.75 L 8.5625,124.75 C 9.84982,130.28295 14.79577,134.40624 20.71875,134.40625 C 26.6437,134.40625 31.5897,130.28573 32.875,124.75 L 41.1875,124.7188 L 41.1875,119.06255 L 32.875,119.09375 C 32.28832,116.56479 30.92845,114.34259 29.0625,112.65625 L 29.0625,38.1875 L 12.0625,38.1875 z M 20.71875,114.40625 C 24.85875,114.40625 28.21875,117.76625 28.21875,121.90625 C 28.21875,126.04625 24.85875,129.40625 20.71875,129.40625 C 16.57875,129.40625 13.21875,126.04625 13.21875,121.90625 C 13.21875,117.76625 16.57875,114.40625 20.71875,114.40625 z "
     id="path2520"
     inkscape:connector-curvature="0"
     sodipodi:nodetypes="ccccccccccccccccccscccccccsssss" />
</svg>
