<?xml version="1.0" encoding="UTF-8" standalone="no"?>
<svg
   xmlns:dc="http://purl.org/dc/elements/1.1/"
   xmlns:cc="http://creativecommons.org/ns#"
   xmlns:rdf="http://www.w3.org/1999/02/22-rdf-syntax-ns#"
   xmlns:svg="http://www.w3.org/2000/svg"
   xmlns="http://www.w3.org/2000/svg"
   xmlns:sodipodi="http://sodipodi.sourceforge.net/DTD/sodipodi-0.dtd"
   xmlns:inkscape="http://www.inkscape.org/namespaces/inkscape"
   version="1.0"
   width="86.21875"
   height="166.59375"
   id="svg2"
   inkscape:version="0.48.2 r9819"
   sodipodi:docname="E24.svg"
   sodipodi:version="0.32"
   inkscape:output_extension="org.inkscape.output.svg.inkscape"
   sodipodi:modified="true">
  <title
     id="title2994">E24: Monument</title>
  <metadata
     id="metadata3032">
    <rdf:RDF>
      <cc:Work
         rdf:about="">
        <dc:format>image/svg+xml</dc:format>
        <dc:type
           rdf:resource="http://purl.org/dc/dcmitype/StillImage" />
        <cc:license
           rdf:resource="http://creativecommons.org/licenses/publicdomain/" />
        <dc:title>E24: Monument</dc:title>
      </cc:Work>
      <cc:License
         rdf:about="http://creativecommons.org/licenses/publicdomain/">
        <cc:permits
           rdf:resource="http://creativecommons.org/ns#Reproduction" />
        <cc:permits
           rdf:resource="http://creativecommons.org/ns#Distribution" />
        <cc:permits
           rdf:resource="http://creativecommons.org/ns#DerivativeWorks" />
      </cc:License>
      <cc:Work
         rdf:about="">
        <dc:format>image/svg+xml</dc:format>
        <dc:type
           rdf:resource="http://purl.org/dc/dcmitype/StillImage" />
      </cc:Work>
    </rdf:RDF>
  </metadata>
  <sodipodi:namedview
     pagecolor="#ffffff"
     bordercolor="#666666"
     borderopacity="1"
     objecttolerance="10"
     gridtolerance="10"
     guidetolerance="10"
     inkscape:pageopacity="0"
     inkscape:pageshadow="2"
     inkscape:window-width="1440"
     inkscape:window-height="808"
     id="namedview3030"
     showgrid="false"
     inkscape:zoom="3.6736072"
     inkscape:cx="-4.7999387"
     inkscape:cy="83.296875"
     inkscape:window-x="0"
     inkscape:window-y="0"
     inkscape:window-maximized="1"
     inkscape:current-layer="svg2" />
  <defs
     id="defs4" />
  <path
     style="fill:#7e7e7e;fill-opacity:0.49509804;stroke:#000000;stroke-width:4;stroke-linecap:butt;stroke-linejoin:miter;stroke-miterlimit:4;stroke-dasharray:none;stroke-opacity:1"
     d="M 43.125,2 C 20.41989,2 2,16.871898 2,35.21875 C 2,47.129554 9.75118,57.573843 21.40625,63.4375 L 6.59375,152.71875 L 32.53125,153.21875 L 33.8125,150.15625 L 37.125,145.5625 L 42.96875,144.0625 L 50.125,146.34375 L 54.1875,153.21875 L 79.125,152.4375 L 66.28125,62.65625 C 77.10661,56.672943 84.21875,46.616808 84.21875,35.21875 C 84.21875,16.871898 65.83011,2 43.125,2 z "
     id="path2982" />
  <path
     d="M 1.53125,151.28125 L 1.53125,156.9375 L 31.21875,156.9375 C 32.50607,162.47045 37.45202,166.59374 43.375,166.59375 C 49.29995,166.59375 54.24595,162.47323 55.53125,156.9375 L 85.375,156.9375 L 85.375,156.875 L 85.375,151.28125 M 55.53125,151.28125 C 54.24595,145.74552 49.29995,141.625 43.375,141.625 C 37.45202,141.62501 32.50607,145.7483 31.21875,151.28125 M 43.375,146.59375 C 47.515,146.59375 50.875,149.95375 50.875,154.09375 C 50.875,158.23375 47.515,161.59375 43.375,161.59375 C 39.235,161.59375 35.875,158.23375 35.875,154.09375 C 35.875,149.95375 39.235,146.59375 43.375,146.59375 z "
     id="path90440"
     style="fill:#000407;fill-opacity:1;fill-rule:evenodd;stroke:none"
     inkscape:connector-curvature="0"
     sodipodi:nodetypes="cccscccccscsssss" />
  <path
     style="fill:#000000;fill-opacity:1;stroke:#000000;stroke-width:1px;stroke-linecap:butt;stroke-linejoin:miter;stroke-opacity:1"
     d="M 10.24575,134.02098 L 66.96194,152.69864 L 70.66058,151.68992 L 10.67959,130.50681 L 10.24575,134.02098 z "
     id="path3755"
     inkscape:connector-curvature="0"
     sodipodi:nodetypes="ccccc" />
  <path
     style="fill:#000000;fill-opacity:1;stroke:#000000;stroke-width:1px;stroke-linecap:butt;stroke-linejoin:miter;stroke-opacity:1"
     d="M 12.50183,119.07466 L 77.38537,144.29264 L 76.71289,139.24905 L 12.9791,114.66011 L 12.50183,119.07466 z "
     id="path3757"
     inkscape:connector-curvature="0"
     sodipodi:nodetypes="ccccc" />
  <path
     style="fill:#000000;fill-opacity:1;stroke:#000000;stroke-width:1px;stroke-linecap:butt;stroke-linejoin:miter;stroke-opacity:1"
     d="M 15.14831,103.60762 L 74.69546,126.80817 L 74.35922,123.10953 L 15.66902,100.77667 L 15.14831,103.60762 z "
     id="path3759"
     inkscape:connector-curvature="0"
     sodipodi:nodetypes="ccccc" />
  <path
     style="fill:#000000;fill-opacity:1;stroke:#000000;stroke-width:1px;stroke-linecap:butt;stroke-linejoin:miter;stroke-opacity:1"
     d="M 17.01398,92.468278 L 73.3505,112.6861 L 72.67802,109.65994 L 17.64303,88.574435 L 17.01398,92.468278 z "
     id="path3761"
     inkscape:connector-curvature="0"
     sodipodi:nodetypes="ccccc" />
  <path
     style="fill:#000000;fill-opacity:1;stroke:#000000;stroke-width:1px;stroke-linecap:butt;stroke-linejoin:miter;stroke-opacity:1"
     d="M 19.36766,78.205171 L 70.99682,96.88283 L 69.9881,93.85667 L 19.85567,74.354761 L 19.36766,78.205171 z "
     id="path3763"
     inkscape:connector-curvature="0"
     sodipodi:nodetypes="ccccc" />
  <path
     style="fill:#000000;fill-opacity:1;stroke:#000000;stroke-width:1px;stroke-linecap:butt;stroke-linejoin:miter;stroke-opacity:1"
     d="M 21.3851,65.905332 L 68.64314,82.088276 L 67.97066,78.389638 L 13.95561,58.77939 L 21.92728,63.063642 L 21.3851,65.905332 z "
     id="path3765"
     inkscape:connector-curvature="0"
     sodipodi:nodetypes="cccccc" />
  <path
     style="fill:#000000;fill-opacity:1;stroke:#000000;stroke-width:1px;stroke-linecap:butt;stroke-linejoin:miter;stroke-opacity:1"
     d="M 2.176,34.060153 L 66.06156,64.224133 L 66.44123,62.401899 L 2.4039,30.307345 L 2.176,34.060153 z "
     id="path3767"
     inkscape:connector-curvature="0"
     sodipodi:nodetypes="ccccc" />
  <path
     style="fill:#000000;fill-opacity:1;stroke:#000000;stroke-width:1px;stroke-linecap:butt;stroke-linejoin:miter;stroke-opacity:1"
     d="M 5.76629,47.791815 L 67.14641,71.664842 L 67.04881,69.647403 L 3.56438,43.18206 L 5.76629,47.791815 z "
     id="path3769"
     inkscape:connector-curvature="0"
     sodipodi:nodetypes="ccccc" />
  <path
     style="fill:#000000;fill-opacity:1;stroke:#000000;stroke-width:1px;stroke-linecap:butt;stroke-linejoin:miter;stroke-opacity:1"
     d="M 7.11125,19.547671 L 75.02096,55.568764 L 77.04913,53.844132 L 8.66215,17.345764 L 7.11125,19.547671 z "
     id="path3771"
     inkscape:connector-curvature="0"
     sodipodi:nodetypes="ccccc" />
  <path
     style="fill:#000000;fill-opacity:1;stroke:#000000;stroke-width:1px;stroke-linecap:butt;stroke-linejoin:miter;stroke-opacity:1"
     d="M 15.62559,10.71857 L 81.42025,46.783096 L 82.09273,44.429417 L 18.79278,8.603529 L 15.62559,10.71857 z "
     id="path3773"
     inkscape:connector-curvature="0"
     sodipodi:nodetypes="ccccc" />
  <path
     style="fill:#000000;fill-opacity:1;stroke:#000000;stroke-width:1px;stroke-linecap:butt;stroke-linejoin:miter;stroke-opacity:1"
     d="M 30.02973,3.7009666 L 83.58946,31.077426 L 82.76521,26.944947 L 35.3554,2.3994399 L 30.02973,3.7009666 z "
     id="path3775"
     inkscape:connector-curvature="0"
     sodipodi:nodetypes="ccccc" />
</svg>
