<?xml version="1.0" encoding="UTF-8" standalone="no"?>
<svg
   xmlns:dc="http://purl.org/dc/elements/1.1/"
   xmlns:cc="http://creativecommons.org/ns#"
   xmlns:rdf="http://www.w3.org/1999/02/22-rdf-syntax-ns#"
   xmlns:svg="http://www.w3.org/2000/svg"
   xmlns="http://www.w3.org/2000/svg"
   xmlns:sodipodi="http://sodipodi.sourceforge.net/DTD/sodipodi-0.dtd"
   xmlns:inkscape="http://www.inkscape.org/namespaces/inkscape"
   version="1.0"
   width="65.25"
   height="67.21875"
   id="svg2"
   inkscape:version="0.48.2 r9819"
   sodipodi:docname="E25.svg"
   sodipodi:version="0.32"
   inkscape:output_extension="org.inkscape.output.svg.inkscape"
   sodipodi:modified="true">
  <title
     id="title2982">E25: Windmill</title>
  <metadata
     id="metadata3032">
    <rdf:RDF>
      <cc:Work
         rdf:about="">
        <dc:format>image/svg+xml</dc:format>
        <dc:type
           rdf:resource="http://purl.org/dc/dcmitype/StillImage" />
        <cc:license
           rdf:resource="http://creativecommons.org/licenses/publicdomain/" />
        <dc:title>E25: Windmill</dc:title>
      </cc:Work>
      <cc:License
         rdf:about="http://creativecommons.org/licenses/publicdomain/">
        <cc:permits
           rdf:resource="http://creativecommons.org/ns#Reproduction" />
        <cc:permits
           rdf:resource="http://creativecommons.org/ns#Distribution" />
        <cc:permits
           rdf:resource="http://creativecommons.org/ns#DerivativeWorks" />
      </cc:License>
      <cc:Work
         rdf:about="">
        <dc:format>image/svg+xml</dc:format>
        <dc:type
           rdf:resource="http://purl.org/dc/dcmitype/StillImage" />
      </cc:Work>
    </rdf:RDF>
  </metadata>
  <sodipodi:namedview
     pagecolor="#ffffff"
     bordercolor="#666666"
     borderopacity="1"
     objecttolerance="10"
     gridtolerance="10"
     guidetolerance="10"
     inkscape:pageopacity="0"
     inkscape:pageshadow="2"
     inkscape:window-width="1440"
     inkscape:window-height="808"
     id="namedview3030"
     showgrid="false"
     inkscape:zoom="9.1046025"
     inkscape:cx="13.294118"
     inkscape:cy="33.609375"
     inkscape:window-x="0"
     inkscape:window-y="0"
     inkscape:window-maximized="1"
     inkscape:current-layer="svg2" />
  <defs
     id="defs4" />
  <path
     style="fill:#000407;fill-opacity:1;fill-rule:evenodd;stroke:none"
     d="M 59.9375,0 L 32.78125,27.78125 L 5.21875,0.78125 L 0,6.125 L 27.5625,33.125 L 1.84375,59.4375 L 7.15625,64.65625 L 22.8125,48.625 C 22.24184,49.63794 21.80198,50.74265 21.53125,51.90625 L 21.53125,57.5625 C 22.81857,63.09545 27.76452,67.21874 33.6875,67.21875 C 39.61245,67.21875 44.55845,63.09823 45.84375,57.5625 L 45.84375,51.90625 C 45.74773,51.49268 45.63594,51.08391 45.5,50.6875 L 59.375,64.28125 L 64.59375,58.9375 L 38.09375,33 L 65.25,5.1875 L 59.9375,0 z M 32.875,38.34375 L 37.5,42.875 C 36.79603,42.64948 36.06468,42.47351 35.3125,42.375 C 34.01042,42.4062 32.70833,42.43755 31.40625,42.46875 C 29.94527,42.74039 28.57909,43.26789 27.34375,44 L 32.875,38.34375 z M 33.6875,47.21875 C 37.8275,47.21875 41.1875,50.57875 41.1875,54.71875 C 41.1875,58.85875 37.8275,62.21875 33.6875,62.21875 C 29.5475,62.21875 26.1875,58.85875 26.1875,54.71875 C 26.1875,50.57875 29.5475,47.21875 33.6875,47.21875 z "
     id="path90440" />
</svg>
