<?xml version="1.0" encoding="UTF-8" standalone="no"?>
<svg
   xmlns:dc="http://purl.org/dc/elements/1.1/"
   xmlns:cc="http://creativecommons.org/ns#"
   xmlns:rdf="http://www.w3.org/1999/02/22-rdf-syntax-ns#"
   xmlns:svg="http://www.w3.org/2000/svg"
   xmlns="http://www.w3.org/2000/svg"
   xmlns:sodipodi="http://sodipodi.sourceforge.net/DTD/sodipodi-0.dtd"
   xmlns:inkscape="http://www.inkscape.org/namespaces/inkscape"
   version="1.0"
   width="116.75"
   height="151.0625"
   id="svg2"
   inkscape:version="0.48.2 r9819"
   sodipodi:docname="E27.svg"
   sodipodi:version="0.32"
   inkscape:output_extension="org.inkscape.output.svg.inkscape"
   sodipodi:modified="true">
  <title
     id="title2982">E27: Flag pole</title>
  <metadata
     id="metadata3032">
    <rdf:RDF>
      <cc:Work
         rdf:about="">
        <dc:format>image/svg+xml</dc:format>
        <dc:type
           rdf:resource="http://purl.org/dc/dcmitype/StillImage" />
        <cc:license
           rdf:resource="http://creativecommons.org/licenses/publicdomain/" />
        <dc:title>E27: Flag pole</dc:title>
      </cc:Work>
      <cc:License
         rdf:about="http://creativecommons.org/licenses/publicdomain/">
        <cc:permits
           rdf:resource="http://creativecommons.org/ns#Reproduction" />
        <cc:permits
           rdf:resource="http://creativecommons.org/ns#Distribution" />
        <cc:permits
           rdf:resource="http://creativecommons.org/ns#DerivativeWorks" />
      </cc:License>
      <cc:Work
         rdf:about="">
        <dc:format>image/svg+xml</dc:format>
        <dc:type
           rdf:resource="http://purl.org/dc/dcmitype/StillImage" />
      </cc:Work>
    </rdf:RDF>
  </metadata>
  <sodipodi:namedview
     pagecolor="#ffffff"
     bordercolor="#666666"
     borderopacity="1"
     objecttolerance="10"
     gridtolerance="10"
     guidetolerance="10"
     inkscape:pageopacity="0"
     inkscape:pageshadow="2"
     inkscape:window-width="719"
     inkscape:window-height="713"
     id="namedview3030"
     showgrid="false"
     inkscape:zoom="1.534375"
     inkscape:cx="160"
     inkscape:cy="160"
     inkscape:window-x="663"
     inkscape:window-y="7"
     inkscape:window-maximized="0"
     inkscape:current-layer="svg2" />
  <defs
     id="defs4" />
  <path
     style="fill:#000407;fill-opacity:1;fill-rule:evenodd;stroke:none"
     d="M 38.9375,0 L 38.9375,126.4375 C 34.35467,127.5319 30.75708,131.15289 29.6875,135.75 L 0,135.75 L 0,141.40625 L 29.6875,141.40625 C 30.97482,146.9392 35.92077,151.06249 41.84375,151.0625 C 47.7687,151.0625 52.7147,146.94198 54,141.40625 L 83.84375,141.40625 L 83.84375,141.34375 L 83.84375,135.75 L 54,135.75 C 52.92256,131.10952 49.26753,127.46416 44.625,126.40625 L 44.625,57.625 L 116.75,57.625 L 116.75,6.75 L 44.625,6.75 L 44.625,0 L 38.9375,0 z M 44.8125,10.65625 L 111.34375,10.65625 L 111.34375,54.21875 L 44.8125,54.21875 L 44.8125,10.65625 z M 41.84375,131.0625 C 45.98375,131.0625 49.34375,134.4225 49.34375,138.5625 C 49.34375,142.7025 45.98375,146.0625 41.84375,146.0625 C 37.70375,146.0625 34.34375,142.7025 34.34375,138.5625 C 34.34375,134.4225 37.70375,131.0625 41.84375,131.0625 z "
     id="path90440" />
</svg>
