<?xml version="1.0" encoding="UTF-8" standalone="no"?>
<svg
   xmlns:dc="http://purl.org/dc/elements/1.1/"
   xmlns:cc="http://creativecommons.org/ns#"
   xmlns:rdf="http://www.w3.org/1999/02/22-rdf-syntax-ns#"
   xmlns:svg="http://www.w3.org/2000/svg"
   xmlns="http://www.w3.org/2000/svg"
   xmlns:sodipodi="http://sodipodi.sourceforge.net/DTD/sodipodi-0.dtd"
   xmlns:inkscape="http://www.inkscape.org/namespaces/inkscape"
   version="1.0"
   width="83.84375"
   height="157.5"
   id="svg2"
   inkscape:version="0.48.2 r9819"
   sodipodi:docname="E28.svg"
   sodipodi:version="0.32"
   inkscape:output_extension="org.inkscape.output.svg.inkscape"
   sodipodi:modified="true">
  <title
     id="title2982">E28: Radio or Television Mast</title>
  <metadata
     id="metadata3032">
    <rdf:RDF>
      <cc:Work
         rdf:about="">
        <dc:format>image/svg+xml</dc:format>
        <dc:type
           rdf:resource="http://purl.org/dc/dcmitype/StillImage" />
        <cc:license
           rdf:resource="http://creativecommons.org/licenses/publicdomain/" />
        <dc:title>E28: Radio or Television Mast</dc:title>
      </cc:Work>
      <cc:License
         rdf:about="http://creativecommons.org/licenses/publicdomain/">
        <cc:permits
           rdf:resource="http://creativecommons.org/ns#Reproduction" />
        <cc:permits
           rdf:resource="http://creativecommons.org/ns#Distribution" />
        <cc:permits
           rdf:resource="http://creativecommons.org/ns#DerivativeWorks" />
      </cc:License>
      <cc:Work
         rdf:about="">
        <dc:format>image/svg+xml</dc:format>
        <dc:type
           rdf:resource="http://purl.org/dc/dcmitype/StillImage" />
      </cc:Work>
    </rdf:RDF>
  </metadata>
  <sodipodi:namedview
     pagecolor="#ffffff"
     bordercolor="#666666"
     borderopacity="1"
     objecttolerance="10"
     gridtolerance="10"
     guidetolerance="10"
     inkscape:pageopacity="0"
     inkscape:pageshadow="2"
     inkscape:window-width="719"
     inkscape:window-height="480"
     id="namedview3030"
     showgrid="false"
     inkscape:zoom="0.83474804"
     inkscape:cx="160"
     inkscape:cy="160"
     inkscape:window-x="0"
     inkscape:window-y="0"
     inkscape:window-maximized="0"
     inkscape:current-layer="svg2" />
  <defs
     id="defs4" />
  <path
     style="fill:#000407;fill-opacity:1;fill-rule:evenodd;stroke:none"
     d="M 36.9375,0 C 28.9375,47.395833 17.02711,51.125679 12.9375,142.1875 L 0,142.1875 L 0,147.84375 L 29.6875,147.84375 C 30.97482,153.3767 35.92077,157.49999 41.84375,157.5 C 47.7687,157.5 52.7147,153.37948 54,147.84375 L 83.84375,147.84375 L 83.84375,147.78125 L 83.84375,142.1875 L 69.46875,142.1875 C 62.77221,53.732604 53.46875,47.395833 45.46875,0 C 42.625,0 39.78125,0 36.9375,0 z M 41.96875,9.09375 L 42.09375,9.09375 C 49.58333,53.458333 59.02811,76.96752 64.5625,142.1875 L 54,142.1875 C 52.7147,136.65177 47.7687,132.53125 41.84375,132.53125 C 35.92077,132.53126 30.97482,136.65455 29.6875,142.1875 L 19.53125,142.1875 C 23.55066,69.747532 31.5471,51.582825 41.96875,9.09375 z M 41.84375,137.5 C 45.98375,137.5 49.34375,140.86 49.34375,145 C 49.34375,149.14 45.98375,152.5 41.84375,152.5 C 37.70375,152.5 34.34375,149.14 34.34375,145 C 34.34375,140.86 37.70375,137.5 41.84375,137.5 z "
     id="path90440"
     inkscape:connector-curvature="0"
     sodipodi:nodetypes="cccccscccccccccccscccsssss" />
</svg>
