<?xml version="1.0" encoding="UTF-8" standalone="no"?>
<svg
   xmlns:dc="http://purl.org/dc/elements/1.1/"
   xmlns:cc="http://creativecommons.org/ns#"
   xmlns:rdf="http://www.w3.org/1999/02/22-rdf-syntax-ns#"
   xmlns:svg="http://www.w3.org/2000/svg"
   xmlns="http://www.w3.org/2000/svg"
   xmlns:sodipodi="http://sodipodi.sourceforge.net/DTD/sodipodi-0.dtd"
   xmlns:inkscape="http://www.inkscape.org/namespaces/inkscape"
   version="1.0"
   width="102.47063"
   height="172.86443"
   id="svg2"
   inkscape:version="0.48.2 r9819"
   sodipodi:docname="E28_.svg"
   sodipodi:version="0.32"
   inkscape:output_extension="org.inkscape.output.svg.inkscape"
   sodipodi:modified="true">
  <title
     id="title2986">E28: Radio or Television Mast</title>
  <metadata
     id="metadata3032">
    <rdf:RDF>
      <cc:Work
         rdf:about="">
        <dc:format>image/svg+xml</dc:format>
        <dc:type
           rdf:resource="http://purl.org/dc/dcmitype/StillImage" />
        <cc:license
           rdf:resource="http://creativecommons.org/licenses/publicdomain/" />
        <dc:title>E28: Radio or Television Mast</dc:title>
      </cc:Work>
      <cc:License
         rdf:about="http://creativecommons.org/licenses/publicdomain/">
        <cc:permits
           rdf:resource="http://creativecommons.org/ns#Reproduction" />
        <cc:permits
           rdf:resource="http://creativecommons.org/ns#Distribution" />
        <cc:permits
           rdf:resource="http://creativecommons.org/ns#DerivativeWorks" />
      </cc:License>
      <cc:Work
         rdf:about="">
        <dc:format>image/svg+xml</dc:format>
        <dc:type
           rdf:resource="http://purl.org/dc/dcmitype/StillImage" />
      </cc:Work>
    </rdf:RDF>
  </metadata>
  <sodipodi:namedview
     pagecolor="#ffffff"
     bordercolor="#666666"
     borderopacity="1"
     objecttolerance="10"
     gridtolerance="10"
     guidetolerance="10"
     inkscape:pageopacity="0"
     inkscape:pageshadow="2"
     inkscape:window-width="802"
     inkscape:window-height="575"
     id="namedview3030"
     showgrid="false"
     inkscape:zoom="0.83474804"
     inkscape:cx="-50.842064"
     inkscape:cy="160"
     inkscape:window-x="104"
     inkscape:window-y="104"
     inkscape:window-maximized="0"
     inkscape:current-layer="svg2" />
  <defs
     id="defs4" />
  <path
     style="fill:#000407;fill-opacity:1;fill-rule:evenodd;stroke:none"
     d="M 46.329066,15.36442 C 38.329066,62.760253 26.418676,66.490099 22.329066,157.55192 L 9.3915657,157.55192 L 9.3915657,163.20817 L 39.079066,163.20817 C 40.366386,168.74112 45.312336,172.86441 51.235316,172.86442 C 57.160266,172.86442 62.106266,168.7439 63.391566,163.20817 L 93.235316,163.20817 L 93.235316,163.14567 L 93.235316,157.55192 L 78.860316,157.55192 C 72.163776,69.097024 62.860316,62.760253 54.860316,15.36442 C 52.016566,15.36442 49.172816,15.36442 46.329066,15.36442 z M 51.360316,24.45817 L 51.485316,24.45817 C 58.974896,68.822753 68.419676,92.33194 73.954066,157.55192 L 63.391566,157.55192 C 62.106266,152.01619 57.160266,147.89567 51.235316,147.89567 C 45.312336,147.89568 40.366386,152.01897 39.079066,157.55192 L 28.922816,157.55192 C 32.942226,85.111952 40.938666,66.947245 51.360316,24.45817 z M 51.235316,152.86442 C 55.375316,152.86442 58.735316,156.22442 58.735316,160.36442 C 58.735316,164.50442 55.375316,167.86442 51.235316,167.86442 C 47.095316,167.86442 43.735316,164.50442 43.735316,160.36442 C 43.735316,156.22442 47.095316,152.86442 51.235316,152.86442 z "
     id="path90440"
     inkscape:connector-curvature="0"
     sodipodi:nodetypes="cccccscccccccccccscccsssss" />
  <path
     style="fill:#000000;fill-opacity:1;stroke:none"
     d="M 2.6762657,0.60384 C -0.63299434,17.15463 -1.1421143,32.68718 2.6762657,48.72884 L 7.7700157,48.72884 C 4.7153157,32.68718 3.6970757,17.66374 7.7700157,0.60384 L 2.6762657,0.60384 z M 15.895016,9.51009 C 12.331196,19.94759 11.567516,30.63965 15.895016,40.82259 L 21.488766,40.82259 C 17.161266,30.38509 17.924946,20.71127 21.488766,9.51009 L 15.895016,9.51009 z "
     id="rect2982"
     inkscape:connector-curvature="0"
     sodipodi:nodetypes="cccccccccc" />
  <path
     style="fill:#000000;fill-opacity:1;stroke:none"
     d="M 99.794366,-4.4964032e-015 C 103.10363,16.55078 103.61275,32.08333 99.794366,48.125 L 94.700616,48.125 C 97.755316,32.08333 98.773556,17.0599 94.700616,-4.4964032e-015 L 99.794366,-4.4964032e-015 z M 86.575616,8.90625 C 90.139436,19.34375 90.903116,30.03581 86.575616,40.21875 L 80.981866,40.21875 C 85.309366,29.78125 84.545686,20.10742 80.981866,8.90625 L 86.575616,8.90625 z "
     id="rect2982-1"
     inkscape:connector-curvature="0"
     sodipodi:nodetypes="cccccccccc" />
</svg>
