<?xml version="1.0" encoding="UTF-8" standalone="no"?>
<svg
   xmlns:dc="http://purl.org/dc/elements/1.1/"
   xmlns:cc="http://creativecommons.org/ns#"
   xmlns:rdf="http://www.w3.org/1999/02/22-rdf-syntax-ns#"
   xmlns:svg="http://www.w3.org/2000/svg"
   xmlns="http://www.w3.org/2000/svg"
   xmlns:sodipodi="http://sodipodi.sourceforge.net/DTD/sodipodi-0.dtd"
   xmlns:inkscape="http://www.inkscape.org/namespaces/inkscape"
   version="1.0"
   width="102.47063"
   height="170.54135"
   id="svg2"
   inkscape:version="0.48.2 r9819"
   sodipodi:docname="E29.svg"
   sodipodi:version="0.32"
   inkscape:output_extension="org.inkscape.output.svg.inkscape"
   sodipodi:modified="true">
  <title
     id="title2984">Radio or Television Tower</title>
  <metadata
     id="metadata3032">
    <rdf:RDF>
      <cc:Work
         rdf:about="">
        <dc:format>image/svg+xml</dc:format>
        <dc:type
           rdf:resource="http://purl.org/dc/dcmitype/StillImage" />
        <cc:license
           rdf:resource="http://creativecommons.org/licenses/publicdomain/" />
        <dc:title>Radio or Television Tower</dc:title>
      </cc:Work>
      <cc:License
         rdf:about="http://creativecommons.org/licenses/publicdomain/">
        <cc:permits
           rdf:resource="http://creativecommons.org/ns#Reproduction" />
        <cc:permits
           rdf:resource="http://creativecommons.org/ns#Distribution" />
        <cc:permits
           rdf:resource="http://creativecommons.org/ns#DerivativeWorks" />
      </cc:License>
      <cc:Work
         rdf:about="">
        <dc:format>image/svg+xml</dc:format>
        <dc:type
           rdf:resource="http://purl.org/dc/dcmitype/StillImage" />
      </cc:Work>
    </rdf:RDF>
  </metadata>
  <sodipodi:namedview
     pagecolor="#ffffff"
     bordercolor="#666666"
     borderopacity="1"
     objecttolerance="10"
     gridtolerance="10"
     guidetolerance="10"
     inkscape:pageopacity="0"
     inkscape:pageshadow="2"
     inkscape:window-width="843"
     inkscape:window-height="575"
     id="namedview3030"
     showgrid="false"
     inkscape:zoom="0.7375"
     inkscape:cx="-78.644068"
     inkscape:cy="160"
     inkscape:window-x="437"
     inkscape:window-y="90"
     inkscape:window-maximized="0"
     inkscape:current-layer="svg2" />
  <defs
     id="defs4" />
  <path
     style="fill:#000407;fill-opacity:1;fill-rule:evenodd;stroke:none"
     d="M 34.863766,10.010095 L 34.863766,10.041345 L 31.082516,10.041345 L 21.082516,155.22884 L 8.9262657,155.22884 L 8.9262657,160.88509 L 38.613766,160.88509 C 39.901086,166.41804 44.847036,170.54133 50.770016,170.54134 C 56.694966,170.54134 61.640966,166.42082 62.926266,160.88509 L 92.770016,160.88509 L 92.770016,160.82259 L 92.770016,155.22884 L 79.707516,155.22884 L 69.770016,10.041345 L 64.363766,10.041345 L 64.363766,10.010095 L 34.863766,10.010095 z M 38.613766,15.885095 L 62.270016,15.885095 L 63.582516,34.978845 L 37.301266,34.978845 L 38.613766,15.885095 z M 36.832516,41.603845 L 64.020016,41.603845 L 71.801266,155.22884 L 62.926266,155.22884 C 61.640966,149.69311 56.694966,145.57259 50.770016,145.57259 C 44.847036,145.5726 39.901086,149.69589 38.613766,155.22884 L 29.020016,155.22884 L 36.832516,41.603845 z M 50.770016,150.54134 C 54.910016,150.54134 58.270016,153.90134 58.270016,158.04134 C 58.270016,162.18134 54.910016,165.54134 50.770016,165.54134 C 46.630016,165.54134 43.270016,162.18134 43.270016,158.04134 C 43.270016,153.90134 46.630016,150.54134 50.770016,150.54134 z "
     id="path90440" />
  <path
     style="fill:#000000;fill-opacity:1;stroke:none"
     d="M 2.6762657,0.6038447 C -0.63299434,17.154629 -1.1421143,32.687178 2.6762657,48.728845 L 7.7700157,48.728845 C 4.7153157,32.687178 3.6970757,17.663747 7.7700157,0.6038447 L 2.6762657,0.6038447 z M 15.895016,9.5100947 C 12.331196,19.947595 11.567516,30.639654 15.895016,40.822595 L 21.488766,40.822595 C 17.161266,30.385095 17.924946,20.711271 21.488766,9.5100947 L 15.895016,9.5100947 z "
     id="rect2982"
     inkscape:connector-curvature="0"
     sodipodi:nodetypes="cccccccccc" />
  <path
     style="fill:#000000;fill-opacity:1;stroke:none"
     d="M 99.794366,2.4646951e-014 C 103.10363,16.550784 103.61275,32.083333 99.794366,48.125 L 94.700616,48.125 C 97.755316,32.083333 98.773556,17.059902 94.700616,2.4646951e-014 L 99.794366,2.4646951e-014 z M 86.575616,8.9062497 C 90.139436,19.34375 90.903116,30.035809 86.575616,40.21875 L 80.981866,40.21875 C 85.309366,29.78125 84.545686,20.107426 80.981866,8.9062497 L 86.575616,8.9062497 z "
     id="rect2982-1"
     inkscape:connector-curvature="0"
     sodipodi:nodetypes="cccccccccc" />
</svg>
