<?xml version="1.0" encoding="UTF-8" standalone="no"?>
<svg
   xmlns:dc="http://purl.org/dc/elements/1.1/"
   xmlns:cc="http://creativecommons.org/ns#"
   xmlns:rdf="http://www.w3.org/1999/02/22-rdf-syntax-ns#"
   xmlns:svg="http://www.w3.org/2000/svg"
   xmlns="http://www.w3.org/2000/svg"
   xmlns:xlink="http://www.w3.org/1999/xlink"
   xmlns:sodipodi="http://sodipodi.sourceforge.net/DTD/sodipodi-0.dtd"
   xmlns:inkscape="http://www.inkscape.org/namespaces/inkscape"
   version="1.0"
   width="94.596931"
   height="175.78125"
   id="svg6371"
   inkscape:version="0.48.2 r9819"
   sodipodi:docname="E31.svg"
   sodipodi:version="0.32"
   inkscape:output_extension="org.inkscape.output.svg.inkscape"
   sodipodi:modified="true">
  <title
     id="title2984">E31: Dish Aerial</title>
  <metadata
     id="metadata6382">
    <rdf:RDF>
      <cc:Work
         rdf:about="">
        <dc:format>image/svg+xml</dc:format>
        <dc:type
           rdf:resource="http://purl.org/dc/dcmitype/StillImage" />
        <cc:license
           rdf:resource="http://creativecommons.org/licenses/publicdomain/" />
        <dc:title>E31: Dish Aerial</dc:title>
      </cc:Work>
      <cc:Work
         rdf:about="">
        <dc:format>image/svg+xml</dc:format>
        <dc:type
           rdf:resource="http://purl.org/dc/dcmitype/StillImage" />
      </cc:Work>
      <cc:License
         rdf:about="http://creativecommons.org/licenses/publicdomain/">
        <cc:permits
           rdf:resource="http://creativecommons.org/ns#Reproduction" />
        <cc:permits
           rdf:resource="http://creativecommons.org/ns#Distribution" />
        <cc:permits
           rdf:resource="http://creativecommons.org/ns#DerivativeWorks" />
      </cc:License>
    </rdf:RDF>
  </metadata>
  <defs
     id="defs6380" />
  <sodipodi:namedview
     pagecolor="#ffffff"
     bordercolor="#666666"
     borderopacity="1"
     objecttolerance="10"
     gridtolerance="10"
     guidetolerance="10"
     inkscape:pageopacity="0"
     inkscape:pageshadow="2"
     inkscape:window-width="1440"
     inkscape:window-height="808"
     id="namedview6378"
     showgrid="false"
     inkscape:zoom="1.2041547"
     inkscape:cx="-258.17015"
     inkscape:cy="200"
     inkscape:window-x="0"
     inkscape:window-y="0"
     inkscape:window-maximized="1"
     inkscape:current-layer="svg6371" />
  <symbol
     id="dish_aerial"
     width="300"
     height="400"
     transform="translate(-103.87182,-39.21875)">
    <path
       d="M 140.9375,39.21875 L 138.75,40.46875 C 114.42566,54.512607 107.96032,88.244362 123.75,115.59375 C 128.1468,123.20947 133.83613,129.57873 140.28125,134.5 L 139.75,134.5 L 139.5,136.75 L 134.5,186.75 L 134.34375,188.5625 C 131.69401,190.80389 129.8243,193.94238 129.21875,197.5 L 106.5,197.5 C 106.41672,197.49583 106.33328,197.49583 106.25,197.5 C 104.86929,197.56904 103.80596,198.74429 103.875,200.125 C 103.94404,201.50571 105.11929,202.56904 106.5,202.5 L 129.21875,202.5 C 130.42183,209.56805 136.60104,215 144,215 C 151.39896,215 157.57817,209.56805 158.78125,202.5 L 181.5,202.5 C 182.40159,202.51275 183.2402,202.03906 183.69472,201.26032 C 184.14924,200.48157 184.14924,199.51843 183.69472,198.73968 C 183.2402,197.96094 182.40159,197.48725 181.5,197.5 L 158.78125,197.5 C 158.1757,193.94238 156.30599,190.80389 153.65625,188.5625 L 153.5,186.75 L 148.8125,139.9375 C 163.97298,147.89027 181.61796,148.64026 196.3125,140.15625 L 198.46875,138.90625 L 197.21875,136.71875 L 170.25,89.96875 L 170.40625,89.8125 L 176.59375,83.5625 L 175.5,81.9375 L 167.625,85.28125 L 167.5625,85.3125 L 142.1875,41.375 L 140.9375,39.21875 z M 139.15625,46.15625 L 191.59375,136.9375 C 170.19223,147.5761 142.21591,137.55482 128.09375,113.09375 C 113.97424,88.637272 119.25182,59.37505 139.15625,46.15625 z M 171.5625,85.78125 L 169.90625,87.46875 L 169.46875,86.6875 L 171.5625,85.78125 z M 144,142.25 L 148.21875,184.5 L 139.78125,184.5 L 144,142.25 z M 144,190 C 149.3318,190 153.63436,194.10136 153.96875,199.34375 C 153.85201,199.77346 153.85201,200.22654 153.96875,200.65625 C 153.96869,200.66665 153.96869,200.67705 153.96875,200.68745 C 153.61943,205.9151 149.32132,210 144,210 C 138.55295,210 134.19573,205.71721 134.03125,200.3125 C 134.05739,200.10499 134.05739,199.89501 134.03125,199.6875 C 134.19573,194.28279 138.55295,190 144,190 z "
       style="fill:#000000;fill-opacity:1"
       id="path6374" />
  </symbol>
  <use
     xlink:href="#dish_aerial"
     x="0"
     y="0"
     id="use6376"
     width="300"
     height="400"
     transform="translate(1.4575195e-6,0)" />
</svg>
