<?xml version="1.0" encoding="UTF-8"?>
<svg width="5.2mm" height="5mm" version="1.0" xmlns="http://www.w3.org/2000/svg">
  <title>SEAGRA18</title>
  <desc>seagrass</desc>
  <metadata>
    <!-- Created for Openseamap, CC BY-SA 2.0, 2021-10-13, josail, seagrass simplified SVG based on IHO NCWG2-08.9A J13.4, https://legacy.iho.int/mtg_docs/com_wg/NCWG/NCWG2/NCWG2-08.9A%20seagrass.pdf -->
  </metadata>
<g fill="none" stroke="#000" stroke-linejoin="round" stroke-width="1px">
<path d="m4.6003 16.961c1.0201-0.46003 2.0301-0.92006 3.0102-1.1801 0.97007-0.27002 1.8401-0.41003 2.8402-0.41003 1.0001-0.01 2.0901 0.19001 3.1802 0.38003"/>
<path d="m13.289 15.981c-0.13001-0.24002-0.25002-0.49003-0.54004-0.47003-0.29002 0.02-0.81006 0.56004-1.2101 0.58004-0.41003 0.01-0.87006-0.48003-1.2101-0.47003-0.35003 0-0.42003 0.43003-0.87006 0.49003-0.45003 0.07-1.3201-0.19001-1.8401-0.10001-0.51004 0.09001-0.74005 0.43003-1.2601 0.63004s-1.1901 0.38003-1.8601 0.57004"/>
<path d="m11.511 15.411c0.35002-0.50003 0.70005-0.99007 1.4501-1.6801 0.76005-0.69005 2.2302-1.2701 3.0702-2.4502 0.85006-1.1801 1.4301-2.8902 2.0101-4.6103"/>
<path d="m11.531 15.411c0.35002-0.49003 0.70005-0.98007 1.1601-2.0301 0.45003-1.0501 1.2801-2.9102 1.5901-4.2703 0.31002-1.3601 0.29002-2.6302 0.28002-3.9003"/>
<path d="m8.8106 15.501c-0.41003-0.14001-0.82006-0.28002-0.76005-1.2901 0.060004-1.0201 1.0301-3.2802 1.1101-4.8103 0.070005-1.5301-0.68005-2.9602-0.65005-4.3803 0.030002-1.4201 0.43003-2.7902 0.83006-4.1503"/>
<path d="m7.4005 15.831c-0.23002-0.19001-0.47003-0.37002-0.48003-0.88006-0.010001-0.52004 0.58004-1.0301 0.41003-2.2102-0.16001-1.1701-1.2301-3.0802-1.4101-4.8503-0.17001-1.7601 0.10001-3.7603 0.37003-5.7504"/>
<path d="m4.8403 16.881c-0.47003-0.59004-0.94007-1.1801-1.5501-2.0401-0.60004-0.86006-1.7301-2.0101-2.0701-3.1102-0.34002-1.1101-0.12001-2.7002 0.040003-3.5302 0.17001-0.83006 0.56004-1.1501 0.95007-1.4601"/>
<path d="m6.4104 16.131c-0.68005-1.1501-1.3601-2.2902-1.8701-3.4402-0.51004-1.1501-1.2401-2.0401-1.2001-3.4402 0.040003-1.4001 0.75005-3.1802 1.4501-4.9603"/>
<path d="m3.2602 14.791c0.59004-0.54004 1.1801-1.0701 1.5001-1.9301 0.31002-0.85006 0.35002-2.0201 0.39003-3.1902"/>
<path d="m9.2006 15.461c0.66005-0.77005 1.3101-1.5401 1.6401-2.5702 0.33002-1.0301 0.33002-2.2302 0.35002-3.6203 0.01-1.3901-0.24002-3.6703-0.26002-4.7403-0.01-1.0701 0.08001-1.3701 0.16001-1.6801"/>
<path d="m10.401 15.321c0.51004-0.73005 1.0201-1.4501 1.3201-2.5402 0.30002-1.0901 0.26002-2.4602 0.48003-3.9903 0.22002-1.5301 0.53004-3.3602 0.83006-5.1904"/>
<path d="m8.2306 15.161c1.5301-1.2601 3.0602-2.5102 4.1303-3.6203 1.0801-1.1201 1.6801-2.1802 2.3302-3.0502 0.66005-0.87006 1.2401-1.4701 1.6001-2.1902 0.35002-0.72005 0.45003-1.4201 0.55004-2.1301"/>
</g>
</svg>