<?xml version="1.0" encoding="UTF-8"?>
<svg width="10mm" height="9.5mm" version="1.0" xmlns="http://www.w3.org/2000/svg">
  <title>SEAGRA15</title>
  <desc>seagrass</desc>
  <metadata>
    <!-- Created for Openseamap, CC BY-SA 2.0, 2021-10-13, josail, seagrass detailed SVG based on IHO NCWG2-08.9A J13.4, https://legacy.iho.int/mtg_docs/com_wg/NCWG/NCWG2/NCWG2-08.9A%20seagrass.pdf -->	
  </metadata>
<g fill="none" stroke="#000" stroke-linejoin="round" stroke-width="1px">
<path d="m8.3206 33.062c2.0301-0.92006 4.0603-1.8401 6.0104-2.3702 1.9601-0.53004 3.6803-0.82006 5.6904-0.82006 2.0001-0.01 4.1803 0.38003 6.3504 0.77005"/>
<path d="m25.892 30.602c-0.24002-0.49003-0.49003-0.98007-1.0701-0.94006-0.58004 0.03-1.6101 1.1101-2.4202 1.1501-0.81006 0.03-1.7401-0.95007-2.4302-0.94006-0.69005 0.01-0.82006 0.86006-1.7201 0.99007-0.90006 0.13001-2.6502-0.38003-3.6903-0.21001-1.0301 0.18001-1.4701 0.86006-2.5102 1.2601-1.0401 0.40003-2.3902 0.77005-3.7303 1.1501"/>
<path d="m22.142 29.962c0.70005-1.0001 1.4001-1.9901 2.9102-3.3702 1.5001-1.3801 4.4403-2.5402 6.1404-4.8903 1.6901-2.3602 2.8502-5.8004 4.0103-9.2306"/>
<path d="m20.021 29.772c0.32002-0.65004 0.63004-1.3001 1.5301-2.2102 0.89006-0.92006 2.4902-2.1601 3.8203-3.2802 1.3401-1.1201 2.9402-1.4901 4.1903-3.4602s2.2902-5.1604 3.3302-8.3506"/>
<path d="m22.192 29.962c0.69005-0.98007 1.3901-1.9601 2.3002-4.0603 0.92006-2.1001 2.5602-5.8204 3.1902-8.5406 0.62004-2.7202 0.59004-5.2604 0.55004-7.8005"/>
<path d="m16.741 30.142c-0.82006-0.28002-1.6401-0.56004-1.5201-2.6002 0.11001-2.0301 2.0601-6.5405 2.2102-9.6007 0.16001-3.0602-1.3501-5.9204-1.2901-8.7706 0.06-2.8402 0.86006-5.5704 1.6601-8.3006"/>
<path d="m15.571 25.622c0.22002-1.8901 0.43003-3.7803 0.37003-5.4904-0.06-1.7201-0.62004-3.3602-0.74005-4.8003s0.32002-2.1101 0-3.8303c-0.31002-1.7301-1.1001-4.1203-1.8901-6.5105"/>
<path d="m13.921 30.792c-0.47003-0.37003-0.94006-0.74005-0.97007-1.7601-0.02-1.0301 1.1701-2.0601 0.84006-4.4103-0.34002-2.3502-2.4702-6.1604-2.8202-9.7007-0.35002-3.5302 0.20001-7.5205 0.74005-11.501"/>
<path d="m14.621 30.512c1.3001-1.4001 2.6002-2.8102 3.4602-4.7203 0.85006-1.9001 1.5201-3.8603 1.6601-6.7105 0.14001-2.8402-0.74005-7.9806-0.83006-10.361-0.09001-2.3702 0.09001-3.1302 0.28002-3.8903"/>
<path d="m8.8006 32.902c-0.94007-1.1801-1.8801-2.3702-3.0902-4.0903-1.2101-1.7101-3.4802-4.0103-4.1603-6.2204-0.67005-2.2102-0.23002-5.4004 0.10001-7.0605 0.33002-1.6601 1.1101-2.2902 1.8901-2.9302"/>
<path d="m8.6206 32.622c-0.40003-0.61004-0.80006-1.2201-1.1101-2.4302-0.32002-1.2101 0.010001-2.8302-0.79005-4.8503-0.79005-2.0201-3.9003-4.6903-3.9703-7.2705-0.060004-2.5802 1.7501-5.3804 3.5602-8.1906"/>
<path d="m12.081 31.392c-2.5402-1.4001-5.0904-2.8102-6.3704-4.7603-1.2901-1.9501-1.0101-5.1304-1.3401-6.9605-0.33002-1.8401-0.49003-2.9502-0.65005-4.0603"/>
<path d="m11.941 31.392c-1.3601-2.2902-2.7202-4.5903-3.7403-6.8805s-2.4802-4.0703-2.4002-6.8705c0.090006-2.8002 1.5001-6.3704 2.9102-9.9307"/>
<path d="m12.031 31.392c-0.33002-1.0601-0.67005-2.1201-1.0101-4.6203-0.35002-2.4902-0.48003-7.0705-1.0701-10.331-0.58004-3.2702-1.5101-6.2804-2.4402-9.2806"/>
<path d="m7.3205 28.712c0.50003-0.95007 0.99007-1.9001 1.2501-3.4102 0.26002-1.5201 0.29002-3.6002 0.32002-5.6804"/>
<path d="m6.2204 24.372c-0.23002-0.53004-0.45003-1.0701 0.090006-3.1802 0.54004-2.1101 1.8401-5.7904 3.1402-9.4607"/>
<path d="m17.521 30.052c1.3101-1.5401 2.6202-3.0702 3.2802-5.1404 0.66005-2.0601 0.66005-4.4503 0.69005-7.2305 0.03-2.7902-0.47003-7.3405-0.50003-9.4807-0.04-2.1401 0.14001-2.7502 0.32002-3.3702"/>
<path d="m19.921 29.772c1.0201-1.4501 2.0301-2.9002 2.6302-5.0704 0.60004-2.1802 0.54004-4.9303 0.97007-7.9906 0.44003-3.0602 1.0501-6.7205 1.6701-10.381"/>
<path d="m19.001 28.202c1.7601-1.1801 3.5202-2.3602 5.1704-3.7803 1.6501-1.4201 3.2002-3.0902 4.7503-4.7503"/>
<path d="m15.591 29.452c3.0502-2.5102 6.1004-5.0203 8.2606-7.2505 2.1501-2.2202 3.3502-4.3403 4.6603-6.0904 1.3101-1.7401 2.4702-2.9402 3.1802-4.3803 0.72005-1.4401 0.91006-2.8402 1.1101-4.2503"/>
<path d="m18.351 25.022c2.3402-1.7001 4.6703-3.4102 5.9604-6.0004 1.2801-2.5902 1.5201-6.0704 1.7501-9.5507"/>
<path d="m24.722 18.051c1.5501-1.7201 3.1002-3.4502 4.1103-5.2104 1.0101-1.7701 1.4701-3.5902 1.9401-5.4004"/>
<path d="m21.491 18.931c0.38003-2.2302 0.76005-4.4603 1.0301-6.6005 0.26002-2.1502 0.42003-4.2103 0.57004-6.2804"/>
</g>
</svg>