<?xml version="1.0" encoding="UTF-8" standalone="no"?>
<!-- Created with Inkscape (http://www.inkscape.org/) -->

<svg
   xmlns:dc="http://purl.org/dc/elements/1.1/"
   xmlns:cc="http://creativecommons.org/ns#"
   xmlns:rdf="http://www.w3.org/1999/02/22-rdf-syntax-ns#"
   xmlns:svg="http://www.w3.org/2000/svg"
   xmlns="http://www.w3.org/2000/svg"
   xmlns:sodipodi="http://sodipodi.sourceforge.net/DTD/sodipodi-0.dtd"
   xmlns:inkscape="http://www.inkscape.org/namespaces/inkscape"
   width="547.91571"
   height="115.77087"
   id="svg2"
   version="1.1"
   inkscape:version="0.48.2 r9819"
   sodipodi:docname="J13.2.svg">
  <title
     id="title2983">J13.2: Kelp</title>
  <defs
     id="defs4" />
  <sodipodi:namedview
     id="base"
     pagecolor="#ffffff"
     bordercolor="#666666"
     borderopacity="1.0"
     inkscape:pageopacity="0.0"
     inkscape:pageshadow="2"
     inkscape:zoom="2.3189393"
     inkscape:cx="48.243661"
     inkscape:cy="88.828767"
     inkscape:document-units="px"
     inkscape:current-layer="layer1"
     showgrid="false"
     inkscape:window-width="1440"
     inkscape:window-height="808"
     inkscape:window-x="0"
     inkscape:window-y="0"
     inkscape:window-maximized="1"
     fit-margin-top="0"
     fit-margin-left="0"
     fit-margin-right="0"
     fit-margin-bottom="0" />
  <metadata
     id="metadata7">
    <rdf:RDF>
      <cc:Work
         rdf:about="">
        <dc:format>image/svg+xml</dc:format>
        <dc:type
           rdf:resource="http://purl.org/dc/dcmitype/StillImage" />
        <dc:title>J13.2: Kelp</dc:title>
        <cc:license
           rdf:resource="http://creativecommons.org/licenses/publicdomain/" />
      </cc:Work>
      <cc:License
         rdf:about="http://creativecommons.org/licenses/publicdomain/">
        <cc:permits
           rdf:resource="http://creativecommons.org/ns#Reproduction" />
        <cc:permits
           rdf:resource="http://creativecommons.org/ns#Distribution" />
        <cc:permits
           rdf:resource="http://creativecommons.org/ns#DerivativeWorks" />
      </cc:License>
    </rdf:RDF>
  </metadata>
  <g
     inkscape:label="Layer 1"
     inkscape:groupmode="layer"
     id="layer1"
     transform="translate(-91.59375,-389.08898)">
    <path
       style="fill:#000000;fill-opacity:1;stroke:none"
       d="m 639.49778,415.03693 c -87.35946,-19.62103 -131.17031,-23.02561 -145.52242,10.74383 -8.77913,20.51753 -8.97791,16.52219 -40.29588,43.96715 -49.88417,-0.19604 -107.53117,-17.49302 -154.88166,-20.71359 10.98742,-18.40593 27.40747,-20.52796 51.02502,-37.22773 17.05761,12.16663 70.41504,21.50223 95.34516,21.50223 l -0.71568,-6.80454 c -24.21444,0.35784 -70.05719,-4.32582 -91.4089,-19.35518 21.23194,-19.9109 74.05606,-7.73163 101.01348,-4.51137 l 1.43493,-6.08331 c -28.54021,-3.89815 -78.25556,-18.89664 -109.96825,9.36734 -35.36077,22.83117 -45.044,26.21049 -53.5303,43.4704 C 259.2494,443.48777 227.61172,423.63144 197.328,425.73376 164.18155,418.89004 126.30576,445.81374 91.951592,449.75 l -0.357842,5.71875 c 55.46625,-5.72547 54.15778,-28.53399 102.10935,-24.23989 0,15.27083 69.29917,73.74717 116.89213,73.63081 l -5.9e-4,-4.2941 c -45.80375,-1.31501 -109.37745,-54.42372 -109.37745,-69.69455 31.84881,-1.37381 54.50834,19.74512 93.5988,24.45888 41.9532,3.64023 125.9277,22.88891 160.38943,19.64473 68.61795,7.1121 93.54809,26.50401 161.18197,19.5261 l -0.35784,-5.36091 c -57.25428,5.72547 -98.64295,-12.23507 -152.31882,-19.39191 22.33098,-18.13269 24.78907,-14.81959 40.2658,-40.01539 43.89583,0 74.18598,22.80102 121.96291,30.13196 l 0,-8.59375 c -42.17091,-3.88108 -78.42492,-27.98491 -122.32075,-27.98491 22.55349,-27.48967 45.04114,-18.15746 135.89078,-2.16558 l -0.0117,-6.08331 z"
       id="rect2985"
       inkscape:connector-curvature="0"
       sodipodi:nodetypes="ccccccccccccccccccccccccccccccc" />
  </g>
</svg>
