<?xml version="1.0" encoding="UTF-8"?>
<svg width="13.126mm" height="13.07mm" version="1.0" xmlns="http://www.w3.org/2000/svg">
<title>STOGVL01P</title>
  <desc>stones and gravel</desc>
  <metadata>
    <!-- stones and gravel SVG 2013-10-30 for openseamap, based on INT-1 J20 -->
  </metadata>
 <defs>
  <clipPath id="a">
   <path d="m0.48003 0.64004h207.85v96.007h-207.85z"/>
  </clipPath>
 </defs>
 <g fill="none" stroke="#000" stroke-linejoin="round" stroke-width="2.5px">
  <path transform="translate(-.48003 -.64004)" d="m7.5405 3.4302c-1.6201 0.38003-3.8303 2.8402-4.2503 4.5003-0.41003 1.6701 0.34002 4.9603 1.7501 5.5004 1.4201 0.54004 5.4204-0.96007 6.7505-2.2502 1.3401-1.2901 2.0501-4.3303 1.2501-5.5004-0.79006-1.1601-3.8703-2.6202-5.5004-2.2502" clip-path="url(#a)"/>
  <path d="m40.883 5.6804c-0.18001 0.40003 0.43003 4.3203 0.74005 4.7003 0.30002 0.38003 1.2401-1.6401 1.1001-2.4202-0.13001-0.79005-1.6601-2.6802-1.8401-2.2802"/>
  <path d="m5.4204 38.723c0.74005-0.93006 4.1403 0.17001 4.6003 0.80006 0.47003 0.63004-1.9001 2.0001-1.8001 3.0002 0.10001 1.0001 2.8402 2.5702 2.4002 3.0002-0.43003 0.43003-3.7303 0.33002-5.0003-0.40003-1.2601-0.73005-0.93006-5.4704-0.20001-6.4004"/>
  <path d="m12.891 17.271c-1.2001-0.67005-4.2003 2.0001-3.6003 3.2002 0.60004 1.2001 6.2704 4.3303 7.2005 4.0003 0.94006-0.34002-2.4002-6.5405-3.6002-7.2005"/>
  <path d="m33.262 16.041c-0.84006-0.03 0.83006 4.3403 1.6001 5.8004 0.76005 1.4701 2.1602 2.9702 3.0002 3.0002 0.83006 0.04 2.7302-1.4301 2.0001-2.8002-0.74005-1.3601-5.7704-5.9604-6.6005-6.0004"/>
 </g>
 <g fill="none" stroke="#000" stroke-linejoin="round" stroke-width="2.5px">
  <path d="m18.491 41.143 6.1504 1.8601"/>
  <path d="m7.7205 34.462v-5.1404"/>
  <path d="m15.331 35.882 1.3301-3.8503"/>
  <path d="m44.763 33.312-4.7403-2.5702"/>
  <path d="m21.561 7.8205v5.1504"/>
  <path d="m31.332 10.421h1.7001"/>
  <path d="m26.422 29.072h1.7001"/>
  <path d="m28.872 31.852h3.7803"/>
  <path d="m39.713 42.353-3.4602-1.9301"/>
 </g>
</svg>
