<?xml version="1.0" encoding="UTF-8"?>
<svg width="7.8mm" height="3.3mm" version="1.0" xmlns="http://www.w3.org/2000/svg">
  <title>RCKLDG06L</title>
  <desc>rockledge</desc>
  <metadata>
    <!-- Created as line-style for Openseamap, CC BY-SA 2.0, 2021-10-27, josail, rockledge simplified SVG based on INT-1 J21 -->
  </metadata>
 <g transform="matrix(1.0367 0 0 1 -.44776 -1.9541)" fill="none" stroke="#000" stroke-linejoin="round" stroke-width="1px">
  <path d="m0.90006 7.7705c0.13001 0.91006 0.26002 1.8101 0.60004 2.5602 0.34002 0.75005 0.88006 1.5201 1.4401 1.9401 0.55004 0.43003 1.4001 0.70005 1.8701 0.63004 0.47003-0.07001 0.94007-1.0301 0.94007-1.0301" />
  <path d="m3.4202 3.9003c-0.080005 1.0801-0.16001 2.1601 0 3.2802 0.17001 1.1101 0.48003 2.5602 1.0001 3.4002 0.53004 0.85006 1.5101 1.4301 2.1702 1.6601 0.67005 0.24002 1.4001-0.10001 1.8101-0.25002 0.40003-0.15001 0.52004-0.40003 0.63004-0.66005"/>
  <path d="m13.901 10.551c-0.07001 0.58004-0.14001 1.1601-0.50004 1.5701-0.35002 0.40003-1.0401 0.74005-1.6501 0.84006-0.62004 0.10001-1.5701 0.08001-2.0301-0.22002-0.46003-0.30002-0.55004-0.94006-0.72005-1.5601s-0.30002-1.2901-0.28002-2.1602c0.010001-0.87006 0.19001-1.9601 0.37003-3.0602"/>
  <path d="m17.451 10.831c-0.18001 0.29002-0.37003 0.58004-0.72005 0.72005-0.35002 0.14001-0.90006 0.29002-1.3701 0.13001-0.47003-0.16001-1.0401-0.47003-1.4601-1.1001-0.42003-0.62004-0.81006-1.8701-1.0801-2.6502-0.26002-0.78005-0.36002-1.2501-0.53004-2.0301-0.18001-0.79005-0.34002-1.7401-0.51004-2.6902"/>
  <path d="m20.921 9.9607c-0.18001 0.40003-0.35002 0.79005-0.70005 1.0301-0.34002 0.24002-0.89006 0.42003-1.3601 0.41003-0.46003-0.02-1.0601-0.11001-1.4201-0.50004s-0.62004-1.1701-0.72005-1.8501c-0.11001-0.67005-0.01-1.4001 0.09001-2.2202 0.09001-0.81006 0.29002-1.7501 0.48003-2.6802"/>
  <path d="m26.422 5.6504c0.17001 0.70005 0.34002 1.4001 0.38003 2.1802 0.04 0.79005 0.02 1.8501-0.13001 2.5402-0.15001 0.68005-0.36002 1.2401-0.76005 1.5601-0.41003 0.32002-1.0601 0.37003-1.6701 0.34002-0.61004-0.02-1.4301-0.12001-1.9801-0.50003-0.55004-0.37003-1.0301-1.0301-1.3101-1.7501-0.29002-0.72005-0.41003-1.2401-0.42003-2.5602s0.17001-3.3502 0.35002-5.3804"/>
 </g>
</svg>
