<?xml version="1.0" encoding="UTF-8"?>
<svg width="66.7mm" height="58.1mm" fill-rule="evenodd" shape-rendering="geometricPrecision" version="1.2" viewBox="-.16 -13.5 16.6 12.5" xml:space="preserve" xmlns="http://www.w3.org/2000/svg" xmlns:cc="http://creativecommons.org/ns#" xmlns:dc="http://purl.org/dc/elements/1.1/" xmlns:rdf="http://www.w3.org/1999/02/22-rdf-syntax-ns#">
  <title>RCKLDG01P</title>
  <desc>rock or coral drying ledges</desc>
  <metadata>
    
 
 
 
 <!-- Rock or coral drying ledges SVG modified 2013-10-27 for openseamap, based on IHO Portrayl Catalogoue,  https://registry.iho.int/portrayal/view.do?itemIdentifier=448&type=3&domain=&status=2&searchValue=RCKLDG01P -->
    
 
 
 
 <!-- iho:S100SVG xmlns:iho="http://www.iho.int/SVGMetadata" -->
    
 
 
 
 <!-- iho:Description iho:publisher="IHB" iho:creationDate="2015-03-04" iho:source="S52Preslib4.0" iho:format="S100SVG" iho:version="0.1"/ -->
    
 
 
 
 <!-- /iho:S100SVG -->
  <rdf:RDF><cc:Work rdf:about=""><dc:title>RCKLDG01P</dc:title></cc:Work></rdf:RDF></metadata><g id="a" transform="translate(.371 -.573)"><g fill="none">
  <rect class="symbolBox layout" x=".06" y="-13.4" width="15.4" height="13.3"/>
  <rect class="svgBox layout" y="-13.4" width="15.5" height="13.4"/>
  <g stroke="#8d642e" stroke-linejoin="round" stroke-width=".64px"> 
	  <path d="m2.4-0.06 2.16-1.68"/>
	  <path d="m1.71-11.2 1.03 3.07"/>
	  <path d="m7.83-7.4-1.6 2.3"/>
	  <path d="m6.34-10.9 0.75-2.44"/>
	  <path d="m8.75-3.55 0.5 2.89"/>
	  <path d="m14.3-3.91 1.15-2.55"/>
	  <path d="m14.5-9.92-2.5-0.81"/>
	  <path d="m2.74-8.21-2.68-1.38"/>
	  <path d="m6.32-5.12-0.27-2.66"/>
	  <path d="m2.35-0.06 0.29-2.57"/>
	  <path d="m8.78-3.55 2.12 1.7"/>
	  <path d="m15.4-6.45-2.64 1.11"/>
	  <path d="m12-10.7 2.05-1.35"/>
	  <path d="m7.09-13.4 1.1 2.35"/>
  </g>
  <circle class="pivotPoint layout" r="1"/>
</g></g></svg>
