<?xml version="1.0" encoding="UTF-8"?>
<svg xmlns="http://www.w3.org/2000/svg" version="1.2" baseProfile="tiny" xml:space="preserve" style="shape-rendering:geometricPrecision; fill-rule:evenodd;" width="15.79mm" height="13.7mm" viewBox="-0.16 -13.54 15.79 13.7">
  <title>RCKLDG01P</title>
  <desc>rock or coral drying ledges</desc>
  <metadata>
    <!-- Rock or coral drying ledges SVG modified 2013-10-27 for openseamap, based on IHO Portrayl Catalogoue,  https://registry.iho.int/portrayal/view.do?itemIdentifier=448&type=3&domain=&status=2&searchValue=RCKLDG01P -->
    <!-- iho:S100SVG xmlns:iho="http://www.iho.int/SVGMetadata" -->
    <!-- iho:Description iho:publisher="IHB" iho:creationDate="2015-03-04" iho:source="S52Preslib4.0" iho:format="S100SVG" iho:version="0.1"/ -->
    <!-- /iho:S100SVG -->
  </metadata>
  <rect class="symbolBox layout" fill="none" x="0.06" y="-13.38" height="13.32" width="15.41"/>
  <rect class="svgBox layout" fill="none" x="0" y="-13.38" height="13.38" width="15.47"/>
  <g fill="none" stroke="#8D642E" stroke-linejoin="round" stroke-width="0.32px"> 
	  <path d=" M 2.4,-0.06 L 4.56,-1.74"/>
	  <path d=" M 1.71,-11.22 L 2.74,-8.15"/>
	  <path d=" M 7.83,-7.4 L 6.23,-5.1"/>
	  <path d=" M 6.34,-10.93 L 7.09,-13.37"/>
	  <path d=" M 8.75,-3.55 L 9.25,-0.66"/>
	  <path d=" M 14.32,-3.91 L 15.47,-6.46"/>
	  <path d=" M 14.49,-9.92 L 11.99,-10.73"/>
	  <path d=" M 2.74,-8.21 L 0.06,-9.59"/>
	  <path d=" M 6.32,-5.12 L 6.05,-7.78"/>
	  <path d=" M 2.35,-0.06 L 2.64,-2.63"/>
	  <path d=" M 8.78,-3.55 L 10.9,-1.85"/>
	  <path d=" M 15.4,-6.45 L 12.76,-5.34"/>
	  <path d=" M 12.03,-10.69 L 14.08,-12.04"/>
	  <path d=" M 7.09,-13.38 L 8.19,-11.03"/>
  </g>
  <circle class="pivotPoint layout" fill="none" cx="0" cy="0" r="1"/>
</svg>