<?xml version="1.0" encoding="UTF-8"?>
<svg width="7.8mm" height="3.3mm" version="1.0" xmlns="http://www.w3.org/2000/svg" xmlns:cc="http://creativecommons.org/ns#" xmlns:dc="http://purl.org/dc/elements/1.1/" xmlns:rdf="http://www.w3.org/1999/02/22-rdf-syntax-ns#">
 <title>RCKLDG06L</title>
 <desc>rockledge</desc>
 <metadata>
  <!-- Created as line-style for Openseamap, CC BY-SA 2.0, 2021-10-27, josail, rockledge simplified SVG based on INT-1 J21 -->
  <rdf:RDF>
   <cc:Work rdf:about="">
    <dc:title>RCKLDG06L</dc:title>
   </cc:Work>
  </rdf:RDF>
 </metadata>
 <g transform="matrix(-1.0367 0 0 -1 28.296 13.598)" fill="none" stroke="#000" stroke-linejoin="round" stroke-width="1px">
  <path d="m.90006 7.7705c.13001.91006.26002 1.8101.60004 2.5602.34002.75005.88006 1.5201 1.4401 1.9401.55004.43003 1.4001.70005 1.8701.63004.47003-.07001.94007-1.0301.94007-1.0301"/>
  <path d="m3.4202 3.9003c-.080005 1.0801-.16001 2.1601 0 3.2802.17001 1.1101.48003 2.5602 1.0001 3.4002.53004.85006 1.5101 1.4301 2.1702 1.6601.67005.24002 1.4001-.10001 1.8101-.25002.40003-.15001.52004-.40003.63004-.66005"/>
  <path d="m13.901 10.551c-.07001.58004-.14001 1.1601-.50004 1.5701-.35002.40003-1.0401.74005-1.6501.84006-.62004.10001-1.5701.08001-2.0301-.22002-.46003-.30002-.55004-.94006-.72005-1.5601s-.30002-1.2901-.28002-2.1602c.010001-.87006.19001-1.9601.37003-3.0602"/>
  <path d="m17.451 10.831c-.18001.29002-.37003.58004-.72005.72005s-.90006.29002-1.3701.13001c-.47003-.16001-1.0401-.47003-1.4601-1.1001-.42003-.62004-.81006-1.8701-1.0801-2.6502-.26002-.78005-.36002-1.2501-.53004-2.0301-.18001-.79005-.34002-1.7401-.51004-2.6902"/>
  <path d="m20.921 9.9607c-.18001.40003-.35002.79005-.70005 1.0301-.34002.24002-.89006.42003-1.3601.41003-.46003-.02-1.0601-.11001-1.4201-.50004s-.62004-1.1701-.72005-1.8501c-.11001-.67005-.01-1.4001.09001-2.2202.09001-.81006.29002-1.7501.48003-2.6802"/>
  <path d="m26.422 5.6504c.17001.70005.34002 1.4001.38003 2.1802.04.79005.02 1.8501-.13001 2.5402-.15001.68005-.36002 1.2401-.76005 1.5601-.41003.32002-1.0601.37003-1.6701.34002-.61004-.02-1.4301-.12001-1.9801-.50003-.55004-.37003-1.0301-1.0301-1.3101-1.7501-.29002-.72005-.41003-1.2401-.42003-2.5602s.17001-3.3502.35002-5.3804"/>
 </g>
</svg>
