<?xml version="1.0" encoding="UTF-8" standalone="no"?>
<svg width="9.3mm" height="3.8mm" fill-rule="evenodd" shape-rendering="geometricPrecision" version="1.0" xmlns="http://www.w3.org/2000/svg">
  <title>CORLDG06L</title>
  <desc>coralledge</desc>
  <metadata> 
 <!-- Created as line-style for Openseamap, CC BY-SA 2.0, 2021-10-27, josail, coralledge simplified SVG based on INT-1 J22 -->
 </metadata>
 <g
   transform="translate(6.2525 2.8326)"
   id="g58"><g
     transform="translate(-5.7201 -4.1176)"
     fill="none"
     stroke="#000"
     stroke-linejoin="round"
     stroke-width="1px"
     id="g56">
  <path
   d="m4.2803 3.6103-3.2202 5.7804"
   id="path8" />
  <path
   d="m1.0601 9.3907v3.2202"
   id="path10" />
  <path
   d="m1.0601 12.611 1.9301 1.2801"
   id="path12" />
  <path
   d="m2.9902 13.891 1.2901-3.2102"
   id="path14" />
  <path
   d="m4.2803 10.681 1.9301 3.8603"
   id="path16" />
  <path
   d="m6.2104 14.541v-3.2202"
   id="path18" />
  <path
   d="m6.2104 11.321 2.5702 2.5702"
   id="path20" />
  <path
   d="m8.7806 13.891-0.65005-8.9906"
   id="path22" />
  <path
   d="m11.351 4.9003-0.65004 3.2102"
   id="path24" />
  <path
   d="m10.701 8.1106h3.2202"
   id="path26" />
  <path
   d="m13.921 8.1106-0.65004 4.1803"
   id="path28" />
  <path
   d="m13.271 12.291 6.4304-8.0406"
   id="path30" />
  <path
   d="m15.201 12.291 3.2102-1.6101"
   id="path32" />
  <path
   d="m18.411 10.681-1.2801 3.2102"
   id="path34" />
  <path
   d="m17.131 13.891 2.5702-2.4102"
   id="path36" />
  <path
   d="m19.701 11.481 1.2801 3.0602"
   id="path38" />
  <path
   d="m20.981 14.541 2.5802-7.7205"
   id="path40" />
  <path
   d="m23.562 6.8205-0.65004-5.1404"
   id="path42" />
  <path
   d="m27.412 2.9702-1.2801 6.4204"
   id="path44" />
  <path
   d="m26.132 9.3907 3.2102-2.8902"
   id="path46" />
  <path
   d="m29.342 6.5005-1.2901 4.9803"
   id="path48" />
  <path
   d="m28.052 11.481 2.5702-2.4902"
   id="path50" />
  <path
   d="m30.622 8.9906 2.5702 5.5504"
   id="path52" />
  <path
   d="m33.192 14.541-0.64004-11.571"
   id="path54" />
 </g></g>
</svg>
