<?xml version="1.0" encoding="UTF-8" standalone="no"?>
<svg
   xmlns:dc="http://purl.org/dc/elements/1.1/"
   xmlns:cc="http://creativecommons.org/ns#"
   xmlns:rdf="http://www.w3.org/1999/02/22-rdf-syntax-ns#"
   xmlns:svg="http://www.w3.org/2000/svg"
   xmlns="http://www.w3.org/2000/svg"
   xmlns:sodipodi="http://sodipodi.sourceforge.net/DTD/sodipodi-0.dtd"
   xmlns:inkscape="http://www.inkscape.org/namespaces/inkscape"
   version="1.0"
   width="40"
   height="80"
   id="svg2"
   inkscape:version="0.48.2 r9819"
   sodipodi:docname="west_black.svg">
  <title
     id="title2983">Q9: Topmark, black west mark</title>
  <metadata
     id="metadata10">
    <rdf:RDF>
      <cc:Work
         rdf:about="">
        <dc:format>image/svg+xml</dc:format>
        <dc:type
           rdf:resource="http://purl.org/dc/dcmitype/StillImage" />
        <dc:title>Q9: Topmark, black west mark</dc:title>
        <cc:license
           rdf:resource="http://creativecommons.org/licenses/publicdomain/" />
      </cc:Work>
      <cc:License
         rdf:about="http://creativecommons.org/licenses/publicdomain/">
        <cc:permits
           rdf:resource="http://creativecommons.org/ns#Reproduction" />
        <cc:permits
           rdf:resource="http://creativecommons.org/ns#Distribution" />
        <cc:permits
           rdf:resource="http://creativecommons.org/ns#DerivativeWorks" />
      </cc:License>
    </rdf:RDF>
  </metadata>
  <defs
     id="defs8" />
  <sodipodi:namedview
     pagecolor="#ffffff"
     bordercolor="#666666"
     borderopacity="1"
     objecttolerance="10"
     gridtolerance="10"
     guidetolerance="10"
     inkscape:pageopacity="0"
     inkscape:pageshadow="2"
     inkscape:window-width="1440"
     inkscape:window-height="808"
     id="namedview6"
     showgrid="false"
     inkscape:zoom="12.886587"
     inkscape:cx="-7.2839732"
     inkscape:cy="39.78125"
     inkscape:window-x="0"
     inkscape:window-y="0"
     inkscape:window-maximized="1"
     inkscape:current-layer="svg2" />
  <path
     style="fill:#000000;stroke:none;stroke-width:1px;stroke-linecap:butt;stroke-linejoin:miter;stroke-opacity:1"
     d="M 35.874875,66.287826 3.5077655,66.606713 36.353206,2.0319389 4.1455411,1.872495 z"
     id="path2987"
     inkscape:connector-curvature="0" />
  <path
     d="m 1.59375,0.4375 c 5.7852015,11.467078 11.72321,23.832719 16.625,33.875 -5.482962,11.223388 -11.5702129,22.783173 -16.875,33.875 5.6847413,0 11.631016,0 16.53125,0 l 0,11.8125 4.25,0 0,-11.8125 c 6.041811,0 11.17212,0 16.59375,0 C 33.251423,57.021554 27.444804,45.545858 21.8125,34.28125 27.3114,23.026237 33.404293,11.656916 38.6875,0.4375 c -12.636629,0 -25.725787,0 -37.09375,0 z m 4.875,3 27.40625,0 L 20.03125,31.125 z M 20,37.65625 33.875,65.1875 6.15625,65.1875 20,37.643008 c 0.15625,-0.0293 -0.12104,0.08049 0,0.01324 z"
     id="path4" />
</svg>
