<?xml version="1.0" encoding="UTF-8" standalone="no"?>
<!-- Created with Inkscape (http://www.inkscape.org/) -->

<svg
   xmlns:dc="http://purl.org/dc/elements/1.1/"
   xmlns:cc="http://creativecommons.org/ns#"
   xmlns:rdf="http://www.w3.org/1999/02/22-rdf-syntax-ns#"
   xmlns:svg="http://www.w3.org/2000/svg"
   xmlns="http://www.w3.org/2000/svg"
   xmlns:sodipodi="http://sodipodi.sourceforge.net/DTD/sodipodi-0.dtd"
   xmlns:inkscape="http://www.inkscape.org/namespaces/inkscape"
   version="1.0"
   width="180"
   height="180"
   viewBox="0 0 180 180"
   id="svg8829"
   xml:space="preserve"
   sodipodi:version="0.32"
   inkscape:version="0.48.2 r9819"
   sodipodi:docname="F.svg"
   inkscape:output_extension="org.inkscape.output.svg.inkscape"
   inkscape:export-filename="C:\Dokumente und Einstellungen\rolf\Eigene Dateien\Eigene Karten\Harbour.png"
   inkscape:export-xdpi="89.361702"
   inkscape:export-ydpi="89.361702"><title
   id="title2989">F: Port (generic symbol)</title><metadata
   id="metadata13"><rdf:RDF><cc:Work
       rdf:about=""><dc:format>image/svg+xml</dc:format><dc:type
         rdf:resource="http://purl.org/dc/dcmitype/StillImage" /><dc:title>F: Port (generic symbol)</dc:title><cc:license
         rdf:resource="http://creativecommons.org/licenses/publicdomain/" /></cc:Work><cc:License
       rdf:about="http://creativecommons.org/licenses/publicdomain/"><cc:permits
         rdf:resource="http://creativecommons.org/ns#Reproduction" /><cc:permits
         rdf:resource="http://creativecommons.org/ns#Distribution" /><cc:permits
         rdf:resource="http://creativecommons.org/ns#DerivativeWorks" /></cc:License></rdf:RDF></metadata><sodipodi:namedview
   inkscape:window-height="753"
   inkscape:window-width="1280"
   inkscape:pageshadow="2"
   inkscape:pageopacity="0.0"
   guidetolerance="10.0"
   gridtolerance="10.0"
   objecttolerance="10.0"
   borderopacity="1.0"
   bordercolor="#666666"
   pagecolor="#ffffff"
   id="base"
   showgrid="false"
   inkscape:zoom="2.9444444"
   inkscape:cx="-29.547172"
   inkscape:cy="90"
   inkscape:window-x="-4"
   inkscape:window-y="0"
   inkscape:current-layer="g2415"
   inkscape:window-maximized="0" />
<defs
   id="defs2404"><inkscape:perspective
   sodipodi:type="inkscape:persp3d"
   inkscape:vp_x="0 : 90 : 1"
   inkscape:vp_y="0 : 1000 : 0"
   inkscape:vp_z="180 : 90 : 1"
   inkscape:persp3d-origin="90 : 60 : 1"
   id="perspective15" />
	
	
		

	
	
</defs>

<g
   style="fill:#000000;fill-opacity:0"
   id="g2415">
		<path
   style="fill:none;fill-opacity:1;stroke:#a30075;stroke-width:5;fill-rule:evenodd;stroke-opacity:1"
   id="path2421"
   d="M 160,89 C 160,126.54 129.54,157 92,157 C 54.46,157 24,126.54 24,89 C 24,51.46 54.46,21 92,21 C 129.54,21 160,51.46 160,89 z" /><path
   style="fill:#a30075;fill-opacity:1;stroke:#a30075;stroke-width:5;stroke-opacity:1"
   id="path2417"
   d="M 134.13,100.27 L 130.3,121.9 L 125.05,117.04 C 122.431,119.95 119.45,122.42 115.87,124.67 C 109.82,128.47 103.2,130.62 96.54,131.24 L 95.86,137.57 L 88.86,137.57 L 88.16,131.24 C 77.38,130.2 67.1,125.21 59.56,116.82 L 53.73,121.9 L 50.6,99.97 L 65.91,111.27 L 62.01,114.67 C 68.66,120.4 77.87,124.231 88.191,125.05 L 89.571,67.07 L 74.96,67.07 L 74.96,62.68 L 89.54,62.84 L 89.54,59.19 C 85.03,58.2 81.681,54.55 81.681,50.19 C 81.681,45.06 86.3,40.91 92,40.91 C 97.69,40.91 102.311,45.06 102.311,50.19 C 102.311,54.45 99.112,58.05 94.76,59.14 L 94.76,62.73 L 109.771,62.68 L 109.771,67.07 L 95.16,67.07 L 96.57,125.05 C 106.82,124.231 115.96,120.43 122.59,114.75 L 118.82,111.27 L 134.13,100.27 z" />
		<ellipse
   sodipodi:ry="4.4200001"
   sodipodi:rx="4.9099998"
   sodipodi:cy="50.189999"
   sodipodi:cx="92.010002"
   style="fill:none;fill-opacity:1;stroke:#ffffff;stroke-width:5;stroke-opacity:1"
   id="ellipse2419"
   ry="4.4200001"
   rx="4.9099998"
   cy="50.189999"
   cx="92.010002"
   inkscape:transform-center-x="5.4339623" />
		
	</g><g
   style="fill:#000000;fill-opacity:0"
   id="g2409">
		<path
   style="fill:#000000;fill-opacity:0"
   id="path2411"
   d="M 134.13,100.27 L 130.3,121.9 L 125.05,117.04 C 122.431,119.95 119.45,122.42 115.87,124.67 C 109.82,128.47 103.2,130.62 96.54,131.24 L 95.86,137.57 L 88.86,137.57 L 88.16,131.24 C 77.38,130.2 67.1,125.21 59.56,116.82 L 53.73,121.9 L 50.6,99.97 L 65.91,111.27 L 62.01,114.67 C 68.66,120.4 77.87,124.231 88.191,125.05 L 89.571,67.07 L 74.96,67.07 L 74.96,62.68 L 89.54,62.84 L 89.54,59.19 C 85.03,58.2 81.681,54.55 81.681,50.19 C 81.681,45.06 86.3,40.91 92,40.91 C 97.69,40.91 102.311,45.06 102.311,50.19 C 102.311,54.45 99.112,58.05 94.76,59.14 L 94.76,62.73 L 109.771,62.68 L 109.771,67.07 L 95.16,67.07 L 96.57,125.05 C 106.82,124.231 115.96,120.43 122.59,114.75 L 118.82,111.27 L 134.13,100.27 z M 96.92,50.19 C 96.92,47.75 94.721,45.77 92.01,45.77 C 89.3,45.77 87.101,47.75 87.101,50.19 C 87.101,52.63 89.3,54.61 92.01,54.61 C 94.72,54.61 96.92,52.63 96.92,50.19 z" />
		<ellipse
   sodipodi:ry="4.4200001"
   sodipodi:rx="4.9099998"
   sodipodi:cy="50.189999"
   sodipodi:cx="92.010002"
   style="fill:#000000;fill-opacity:0"
   id="ellipse2413"
   ry="4.4200001"
   rx="4.9099998"
   cy="50.189999"
   cx="92.010002" />
	</g>
</svg>