<?xml version="1.0" encoding="UTF-8" standalone="no"?>
<!-- Created with Inkscape (http://www.inkscape.org/) -->

<svg
   xmlns:dc="http://purl.org/dc/elements/1.1/"
   xmlns:cc="http://creativecommons.org/ns#"
   xmlns:rdf="http://www.w3.org/1999/02/22-rdf-syntax-ns#"
   xmlns:svg="http://www.w3.org/2000/svg"
   xmlns="http://www.w3.org/2000/svg"
   xmlns:sodipodi="http://sodipodi.sourceforge.net/DTD/sodipodi-0.dtd"
   xmlns:inkscape="http://www.inkscape.org/namespaces/inkscape"
   version="1.0"
   width="120"
   height="120"
   id="svg2"
   inkscape:version="0.48.2 r9819"
   sodipodi:docname="F10.svg">
  <title
     id="title2982">F10: Fishing Port</title>
  <metadata
     id="metadata4447">
    <rdf:RDF>
      <cc:Work
         rdf:about="">
        <dc:format>image/svg+xml</dc:format>
        <dc:type
           rdf:resource="http://purl.org/dc/dcmitype/StillImage" />
        <cc:license
           rdf:resource="http://creativecommons.org/licenses/publicdomain/" />
        <dc:title>F10: Fishing Port</dc:title>
      </cc:Work>
      <cc:License
         rdf:about="http://creativecommons.org/licenses/publicdomain/">
        <cc:permits
           rdf:resource="http://creativecommons.org/ns#Reproduction" />
        <cc:permits
           rdf:resource="http://creativecommons.org/ns#Distribution" />
        <cc:permits
           rdf:resource="http://creativecommons.org/ns#DerivativeWorks" />
      </cc:License>
    </rdf:RDF>
  </metadata>
  <sodipodi:namedview
     pagecolor="#ffffff"
     bordercolor="#666666"
     borderopacity="1"
     objecttolerance="10"
     gridtolerance="10"
     guidetolerance="10"
     inkscape:pageopacity="0"
     inkscape:pageshadow="2"
     inkscape:window-width="719"
     inkscape:window-height="480"
     id="namedview4445"
     showgrid="false"
     inkscape:zoom="2.1916667"
     inkscape:cx="60"
     inkscape:cy="60"
     inkscape:window-x="0"
     inkscape:window-y="0"
     inkscape:window-maximized="0"
     inkscape:current-layer="svg2" />
  <defs
     id="defs4" />
  <path
     d="M 57.0625,3.53125 L 49.8125,4.28125 L 42.6875,5.9375 L 35.875,8.40625 L 29.53125,11.75 L 23.84375,15.90625 L 18.9375,20.875 L 14.6875,26.4375 L 10.90625,32.46875 L 7.34375,38.6875 L 11.59375,41.15625 L 13.1875,38.5 L 17,32.4375 L 21.125,26.6875 L 25.84375,21.5 L 31.28125,17.0625 L 37.46875,13.53125 L 44.1875,10.90625 L 51.3125,9.25 L 58.65625,8.59375 L 66.03125,8.9375 L 73.28125,10.28125 L 80.1875,12.625 L 86.53125,15.875 L 92.15625,20.03125 L 96.9375,25 L 100.96875,30.6875 L 104.4375,36.8125 L 107.53125,43.34375 L 110.46875,50 L 116.125,54.28125 L 114.875,47.6875 L 113.0625,40.84375 L 110.34375,34.21875 L 106.71875,28 L 102.28125,22.3125 L 97.09375,17.1875 L 91.34375,12.8125 L 85.0625,9.21875 L 78.40625,6.5 L 71.46875,4.625 L 64.3125,3.65625 L 57.0625,3.53125 z M 6.28125,42.21875 L 4.71875,49.375 L 3.65625,56.375 L 3.5,63.34375 L 4.40625,70.3125 L 5.90625,77.3125 L 32.15625,62.78125 L 38.21875,66.34375 L 44.40625,69.875 L 50.75,73 L 57.40625,75.4375 L 64.34375,76.9375 L 71.4375,77.59375 L 78.625,77.53125 L 85.78125,76.6875 L 92.6875,74.96875 L 99.21875,72.3125 L 105.28125,68.71875 L 110.96875,64.5 L 116.5,59.9375 L 111.1875,55.5625 L 105.5,51.375 L 99.40625,47.875 L 92.84375,45.28125 L 85.90625,43.59375 L 78.75,42.6875 L 71.5625,42.53125 L 64.4375,43.09375 L 57.5,44.5625 L 50.90625,47 L 44.5625,50.25 L 38.34375,53.6875 L 32.15625,57.125 L 6.28125,42.21875 z M 94.5,55 C 97.26,55 99.5,57.24 99.5,60 C 99.5,62.76 97.26,65 94.5,65 C 91.74,65 89.5,62.76 89.5,60 C 89.5,57.24 91.74,55 94.5,55 z M 116.5,65.28125 L 110.46875,69.875 L 109.15625,73.59375 L 106.59375,80.28125 L 103.59375,86.6875 L 99.8125,92.5625 L 95.0625,97.78125 L 89.4375,102.28125 L 83.15625,105.9375 L 76.40625,108.65625 L 69.4375,110.40625 L 62.34375,111.1875 L 55.1875,111 L 48.125,109.8125 L 41.21875,107.71875 L 34.625,104.6875 L 28.5625,100.8125 L 23.28125,96.125 L 18.8125,90.65625 L 15.03125,84.65625 L 11.59375,78.375 L 7.34375,80.84375 L 7.75,81.71875 L 11.03125,88.03125 L 14.78125,94.03125 L 19.28125,99.46875 L 24.59375,104.25 L 30.53125,108.3125 L 36.9375,111.625 L 43.71875,114.0625 L 50.71875,115.75 L 57.84375,116.46875 L 65,116.3125 L 72.03125,115.25 L 78.875,113.25 L 85.40625,110.40625 L 91.625,106.78125 L 97.34375,102.4375 L 102.46875,97.40625 L 106.84375,91.8125 L 110.21875,85.65625 L 112.78125,79.09375 L 114.78125,72.25 L 116.5,65.28125 z"
     id="path6625"
     style="fill:#a30075;fill-opacity:1;fill-rule:evenodd;stroke:none" />
</svg>
