<?xml version="1.0" encoding="UTF-8" standalone="no"?>
<!-- Created with Inkscape (http://www.inkscape.org/) -->

<svg
   xmlns:dc="http://purl.org/dc/elements/1.1/"
   xmlns:cc="http://creativecommons.org/ns#"
   xmlns:rdf="http://www.w3.org/1999/02/22-rdf-syntax-ns#"
   xmlns:svg="http://www.w3.org/2000/svg"
   xmlns="http://www.w3.org/2000/svg"
   xmlns:sodipodi="http://sodipodi.sourceforge.net/DTD/sodipodi-0.dtd"
   xmlns:inkscape="http://www.inkscape.org/namespaces/inkscape"
   version="1.0"
   width="66"
   height="93"
   id="svg8708"
   inkscape:version="0.48.2 r9819"
   sodipodi:docname="F60.svg">
  <title
     id="title2982">F60: Harbour Master's Office</title>
  <metadata
     id="metadata4426">
    <rdf:RDF>
      <cc:Work
         rdf:about="">
        <dc:format>image/svg+xml</dc:format>
        <dc:type
           rdf:resource="http://purl.org/dc/dcmitype/StillImage" />
        <cc:license
           rdf:resource="http://creativecommons.org/licenses/publicdomain/" />
        <dc:title>F60: Harbour Master's Office</dc:title>
      </cc:Work>
      <cc:License
         rdf:about="http://creativecommons.org/licenses/publicdomain/">
        <cc:permits
           rdf:resource="http://creativecommons.org/ns#Reproduction" />
        <cc:permits
           rdf:resource="http://creativecommons.org/ns#Distribution" />
        <cc:permits
           rdf:resource="http://creativecommons.org/ns#DerivativeWorks" />
      </cc:License>
    </rdf:RDF>
  </metadata>
  <sodipodi:namedview
     pagecolor="#ffffff"
     bordercolor="#666666"
     borderopacity="1"
     objecttolerance="10"
     gridtolerance="10"
     guidetolerance="10"
     inkscape:pageopacity="0"
     inkscape:pageshadow="2"
     inkscape:window-width="719"
     inkscape:window-height="494"
     id="namedview4424"
     showgrid="false"
     inkscape:zoom="2.1916667"
     inkscape:cx="-47.304181"
     inkscape:cy="46.5"
     inkscape:window-x="295"
     inkscape:window-y="139"
     inkscape:window-maximized="0"
     inkscape:current-layer="svg8708"
     fit-margin-top="0"
     fit-margin-left="0"
     fit-margin-right="0"
     fit-margin-bottom="0" />
  <defs
     id="defs8710" />
  <path
     d="M 33,0 C 23.667313,0 15.321037,5.460528 9.4375,13.90625 3.553963,22.351972 0,33.84108 0,46.5 0,59.15892 3.553963,70.648028 9.4375,79.09375 15.321037,87.53947 23.667313,93 33,93 42.332687,93 50.678963,87.53947 56.5625,79.09375 62.446037,70.648028 66,59.15892 66,46.5 66,33.84108 62.446037,22.351972 56.5625,13.90625 50.678963,5.460528 42.332687,0 33,0 z m 0,4 C 40.779313,4 47.942787,8.524222 53.28125,16.1875 58.619713,23.850778 62,34.59492 62,46.5 62,58.40508 58.619713,69.149222 53.28125,76.8125 47.942787,84.475778 40.779313,89 33,89 25.220687,89 18.057213,84.475778 12.71875,76.8125 7.380287,69.149222 4,58.40508 4,46.5 4,34.59492 7.380287,23.850778 12.71875,16.1875 18.057213,8.524222 25.220687,4 33,4 z m 0,5.5 c -3.842126,0 -7,3.157874 -7,7 0,3.132549 2.111053,5.805292 4.96875,6.6875 L 30.875,26.5 l -10.375,0 0,4 10.25,0 -1.1875,42.65625 c -4.60769,-0.949307 -8.545136,-3.770031 -10.96875,-7.625 L 22,64 l -9,-9.5 -1,14 4.125,-1.875 c 1.981983,4.764386 5.193646,8.369402 9.46875,10.5625 1.414918,0.725844 2.860094,1.208977 4.3125,1.5 L 30.5,83.5 l 5,0 0.59375,-4.78125 c 5.738371,-1.154888 10.91583,-5.501456 13.75,-12.09375 L 54,68.5 53,54.5 44,64 47.375,65.53125 C 44.954147,69.385765 41.039183,72.174632 36.4375,73.125 L 35.25,30.5 l 10.25,0 0,-4 -10.375,0 -0.09375,-3.3125 C 37.888947,22.305292 40,19.632549 40,16.5 c 0,-3.842126 -3.157874,-7 -7,-7 z m 0,4 c 1.677874,0 3,1.322126 3,3 0,1.677874 -1.322126,3 -3,3 -1.677874,0 -3,-1.322126 -3,-3 0,-1.677874 1.322126,-3 3,-3 z"
     id="path8720"
     inkscape:connector-curvature="0" />
</svg>
