<?xml version="1.0" encoding="UTF-8" standalone="no"?>
<!-- Created with Inkscape (http://www.inkscape.org/) -->

<svg
   xmlns:dc="http://purl.org/dc/elements/1.1/"
   xmlns:cc="http://creativecommons.org/ns#"
   xmlns:rdf="http://www.w3.org/1999/02/22-rdf-syntax-ns#"
   xmlns:svg="http://www.w3.org/2000/svg"
   xmlns="http://www.w3.org/2000/svg"
   xmlns:sodipodi="http://sodipodi.sourceforge.net/DTD/sodipodi-0.dtd"
   xmlns:inkscape="http://www.inkscape.org/namespaces/inkscape"
   version="1.0"
   width="74"
   height="74"
   id="svg2"
   inkscape:version="0.48.2 r9819"
   sodipodi:docname="F61.svg">
  <title
     id="title3306">F61: Customs Office</title>
  <metadata
     id="metadata4377">
    <rdf:RDF>
      <cc:Work
         rdf:about="">
        <dc:format>image/svg+xml</dc:format>
        <dc:type
           rdf:resource="http://purl.org/dc/dcmitype/StillImage" />
        <cc:license
           rdf:resource="http://creativecommons.org/licenses/publicdomain/" />
        <dc:title>F61: Customs Office</dc:title>
      </cc:Work>
      <cc:License
         rdf:about="http://creativecommons.org/licenses/publicdomain/">
        <cc:permits
           rdf:resource="http://creativecommons.org/ns#Reproduction" />
        <cc:permits
           rdf:resource="http://creativecommons.org/ns#Distribution" />
        <cc:permits
           rdf:resource="http://creativecommons.org/ns#DerivativeWorks" />
      </cc:License>
    </rdf:RDF>
  </metadata>
  <sodipodi:namedview
     pagecolor="#ffffff"
     bordercolor="#666666"
     borderopacity="1"
     objecttolerance="10"
     gridtolerance="10"
     guidetolerance="10"
     inkscape:pageopacity="0"
     inkscape:pageshadow="2"
     inkscape:window-width="719"
     inkscape:window-height="494"
     id="namedview4375"
     showgrid="false"
     inkscape:zoom="2.1916667"
     inkscape:cx="-43.304181"
     inkscape:cy="37"
     inkscape:window-x="0"
     inkscape:window-y="0"
     inkscape:window-maximized="0"
     inkscape:current-layer="svg2"
     fit-margin-top="0"
     fit-margin-left="0"
     fit-margin-right="0"
     fit-margin-bottom="0" />
  <defs
     id="defs4">
    <clipPath
       id="clipPath5162">
      <path
         d="m 0.12,842.04 594.96,0 0,-841.92 -594.96,0 0,841.92 z"
         id="path5164"
         inkscape:connector-curvature="0" />
    </clipPath>
    <clipPath
       id="clipPath5156">
      <path
         d="m 12,830 571,0 0,-818 -571,0 0,818 z"
         id="path5158"
         inkscape:connector-curvature="0" />
    </clipPath>
    <clipPath
       id="clipPath5150">
      <path
         d="m 10.61,842 585.58,0 0,-799.37 -585.58,0 0,799.37 z"
         id="path5152"
         inkscape:connector-curvature="0" />
    </clipPath>
    <clipPath
       id="clipPath5132">
      <path
         d="m 186.894,628.321 0,-5.67 -23.53,0.31 0,-0.282 0,5.67 23.53,-0.028"
         id="path5134"
         inkscape:connector-curvature="0" />
    </clipPath>
    <clipPath
       id="clipPath5126">
      <path
         d="m 184.993,627.789 2.382,0 0,2.691 -2.382,0 0,-2.691 z"
         id="path5128"
         inkscape:connector-curvature="0" />
    </clipPath>
    <clipPath
       id="clipPath5106">
      <path
         d="m 186.894,628.321 0,-5.67 -23.53,0.31 0,-0.282 0,5.67 23.53,-0.028"
         id="path5108"
         inkscape:connector-curvature="0" />
    </clipPath>
    <clipPath
       id="clipPath5100">
      <path
         d="m 182.851,627.789 2.382,0 0,2.691 -2.382,0 0,-2.691 z"
         id="path5102"
         inkscape:connector-curvature="0" />
    </clipPath>
    <clipPath
       id="clipPath5080">
      <path
         d="m 186.894,628.321 0,-5.67 -23.53,0.31 0,-0.282 0,5.67 23.53,-0.028"
         id="path5082"
         inkscape:connector-curvature="0" />
    </clipPath>
    <clipPath
       id="clipPath5074">
      <path
         d="m 180.708,627.789 2.382,0 0,2.691 -2.382,0 0,-2.691 z"
         id="path5076"
         inkscape:connector-curvature="0" />
    </clipPath>
    <clipPath
       id="clipPath5054">
      <path
         d="m 186.894,628.321 0,-5.67 -23.53,0.31 0,-0.282 0,5.67 23.53,-0.028"
         id="path5056"
         inkscape:connector-curvature="0" />
    </clipPath>
    <clipPath
       id="clipPath5048">
      <path
         d="m 178.566,627.789 2.382,0 0,2.691 -2.382,0 0,-2.691 z"
         id="path5050"
         inkscape:connector-curvature="0" />
    </clipPath>
    <clipPath
       id="clipPath5028">
      <path
         d="m 186.894,628.321 0,-5.67 -23.53,0.31 0,-0.282 0,5.67 23.53,-0.028"
         id="path5030"
         inkscape:connector-curvature="0" />
    </clipPath>
    <clipPath
       id="clipPath5022">
      <path
         d="m 176.424,627.789 2.382,0 0,2.691 -2.382,0 0,-2.691 z"
         id="path5024"
         inkscape:connector-curvature="0" />
    </clipPath>
    <clipPath
       id="clipPath5002">
      <path
         d="m 186.894,628.321 0,-5.67 -23.53,0.31 0,-0.282 0,5.67 23.53,-0.028"
         id="path5004"
         inkscape:connector-curvature="0" />
    </clipPath>
    <clipPath
       id="clipPath4996">
      <path
         d="m 174.282,627.789 2.382,0 0,2.691 -2.382,0 0,-2.691 z"
         id="path4998"
         inkscape:connector-curvature="0" />
    </clipPath>
    <clipPath
       id="clipPath4976">
      <path
         d="m 186.894,628.321 0,-5.67 -23.53,0.31 0,-0.282 0,5.67 23.53,-0.028"
         id="path4978"
         inkscape:connector-curvature="0" />
    </clipPath>
    <clipPath
       id="clipPath4970">
      <path
         d="m 172.14,627.789 2.382,0 0,2.691 -2.382,0 0,-2.691 z"
         id="path4972"
         inkscape:connector-curvature="0" />
    </clipPath>
    <clipPath
       id="clipPath4950">
      <path
         d="m 186.894,628.321 0,-5.67 -23.53,0.31 0,-0.282 0,5.67 23.53,-0.028"
         id="path4952"
         inkscape:connector-curvature="0" />
    </clipPath>
    <clipPath
       id="clipPath4944">
      <path
         d="m 169.998,627.789 2.382,0 0,2.691 -2.382,0 0,-2.691 z"
         id="path4946"
         inkscape:connector-curvature="0" />
    </clipPath>
    <clipPath
       id="clipPath4924">
      <path
         d="m 186.894,628.321 0,-5.67 -23.53,0.31 0,-0.282 0,5.67 23.53,-0.028"
         id="path4926"
         inkscape:connector-curvature="0" />
    </clipPath>
    <clipPath
       id="clipPath4918">
      <path
         d="m 167.856,627.789 2.382,0 0,2.691 -2.382,0 0,-2.691 z"
         id="path4920"
         inkscape:connector-curvature="0" />
    </clipPath>
    <clipPath
       id="clipPath4898">
      <path
         d="m 186.894,628.321 0,-5.67 -23.53,0.31 0,-0.282 0,5.67 23.53,-0.028"
         id="path4900"
         inkscape:connector-curvature="0" />
    </clipPath>
    <clipPath
       id="clipPath4892">
      <path
         d="m 165.714,627.789 2.382,0 0,2.691 -2.382,0 0,-2.691 z"
         id="path4894"
         inkscape:connector-curvature="0" />
    </clipPath>
    <clipPath
       id="clipPath4872">
      <path
         d="m 186.894,628.321 0,-5.67 -23.53,0.31 0,-0.282 0,5.67 23.53,-0.028"
         id="path4874"
         inkscape:connector-curvature="0" />
    </clipPath>
    <clipPath
       id="clipPath4866">
      <path
         d="m 163.572,627.789 2.382,0 0,2.691 -2.382,0 0,-2.691 z"
         id="path4868"
         inkscape:connector-curvature="0" />
    </clipPath>
    <clipPath
       id="clipPath4852">
      <path
         d="m 186.894,628.321 0,-5.67 -23.53,0.31 0,-0.282 0,5.67 23.53,-0.028"
         id="path4854"
         inkscape:connector-curvature="0" />
    </clipPath>
    <clipPath
       id="clipPath4846">
      <path
         d="m 161.43,627.789 2.382,0 0,2.691 -2.382,0 0,-2.691 z"
         id="path4848"
         inkscape:connector-curvature="0" />
    </clipPath>
    <clipPath
       id="clipPath4816">
      <path
         d="m 186.894,628.321 0,-5.67 -23.53,0.31 0,-0.282 0,5.67 23.53,-0.028"
         id="path4818"
         inkscape:connector-curvature="0" />
    </clipPath>
    <clipPath
       id="clipPath4810">
      <path
         d="m 184.993,625.338 2.382,0 0,2.691 -2.382,0 0,-2.691 z"
         id="path4812"
         inkscape:connector-curvature="0" />
    </clipPath>
    <clipPath
       id="clipPath4774">
      <path
         d="m 186.894,628.321 0,-5.67 -23.53,0.31 0,-0.282 0,5.67 23.53,-0.028"
         id="path4776"
         inkscape:connector-curvature="0" />
    </clipPath>
    <clipPath
       id="clipPath4768">
      <path
         d="m 182.851,625.338 2.382,0 0,2.691 -2.382,0 0,-2.691 z"
         id="path4770"
         inkscape:connector-curvature="0" />
    </clipPath>
    <clipPath
       id="clipPath4732">
      <path
         d="m 186.894,628.321 0,-5.67 -23.53,0.31 0,-0.282 0,5.67 23.53,-0.028"
         id="path4734"
         inkscape:connector-curvature="0" />
    </clipPath>
    <clipPath
       id="clipPath4726">
      <path
         d="m 180.708,625.338 2.382,0 0,2.691 -2.382,0 0,-2.691 z"
         id="path4728"
         inkscape:connector-curvature="0" />
    </clipPath>
    <clipPath
       id="clipPath4690">
      <path
         d="m 186.894,628.321 0,-5.67 -23.53,0.31 0,-0.282 0,5.67 23.53,-0.028"
         id="path4692"
         inkscape:connector-curvature="0" />
    </clipPath>
    <clipPath
       id="clipPath4684">
      <path
         d="m 178.566,625.338 2.382,0 0,2.691 -2.382,0 0,-2.691 z"
         id="path4686"
         inkscape:connector-curvature="0" />
    </clipPath>
    <clipPath
       id="clipPath4648">
      <path
         d="m 186.894,628.321 0,-5.67 -23.53,0.31 0,-0.282 0,5.67 23.53,-0.028"
         id="path4650"
         inkscape:connector-curvature="0" />
    </clipPath>
    <clipPath
       id="clipPath4642">
      <path
         d="m 176.424,625.338 2.382,0 0,2.691 -2.382,0 0,-2.691 z"
         id="path4644"
         inkscape:connector-curvature="0" />
    </clipPath>
    <clipPath
       id="clipPath4606">
      <path
         d="m 186.894,628.321 0,-5.67 -23.53,0.31 0,-0.282 0,5.67 23.53,-0.028"
         id="path4608"
         inkscape:connector-curvature="0" />
    </clipPath>
    <clipPath
       id="clipPath4600">
      <path
         d="m 174.282,625.338 2.382,0 0,2.691 -2.382,0 0,-2.691 z"
         id="path4602"
         inkscape:connector-curvature="0" />
    </clipPath>
    <clipPath
       id="clipPath4564">
      <path
         d="m 186.894,628.321 0,-5.67 -23.53,0.31 0,-0.282 0,5.67 23.53,-0.028"
         id="path4566"
         inkscape:connector-curvature="0" />
    </clipPath>
    <clipPath
       id="clipPath4558">
      <path
         d="m 172.14,625.338 2.382,0 0,2.691 -2.382,0 0,-2.691 z"
         id="path4560"
         inkscape:connector-curvature="0" />
    </clipPath>
    <clipPath
       id="clipPath4522">
      <path
         d="m 186.894,628.321 0,-5.67 -23.53,0.31 0,-0.282 0,5.67 23.53,-0.028"
         id="path4524"
         inkscape:connector-curvature="0" />
    </clipPath>
    <clipPath
       id="clipPath4516">
      <path
         d="m 169.998,625.338 2.382,0 0,2.691 -2.382,0 0,-2.691 z"
         id="path4518"
         inkscape:connector-curvature="0" />
    </clipPath>
    <clipPath
       id="clipPath4480">
      <path
         d="m 186.894,628.321 0,-5.67 -23.53,0.31 0,-0.282 0,5.67 23.53,-0.028"
         id="path4482"
         inkscape:connector-curvature="0" />
    </clipPath>
    <clipPath
       id="clipPath4474">
      <path
         d="m 167.856,625.338 2.382,0 0,2.691 -2.382,0 0,-2.691 z"
         id="path4476"
         inkscape:connector-curvature="0" />
    </clipPath>
    <clipPath
       id="clipPath4438">
      <path
         d="m 186.894,628.321 0,-5.67 -23.53,0.31 0,-0.282 0,5.67 23.53,-0.028"
         id="path4440"
         inkscape:connector-curvature="0" />
    </clipPath>
    <clipPath
       id="clipPath4432">
      <path
         d="m 165.714,625.338 2.382,0 0,2.691 -2.382,0 0,-2.691 z"
         id="path4434"
         inkscape:connector-curvature="0" />
    </clipPath>
    <clipPath
       id="clipPath4400">
      <path
         d="m 186.894,628.321 0,-5.67 -23.53,0.31 0,-0.282 0,5.67 23.53,-0.028"
         id="path4402"
         inkscape:connector-curvature="0" />
    </clipPath>
    <clipPath
       id="clipPath4394">
      <path
         d="m 163.572,625.338 2.382,0 0,2.691 -2.382,0 0,-2.691 z"
         id="path4396"
         inkscape:connector-curvature="0" />
    </clipPath>
    <clipPath
       id="clipPath4372">
      <path
         d="m 186.894,628.321 0,-5.67 -23.53,0.31 0,-0.282 0,5.67 23.53,-0.028"
         id="path4374"
         inkscape:connector-curvature="0" />
    </clipPath>
    <clipPath
       id="clipPath4366">
      <path
         d="m 161.43,625.338 2.382,0 0,2.691 -2.382,0 0,-2.691 z"
         id="path4368"
         inkscape:connector-curvature="0" />
    </clipPath>
    <clipPath
       id="clipPath4336">
      <path
         d="m 186.894,628.321 0,-5.67 -23.53,0.31 0,-0.282 0,5.67 23.53,-0.028"
         id="path4338"
         inkscape:connector-curvature="0" />
    </clipPath>
    <clipPath
       id="clipPath4330">
      <path
         d="m 184.993,622.888 2.382,0 0,2.691 -2.382,0 0,-2.691 z"
         id="path4332"
         inkscape:connector-curvature="0" />
    </clipPath>
    <clipPath
       id="clipPath4294">
      <path
         d="m 186.894,628.321 0,-5.67 -23.53,0.31 0,-0.282 0,5.67 23.53,-0.028"
         id="path4296"
         inkscape:connector-curvature="0" />
    </clipPath>
    <clipPath
       id="clipPath4288">
      <path
         d="m 182.851,622.888 2.382,0 0,2.691 -2.382,0 0,-2.691 z"
         id="path4290"
         inkscape:connector-curvature="0" />
    </clipPath>
    <clipPath
       id="clipPath4252">
      <path
         d="m 186.894,628.321 0,-5.67 -23.53,0.31 0,-0.282 0,5.67 23.53,-0.028"
         id="path4254"
         inkscape:connector-curvature="0" />
    </clipPath>
    <clipPath
       id="clipPath4246">
      <path
         d="m 180.708,622.888 2.382,0 0,2.691 -2.382,0 0,-2.691 z"
         id="path4248"
         inkscape:connector-curvature="0" />
    </clipPath>
    <clipPath
       id="clipPath4210">
      <path
         d="m 186.894,628.321 0,-5.67 -23.53,0.31 0,-0.282 0,5.67 23.53,-0.028"
         id="path4212"
         inkscape:connector-curvature="0" />
    </clipPath>
    <clipPath
       id="clipPath4204">
      <path
         d="m 178.566,622.888 2.382,0 0,2.691 -2.382,0 0,-2.691 z"
         id="path4206"
         inkscape:connector-curvature="0" />
    </clipPath>
    <clipPath
       id="clipPath4168">
      <path
         d="m 186.894,628.321 0,-5.67 -23.53,0.31 0,-0.282 0,5.67 23.53,-0.028"
         id="path4170"
         inkscape:connector-curvature="0" />
    </clipPath>
    <clipPath
       id="clipPath4162">
      <path
         d="m 176.424,622.888 2.382,0 0,2.691 -2.382,0 0,-2.691 z"
         id="path4164"
         inkscape:connector-curvature="0" />
    </clipPath>
    <clipPath
       id="clipPath4126">
      <path
         d="m 186.894,628.321 0,-5.67 -23.53,0.31 0,-0.282 0,5.67 23.53,-0.028"
         id="path4128"
         inkscape:connector-curvature="0" />
    </clipPath>
    <clipPath
       id="clipPath4120">
      <path
         d="m 174.282,622.888 2.382,0 0,2.691 -2.382,0 0,-2.691 z"
         id="path4122"
         inkscape:connector-curvature="0" />
    </clipPath>
    <clipPath
       id="clipPath4084">
      <path
         d="m 186.894,628.321 0,-5.67 -23.53,0.31 0,-0.282 0,5.67 23.53,-0.028"
         id="path4086"
         inkscape:connector-curvature="0" />
    </clipPath>
    <clipPath
       id="clipPath4078">
      <path
         d="m 172.14,622.888 2.382,0 0,2.691 -2.382,0 0,-2.691 z"
         id="path4080"
         inkscape:connector-curvature="0" />
    </clipPath>
    <clipPath
       id="clipPath4042">
      <path
         d="m 186.894,628.321 0,-5.67 -23.53,0.31 0,-0.282 0,5.67 23.53,-0.028"
         id="path4044"
         inkscape:connector-curvature="0" />
    </clipPath>
    <clipPath
       id="clipPath4036">
      <path
         d="m 169.998,622.888 2.382,0 0,2.691 -2.382,0 0,-2.691 z"
         id="path4038"
         inkscape:connector-curvature="0" />
    </clipPath>
    <clipPath
       id="clipPath4000">
      <path
         d="m 186.894,628.321 0,-5.67 -23.53,0.31 0,-0.282 0,5.67 23.53,-0.028"
         id="path4002"
         inkscape:connector-curvature="0" />
    </clipPath>
    <clipPath
       id="clipPath3994">
      <path
         d="m 167.856,622.888 2.382,0 0,2.691 -2.382,0 0,-2.691 z"
         id="path3996"
         inkscape:connector-curvature="0" />
    </clipPath>
    <clipPath
       id="clipPath3958">
      <path
         d="m 186.894,628.321 0,-5.67 -23.53,0.31 0,-0.282 0,5.67 23.53,-0.028"
         id="path3960"
         inkscape:connector-curvature="0" />
    </clipPath>
    <clipPath
       id="clipPath3952">
      <path
         d="m 165.714,622.888 2.382,0 0,2.691 -2.382,0 0,-2.691 z"
         id="path3954"
         inkscape:connector-curvature="0" />
    </clipPath>
    <clipPath
       id="clipPath3922">
      <path
         d="m 186.894,628.321 0,-5.67 -23.53,0.31 0,-0.282 0,5.67 23.53,-0.028"
         id="path3924"
         inkscape:connector-curvature="0" />
    </clipPath>
    <clipPath
       id="clipPath3916">
      <path
         d="m 163.572,622.888 2.382,0 0,2.691 -2.382,0 0,-2.691 z"
         id="path3918"
         inkscape:connector-curvature="0" />
    </clipPath>
    <clipPath
       id="clipPath3894">
      <path
         d="m 186.894,628.321 0,-5.67 -23.53,0.31 0,-0.282 0,5.67 23.53,-0.028"
         id="path3896"
         inkscape:connector-curvature="0" />
    </clipPath>
    <clipPath
       id="clipPath3888">
      <path
         d="m 161.43,622.888 2.382,0 0,2.691 -2.382,0 0,-2.691 z"
         id="path3890"
         inkscape:connector-curvature="0" />
    </clipPath>
    <clipPath
       id="clipPath3870">
      <path
         d="m 186.894,628.321 0,-5.67 -23.53,0.31 0,-0.282 0,5.67 23.53,-0.028"
         id="path3872"
         inkscape:connector-curvature="0" />
    </clipPath>
    <clipPath
       id="clipPath3864">
      <path
         d="m 184.993,620.437 2.382,0 0,2.691 -2.382,0 0,-2.691 z"
         id="path3866"
         inkscape:connector-curvature="0" />
    </clipPath>
    <clipPath
       id="clipPath3842">
      <path
         d="m 186.894,628.321 0,-5.67 -23.53,0.31 0,-0.282 0,5.67 23.53,-0.028"
         id="path3844"
         inkscape:connector-curvature="0" />
    </clipPath>
    <clipPath
       id="clipPath3836">
      <path
         d="m 182.851,620.437 2.382,0 0,2.691 -2.382,0 0,-2.691 z"
         id="path3838"
         inkscape:connector-curvature="0" />
    </clipPath>
    <clipPath
       id="clipPath3818">
      <path
         d="m 186.894,628.321 0,-5.67 -23.53,0.31 0,-0.282 0,5.67 23.53,-0.028"
         id="path3820"
         inkscape:connector-curvature="0" />
    </clipPath>
    <clipPath
       id="clipPath3812">
      <path
         d="m 180.708,620.437 2.382,0 0,2.691 -2.382,0 0,-2.691 z"
         id="path3814"
         inkscape:connector-curvature="0" />
    </clipPath>
    <clipPath
       id="clipPath3794">
      <path
         d="m 186.894,628.321 0,-5.67 -23.53,0.31 0,-0.282 0,5.67 23.53,-0.028"
         id="path3796"
         inkscape:connector-curvature="0" />
    </clipPath>
    <clipPath
       id="clipPath3788">
      <path
         d="m 178.566,620.437 2.382,0 0,2.691 -2.382,0 0,-2.691 z"
         id="path3790"
         inkscape:connector-curvature="0" />
    </clipPath>
    <clipPath
       id="clipPath3770">
      <path
         d="m 186.894,628.321 0,-5.67 -23.53,0.31 0,-0.282 0,5.67 23.53,-0.028"
         id="path3772"
         inkscape:connector-curvature="0" />
    </clipPath>
    <clipPath
       id="clipPath3764">
      <path
         d="m 176.424,620.437 2.382,0 0,2.691 -2.382,0 0,-2.691 z"
         id="path3766"
         inkscape:connector-curvature="0" />
    </clipPath>
    <clipPath
       id="clipPath3746">
      <path
         d="m 186.894,628.321 0,-5.67 -23.53,0.31 0,-0.282 0,5.67 23.53,-0.028"
         id="path3748"
         inkscape:connector-curvature="0" />
    </clipPath>
    <clipPath
       id="clipPath3740">
      <path
         d="m 174.282,620.437 2.382,0 0,2.691 -2.382,0 0,-2.691 z"
         id="path3742"
         inkscape:connector-curvature="0" />
    </clipPath>
    <clipPath
       id="clipPath3722">
      <path
         d="m 186.894,628.321 0,-5.67 -23.53,0.31 0,-0.282 0,5.67 23.53,-0.028"
         id="path3724"
         inkscape:connector-curvature="0" />
    </clipPath>
    <clipPath
       id="clipPath3716">
      <path
         d="m 172.14,620.437 2.382,0 0,2.691 -2.382,0 0,-2.691 z"
         id="path3718"
         inkscape:connector-curvature="0" />
    </clipPath>
    <clipPath
       id="clipPath3698">
      <path
         d="m 186.894,628.321 0,-5.67 -23.53,0.31 0,-0.282 0,5.67 23.53,-0.028"
         id="path3700"
         inkscape:connector-curvature="0" />
    </clipPath>
    <clipPath
       id="clipPath3692">
      <path
         d="m 169.998,620.437 2.382,0 0,2.691 -2.382,0 0,-2.691 z"
         id="path3694"
         inkscape:connector-curvature="0" />
    </clipPath>
    <clipPath
       id="clipPath3674">
      <path
         d="m 186.894,628.321 0,-5.67 -23.53,0.31 0,-0.282 0,5.67 23.53,-0.028"
         id="path3676"
         inkscape:connector-curvature="0" />
    </clipPath>
    <clipPath
       id="clipPath3668">
      <path
         d="m 167.856,620.437 2.382,0 0,2.691 -2.382,0 0,-2.691 z"
         id="path3670"
         inkscape:connector-curvature="0" />
    </clipPath>
    <clipPath
       id="clipPath3650">
      <path
         d="m 186.894,628.321 0,-5.67 -23.53,0.31 0,-0.282 0,5.67 23.53,-0.028"
         id="path3652"
         inkscape:connector-curvature="0" />
    </clipPath>
    <clipPath
       id="clipPath3644">
      <path
         d="m 165.714,620.437 2.382,0 0,2.691 -2.382,0 0,-2.691 z"
         id="path3646"
         inkscape:connector-curvature="0" />
    </clipPath>
    <clipPath
       id="clipPath3628">
      <path
         d="m 186.894,628.321 0,-5.67 -23.53,0.31 0,-0.282 0,5.67 23.53,-0.028"
         id="path3630"
         inkscape:connector-curvature="0" />
    </clipPath>
    <clipPath
       id="clipPath3622">
      <path
         d="m 163.572,620.437 2.382,0 0,2.691 -2.382,0 0,-2.691 z"
         id="path3624"
         inkscape:connector-curvature="0" />
    </clipPath>
    <clipPath
       id="clipPath3606">
      <path
         d="m 186.894,628.321 0,-5.67 -23.53,0.31 0,-0.282 0,5.67 23.53,-0.028"
         id="path3608"
         inkscape:connector-curvature="0" />
    </clipPath>
    <clipPath
       id="clipPath3600">
      <path
         d="m 161.43,620.437 2.382,0 0,2.691 -2.382,0 0,-2.691 z"
         id="path3602"
         inkscape:connector-curvature="0" />
    </clipPath>
    <clipPath
       id="clipPath3586">
      <path
         d="m 191.997,618.937 0.284,9.355 5.67,0 -0.284,-4.537 8.222,-0.282 0.282,0.282 -0.282,-5.102 -13.608,0.284"
         id="path3588"
         inkscape:connector-curvature="0" />
    </clipPath>
    <clipPath
       id="clipPath3580">
      <path
         d="m 197.845,627.789 2.382,0 0,2.691 -2.382,0 0,-2.691 z"
         id="path3582"
         inkscape:connector-curvature="0" />
    </clipPath>
    <clipPath
       id="clipPath3560">
      <path
         d="m 191.997,618.937 0.284,9.355 5.67,0 -0.284,-4.537 8.222,-0.282 0.282,0.282 -0.282,-5.102 -13.608,0.284"
         id="path3562"
         inkscape:connector-curvature="0" />
    </clipPath>
    <clipPath
       id="clipPath3554">
      <path
         d="m 195.703,627.789 2.382,0 0,2.691 -2.382,0 0,-2.691 z"
         id="path3556"
         inkscape:connector-curvature="0" />
    </clipPath>
    <clipPath
       id="clipPath3534">
      <path
         d="m 191.997,618.937 0.284,9.355 5.67,0 -0.284,-4.537 8.222,-0.282 0.282,0.282 -0.282,-5.102 -13.608,0.284"
         id="path3536"
         inkscape:connector-curvature="0" />
    </clipPath>
    <clipPath
       id="clipPath3528">
      <path
         d="m 193.561,627.789 2.382,0 0,2.691 -2.382,0 0,-2.691 z"
         id="path3530"
         inkscape:connector-curvature="0" />
    </clipPath>
    <clipPath
       id="clipPath3508">
      <path
         d="m 191.997,618.937 0.284,9.355 5.67,0 -0.284,-4.537 8.222,-0.282 0.282,0.282 -0.282,-5.102 -13.608,0.284"
         id="path3510"
         inkscape:connector-curvature="0" />
    </clipPath>
    <clipPath
       id="clipPath3502">
      <path
         d="m 191.419,627.789 2.382,0 0,2.691 -2.382,0 0,-2.691 z"
         id="path3504"
         inkscape:connector-curvature="0" />
    </clipPath>
    <clipPath
       id="clipPath3484">
      <path
         d="m 191.997,618.937 0.284,9.355 5.67,0 -0.284,-4.537 8.222,-0.282 0.282,0.282 -0.282,-5.102 -13.608,0.284"
         id="path3486"
         inkscape:connector-curvature="0" />
    </clipPath>
    <clipPath
       id="clipPath3478">
      <path
         d="m 197.845,625.338 2.382,0 0,2.691 -2.382,0 0,-2.691 z"
         id="path3480"
         inkscape:connector-curvature="0" />
    </clipPath>
    <clipPath
       id="clipPath3442">
      <path
         d="m 191.997,618.937 0.284,9.355 5.67,0 -0.284,-4.537 8.222,-0.282 0.282,0.282 -0.282,-5.102 -13.608,0.284"
         id="path3444"
         inkscape:connector-curvature="0" />
    </clipPath>
    <clipPath
       id="clipPath3436">
      <path
         d="m 195.703,625.338 2.382,0 0,2.691 -2.382,0 0,-2.691 z"
         id="path3438"
         inkscape:connector-curvature="0" />
    </clipPath>
    <clipPath
       id="clipPath3404">
      <path
         d="m 191.997,618.937 0.284,9.355 5.67,0 -0.284,-4.537 8.222,-0.282 0.282,0.282 -0.282,-5.102 -13.608,0.284"
         id="path3406"
         inkscape:connector-curvature="0" />
    </clipPath>
    <clipPath
       id="clipPath3398">
      <path
         d="m 193.561,625.338 2.382,0 0,2.691 -2.382,0 0,-2.691 z"
         id="path3400"
         inkscape:connector-curvature="0" />
    </clipPath>
    <clipPath
       id="clipPath3366">
      <path
         d="m 191.997,618.937 0.284,9.355 5.67,0 -0.284,-4.537 8.222,-0.282 0.282,0.282 -0.282,-5.102 -13.608,0.284"
         id="path3368"
         inkscape:connector-curvature="0" />
    </clipPath>
    <clipPath
       id="clipPath3360">
      <path
         d="m 191.419,625.338 2.382,0 0,2.691 -2.382,0 0,-2.691 z"
         id="path3362"
         inkscape:connector-curvature="0" />
    </clipPath>
    <clipPath
       id="clipPath3338">
      <path
         d="m 191.997,618.937 0.284,9.355 5.67,0 -0.284,-4.537 8.222,-0.282 0.282,0.282 -0.282,-5.102 -13.608,0.284"
         id="path3340"
         inkscape:connector-curvature="0" />
    </clipPath>
    <clipPath
       id="clipPath3332">
      <path
         d="m 204.272,622.888 2.382,0 0,2.691 -2.382,0 0,-2.691 z"
         id="path3334"
         inkscape:connector-curvature="0" />
    </clipPath>
    <clipPath
       id="clipPath3310">
      <path
         d="m 191.997,618.937 0.284,9.355 5.67,0 -0.284,-4.537 8.222,-0.282 0.282,0.282 -0.282,-5.102 -13.608,0.284"
         id="path3312"
         inkscape:connector-curvature="0" />
    </clipPath>
    <clipPath
       id="clipPath3304">
      <path
         d="m 202.129,622.888 2.382,0 0,2.691 -2.382,0 0,-2.691 z"
         id="path3306"
         inkscape:connector-curvature="0" />
    </clipPath>
    <clipPath
       id="clipPath3278">
      <path
         d="m 191.997,618.937 0.284,9.355 5.67,0 -0.284,-4.537 8.222,-0.282 0.282,0.282 -0.282,-5.102 -13.608,0.284"
         id="path3280"
         inkscape:connector-curvature="0" />
    </clipPath>
    <clipPath
       id="clipPath3272">
      <path
         d="m 199.987,622.888 2.382,0 0,2.691 -2.382,0 0,-2.691 z"
         id="path3274"
         inkscape:connector-curvature="0" />
    </clipPath>
    <clipPath
       id="clipPath3236">
      <path
         d="m 191.997,618.937 0.284,9.355 5.67,0 -0.284,-4.537 8.222,-0.282 0.282,0.282 -0.282,-5.102 -13.608,0.284"
         id="path3238"
         inkscape:connector-curvature="0" />
    </clipPath>
    <clipPath
       id="clipPath3230">
      <path
         d="m 197.845,622.888 2.382,0 0,2.691 -2.382,0 0,-2.691 z"
         id="path3232"
         inkscape:connector-curvature="0" />
    </clipPath>
    <clipPath
       id="clipPath3194">
      <path
         d="m 191.997,618.937 0.284,9.355 5.67,0 -0.284,-4.537 8.222,-0.282 0.282,0.282 -0.282,-5.102 -13.608,0.284"
         id="path3196"
         inkscape:connector-curvature="0" />
    </clipPath>
    <clipPath
       id="clipPath3188">
      <path
         d="m 195.703,622.888 2.382,0 0,2.691 -2.382,0 0,-2.691 z"
         id="path3190"
         inkscape:connector-curvature="0" />
    </clipPath>
    <clipPath
       id="clipPath3156">
      <path
         d="m 191.997,618.937 0.284,9.355 5.67,0 -0.284,-4.537 8.222,-0.282 0.282,0.282 -0.282,-5.102 -13.608,0.284"
         id="path3158"
         inkscape:connector-curvature="0" />
    </clipPath>
    <clipPath
       id="clipPath3150">
      <path
         d="m 193.561,622.888 2.382,0 0,2.691 -2.382,0 0,-2.691 z"
         id="path3152"
         inkscape:connector-curvature="0" />
    </clipPath>
    <clipPath
       id="clipPath3118">
      <path
         d="m 191.997,618.937 0.284,9.355 5.67,0 -0.284,-4.537 8.222,-0.282 0.282,0.282 -0.282,-5.102 -13.608,0.284"
         id="path3120"
         inkscape:connector-curvature="0" />
    </clipPath>
    <clipPath
       id="clipPath3112">
      <path
         d="m 191.419,622.888 2.382,0 0,2.691 -2.382,0 0,-2.691 z"
         id="path3114"
         inkscape:connector-curvature="0" />
    </clipPath>
    <clipPath
       id="clipPath3082">
      <path
         d="m 191.997,618.937 0.284,9.355 5.67,0 -0.284,-4.537 8.222,-0.282 0.282,0.282 -0.282,-5.102 -13.608,0.284"
         id="path3084"
         inkscape:connector-curvature="0" />
    </clipPath>
    <clipPath
       id="clipPath3076">
      <path
         d="m 204.272,620.437 2.382,0 0,2.691 -2.382,0 0,-2.691 z"
         id="path3078"
         inkscape:connector-curvature="0" />
    </clipPath>
    <clipPath
       id="clipPath3040">
      <path
         d="m 191.997,618.937 0.284,9.355 5.67,0 -0.284,-4.537 8.222,-0.282 0.282,0.282 -0.282,-5.102 -13.608,0.284"
         id="path3042"
         inkscape:connector-curvature="0" />
    </clipPath>
    <clipPath
       id="clipPath3034">
      <path
         d="m 202.129,620.437 2.382,0 0,2.691 -2.382,0 0,-2.691 z"
         id="path3036"
         inkscape:connector-curvature="0" />
    </clipPath>
    <clipPath
       id="clipPath2998">
      <path
         d="m 191.997,618.937 0.284,9.355 5.67,0 -0.284,-4.537 8.222,-0.282 0.282,0.282 -0.282,-5.102 -13.608,0.284"
         id="path3000"
         inkscape:connector-curvature="0" />
    </clipPath>
    <clipPath
       id="clipPath2992">
      <path
         d="m 199.987,620.437 2.382,0 0,2.691 -2.382,0 0,-2.691 z"
         id="path2994"
         inkscape:connector-curvature="0" />
    </clipPath>
    <clipPath
       id="clipPath2956">
      <path
         d="m 191.997,618.937 0.284,9.355 5.67,0 -0.284,-4.537 8.222,-0.282 0.282,0.282 -0.282,-5.102 -13.608,0.284"
         id="path2958"
         inkscape:connector-curvature="0" />
    </clipPath>
    <clipPath
       id="clipPath2950">
      <path
         d="m 197.845,620.437 2.382,0 0,2.691 -2.382,0 0,-2.691 z"
         id="path2952"
         inkscape:connector-curvature="0" />
    </clipPath>
    <clipPath
       id="clipPath2914">
      <path
         d="m 191.997,618.937 0.284,9.355 5.67,0 -0.284,-4.537 8.222,-0.282 0.282,0.282 -0.282,-5.102 -13.608,0.284"
         id="path2916"
         inkscape:connector-curvature="0" />
    </clipPath>
    <clipPath
       id="clipPath2908">
      <path
         d="m 195.703,620.437 2.382,0 0,2.691 -2.382,0 0,-2.691 z"
         id="path2910"
         inkscape:connector-curvature="0" />
    </clipPath>
    <clipPath
       id="clipPath2876">
      <path
         d="m 191.997,618.937 0.284,9.355 5.67,0 -0.284,-4.537 8.222,-0.282 0.282,0.282 -0.282,-5.102 -13.608,0.284"
         id="path2878"
         inkscape:connector-curvature="0" />
    </clipPath>
    <clipPath
       id="clipPath2870">
      <path
         d="m 193.561,620.437 2.382,0 0,2.691 -2.382,0 0,-2.691 z"
         id="path2872"
         inkscape:connector-curvature="0" />
    </clipPath>
    <clipPath
       id="clipPath2838">
      <path
         d="m 191.997,618.937 0.284,9.355 5.67,0 -0.284,-4.537 8.222,-0.282 0.282,0.282 -0.282,-5.102 -13.608,0.284"
         id="path2840"
         inkscape:connector-curvature="0" />
    </clipPath>
    <clipPath
       id="clipPath2832">
      <path
         d="m 191.419,620.437 2.382,0 0,2.691 -2.382,0 0,-2.691 z"
         id="path2834"
         inkscape:connector-curvature="0" />
    </clipPath>
    <clipPath
       id="clipPath2804">
      <path
         d="m 191.997,618.937 0.284,9.355 5.67,0 -0.284,-4.537 8.222,-0.282 0.282,0.282 -0.282,-5.102 -13.608,0.284"
         id="path2806"
         inkscape:connector-curvature="0" />
    </clipPath>
    <clipPath
       id="clipPath2798">
      <path
         d="m 204.272,617.986 2.382,0 0,2.691 -2.382,0 0,-2.691 z"
         id="path2800"
         inkscape:connector-curvature="0" />
    </clipPath>
    <clipPath
       id="clipPath2764">
      <path
         d="m 191.997,618.937 0.284,9.355 5.67,0 -0.284,-4.537 8.222,-0.282 0.282,0.282 -0.282,-5.102 -13.608,0.284"
         id="path2766"
         inkscape:connector-curvature="0" />
    </clipPath>
    <clipPath
       id="clipPath2758">
      <path
         d="m 202.129,617.986 2.382,0 0,2.691 -2.382,0 0,-2.691 z"
         id="path2760"
         inkscape:connector-curvature="0" />
    </clipPath>
    <clipPath
       id="clipPath2724">
      <path
         d="m 191.997,618.937 0.284,9.355 5.67,0 -0.284,-4.537 8.222,-0.282 0.282,0.282 -0.282,-5.102 -13.608,0.284"
         id="path2726"
         inkscape:connector-curvature="0" />
    </clipPath>
    <clipPath
       id="clipPath2718">
      <path
         d="m 199.987,617.986 2.382,0 0,2.691 -2.382,0 0,-2.691 z"
         id="path2720"
         inkscape:connector-curvature="0" />
    </clipPath>
    <clipPath
       id="clipPath2684">
      <path
         d="m 191.997,618.937 0.284,9.355 5.67,0 -0.284,-4.537 8.222,-0.282 0.282,0.282 -0.282,-5.102 -13.608,0.284"
         id="path2686"
         inkscape:connector-curvature="0" />
    </clipPath>
    <clipPath
       id="clipPath2678">
      <path
         d="m 197.845,617.986 2.382,0 0,2.691 -2.382,0 0,-2.691 z"
         id="path2680"
         inkscape:connector-curvature="0" />
    </clipPath>
    <clipPath
       id="clipPath2644">
      <path
         d="m 191.997,618.937 0.284,9.355 5.67,0 -0.284,-4.537 8.222,-0.282 0.282,0.282 -0.282,-5.102 -13.608,0.284"
         id="path2646"
         inkscape:connector-curvature="0" />
    </clipPath>
    <clipPath
       id="clipPath2638">
      <path
         d="m 195.703,617.986 2.382,0 0,2.691 -2.382,0 0,-2.691 z"
         id="path2640"
         inkscape:connector-curvature="0" />
    </clipPath>
    <clipPath
       id="clipPath2612">
      <path
         d="m 191.997,618.937 0.284,9.355 5.67,0 -0.284,-4.537 8.222,-0.282 0.282,0.282 -0.282,-5.102 -13.608,0.284"
         id="path2614"
         inkscape:connector-curvature="0" />
    </clipPath>
    <clipPath
       id="clipPath2606">
      <path
         d="m 193.561,617.986 2.382,0 0,2.691 -2.382,0 0,-2.691 z"
         id="path2608"
         inkscape:connector-curvature="0" />
    </clipPath>
    <clipPath
       id="clipPath2580">
      <path
         d="m 191.997,618.937 0.284,9.355 5.67,0 -0.284,-4.537 8.222,-0.282 0.282,0.282 -0.282,-5.102 -13.608,0.284"
         id="path2582"
         inkscape:connector-curvature="0" />
    </clipPath>
    <clipPath
       id="clipPath2574">
      <path
         d="m 191.419,617.986 2.382,0 0,2.691 -2.382,0 0,-2.691 z"
         id="path2576"
         inkscape:connector-curvature="0" />
    </clipPath>
    <clipPath
       id="clipPath2490">
      <path
         d="m 0.12,842.04 594.96,0 0,-841.92 -594.96,0 0,841.92 z"
         id="path2492"
         inkscape:connector-curvature="0" />
    </clipPath>
    <clipPath
       id="clipPath2484">
      <path
         d="m 12,830 571,0 0,-818 -571,0 0,818 z"
         id="path2486"
         inkscape:connector-curvature="0" />
    </clipPath>
    <clipPath
       id="clipPath2478">
      <path
         d="m 10.61,842 585.58,0 0,-799.37 -585.58,0 0,799.37 z"
         id="path2480"
         inkscape:connector-curvature="0" />
    </clipPath>
    <clipPath
       id="clipPath2466">
      <path
         d="m 0.12,842.04 594.96,0 0,-841.92 -594.96,0 0,841.92 z"
         id="path2468"
         inkscape:connector-curvature="0" />
    </clipPath>
    <clipPath
       id="clipPath2460">
      <path
         d="m 12,830 571,0 0,-818 -571,0 0,818 z"
         id="path2462"
         inkscape:connector-curvature="0" />
    </clipPath>
  </defs>
  <path
     d="M 37,0 C 16.597874,0 0,16.597874 0,37 0,57.402126 16.597874,74 37,74 57.402126,74 74,57.402126 74,37 74,16.597874 57.402126,0 37,0 z m 0,4 c 14.748779,0 27.235083,9.660744 31.46875,23 L 5.53125,27 C 9.764917,13.660744 22.251221,4 37,4 z M 4.53125,31 69.46875,31 C 69.825371,32.945159 70,34.951104 70,37 c 0,2.048896 -0.174629,4.054841 -0.53125,6 L 4.53125,43 C 4.174629,41.054841 4,39.048896 4,37 4,34.951104 4.174629,32.945159 4.53125,31 z m 1,16 62.9375,0 C 64.235083,60.339256 51.748779,70 37,70 22.251221,70 9.764917,60.339256 5.53125,47 z"
     id="path8782"
     inkscape:connector-curvature="0" />
</svg>
