<?xml version="1.0" encoding="UTF-8" standalone="no"?>
<svg
   xmlns:dc="http://purl.org/dc/elements/1.1/"
   xmlns:cc="http://creativecommons.org/ns#"
   xmlns:rdf="http://www.w3.org/1999/02/22-rdf-syntax-ns#"
   xmlns:svg="http://www.w3.org/2000/svg"
   xmlns="http://www.w3.org/2000/svg"
   xmlns:sodipodi="http://sodipodi.sourceforge.net/DTD/sodipodi-0.dtd"
   xmlns:inkscape="http://www.inkscape.org/namespaces/inkscape"
   version="1.0"
   width="78.3125"
   height="61.970165"
   id="svg2"
   inkscape:version="0.48.2 r9819"
   sodipodi:docname="black.svg"
   sodipodi:version="0.32"
   inkscape:output_extension="org.inkscape.output.svg.inkscape"
   sodipodi:modified="true">
  <title
     id="title2982">Q22: Black spherical buoy</title>
  <metadata
     id="metadata3380">
    <rdf:RDF>
      <cc:Work
         rdf:about="">
        <dc:format>image/svg+xml</dc:format>
        <dc:type
           rdf:resource="http://purl.org/dc/dcmitype/StillImage" />
        <cc:license
           rdf:resource="http://creativecommons.org/licenses/publicdomain/" />
        <dc:title>Q22: Black spherical buoy</dc:title>
      </cc:Work>
      <cc:Work
         rdf:about="">
        <dc:format>image/svg+xml</dc:format>
        <dc:type
           rdf:resource="http://purl.org/dc/dcmitype/StillImage" />
      </cc:Work>
      <cc:License
         rdf:about="http://creativecommons.org/licenses/publicdomain/">
        <cc:permits
           rdf:resource="http://creativecommons.org/ns#Reproduction" />
        <cc:permits
           rdf:resource="http://creativecommons.org/ns#Distribution" />
        <cc:permits
           rdf:resource="http://creativecommons.org/ns#DerivativeWorks" />
      </cc:License>
    </rdf:RDF>
  </metadata>
  <sodipodi:namedview
     pagecolor="#ffffff"
     bordercolor="#666666"
     borderopacity="1"
     objecttolerance="10"
     gridtolerance="10"
     guidetolerance="10"
     inkscape:pageopacity="0"
     inkscape:pageshadow="2"
     inkscape:window-width="802"
     inkscape:window-height="575"
     id="namedview3378"
     showgrid="false"
     inkscape:zoom="4.0734238"
     inkscape:cx="-4.0506464"
     inkscape:cy="30.985083"
     inkscape:window-x="26"
     inkscape:window-y="26"
     inkscape:window-maximized="0"
     inkscape:current-layer="svg2" />
  <defs
     id="defs4" />
  <path
     d="M 38.5,0.0014169953 C 32.82787,0.050396995 27.09412,1.525097 21.875,4.595167 C 7.21353,13.219567 1.53256,31.407397 8.0625,46.657667 L 0,46.657667 L 0,52.313917 L 21.71875,52.313917 C 23.00607,57.846867 27.95202,61.970157 33.875,61.970167 C 39.79995,61.970167 44.74595,57.849647 46.03125,52.313917 L 78.3125,52.345167 L 78.3125,46.688917 L 69.71875,46.657667 C 73.95774,36.885797 73.29481,25.896347 67.75,16.470167 C 61.90225,6.528987 51.67759,0.742107 40.9375,0.063916995 C 40.13199,0.013056995 39.3103,-0.0055830047 38.5,0.0014169953 z M 33.875,41.970167 C 38.015,41.970167 41.375,45.330167 41.375,49.470167 C 41.375,53.610167 38.015,56.970167 33.875,56.970167 C 29.735,56.970167 26.375,53.610167 26.375,49.470167 C 26.375,45.330167 29.735,41.970167 33.875,41.970167 z "
     id="path4347"
     style="fill:#000407;fill-opacity:1;fill-rule:evenodd;stroke:none" />
</svg>
