<?xml version="1.0" encoding="UTF-8" standalone="no"?>
<svg
   xmlns:dc="http://purl.org/dc/elements/1.1/"
   xmlns:cc="http://creativecommons.org/ns#"
   xmlns:rdf="http://www.w3.org/1999/02/22-rdf-syntax-ns#"
   xmlns:svg="http://www.w3.org/2000/svg"
   xmlns="http://www.w3.org/2000/svg"
   xmlns:sodipodi="http://sodipodi.sourceforge.net/DTD/sodipodi-0.dtd"
   xmlns:inkscape="http://www.inkscape.org/namespaces/inkscape"
   version="1.0"
   width="78.3125"
   height="61.970165"
   id="svg2"
   inkscape:version="0.48.2 r9819"
   sodipodi:docname="H_black_red_black.svg"
   sodipodi:version="0.32"
   inkscape:output_extension="org.inkscape.output.svg.inkscape"
   sodipodi:modified="true">
  <title
     id="title2984">Q22: Black and red spherical buoy</title>
  <metadata
     id="metadata3422">
    <rdf:RDF>
      <cc:Work
         rdf:about="">
        <dc:format>image/svg+xml</dc:format>
        <dc:type
           rdf:resource="http://purl.org/dc/dcmitype/StillImage" />
        <cc:license
           rdf:resource="http://creativecommons.org/licenses/publicdomain/" />
        <dc:title>Q22: Black and red spherical buoy</dc:title>
      </cc:Work>
      <cc:Work
         rdf:about="">
        <dc:format>image/svg+xml</dc:format>
        <dc:type
           rdf:resource="http://purl.org/dc/dcmitype/StillImage" />
      </cc:Work>
      <cc:License
         rdf:about="http://creativecommons.org/licenses/publicdomain/">
        <cc:permits
           rdf:resource="http://creativecommons.org/ns#Reproduction" />
        <cc:permits
           rdf:resource="http://creativecommons.org/ns#Distribution" />
        <cc:permits
           rdf:resource="http://creativecommons.org/ns#DerivativeWorks" />
      </cc:License>
    </rdf:RDF>
  </metadata>
  <sodipodi:namedview
     pagecolor="#ffffff"
     bordercolor="#666666"
     borderopacity="1"
     objecttolerance="10"
     gridtolerance="10"
     guidetolerance="10"
     inkscape:pageopacity="0"
     inkscape:pageshadow="2"
     inkscape:window-width="1440"
     inkscape:window-height="808"
     id="namedview3420"
     showgrid="false"
     inkscape:zoom="8.8752386"
     inkscape:cx="19.325797"
     inkscape:cy="30.985083"
     inkscape:window-x="0"
     inkscape:window-y="0"
     inkscape:window-maximized="1"
     inkscape:current-layer="svg2" />
  <defs
     id="defs4" />
  <path
     style="fill:#000000;fill-opacity:1;stroke:none;stroke-width:1px;stroke-linecap:butt;stroke-linejoin:miter;stroke-opacity:1"
     d="M 12.88224,49.911557 L 22.14939,49.911557 L 24.13521,44.616047 L 30.09266,39.982477 L 38.03593,39.320537 L 41.34563,43.292167 L 44.65532,49.249617 L 63.85156,49.249617 L 68.48514,40.644407 L 68.48514,34.025017 L 66.49932,23.433987 L 61.2038,13.504907 L 54.58441,8.209387 L 46.64114,4.237757 L 36.71205,2.913877 L 26.78296,4.899697 L 19.50163,10.857147 L 12.2203,19.462357 L 9.57254,28.729507 L 8.9106,36.672777 L 12.88224,49.911557 z "
     id="path2982"
     inkscape:connector-curvature="0" />
  <path
     style="fill:#d40000;stroke:none"
     d="M 9.69499,26.590187 L 67.01127,42.388897 L 69.09327,27.692427 L 15.0837,12.750997 L 9.69499,26.590187 z "
     id="path2983"
     inkscape:connector-curvature="0"
     sodipodi:nodetypes="ccccc" />
  <path
     d="M 38.5,0.0014169953 C 32.82787,0.050396995 27.09412,1.525097 21.875,4.595167 C 7.21353,13.219567 1.53256,31.407397 8.0625,46.657667 L 0,46.657667 L 0,52.313917 L 21.71875,52.313917 C 23.00607,57.846867 27.95202,61.970157 33.875,61.970167 C 39.79995,61.970167 44.74595,57.849647 46.03125,52.313917 L 78.3125,52.345167 L 78.3125,46.688917 L 69.71875,46.657667 C 73.95774,36.885797 73.29481,25.896347 67.75,16.470167 C 61.90225,6.528987 51.67759,0.742107 40.9375,0.063916995 C 40.13199,0.013056995 39.3103,-0.0055830047 38.5,0.0014169953 z M 39.25,6.938917 C 48.19702,7.061407 56.83881,11.736767 61.71875,20.032667 C 66.76387,28.609367 66.7912,38.096547 61.84375,46.657667 L 46.03125,46.626417 C 44.74595,41.090687 39.79995,36.970167 33.875,36.970167 C 27.95202,36.970177 23.00607,41.093467 21.71875,46.626417 L 15.875,46.626417 C 8.66503,34.026987 12.88981,18.007407 25.4375,10.626417 C 29.78297,8.070257 34.56347,6.874757 39.25,6.938917 z M 33.875,41.970167 C 38.015,41.970167 41.375,45.330167 41.375,49.470167 C 41.375,53.610167 38.015,56.970167 33.875,56.970167 C 29.735,56.970167 26.375,53.610167 26.375,49.470167 C 26.375,45.330167 29.735,41.970167 33.875,41.970167 z "
     id="path93160"
     style="fill:#000407;fill-opacity:1;fill-rule:evenodd;stroke:none" />
</svg>
