<?xml version="1.0" encoding="UTF-8" standalone="no"?>
<svg
   xmlns:dc="http://purl.org/dc/elements/1.1/"
   xmlns:cc="http://creativecommons.org/ns#"
   xmlns:rdf="http://www.w3.org/1999/02/22-rdf-syntax-ns#"
   xmlns:svg="http://www.w3.org/2000/svg"
   xmlns="http://www.w3.org/2000/svg"
   xmlns:sodipodi="http://sodipodi.sourceforge.net/DTD/sodipodi-0.dtd"
   xmlns:inkscape="http://www.inkscape.org/namespaces/inkscape"
   version="1.0"
   width="78.3125"
   height="61.970169"
   id="svg2"
   inkscape:version="0.48.2 r9819"
   sodipodi:docname="H_red_white_red_white.svg"
   sodipodi:version="0.32"
   inkscape:output_extension="org.inkscape.output.svg.inkscape"
   sodipodi:modified="true">
  <title
     id="title2984">Q22: Red and white spherical buoy</title>
  <metadata
     id="metadata3422">
    <rdf:RDF>
      <cc:Work
         rdf:about="">
        <dc:format>image/svg+xml</dc:format>
        <dc:type
           rdf:resource="http://purl.org/dc/dcmitype/StillImage" />
        <cc:license
           rdf:resource="http://creativecommons.org/licenses/publicdomain/" />
        <dc:title>Q22: Red and white spherical buoy</dc:title>
      </cc:Work>
      <cc:Work
         rdf:about="">
        <dc:format>image/svg+xml</dc:format>
        <dc:type
           rdf:resource="http://purl.org/dc/dcmitype/StillImage" />
      </cc:Work>
      <cc:License
         rdf:about="http://creativecommons.org/licenses/publicdomain/">
        <cc:permits
           rdf:resource="http://creativecommons.org/ns#Reproduction" />
        <cc:permits
           rdf:resource="http://creativecommons.org/ns#Distribution" />
        <cc:permits
           rdf:resource="http://creativecommons.org/ns#DerivativeWorks" />
      </cc:License>
    </rdf:RDF>
  </metadata>
  <sodipodi:namedview
     pagecolor="#ffffff"
     bordercolor="#666666"
     borderopacity="1"
     objecttolerance="10"
     gridtolerance="10"
     guidetolerance="10"
     inkscape:pageopacity="0"
     inkscape:pageshadow="2"
     inkscape:window-width="1440"
     inkscape:window-height="808"
     id="namedview3420"
     showgrid="false"
     inkscape:zoom="8.875238"
     inkscape:cx="19.325796"
     inkscape:cy="30.985085"
     inkscape:window-x="0"
     inkscape:window-y="0"
     inkscape:window-maximized="1"
     inkscape:current-layer="svg2" />
  <defs
     id="defs4" />
  <path
     style="fill:#d40000;fill-opacity:1;stroke:none;stroke-width:1px;stroke-linecap:butt;stroke-linejoin:miter;stroke-opacity:1"
     d="M 12.88224,49.911559 L 22.14939,49.911559 L 24.13521,44.616049 L 30.09266,39.982479 L 38.03593,39.320539 L 41.34563,43.292169 L 44.65532,49.249619 L 63.85156,49.249619 L 68.48514,40.644409 L 68.48514,34.025019 L 66.49932,23.433989 L 61.2038,13.504909 L 54.58441,8.2093889 L 46.64114,4.2377589 L 36.71205,2.9138789 L 26.78296,4.8996989 L 19.50163,10.857149 L 12.2203,19.462359 L 9.57254,28.729509 L 8.9106,36.672779 L 12.88224,49.911559 z "
     id="path2982"
     inkscape:connector-curvature="0" />
  <path
     style="fill:#ffffff;stroke:none"
     d="M 18.5,11.532669 L 11.78125,21.688919 L 68.59375,37.626419 L 68,25.595169 L 18.5,11.532669 z M 10.8125,30.126419 L 8.96875,36.345169 L 13.28125,49.470169 L 23.3125,49.345169 L 25.3125,44.032669 L 28.78125,40.001419 L 33.34375,38.470169 L 38.78125,40.001419 L 43,43.657669 L 44.75,49.595169 L 64.40625,49.970169 L 66.53125,45.188919 L 10.8125,30.126419 z "
     id="path2983" />
  <path
     d="M 38.5,0.0014188684 C 32.82787,0.050418868 27.09412,1.5250989 21.875,4.5951689 C 7.21353,13.219569 1.53256,31.407399 8.0625,46.657669 L 0,46.657669 L 0,52.313919 L 21.71875,52.313919 C 23.00607,57.846869 27.95202,61.970159 33.875,61.970169 C 39.79995,61.970169 44.74595,57.849649 46.03125,52.313919 L 78.3125,52.345119 L 78.3125,46.688869 L 69.71875,46.657669 C 73.95774,36.885799 73.29481,25.896349 67.75,16.470169 C 61.90225,6.5289889 51.67759,0.74210887 40.9375,0.063918868 C 40.13199,0.013018868 39.3103,-0.0055811316 38.5,0.0014188684 z M 39.25,6.9389189 C 48.19702,7.0614089 56.83881,11.736769 61.71875,20.032669 C 66.76387,28.609369 66.7912,38.096549 61.84375,46.657669 L 46.03125,46.626469 C 44.74595,41.090739 39.79995,36.970219 33.875,36.970219 C 27.95202,36.970229 23.00607,41.093519 21.71875,46.626469 L 15.875,46.626469 C 8.66503,34.027039 12.88981,18.007459 25.4375,10.626469 C 29.78297,8.0703089 34.56347,6.8748089 39.25,6.9389689 L 39.25,6.9389189 z M 33.875,41.970169 C 38.015,41.970169 41.375,45.330169 41.375,49.470169 C 41.375,53.610169 38.015,56.970169 33.875,56.970169 C 29.735,56.970169 26.375,53.610169 26.375,49.470169 C 26.375,45.330169 29.735,41.970169 33.875,41.970169 z "
     id="path93160"
     style="fill:#000407;fill-opacity:1;fill-rule:evenodd;stroke:none"
     inkscape:connector-curvature="0"
     sodipodi:nodetypes="ssccccsccccsssssccsccsssssss" />
</svg>
